M48
;Layer_Color=9474304
;FILE_FORMAT=4:4
METRIC,LZ
;TYPE=PLATED
T01F00S00C0.5000
T02F00S00C0.8000
T03F00S00C1.0000
T04F00S00C1.2000
T05F00S00C1.7000
T06F00S00C3.1000
;TYPE=NON_PLATED
%
T01
X001143Y001397
X000762Y0034544
X00309Y00328
X00254Y000254
X00412Y00101
X00407Y00148
X0048Y00101
X00523Y00117
X00538Y00104
Y00068
X00506
Y0005
X004675
X005475Y0002
X00586
X00626
Y00106
X00585
X00605Y00135
X00538Y00144863
X00523Y00158
X0058525Y00224
X00601
X00673Y00151
X00714Y00158
X0076Y00282
X00632Y00342863
X0045175Y00244
X00436
X00794Y00247
X008Y00261
X00822Y00297
X00816Y00356
X00346Y00413
T02
X0066Y00112
X0068
X007
X0072
X0074
X0076
X0078
X0078Y00332
X0076
X0074
X0072
X007
X0068
X0066
X008
X0082
X0084
Y00112
X0082
X008
T03
X0032385Y000381
Y000635
X003937
Y000381
Y0019685
Y0022225
X0032385
Y0019685
T04
X004455Y0032408
X004705
X004955
X005205
X005455
X005705
T05
X004455Y0039588
X005705
T06
X00145Y000975
Y003475
X00795Y00385
Y0006
M30
