M48
;Layer_Color=9474304
;FILE_FORMAT=4:4
METRIC,LZ
;TYPE=PLATED
T01F00S00C0.2540
T02F00S00C0.3810
T03F00S00C0.6350
T04F00S00C0.7620
T05F00S00C0.9000
T06F00S00C1.0160
T07F00S00C1.5000
T08F00S00C1.9304
T09F00S00C3.3000
T10F00S00C5.0000
;TYPE=NON_PLATED
T11F00S00C4.4000
%
T01
X-00375375Y-00375375
X-00383474Y-00367097
X-00391391Y-00358644
X-00399122Y-0035002
X-0039624Y-0033782
X-00406662Y-0034123
X-0041401Y-00332278
X-0042116Y-00323167
X-00428109Y-00313903
X-00434855Y-00304489
X-00441394Y-0029493
X-00447723Y-00285231
X-00453839Y-00275396
X-00459738Y-0026543
X-00465419Y-00255338
X-00470879Y-00245124
X-0042545Y-0024892
X-003556Y-0024003
X-003429Y-00242909
X-0034671Y-002667
X-0033909Y-0028829
X-00320802Y-0029591
X-00309372Y-0030099
X-0029845Y-0034417
X-0031496Y-003556
X-0032639Y-0036703
X-0033274Y-0037592
X-003302Y-0039624
X-00332278Y-0041401
X-0034123Y-00406662
X-0035002Y-00399122
X-00358644Y-00391391
X-00367097Y-00383474
X-0038989Y-0031877
X-0026543Y-0032766
X-0025146Y-0033401
X-0021844Y-0034417
X-0022606Y-0030988
X-0025273Y-0028194
X-0027686Y-0025527
X-00275396Y-00453839
X-0026543Y-00459738
X-00255338Y-00465419
X-00245124Y-00470879
X-00234793Y-00476114
X-00224351Y-00481123
X-0021844Y-0047244
X-0026035Y-0044831
X-0018669Y-0044958
Y-0043434
X-0020066Y-0041783
X-0019812Y-003937
X-0017653Y-0038862
X-0017399Y-0037211
Y-0036322
X-00174244Y-003556
X-0018288Y-0034671
X-0019558Y-0034544
X-0021209Y-003556
Y-0036703
Y-0037846
X-0015113Y-0036703
X-0011938Y-0037592
X-0011811Y-0041402
X-0011049
X-0009779Y-00434848
Y-0044196
Y-0044958
X-000889Y-0047244
X-0011049Y-0046863
X-0011684
X-0013081Y-0044831
Y-00441198
Y-00434086
X-0012896Y-0049142
X-0014855Y-00509652
X-00159633Y-0050629
X-00170639Y-00502687
X-00203151Y-00490451
X-0021082Y-0048133
X-0019812Y-0046609
X-00089139Y-0052223
X-0002413Y-0050292
X-0003048Y-0049403
Y-0046609
X-0001778Y-0044958
X0Y-0044412
X0002159Y-0046736
X0005207Y-0048006
X0006604Y-0051435
X0008001
X0009398
X00121239Y-00493344
X0010922Y-0047625
X0012065Y-0046228
X001524Y-0045847
X0014605Y-0044958
X0017526Y-0044196
X0017653Y-00427482
X0016764Y-0040767
X0017814Y-0039878
X001524Y-00414274
X0013081Y-0039751
X0012827Y-0038664
X0012192Y-0037592
X0010922Y-0037465
X0010795Y-004064
X0012192
X0010668Y-0043053
X0008001Y-004318
X000762Y-004445
X0006858Y-0043942
X0005334Y-004318
X0006223Y-00410464
X0005334Y-0036957
X0008001Y-0036957
X0009144Y-0033147
X0010541Y-0034417
X00053519Y-00342686
X-0000381Y-00359268
X-00020955Y-0035622
X-0004445Y-003556
X-000381Y-0036322
X-0003175Y-0036957
X-000127Y-0038481
X0Y-00381647
X-0003048Y-0041783
X-0004445Y-0043434
Y-0044958
X-000127Y-00507238
X0Y-00505126
Y-0053086
X00011581Y-00530734
X-00011581
X001524Y-0049149
X0017399Y-0049276
X0017526Y-004826
X0017907Y-0046736
X0018161Y-0029591
X0008509Y-0025019
X00068856Y-0024888
X00049806
X0005207Y-0025654
X0000254Y-0026543
X-0000508Y-00272492
X-0001778Y-0027178
X-0002667
X-00035919Y-0026793
X-0005588Y-0027051
X-0005461Y-0025908
Y-0024765
X-00026394Y-0024888
X-00007344
X-00024678Y-0028702
X-0004318Y-0029972
X-0004445Y-0030861
X-000381Y-0031369
X-00024591Y-00319278
X-0005461Y-0031877
X-0007366
X-000635Y-0029972
X-0005461Y-0028829
X-00057822Y-00281773
X-0008509Y-0028702
X-0008763Y-0029464
X-0009525Y-0029591
X-00097891Y-00302513
X-0010541Y-0030607
X-0010922Y-0031369
X-0012446Y-003302
X-0013335Y-0033782
X-0014478Y-0032766
X-0013716Y-0030226
X-00121644Y-0028698
X-0011176Y-0027813
X-00121644Y-0024888
X-0014351Y-0025019
X-00159744Y-0024888
X-00178794
X-00194198Y-00248497
X-00188319Y-0030603
X-00169269
X-0015367Y-0027305
X-0008509Y-0025527
X-00093069Y-0034413
X-00054969
X0018669Y-0030099
X00195439Y-00409398
X0018436Y-004445
X0019235Y-0046699
X00213802Y-00485902
X00235571Y-00466565
X0024384Y-0044577
X0023876Y-0043942
X0021463Y-0044069
X0025273Y-0041021
X0029718Y-004318
X00304489Y-00434855
X0030734Y-0042164
X00313903Y-00428109
X00323167Y-0042116
X003175Y-0041148
X00332278Y-0041401
X0034123Y-00406662
X0035002Y-00399122
X00358644Y-00391391
X00367097Y-00383474
X00375375Y-00375375
X00383474Y-00367097
X00391391Y-00358644
X00399122Y-0035002
X00406662Y-0034123
X0041401Y-00332278
X0042116Y-00323167
X004191Y-0030988
X00428109Y-00313903
X0042926Y-0029972
X00434855Y-00304489
X00441394Y-0029493
X00447723Y-00285231
X00453839Y-00275396
X0039878Y-0027178
X0040894Y-0032004
X0039878Y-003302
X0038862Y-0034036
X0037846Y-0035052
X003683Y-0036068
X0035814Y-0037084
X0034798Y-00381
X0033782Y-0039116
X0032766Y-0040132
X0032893Y-0034798
X002921Y-0037084
X0029493Y-00441394
X00285231Y-00447723
X00275396Y-00453839
X003683Y-0030861
X0043688Y-0023114
X0046736Y-0022098
X00468359Y-0021082
X0045085Y-0018923
X0045339Y-0017399
X0048768Y-0016002
X0045212Y-00127
X0039497Y-0011557
X0033655Y-0012192
X00314104Y-00101186
X0033782Y-0005588
X00341688Y-0005929
X00354606Y-0005838
X00344422Y00007368
X00338707Y00001653
X00304974Y00084577
X00302248Y00093851
X00299242Y00103037
X00295955Y00112127
X00292393Y00121113
X00288558Y00129986
X00284454Y00138737
X00280084Y0014736
X00275454Y00155844
X002159Y00000508
X00214752Y-00006511
X00213498Y-00013511
X00212245Y-00020512
X0021082Y-0002794
X00212396Y-00034875
X00206516Y-00038876
X00220519Y-00028749
X00226234Y-00023034
X00232574Y-00019812
X00232664Y-0010922
X0023368Y-0011811
X0023876
X0024765Y-0012319
X0023876Y-0013462
X0023368
X0023622Y-0014478
X00230467Y-00144259
X00232001Y-00151281
X00225676Y-00159232
X00224452Y-00164168
X00220353Y-00175847
X00214014Y-00180994
X0020574Y-0018415
X0020447Y-0017907
X00195703Y-00185725
X0018796Y-0018415
Y-0018923
X0027305Y-0022352
X00278782Y-00231336
X0027559Y-0023749
X0030739Y-00209295
X0033909Y-0016891
X0027305Y-0014732
X00268609Y-00142528
X0049149Y-0006858
X0051181Y-0008382
X0017907Y-0007747
X00173325Y-00081662
X00167737Y-00077263
X00160822Y-00078925
X0016002Y-0005969
X0015621Y-000635
X0014859Y-001016
X00141173Y-00106734
X00136633Y-00112292
X00140803Y-00123708
X0013843Y-0013843
X00134383Y-00142477
X0013462Y-0015748
X0014097Y-0016129
X00155313Y-0014341
X001651Y-0013589
X0016383Y-0012573
Y-0011684
X0011684Y-0012573
X0010033Y-0014732
X0009398Y-0015494
X0008763
X00078381Y-0015363
X00068856Y-0017268
X00049806
X00030756
X00011706
X-00007344
X-0003048Y-0017399
X-000381
X-0004953Y-0016764
X-00058081Y-00155847
X-0007493Y-0016002
X-0009779Y-0017018
X-0010287Y-0014351
X-00102594Y-0013458
X-00121644
X-00140694
X-00131169Y-0011553
X-00150219
X-0014859Y-0009398
X-00140694Y-0009648
X-0015748Y-0009906
X-001651Y-0010414
X-0018796Y-0011811
X-0019685Y-0012446
X-00197844Y-0013458
X-0020701Y-0012954
X-00178794Y-0013458
X-00169269Y-0015363
X-0017399Y-0018796
X-00150219Y-0019173
X-00131169
X-00112119
X-00102594Y-0021078
X-00121644
X-00140694
X-0015621Y-0020955
X-00150219Y-0022983
X-00131169
X-0011303Y-0023241
X-00054969Y-0022983
X-0005588Y-0021209
Y-0020574
X-0006477Y-0019177
X-00043235Y-0022172
X00002181Y-0022983
X00030756Y-0021078
X00040281Y-0019173
X00021231
X0009017Y-0021082
X00127868Y-00185092
X0016637Y0001397
Y0002159
X-00127Y-0014986
X-00174574Y-00224104
X-0018161Y-0023495
X-002159Y-002286
X-0025146Y-0021209
X-0027305Y-0019812
X-0026543Y-001778
X-0025781Y-001778
X-00254385Y-00159509
X-0024384Y-001524
X-0023495Y-0014605
X-0022606Y-001397
X-002159Y-0014097
X-0021717Y-0013335
X-0030861Y-0014732
X-0030988Y-0011938
X-00301836Y-00095169
X-00304602Y-00085907
X-00307083Y-00076564
X-00309278Y-00067151
X-00311184Y-00057675
X-00312801Y-00048145
X-00314125Y-0003857
X-00315156Y-00028959
X-00315894Y-00019321
X-00316336Y-00009665
X-00316484Y0
X-00316336Y00009665
X-00315894Y00019321
X-00315156Y00028959
X-00314125Y0003857
X-00312801Y00048145
X-00311184Y00057675
X-00309278Y00067151
X-00307083Y00076564
X-00304602Y00085907
X-00301836Y00095169
X-00298789Y00104342
X-00295463Y00113418
X-00291862Y00122388
X-00287988Y00131244
X-00283846Y00139977
X-00279439Y0014858
X-00274771Y00157045
X-00509652Y0014855
X-00512771Y00137397
X-00515647Y00126178
X-00518276Y00114899
X-00520659Y00103566
X-00522795Y00092183
X-00524681Y00080756
X-00526318Y00069291
X-00527705Y00057793
X-0052884Y00046267
X-00529723Y0003472
X-00530355Y00023156
X-00530733Y00011581
X-0053086Y0
X-00530734Y-00011581
X-00530355Y-00023156
X-00529723Y-0003472
X-0052884Y-00046267
X-00527705Y-00057793
X-00526318Y-00069291
X-00524682Y-00080756
X-00522795Y-00092183
X-0052066Y-00103566
X-00518276Y-00114899
X-00515647Y-00126178
X-00512771Y-00137397
X-00502644Y-0013458
X-00483594
X-00464544
X-00474069Y-0011553
X-00493119
X-00483594Y-0009648
X-00464544
X-00474069Y-0007743
X-00493119
X-00512169
X-00502644Y-0009648
X-00509652Y-0014855
X-0050629Y-00159633
X-00502687Y-00170639
X-00498845Y-00181565
X-00483594Y-0017268
X-00464544
X-00474069Y-0015363
X-00493119
X-00490451Y-00203151
X-00485902Y-00213802
X-00481123Y-00224351
X-00476114Y-00234793
X-0044958Y-002286
X-00443738Y-0021209
X-00437896Y-0018796
X-00432054Y-0017018
X-00407394Y-0017268
Y-0013458
X-00369294
X-0036322Y-0014859
X-0034798Y-0013335
X-0034036
X-00359769Y-0011553
X-00378819
X-00369294Y-0009648
X-00350244
X-00359769Y-0007743
X-00378819
X-00407394Y-0009648
X-00321669Y-0007743
X-00293094Y-0017268
X-0031496Y-002159
X-0032639Y-0020701
X-0033274Y-0019939
X-003429Y-0019304
X-003683Y-0021717
X-0036957Y-0023495
X-004191Y-0022098
X-0029718Y-0023495
X-00269847Y00165362
X-00264671Y00173526
X-00259249Y00181528
X-00253584Y0018936
X-00247683Y00197016
X-00241551Y00204488
X-00235194Y00211769
X-00228617Y00218853
X-00221827Y00225732
X-0021483Y00232401
X-0028194Y0034036
X-0030099Y0034798
X-0029464Y003556
X-0028829Y0036195
X-0030734Y00385318
X-0031496Y00379222
X-0032131Y0039116
X-0032766Y0037338
X-00332278Y00414009
X-00323167Y0042116
X-00313902Y00428109
X-00304489Y00434855
X-0029493Y00441394
X-00285231Y00447723
X-00275396Y00453838
X-0026543Y00459738
X-00255338Y00465419
X-00245124Y00470878
X-00234793Y00476114
X-00224351Y00481122
X-00213802Y00485902
X-0034123Y00406662
X-0035002Y00399122
X-00358644Y00391391
X-00367096Y00383474
X-00375374Y00375375
X-00383474Y00367096
X-00391391Y00358644
X-00399122Y0035002
X-00406662Y0034123
X-00414009Y00332278
X-00453838Y00275396
X-00459738Y0026543
X-00465419Y00255338
X-00470878Y00245124
X-00476114Y00234793
X-00481122Y00224351
X-00485902Y00213802
X-00490451Y00203151
X-00494766Y00192404
X-00498845Y00181565
X-00502687Y00170639
X-0050629Y00159633
X-00207632Y00238853
X-00200241Y00245083
X-00192663Y00251084
X-00184906Y0025685
X-00176976Y00262377
X-00168881Y00267659
X-00160628Y00272692
X-00152225Y0027747
X-00143681Y00281989
X-00135002Y00286246
X-00126198Y00290235
X-00117275Y00293953
X-00108244Y00297398
X-00099111Y00300565
X-00089886Y00303451
X-00080577Y00306055
X-00071193Y00308372
X-00061743Y00310403
X-000635Y0037973
Y003937
X-000508
X-000381
X-000254
X-000127
X0Y00392921
X0000889Y0039116
X000254Y00394462
X0004572Y003937
X00043688Y0037973
X0003244Y00365252
X000254Y003556
X0001397Y0036322
X0Y00355329
X0000635Y0034798
X-000127Y0034036
X-0002413Y0036195
X-000508Y0037338
X-000762Y003937
X-000889
X-00092183Y00522795
X-00080756Y00524681
X-00103566Y00520659
X-00114899Y00518276
X-00126178Y00515647
X-00137397Y00512771
X-0014855Y00509652
X-00159633Y0050629
X-00170639Y00502687
X-00181565Y00498845
X-00192404Y00494766
X-00203151Y00490451
X-0003472Y00529723
X-00023156Y00530355
X-00011581Y00530733
X0Y0053086
X00011581Y00530733
X00023156Y00530355
X0003472Y00529723
X00046268Y0052884
X00057793Y00527705
X00069291Y00526318
X00080756Y00524681
X0014855Y00509652
X00159633Y0050629
X00170639Y00502687
X00181565Y00498845
X001016Y0046101
Y0045339
Y0044577
Y0043815
X000762Y0043307
X000635
X000508
X000381
X000254
X000127
X0007747Y0038989
X00070612Y0037592
X000635Y0034671
X0005588Y00333502
X000381Y0033909
X0008636Y00325882
X0010922Y0033909
X001143Y0034798
X0011684Y003556
X00106448Y00358088
X00121519Y00368653
X00125575Y00374495
X0012065Y00380238
X00138891Y00382731
X0012827Y0036322
X00129489Y00325207
X0014478Y0033147
X0014491Y0028136
X0013625Y00285654
X00127463Y00289681
X00118557Y00293439
X00109541Y00296922
X00153434Y00276803
X00161816Y00271988
X00170047Y0026692
X00178119Y00261602
X0011938Y0040386
X0011176Y0039624
X00192404Y00494766
X00203151Y00490451
X00213802Y00485902
X00224351Y00481122
X00234793Y00476114
X00245124Y00470878
X00255338Y00465419
X0026543Y00459738
X002667Y0044831
X00275396Y00453838
X00332278Y00414009
X0034123Y00406662
X0035002Y00399122
X00358644Y00391391
X00367097Y00383474
X00375375Y00375375
X00383474Y00367096
X00391391Y00358644
X00399122Y0035002
X00406662Y0034123
X0041401Y00332278
X00434855Y00304489
X00441394Y0029493
X00447723Y00285231
X00453839Y00275396
X00459738Y0026543
X00383181Y0018927
X00364131
X0036449Y0017526
X0037465
X0037973Y0016637
X0038989Y0017145
X0039116Y0016129
X003556Y0017907
X0034671Y0018415
X00260038Y00180395
X00265426Y00172369
X00270566Y00164183
X00254408Y00188252
X00186025Y00256041
X0033147Y0039624
T02
X0010922Y-0028956
X0010668Y-0028067
X0011557Y-0028321
X0011303Y-0027432
X0012192Y-0027686
X0011938Y-0026797
X0012827Y-0027051
X0012573Y-0026162
X0013462Y-0026416
X00140701Y-00247919
X0014986Y-0024892
X0015494Y-0024384
X0014732Y-002413
X0016891Y-0034417
X0017526Y-0035052
X0024003Y-0026924
X0024511Y-0027432
X0023241Y-00227076
X0022479Y-0023368
X0021844Y-0022733
X0023622Y-0016256
X002413Y-0015748
X0024638Y-001524
X0025146Y-0014732
X0024892Y-001397
X0025654Y-0014097
X00254Y-0013335
X0026289Y-0013462
X0025908Y-00127
X0026035Y-0011938
Y-0011176
X0026797Y-0011811
X002667Y-0012573
X0028067Y-001143
X0027686Y-0010668
X0028702Y-0010795
X0028321Y-0010033
X0029337Y-001016
X0028956Y-0009398
X0029972Y-0009525
X0029591Y-0008763
X0031242Y-0008636
X0030988Y-0007874
X0031496Y-0007366
X0032004Y-0006858
X0032258Y-000762
X003175Y-0008128
X0032766Y-0007112
X0032512Y-000635
X003175Y-0006096
X0031242Y-0006604
X0030734Y-0007112
X0030226Y-000762
X0032258Y-0005588
X0033274Y-0006604
X0033655Y-001778
X0034417
X00171167Y-00217453
X00176305Y-0022259
X00169778Y-00228994
X001651Y-0023368
X0016256Y-0022606
X0016002Y-0021844
X0015494Y-0022352
X0014986Y-002286
X0014478Y-0023368
X001397Y-0023876
X001524Y-0023622
X0016002Y-0023876
X0015748Y-0023114
T03
X00369347Y00310103
X0035874Y0032071
X00348134Y00331316
X00337527Y00341923
X00379953Y00299497
X0039056Y0028889
X00401166Y00278284
X00411773Y00267677
T04
X0042037Y0029591
T05
X0045252Y0008382
X0050252
X0047458Y0018161
X0042458
T06
X0000508Y-0031496
X004445Y0024892
T07
X0021336Y-003429
X0028448Y-0028448
X003429Y-0021209
T08
X003937Y-0004572
Y0004572
T09
X005Y0
T10
X-00381Y0
T11
X-002868Y-004096
X-004096Y002868
X002868Y004096
M30
