M48
;Layer_Color=9474304
;FILE_FORMAT=4:4
METRIC,LZ
;TYPE=PLATED
T01F00S00C0.2000
T02F00S00C0.4000
T04F00S00C0.7112
T05F00S00C0.8900
T06F00S00C0.9000
T07F00S00C1.0000
T08F00S00C1.1000
T09F00S00C1.2000
T10F00S00C1.7000
T11F00S00C1.7500
T12F00S00C3.3000
;TYPE=NON_PLATED
T13F00S00C1.6000
%
T01
X000255Y0001
X00024411Y00039041
Y00052578
X00036207Y00096059
X00024405Y00109579
X000244Y00123155
X00024009Y00144945
X00024241Y00165932
X000645Y00223
X000745Y0024275
X0008125
X00088625Y00236
X00094707Y00250803
X00103237Y00264513
X001015Y0022075
Y002115
X00107Y00216
X001125Y002205
Y002115
X00126Y0020125
X0012275Y0023175
X0012875Y0023725
X0015025Y002365
X00158Y0017425
X001235Y00137
Y0010925
X00148Y00101
X00148353Y0006483
X00161Y0006625
X00184142Y0006509
X00195854Y00053378
X00192991Y00035939
X00222142
X00221622Y00053638
X00239349Y00069337
X00239245Y00077347
X0024125Y0009975
X0022025Y00101
X0021675Y00127
X0023325Y0013125
X002435Y001255
X0022725Y001465
X00278Y00142
Y00152
Y00162
Y00172
Y00182
X00288
X00298
X00308
X00318
X00328
X00338
X00348
Y00172
X00338
X00328
X00318
X00308
X00298
X00288
Y00162
X00298
X00308
X00318
X00328
X00338
X00348
Y00152
Y00142
X00338
Y00152
X00328
Y00142
X00318
Y00152
X00308
Y00142
X00298
Y00152
X00288
Y00142
Y00132
X00298
X00308
X00318
X00328
X00338
X00348
Y00122
X00338
X00328
X00318
X00308
X00298
X00288
X00278
Y00132
Y00112
X00288
X00298
X00308
X00318
X00328
X00338
X00348
X003595Y0006925
X0037625Y0007575
X003915
X00392Y0004175
X0039Y000085
X0036
X0033
X003
X0027
X0024
X0021
X0018
X001715Y00019
X00155Y000085
X00125
X00128134Y00042975
X0010975Y0004675
X0010725Y0005225
X0010175Y00047
X00095173Y00046828
X00094231Y00039801
X00090084Y00053161
X0010788Y00074461
X00134168Y0007368
X0016384Y00042706
X0024791Y00035809
X00273678
X0029375Y0004175
X0030725Y00059
X0028825Y00067
X0025825Y0007125
X0026025Y000585
X00253626Y00058479
X0023975Y00214
X00239736Y00221111
Y00228221
X00266Y0022275
X00271Y0022925
X00280162Y00239278
X00295431Y00236273
X00305986Y00236695
X003055Y0022875
X00321031Y00228686
X0033075Y0023775
X003435Y00228
X003575
X003535Y0024
X0035725Y0026575
X00345989Y00269239
X00337025Y00282544
X0032386Y00302612
X00305995Y00298191
X00311138Y00315921
X0031473Y0032773
X003265Y0034375
Y00356
X0031225Y0035575
X003025Y003555
X00277Y0035525
X00254732Y00354893
X00215284Y00355134
X00218Y003105
X00227388Y00310467
X0027Y0030875
Y0031625
X0028375Y00316
Y0030875
Y003005
X0027Y0030025
X0026025Y0028575
X00254Y0029
X00293949Y00315921
X00361802Y00307138
X0036925Y003
X0037675Y0030748
Y0029248
X003615
X0035725Y0034025
X0034925
X0037175Y0035975
X0033427Y00386801
X0027Y003865
X00164821Y0035725
X0015539
X001355Y0037
X0012325
X0011075
X0009825
X000982Y00379082
X00088424Y00367637
X000785Y00358
X0008625Y00339
X0013625Y003135
X00132Y003025
X0013625Y00293529
X00044Y00271
X0009725Y0019225
X0010425Y001235
X00078253Y00095833
X0007Y000085
X0028775Y0022025
X0038425Y002205
Y0022825
X0038575Y0019225
X003855Y0017675
X0038575Y001365
X00404Y0013775
X004105Y00143
X0040575Y0014925
X0040925Y0016325
X0040525Y0016975
Y00177
Y0018475
X00407Y0020225
X004075Y002105
X00425432Y00210567
X0042625Y0020225
X004165Y0019275
Y002195
X00443Y001925
X0046025Y00182
X00474Y0016525
X004825
X0045062Y0015982
X0044325Y0015225
X0043562Y0015982
Y0014457
X0045087
X0044925Y0012275
Y00116
Y000985
X0044025Y0009975
X0043125
X0042325Y001235
Y0013225
X00415Y0015775
X00423375Y00168875
X004045Y00091
X0042Y000085
X00416Y0027825
X004045Y00278
X0040075Y0029025
X0040675Y0029575
X0043175Y0027775
Y0037775
X0041275Y0036875
X0049925Y003685
X0051525Y00378
X0053175Y003685
X0052975Y0020575
T02
X0003125Y0003275
X0004125
X0005125
X0006325
X0007325
X0008325
Y0004825
X0007325
X0006325
Y0005925
X0007325
X0008325
Y0007375
X0007325
X0006325
X0005125
X0004125
X0003125
Y0005925
X0004125
X0005125
Y0004825
X0004125
X0003125
Y0008825
X0004125
X0005125
X0006325
X0007325
X0008325
Y0010275
X0007325
X0006325
X0005125
X0004125
X0003125
Y0011475
X0004125
X0005125
X0006325
X0007325
X0008325
Y0012925
X0007325
X0006325
X0005125
X0004125
X0003125
T04
X0007825Y0016975
X00164109Y00238546
X0038575Y0035525
T05
X00182276Y00385616
X00202276
X00222276
X00242276
T06
X00039Y0032025
Y0034525
Y0037025
T07
X0059925Y00214
Y00324
T08
X001933Y0023114
Y0026924
Y0030734
X004727Y0034544
Y0026924
Y0019304
T09
X005187Y0015475
Y0017975
T10
X0049925Y00244
Y00294
T11
X001933Y0019304
Y0034544
T12
X000445Y002
X005845Y0037
Y0003
T13
X005905Y0015475
Y0017975
M30
