M48
;Layer_Color=9474304
;FILE_FORMAT=4:4
METRIC,LZ
;TYPE=PLATED
T01F00S00C0.2540
T02F00S00C2.4892
%
T01
X00030988Y0011938
X0007366Y00113284
Y00125476
X0011684Y0013208
X00152908
X0017272Y00146812
X00190505Y00155938
X00189992Y00171704
X00211836Y00172212
X00221488Y00162052
X00231648Y00171704
X0023114Y00151384
X00267533Y00129937
X00267716Y00116332
X00200152Y00122548
X00208788Y00088392
X00155956Y00086868
Y00098044
Y00070104
T02
X0011938Y0002667
Y0021209
X004445Y0011938
M30
