M48
;Layer_Color=9474304
;FILE_FORMAT=4:4
METRIC,LZ
;TYPE=PLATED
T01F00S00C0.2000
T03F00S00C0.7112
T04F00S00C0.8000
T05F00S00C0.9000
T06F00S00C1.0000
T07F00S00C1.0200
T08F00S00C1.2000
T09F00S00C1.2000
T10F00S00C1.5000
T11F00S00C1.7000
T12F00S00C2.0000
T13F00S00C2.7000
;TYPE=NON_PLATED
T14F00S00C1.6000
T15F00S00C1.6000
T17F00S00C3.0000
T18F00S00C3.5000
T19F00S00C4.4000
T20F00S00C4.4000
%
T01
X0099441Y00254
X0083439Y0020193
Y0019431
X008255
Y0020193
X0072019Y0011039
X0070495
X0068961Y0010541
X0063246Y0009271
X0061341Y0008509
X0054483Y0008255
X0053721Y0008509
X0050927
X0053721Y0004826
X00544Y00031
X0055372Y0013335
X0056642
X0059436Y0034036
X0046355Y0016764
X0045593Y0012319
X0044704
X0043815
X0042926
X0041148
X0040259
X003937
X0038481
X0037719
X0036957
X0040259Y0013208
Y0014097
Y0011303
Y0010287
Y0009398
Y0008509
Y000762
X0039878Y0005461
X0046228
X0046482Y0003302
X0048387Y0005969
X0040513Y0016891
X003429Y0014224
X0026035Y0058547
X0059309Y0044069
X0060071
X0061976Y00428498
X0065278Y0043307
Y0041783
Y0040259
Y0038735
X0060198Y0039497
X0059436
X0065278Y0044831
X0092456Y0045466
X009144Y0047613
X0105664Y0053975
Y0057023
X01056707Y006
X0105664Y0062992
Y006604
T03
X00916Y00261
Y00278
X00936
Y00261
X00956
Y00278
X008128Y0032639
Y0034544
X0079121
Y0032639
X0079Y00174
X00811
X00833
Y00125
X00811
X0079
X0071374Y00127
X0069215
X0067056
X0064135
X0061976
X0059944
Y0017399
X0061976
X0064135
X0067059Y00174
X0069159
X0071359
X0070612Y0019685
X0068961
X005334Y0021844
Y0023495
X0051562
Y0021844
X0050673Y0017399
X0052832
Y0012446
X0050673
X0048387
X0048514Y0017399
X0049784Y0021844
Y0023495
X0032385Y0020447
X0030607
X003175Y0018923
X0032385Y0017399
X003175Y0015875
X0027813Y0013208
Y0011557
X0026162
Y0013208
Y0006858
X0027813
Y0005207
X0026162
X0036703Y0003556
Y0001905
X0038354
Y0003556
X0040005
Y0001905
X0041656
Y0003556
X00329123Y00274
X00312123
Y00294
X00329123
Y00314
X00312123
X0020955Y0018415
Y0016129
X0019304Y0015621
X0017653
X0019685Y0017272
X0009525Y0018288
X0009652Y0019939
X0009525Y002159
X0009144Y0016637
X0007493
X0005588
X000381
X0001905
Y0018288
Y0019939
Y002159
Y0013335
Y0011684
Y0010033
X000381Y0013335
X0005588
X0007366Y0013208
X0047752Y005588
Y0057531
X0049657
Y005588
X0051562
Y0057531
X0054737Y00635
X0059055Y0059309
X0059569Y0055885
Y0053931
Y0051948
Y0049994
X0061569
Y0051948
X0063538
Y0049994
X0065538
Y0051948
Y0053931
Y0055885
X0063538
Y0053931
X0061569
Y0055885
X0067538
X0069475
Y0053931
X0067538
Y0051948
X0069475
Y0049994
X0067538
X0071475
Y0051948
Y0053931
Y0055885
X0079121Y0051181
Y0049276
Y0047371
X008128
Y0049276
Y0051181
X00812326Y00365213
X0079121Y00365215
X00683514Y003683
X0053848Y0046228
T04
X00935Y00165
X00985
T05
X00965Y001996
Y00225
X00995
Y001996
X01025
Y00225
T06
X011Y00295
Y00405
T07
X0023Y0068
X0026
Y0071
X0023
T08
X0078089Y0004953
X0085589
X00295Y0045
Y00475
Y005
Y00525
Y0055
X0027
Y00525
Y005
Y00475
Y0045
X003Y006332
X00325
X0035
Y006582
X00325
X003
X00415
X0044
X00465
Y006332
X0044
X00415
X005475Y00658
X005725
X006475
X006725
X007275
X007525
X008075
X008325
X008875
X009125
T09
X009248Y001035
X009498
Y001285
X009248
X009665Y004577
Y004827
X009915
Y004577
T10
X00366Y003438
Y0042
Y004962
X00874Y004581
Y0042
Y003819
T11
X01Y00325
X008875Y007298
X008325
X008075
X007525
X007275
X006725
X006475
X005725
X005475
X009125
X01Y00375
T12
X00874Y003438
Y004962
T13
X00124Y0008
X00196
X0028Y00294
Y00366
T14
X001982Y0045
Y0055
X0035Y0073
X00465
T15
X009248Y000317
X009498
X010633Y004577
Y004827
T17
X001868Y00695
T18
X00856Y00289
T19
X00383999Y00550999
T20
X01059Y00041
X00041
X01059Y00719
M30
