G04*
G04 #@! TF.GenerationSoftware,Altium Limited,Altium Designer,24.1.2 (44)*
G04*
G04 Layer_Physical_Order=2*
G04 Layer_Color=36540*
%FSLAX44Y44*%
%MOMM*%
G71*
G04*
G04 #@! TF.SameCoordinates,564CEF90-820D-4554-998B-2DB19DA9D660*
G04*
G04*
G04 #@! TF.FilePolarity,Positive*
G04*
G01*
G75*
%ADD14C,0.2540*%
%ADD92R,1.3900X1.3900*%
%ADD93C,1.3900*%
%ADD98R,1.8500X1.8500*%
%ADD99C,1.8500*%
%ADD100C,1.6000*%
%ADD107C,0.5000*%
%ADD119O,1.8000X0.8000*%
%ADD120C,0.7000*%
%ADD121C,2.1000*%
%ADD122C,2.4000*%
%ADD123R,8.0000X8.0000*%
%ADD124C,1.5000*%
%ADD125C,4.5000*%
%ADD126R,3.2000X3.2000*%
%ADD127C,3.2000*%
%ADD128C,1.8000*%
%ADD129C,1.2700*%
G36*
X172786Y394965D02*
Y386886D01*
X191766D01*
Y394965D01*
X197845D01*
X198372Y393695D01*
X193802Y389126D01*
Y382106D01*
X198766Y377142D01*
X205786D01*
X210750Y382106D01*
Y389126D01*
X206180Y393695D01*
X206707Y394965D01*
X216545D01*
X217031Y393792D01*
X212786Y389547D01*
Y386886D01*
X231766D01*
Y389547D01*
X227521Y393792D01*
X228007Y394965D01*
X237845D01*
X238372Y393695D01*
X233802Y389126D01*
Y382106D01*
X238766Y377142D01*
X245786D01*
X250750Y382106D01*
Y389126D01*
X246180Y393695D01*
X246707Y394965D01*
X578675Y394965D01*
X578928Y393695D01*
X570891Y390367D01*
X564133Y383609D01*
X560476Y374779D01*
Y365221D01*
X564133Y356391D01*
X570891Y349633D01*
X579721Y345976D01*
X589279D01*
X598108Y349633D01*
X604867Y356391D01*
X608524Y365221D01*
Y374779D01*
X604867Y383609D01*
X598108Y390367D01*
X590072Y393695D01*
X590325Y394965D01*
X605500D01*
X606465Y394943D01*
X608230Y394162D01*
X609563Y392765D01*
X610175Y391184D01*
X610237Y390002D01*
X610237Y390000D01*
X610236Y390000D01*
X610237Y390000D01*
Y328295D01*
X608967Y328042D01*
X608172Y329961D01*
X605211Y332922D01*
X601343Y334524D01*
X597157D01*
X593289Y332922D01*
X590328Y329961D01*
X588726Y326093D01*
Y321907D01*
X590328Y318039D01*
X593289Y315078D01*
X597157Y313476D01*
X601343D01*
X605211Y315078D01*
X608172Y318039D01*
X608967Y319958D01*
X610237Y319705D01*
X610237Y218295D01*
X608967Y218043D01*
X608172Y219961D01*
X605211Y222922D01*
X601343Y224524D01*
X597157D01*
X593289Y222922D01*
X590328Y219961D01*
X588726Y216093D01*
Y211907D01*
X590328Y208039D01*
X593289Y205078D01*
X597157Y203476D01*
X601343D01*
X605211Y205078D01*
X608172Y208039D01*
X608967Y209958D01*
X610237Y209705D01*
X610237Y12508D01*
X610237Y11139D01*
X609188Y8608D01*
X607252Y6671D01*
X604721Y5623D01*
X603352Y5623D01*
X591746D01*
X591493Y6893D01*
X598108Y9633D01*
X604867Y16392D01*
X608524Y25221D01*
Y34779D01*
X604867Y43608D01*
X598108Y50367D01*
X589279Y54024D01*
X579721D01*
X570891Y50367D01*
X564133Y43608D01*
X560476Y34779D01*
Y25221D01*
X564133Y16392D01*
X570891Y9633D01*
X577507Y6893D01*
X577254Y5623D01*
X26055D01*
X24198Y6392D01*
X22776Y7814D01*
X22007Y9672D01*
Y10677D01*
Y188271D01*
X23252Y188519D01*
X24133Y186392D01*
X30891Y179633D01*
X39721Y175976D01*
X49279D01*
X58109Y179633D01*
X64867Y186392D01*
X68524Y195221D01*
Y204779D01*
X64867Y213608D01*
X58109Y220367D01*
X49279Y224024D01*
X39721D01*
X30891Y220367D01*
X24133Y213608D01*
X23252Y211481D01*
X22007Y211729D01*
Y235600D01*
X24050D01*
X25216Y236084D01*
X25700Y237250D01*
Y244600D01*
X43900D01*
Y229250D01*
X44384Y228084D01*
X45550Y227600D01*
X60313D01*
X60799Y226427D01*
X59460Y225088D01*
Y224270D01*
X69540D01*
Y225088D01*
X66890Y227738D01*
X66588Y228040D01*
X66200Y229250D01*
Y254750D01*
X65716Y255916D01*
X64550Y256400D01*
X53400D01*
Y273600D01*
X64550D01*
X65716Y274084D01*
X66200Y275250D01*
Y300750D01*
X65716Y301916D01*
X64550Y302400D01*
X45550D01*
X44384Y301916D01*
X43900Y300750D01*
Y285400D01*
X25700D01*
Y292750D01*
X25216Y293916D01*
X24050Y294400D01*
X22007D01*
Y392274D01*
Y392810D01*
X22416Y393799D01*
X23173Y394556D01*
X24162Y394965D01*
X24697Y394965D01*
X24698Y394965D01*
X172786D01*
D02*
G37*
%LPC*%
G36*
X335937Y390825D02*
X332603D01*
X330246Y388468D01*
Y385134D01*
X332603Y382777D01*
X335937D01*
X338294Y385134D01*
Y388468D01*
X335937Y390825D01*
D02*
G37*
G36*
X271667Y390524D02*
X268333D01*
X265976Y388167D01*
Y384833D01*
X268333Y382476D01*
X271667D01*
X274024Y384833D01*
Y388167D01*
X271667Y390524D01*
D02*
G37*
G36*
X231766Y384346D02*
X223546D01*
Y376126D01*
X226207D01*
X231766Y381685D01*
Y384346D01*
D02*
G37*
G36*
X221006D02*
X212786D01*
Y381685D01*
X218345Y376126D01*
X221006D01*
Y384346D01*
D02*
G37*
G36*
X191766D02*
X183546D01*
Y376126D01*
X191766D01*
Y384346D01*
D02*
G37*
G36*
X181006D02*
X172786D01*
Y376126D01*
X181006D01*
Y384346D01*
D02*
G37*
G36*
X516917Y382024D02*
X513583D01*
X511226Y379667D01*
Y376333D01*
X513583Y373976D01*
X516917D01*
X519274Y376333D01*
Y379667D01*
X516917Y382024D01*
D02*
G37*
G36*
X433417Y381774D02*
X430083D01*
X427726Y379417D01*
Y376083D01*
X430083Y373726D01*
X433417D01*
X435774Y376083D01*
Y379417D01*
X433417Y381774D01*
D02*
G37*
G36*
X137167Y374024D02*
X133833D01*
X131476Y371667D01*
Y368333D01*
X133833Y365976D01*
X137167D01*
X139524Y368333D01*
Y371667D01*
X137167Y374024D01*
D02*
G37*
G36*
X124917D02*
X121583D01*
X119226Y371667D01*
Y368333D01*
X121583Y365976D01*
X124917D01*
X127274Y368333D01*
Y371667D01*
X124917Y374024D01*
D02*
G37*
G36*
X112417D02*
X109083D01*
X106726Y371667D01*
Y368333D01*
X109083Y365976D01*
X112417D01*
X114774Y368333D01*
Y371667D01*
X112417Y374024D01*
D02*
G37*
G36*
X99917D02*
X96583D01*
X94226Y371667D01*
Y368333D01*
X96583Y365976D01*
X99917D01*
X102274Y368333D01*
Y371667D01*
X99917Y374024D01*
D02*
G37*
G36*
X414417Y372774D02*
X411083D01*
X408726Y370417D01*
Y367083D01*
X411083Y364726D01*
X414417D01*
X416774Y367083D01*
Y370417D01*
X414417Y372774D01*
D02*
G37*
G36*
X533417Y372524D02*
X530083D01*
X527726Y370167D01*
Y366833D01*
X530083Y364476D01*
X533417D01*
X535774Y366833D01*
Y370167D01*
X533417Y372524D01*
D02*
G37*
G36*
X500917Y372524D02*
X497583D01*
X495226Y370167D01*
Y366833D01*
X497583Y364476D01*
X500917D01*
X503274Y366833D01*
Y370167D01*
X500917Y372524D01*
D02*
G37*
G36*
X39000Y382995D02*
X34123Y382025D01*
X29988Y379262D01*
X27225Y375127D01*
X26255Y370250D01*
X27225Y365373D01*
X29988Y361238D01*
X34123Y358475D01*
X39000Y357505D01*
X43877Y358475D01*
X48012Y361238D01*
X50775Y365373D01*
X51745Y370250D01*
X50775Y375127D01*
X48012Y379262D01*
X43877Y382025D01*
X39000Y382995D01*
D02*
G37*
G36*
X80167Y362024D02*
X76833D01*
X74476Y359667D01*
Y356333D01*
X76833Y353976D01*
X80167D01*
X82524Y356333D01*
Y359667D01*
X80167Y362024D01*
D02*
G37*
G36*
X166488Y361274D02*
X163154D01*
X160797Y358917D01*
Y355583D01*
X163154Y353226D01*
X166488D01*
X168845Y355583D01*
Y358917D01*
X166488Y361274D01*
D02*
G37*
G36*
X157057D02*
X153723D01*
X151366Y358917D01*
Y355583D01*
X153723Y353226D01*
X157057D01*
X159414Y355583D01*
Y358917D01*
X157057Y361274D01*
D02*
G37*
G36*
X328167Y360024D02*
X324833D01*
X322476Y357667D01*
Y354333D01*
X324833Y351976D01*
X328167D01*
X330524Y354333D01*
Y357667D01*
X328167Y360024D01*
D02*
G37*
G36*
X313917Y359774D02*
X310583D01*
X308226Y357417D01*
Y354083D01*
X310583Y351726D01*
X313917D01*
X316274Y354083D01*
Y357417D01*
X313917Y359774D01*
D02*
G37*
G36*
X304167Y359524D02*
X300833D01*
X298476Y357167D01*
Y353833D01*
X300833Y351476D01*
X304167D01*
X306524Y353833D01*
Y357167D01*
X304167Y359524D01*
D02*
G37*
G36*
X328167Y347774D02*
X324833D01*
X322476Y345417D01*
Y342083D01*
X324833Y339726D01*
X328167D01*
X330524Y342083D01*
Y345417D01*
X328167Y347774D01*
D02*
G37*
G36*
X42738Y354274D02*
X35262D01*
X29976Y348988D01*
Y341512D01*
X35262Y336226D01*
X42738D01*
X48024Y341512D01*
Y348988D01*
X42738Y354274D01*
D02*
G37*
G36*
X350917Y344274D02*
X347583D01*
X345226Y341917D01*
Y338583D01*
X347583Y336226D01*
X350917D01*
X353274Y338583D01*
Y341917D01*
X350917Y344274D01*
D02*
G37*
G36*
X87917Y343024D02*
X84583D01*
X82226Y340667D01*
Y337333D01*
X84583Y334976D01*
X87917D01*
X90274Y337333D01*
Y340667D01*
X87917Y343024D01*
D02*
G37*
G36*
X475092Y357464D02*
X470308D01*
X465889Y355634D01*
X462506Y352251D01*
X460676Y347832D01*
Y343048D01*
X462506Y338629D01*
X465889Y335247D01*
X470308Y333416D01*
X475092D01*
X479511Y335247D01*
X482893Y338629D01*
X484724Y343048D01*
Y347832D01*
X482893Y352251D01*
X479511Y355634D01*
X475092Y357464D01*
D02*
G37*
G36*
X195990Y358964D02*
X190610D01*
X185639Y356905D01*
X181835Y353101D01*
X179776Y348130D01*
Y342750D01*
X181835Y337779D01*
X185639Y333975D01*
X190610Y331916D01*
X195990D01*
X200961Y333975D01*
X204765Y337779D01*
X206824Y342750D01*
Y348130D01*
X204765Y353101D01*
X200961Y356905D01*
X195990Y358964D01*
D02*
G37*
G36*
X42738Y329274D02*
X35262D01*
X29976Y323988D01*
Y316512D01*
X35262Y311226D01*
X42738D01*
X48024Y316512D01*
Y323988D01*
X42738Y329274D01*
D02*
G37*
G36*
X137917Y317524D02*
X134583D01*
X132226Y315167D01*
Y311833D01*
X134583Y309476D01*
X137917D01*
X140274Y311833D01*
Y315167D01*
X137917Y317524D01*
D02*
G37*
G36*
X219667Y314524D02*
X216333D01*
X213976Y312167D01*
Y308833D01*
X216333Y306476D01*
X219667D01*
X222024Y308833D01*
Y312167D01*
X219667Y314524D01*
D02*
G37*
G36*
X229055Y314491D02*
X225721D01*
X223364Y312134D01*
Y308801D01*
X225721Y306443D01*
X229055D01*
X231412Y308801D01*
Y312134D01*
X229055Y314491D01*
D02*
G37*
G36*
X195692Y319364D02*
X190908D01*
X186489Y317533D01*
X183106Y314151D01*
X181276Y309732D01*
Y304948D01*
X183106Y300529D01*
X186489Y297146D01*
X190908Y295316D01*
X195692D01*
X200111Y297146D01*
X203493Y300529D01*
X205324Y304948D01*
Y309732D01*
X203493Y314151D01*
X200111Y317533D01*
X195692Y319364D01*
D02*
G37*
G36*
X137917Y297553D02*
X134583D01*
X132226Y295196D01*
Y291863D01*
X134583Y289505D01*
X137917D01*
X140274Y291863D01*
Y295196D01*
X137917Y297553D01*
D02*
G37*
G36*
X408417Y299774D02*
X405083D01*
X402726Y297417D01*
Y295416D01*
X402417Y294274D01*
X401779Y294274D01*
X399083D01*
X396726Y291917D01*
Y288583D01*
X399083Y286226D01*
X402417D01*
X404774Y288583D01*
Y290584D01*
X405083Y291726D01*
X405721Y291726D01*
X408417D01*
X410774Y294083D01*
Y297417D01*
X408417Y299774D01*
D02*
G37*
G36*
X255667Y294024D02*
X252333D01*
X249976Y291667D01*
Y288333D01*
X252333Y285976D01*
X255667D01*
X256226Y285744D01*
Y284083D01*
X258583Y281726D01*
X261917D01*
X264274Y284083D01*
Y287417D01*
X261917Y289774D01*
X258583D01*
X258024Y290006D01*
Y291667D01*
X255667Y294024D01*
D02*
G37*
G36*
X502736Y311524D02*
X495764D01*
X489324Y308856D01*
X484394Y303927D01*
X481726Y297486D01*
Y290514D01*
X484394Y284074D01*
X489324Y279144D01*
X495764Y276476D01*
X502736D01*
X509177Y279144D01*
X514106Y284074D01*
X516774Y290514D01*
Y297486D01*
X514106Y303927D01*
X509177Y308856D01*
X502736Y311524D01*
D02*
G37*
G36*
X358917Y269774D02*
X355583D01*
X353226Y267417D01*
Y264083D01*
X355583Y261726D01*
X358917D01*
X361274Y264083D01*
Y267417D01*
X358917Y269774D01*
D02*
G37*
G36*
X104904Y268538D02*
X101571D01*
X99213Y266180D01*
Y262847D01*
X101571Y260490D01*
X104904D01*
X107261Y262847D01*
Y266180D01*
X104904Y268538D01*
D02*
G37*
G36*
X195692Y281264D02*
X190908D01*
X186489Y279433D01*
X183106Y276051D01*
X181276Y271632D01*
Y266848D01*
X183106Y262429D01*
X186489Y259046D01*
X190908Y257216D01*
X195692D01*
X200111Y259046D01*
X203493Y262429D01*
X205324Y266848D01*
Y271632D01*
X203493Y276051D01*
X200111Y279433D01*
X195692Y281264D01*
D02*
G37*
G36*
X96374Y254827D02*
X93040D01*
X90683Y252470D01*
Y249137D01*
X93040Y246779D01*
X96374D01*
X98731Y249137D01*
Y252470D01*
X96374Y254827D01*
D02*
G37*
G36*
X82917Y246774D02*
X79583D01*
X77875Y245066D01*
X76167Y246774D01*
X72833D01*
X70476Y244417D01*
Y241083D01*
X72833Y238726D01*
X76167D01*
X77875Y240434D01*
X79583Y238726D01*
X82579D01*
X83168Y238352D01*
X83585Y237733D01*
Y237270D01*
X87355D01*
Y241040D01*
X86537D01*
X86518Y241021D01*
X85274Y241573D01*
Y244417D01*
X82917Y246774D01*
D02*
G37*
G36*
X167370Y246420D02*
X160847D01*
X156235Y241808D01*
Y239373D01*
X154965Y238913D01*
X152338Y241540D01*
X151520D01*
Y236500D01*
Y231460D01*
X152338D01*
X155290Y234412D01*
Y234499D01*
X156560Y234959D01*
X160847Y230672D01*
X167370D01*
X171982Y235285D01*
Y241808D01*
X167370Y246420D01*
D02*
G37*
G36*
X148980Y241540D02*
X148162D01*
X145210Y238588D01*
Y237770D01*
X148980D01*
Y241540D01*
D02*
G37*
G36*
X90713Y241040D02*
X89895D01*
Y237270D01*
X93665D01*
Y238088D01*
X90713Y241040D01*
D02*
G37*
G36*
X307653Y240719D02*
X304319D01*
X301962Y238362D01*
Y235028D01*
X304319Y232671D01*
X307653D01*
X310010Y235028D01*
Y238362D01*
X307653Y240719D01*
D02*
G37*
G36*
X148980Y235230D02*
X145210D01*
Y234412D01*
X148162Y231460D01*
X148980D01*
Y235230D01*
D02*
G37*
G36*
X93665Y234730D02*
X89895D01*
Y230960D01*
X90713D01*
X93665Y233912D01*
Y234730D01*
D02*
G37*
G36*
X87355D02*
X83585D01*
Y233912D01*
X86537Y230960D01*
X87355D01*
Y234730D01*
D02*
G37*
G36*
X130417Y241274D02*
X127083D01*
X124726Y238917D01*
Y236916D01*
X124417Y235774D01*
X123779Y235774D01*
X121083D01*
X118726Y233417D01*
Y230083D01*
X121083Y227726D01*
X124417D01*
X126774Y230083D01*
Y232084D01*
X127083Y233226D01*
X127721Y233226D01*
X130417D01*
X132774Y235583D01*
Y238917D01*
X130417Y241274D01*
D02*
G37*
G36*
X475092Y281264D02*
X470308D01*
X465889Y279433D01*
X462506Y276051D01*
X460676Y271632D01*
Y266848D01*
X462506Y262429D01*
X465889Y259046D01*
X470308Y257216D01*
X475092D01*
X479511Y259046D01*
X480553Y260088D01*
X481726Y259602D01*
Y226476D01*
X516774D01*
Y261524D01*
X483648D01*
X483045Y262794D01*
X484724Y266848D01*
Y271632D01*
X482893Y276051D01*
X479511Y279433D01*
X475092Y281264D01*
D02*
G37*
G36*
X267667Y226774D02*
X264333D01*
X261976Y224417D01*
Y221083D01*
X264333Y218726D01*
X267667D01*
X270024Y221083D01*
Y224417D01*
X267667Y226774D01*
D02*
G37*
G36*
X195894Y244180D02*
X190706D01*
X185913Y242195D01*
X182245Y238527D01*
X180260Y233734D01*
Y228546D01*
X182245Y223753D01*
X185913Y220085D01*
X190706Y218100D01*
X195894D01*
X200687Y220085D01*
X204355Y223753D01*
X206340Y228546D01*
Y233734D01*
X204355Y238527D01*
X200687Y242195D01*
X195894Y244180D01*
D02*
G37*
G36*
X69540Y221730D02*
X65770D01*
Y217960D01*
X66588D01*
X69540Y220912D01*
Y221730D01*
D02*
G37*
G36*
X63230D02*
X59460D01*
Y220912D01*
X62412Y217960D01*
X63230D01*
Y221730D01*
D02*
G37*
G36*
X289417Y224274D02*
X286083D01*
X283726Y221917D01*
Y218583D01*
X286083Y216226D01*
X289417D01*
X291774Y218583D01*
Y221917D01*
X289417Y224274D01*
D02*
G37*
G36*
X418167Y223524D02*
X414833D01*
X412476Y221167D01*
Y217833D01*
X414833Y215476D01*
X418167D01*
X420524Y217833D01*
Y221167D01*
X418167Y223524D01*
D02*
G37*
G36*
X427099Y214592D02*
X423765D01*
X421408Y212234D01*
Y208901D01*
X423765Y206544D01*
X427099D01*
X429456Y208901D01*
Y212234D01*
X427099Y214592D01*
D02*
G37*
G36*
X409167Y214524D02*
X405833D01*
X403476Y212167D01*
Y208833D01*
X405833Y206476D01*
X409167D01*
X411524Y208833D01*
Y212167D01*
X409167Y214524D01*
D02*
G37*
G36*
X531417Y209774D02*
X528083D01*
X525726Y207417D01*
Y204083D01*
X528083Y201726D01*
X531417D01*
X533774Y204083D01*
Y207417D01*
X531417Y209774D01*
D02*
G37*
G36*
X127667Y205274D02*
X124333D01*
X121976Y202917D01*
Y199583D01*
X124333Y197226D01*
X127667D01*
X130024Y199583D01*
Y202917D01*
X127667Y205274D01*
D02*
G37*
G36*
X196192Y207580D02*
X194570D01*
Y194310D01*
X207840D01*
Y195932D01*
X205626Y201276D01*
X201536Y205366D01*
X196192Y207580D01*
D02*
G37*
G36*
X192030D02*
X190408D01*
X185064Y205366D01*
X180974Y201276D01*
X178760Y195932D01*
Y194310D01*
X192030D01*
Y207580D01*
D02*
G37*
G36*
X444667Y196524D02*
X441333D01*
X438976Y194167D01*
Y190833D01*
X441333Y188476D01*
X444667D01*
X447024Y190833D01*
Y194167D01*
X444667Y196524D01*
D02*
G37*
G36*
X387417Y196274D02*
X384083D01*
X381726Y193917D01*
Y190583D01*
X384083Y188226D01*
X387417D01*
X389774Y190583D01*
Y193917D01*
X387417Y196274D01*
D02*
G37*
G36*
X98917D02*
X95583D01*
X93226Y193917D01*
Y190583D01*
X95583Y188226D01*
X98917D01*
X101274Y190583D01*
Y193917D01*
X98917Y196274D01*
D02*
G37*
G36*
X346730Y187040D02*
X345912D01*
X343000Y184128D01*
X340088Y187040D01*
X339270D01*
Y182000D01*
X336730D01*
Y187040D01*
X335912D01*
X333000Y184128D01*
X330088Y187040D01*
X329270D01*
Y182000D01*
X326730D01*
Y187040D01*
X325912D01*
X323000Y184128D01*
X320088Y187040D01*
X319270D01*
Y182000D01*
X316730D01*
Y187040D01*
X315912D01*
X313000Y184128D01*
X310088Y187040D01*
X309270D01*
Y182000D01*
X306730D01*
Y187040D01*
X305912D01*
X303000Y184128D01*
X300088Y187040D01*
X299270D01*
Y182000D01*
X296730D01*
Y187040D01*
X295912D01*
X293000Y184128D01*
X290088Y187040D01*
X289270D01*
Y182000D01*
X286730D01*
Y187040D01*
X285912D01*
X283000Y184128D01*
X280088Y187040D01*
X279270D01*
Y182000D01*
X278000D01*
Y180730D01*
X272960D01*
Y179912D01*
X275872Y177000D01*
X272960Y174088D01*
Y173270D01*
X278000D01*
Y170730D01*
X272960D01*
Y169912D01*
X275872Y167000D01*
X272960Y164088D01*
Y163270D01*
X278000D01*
Y160730D01*
X272960D01*
Y159912D01*
X275872Y157000D01*
X272960Y154088D01*
Y153270D01*
X278000D01*
Y150730D01*
X272960D01*
Y149912D01*
X275872Y147000D01*
X272960Y144088D01*
Y143270D01*
X278000D01*
Y140730D01*
X272960D01*
Y139912D01*
X275872Y137000D01*
X272960Y134088D01*
Y133270D01*
X278000D01*
Y130730D01*
X272960D01*
Y129912D01*
X275872Y127000D01*
X272960Y124088D01*
Y123270D01*
X278000D01*
Y120730D01*
X272960D01*
Y119912D01*
X275872Y117000D01*
X272960Y114088D01*
Y113270D01*
X278000D01*
Y112000D01*
X279270D01*
Y106960D01*
X280088D01*
X283000Y109872D01*
X285912Y106960D01*
X286730D01*
Y112000D01*
X289270D01*
Y106960D01*
X290088D01*
X293000Y109872D01*
X295912Y106960D01*
X296730D01*
Y112000D01*
X299270D01*
Y106960D01*
X300088D01*
X303000Y109872D01*
X305912Y106960D01*
X306730D01*
Y112000D01*
X309270D01*
Y106960D01*
X310088D01*
X313000Y109872D01*
X315912Y106960D01*
X316730D01*
Y112000D01*
X319270D01*
Y106960D01*
X320088D01*
X323000Y109872D01*
X325912Y106960D01*
X326730D01*
Y112000D01*
X329270D01*
Y106960D01*
X330088D01*
X333000Y109872D01*
X335912Y106960D01*
X336730D01*
Y112000D01*
X339270D01*
Y106960D01*
X340088D01*
X343000Y109872D01*
X345912Y106960D01*
X346730D01*
Y112000D01*
X348000D01*
Y113270D01*
X353040D01*
Y114088D01*
X350128Y117000D01*
X353040Y119912D01*
Y120730D01*
X348000D01*
Y123270D01*
X353040D01*
Y124088D01*
X350128Y127000D01*
X353040Y129912D01*
Y130730D01*
X348000D01*
Y133270D01*
X353040D01*
Y134088D01*
X350128Y137000D01*
X353040Y139912D01*
Y140730D01*
X348000D01*
Y143270D01*
X353040D01*
Y144088D01*
X350128Y147000D01*
X353040Y149912D01*
Y150730D01*
X348000D01*
Y153270D01*
X353040D01*
Y154088D01*
X350128Y157000D01*
X353040Y159912D01*
Y160730D01*
X348000D01*
Y163270D01*
X353040D01*
Y164088D01*
X350128Y167000D01*
X353040Y169912D01*
Y170730D01*
X348000D01*
Y173270D01*
X353040D01*
Y174088D01*
X350128Y177000D01*
X353040Y179912D01*
Y180730D01*
X348000D01*
Y182000D01*
X346730D01*
Y187040D01*
D02*
G37*
G36*
X350088D02*
X349270D01*
Y183270D01*
X353040D01*
Y184088D01*
X350088Y187040D01*
D02*
G37*
G36*
X276730D02*
X275912D01*
X272960Y184088D01*
Y183270D01*
X276730D01*
Y187040D01*
D02*
G37*
G36*
X475092Y205064D02*
X470308D01*
X465889Y203234D01*
X462506Y199851D01*
X460676Y195432D01*
Y190648D01*
X462506Y186229D01*
X465889Y182847D01*
X470308Y181016D01*
X475092D01*
X479511Y182847D01*
X482893Y186229D01*
X484724Y190648D01*
Y195432D01*
X482893Y199851D01*
X479511Y203234D01*
X475092Y205064D01*
D02*
G37*
G36*
X207840Y191770D02*
X194570D01*
Y178500D01*
X196192D01*
X201536Y180714D01*
X205626Y184804D01*
X207840Y190148D01*
Y191770D01*
D02*
G37*
G36*
X192030D02*
X178760D01*
Y190148D01*
X180974Y184804D01*
X185064Y180714D01*
X190408Y178500D01*
X192030D01*
Y191770D01*
D02*
G37*
G36*
X387167Y180774D02*
X383833D01*
X381476Y178417D01*
Y175083D01*
X383833Y172726D01*
X387167D01*
X389524Y175083D01*
Y178417D01*
X387167Y180774D01*
D02*
G37*
G36*
X593814Y187750D02*
X587186D01*
X582500Y183064D01*
Y176436D01*
X587186Y171750D01*
X593814D01*
X598500Y176436D01*
Y183064D01*
X593814Y187750D01*
D02*
G37*
G36*
X520843Y190524D02*
X516557D01*
X512597Y188884D01*
X509566Y185853D01*
X507926Y181893D01*
Y177607D01*
X509566Y173647D01*
X512597Y170616D01*
X516557Y168976D01*
X520843D01*
X524803Y170616D01*
X527834Y173647D01*
X529474Y177607D01*
Y181893D01*
X527834Y185853D01*
X524803Y188884D01*
X520843Y190524D01*
D02*
G37*
G36*
X425042Y172899D02*
X421708D01*
X419351Y170542D01*
Y167208D01*
X421708Y164851D01*
X425042D01*
X427399Y167208D01*
Y170542D01*
X425042Y172899D01*
D02*
G37*
G36*
X81511Y177624D02*
X74988D01*
X70376Y173011D01*
Y166488D01*
X74988Y161876D01*
X81511D01*
X86124Y166488D01*
Y173011D01*
X81511Y177624D01*
D02*
G37*
G36*
X475667Y169274D02*
X472333D01*
X469976Y166917D01*
Y163583D01*
X472333Y161226D01*
X475667D01*
X478024Y163583D01*
Y166917D01*
X475667Y169274D01*
D02*
G37*
G36*
X416667Y161774D02*
X413333D01*
X410976Y159417D01*
Y156083D01*
X413333Y153726D01*
X416667D01*
X419024Y156083D01*
Y159417D01*
X416667Y161774D01*
D02*
G37*
G36*
X593814Y162750D02*
X587186D01*
X582500Y158064D01*
Y151436D01*
X587186Y146750D01*
X593814D01*
X598500Y151436D01*
Y158064D01*
X593814Y162750D01*
D02*
G37*
G36*
X46250Y152079D02*
X42520D01*
Y146270D01*
X52803D01*
X51255Y150006D01*
X46250Y152079D01*
D02*
G37*
G36*
X103250D02*
X99520D01*
Y146270D01*
X109803D01*
X108256Y150006D01*
X103250Y152079D01*
D02*
G37*
G36*
X39980D02*
X36250D01*
X31245Y150006D01*
X29697Y146270D01*
X39980D01*
Y152079D01*
D02*
G37*
G36*
X96980D02*
X93250D01*
X88245Y150006D01*
X86697Y146270D01*
X96980D01*
Y152079D01*
D02*
G37*
G36*
X407417Y153274D02*
X404083D01*
X401726Y150917D01*
Y147583D01*
X404083Y145226D01*
X407417D01*
X409774Y147583D01*
Y150917D01*
X407417Y153274D01*
D02*
G37*
G36*
X529474Y165524D02*
X507926D01*
Y143976D01*
X529474D01*
Y165524D01*
D02*
G37*
G36*
X109803Y143730D02*
X99520D01*
Y137921D01*
X103250D01*
X108256Y139994D01*
X109803Y143730D01*
D02*
G37*
G36*
X96980D02*
X86697D01*
X88245Y139994D01*
X93250Y137921D01*
X96980D01*
Y143730D01*
D02*
G37*
G36*
X52803D02*
X42520D01*
Y137921D01*
X46250D01*
X51255Y139994D01*
X52803Y143730D01*
D02*
G37*
G36*
X39980D02*
X29697D01*
X31245Y139994D01*
X36250Y137921D01*
X39980D01*
Y143730D01*
D02*
G37*
G36*
X387417Y140524D02*
X384083D01*
X381726Y138167D01*
Y134833D01*
X384083Y132476D01*
X387417D01*
X389774Y134833D01*
Y138167D01*
X387417Y140524D01*
D02*
G37*
G36*
X53331Y134274D02*
X49169D01*
X46250Y131355D01*
X43331Y134274D01*
X39169D01*
X36250Y131355D01*
X33331Y134274D01*
X29169D01*
X26226Y131331D01*
Y127169D01*
X29169Y124226D01*
X33331D01*
X36250Y127145D01*
X39169Y124226D01*
X43331D01*
X46250Y127145D01*
X49169Y124226D01*
X53331D01*
X56274Y127169D01*
Y131331D01*
X53331Y134274D01*
D02*
G37*
G36*
X85331D02*
X81169D01*
X78250Y131355D01*
X75331Y134274D01*
X71169D01*
X68250Y131355D01*
X65331Y134274D01*
X61169D01*
X58226Y131331D01*
Y127169D01*
X61169Y124226D01*
X65331D01*
X68250Y127145D01*
X71169Y124226D01*
X75331D01*
X78250Y127145D01*
X81169Y124226D01*
X85331D01*
X88274Y127169D01*
Y131331D01*
X85331Y134274D01*
D02*
G37*
G36*
X234917Y135274D02*
X231583D01*
X229226Y132917D01*
Y129583D01*
X231583Y127226D01*
X234917D01*
X237274Y129583D01*
Y132917D01*
X234917Y135274D01*
D02*
G37*
G36*
X424917Y136274D02*
X421583D01*
X419226Y133917D01*
Y130583D01*
X421182Y128628D01*
X421455Y127875D01*
X421182Y127122D01*
X419226Y125167D01*
Y121833D01*
X421583Y119476D01*
X424917D01*
X427274Y121833D01*
Y125167D01*
X425318Y127122D01*
X425045Y127875D01*
X425318Y128628D01*
X427274Y130583D01*
Y133917D01*
X424917Y136274D01*
D02*
G37*
G36*
X81980Y120790D02*
X80748D01*
X78250Y118292D01*
X75752Y120790D01*
X74520D01*
Y114750D01*
X71980D01*
Y120790D01*
X70748D01*
X67532Y117573D01*
X65331Y119774D01*
X61169D01*
X58560Y117165D01*
X57416Y117243D01*
X57177Y117365D01*
X53752Y120790D01*
X52520D01*
Y114750D01*
X49980D01*
Y120790D01*
X48748D01*
X46250Y118292D01*
X43752Y120790D01*
X42520D01*
Y114750D01*
X39980D01*
Y120790D01*
X38748D01*
X35532Y117573D01*
X33331Y119774D01*
X29169D01*
X26226Y116831D01*
Y112669D01*
X29169Y109726D01*
X33331D01*
X35532Y111927D01*
X38635Y108823D01*
X38757Y108584D01*
X38835Y107440D01*
X36250Y104855D01*
X33331Y107774D01*
X29169D01*
X26226Y104831D01*
Y100669D01*
X29169Y97726D01*
X33331D01*
X36250Y100645D01*
X39169Y97726D01*
X43331D01*
X46250Y100645D01*
X49169Y97726D01*
X53331D01*
X56274Y100669D01*
Y104831D01*
X53665Y107440D01*
X53743Y108584D01*
X53865Y108823D01*
X57177Y112135D01*
X57416Y112257D01*
X58560Y112335D01*
X61169Y109726D01*
X65331D01*
X67532Y111927D01*
X70635Y108823D01*
X70757Y108584D01*
X70835Y107440D01*
X68250Y104855D01*
X65331Y107774D01*
X61169D01*
X58226Y104831D01*
Y100669D01*
X61169Y97726D01*
X65331D01*
X68250Y100645D01*
X71169Y97726D01*
X75331D01*
X78250Y100645D01*
X81169Y97726D01*
X85331D01*
X88274Y100669D01*
Y104831D01*
X85665Y107440D01*
X85743Y108584D01*
X85865Y108823D01*
X89290Y112248D01*
Y113480D01*
X83250D01*
Y114750D01*
X81980D01*
Y120790D01*
D02*
G37*
G36*
X85752D02*
X84520D01*
Y116020D01*
X89290D01*
Y117252D01*
X85752Y120790D01*
D02*
G37*
G36*
X450917Y126774D02*
X447583D01*
X445226Y124417D01*
Y121083D01*
X446934Y119375D01*
X445226Y117667D01*
Y114333D01*
X447583Y111976D01*
X450917D01*
X453274Y114333D01*
Y117667D01*
X451566Y119375D01*
X453274Y121083D01*
Y124417D01*
X450917Y126774D01*
D02*
G37*
G36*
X353040Y110730D02*
X349270D01*
Y106960D01*
X350088D01*
X353040Y109912D01*
Y110730D01*
D02*
G37*
G36*
X276730D02*
X272960D01*
Y109912D01*
X275912Y106960D01*
X276730D01*
Y110730D01*
D02*
G37*
G36*
X221917Y105024D02*
X218583D01*
X216226Y102667D01*
Y99333D01*
X218583Y96976D01*
X221917D01*
X224274Y99333D01*
Y102667D01*
X221917Y105024D01*
D02*
G37*
G36*
X149667D02*
X146333D01*
X143976Y102667D01*
Y99333D01*
X146333Y96976D01*
X149667D01*
X152024Y99333D01*
Y102667D01*
X149667Y105024D01*
D02*
G37*
G36*
X242917Y103774D02*
X239583D01*
X237226Y101417D01*
Y98083D01*
X239583Y95726D01*
X242917D01*
X245274Y98083D01*
Y101417D01*
X242917Y103774D01*
D02*
G37*
G36*
X450917Y102524D02*
X447583D01*
X445226Y100167D01*
Y96833D01*
X447583Y94476D01*
X450917D01*
X453274Y96833D01*
Y100167D01*
X450917Y102524D01*
D02*
G37*
G36*
X53331Y93274D02*
X49169D01*
X46250Y90355D01*
X43331Y93274D01*
X39169D01*
X36250Y90355D01*
X33331Y93274D01*
X29169D01*
X26226Y90331D01*
Y86169D01*
X29169Y83226D01*
X33331D01*
X36250Y86145D01*
X39169Y83226D01*
X43331D01*
X46250Y86145D01*
X49169Y83226D01*
X53331D01*
X56274Y86169D01*
Y90331D01*
X53331Y93274D01*
D02*
G37*
G36*
X85331D02*
X81169D01*
X78250Y90355D01*
X75331Y93274D01*
X71169D01*
X68250Y90355D01*
X65331Y93274D01*
X61169D01*
X58226Y90331D01*
Y86169D01*
X61169Y83226D01*
X65331D01*
X68250Y86145D01*
X71169Y83226D01*
X75331D01*
X78250Y86145D01*
X81169Y83226D01*
X85331D01*
X88274Y86169D01*
Y90331D01*
X85331Y93274D01*
D02*
G37*
G36*
X53331Y78774D02*
X49169D01*
X46250Y75855D01*
X43331Y78774D01*
X39169D01*
X36250Y75855D01*
X33331Y78774D01*
X29169D01*
X26226Y75831D01*
Y71669D01*
X29169Y68726D01*
X33331D01*
X36250Y71645D01*
X39169Y68726D01*
X43331D01*
X46250Y71645D01*
X49169Y68726D01*
X53331D01*
X56274Y71669D01*
Y75831D01*
X53331Y78774D01*
D02*
G37*
G36*
X85331D02*
X81169D01*
X78250Y75855D01*
X75331Y78774D01*
X71169D01*
X68250Y75855D01*
X65331Y78774D01*
X61169D01*
X58226Y75831D01*
Y71669D01*
X61169Y68726D01*
X65331D01*
X68250Y71645D01*
X71169Y68726D01*
X75331D01*
X78250Y71645D01*
X81169Y68726D01*
X85331D01*
X88274Y71669D01*
Y75831D01*
X85331Y78774D01*
D02*
G37*
G36*
X259917Y75274D02*
X256583D01*
X254226Y72917D01*
Y69583D01*
X256583Y67226D01*
X259917D01*
X262274Y69583D01*
Y72917D01*
X259917Y75274D01*
D02*
G37*
G36*
X361167Y73274D02*
X357833D01*
X355476Y70917D01*
Y67583D01*
X357833Y65226D01*
X361167D01*
X363524Y67583D01*
Y70917D01*
X361167Y73274D01*
D02*
G37*
G36*
X289917Y71024D02*
X286583D01*
X284226Y68667D01*
Y65333D01*
X286583Y62976D01*
X289917D01*
X292274Y65333D01*
Y68667D01*
X289917Y71024D01*
D02*
G37*
G36*
X162667Y70274D02*
X159333D01*
X156976Y67917D01*
Y64583D01*
X159333Y62226D01*
X162667D01*
X165024Y64583D01*
Y67917D01*
X162667Y70274D01*
D02*
G37*
G36*
X85331Y64274D02*
X81169D01*
X78250Y61355D01*
X75331Y64274D01*
X71169D01*
X68250Y61355D01*
X65331Y64274D01*
X61169D01*
X58226Y61331D01*
Y57169D01*
X60944Y54451D01*
X61078Y53750D01*
X60944Y53049D01*
X58560Y50665D01*
X57416Y50743D01*
X57177Y50865D01*
X53752Y54290D01*
X53647Y54542D01*
X56274Y57169D01*
Y61331D01*
X53331Y64274D01*
X49169D01*
X46250Y61355D01*
X43331Y64274D01*
X39169D01*
X36250Y61355D01*
X33331Y64274D01*
X29169D01*
X26226Y61331D01*
Y57169D01*
X28944Y54451D01*
X29078Y53750D01*
X28944Y53049D01*
X26226Y50331D01*
Y46169D01*
X29169Y43226D01*
X33331D01*
X35532Y45427D01*
X38748Y42210D01*
X39980D01*
Y48250D01*
X42520D01*
Y42210D01*
X43752D01*
X46250Y44708D01*
X48748Y42210D01*
X49980D01*
Y48250D01*
X52520D01*
Y42210D01*
X53752D01*
X57177Y45635D01*
X57416Y45757D01*
X58560Y45835D01*
X61169Y43226D01*
X65331D01*
X67532Y45427D01*
X70748Y42210D01*
X71980D01*
Y48250D01*
X74520D01*
Y42210D01*
X75752D01*
X78250Y44708D01*
X80748Y42210D01*
X81980D01*
Y48250D01*
X83250D01*
Y49520D01*
X89290D01*
Y50752D01*
X85752Y54290D01*
X85647Y54542D01*
X88274Y57169D01*
Y61331D01*
X85331Y64274D01*
D02*
G37*
G36*
X103417Y51024D02*
X100083D01*
X98375Y49316D01*
X96839Y50851D01*
X93506D01*
X91149Y48494D01*
Y45161D01*
X93506Y42804D01*
X96839D01*
X98547Y44512D01*
X100083Y42976D01*
X103417D01*
X105774Y45333D01*
Y48667D01*
X103417Y51024D01*
D02*
G37*
G36*
X89290Y46980D02*
X84520D01*
Y42210D01*
X85752D01*
X89290Y45748D01*
Y46980D01*
D02*
G37*
G36*
X53331Y37774D02*
X49169D01*
X46250Y34855D01*
X43331Y37774D01*
X39169D01*
X36250Y34855D01*
X33331Y37774D01*
X29169D01*
X26226Y34831D01*
Y30669D01*
X29169Y27726D01*
X33331D01*
X36250Y30645D01*
X39169Y27726D01*
X43331D01*
X46250Y30645D01*
X49169Y27726D01*
X53331D01*
X56274Y30669D01*
Y34831D01*
X53331Y37774D01*
D02*
G37*
G36*
X85331D02*
X81169D01*
X78250Y34855D01*
X75331Y37774D01*
X71169D01*
X68250Y34855D01*
X65331Y37774D01*
X61169D01*
X58226Y34831D01*
Y30669D01*
X61169Y27726D01*
X65331D01*
X68250Y30645D01*
X71169Y27726D01*
X75331D01*
X78250Y30645D01*
X81169Y27726D01*
X85331D01*
X88274Y30669D01*
Y34831D01*
X85331Y37774D01*
D02*
G37*
G36*
X103250Y24079D02*
X99520D01*
Y18270D01*
X109803D01*
X108256Y22006D01*
X103250Y24079D01*
D02*
G37*
G36*
X46250D02*
X42520D01*
Y18270D01*
X52803D01*
X51255Y22006D01*
X46250Y24079D01*
D02*
G37*
G36*
X96980D02*
X93250D01*
X88245Y22006D01*
X86697Y18270D01*
X96980D01*
Y24079D01*
D02*
G37*
G36*
X39980D02*
X36250D01*
X31245Y22006D01*
X29697Y18270D01*
X39980D01*
Y24079D01*
D02*
G37*
G36*
X173167Y23024D02*
X169833D01*
X167476Y20667D01*
Y17333D01*
X169833Y14976D01*
X173167D01*
X175524Y17333D01*
Y20667D01*
X173167Y23024D01*
D02*
G37*
G36*
X109803Y15730D02*
X99520D01*
Y9921D01*
X103250D01*
X108256Y11995D01*
X109803Y15730D01*
D02*
G37*
G36*
X96980D02*
X86697D01*
X88245Y11995D01*
X93250Y9921D01*
X96980D01*
Y15730D01*
D02*
G37*
G36*
X52803D02*
X42520D01*
Y9921D01*
X46250D01*
X51255Y11995D01*
X52803Y15730D01*
D02*
G37*
G36*
X39980D02*
X29697D01*
X31245Y11995D01*
X36250Y9921D01*
X39980D01*
Y15730D01*
D02*
G37*
%LPD*%
D14*
X278000Y122000D02*
X288000D01*
X298000D01*
X288000Y132000D02*
X298000D01*
Y122000D02*
X308000D01*
X298000Y132000D02*
X308000D01*
Y122000D02*
X318000D01*
X308000Y132000D02*
X318000D01*
Y122000D02*
X328000D01*
X338000D01*
X348000D01*
X338000Y132000D02*
X348000D01*
X278000D02*
X288000D01*
X278000Y142000D02*
X288000D01*
Y152000D02*
X298000D01*
X288000Y142000D02*
X298000D01*
X308000D01*
X318000D01*
X327350D01*
X318000Y132000D02*
X328000D01*
X318000Y152000D02*
X328000D01*
Y132000D02*
X338000D01*
X328000Y142000D02*
X338000D01*
X328000Y152000D02*
X338000D01*
X348000D01*
X338000Y142000D02*
X348000D01*
X288000Y172000D02*
Y182000D01*
X278000Y172000D02*
X288000D01*
X278000Y152000D02*
X288000D01*
X278000Y162000D02*
X288000D01*
X298000D01*
Y172000D02*
Y182000D01*
Y172000D02*
X308000D01*
X298000Y162000D02*
X308000D01*
Y152000D02*
Y162000D01*
Y172000D02*
Y182000D01*
Y172000D02*
X318000D01*
X308000Y162000D02*
X318000D01*
Y172000D02*
Y182000D01*
Y152000D02*
Y162000D01*
Y172000D02*
X328000D01*
Y152000D02*
Y162000D01*
Y172000D02*
Y182000D01*
Y172000D02*
X338000D01*
X328000Y162000D02*
X338000D01*
Y172000D02*
Y182000D01*
Y172000D02*
X348000D01*
X338000Y162000D02*
X348000D01*
D92*
X182276Y385616D02*
D03*
D93*
X202276D02*
D03*
X222276D02*
D03*
X242276D02*
D03*
D98*
X518700Y154750D02*
D03*
D99*
Y179750D02*
D03*
D100*
X590500D02*
D03*
Y154750D02*
D03*
D107*
X215284Y355134D02*
D03*
X254732Y354893D02*
D03*
X295431Y236273D02*
D03*
X280162Y239278D02*
D03*
X239736Y228221D02*
D03*
X305986Y236695D02*
D03*
X94707Y250803D02*
D03*
X88625Y236000D02*
D03*
X103237Y264513D02*
D03*
X270000Y386500D02*
D03*
X227388Y310467D02*
D03*
X24241Y165932D02*
D03*
X24009Y144945D02*
D03*
X24400Y123155D02*
D03*
X24405Y109579D02*
D03*
X78253Y95833D02*
D03*
X36207Y96059D02*
D03*
X24411Y52578D02*
D03*
Y39041D02*
D03*
X221622Y53638D02*
D03*
X195854Y53378D02*
D03*
X184142Y65090D02*
D03*
X148353Y64830D02*
D03*
X134168Y73680D02*
D03*
X107880Y74461D02*
D03*
X273678Y35809D02*
D03*
X247910D02*
D03*
X222142Y35939D02*
D03*
X192991D02*
D03*
X163840Y42706D02*
D03*
X128134Y42975D02*
D03*
X420000Y8500D02*
D03*
X390000D02*
D03*
X360000D02*
D03*
X330000D02*
D03*
X300000D02*
D03*
X270000D02*
D03*
X240000D02*
D03*
X210000D02*
D03*
X180000D02*
D03*
X155000D02*
D03*
X125000D02*
D03*
X70000D02*
D03*
X25500Y10000D02*
D03*
X321031Y228686D02*
D03*
X323860Y302612D02*
D03*
X311138Y315921D02*
D03*
X293949D02*
D03*
X305995Y298191D02*
D03*
X337025Y282544D02*
D03*
X345989Y269239D02*
D03*
X334270Y386801D02*
D03*
X164821Y357250D02*
D03*
X155390D02*
D03*
X98200Y379082D02*
D03*
X88424Y367637D02*
D03*
X515250Y378000D02*
D03*
X412750Y368750D02*
D03*
X431750Y377750D02*
D03*
X74500Y242750D02*
D03*
X218000Y310500D02*
D03*
X241250Y99750D02*
D03*
X258250Y71250D02*
D03*
X270000Y316250D02*
D03*
Y308750D02*
D03*
Y300250D02*
D03*
X283750Y316000D02*
D03*
Y300500D02*
D03*
Y308750D02*
D03*
X277000Y355250D02*
D03*
X353500Y240000D02*
D03*
X243500Y125500D02*
D03*
X392000Y41750D02*
D03*
X293750D02*
D03*
X307250Y59000D02*
D03*
X391500Y75750D02*
D03*
X376250D02*
D03*
X405250Y184750D02*
D03*
Y177000D02*
D03*
Y169750D02*
D03*
X404000Y137750D02*
D03*
X440250Y99750D02*
D03*
X431250D02*
D03*
X278000Y182000D02*
D03*
X288000D02*
D03*
X298000D02*
D03*
X308000D02*
D03*
X318000D02*
D03*
X328000D02*
D03*
X338000D02*
D03*
X348000D02*
D03*
Y172000D02*
D03*
X338000D02*
D03*
X328000D02*
D03*
X318000D02*
D03*
X308000D02*
D03*
X298000D02*
D03*
X288000D02*
D03*
X278000D02*
D03*
Y162000D02*
D03*
X288000D02*
D03*
X298000D02*
D03*
X308000D02*
D03*
X318000D02*
D03*
X328000D02*
D03*
X338000D02*
D03*
X348000D02*
D03*
Y152000D02*
D03*
X338000D02*
D03*
X328000D02*
D03*
X318000D02*
D03*
X308000D02*
D03*
X298000D02*
D03*
X288000D02*
D03*
X278000D02*
D03*
Y142000D02*
D03*
X288000D02*
D03*
X298000D02*
D03*
X308000D02*
D03*
X318000D02*
D03*
X328000D02*
D03*
X338000D02*
D03*
X348000D02*
D03*
Y132000D02*
D03*
X338000D02*
D03*
X328000D02*
D03*
X318000D02*
D03*
X308000D02*
D03*
X298000D02*
D03*
X288000D02*
D03*
X278000D02*
D03*
Y122000D02*
D03*
X288000D02*
D03*
X298000D02*
D03*
X308000D02*
D03*
X318000D02*
D03*
X328000D02*
D03*
X338000D02*
D03*
X348000D02*
D03*
Y112000D02*
D03*
X338000D02*
D03*
X328000D02*
D03*
X318000D02*
D03*
X308000D02*
D03*
X298000D02*
D03*
X288000D02*
D03*
X278000D02*
D03*
X95173Y46828D02*
D03*
X302500Y355500D02*
D03*
X253626Y58479D02*
D03*
X260250Y58500D02*
D03*
X239349Y69337D02*
D03*
X239245Y77347D02*
D03*
X220250Y101000D02*
D03*
X288250Y67000D02*
D03*
X94231Y39801D02*
D03*
X90084Y53161D02*
D03*
X109750Y46750D02*
D03*
X107250Y52250D02*
D03*
X101750Y47000D02*
D03*
X86250Y339000D02*
D03*
X78500Y358000D02*
D03*
X449250Y98500D02*
D03*
X349250Y340250D02*
D03*
X357250D02*
D03*
X254000Y290000D02*
D03*
X260250Y285750D02*
D03*
X239750Y214000D02*
D03*
X44000Y271000D02*
D03*
X136250Y313500D02*
D03*
X128750Y237250D02*
D03*
X150250Y236500D02*
D03*
X312250Y355750D02*
D03*
X326500Y356000D02*
D03*
X64500Y223000D02*
D03*
X122750Y231750D02*
D03*
X499250Y368500D02*
D03*
X97250Y192250D02*
D03*
X531750Y368500D02*
D03*
X423375Y168875D02*
D03*
X406750Y295750D02*
D03*
X400750Y290250D02*
D03*
X126000Y201250D02*
D03*
X474000Y165250D02*
D03*
X482500D02*
D03*
X449250Y122750D02*
D03*
X423250Y132250D02*
D03*
X415000Y157750D02*
D03*
X405750Y149250D02*
D03*
X443000Y192500D02*
D03*
X81250Y242750D02*
D03*
X136250Y293529D02*
D03*
X132000Y302500D02*
D03*
X171500Y19000D02*
D03*
X161000Y66250D02*
D03*
X330750Y237750D02*
D03*
X123500Y109250D02*
D03*
X529750Y205750D02*
D03*
X449250Y116000D02*
D03*
X409250Y163250D02*
D03*
X98250Y370000D02*
D03*
X135500D02*
D03*
X123250D02*
D03*
X110750D02*
D03*
X357250Y265750D02*
D03*
X371750Y359750D02*
D03*
X384250Y228250D02*
D03*
Y220500D02*
D03*
X423250Y123500D02*
D03*
X460250Y182000D02*
D03*
X435620Y159820D02*
D03*
X450620D02*
D03*
X443250Y152250D02*
D03*
X435620Y144570D02*
D03*
X450870D02*
D03*
X101500Y211500D02*
D03*
X112500D02*
D03*
Y220500D02*
D03*
X101500Y220750D02*
D03*
X357500Y228000D02*
D03*
X343500D02*
D03*
X431750Y277750D02*
D03*
X107000Y216000D02*
D03*
X385500Y176750D02*
D03*
X385750Y192250D02*
D03*
X148000Y101000D02*
D03*
X123500Y137000D02*
D03*
X216750Y127000D02*
D03*
X104250Y123500D02*
D03*
X233250Y131250D02*
D03*
X227250Y146500D02*
D03*
X158000Y174250D02*
D03*
X266000Y222750D02*
D03*
X271000Y229250D02*
D03*
X239736Y221111D02*
D03*
X287750Y220250D02*
D03*
X305500Y228750D02*
D03*
X314730Y327730D02*
D03*
X404500Y278000D02*
D03*
X416500Y192750D02*
D03*
X426250Y202250D02*
D03*
X407000D02*
D03*
X407500Y210500D02*
D03*
X425432Y210567D02*
D03*
X416500Y219500D02*
D03*
X416000Y278250D02*
D03*
X361500Y292480D02*
D03*
X376750D02*
D03*
X369250Y300000D02*
D03*
X361802Y307138D02*
D03*
X376750Y307480D02*
D03*
X326500Y343750D02*
D03*
X359500Y69250D02*
D03*
X404500Y91000D02*
D03*
X385750Y136500D02*
D03*
X410500Y143000D02*
D03*
D119*
X41250Y17000D02*
D03*
X98250D02*
D03*
X41250Y145000D02*
D03*
X98250D02*
D03*
D120*
X31250Y32750D02*
D03*
Y48250D02*
D03*
Y59250D02*
D03*
Y129250D02*
D03*
Y114750D02*
D03*
Y102750D02*
D03*
Y73750D02*
D03*
Y88250D02*
D03*
X41250Y32750D02*
D03*
Y48250D02*
D03*
Y59250D02*
D03*
Y129250D02*
D03*
Y114750D02*
D03*
Y102750D02*
D03*
Y73750D02*
D03*
Y88250D02*
D03*
X51250Y32750D02*
D03*
Y48250D02*
D03*
Y59250D02*
D03*
Y129250D02*
D03*
Y114750D02*
D03*
Y102750D02*
D03*
Y73750D02*
D03*
Y88250D02*
D03*
X63250Y32750D02*
D03*
Y48250D02*
D03*
Y59250D02*
D03*
Y129250D02*
D03*
Y114750D02*
D03*
Y102750D02*
D03*
Y73750D02*
D03*
Y88250D02*
D03*
X73250Y32750D02*
D03*
Y48250D02*
D03*
Y59250D02*
D03*
Y129250D02*
D03*
Y114750D02*
D03*
Y102750D02*
D03*
Y73750D02*
D03*
Y88250D02*
D03*
X83250Y32750D02*
D03*
Y48250D02*
D03*
Y59250D02*
D03*
Y129250D02*
D03*
Y114750D02*
D03*
Y102750D02*
D03*
Y73750D02*
D03*
Y88250D02*
D03*
D121*
X472700Y345440D02*
D03*
Y269240D02*
D03*
Y193040D02*
D03*
X193300Y269240D02*
D03*
Y307340D02*
D03*
Y231140D02*
D03*
D122*
Y193040D02*
D03*
Y345440D02*
D03*
D123*
X313000Y147000D02*
D03*
D124*
X39000Y345250D02*
D03*
Y370250D02*
D03*
Y320250D02*
D03*
D125*
X584500Y370000D02*
D03*
X44500Y200000D02*
D03*
X584500Y30000D02*
D03*
D126*
X499250Y244000D02*
D03*
D127*
Y294000D02*
D03*
D128*
X599250Y324000D02*
D03*
Y214000D02*
D03*
D129*
X164109Y238546D02*
D03*
X385750Y355250D02*
D03*
X78250Y169750D02*
D03*
M02*
