G04*
G04 #@! TF.GenerationSoftware,Altium Limited,Altium Designer,24.1.2 (44)*
G04*
G04 Layer_Color=128*
%FSLAX44Y44*%
%MOMM*%
G71*
G04*
G04 #@! TF.SameCoordinates,564CEF90-820D-4554-998B-2DB19DA9D660*
G04*
G04*
G04 #@! TF.FilePolarity,Positive*
G04*
G01*
G75*
%ADD29R,0.5000X0.4000*%
%ADD32R,0.5000X0.5500*%
%ADD33R,0.5200X0.5200*%
%ADD34R,0.5200X0.5200*%
%ADD44R,5.6000X2.3000*%
%ADD66R,0.5725X0.6153*%
%ADD72R,0.4500X0.4500*%
%ADD130R,2.1000X3.0000*%
%ADD131R,0.8000X1.3000*%
%ADD132R,1.3000X1.0500*%
%ADD133R,2.1500X1.3000*%
%ADD134R,1.2000X0.8000*%
%ADD135R,0.6000X0.5000*%
%ADD136R,1.6000X3.5000*%
D29*
X416000Y294750D02*
D03*
Y286750D02*
D03*
X431750Y294750D02*
D03*
Y286750D02*
D03*
X158250Y301500D02*
D03*
Y293500D02*
D03*
D32*
X126000Y186500D02*
D03*
Y194000D02*
D03*
X135000Y186500D02*
D03*
Y194000D02*
D03*
D33*
X173549Y331885D02*
D03*
X165549D02*
D03*
X173762Y322005D02*
D03*
X165762D02*
D03*
D34*
X126000Y179000D02*
D03*
Y171000D02*
D03*
X135000Y179000D02*
D03*
Y171000D02*
D03*
D44*
X240500Y191250D02*
D03*
Y265250D02*
D03*
D66*
X291500Y258714D02*
D03*
Y267286D02*
D03*
X346000Y258286D02*
D03*
Y249714D02*
D03*
D72*
X316500Y278250D02*
D03*
X308500D02*
D03*
D130*
X72750Y380250D02*
D03*
X161250D02*
D03*
D131*
X98250Y352750D02*
D03*
X110750D02*
D03*
X123250D02*
D03*
X135750D02*
D03*
D132*
X329750Y249750D02*
D03*
X306750D02*
D03*
Y267250D02*
D03*
X329750D02*
D03*
D133*
X34800Y239750D02*
D03*
Y290250D02*
D03*
D134*
X57750Y271250D02*
D03*
Y258750D02*
D03*
D135*
X172500Y293500D02*
D03*
Y283500D02*
D03*
D136*
X116500Y315000D02*
D03*
Y259000D02*
D03*
M02*
