G04*
G04 #@! TF.GenerationSoftware,Altium Limited,Altium Designer,24.1.2 (44)*
G04*
G04 Layer_Color=16711935*
%FSLAX44Y44*%
%MOMM*%
G71*
G04*
G04 #@! TF.SameCoordinates,564CEF90-820D-4554-998B-2DB19DA9D660*
G04*
G04*
G04 #@! TF.FilePolarity,Negative*
G04*
G01*
G75*
%ADD29R,0.5000X0.4000*%
%ADD33R,0.5200X0.5200*%
%ADD34R,0.5200X0.5200*%
%ADD44R,5.6000X2.3000*%
%ADD66R,0.5725X0.6153*%
%ADD75R,0.7032X0.7532*%
%ADD89R,0.6532X0.6532*%
%ADD90O,2.0032X1.0032*%
%ADD91C,0.9032*%
%ADD92R,1.3900X1.3900*%
%ADD93C,1.3900*%
%ADD94C,2.3032*%
%ADD95C,2.6032*%
%ADD96R,8.2032X8.2032*%
%ADD97C,1.7032*%
%ADD98R,1.8500X1.8500*%
%ADD99C,1.8500*%
%ADD100C,1.6000*%
%ADD101C,4.7032*%
%ADD102R,3.3270X3.3270*%
%ADD103C,3.3270*%
%ADD104C,1.9270*%
%ADD105C,0.7032*%
%ADD106C,1.4732*%
%ADD107C,0.5000*%
%ADD130R,2.1000X3.0000*%
%ADD131R,0.8000X1.3000*%
%ADD132R,1.3000X1.0500*%
%ADD133R,2.1500X1.3000*%
%ADD134R,1.2000X0.8000*%
%ADD135R,0.6000X0.5000*%
%ADD138R,1.8032X3.7032*%
D29*
X416000Y294750D02*
D03*
Y286750D02*
D03*
X431750Y294750D02*
D03*
Y286750D02*
D03*
X158250Y301500D02*
D03*
Y293500D02*
D03*
D33*
X173549Y331885D02*
D03*
X165549D02*
D03*
X173762Y322005D02*
D03*
X165762D02*
D03*
D34*
X126000Y179000D02*
D03*
Y171000D02*
D03*
X135000Y179000D02*
D03*
Y171000D02*
D03*
D44*
X240500Y191250D02*
D03*
Y265250D02*
D03*
D66*
X291500Y258714D02*
D03*
Y267286D02*
D03*
X346000Y258286D02*
D03*
Y249714D02*
D03*
D75*
X126000Y186500D02*
D03*
Y194000D02*
D03*
X135000Y186500D02*
D03*
Y194000D02*
D03*
D89*
X316500Y278250D02*
D03*
X308500D02*
D03*
D90*
X41250Y17000D02*
D03*
X98250D02*
D03*
X41250Y145000D02*
D03*
X98250D02*
D03*
D91*
X31250Y32750D02*
D03*
Y48250D02*
D03*
Y59250D02*
D03*
Y129250D02*
D03*
Y114750D02*
D03*
Y102750D02*
D03*
Y73750D02*
D03*
Y88250D02*
D03*
X41250Y32750D02*
D03*
Y48250D02*
D03*
Y59250D02*
D03*
Y129250D02*
D03*
Y114750D02*
D03*
Y102750D02*
D03*
Y73750D02*
D03*
Y88250D02*
D03*
X51250Y32750D02*
D03*
Y48250D02*
D03*
Y59250D02*
D03*
Y129250D02*
D03*
Y114750D02*
D03*
Y102750D02*
D03*
Y73750D02*
D03*
Y88250D02*
D03*
X63250Y32750D02*
D03*
Y48250D02*
D03*
Y59250D02*
D03*
Y129250D02*
D03*
Y114750D02*
D03*
Y102750D02*
D03*
Y73750D02*
D03*
Y88250D02*
D03*
X73250Y32750D02*
D03*
Y48250D02*
D03*
Y59250D02*
D03*
Y129250D02*
D03*
Y114750D02*
D03*
Y102750D02*
D03*
Y73750D02*
D03*
Y88250D02*
D03*
X83250Y32750D02*
D03*
Y48250D02*
D03*
Y59250D02*
D03*
Y129250D02*
D03*
Y114750D02*
D03*
Y102750D02*
D03*
Y73750D02*
D03*
Y88250D02*
D03*
D92*
X182276Y385616D02*
D03*
D93*
X202276D02*
D03*
X222276D02*
D03*
X242276D02*
D03*
D94*
X472700Y345440D02*
D03*
Y269240D02*
D03*
Y193040D02*
D03*
X193300Y269240D02*
D03*
Y307340D02*
D03*
Y231140D02*
D03*
D95*
Y193040D02*
D03*
Y345440D02*
D03*
D96*
X313000Y147000D02*
D03*
D97*
X39000Y345250D02*
D03*
Y370250D02*
D03*
Y320250D02*
D03*
D98*
X518700Y154750D02*
D03*
D99*
Y179750D02*
D03*
D100*
X590500D02*
D03*
Y154750D02*
D03*
D101*
X584500Y370000D02*
D03*
X44500Y200000D02*
D03*
X584500Y30000D02*
D03*
D102*
X499250Y244000D02*
D03*
D103*
Y294000D02*
D03*
D104*
X599250Y324000D02*
D03*
Y214000D02*
D03*
D105*
X215284Y355134D02*
D03*
X254732Y354893D02*
D03*
X295431Y236273D02*
D03*
X280162Y239278D02*
D03*
X239736Y228221D02*
D03*
X305986Y236695D02*
D03*
X94707Y250803D02*
D03*
X88625Y236000D02*
D03*
X103237Y264513D02*
D03*
X270000Y386500D02*
D03*
X227388Y310467D02*
D03*
X24241Y165932D02*
D03*
X24009Y144945D02*
D03*
X24400Y123155D02*
D03*
X24405Y109579D02*
D03*
X78253Y95833D02*
D03*
X36207Y96059D02*
D03*
X24411Y52578D02*
D03*
Y39041D02*
D03*
X221622Y53638D02*
D03*
X195854Y53378D02*
D03*
X184142Y65090D02*
D03*
X148353Y64830D02*
D03*
X134168Y73680D02*
D03*
X107880Y74461D02*
D03*
X273678Y35809D02*
D03*
X247910D02*
D03*
X222142Y35939D02*
D03*
X192991D02*
D03*
X163840Y42706D02*
D03*
X128134Y42975D02*
D03*
X420000Y8500D02*
D03*
X390000D02*
D03*
X360000D02*
D03*
X330000D02*
D03*
X300000D02*
D03*
X270000D02*
D03*
X240000D02*
D03*
X210000D02*
D03*
X180000D02*
D03*
X155000D02*
D03*
X125000D02*
D03*
X70000D02*
D03*
X25500Y10000D02*
D03*
X321031Y228686D02*
D03*
X323860Y302612D02*
D03*
X311138Y315921D02*
D03*
X293949D02*
D03*
X305995Y298191D02*
D03*
X337025Y282544D02*
D03*
X345989Y269239D02*
D03*
X334270Y386801D02*
D03*
X164821Y357250D02*
D03*
X155390D02*
D03*
X98200Y379082D02*
D03*
X88424Y367637D02*
D03*
X515250Y378000D02*
D03*
X412750Y368750D02*
D03*
X431750Y377750D02*
D03*
X74500Y242750D02*
D03*
X218000Y310500D02*
D03*
X241250Y99750D02*
D03*
X258250Y71250D02*
D03*
X270000Y316250D02*
D03*
Y308750D02*
D03*
Y300250D02*
D03*
X283750Y316000D02*
D03*
Y300500D02*
D03*
Y308750D02*
D03*
X277000Y355250D02*
D03*
X353500Y240000D02*
D03*
X243500Y125500D02*
D03*
X392000Y41750D02*
D03*
X293750D02*
D03*
X307250Y59000D02*
D03*
X391500Y75750D02*
D03*
X376250D02*
D03*
X405250Y184750D02*
D03*
Y177000D02*
D03*
Y169750D02*
D03*
X404000Y137750D02*
D03*
X440250Y99750D02*
D03*
X431250D02*
D03*
X95173Y46828D02*
D03*
X302500Y355500D02*
D03*
X253626Y58479D02*
D03*
X260250Y58500D02*
D03*
X239349Y69337D02*
D03*
X239245Y77347D02*
D03*
X220250Y101000D02*
D03*
X288250Y67000D02*
D03*
X94231Y39801D02*
D03*
X90084Y53161D02*
D03*
X109750Y46750D02*
D03*
X107250Y52250D02*
D03*
X101750Y47000D02*
D03*
X86250Y339000D02*
D03*
X78500Y358000D02*
D03*
X449250Y98500D02*
D03*
X349250Y340250D02*
D03*
X357250D02*
D03*
X254000Y290000D02*
D03*
X260250Y285750D02*
D03*
X239750Y214000D02*
D03*
X44000Y271000D02*
D03*
X136250Y313500D02*
D03*
X128750Y237250D02*
D03*
X150250Y236500D02*
D03*
X312250Y355750D02*
D03*
X326500Y356000D02*
D03*
X64500Y223000D02*
D03*
X122750Y231750D02*
D03*
X499250Y368500D02*
D03*
X97250Y192250D02*
D03*
X531750Y368500D02*
D03*
X423375Y168875D02*
D03*
X406750Y295750D02*
D03*
X400750Y290250D02*
D03*
X126000Y201250D02*
D03*
X474000Y165250D02*
D03*
X482500D02*
D03*
X449250Y122750D02*
D03*
X423250Y132250D02*
D03*
X415000Y157750D02*
D03*
X405750Y149250D02*
D03*
X443000Y192500D02*
D03*
X81250Y242750D02*
D03*
X136250Y293529D02*
D03*
X132000Y302500D02*
D03*
X171500Y19000D02*
D03*
X161000Y66250D02*
D03*
X330750Y237750D02*
D03*
X123500Y109250D02*
D03*
X529750Y205750D02*
D03*
X449250Y116000D02*
D03*
X409250Y163250D02*
D03*
X98250Y370000D02*
D03*
X135500D02*
D03*
X123250D02*
D03*
X110750D02*
D03*
X357250Y265750D02*
D03*
X371750Y359750D02*
D03*
X384250Y228250D02*
D03*
Y220500D02*
D03*
X423250Y123500D02*
D03*
X460250Y182000D02*
D03*
X435620Y159820D02*
D03*
X450620D02*
D03*
X443250Y152250D02*
D03*
X435620Y144570D02*
D03*
X450870D02*
D03*
X101500Y211500D02*
D03*
X112500D02*
D03*
Y220500D02*
D03*
X101500Y220750D02*
D03*
X357500Y228000D02*
D03*
X343500D02*
D03*
X431750Y277750D02*
D03*
X107000Y216000D02*
D03*
X385500Y176750D02*
D03*
X385750Y192250D02*
D03*
X148000Y101000D02*
D03*
X123500Y137000D02*
D03*
X216750Y127000D02*
D03*
X104250Y123500D02*
D03*
X233250Y131250D02*
D03*
X227250Y146500D02*
D03*
X158000Y174250D02*
D03*
X266000Y222750D02*
D03*
X271000Y229250D02*
D03*
X239736Y221111D02*
D03*
X287750Y220250D02*
D03*
X305500Y228750D02*
D03*
X314730Y327730D02*
D03*
X404500Y278000D02*
D03*
X416500Y192750D02*
D03*
X426250Y202250D02*
D03*
X407000D02*
D03*
X407500Y210500D02*
D03*
X425432Y210567D02*
D03*
X416500Y219500D02*
D03*
X416000Y278250D02*
D03*
X361500Y292480D02*
D03*
X376750D02*
D03*
X369250Y300000D02*
D03*
X361802Y307138D02*
D03*
X376750Y307480D02*
D03*
X326500Y343750D02*
D03*
X359500Y69250D02*
D03*
X404500Y91000D02*
D03*
X385750Y136500D02*
D03*
X410500Y143000D02*
D03*
D106*
X164109Y238546D02*
D03*
X385750Y355250D02*
D03*
X78250Y169750D02*
D03*
D107*
X278000Y182000D02*
D03*
X288000D02*
D03*
X298000D02*
D03*
X308000D02*
D03*
X318000D02*
D03*
X328000D02*
D03*
X338000D02*
D03*
X348000D02*
D03*
Y172000D02*
D03*
X338000D02*
D03*
X328000D02*
D03*
X318000D02*
D03*
X308000D02*
D03*
X298000D02*
D03*
X288000D02*
D03*
X278000D02*
D03*
Y162000D02*
D03*
X288000D02*
D03*
X298000D02*
D03*
X308000D02*
D03*
X318000D02*
D03*
X328000D02*
D03*
X338000D02*
D03*
X348000D02*
D03*
Y152000D02*
D03*
X338000D02*
D03*
X328000D02*
D03*
X318000D02*
D03*
X308000D02*
D03*
X298000D02*
D03*
X288000D02*
D03*
X278000D02*
D03*
Y142000D02*
D03*
X288000D02*
D03*
X298000D02*
D03*
X308000D02*
D03*
X318000D02*
D03*
X328000D02*
D03*
X338000D02*
D03*
X348000D02*
D03*
Y132000D02*
D03*
X338000D02*
D03*
X328000D02*
D03*
X318000D02*
D03*
X308000D02*
D03*
X298000D02*
D03*
X288000D02*
D03*
X278000D02*
D03*
Y122000D02*
D03*
X288000D02*
D03*
X298000D02*
D03*
X308000D02*
D03*
X318000D02*
D03*
X328000D02*
D03*
X338000D02*
D03*
X348000D02*
D03*
Y112000D02*
D03*
X338000D02*
D03*
X328000D02*
D03*
X318000D02*
D03*
X308000D02*
D03*
X298000D02*
D03*
X288000D02*
D03*
X278000D02*
D03*
D130*
X72750Y380250D02*
D03*
X161250D02*
D03*
D131*
X98250Y352750D02*
D03*
X110750D02*
D03*
X123250D02*
D03*
X135750D02*
D03*
D132*
X329750Y249750D02*
D03*
X306750D02*
D03*
Y267250D02*
D03*
X329750D02*
D03*
D133*
X34800Y239750D02*
D03*
Y290250D02*
D03*
D134*
X57750Y271250D02*
D03*
Y258750D02*
D03*
D135*
X172500Y293500D02*
D03*
Y283500D02*
D03*
D138*
X116500Y315000D02*
D03*
Y259000D02*
D03*
M02*
