G04*
G04 #@! TF.GenerationSoftware,Altium Limited,Altium Designer,24.1.2 (44)*
G04*
G04 Layer_Color=32896*
%FSLAX44Y44*%
%MOMM*%
G71*
G04*
G04 #@! TF.SameCoordinates,564CEF90-820D-4554-998B-2DB19DA9D660*
G04*
G04*
G04 #@! TF.FilePolarity,Positive*
G04*
G01*
G75*
%ADD10C,0.2500*%
%ADD11C,0.1000*%
%ADD13C,0.2000*%
%ADD14C,0.2540*%
%ADD16C,0.1500*%
%ADD18C,0.1300*%
%ADD19C,0.1524*%
%ADD139C,0.1250*%
D10*
X99500Y340750D02*
G03*
X99500Y340750I-1250J0D01*
G01*
X343250Y249750D02*
G03*
X343250Y249750I-1250J0D01*
G01*
X72000Y272000D02*
G03*
X72000Y272000I-1250J0D01*
G01*
X504750Y154750D02*
G03*
X504750Y154750I-1250J0D01*
G01*
D11*
X155168Y329432D02*
X156168Y330432D01*
X158167D01*
X159167Y329432D01*
Y325434D01*
X158167Y324434D01*
X156168D01*
X155168Y325434D01*
X149170Y330432D02*
X151170Y329432D01*
X153169Y327433D01*
Y325434D01*
X152169Y324434D01*
X150170D01*
X149170Y325434D01*
Y326433D01*
X150170Y327433D01*
X153169D01*
X147171Y329432D02*
X146171Y330432D01*
X144172D01*
X143172Y329432D01*
Y325434D01*
X144172Y324434D01*
X146171D01*
X147171Y325434D01*
Y329432D01*
X141173D02*
X140173Y330432D01*
X138174D01*
X137174Y329432D01*
Y328433D01*
X138174Y327433D01*
X137174Y326433D01*
Y325434D01*
X138174Y324434D01*
X140173D01*
X141173Y325434D01*
Y326433D01*
X140173Y327433D01*
X141173Y328433D01*
Y329432D01*
X140173Y327433D02*
X138174D01*
X155170Y337256D02*
X156170Y338255D01*
X158169D01*
X159169Y337256D01*
Y333257D01*
X158169Y332257D01*
X156170D01*
X155170Y333257D01*
X149172Y338255D02*
X151172Y337256D01*
X153171Y335256D01*
Y333257D01*
X152171Y332257D01*
X150172D01*
X149172Y333257D01*
Y334257D01*
X150172Y335256D01*
X153171D01*
X147173Y337256D02*
X146173Y338255D01*
X144174D01*
X143174Y337256D01*
Y333257D01*
X144174Y332257D01*
X146173D01*
X147173Y333257D01*
Y337256D01*
X141175Y338255D02*
X137176D01*
Y337256D01*
X141175Y333257D01*
Y332257D01*
X150499Y204247D02*
X144501D01*
Y201248D01*
X145501Y200248D01*
X147500D01*
X148500Y201248D01*
Y204247D01*
Y202247D02*
X150499Y200248D01*
X144501Y194250D02*
X145501Y196249D01*
X147500Y198249D01*
X149499D01*
X150499Y197249D01*
Y195250D01*
X149499Y194250D01*
X148500D01*
X147500Y195250D01*
Y198249D01*
X150499Y192250D02*
Y190251D01*
Y191251D01*
X144501D01*
X145501Y192250D01*
Y187252D02*
X144501Y186252D01*
Y184253D01*
X145501Y183253D01*
X146500D01*
X147500Y184253D01*
Y185253D01*
Y184253D01*
X148500Y183253D01*
X149499D01*
X150499Y184253D01*
Y186252D01*
X149499Y187252D01*
X116749Y204497D02*
X110751D01*
Y201497D01*
X111751Y200498D01*
X113750D01*
X114750Y201497D01*
Y204497D01*
Y202497D02*
X116749Y200498D01*
X110751Y194500D02*
X111751Y196499D01*
X113750Y198498D01*
X115749D01*
X116749Y197499D01*
Y195499D01*
X115749Y194500D01*
X114750D01*
X113750Y195499D01*
Y198498D01*
X116749Y192500D02*
Y190501D01*
Y191501D01*
X110751D01*
X111751Y192500D01*
X116749Y183503D02*
Y187502D01*
X112750Y183503D01*
X111751D01*
X110751Y184503D01*
Y186502D01*
X111751Y187502D01*
X145251Y176498D02*
X144251Y177498D01*
Y179497D01*
X145251Y180497D01*
X149249D01*
X150249Y179497D01*
Y177498D01*
X149249Y176498D01*
X144251Y170500D02*
X145251Y172499D01*
X147250Y174499D01*
X149249D01*
X150249Y173499D01*
Y171500D01*
X149249Y170500D01*
X148250D01*
X147250Y171500D01*
Y174499D01*
X150249Y168500D02*
Y166501D01*
Y167501D01*
X144251D01*
X145251Y168500D01*
Y163502D02*
X144251Y162502D01*
Y160503D01*
X145251Y159503D01*
X146250D01*
X147250Y160503D01*
Y161503D01*
Y160503D01*
X148250Y159503D01*
X149249D01*
X150249Y160503D01*
Y162502D01*
X149249Y163502D01*
X111751Y176498D02*
X110751Y177498D01*
Y179497D01*
X111751Y180497D01*
X115749D01*
X116749Y179497D01*
Y177498D01*
X115749Y176498D01*
X110751Y170500D02*
X111751Y172499D01*
X113750Y174499D01*
X115749D01*
X116749Y173499D01*
Y171500D01*
X115749Y170500D01*
X114750D01*
X113750Y171500D01*
Y174499D01*
X116749Y168500D02*
Y166501D01*
Y167501D01*
X110751D01*
X111751Y168500D01*
X116749Y159503D02*
Y163502D01*
X112750Y159503D01*
X111751D01*
X110751Y160503D01*
Y162502D01*
X111751Y163502D01*
D13*
X87000Y321000D02*
G03*
X82500Y316500I0J-4500D01*
G01*
X150500D02*
G03*
X146000Y321000I-4500J0D01*
G01*
X166750Y353250D02*
Y361500D01*
X67250Y353250D02*
X90500D01*
X143500D02*
X166750D01*
X67250D02*
Y361500D01*
X87000Y392250D02*
X147000D01*
X164549Y338235D02*
X174549D01*
X164549Y325535D02*
X174549D01*
X164762Y328355D02*
X174762D01*
X164762Y315655D02*
X174762D01*
X119650Y170000D02*
Y180000D01*
X132350Y170000D02*
Y180000D01*
X301250Y239750D02*
X335250D01*
X301250Y277250D02*
X335250D01*
X284638Y255638D02*
Y270362D01*
X298362Y255638D02*
Y270362D01*
X20250Y235250D02*
Y294750D01*
X49300Y235250D02*
X60750D01*
X20250D02*
X20300D01*
X60750Y279000D02*
Y294750D01*
Y235250D02*
Y251000D01*
X49300Y294750D02*
X60750D01*
X20250D02*
X20300D01*
X409500Y285750D02*
Y295750D01*
X422500Y285750D02*
Y295750D01*
X425250Y285750D02*
Y295750D01*
X438250Y285750D02*
Y295750D01*
X128650Y170000D02*
Y180000D01*
X141350Y170000D02*
Y180000D01*
X352862Y246638D02*
Y261362D01*
X339138Y246638D02*
Y261362D01*
X535900Y136550D02*
Y197950D01*
Y136550D02*
X639100D01*
Y197950D01*
X535900D02*
X639100D01*
X151750Y292500D02*
Y302500D01*
X164750Y292500D02*
Y302500D01*
X165750Y283250D02*
Y293750D01*
X179250Y283250D02*
Y293750D01*
X82500Y269000D02*
Y316500D01*
X87000Y321000D02*
X105000D01*
X98500Y253000D02*
X105000D01*
X82500Y269000D02*
X98500Y253000D01*
X150500Y269000D02*
Y316500D01*
X128000Y321000D02*
X146000D01*
X128000Y253000D02*
X134500D01*
X150500Y269000D01*
X267700Y206500D02*
Y250000D01*
X213300Y206500D02*
Y250000D01*
X516806Y367992D02*
X515140Y366326D01*
Y362994D01*
X516806Y361327D01*
X518473D01*
X520139Y362994D01*
Y364660D01*
Y362994D01*
X521805Y361327D01*
X523471D01*
X525137Y362994D01*
Y366326D01*
X523471Y367992D01*
X515140Y351331D02*
X516806Y354663D01*
X520139Y357995D01*
X523471D01*
X525137Y356329D01*
Y352997D01*
X523471Y351331D01*
X521805D01*
X520139Y352997D01*
Y357995D01*
Y347998D02*
Y341334D01*
X515140Y331337D02*
X516806Y334669D01*
X520139Y338002D01*
X523471D01*
X525137Y336335D01*
Y333003D01*
X523471Y331337D01*
X521805D01*
X520139Y333003D01*
Y338002D01*
X516806Y328005D02*
X515140Y326339D01*
Y323006D01*
X516806Y321340D01*
X523471D01*
X525137Y323006D01*
Y326339D01*
X523471Y328005D01*
X516806D01*
X515140Y318008D02*
X521805D01*
X525137Y314676D01*
X521805Y311343D01*
X515140D01*
X227471Y361405D02*
Y373901D01*
X223306Y369736D01*
X219140Y373901D01*
Y361405D01*
X214975Y373901D02*
X210810D01*
X212892D01*
Y361405D01*
X214975D01*
X210810D01*
X196231Y371819D02*
X198314Y373901D01*
X202479D01*
X204562Y371819D01*
Y363488D01*
X202479Y361405D01*
X198314D01*
X196231Y363488D01*
X116500Y237998D02*
Y228002D01*
X111502Y233000D02*
X121498D01*
D14*
X20250Y17000D02*
Y145000D01*
X196550Y17000D02*
Y145000D01*
X163000Y150240D02*
X503000D01*
X163000Y388240D02*
X503000D01*
X163000Y150240D02*
Y388240D01*
X503000Y150240D02*
Y388240D01*
X19950Y297750D02*
Y392750D01*
X20000D02*
X58000D01*
X19950Y297750D02*
X57501D01*
X58000Y298249D01*
Y392750D01*
X518428Y205423D02*
Y195266D01*
X523642Y134909D02*
X513485D01*
X518564Y139988D02*
Y129831D01*
X232255Y142450D02*
Y134786D01*
Y138618D01*
X243751D01*
X232255Y125205D02*
Y129038D01*
X234171Y130954D01*
X241835D01*
X243751Y129038D01*
Y125205D01*
X241835Y123289D01*
X234171D01*
X232255Y125205D01*
X243751Y119457D02*
X232255D01*
Y113709D01*
X234171Y111793D01*
X238003D01*
X239919Y113709D01*
Y119457D01*
X236087Y107961D02*
Y106045D01*
X238003D01*
Y107961D01*
X236087D01*
X241835D02*
Y106045D01*
X243751D01*
Y107961D01*
X241835D01*
X232255Y81136D02*
Y84969D01*
X234171Y86884D01*
X241835D01*
X243751Y84969D01*
Y81136D01*
X241835Y79220D01*
X234171D01*
X232255Y81136D01*
Y75388D02*
X241835D01*
X243751Y73472D01*
Y69640D01*
X241835Y67724D01*
X232255D01*
Y63892D02*
Y56228D01*
Y60060D01*
X243751D01*
Y52396D02*
X232255D01*
Y46648D01*
X234171Y44731D01*
X238003D01*
X239919Y46648D01*
Y52396D01*
X232255Y40899D02*
X241835D01*
X243751Y38983D01*
Y35151D01*
X241835Y33235D01*
X232255D01*
Y29403D02*
Y21739D01*
Y25571D01*
X243751D01*
X208243Y142592D02*
X218240D01*
Y137593D01*
X216574Y135927D01*
X214908D01*
X213242Y137593D01*
Y142592D01*
Y137593D01*
X211576Y135927D01*
X209909D01*
X208243Y137593D01*
Y142592D01*
Y127597D02*
Y130929D01*
X209909Y132595D01*
X216574D01*
X218240Y130929D01*
Y127597D01*
X216574Y125930D01*
X209909D01*
X208243Y127597D01*
Y122598D02*
Y115934D01*
Y119266D01*
X218240D01*
X208243Y112601D02*
Y105937D01*
Y109269D01*
X218240D01*
X208243Y97606D02*
Y100938D01*
X209909Y102605D01*
X216574D01*
X218240Y100938D01*
Y97606D01*
X216574Y95940D01*
X209909D01*
X208243Y97606D01*
X218240Y92608D02*
X208243D01*
X211576Y89276D01*
X208243Y85943D01*
X218240D01*
X211576Y82611D02*
Y80945D01*
X213242D01*
Y82611D01*
X211576D01*
X216574D02*
Y80945D01*
X218240D01*
Y82611D01*
X216574D01*
X208243Y64284D02*
Y60951D01*
Y62618D01*
X218240D01*
Y64284D01*
Y60951D01*
Y55953D02*
X208243D01*
X218240Y49288D01*
X208243D01*
X218240Y45956D02*
X208243D01*
Y40958D01*
X209909Y39292D01*
X213242D01*
X214908Y40958D01*
Y45956D01*
X208243Y35959D02*
X216574D01*
X218240Y34293D01*
Y30961D01*
X216574Y29295D01*
X208243D01*
Y25963D02*
Y19298D01*
Y22630D01*
X218240D01*
D16*
X58165Y167248D02*
X61497D01*
X59831D01*
Y158918D01*
X61497Y157252D01*
X63163D01*
X64829Y158918D01*
X48168Y157252D02*
X54832D01*
X48168Y163916D01*
Y165582D01*
X49834Y167248D01*
X53166D01*
X54832Y165582D01*
X44836D02*
X43169Y167248D01*
X39837D01*
X38171Y165582D01*
Y158918D01*
X39837Y157252D01*
X43169D01*
X44836Y158918D01*
Y165582D01*
D18*
X155001Y284998D02*
X154001Y285998D01*
Y287997D01*
X155001Y288997D01*
X158999D01*
X159999Y287997D01*
Y285998D01*
X158999Y284998D01*
X159999Y279000D02*
Y282999D01*
X156000Y279000D01*
X155001D01*
X154001Y280000D01*
Y281999D01*
X155001Y282999D01*
X159999Y277000D02*
Y275001D01*
Y276001D01*
X154001D01*
X155001Y277000D01*
Y272002D02*
X154001Y271002D01*
Y269003D01*
X155001Y268003D01*
X158999D01*
X159999Y269003D01*
Y271002D01*
X158999Y272002D01*
X155001D01*
D19*
X541750Y191500D02*
Y346500D01*
Y191500D02*
X631750D01*
X541750Y346500D02*
X631750D01*
Y191500D02*
Y346500D01*
X176559Y278946D02*
X168941D01*
Y275137D01*
X170211Y273867D01*
X172750D01*
X174020Y275137D01*
Y278946D01*
Y276407D02*
X176559Y273867D01*
X170211Y271328D02*
X168941Y270059D01*
Y267520D01*
X170211Y266250D01*
X171480D01*
X172750Y267520D01*
Y268789D01*
Y267520D01*
X174020Y266250D01*
X175289D01*
X176559Y267520D01*
Y270059D01*
X175289Y271328D01*
X170211Y263711D02*
X168941Y262441D01*
Y259902D01*
X170211Y258633D01*
X175289D01*
X176559Y259902D01*
Y262441D01*
X175289Y263711D01*
X170211D01*
X176559Y256093D02*
Y253554D01*
Y254824D01*
X168941D01*
X170211Y256093D01*
X562887Y132809D02*
X565426D01*
X564157D01*
Y126461D01*
X565426Y125191D01*
X566696D01*
X567966Y126461D01*
X560348Y131539D02*
X559078Y132809D01*
X556539D01*
X555270Y131539D01*
Y130270D01*
X556539Y129000D01*
X557809D01*
X556539D01*
X555270Y127730D01*
Y126461D01*
X556539Y125191D01*
X559078D01*
X560348Y126461D01*
X552730Y131539D02*
X551461Y132809D01*
X548922D01*
X547652Y131539D01*
Y126461D01*
X548922Y125191D01*
X551461D01*
X552730Y126461D01*
Y131539D01*
X540034Y125191D02*
X545113D01*
X540034Y130270D01*
Y131539D01*
X541304Y132809D01*
X543843D01*
X545113Y131539D01*
X152413Y248128D02*
X153682Y249398D01*
X156221D01*
X157491Y248128D01*
Y243050D01*
X156221Y241780D01*
X153682D01*
X152413Y243050D01*
X149873Y248128D02*
X148604Y249398D01*
X146065D01*
X144795Y248128D01*
Y246858D01*
X146065Y245589D01*
X147334D01*
X146065D01*
X144795Y244319D01*
Y243050D01*
X146065Y241780D01*
X148604D01*
X149873Y243050D01*
X142256Y248128D02*
X140986Y249398D01*
X138447D01*
X137177Y248128D01*
Y246858D01*
X138447Y245589D01*
X139717D01*
X138447D01*
X137177Y244319D01*
Y243050D01*
X138447Y241780D01*
X140986D01*
X142256Y243050D01*
X130829Y241780D02*
Y249398D01*
X134638Y245589D01*
X129560D01*
X497684Y144817D02*
Y136486D01*
X496018Y134820D01*
X492686D01*
X491020Y136486D01*
Y144817D01*
X487687Y143151D02*
X486021Y144817D01*
X482689D01*
X481023Y143151D01*
Y141484D01*
X482689Y139818D01*
X484355D01*
X482689D01*
X481023Y138152D01*
Y136486D01*
X482689Y134820D01*
X486021D01*
X487687Y136486D01*
X477691Y143151D02*
X476024Y144817D01*
X472692D01*
X471026Y143151D01*
Y136486D01*
X472692Y134820D01*
X476024D01*
X477691Y136486D01*
Y143151D01*
X467694Y134820D02*
X464361D01*
X466028D01*
Y144817D01*
X467694Y143151D01*
X219863Y166441D02*
X214785D01*
Y170250D01*
X217324D01*
X214785D01*
Y174059D01*
X222402Y167711D02*
X223672Y166441D01*
X226211D01*
X227480Y167711D01*
Y168980D01*
X226211Y170250D01*
X224941D01*
X226211D01*
X227480Y171520D01*
Y172789D01*
X226211Y174059D01*
X223672D01*
X222402Y172789D01*
X230020Y167711D02*
X231289Y166441D01*
X233828D01*
X235098Y167711D01*
Y172789D01*
X233828Y174059D01*
X231289D01*
X230020Y172789D01*
Y167711D01*
X242715Y174059D02*
X237637D01*
X242715Y168980D01*
Y167711D01*
X241446Y166441D01*
X238907D01*
X237637Y167711D01*
X576367Y334309D02*
X578907D01*
X577637D01*
Y327961D01*
X578907Y326691D01*
X580176D01*
X581446Y327961D01*
X573828Y333039D02*
X572559Y334309D01*
X570020D01*
X568750Y333039D01*
Y331770D01*
X570020Y330500D01*
X571289D01*
X570020D01*
X568750Y329230D01*
Y327961D01*
X570020Y326691D01*
X572559D01*
X573828Y327961D01*
X566211Y333039D02*
X564941Y334309D01*
X562402D01*
X561133Y333039D01*
Y327961D01*
X562402Y326691D01*
X564941D01*
X566211Y327961D01*
Y333039D01*
X558593Y326691D02*
X556054D01*
X557324D01*
Y334309D01*
X558593Y333039D01*
X418289Y307113D02*
X419559Y305843D01*
Y303304D01*
X418289Y302034D01*
X413211D01*
X411941Y303304D01*
Y305843D01*
X413211Y307113D01*
X411941Y314730D02*
Y309652D01*
X417020Y314730D01*
X418289D01*
X419559Y313461D01*
Y310922D01*
X418289Y309652D01*
Y317270D02*
X419559Y318539D01*
Y321078D01*
X418289Y322348D01*
X413211D01*
X411941Y321078D01*
Y318539D01*
X413211Y317270D01*
X418289D01*
X411941Y329966D02*
Y324887D01*
X417020Y329966D01*
X418289D01*
X419559Y328696D01*
Y326157D01*
X418289Y324887D01*
X435039Y307132D02*
X436309Y305863D01*
Y303324D01*
X435039Y302054D01*
X429961D01*
X428691Y303324D01*
Y305863D01*
X429961Y307132D01*
X428691Y314750D02*
Y309672D01*
X433770Y314750D01*
X435039D01*
X436309Y313480D01*
Y310941D01*
X435039Y309672D01*
Y317289D02*
X436309Y318559D01*
Y321098D01*
X435039Y322368D01*
X429961D01*
X428691Y321098D01*
Y318559D01*
X429961Y317289D01*
X435039D01*
X428691Y324907D02*
Y327446D01*
Y326176D01*
X436309D01*
X435039Y324907D01*
X62677Y344362D02*
Y346901D01*
Y345631D01*
X69025D01*
X70294Y346901D01*
Y348170D01*
X69025Y349440D01*
X70294Y341822D02*
Y339283D01*
Y340553D01*
X62677D01*
X63946Y341822D01*
X70294Y335474D02*
Y332935D01*
Y334205D01*
X62677D01*
X63946Y335474D01*
D139*
X324579Y285501D02*
Y292499D01*
X321080D01*
X319914Y291333D01*
Y289000D01*
X321080Y287834D01*
X324579D01*
X322247D02*
X319914Y285501D01*
X312916Y292499D02*
X315249Y291333D01*
X317582Y289000D01*
Y286667D01*
X316415Y285501D01*
X314083D01*
X312916Y286667D01*
Y287834D01*
X314083Y289000D01*
X317582D01*
X305919Y285501D02*
X310584D01*
X305919Y290166D01*
Y291333D01*
X307085Y292499D01*
X309417D01*
X310584Y291333D01*
X303586D02*
X302420Y292499D01*
X300087D01*
X298921Y291333D01*
Y286667D01*
X300087Y285501D01*
X302420D01*
X303586Y286667D01*
Y291333D01*
X289167Y247248D02*
X288001Y248414D01*
Y250747D01*
X289167Y251913D01*
X293832D01*
X294999Y250747D01*
Y248414D01*
X293832Y247248D01*
X288001Y240250D02*
X289167Y242583D01*
X291500Y244915D01*
X293832D01*
X294999Y243749D01*
Y241416D01*
X293832Y240250D01*
X292666D01*
X291500Y241416D01*
Y244915D01*
X294999Y233252D02*
Y237917D01*
X290334Y233252D01*
X289167D01*
X288001Y234419D01*
Y236751D01*
X289167Y237917D01*
X294999Y230920D02*
Y228587D01*
Y229753D01*
X288001D01*
X289167Y230920D01*
X343667Y238164D02*
X342501Y239330D01*
Y241663D01*
X343667Y242829D01*
X348333D01*
X349499Y241663D01*
Y239330D01*
X348333Y238164D01*
X342501Y231166D02*
X343667Y233499D01*
X346000Y235832D01*
X348333D01*
X349499Y234665D01*
Y232333D01*
X348333Y231166D01*
X347166D01*
X346000Y232333D01*
Y235832D01*
X349499Y224169D02*
Y228834D01*
X344834Y224169D01*
X343667D01*
X342501Y225335D01*
Y227667D01*
X343667Y228834D01*
Y221836D02*
X342501Y220670D01*
Y218337D01*
X343667Y217171D01*
X348333D01*
X349499Y218337D01*
Y220670D01*
X348333Y221836D01*
X343667D01*
X67927Y262734D02*
Y265067D01*
Y263900D01*
X73758D01*
X74925Y265067D01*
Y266233D01*
X73758Y267399D01*
X67927Y255736D02*
X69093Y258069D01*
X71426Y260401D01*
X73758D01*
X74925Y259235D01*
Y256903D01*
X73758Y255736D01*
X72592D01*
X71426Y256903D01*
Y260401D01*
X69093Y253404D02*
X67927Y252237D01*
Y249905D01*
X69093Y248738D01*
X73758D01*
X74925Y249905D01*
Y252237D01*
X73758Y253404D01*
X69093D01*
X74925Y246406D02*
Y244073D01*
Y245240D01*
X67927D01*
X69093Y246406D01*
X121915Y343749D02*
X124248D01*
X123082D01*
Y337917D01*
X124248Y336751D01*
X125414D01*
X126580Y337917D01*
X114917Y336751D02*
X119583D01*
X114917Y341416D01*
Y342583D01*
X116084Y343749D01*
X118416D01*
X119583Y342583D01*
X107920Y336751D02*
X112585D01*
X107920Y341416D01*
Y342583D01*
X109086Y343749D01*
X111419D01*
X112585Y342583D01*
X329329Y234749D02*
Y228917D01*
X328163Y227751D01*
X325830D01*
X324664Y228917D01*
Y234749D01*
X317666D02*
X319999Y233583D01*
X322332Y231250D01*
Y228917D01*
X321165Y227751D01*
X318833D01*
X317666Y228917D01*
Y230084D01*
X318833Y231250D01*
X322332D01*
X315334Y233583D02*
X314167Y234749D01*
X311835D01*
X310669Y233583D01*
Y228917D01*
X311835Y227751D01*
X314167D01*
X315334Y228917D01*
Y233583D01*
X303671Y227751D02*
X308336D01*
X303671Y232416D01*
Y233583D01*
X304837Y234749D01*
X307170D01*
X308336Y233583D01*
M02*
