G04*
G04 #@! TF.GenerationSoftware,Altium Limited,Altium Designer,24.1.2 (44)*
G04*
G04 Layer_Physical_Order=4*
G04 Layer_Color=16711680*
%FSLAX44Y44*%
%MOMM*%
G71*
G04*
G04 #@! TF.SameCoordinates,564CEF90-820D-4554-998B-2DB19DA9D660*
G04*
G04*
G04 #@! TF.FilePolarity,Positive*
G04*
G01*
G75*
%ADD12C,0.5000*%
%ADD14C,0.2540*%
%ADD29R,0.5000X0.4000*%
%ADD32R,0.5000X0.5500*%
%ADD33R,0.5200X0.5200*%
%ADD34R,0.5200X0.5200*%
%ADD44R,5.6000X2.3000*%
%ADD66R,0.5725X0.6153*%
%ADD72R,0.4500X0.4500*%
%ADD92R,1.3900X1.3900*%
%ADD93C,1.3900*%
%ADD98R,1.8500X1.8500*%
%ADD99C,1.8500*%
%ADD100C,1.6000*%
%ADD107C,0.5000*%
%ADD108C,0.1800*%
%ADD109C,0.1700*%
%ADD113C,1.0000*%
%ADD116C,0.2286*%
%ADD119O,1.8000X0.8000*%
%ADD120C,0.7000*%
%ADD121C,2.1000*%
%ADD122C,2.4000*%
%ADD123R,8.0000X8.0000*%
%ADD124C,1.5000*%
%ADD125C,4.5000*%
%ADD126R,3.2000X3.2000*%
%ADD127C,3.2000*%
%ADD128C,1.8000*%
%ADD129C,1.2700*%
%ADD130R,2.1000X3.0000*%
%ADD131R,0.8000X1.3000*%
%ADD132R,1.3000X1.0500*%
%ADD133R,2.1500X1.3000*%
%ADD134R,1.2000X0.8000*%
%ADD135R,0.6000X0.5000*%
%ADD136R,1.6000X3.5000*%
%ADD137C,0.7500*%
G36*
X59710Y395024D02*
Y381520D01*
X72750D01*
X85790D01*
Y395024D01*
X148210D01*
Y381520D01*
X161250D01*
Y380250D01*
X162520D01*
Y362710D01*
X174290D01*
Y376126D01*
X181006D01*
Y385616D01*
X182276D01*
Y386886D01*
X191766D01*
Y395024D01*
X199741D01*
X199909Y393754D01*
X199005Y393512D01*
X197073Y392397D01*
X195495Y390819D01*
X194380Y388886D01*
X193802Y386731D01*
Y384500D01*
X194380Y382345D01*
X195495Y380412D01*
X197073Y378835D01*
X199005Y377719D01*
X201160Y377142D01*
X203392D01*
X205547Y377719D01*
X207479Y378835D01*
X209057Y380412D01*
X210173Y382345D01*
X210750Y384500D01*
Y386731D01*
X210173Y388886D01*
X209057Y390819D01*
X207479Y392397D01*
X205547Y393512D01*
X204643Y393754D01*
X204811Y395024D01*
X217052D01*
X217393Y393754D01*
X216449Y393209D01*
X214682Y391443D01*
X213433Y389279D01*
X212792Y386886D01*
X231761D01*
X231119Y389279D01*
X229870Y391443D01*
X228103Y393209D01*
X227160Y393754D01*
X227500Y395024D01*
X239741D01*
X239909Y393754D01*
X239005Y393512D01*
X237073Y392397D01*
X235495Y390819D01*
X234380Y388886D01*
X233802Y386731D01*
Y384500D01*
X234380Y382345D01*
X235495Y380412D01*
X237073Y378835D01*
X239005Y377719D01*
X241160Y377142D01*
X243392D01*
X245547Y377719D01*
X247479Y378835D01*
X249057Y380412D01*
X250173Y382345D01*
X250750Y384500D01*
Y386731D01*
X250173Y388886D01*
X249057Y390819D01*
X247479Y392397D01*
X245547Y393512D01*
X244643Y393754D01*
X244811Y395024D01*
X580652Y395024D01*
X580777Y393754D01*
X577492Y393101D01*
X573120Y391290D01*
X569186Y388661D01*
X565839Y385314D01*
X563210Y381380D01*
X561399Y377007D01*
X560476Y372366D01*
Y367634D01*
X561399Y362993D01*
X563210Y358620D01*
X565839Y354686D01*
X569186Y351339D01*
X573120Y348710D01*
X577492Y346899D01*
X582134Y345976D01*
X586866D01*
X591507Y346899D01*
X595880Y348710D01*
X599814Y351339D01*
X603161Y354686D01*
X605790Y358620D01*
X607601Y362993D01*
X608524Y367634D01*
Y372366D01*
X607601Y377007D01*
X605790Y381380D01*
X603161Y385314D01*
X599814Y388661D01*
X595880Y391290D01*
X591507Y393101D01*
X588223Y393754D01*
X588348Y395024D01*
X603875D01*
X604537Y395024D01*
X605834Y394766D01*
X607056Y394260D01*
X608156Y393525D01*
X609092Y392589D01*
X609827Y391489D01*
X610333Y390267D01*
X610487Y389492D01*
X610591Y388309D01*
Y388308D01*
X610591D01*
X610591Y388308D01*
Y327243D01*
X609321Y327076D01*
X609057Y328062D01*
X607671Y330462D01*
X605712Y332421D01*
X603312Y333807D01*
X600635Y334524D01*
X597864D01*
X595188Y333807D01*
X592788Y332421D01*
X590829Y330462D01*
X589443Y328062D01*
X588726Y325386D01*
Y322615D01*
X589443Y319938D01*
X590829Y317538D01*
X592788Y315579D01*
X595188Y314193D01*
X597864Y313476D01*
X600635D01*
X603312Y314193D01*
X605712Y315579D01*
X607671Y317538D01*
X609057Y319938D01*
X609321Y320924D01*
X610591Y320757D01*
X610591Y217243D01*
X609321Y217076D01*
X609057Y218062D01*
X607671Y220462D01*
X605712Y222421D01*
X603312Y223807D01*
X600635Y224524D01*
X597864D01*
X595188Y223807D01*
X592788Y222421D01*
X590829Y220462D01*
X589443Y218062D01*
X588726Y215385D01*
Y212614D01*
X589443Y209938D01*
X590829Y207538D01*
X592788Y205579D01*
X595188Y204193D01*
X597864Y203476D01*
X600635D01*
X603312Y204193D01*
X605712Y205579D01*
X607671Y207538D01*
X609057Y209938D01*
X609321Y210924D01*
X610591Y210757D01*
X610591Y12602D01*
X610617Y11882D01*
X610386Y10458D01*
X609882Y9107D01*
X609124Y7880D01*
X608142Y6824D01*
X606972Y5981D01*
X605660Y5382D01*
X604747Y5166D01*
X603536Y5024D01*
X603536Y5024D01*
X603535Y5024D01*
X588591D01*
X588466Y6294D01*
X591507Y6899D01*
X595880Y8710D01*
X599814Y11339D01*
X603161Y14686D01*
X605790Y18620D01*
X607601Y22992D01*
X608524Y27634D01*
Y32366D01*
X607601Y37008D01*
X605790Y41380D01*
X603161Y45314D01*
X599814Y48661D01*
X595880Y51290D01*
X591507Y53101D01*
X586866Y54024D01*
X582134D01*
X577492Y53101D01*
X573120Y51290D01*
X569186Y48661D01*
X565839Y45314D01*
X563210Y41380D01*
X561399Y37008D01*
X560476Y32366D01*
Y27634D01*
X561399Y22992D01*
X563210Y18620D01*
X565839Y14686D01*
X569186Y11339D01*
X573120Y8710D01*
X577492Y6899D01*
X580534Y6294D01*
X580409Y5024D01*
X25462Y5024D01*
X24347Y5067D01*
X22319Y6001D01*
X20803Y7639D01*
X20029Y9733D01*
X20073Y10849D01*
X20330Y192255D01*
X21600Y192507D01*
X23210Y188620D01*
X25839Y184686D01*
X29186Y181339D01*
X33120Y178710D01*
X37492Y176899D01*
X42134Y175976D01*
X46866D01*
X51508Y176899D01*
X55880Y178710D01*
X59814Y181339D01*
X63161Y184686D01*
X65790Y188620D01*
X67601Y192992D01*
X68524Y197634D01*
Y202366D01*
X67601Y207008D01*
X65790Y211380D01*
X63161Y215314D01*
X59814Y218661D01*
X55880Y221290D01*
X51508Y223101D01*
X46866Y224024D01*
X42134D01*
X37492Y223101D01*
X33120Y221290D01*
X29186Y218661D01*
X25839Y215314D01*
X23210Y211380D01*
X21622Y207544D01*
X20352Y207798D01*
X20384Y230362D01*
X21510Y230710D01*
Y230710D01*
X33530D01*
Y239750D01*
X36070D01*
Y230710D01*
X43900D01*
Y229250D01*
X44384Y228084D01*
X45550Y227600D01*
X60177D01*
X60703Y226330D01*
X60227Y225855D01*
X59571Y224270D01*
X69429D01*
X68773Y225855D01*
X67355Y227273D01*
X66796Y227504D01*
X66156Y229144D01*
X66200Y229250D01*
Y254647D01*
X74378D01*
X80981Y248044D01*
X80455Y246774D01*
X80450D01*
X78971Y246161D01*
X77875Y245066D01*
X76779Y246161D01*
X75300Y246774D01*
X73700D01*
X72221Y246161D01*
X71089Y245029D01*
X70476Y243550D01*
Y241950D01*
X71089Y240471D01*
X71651Y239908D01*
Y194396D01*
X71651Y194396D01*
X71868Y193306D01*
X72486Y192381D01*
X183421Y81447D01*
X184345Y80829D01*
X185435Y80612D01*
X185435Y80612D01*
X434211D01*
X434211Y80612D01*
X435301Y80829D01*
X436225Y81447D01*
X449255Y94476D01*
X450050D01*
X451529Y95089D01*
X452661Y96221D01*
X453274Y97700D01*
Y99300D01*
X452661Y100779D01*
X451529Y101911D01*
X450050Y102524D01*
X448450D01*
X446971Y101911D01*
X445839Y100779D01*
X445226Y99300D01*
Y98505D01*
X433031Y86310D01*
X368498D01*
X368012Y87483D01*
X430764Y150236D01*
X430764Y150236D01*
X431382Y151160D01*
X431599Y152250D01*
X431599Y152250D01*
Y166070D01*
X445014Y179485D01*
X445014Y179486D01*
X445632Y180410D01*
X445849Y181500D01*
X445849Y181500D01*
Y189658D01*
X446411Y190221D01*
X447024Y191700D01*
Y193300D01*
X446411Y194779D01*
X445279Y195911D01*
X443800Y196524D01*
X442200D01*
X440721Y195911D01*
X439589Y194779D01*
X438976Y193300D01*
Y191700D01*
X439589Y190221D01*
X440151Y189658D01*
Y182680D01*
X438369Y180898D01*
X437099Y181423D01*
Y224070D01*
X455764Y242736D01*
X455764Y242736D01*
X456382Y243660D01*
X456599Y244750D01*
Y292070D01*
X501264Y336736D01*
X501264Y336736D01*
X501882Y337660D01*
X502099Y338750D01*
X502099Y338750D01*
Y365658D01*
X502661Y366221D01*
X503274Y367700D01*
Y369300D01*
X502661Y370779D01*
X501885Y371556D01*
X501882Y371570D01*
X501264Y372495D01*
X500340Y373112D01*
X499250Y373329D01*
X498160Y373112D01*
X497236Y372495D01*
X496618Y371570D01*
X496615Y371556D01*
X495839Y370779D01*
X495226Y369300D01*
Y367700D01*
X495839Y366221D01*
X496401Y365658D01*
Y339930D01*
X451736Y295264D01*
X451118Y294340D01*
X450901Y293250D01*
X450901Y293250D01*
Y245930D01*
X432236Y227264D01*
X431618Y226340D01*
X431401Y225250D01*
X431401Y225250D01*
Y180930D01*
X423370Y172899D01*
X422575D01*
X421096Y172286D01*
X419964Y171154D01*
X419351Y169675D01*
Y168075D01*
X419964Y166596D01*
X421096Y165464D01*
X422575Y164851D01*
X424175D01*
X424631Y165040D01*
X425901Y164191D01*
Y153430D01*
X375522Y103051D01*
X374349Y103537D01*
Y186000D01*
X374349Y186000D01*
X374132Y187090D01*
X373514Y188014D01*
X373514Y188014D01*
X322514Y239014D01*
X321590Y239632D01*
X320500Y239849D01*
X320500Y239849D01*
X308523D01*
X308266Y240106D01*
X306787Y240719D01*
X306856Y241960D01*
X315790D01*
Y248480D01*
X306750D01*
X297710D01*
Y241960D01*
X305116D01*
X305186Y240719D01*
X303707Y240106D01*
X302575Y238974D01*
X301962Y237495D01*
Y235894D01*
X302575Y234415D01*
X303707Y233283D01*
X305186Y232671D01*
X306787D01*
X308266Y233283D01*
X309133Y234151D01*
X319320D01*
X368651Y184820D01*
Y102918D01*
X361332Y95599D01*
X244586D01*
X244060Y96869D01*
X244661Y97471D01*
X245274Y98950D01*
Y100550D01*
X244661Y102029D01*
X243529Y103161D01*
X242050Y103774D01*
X240450D01*
X238971Y103161D01*
X237839Y102029D01*
X237226Y100550D01*
Y98950D01*
X237839Y97471D01*
X238440Y96869D01*
X237914Y95599D01*
X191503D01*
X122415Y164687D01*
X122901Y165860D01*
X124730D01*
Y169730D01*
X120860D01*
Y167901D01*
X119687Y167415D01*
X100099Y187003D01*
Y189408D01*
X100661Y189971D01*
X101274Y191450D01*
Y193050D01*
X100661Y194529D01*
X99529Y195661D01*
X98050Y196274D01*
X96450D01*
X94971Y195661D01*
X93839Y194529D01*
X93226Y193050D01*
Y191450D01*
X93839Y189971D01*
X94401Y189408D01*
Y187516D01*
X93228Y187029D01*
X84099Y196159D01*
Y231603D01*
X85369Y232129D01*
X85770Y231727D01*
X87355Y231071D01*
Y236000D01*
X89895D01*
Y231071D01*
X91480Y231727D01*
X92898Y233145D01*
X93245Y233984D01*
X94743Y234282D01*
X100177Y228849D01*
X101508Y227959D01*
X103078Y227647D01*
X122750D01*
X123146Y227726D01*
X123550D01*
X123924Y227881D01*
X124320Y227959D01*
X124656Y228184D01*
X125029Y228339D01*
X125315Y228624D01*
X125651Y228849D01*
X125876Y229185D01*
X126161Y229471D01*
X126316Y229844D01*
X126540Y230180D01*
X126619Y230576D01*
X126774Y230950D01*
Y231354D01*
X126853Y231750D01*
X126774Y232146D01*
Y232338D01*
X127354Y232935D01*
X127852Y233266D01*
X127950Y233226D01*
X129550D01*
X130650Y233681D01*
X131920Y233070D01*
Y213250D01*
X132144Y211547D01*
X132801Y209960D01*
X133847Y208597D01*
X174597Y167847D01*
X175960Y166801D01*
X177547Y166144D01*
X179250Y165920D01*
X211642D01*
X213345Y166144D01*
X214932Y166801D01*
X216295Y167847D01*
X222153Y173705D01*
X223199Y175068D01*
X223856Y176655D01*
X224063Y178226D01*
X270024D01*
Y204274D01*
X210976D01*
Y185177D01*
X210920Y184750D01*
Y181084D01*
X208916Y179080D01*
X200741D01*
X200401Y180350D01*
X202228Y181405D01*
X204935Y184112D01*
X206849Y187428D01*
X207840Y191126D01*
Y191770D01*
X193300D01*
X178760D01*
Y191126D01*
X179751Y187428D01*
X181665Y184112D01*
X184372Y181405D01*
X186199Y180350D01*
X185859Y179080D01*
X181976D01*
X145080Y215976D01*
Y232746D01*
X146350Y233272D01*
X147395Y232227D01*
X148980Y231571D01*
Y236500D01*
Y241429D01*
X147395Y240773D01*
X146350Y239728D01*
X145080Y240254D01*
Y240642D01*
X144856Y242345D01*
X144199Y243932D01*
X143153Y245295D01*
X137295Y251153D01*
X135932Y252199D01*
X134345Y252856D01*
X132642Y253080D01*
X126024D01*
Y273962D01*
X127197Y274448D01*
X153518Y248127D01*
X155263Y246961D01*
X157321Y246552D01*
X159687D01*
X160027Y245282D01*
X159274Y244847D01*
X157808Y243381D01*
X156771Y241586D01*
X156235Y239583D01*
Y238541D01*
X154965Y238288D01*
X154523Y239355D01*
X153105Y240773D01*
X151520Y241429D01*
Y236500D01*
Y231571D01*
X153105Y232227D01*
X154523Y233645D01*
X155290Y235497D01*
Y236128D01*
X156560Y236295D01*
X156771Y235507D01*
X157808Y233712D01*
X159274Y232246D01*
X161069Y231209D01*
X163072Y230672D01*
X165145D01*
X167148Y231209D01*
X168943Y232246D01*
X169699Y233002D01*
X170969Y232475D01*
Y209993D01*
X171379Y207936D01*
X172544Y206191D01*
X179872Y198863D01*
X179751Y198652D01*
X178760Y194954D01*
Y194310D01*
X192030D01*
Y207580D01*
X191386D01*
X187688Y206589D01*
X187477Y206467D01*
X181724Y212221D01*
Y222823D01*
X182994Y223005D01*
X185293Y220705D01*
X188267Y218989D01*
X191583Y218100D01*
X195017D01*
X198333Y218989D01*
X201307Y220705D01*
X203735Y223133D01*
X205451Y226107D01*
X206340Y229423D01*
Y232857D01*
X205451Y236173D01*
X203735Y239147D01*
X201307Y241575D01*
X198333Y243291D01*
X196149Y243877D01*
Y244950D01*
X196149Y244950D01*
X195932Y246040D01*
X195314Y246964D01*
X195314Y246964D01*
X180514Y261764D01*
X179590Y262382D01*
X178500Y262599D01*
X178500Y262599D01*
X161180D01*
X135543Y288235D01*
X136069Y289505D01*
X137050D01*
X138529Y290118D01*
X139092Y290681D01*
X154226D01*
Y289976D01*
X162274D01*
Y296960D01*
X163290D01*
Y300230D01*
X158250D01*
X153210D01*
Y296960D01*
X152181Y296378D01*
X139092D01*
X138529Y296941D01*
X137050Y297553D01*
X135450D01*
X133971Y296941D01*
X132839Y295809D01*
X132366Y294667D01*
X131332Y294155D01*
X130956Y294081D01*
X130849Y294153D01*
Y297716D01*
X130632Y298806D01*
X130014Y299730D01*
X130014Y299730D01*
X128526Y301218D01*
X127602Y301836D01*
X127599Y301837D01*
Y332000D01*
X127382Y333090D01*
X127040Y333602D01*
Y335040D01*
X105960D01*
Y332295D01*
X105901Y332000D01*
X105960Y331705D01*
Y321080D01*
X97476D01*
X84605Y333951D01*
X85324Y335028D01*
X85450Y334976D01*
X87050D01*
X88529Y335589D01*
X89661Y336721D01*
X90274Y338200D01*
Y339800D01*
X89661Y341279D01*
X88529Y342411D01*
X87050Y343024D01*
X85450D01*
X83971Y342411D01*
X82839Y341279D01*
X82226Y339800D01*
Y338200D01*
X82278Y338074D01*
X81201Y337355D01*
X51224Y367332D01*
X51608Y370250D01*
X51178Y373513D01*
X49919Y376554D01*
X47915Y379165D01*
X45304Y381169D01*
X42263Y382428D01*
X39000Y382858D01*
X35737Y382428D01*
X32696Y381169D01*
X30085Y379165D01*
X28081Y376554D01*
X26822Y373513D01*
X26392Y370250D01*
X26822Y366987D01*
X28081Y363946D01*
X30085Y361335D01*
X32696Y359331D01*
X35737Y358072D01*
X39000Y357642D01*
X41918Y358026D01*
X90097Y309847D01*
X91460Y308801D01*
X93047Y308144D01*
X94750Y307920D01*
X105960D01*
Y294960D01*
X115170D01*
Y288703D01*
X115579Y286645D01*
X116745Y284900D01*
X122448Y279197D01*
X121962Y278024D01*
X116282D01*
X114423Y279883D01*
X113060Y280929D01*
X111473Y281586D01*
X109770Y281810D01*
X96854D01*
X94850Y283813D01*
Y295980D01*
X94626Y297683D01*
X93969Y299270D01*
X92923Y300633D01*
X48024Y345532D01*
Y346438D01*
X47409Y348733D01*
X46221Y350791D01*
X44541Y352471D01*
X42483Y353659D01*
X40188Y354274D01*
X37812D01*
X35517Y353659D01*
X33459Y352471D01*
X31779Y350791D01*
X30591Y348733D01*
X29976Y346438D01*
Y344062D01*
X30591Y341767D01*
X31779Y339709D01*
X33459Y338029D01*
X35517Y336841D01*
X37812Y336226D01*
X38718D01*
X81690Y293254D01*
Y281088D01*
X81914Y279385D01*
X82571Y277798D01*
X83617Y276435D01*
X89475Y270577D01*
X90838Y269531D01*
X92425Y268874D01*
X94128Y268650D01*
X99887D01*
X100413Y267380D01*
X99826Y266793D01*
X99213Y265314D01*
Y263713D01*
X99826Y262234D01*
X100958Y261102D01*
X102437Y260490D01*
X104038D01*
X105517Y261102D01*
X105706Y261291D01*
X106976Y260765D01*
Y239976D01*
X119072D01*
X119500Y239920D01*
X124126D01*
X124974Y238650D01*
X124726Y238050D01*
Y236681D01*
X124375Y236217D01*
X123648Y235734D01*
X123550Y235774D01*
X123146D01*
X122750Y235853D01*
X104777D01*
X95139Y245492D01*
X95137Y245562D01*
X95370Y246328D01*
X95606Y246820D01*
X95881Y246934D01*
X96277Y247013D01*
X96613Y247237D01*
X96987Y247392D01*
X97272Y247678D01*
X97608Y247902D01*
X97833Y248238D01*
X98118Y248524D01*
X98273Y248897D01*
X98498Y249233D01*
X98576Y249630D01*
X98731Y250003D01*
Y250407D01*
X98810Y250803D01*
X98731Y251200D01*
Y251604D01*
X98576Y251977D01*
X98498Y252374D01*
X98273Y252710D01*
X98118Y253083D01*
X97833Y253369D01*
X97608Y253704D01*
X77162Y274151D01*
X75831Y275040D01*
X74261Y275353D01*
X66200D01*
Y300750D01*
X65716Y301916D01*
X64550Y302400D01*
X45550D01*
X44384Y301916D01*
X43900Y300750D01*
Y299290D01*
X36070D01*
Y290250D01*
X33530D01*
Y299290D01*
X21752D01*
X20483Y299876D01*
X20609Y388948D01*
Y390156D01*
X21534Y392389D01*
X23243Y394099D01*
X25476Y395024D01*
X26685D01*
X26686Y395024D01*
X59710D01*
D02*
G37*
%LPC*%
G36*
X335070Y390825D02*
X333469D01*
X331990Y390212D01*
X330858Y389080D01*
X330246Y387601D01*
Y386001D01*
X330858Y384521D01*
X331990Y383390D01*
X333469Y382777D01*
X335070D01*
X336549Y383390D01*
X337681Y384521D01*
X338294Y386001D01*
Y387601D01*
X337681Y389080D01*
X336549Y390212D01*
X335070Y390825D01*
D02*
G37*
G36*
X270800Y390524D02*
X269200D01*
X267721Y389911D01*
X266589Y388779D01*
X265976Y387300D01*
Y385700D01*
X266589Y384221D01*
X267721Y383089D01*
X269200Y382476D01*
X270800D01*
X272279Y383089D01*
X273411Y384221D01*
X274024Y385700D01*
Y387300D01*
X273411Y388779D01*
X272279Y389911D01*
X270800Y390524D01*
D02*
G37*
G36*
X231761Y384346D02*
X223546D01*
Y376131D01*
X225939Y376772D01*
X228103Y378022D01*
X229870Y379789D01*
X231119Y381953D01*
X231761Y384346D01*
D02*
G37*
G36*
X221006D02*
X212792D01*
X213433Y381953D01*
X214682Y379789D01*
X216449Y378022D01*
X218613Y376772D01*
X221006Y376131D01*
Y384346D01*
D02*
G37*
G36*
X191766D02*
X183546D01*
Y376126D01*
X191766D01*
Y384346D01*
D02*
G37*
G36*
X516050Y382024D02*
X514450D01*
X512971Y381411D01*
X511839Y380279D01*
X511226Y378800D01*
Y377200D01*
X511839Y375721D01*
X512971Y374589D01*
X514450Y373976D01*
X516050D01*
X517529Y374589D01*
X518661Y375721D01*
X519274Y377200D01*
Y378800D01*
X518661Y380279D01*
X517529Y381411D01*
X516050Y382024D01*
D02*
G37*
G36*
X432550Y381774D02*
X430950D01*
X429471Y381161D01*
X428339Y380029D01*
X427726Y378550D01*
Y376950D01*
X428339Y375471D01*
X429471Y374339D01*
X430950Y373726D01*
X432550D01*
X434029Y374339D01*
X435161Y375471D01*
X435774Y376950D01*
Y378550D01*
X435161Y380029D01*
X434029Y381161D01*
X432550Y381774D01*
D02*
G37*
G36*
X413550Y372774D02*
X411950D01*
X410471Y372161D01*
X409908Y371599D01*
X360582D01*
X360582Y371599D01*
X359491Y371382D01*
X358567Y370764D01*
X358567Y370764D01*
X340304Y352501D01*
X339686Y351577D01*
X339469Y350486D01*
X339469Y350486D01*
Y299523D01*
X339469Y299523D01*
X339686Y298433D01*
X340304Y297509D01*
X354401Y283411D01*
Y268592D01*
X353839Y268029D01*
X353226Y266550D01*
Y264950D01*
X353839Y263471D01*
X354971Y262339D01*
X356450Y261726D01*
X358050D01*
X359529Y262339D01*
X360661Y263471D01*
X361274Y264950D01*
Y266550D01*
X360661Y268029D01*
X360099Y268592D01*
Y284591D01*
X359882Y285681D01*
X359264Y286605D01*
X359264Y286605D01*
X345167Y300703D01*
Y336846D01*
X346437Y337373D01*
X346971Y336839D01*
X348450Y336226D01*
X349245D01*
X370767Y314704D01*
X370767Y314704D01*
X371691Y314087D01*
X372781Y313870D01*
X372781Y313870D01*
X388351D01*
X397901Y304320D01*
Y293092D01*
X397339Y292529D01*
X396726Y291050D01*
Y289450D01*
X397339Y287971D01*
X398471Y286839D01*
X399950Y286226D01*
X401550D01*
X403029Y286839D01*
X404161Y287971D01*
X404774Y289450D01*
Y290838D01*
X405354Y291435D01*
X405852Y291766D01*
X405950Y291726D01*
X407550D01*
X408117Y291961D01*
X408416Y291901D01*
X409943D01*
X410960Y291290D01*
Y288020D01*
X416000D01*
X421040D01*
Y291290D01*
X422057Y291901D01*
X425693D01*
X426710Y291290D01*
Y288020D01*
X431750D01*
X436790D01*
Y291290D01*
X435774D01*
Y298274D01*
X427726D01*
Y297599D01*
X420024D01*
Y298274D01*
X411976D01*
Y297599D01*
X410340D01*
X410161Y298029D01*
X409029Y299161D01*
X407550Y299774D01*
X405950D01*
X404869Y299326D01*
X403599Y299949D01*
Y305500D01*
X403599Y305500D01*
X403382Y306590D01*
X402764Y307514D01*
X402764Y307514D01*
X391546Y318733D01*
X390621Y319351D01*
X389531Y319568D01*
X389531Y319568D01*
X373961D01*
X353274Y340255D01*
Y341050D01*
X352661Y342529D01*
X351529Y343661D01*
X350050Y344274D01*
X348450D01*
X346971Y343661D01*
X346437Y343128D01*
X345167Y343654D01*
Y349306D01*
X361762Y365901D01*
X409908D01*
X410471Y365339D01*
X411950Y364726D01*
X413550D01*
X415029Y365339D01*
X416161Y366471D01*
X416774Y367950D01*
Y369550D01*
X416161Y371029D01*
X415029Y372161D01*
X413550Y372774D01*
D02*
G37*
G36*
X159980Y378980D02*
X148210D01*
Y362710D01*
X159980D01*
Y378980D01*
D02*
G37*
G36*
X71480D02*
X59710D01*
Y362710D01*
X71480D01*
Y378980D01*
D02*
G37*
G36*
X327300Y360024D02*
X325700D01*
X324221Y359411D01*
X323533Y358724D01*
X314967D01*
X314529Y359161D01*
X313050Y359774D01*
X311450D01*
X309971Y359161D01*
X308839Y358029D01*
X308226Y356550D01*
Y354950D01*
X308839Y353471D01*
X309971Y352339D01*
X311450Y351726D01*
X313050D01*
X314529Y352339D01*
X315217Y353026D01*
X323783D01*
X324221Y352589D01*
X325700Y351976D01*
X327300D01*
X328779Y352589D01*
X329911Y353721D01*
X330524Y355200D01*
Y356800D01*
X329911Y358279D01*
X328779Y359411D01*
X327300Y360024D01*
D02*
G37*
G36*
X85790Y378980D02*
X74020D01*
Y362710D01*
X76037D01*
X76290Y361440D01*
X76221Y361411D01*
X75089Y360279D01*
X74476Y358800D01*
Y357200D01*
X75089Y355721D01*
X76221Y354589D01*
X77700Y353976D01*
X79300D01*
X80779Y354589D01*
X81911Y355721D01*
X82524Y357200D01*
Y358800D01*
X81911Y360279D01*
X80779Y361411D01*
X80710Y361440D01*
X80963Y362710D01*
X85790D01*
Y378980D01*
D02*
G37*
G36*
X303300Y359524D02*
X301700D01*
X300221Y358911D01*
X299089Y357779D01*
X298476Y356300D01*
Y354700D01*
X299089Y353221D01*
X300221Y352089D01*
X301700Y351476D01*
X303300D01*
X304779Y352089D01*
X305911Y353221D01*
X306524Y354700D01*
Y356300D01*
X305911Y357779D01*
X304779Y358911D01*
X303300Y359524D01*
D02*
G37*
G36*
X135500Y374353D02*
X133930Y374040D01*
X132599Y373151D01*
X131709Y371820D01*
X131535Y370943D01*
X131476Y370800D01*
Y370646D01*
X131397Y370250D01*
Y360774D01*
X130226D01*
Y344726D01*
X141274D01*
Y360774D01*
X139603D01*
Y370250D01*
X139524Y370646D01*
Y370800D01*
X139465Y370943D01*
X139291Y371820D01*
X138401Y373151D01*
X137070Y374040D01*
X135500Y374353D01*
D02*
G37*
G36*
X124050Y374024D02*
X122450D01*
X120971Y373411D01*
X119839Y372279D01*
X119226Y370800D01*
Y369200D01*
X119839Y367721D01*
X120401Y367158D01*
Y360774D01*
X117726D01*
Y344726D01*
X128774D01*
Y360774D01*
X126099D01*
Y367158D01*
X126661Y367721D01*
X127274Y369200D01*
Y370800D01*
X126661Y372279D01*
X125529Y373411D01*
X124050Y374024D01*
D02*
G37*
G36*
X111550D02*
X109950D01*
X108471Y373411D01*
X107339Y372279D01*
X106726Y370800D01*
Y369200D01*
X107339Y367721D01*
X107901Y367158D01*
Y360774D01*
X105226D01*
Y344726D01*
X116274D01*
Y360774D01*
X113599D01*
Y367158D01*
X114161Y367721D01*
X114774Y369200D01*
Y370800D01*
X114161Y372279D01*
X113029Y373411D01*
X111550Y374024D01*
D02*
G37*
G36*
X99050D02*
X97450D01*
X95971Y373411D01*
X94839Y372279D01*
X94226Y370800D01*
Y369200D01*
X94839Y367721D01*
X95401Y367158D01*
Y360774D01*
X92726D01*
Y344726D01*
X103774D01*
Y360774D01*
X101099D01*
Y367158D01*
X101661Y367721D01*
X102274Y369200D01*
Y370800D01*
X101661Y372279D01*
X100529Y373411D01*
X99050Y374024D01*
D02*
G37*
G36*
X327300Y347774D02*
X325700D01*
X324221Y347161D01*
X323089Y346029D01*
X322476Y344550D01*
Y342950D01*
X323089Y341471D01*
X324221Y340339D01*
X325700Y339726D01*
X327300D01*
X328779Y340339D01*
X329911Y341471D01*
X330524Y342950D01*
Y344550D01*
X329911Y346029D01*
X328779Y347161D01*
X327300Y347774D01*
D02*
G37*
G36*
X474283Y357464D02*
X471117D01*
X468059Y356645D01*
X465317Y355062D01*
X463078Y352823D01*
X461495Y350081D01*
X460676Y347023D01*
Y343857D01*
X461495Y340799D01*
X463078Y338057D01*
X465317Y335818D01*
X468059Y334235D01*
X471117Y333416D01*
X474283D01*
X477341Y334235D01*
X480083Y335818D01*
X482322Y338057D01*
X483905Y340799D01*
X484724Y343857D01*
Y347023D01*
X483905Y350081D01*
X482322Y352823D01*
X480083Y355062D01*
X477341Y356645D01*
X474283Y357464D01*
D02*
G37*
G36*
X165621Y361274D02*
X164020D01*
X162541Y360661D01*
X161409Y359529D01*
X160797Y358050D01*
Y356450D01*
X161409Y354971D01*
X162336Y354044D01*
Y336009D01*
X161425D01*
Y327761D01*
X172919D01*
X173181Y327399D01*
X172532Y326129D01*
X161638D01*
Y324853D01*
X160289D01*
X158239Y326904D01*
Y354408D01*
X158801Y354971D01*
X159414Y356450D01*
Y358050D01*
X158801Y359529D01*
X157669Y360661D01*
X156190Y361274D01*
X154590D01*
X153111Y360661D01*
X151979Y359529D01*
X151366Y358050D01*
Y356450D01*
X151979Y354971D01*
X152541Y354408D01*
Y325724D01*
X152541Y325724D01*
X152758Y324634D01*
X153376Y323709D01*
X157095Y319990D01*
X157095Y319990D01*
X158019Y319373D01*
X159109Y319156D01*
X161638D01*
Y317881D01*
X177886D01*
Y320103D01*
X189566D01*
X189733Y318832D01*
X188659Y318545D01*
X185917Y316962D01*
X183678Y314723D01*
X182095Y311981D01*
X181276Y308923D01*
Y305757D01*
X182095Y302699D01*
X183678Y299957D01*
X185917Y297718D01*
X188659Y296135D01*
X191717Y295316D01*
X194883D01*
X197941Y296135D01*
X200683Y297718D01*
X202922Y299957D01*
X204505Y302699D01*
X205324Y305757D01*
Y308923D01*
X204505Y311981D01*
X202922Y314723D01*
X200683Y316962D01*
X197941Y318545D01*
X196867Y318832D01*
X197034Y320103D01*
X204369D01*
X213976Y310495D01*
Y309700D01*
X214589Y308221D01*
X215721Y307089D01*
X217200Y306476D01*
X218800D01*
X220279Y307089D01*
X221411Y308221D01*
X222024Y309699D01*
X223289Y309688D01*
X223364Y309667D01*
X223976Y308188D01*
X225108Y307056D01*
X226587Y306443D01*
X228188D01*
X229667Y307056D01*
X230400Y307789D01*
X231670Y307263D01*
Y278274D01*
X210976D01*
Y252226D01*
X270024D01*
Y278274D01*
X244830D01*
Y334500D01*
X244606Y336203D01*
X243949Y337790D01*
X242903Y339153D01*
X231963Y350093D01*
X230600Y351139D01*
X229013Y351796D01*
X227310Y352020D01*
X205117D01*
X204122Y353744D01*
X201604Y356262D01*
X198520Y358042D01*
X195081Y358964D01*
X191520D01*
X188080Y358042D01*
X184996Y356262D01*
X182478Y353744D01*
X180698Y350660D01*
X179776Y347220D01*
Y343660D01*
X180698Y340220D01*
X182478Y337136D01*
X184996Y334618D01*
X188080Y332838D01*
X190372Y332223D01*
X190205Y330953D01*
X178509D01*
X177673Y331790D01*
Y336009D01*
X168034D01*
Y354772D01*
X168232Y354971D01*
X168845Y356450D01*
Y358050D01*
X168232Y359529D01*
X167100Y360661D01*
X165621Y361274D01*
D02*
G37*
G36*
X40188Y329274D02*
X37812D01*
X35517Y328659D01*
X33459Y327471D01*
X31779Y325791D01*
X30591Y323733D01*
X29976Y321438D01*
Y319062D01*
X30591Y316767D01*
X31779Y314709D01*
X33459Y313029D01*
X35517Y311841D01*
X37812Y311226D01*
X40188D01*
X42483Y311841D01*
X44541Y313029D01*
X46221Y314709D01*
X47409Y316767D01*
X48024Y319062D01*
Y321438D01*
X47409Y323733D01*
X46221Y325791D01*
X44541Y327471D01*
X42483Y328659D01*
X40188Y329274D01*
D02*
G37*
G36*
X137050Y317524D02*
X135450D01*
X133971Y316911D01*
X132839Y315779D01*
X132226Y314300D01*
Y312700D01*
X132839Y311221D01*
X133971Y310089D01*
X135450Y309476D01*
X137050D01*
X138529Y310089D01*
X139661Y311221D01*
X140274Y312700D01*
Y314300D01*
X139661Y315779D01*
X138529Y316911D01*
X137050Y317524D01*
D02*
G37*
G36*
X163290Y306040D02*
X159520D01*
Y302770D01*
X163290D01*
Y306040D01*
D02*
G37*
G36*
X156980D02*
X153210D01*
Y302770D01*
X156980D01*
Y306040D01*
D02*
G37*
G36*
X307849Y295349D02*
X307849Y295349D01*
X256924D01*
X256924Y295349D01*
X255833Y295132D01*
X254909Y294514D01*
X254419Y294024D01*
X253200D01*
X251721Y293411D01*
X250589Y292279D01*
X249976Y290800D01*
Y289200D01*
X250589Y287721D01*
X251721Y286589D01*
X253200Y285976D01*
X254800D01*
X254956Y286040D01*
X256226Y285192D01*
Y284950D01*
X256839Y283471D01*
X257971Y282339D01*
X259450Y281726D01*
X261050D01*
X262529Y282339D01*
X263661Y283471D01*
X264274Y284950D01*
Y285151D01*
X301145D01*
X304726Y281570D01*
Y274476D01*
X303643Y274024D01*
X298726D01*
Y270134D01*
X295886D01*
Y271886D01*
X287114D01*
Y264331D01*
X286098D01*
Y259984D01*
X291500D01*
Y258714D01*
X292770D01*
Y253098D01*
X296902D01*
X297710Y252162D01*
Y251020D01*
X306750D01*
X315790D01*
Y255022D01*
X316963Y255508D01*
X320756Y251716D01*
X320756Y251716D01*
X321680Y251098D01*
X321726Y251089D01*
Y242976D01*
X337774D01*
Y246866D01*
X341614D01*
Y245114D01*
X350386D01*
Y252669D01*
X351402D01*
Y257016D01*
X346000D01*
X340598D01*
Y252669D01*
X339371Y252563D01*
X337774D01*
Y256524D01*
X326045D01*
X325770Y256579D01*
X325770Y256579D01*
X323950D01*
X322242Y258287D01*
X322728Y259460D01*
X328480D01*
Y267250D01*
Y275040D01*
X321310D01*
X320710Y275040D01*
X320274Y276129D01*
Y282024D01*
X320274Y282024D01*
X320151Y283047D01*
X320115Y283228D01*
X320115Y283228D01*
X320105Y283278D01*
X319934Y284137D01*
X319317Y285061D01*
X309863Y294514D01*
X308939Y295132D01*
X307849Y295349D01*
D02*
G37*
G36*
X178040Y298540D02*
X173770D01*
Y294770D01*
X178040D01*
Y298540D01*
D02*
G37*
G36*
X171230D02*
X166960D01*
Y294770D01*
X171230D01*
Y298540D01*
D02*
G37*
G36*
X436790Y285480D02*
X433020D01*
Y282210D01*
X436790D01*
Y285480D01*
D02*
G37*
G36*
X430480D02*
X426710D01*
Y282210D01*
X430480D01*
Y285480D01*
D02*
G37*
G36*
X421040Y285480D02*
X417270D01*
Y282210D01*
X421040D01*
Y285480D01*
D02*
G37*
G36*
X414730D02*
X410960D01*
Y282210D01*
X414730D01*
Y285480D01*
D02*
G37*
G36*
X500976Y311524D02*
X497524D01*
X494138Y310851D01*
X490949Y309530D01*
X488079Y307612D01*
X485638Y305171D01*
X483720Y302301D01*
X482399Y299112D01*
X481726Y295726D01*
Y292274D01*
X482399Y288888D01*
X483720Y285699D01*
X485638Y282829D01*
X488079Y280388D01*
X490949Y278470D01*
X494138Y277150D01*
X497524Y276476D01*
X500976D01*
X504362Y277150D01*
X507551Y278470D01*
X510421Y280388D01*
X512862Y282829D01*
X514780Y285699D01*
X516101Y288888D01*
X516774Y292274D01*
Y295726D01*
X516101Y299112D01*
X514780Y302301D01*
X512862Y305171D01*
X510421Y307612D01*
X507551Y309530D01*
X504362Y310851D01*
X500976Y311524D01*
D02*
G37*
G36*
X331020Y275040D02*
Y268520D01*
X338790D01*
Y275040D01*
X331020D01*
D02*
G37*
G36*
X351402Y263902D02*
X347270D01*
Y259556D01*
X351402D01*
Y263902D01*
D02*
G37*
G36*
X344730D02*
X340598D01*
Y259556D01*
X344730D01*
Y263902D01*
D02*
G37*
G36*
X338790Y265980D02*
X331020D01*
Y259460D01*
X338790D01*
Y265980D01*
D02*
G37*
G36*
X178040Y292230D02*
X172500D01*
X166960D01*
Y288460D01*
X167170D01*
X167976Y287524D01*
X167976Y287190D01*
Y279476D01*
X169651D01*
Y277000D01*
X169651Y277000D01*
X169868Y275910D01*
X170486Y274986D01*
X176976Y268496D01*
X177900Y267878D01*
X178990Y267661D01*
X178990Y267661D01*
X181276D01*
Y267657D01*
X182095Y264599D01*
X183678Y261857D01*
X185917Y259618D01*
X188659Y258035D01*
X191717Y257216D01*
X194883D01*
X197941Y258035D01*
X200683Y259618D01*
X202922Y261857D01*
X204505Y264599D01*
X205324Y267657D01*
Y270823D01*
X204505Y273881D01*
X202922Y276623D01*
X200683Y278862D01*
X197941Y280445D01*
X194883Y281264D01*
X191717D01*
X188659Y280445D01*
X185917Y278862D01*
X183678Y276623D01*
X182095Y273881D01*
X181955Y273359D01*
X180170D01*
X175349Y278180D01*
Y279476D01*
X177024D01*
Y287190D01*
X177024Y287524D01*
X177830Y288460D01*
X178040D01*
Y292230D01*
D02*
G37*
G36*
X290230Y257444D02*
X286098D01*
Y253098D01*
X290230D01*
Y257444D01*
D02*
G37*
G36*
X266800Y226774D02*
X265200D01*
X263721Y226161D01*
X262589Y225029D01*
X261976Y223550D01*
Y221950D01*
X262589Y220471D01*
X263721Y219339D01*
X265200Y218726D01*
X266800D01*
X268279Y219339D01*
X269411Y220471D01*
X270024Y221950D01*
Y223550D01*
X269411Y225029D01*
X268279Y226161D01*
X266800Y226774D01*
D02*
G37*
G36*
X69429Y221730D02*
X65770D01*
Y218071D01*
X67355Y218727D01*
X68773Y220145D01*
X69429Y221730D01*
D02*
G37*
G36*
X63230D02*
X59571D01*
X60227Y220145D01*
X61645Y218727D01*
X63230Y218071D01*
Y221730D01*
D02*
G37*
G36*
X288550Y224274D02*
X286950D01*
X285471Y223661D01*
X284339Y222529D01*
X283726Y221050D01*
Y219450D01*
X284339Y217971D01*
X285471Y216839D01*
X286950Y216226D01*
X288550D01*
X290029Y216839D01*
X291161Y217971D01*
X291774Y219450D01*
Y221050D01*
X291161Y222529D01*
X290029Y223661D01*
X288550Y224274D01*
D02*
G37*
G36*
X417300Y223524D02*
X415700D01*
X414221Y222911D01*
X413089Y221779D01*
X412476Y220300D01*
Y218699D01*
X413089Y217220D01*
X414221Y216088D01*
X415700Y215476D01*
X417300D01*
X418779Y216088D01*
X419911Y217220D01*
X420524Y218699D01*
Y220300D01*
X419911Y221779D01*
X418779Y222911D01*
X417300Y223524D01*
D02*
G37*
G36*
X426233Y214592D02*
X424632D01*
X423153Y213979D01*
X422021Y212847D01*
X421408Y211368D01*
Y209767D01*
X422021Y208288D01*
X423153Y207156D01*
X424632Y206544D01*
X426233D01*
X427712Y207156D01*
X428844Y208288D01*
X429456Y209767D01*
Y211368D01*
X428844Y212847D01*
X427712Y213979D01*
X426233Y214592D01*
D02*
G37*
G36*
X408301Y214524D02*
X406700D01*
X405221Y213911D01*
X404089Y212779D01*
X403476Y211300D01*
Y209699D01*
X404089Y208220D01*
X405221Y207088D01*
X406700Y206476D01*
X408301D01*
X409779Y207088D01*
X410911Y208220D01*
X411524Y209699D01*
Y211300D01*
X410911Y212779D01*
X409779Y213911D01*
X408301Y214524D01*
D02*
G37*
G36*
X474283Y281264D02*
X471117D01*
X468059Y280445D01*
X465317Y278862D01*
X463078Y276623D01*
X461495Y273881D01*
X460676Y270823D01*
Y267657D01*
X461495Y264599D01*
X463078Y261857D01*
X465317Y259618D01*
X468059Y258035D01*
X471117Y257216D01*
X474283D01*
X477341Y258035D01*
X480083Y259618D01*
X480553Y260088D01*
X481726Y259602D01*
Y226476D01*
X516774D01*
Y261524D01*
X483596D01*
X482863Y262794D01*
X483905Y264599D01*
X484388Y266401D01*
X524820D01*
X526901Y264320D01*
Y208592D01*
X526339Y208029D01*
X525726Y206550D01*
Y204950D01*
X526339Y203471D01*
X527471Y202339D01*
X528950Y201726D01*
X530550D01*
X532029Y202339D01*
X533161Y203471D01*
X533774Y204950D01*
Y206550D01*
X533161Y208029D01*
X532599Y208592D01*
Y265500D01*
X532599Y265500D01*
X532382Y266590D01*
X531764Y267514D01*
X531764Y267514D01*
X528014Y271264D01*
X527090Y271882D01*
X526000Y272099D01*
X526000Y272099D01*
X484382D01*
X483905Y273881D01*
X482322Y276623D01*
X480083Y278862D01*
X477341Y280445D01*
X474283Y281264D01*
D02*
G37*
G36*
X195214Y207580D02*
X194570D01*
Y194310D01*
X207840D01*
Y194954D01*
X206849Y198652D01*
X204935Y201968D01*
X202228Y204675D01*
X198912Y206589D01*
X195214Y207580D01*
D02*
G37*
G36*
X386550Y196274D02*
X384950D01*
X383471Y195661D01*
X382339Y194529D01*
X381726Y193050D01*
Y191450D01*
X382339Y189971D01*
X383471Y188839D01*
X384950Y188226D01*
X386550D01*
X388029Y188839D01*
X389161Y189971D01*
X389774Y191450D01*
Y193050D01*
X389161Y194529D01*
X388029Y195661D01*
X386550Y196274D01*
D02*
G37*
G36*
X346730Y186929D02*
X345145Y186273D01*
X343727Y184855D01*
X343635Y184632D01*
X342365D01*
X342273Y184855D01*
X340855Y186273D01*
X339270Y186929D01*
Y182000D01*
X336730D01*
Y186929D01*
X335145Y186273D01*
X333727Y184855D01*
X333635Y184632D01*
X332365D01*
X332273Y184855D01*
X330855Y186273D01*
X329270Y186929D01*
Y182000D01*
X326730D01*
Y186929D01*
X325145Y186273D01*
X323727Y184855D01*
X323635Y184632D01*
X322365D01*
X322273Y184855D01*
X320855Y186273D01*
X319270Y186929D01*
Y182000D01*
X316730D01*
Y186929D01*
X315145Y186273D01*
X313727Y184855D01*
X313635Y184632D01*
X312365D01*
X312273Y184855D01*
X310855Y186273D01*
X309270Y186929D01*
Y182000D01*
X306730D01*
Y186929D01*
X305145Y186273D01*
X303727Y184855D01*
X303635Y184632D01*
X302365D01*
X302273Y184855D01*
X300855Y186273D01*
X299270Y186929D01*
Y182000D01*
X296730D01*
Y186929D01*
X295145Y186273D01*
X293727Y184855D01*
X293635Y184632D01*
X292365D01*
X292273Y184855D01*
X290855Y186273D01*
X289270Y186929D01*
Y182000D01*
X286730D01*
Y186929D01*
X285145Y186273D01*
X283727Y184855D01*
X283635Y184632D01*
X282365D01*
X282273Y184855D01*
X280855Y186273D01*
X279270Y186929D01*
Y182000D01*
X278000D01*
Y180730D01*
X273071D01*
X273727Y179145D01*
X275145Y177727D01*
X275368Y177635D01*
Y176365D01*
X275145Y176273D01*
X273727Y174855D01*
X273071Y173270D01*
X278000D01*
Y170730D01*
X273071D01*
X273727Y169145D01*
X275145Y167727D01*
X275368Y167635D01*
Y166365D01*
X275145Y166273D01*
X273727Y164855D01*
X273071Y163270D01*
X278000D01*
Y160730D01*
X273071D01*
X273727Y159145D01*
X275145Y157727D01*
X275368Y157635D01*
Y156365D01*
X275145Y156273D01*
X273727Y154855D01*
X273071Y153270D01*
X278000D01*
Y150730D01*
X273071D01*
X273727Y149145D01*
X275145Y147727D01*
X275368Y147635D01*
Y146365D01*
X275145Y146273D01*
X273727Y144855D01*
X273071Y143270D01*
X278000D01*
Y140730D01*
X273071D01*
X273727Y139145D01*
X275145Y137727D01*
X275368Y137635D01*
Y136365D01*
X275145Y136273D01*
X273727Y134855D01*
X273071Y133270D01*
X278000D01*
Y130730D01*
X273071D01*
X273727Y129145D01*
X275145Y127727D01*
X275368Y127635D01*
Y126365D01*
X275145Y126273D01*
X273727Y124855D01*
X273071Y123270D01*
X278000D01*
Y120730D01*
X273071D01*
X273727Y119145D01*
X275145Y117727D01*
X275368Y117635D01*
Y116365D01*
X275145Y116273D01*
X273727Y114855D01*
X273071Y113270D01*
X278000D01*
Y112000D01*
X279270D01*
Y107071D01*
X280855Y107727D01*
X282273Y109145D01*
X282365Y109368D01*
X283635D01*
X283727Y109145D01*
X285145Y107727D01*
X286730Y107071D01*
Y112000D01*
X289270D01*
Y107071D01*
X290855Y107727D01*
X292273Y109145D01*
X292365Y109368D01*
X293635D01*
X293727Y109145D01*
X295145Y107727D01*
X296730Y107071D01*
Y112000D01*
X299270D01*
Y107071D01*
X300855Y107727D01*
X302273Y109145D01*
X302365Y109368D01*
X303635D01*
X303727Y109145D01*
X305145Y107727D01*
X306730Y107071D01*
Y112000D01*
X309270D01*
Y107071D01*
X310855Y107727D01*
X312273Y109145D01*
X312365Y109368D01*
X313635D01*
X313727Y109145D01*
X315145Y107727D01*
X316730Y107071D01*
Y112000D01*
X319270D01*
Y107071D01*
X320855Y107727D01*
X322273Y109145D01*
X322365Y109368D01*
X323635D01*
X323727Y109145D01*
X325145Y107727D01*
X326730Y107071D01*
Y112000D01*
X329270D01*
Y107071D01*
X330855Y107727D01*
X332273Y109145D01*
X332365Y109368D01*
X333635D01*
X333727Y109145D01*
X335145Y107727D01*
X336730Y107071D01*
Y112000D01*
X339270D01*
Y107071D01*
X340855Y107727D01*
X342273Y109145D01*
X342365Y109368D01*
X343635D01*
X343727Y109145D01*
X345145Y107727D01*
X346730Y107071D01*
Y112000D01*
X348000D01*
Y113270D01*
X352929D01*
X352273Y114855D01*
X350855Y116273D01*
X350632Y116365D01*
Y117635D01*
X350855Y117727D01*
X352273Y119145D01*
X352929Y120730D01*
X348000D01*
Y123270D01*
X352929D01*
X352273Y124855D01*
X350855Y126273D01*
X350632Y126365D01*
Y127635D01*
X350855Y127727D01*
X352273Y129145D01*
X352929Y130730D01*
X348000D01*
Y133270D01*
X352929D01*
X352273Y134855D01*
X350855Y136273D01*
X350632Y136365D01*
Y137635D01*
X350855Y137727D01*
X352273Y139145D01*
X352929Y140730D01*
X348000D01*
Y143270D01*
X352929D01*
X352273Y144855D01*
X350855Y146273D01*
X350632Y146365D01*
Y147635D01*
X350855Y147727D01*
X352273Y149145D01*
X352929Y150730D01*
X348000D01*
Y153270D01*
X352929D01*
X352273Y154855D01*
X350855Y156273D01*
X350632Y156365D01*
Y157635D01*
X350855Y157727D01*
X352273Y159145D01*
X352929Y160730D01*
X348000D01*
Y163270D01*
X352929D01*
X352273Y164855D01*
X350855Y166273D01*
X350632Y166365D01*
Y167635D01*
X350855Y167727D01*
X352273Y169145D01*
X352929Y170730D01*
X348000D01*
Y173270D01*
X352929D01*
X352273Y174855D01*
X350855Y176273D01*
X350632Y176365D01*
Y177635D01*
X350855Y177727D01*
X352273Y179145D01*
X352929Y180730D01*
X348000D01*
Y182000D01*
X346730D01*
Y186929D01*
D02*
G37*
G36*
X349270D02*
Y183270D01*
X352929D01*
X352273Y184855D01*
X350855Y186273D01*
X349270Y186929D01*
D02*
G37*
G36*
X276730D02*
X275145Y186273D01*
X273727Y184855D01*
X273071Y183270D01*
X276730D01*
Y186929D01*
D02*
G37*
G36*
X474283Y205064D02*
X471117D01*
X468059Y204245D01*
X465317Y202662D01*
X463078Y200423D01*
X461495Y197681D01*
X460676Y194623D01*
Y191457D01*
X461495Y188399D01*
X463078Y185657D01*
X465317Y183418D01*
X468059Y181835D01*
X471117Y181016D01*
X474283D01*
X477341Y181835D01*
X480083Y183418D01*
X482322Y185657D01*
X483905Y188399D01*
X484724Y191457D01*
Y194623D01*
X483905Y197681D01*
X482322Y200423D01*
X480083Y202662D01*
X477341Y204245D01*
X474283Y205064D01*
D02*
G37*
G36*
X591553Y187750D02*
X589447D01*
X587412Y187205D01*
X585588Y186152D01*
X584098Y184662D01*
X583045Y182838D01*
X582500Y180803D01*
Y178697D01*
X583045Y176662D01*
X584098Y174838D01*
X585588Y173348D01*
X587412Y172295D01*
X589447Y171750D01*
X591553D01*
X593588Y172295D01*
X595412Y173348D01*
X596902Y174838D01*
X597955Y176662D01*
X598500Y178697D01*
Y180803D01*
X597955Y182838D01*
X596902Y184662D01*
X595412Y186152D01*
X593588Y187205D01*
X591553Y187750D01*
D02*
G37*
G36*
X520118Y190524D02*
X517282D01*
X514541Y189790D01*
X512085Y188371D01*
X510079Y186365D01*
X508660Y183909D01*
X507926Y181168D01*
Y178332D01*
X508660Y175591D01*
X510079Y173135D01*
X512085Y171129D01*
X514541Y169710D01*
X517282Y168976D01*
X520118D01*
X522859Y169710D01*
X525315Y171129D01*
X527321Y173135D01*
X528740Y175591D01*
X529474Y178332D01*
Y181168D01*
X528740Y183909D01*
X527321Y186365D01*
X525315Y188371D01*
X522859Y189790D01*
X520118Y190524D01*
D02*
G37*
G36*
X140140Y169730D02*
X136270D01*
Y165860D01*
X140140D01*
Y169730D01*
D02*
G37*
G36*
X126800Y205274D02*
X125200D01*
X123721Y204661D01*
X122589Y203529D01*
X121976Y202050D01*
Y200450D01*
X122351Y199544D01*
X121976Y198274D01*
X121976D01*
Y189726D01*
Y183124D01*
X121876D01*
Y176140D01*
X120860D01*
Y172270D01*
X126000D01*
Y171000D01*
X127270D01*
Y165860D01*
X133730D01*
Y171000D01*
X135000D01*
Y172270D01*
X140140D01*
Y176140D01*
X139124D01*
Y183124D01*
X139024D01*
Y189726D01*
Y198274D01*
X130976D01*
Y198274D01*
X130024D01*
X129649Y199544D01*
X130024Y200450D01*
Y202050D01*
X129411Y203529D01*
X128279Y204661D01*
X126800Y205274D01*
D02*
G37*
G36*
X79287Y177624D02*
X77213D01*
X75211Y177087D01*
X73415Y176051D01*
X71949Y174585D01*
X70913Y172789D01*
X70376Y170787D01*
Y168713D01*
X70913Y166711D01*
X71949Y164915D01*
X73415Y163449D01*
X75211Y162413D01*
X77213Y161876D01*
X79287D01*
X81289Y162413D01*
X83085Y163449D01*
X84551Y164915D01*
X85587Y166711D01*
X86124Y168713D01*
Y170787D01*
X85587Y172789D01*
X84551Y174585D01*
X83085Y176051D01*
X81289Y177087D01*
X79287Y177624D01*
D02*
G37*
G36*
X415800Y161774D02*
X414200D01*
X412721Y161161D01*
X411589Y160029D01*
X410976Y158550D01*
Y157283D01*
X406845Y153152D01*
X406550Y153274D01*
X404950D01*
X403471Y152661D01*
X402339Y151529D01*
X401726Y150050D01*
Y148450D01*
X402339Y146971D01*
X403471Y145839D01*
X404950Y145226D01*
X406550D01*
X408029Y145839D01*
X409161Y146971D01*
X409774Y148450D01*
Y148488D01*
X410068Y148684D01*
X415110Y153726D01*
X415800D01*
X417279Y154339D01*
X418411Y155471D01*
X419024Y156950D01*
Y158550D01*
X418411Y160029D01*
X417279Y161161D01*
X415800Y161774D01*
D02*
G37*
G36*
X591553Y162750D02*
X589447D01*
X587412Y162205D01*
X585588Y161152D01*
X584098Y159662D01*
X583045Y157838D01*
X582500Y155803D01*
Y153697D01*
X583045Y151662D01*
X584098Y149838D01*
X585588Y148348D01*
X587412Y147295D01*
X589447Y146750D01*
X591553D01*
X593588Y147295D01*
X595412Y148348D01*
X596902Y149838D01*
X597955Y151662D01*
X598500Y153697D01*
Y155803D01*
X597955Y157838D01*
X596902Y159662D01*
X595412Y161152D01*
X593588Y162205D01*
X591553Y162750D01*
D02*
G37*
G36*
X46250Y151596D02*
X42520D01*
Y146270D01*
X52679D01*
X52622Y146707D01*
X51963Y148298D01*
X50914Y149664D01*
X49548Y150713D01*
X47957Y151372D01*
X46250Y151596D01*
D02*
G37*
G36*
X103250D02*
X99520D01*
Y146270D01*
X109679D01*
X109622Y146707D01*
X108963Y148298D01*
X107914Y149664D01*
X106548Y150713D01*
X104957Y151372D01*
X103250Y151596D01*
D02*
G37*
G36*
X39980D02*
X36250D01*
X34543Y151372D01*
X32952Y150713D01*
X31586Y149664D01*
X30537Y148298D01*
X29878Y146707D01*
X29821Y146270D01*
X39980D01*
Y151596D01*
D02*
G37*
G36*
X96980D02*
X93250D01*
X91543Y151372D01*
X89952Y150713D01*
X88586Y149664D01*
X87537Y148298D01*
X86878Y146707D01*
X86821Y146270D01*
X96980D01*
Y151596D01*
D02*
G37*
G36*
X529474Y165524D02*
X507926D01*
Y143976D01*
X529474D01*
Y165524D01*
D02*
G37*
G36*
X109679Y143730D02*
X99520D01*
Y138404D01*
X103250D01*
X104957Y138628D01*
X106548Y139287D01*
X107914Y140336D01*
X108963Y141702D01*
X109622Y143293D01*
X109679Y143730D01*
D02*
G37*
G36*
X96980D02*
X86821D01*
X86878Y143293D01*
X87537Y141702D01*
X88586Y140336D01*
X89952Y139287D01*
X91543Y138628D01*
X93250Y138404D01*
X96980D01*
Y143730D01*
D02*
G37*
G36*
X52679D02*
X42520D01*
Y138404D01*
X46250D01*
X47957Y138628D01*
X49548Y139287D01*
X50914Y140336D01*
X51963Y141702D01*
X52622Y143293D01*
X52679Y143730D01*
D02*
G37*
G36*
X39980D02*
X29821D01*
X29878Y143293D01*
X30537Y141702D01*
X31586Y140336D01*
X32952Y139287D01*
X34543Y138628D01*
X36250Y138404D01*
X39980D01*
Y143730D01*
D02*
G37*
G36*
X474800Y169274D02*
X473200D01*
X471721Y168661D01*
X470589Y167529D01*
X469976Y166050D01*
Y164450D01*
X470589Y162971D01*
X471151Y162408D01*
Y156180D01*
X450070Y135099D01*
X426092D01*
X425529Y135661D01*
X424050Y136274D01*
X422450D01*
X420971Y135661D01*
X419839Y134529D01*
X419226Y133050D01*
Y131449D01*
X419839Y129971D01*
X420971Y128839D01*
X421638Y128562D01*
Y127188D01*
X420971Y126911D01*
X419839Y125779D01*
X419226Y124300D01*
Y122700D01*
X419839Y121221D01*
X420971Y120089D01*
X422450Y119476D01*
X424050D01*
X425529Y120089D01*
X426661Y121221D01*
X427274Y122700D01*
Y124300D01*
X426661Y125779D01*
X425529Y126911D01*
X424862Y127188D01*
Y128562D01*
X425529Y128839D01*
X426092Y129401D01*
X451250D01*
X451250Y129401D01*
X452340Y129618D01*
X453264Y130236D01*
X476014Y152986D01*
X476014Y152986D01*
X476632Y153910D01*
X476849Y155000D01*
X476849Y155000D01*
Y162408D01*
X477411Y162971D01*
X478024Y164450D01*
Y166050D01*
X477411Y167529D01*
X476279Y168661D01*
X474800Y169274D01*
D02*
G37*
G36*
X386300Y180774D02*
X384700D01*
X383221Y180161D01*
X382089Y179029D01*
X381476Y177550D01*
Y175950D01*
X381522Y175838D01*
Y136625D01*
X381834Y135055D01*
X382252Y134431D01*
X382339Y134221D01*
X382499Y134060D01*
X382724Y133724D01*
X383060Y133499D01*
X383471Y133089D01*
X384007Y132866D01*
X384055Y132835D01*
X384111Y132823D01*
X384950Y132476D01*
X386550D01*
X388029Y133089D01*
X389161Y134221D01*
X389774Y135700D01*
Y137300D01*
X389728Y137412D01*
Y176625D01*
X389416Y178195D01*
X388998Y178819D01*
X388911Y179029D01*
X388751Y179190D01*
X388526Y179526D01*
X388190Y179751D01*
X387779Y180161D01*
X387243Y180384D01*
X387195Y180415D01*
X387139Y180427D01*
X386300Y180774D01*
D02*
G37*
G36*
X84249Y134274D02*
X82251D01*
X80404Y133509D01*
X78991Y132096D01*
X78885Y131840D01*
X77615D01*
X77509Y132096D01*
X76096Y133509D01*
X74249Y134274D01*
X72251D01*
X70404Y133509D01*
X68991Y132096D01*
X68885Y131840D01*
X67615D01*
X67509Y132096D01*
X66096Y133509D01*
X64249Y134274D01*
X62251D01*
X60404Y133509D01*
X58991Y132096D01*
X58226Y130249D01*
Y129721D01*
X57492Y129146D01*
X56274Y129688D01*
Y130249D01*
X55509Y132096D01*
X54096Y133509D01*
X52249Y134274D01*
X50251D01*
X48404Y133509D01*
X46991Y132096D01*
X46885Y131840D01*
X45615D01*
X45509Y132096D01*
X44096Y133509D01*
X42249Y134274D01*
X40251D01*
X38404Y133509D01*
X36991Y132096D01*
X36885Y131840D01*
X35615D01*
X35509Y132096D01*
X34096Y133509D01*
X32249Y134274D01*
X30251D01*
X28404Y133509D01*
X26991Y132096D01*
X26226Y130249D01*
Y128251D01*
X26991Y126404D01*
X28404Y124991D01*
X30251Y124226D01*
X32249D01*
X33565Y124771D01*
X35331Y123004D01*
X32101Y119774D01*
X30251D01*
X28404Y119009D01*
X26991Y117596D01*
X26226Y115749D01*
Y113751D01*
X26991Y111904D01*
X28404Y110491D01*
X30251Y109726D01*
X32249D01*
X34096Y110491D01*
X34807Y111202D01*
X36118Y111327D01*
X36361Y111097D01*
X37829Y109629D01*
X39620Y108888D01*
X39678Y107537D01*
X38404Y107009D01*
X36991Y105596D01*
X36885Y105340D01*
X35615D01*
X35509Y105596D01*
X34096Y107009D01*
X32249Y107774D01*
X30251D01*
X28404Y107009D01*
X26991Y105596D01*
X26226Y103749D01*
Y101899D01*
X22788Y98462D01*
X22264Y97676D01*
X22080Y96750D01*
Y65250D01*
X22264Y64324D01*
X22788Y63538D01*
X26226Y60101D01*
Y58251D01*
X26991Y56404D01*
X28404Y54991D01*
X29741Y54437D01*
Y53063D01*
X28404Y52509D01*
X26991Y51096D01*
X26226Y49249D01*
Y47251D01*
X26991Y45404D01*
X28404Y43991D01*
X30251Y43226D01*
X31101D01*
X35327Y39000D01*
X33559Y37232D01*
X32249Y37774D01*
X30251D01*
X28404Y37009D01*
X26991Y35596D01*
X26226Y33749D01*
Y31751D01*
X26991Y29904D01*
X28404Y28491D01*
X30251Y27726D01*
X32249D01*
X34096Y28491D01*
X35509Y29904D01*
X35615Y30160D01*
X36885D01*
X36991Y29904D01*
X38404Y28491D01*
X40251Y27726D01*
X42249D01*
X44096Y28491D01*
X45509Y29904D01*
X45615Y30160D01*
X46885D01*
X46991Y29904D01*
X48404Y28491D01*
X50251Y27726D01*
X52249D01*
X54096Y28491D01*
X55509Y29904D01*
X56274Y31751D01*
Y32889D01*
X57452Y33730D01*
X57783Y33623D01*
X58226Y33252D01*
Y31751D01*
X58991Y29904D01*
X60404Y28491D01*
X62251Y27726D01*
X64249D01*
X66096Y28491D01*
X67509Y29904D01*
X67615Y30160D01*
X68885D01*
X68991Y29904D01*
X70404Y28491D01*
X72251Y27726D01*
X74249D01*
X76096Y28491D01*
X77509Y29904D01*
X77615Y30160D01*
X78885D01*
X78991Y29904D01*
X80404Y28491D01*
X82251Y27726D01*
X84249D01*
X86096Y28491D01*
X87509Y29904D01*
X88274Y31751D01*
Y33749D01*
X87509Y35596D01*
X86096Y37009D01*
X84249Y37774D01*
X82251D01*
X80404Y37009D01*
X78991Y35596D01*
X78885Y35340D01*
X77615D01*
X77509Y35596D01*
X76096Y37009D01*
X74249Y37774D01*
X72251D01*
X70404Y37009D01*
X68991Y35596D01*
X68885Y35340D01*
X67615D01*
X67509Y35596D01*
X66096Y37009D01*
X64249Y37774D01*
X62251D01*
X61118Y37305D01*
X59332Y39091D01*
X59303Y39380D01*
X63149Y43226D01*
X64249D01*
X66096Y43991D01*
X66807Y44702D01*
X68118Y44827D01*
X68361Y44597D01*
X69829Y43130D01*
X71980Y42238D01*
Y48250D01*
X74520D01*
Y42238D01*
X76671Y43130D01*
X78250Y44708D01*
X79829Y43130D01*
X81980Y42238D01*
Y48250D01*
X83250D01*
Y49520D01*
X89262D01*
X88371Y51671D01*
X86671Y53370D01*
X86087Y53612D01*
Y54987D01*
X86096Y54991D01*
X87509Y56404D01*
X88274Y58251D01*
Y58507D01*
X89544Y59033D01*
X92752Y55825D01*
Y50098D01*
X91761Y49107D01*
X91149Y47628D01*
Y46027D01*
X91761Y44548D01*
X92893Y43416D01*
X94372Y42804D01*
X95973D01*
X97452Y43416D01*
X98547Y44512D01*
X99471Y43589D01*
X100950Y42976D01*
X102550D01*
X104029Y43589D01*
X105161Y44721D01*
X105774Y46200D01*
Y47800D01*
X105161Y49279D01*
X104171Y50270D01*
Y55500D01*
X103986Y56426D01*
X103462Y57212D01*
X103462Y57212D01*
X91344Y69329D01*
X90559Y69854D01*
X89632Y70038D01*
X88303D01*
X87676Y71308D01*
X88274Y72751D01*
Y74749D01*
X87509Y76596D01*
X87377Y76728D01*
X87863Y77901D01*
X127750D01*
X127750Y77901D01*
X128840Y78118D01*
X129764Y78736D01*
X148005Y96976D01*
X148800D01*
X150279Y97589D01*
X151411Y98721D01*
X152024Y100200D01*
Y101800D01*
X151411Y103279D01*
X150279Y104411D01*
X148800Y105024D01*
X147200D01*
X145721Y104411D01*
X144589Y103279D01*
X143976Y101800D01*
Y101005D01*
X126570Y83599D01*
X87500D01*
X86974Y84869D01*
X87509Y85404D01*
X88274Y87251D01*
Y89249D01*
X87509Y91096D01*
X86096Y92509D01*
X84249Y93274D01*
X82251D01*
X80404Y92509D01*
X78991Y91096D01*
X78885Y90840D01*
X77615D01*
X77509Y91096D01*
X76096Y92509D01*
X74249Y93274D01*
X72251D01*
X70404Y92509D01*
X68991Y91096D01*
X68885Y90840D01*
X67615D01*
X67509Y91096D01*
X66096Y92509D01*
X64249Y93274D01*
X62251D01*
X60404Y92509D01*
X58991Y91096D01*
X58226Y89249D01*
Y87424D01*
X57168Y86837D01*
X56274Y87558D01*
Y89249D01*
X55509Y91096D01*
X54096Y92509D01*
X52249Y93274D01*
X50251D01*
X48404Y92509D01*
X47244Y91349D01*
X45256D01*
X44096Y92509D01*
X42249Y93274D01*
X40251D01*
X38404Y92509D01*
X36991Y91096D01*
X36885Y90840D01*
X35615D01*
X35509Y91096D01*
X34096Y92509D01*
X32249Y93274D01*
X30251D01*
X28404Y92509D01*
X28191Y92295D01*
X26920Y92822D01*
Y95747D01*
X29295Y98122D01*
X30251Y97726D01*
X32249D01*
X34096Y98491D01*
X35509Y99904D01*
X35615Y100160D01*
X36885D01*
X36991Y99904D01*
X38404Y98491D01*
X40251Y97726D01*
X42249D01*
X43154Y98101D01*
X45752Y95503D01*
X45752Y95502D01*
X46554Y94967D01*
X47500Y94778D01*
X67000D01*
X67000Y94778D01*
X67946Y94967D01*
X68748Y95502D01*
X71346Y98101D01*
X72251Y97726D01*
X74249D01*
X76096Y98491D01*
X77509Y99904D01*
X77615Y100160D01*
X78885D01*
X78991Y99904D01*
X80404Y98491D01*
X82251Y97726D01*
X84249D01*
X86096Y98491D01*
X87509Y99904D01*
X88274Y101751D01*
Y103749D01*
X87509Y105596D01*
X86096Y107009D01*
X84822Y107537D01*
X84880Y108888D01*
X86671Y109629D01*
X88371Y111329D01*
X89262Y113480D01*
X83250D01*
Y114750D01*
X81980D01*
Y120762D01*
X79829Y119870D01*
X78250Y118292D01*
X76671Y119870D01*
X74520Y120762D01*
Y114750D01*
X71980D01*
Y120762D01*
X69829Y119870D01*
X68361Y118403D01*
X68118Y118173D01*
X66807Y118298D01*
X66096Y119009D01*
X64249Y119774D01*
X62251D01*
X61745Y119565D01*
X59351Y121959D01*
X59376Y123730D01*
X60569Y124923D01*
X62251Y124226D01*
X64249D01*
X66096Y124991D01*
X67509Y126404D01*
X67615Y126660D01*
X68885D01*
X68991Y126404D01*
X70404Y124991D01*
X72251Y124226D01*
X74249D01*
X76096Y124991D01*
X77509Y126404D01*
X77615Y126660D01*
X78885D01*
X78991Y126404D01*
X80404Y124991D01*
X82251Y124226D01*
X84249D01*
X86096Y124991D01*
X87509Y126404D01*
X88274Y128251D01*
Y130249D01*
X87509Y132096D01*
X86096Y133509D01*
X84249Y134274D01*
D02*
G37*
G36*
X234050Y135274D02*
X232450D01*
X230971Y134661D01*
X229839Y133529D01*
X229226Y132050D01*
Y130450D01*
X229839Y128971D01*
X230971Y127839D01*
X232450Y127226D01*
X234050D01*
X235529Y127839D01*
X236661Y128971D01*
X237274Y130450D01*
Y132050D01*
X236661Y133529D01*
X235529Y134661D01*
X234050Y135274D01*
D02*
G37*
G36*
X532550Y372524D02*
X530950D01*
X529471Y371911D01*
X528339Y370779D01*
X527726Y369300D01*
Y367700D01*
X528339Y366221D01*
X529471Y365089D01*
X530950Y364476D01*
X531745D01*
X538651Y357570D01*
Y144212D01*
X520038Y125599D01*
X452092D01*
X451529Y126161D01*
X450050Y126774D01*
X448450D01*
X446971Y126161D01*
X445839Y125029D01*
X445226Y123550D01*
Y121950D01*
X445839Y120471D01*
X446934Y119375D01*
X445839Y118279D01*
X445226Y116800D01*
Y115200D01*
X445839Y113721D01*
X446971Y112589D01*
X448450Y111976D01*
X450050D01*
X451529Y112589D01*
X452661Y113721D01*
X453274Y115200D01*
Y116800D01*
X452661Y118279D01*
X452309Y118631D01*
X452836Y119901D01*
X521218D01*
X521218Y119901D01*
X522309Y120118D01*
X523233Y120736D01*
X543514Y141017D01*
X543514Y141017D01*
X544132Y141941D01*
X544349Y143032D01*
Y358750D01*
X544132Y359840D01*
X543514Y360764D01*
X543514Y360765D01*
X535774Y368505D01*
Y369300D01*
X535161Y370779D01*
X534029Y371911D01*
X532550Y372524D01*
D02*
G37*
G36*
X84520Y120762D02*
Y116020D01*
X89262D01*
X88371Y118171D01*
X86671Y119870D01*
X84520Y120762D01*
D02*
G37*
G36*
X352929Y110730D02*
X349270D01*
Y107071D01*
X350855Y107727D01*
X352273Y109145D01*
X352929Y110730D01*
D02*
G37*
G36*
X276730D02*
X273071D01*
X273727Y109145D01*
X275145Y107727D01*
X276730Y107071D01*
Y110730D01*
D02*
G37*
G36*
X221050Y105024D02*
X219450D01*
X217971Y104411D01*
X216839Y103279D01*
X216226Y101800D01*
Y100200D01*
X216839Y98721D01*
X217971Y97589D01*
X219450Y96976D01*
X221050D01*
X222529Y97589D01*
X223661Y98721D01*
X224274Y100200D01*
Y101800D01*
X223661Y103279D01*
X222529Y104411D01*
X221050Y105024D01*
D02*
G37*
G36*
X259050Y75274D02*
X257450D01*
X255971Y74661D01*
X254839Y73529D01*
X254226Y72050D01*
Y70450D01*
X254839Y68971D01*
X255971Y67839D01*
X257450Y67226D01*
X259050D01*
X260529Y67839D01*
X261661Y68971D01*
X262274Y70450D01*
Y72050D01*
X261661Y73529D01*
X260529Y74661D01*
X259050Y75274D01*
D02*
G37*
G36*
X359500Y73353D02*
X290968D01*
X289398Y73040D01*
X288067Y72151D01*
X286713Y70797D01*
X286680Y70791D01*
X286344Y70566D01*
X285971Y70411D01*
X285685Y70126D01*
X285349Y69901D01*
X285124Y69565D01*
X284839Y69279D01*
X284684Y68906D01*
X284459Y68570D01*
X284381Y68174D01*
X284226Y67800D01*
Y67396D01*
X284147Y67000D01*
X284226Y66604D01*
Y66200D01*
X284381Y65826D01*
X284459Y65430D01*
X284684Y65094D01*
X284839Y64721D01*
X285124Y64435D01*
X285349Y64099D01*
X285685Y63874D01*
X285971Y63589D01*
X286344Y63434D01*
X286680Y63210D01*
X287076Y63131D01*
X287450Y62976D01*
X287854D01*
X288250Y62897D01*
X288718D01*
X290288Y63210D01*
X291619Y64099D01*
X292667Y65147D01*
X359500D01*
X359896Y65226D01*
X360300D01*
X360674Y65381D01*
X361070Y65459D01*
X361406Y65684D01*
X361779Y65839D01*
X362065Y66124D01*
X362401Y66349D01*
X362626Y66685D01*
X362911Y66971D01*
X363066Y67344D01*
X363290Y67680D01*
X363369Y68076D01*
X363524Y68450D01*
Y68854D01*
X363603Y69250D01*
X363524Y69646D01*
Y70050D01*
X363369Y70424D01*
X363290Y70820D01*
X363066Y71156D01*
X362911Y71529D01*
X362626Y71815D01*
X362401Y72151D01*
X362065Y72376D01*
X361779Y72661D01*
X361406Y72816D01*
X361070Y73040D01*
X360674Y73119D01*
X360300Y73274D01*
X359896D01*
X359500Y73353D01*
D02*
G37*
G36*
X89262Y46980D02*
X84520D01*
Y42238D01*
X86671Y43130D01*
X88371Y44829D01*
X89262Y46980D01*
D02*
G37*
G36*
X103250Y23596D02*
X99520D01*
Y18270D01*
X109679D01*
X109622Y18707D01*
X108963Y20298D01*
X107914Y21664D01*
X106548Y22713D01*
X104957Y23372D01*
X103250Y23596D01*
D02*
G37*
G36*
X46250D02*
X42520D01*
Y18270D01*
X52679D01*
X52622Y18707D01*
X51963Y20298D01*
X50914Y21664D01*
X49548Y22713D01*
X47957Y23372D01*
X46250Y23596D01*
D02*
G37*
G36*
X96980D02*
X93250D01*
X91543Y23372D01*
X89952Y22713D01*
X88586Y21664D01*
X87537Y20298D01*
X86878Y18707D01*
X86821Y18270D01*
X96980D01*
Y23596D01*
D02*
G37*
G36*
X39980D02*
X36250D01*
X34543Y23372D01*
X32952Y22713D01*
X31586Y21664D01*
X30537Y20298D01*
X29878Y18707D01*
X29821Y18270D01*
X39980D01*
Y23596D01*
D02*
G37*
G36*
X161800Y70274D02*
X160200D01*
X158721Y69661D01*
X157589Y68529D01*
X156976Y67050D01*
Y65450D01*
X157589Y63971D01*
X158721Y62839D01*
X160200Y62226D01*
X160995D01*
X168651Y54570D01*
Y21842D01*
X168089Y21279D01*
X167476Y19800D01*
Y18200D01*
X168089Y16721D01*
X169221Y15589D01*
X170700Y14976D01*
X172300D01*
X173779Y15589D01*
X174911Y16721D01*
X175524Y18200D01*
Y19800D01*
X174911Y21279D01*
X174349Y21842D01*
Y55750D01*
X174349Y55750D01*
X174132Y56840D01*
X173514Y57764D01*
X173514Y57764D01*
X165024Y66255D01*
Y67050D01*
X164411Y68529D01*
X163279Y69661D01*
X161800Y70274D01*
D02*
G37*
G36*
X109679Y15730D02*
X99520D01*
Y10404D01*
X103250D01*
X104957Y10628D01*
X106548Y11287D01*
X107914Y12336D01*
X108963Y13702D01*
X109622Y15293D01*
X109679Y15730D01*
D02*
G37*
G36*
X96980D02*
X86821D01*
X86878Y15293D01*
X87537Y13702D01*
X88586Y12336D01*
X89952Y11287D01*
X91543Y10628D01*
X93250Y10404D01*
X96980D01*
Y15730D01*
D02*
G37*
G36*
X52679D02*
X42520D01*
Y10404D01*
X46250D01*
X47957Y10628D01*
X49548Y11287D01*
X50914Y12336D01*
X51963Y13702D01*
X52622Y15293D01*
X52679Y15730D01*
D02*
G37*
G36*
X39980D02*
X29821D01*
X29878Y15293D01*
X30537Y13702D01*
X31586Y12336D01*
X32952Y11287D01*
X34543Y10628D01*
X36250Y10404D01*
X39980D01*
Y15730D01*
D02*
G37*
%LPD*%
D12*
X74261Y271250D02*
X94707Y250803D01*
X103078Y231750D02*
X122750D01*
X76078Y258750D02*
X103078Y231750D01*
X57750Y271250D02*
X74261D01*
X57750Y258750D02*
X76078D01*
X288250Y67000D02*
X288718D01*
X290968Y69250D01*
X359500D01*
X135500Y353000D02*
Y370250D01*
X385625Y136625D02*
Y176625D01*
D14*
X305986Y236695D02*
X306291Y237000D01*
X320500D01*
X74500Y194396D02*
Y242750D01*
X185435Y83461D02*
X434211D01*
X74500Y194396D02*
X185435Y83461D01*
X81250Y194979D02*
Y242750D01*
Y194979D02*
X188229Y88000D01*
X364500D01*
X97250Y185823D02*
Y192250D01*
Y185823D02*
X190323Y92750D01*
X362512D01*
X434211Y83461D02*
X449250Y98500D01*
X173549Y331885D02*
X177329Y328105D01*
X209750D01*
X227388Y310467D01*
X342318Y299523D02*
Y350486D01*
X360582Y368750D02*
X412750D01*
X342318Y350486D02*
X360582Y368750D01*
X357250Y265750D02*
Y284591D01*
X342318Y299523D02*
X357250Y284591D01*
X372781Y316719D02*
X389531D01*
X349250Y340250D02*
X372781Y316719D01*
X389531D02*
X400750Y305500D01*
X116500Y302895D02*
Y315000D01*
X302325Y288000D02*
X307801Y282524D01*
X262968Y288000D02*
X302325D01*
X307801Y268301D02*
Y282524D01*
X256924Y292500D02*
X307849D01*
X317302Y283047D01*
X316500Y278250D02*
X317302Y279052D01*
Y283047D01*
X541500Y143032D02*
Y358750D01*
X521218Y122750D02*
X541500Y143032D01*
X449250Y122750D02*
X521218D01*
X155390Y325724D02*
Y357250D01*
Y325724D02*
X159109Y322005D01*
X165762D01*
X165185Y332249D02*
Y356886D01*
Y332249D02*
X165549Y331885D01*
X164821Y357250D02*
X165185Y356886D01*
X173762Y322005D02*
X174709Y322951D01*
X205549D01*
X218000Y310500D01*
X128000Y291750D02*
X160000Y259750D01*
X178500D01*
X193300Y231140D02*
Y244950D01*
X178500Y259750D02*
X193300Y244950D01*
X128000Y291750D02*
Y297716D01*
X190550Y233890D02*
X193300Y231140D01*
X123230Y299204D02*
X126512D01*
X128000Y297716D01*
X116500Y302895D02*
X120625Y298770D01*
X116000Y306000D02*
X120500Y301500D01*
X120625Y298625D02*
Y298770D01*
X51250Y88500D02*
X59000Y80750D01*
X127750D01*
X136250Y293529D02*
X158221D01*
X136161D02*
X136250D01*
X428750Y152250D02*
Y167250D01*
X443000Y181500D02*
Y192500D01*
X428750Y167250D02*
X443000Y181500D01*
X364500Y88000D02*
X428750Y152250D01*
X423375Y168875D02*
X434250Y179750D01*
Y225250D02*
X453750Y244750D01*
X434250Y179750D02*
Y225250D01*
X531750Y368500D02*
X541500Y358750D01*
X423250Y132250D02*
X451250D01*
X474000Y155000D01*
Y165250D01*
X453750Y244750D02*
Y293250D01*
X499250Y338750D01*
Y368500D02*
Y370480D01*
Y338750D02*
Y368500D01*
X400750Y290250D02*
Y305500D01*
X260250Y285750D02*
X260718D01*
X262968Y288000D01*
X254424Y290000D02*
X256924Y292500D01*
X254000Y290000D02*
X254424D01*
X312375Y355875D02*
X326375D01*
X312250Y355750D02*
X312375Y355875D01*
X326375D02*
X326500Y356000D01*
X371500Y101738D02*
Y186000D01*
X320500Y237000D02*
X371500Y186000D01*
X362512Y92750D02*
X371500Y101738D01*
X325770Y253730D02*
X329786Y249714D01*
X317199Y259301D02*
Y278250D01*
Y259301D02*
X322770Y253730D01*
X325770D01*
X306750Y267250D02*
X307801Y268301D01*
X291500Y267286D02*
X306714D01*
X306750Y267250D01*
X416000Y294750D02*
X431750D01*
X408416D02*
X416000D01*
X135000Y179250D02*
Y186500D01*
X126000D02*
X135000D01*
X126000Y179750D02*
Y186500D01*
Y194000D02*
X135000D01*
X126000D02*
Y201250D01*
X329786Y249714D02*
X346000D01*
X41250Y73500D02*
X51250D01*
X41250D02*
Y88500D01*
X51250D01*
X127750Y80750D02*
X148000Y101000D01*
X171500Y19000D02*
Y55750D01*
X161000Y66250D02*
X171500Y55750D01*
X172500Y277000D02*
Y283500D01*
Y277000D02*
X178990Y270510D01*
X192030D02*
X193300Y269240D01*
X178990Y270510D02*
X192030D01*
X135500Y353000D02*
X135750Y352750D01*
X123250D02*
Y370000D01*
X110750Y352750D02*
Y369750D01*
X98250Y352750D02*
Y369750D01*
X529750Y205750D02*
Y265500D01*
X472710Y269250D02*
X526000D01*
X472700Y269240D02*
X472710Y269250D01*
X526000D02*
X529750Y265500D01*
X385500Y176750D02*
X385625Y176625D01*
Y136625D02*
X385750Y136500D01*
D29*
X416000Y294750D02*
D03*
Y286750D02*
D03*
X431750Y294750D02*
D03*
Y286750D02*
D03*
X158250Y301500D02*
D03*
Y293500D02*
D03*
D32*
X126000Y186500D02*
D03*
Y194000D02*
D03*
X135000Y186500D02*
D03*
Y194000D02*
D03*
D33*
X173549Y331885D02*
D03*
X165549D02*
D03*
X173762Y322005D02*
D03*
X165762D02*
D03*
D34*
X126000Y179000D02*
D03*
Y171000D02*
D03*
X135000Y179000D02*
D03*
Y171000D02*
D03*
D44*
X240500Y191250D02*
D03*
Y265250D02*
D03*
D66*
X291500Y258714D02*
D03*
Y267286D02*
D03*
X346000Y258286D02*
D03*
Y249714D02*
D03*
D72*
X316500Y278250D02*
D03*
X308500D02*
D03*
D92*
X182276Y385616D02*
D03*
D93*
X202276D02*
D03*
X222276D02*
D03*
X242276D02*
D03*
D98*
X518700Y154750D02*
D03*
D99*
Y179750D02*
D03*
D100*
X590500D02*
D03*
Y154750D02*
D03*
D107*
X215284Y355134D02*
D03*
X254732Y354893D02*
D03*
X295431Y236273D02*
D03*
X280162Y239278D02*
D03*
X239736Y228221D02*
D03*
X305986Y236695D02*
D03*
X94707Y250803D02*
D03*
X88625Y236000D02*
D03*
X103237Y264513D02*
D03*
X270000Y386500D02*
D03*
X227388Y310467D02*
D03*
X24241Y165932D02*
D03*
X24009Y144945D02*
D03*
X24400Y123155D02*
D03*
X24405Y109579D02*
D03*
X78253Y95833D02*
D03*
X36207Y96059D02*
D03*
X24411Y52578D02*
D03*
Y39041D02*
D03*
X221622Y53638D02*
D03*
X195854Y53378D02*
D03*
X184142Y65090D02*
D03*
X148353Y64830D02*
D03*
X134168Y73680D02*
D03*
X107880Y74461D02*
D03*
X273678Y35809D02*
D03*
X247910D02*
D03*
X222142Y35939D02*
D03*
X192991D02*
D03*
X163840Y42706D02*
D03*
X128134Y42975D02*
D03*
X420000Y8500D02*
D03*
X390000D02*
D03*
X360000D02*
D03*
X330000D02*
D03*
X300000D02*
D03*
X270000D02*
D03*
X240000D02*
D03*
X210000D02*
D03*
X180000D02*
D03*
X155000D02*
D03*
X125000D02*
D03*
X70000D02*
D03*
X25500Y10000D02*
D03*
X321031Y228686D02*
D03*
X323860Y302612D02*
D03*
X311138Y315921D02*
D03*
X293949D02*
D03*
X305995Y298191D02*
D03*
X337025Y282544D02*
D03*
X345989Y269239D02*
D03*
X334270Y386801D02*
D03*
X164821Y357250D02*
D03*
X155390D02*
D03*
X98200Y379082D02*
D03*
X88424Y367637D02*
D03*
X515250Y378000D02*
D03*
X412750Y368750D02*
D03*
X431750Y377750D02*
D03*
X74500Y242750D02*
D03*
X218000Y310500D02*
D03*
X241250Y99750D02*
D03*
X258250Y71250D02*
D03*
X270000Y316250D02*
D03*
Y308750D02*
D03*
Y300250D02*
D03*
X283750Y316000D02*
D03*
Y300500D02*
D03*
Y308750D02*
D03*
X277000Y355250D02*
D03*
X353500Y240000D02*
D03*
X243500Y125500D02*
D03*
X392000Y41750D02*
D03*
X293750D02*
D03*
X307250Y59000D02*
D03*
X391500Y75750D02*
D03*
X376250D02*
D03*
X405250Y184750D02*
D03*
Y177000D02*
D03*
Y169750D02*
D03*
X404000Y137750D02*
D03*
X440250Y99750D02*
D03*
X431250D02*
D03*
X278000Y182000D02*
D03*
X288000D02*
D03*
X298000D02*
D03*
X308000D02*
D03*
X318000D02*
D03*
X328000D02*
D03*
X338000D02*
D03*
X348000D02*
D03*
Y172000D02*
D03*
X338000D02*
D03*
X328000D02*
D03*
X318000D02*
D03*
X308000D02*
D03*
X298000D02*
D03*
X288000D02*
D03*
X278000D02*
D03*
Y162000D02*
D03*
X288000D02*
D03*
X298000D02*
D03*
X308000D02*
D03*
X318000D02*
D03*
X328000D02*
D03*
X338000D02*
D03*
X348000D02*
D03*
Y152000D02*
D03*
X338000D02*
D03*
X328000D02*
D03*
X318000D02*
D03*
X308000D02*
D03*
X298000D02*
D03*
X288000D02*
D03*
X278000D02*
D03*
Y142000D02*
D03*
X288000D02*
D03*
X298000D02*
D03*
X308000D02*
D03*
X318000D02*
D03*
X328000D02*
D03*
X338000D02*
D03*
X348000D02*
D03*
Y132000D02*
D03*
X338000D02*
D03*
X328000D02*
D03*
X318000D02*
D03*
X308000D02*
D03*
X298000D02*
D03*
X288000D02*
D03*
X278000D02*
D03*
Y122000D02*
D03*
X288000D02*
D03*
X298000D02*
D03*
X308000D02*
D03*
X318000D02*
D03*
X328000D02*
D03*
X338000D02*
D03*
X348000D02*
D03*
Y112000D02*
D03*
X338000D02*
D03*
X328000D02*
D03*
X318000D02*
D03*
X308000D02*
D03*
X298000D02*
D03*
X288000D02*
D03*
X278000D02*
D03*
X95173Y46828D02*
D03*
X302500Y355500D02*
D03*
X253626Y58479D02*
D03*
X260250Y58500D02*
D03*
X239349Y69337D02*
D03*
X239245Y77347D02*
D03*
X220250Y101000D02*
D03*
X288250Y67000D02*
D03*
X94231Y39801D02*
D03*
X90084Y53161D02*
D03*
X109750Y46750D02*
D03*
X107250Y52250D02*
D03*
X101750Y47000D02*
D03*
X86250Y339000D02*
D03*
X78500Y358000D02*
D03*
X449250Y98500D02*
D03*
X349250Y340250D02*
D03*
X357250D02*
D03*
X254000Y290000D02*
D03*
X260250Y285750D02*
D03*
X239750Y214000D02*
D03*
X44000Y271000D02*
D03*
X136250Y313500D02*
D03*
X128750Y237250D02*
D03*
X150250Y236500D02*
D03*
X312250Y355750D02*
D03*
X326500Y356000D02*
D03*
X64500Y223000D02*
D03*
X122750Y231750D02*
D03*
X499250Y368500D02*
D03*
X97250Y192250D02*
D03*
X531750Y368500D02*
D03*
X423375Y168875D02*
D03*
X406750Y295750D02*
D03*
X400750Y290250D02*
D03*
X126000Y201250D02*
D03*
X474000Y165250D02*
D03*
X482500D02*
D03*
X449250Y122750D02*
D03*
X423250Y132250D02*
D03*
X415000Y157750D02*
D03*
X405750Y149250D02*
D03*
X443000Y192500D02*
D03*
X81250Y242750D02*
D03*
X136250Y293529D02*
D03*
X132000Y302500D02*
D03*
X171500Y19000D02*
D03*
X161000Y66250D02*
D03*
X330750Y237750D02*
D03*
X123500Y109250D02*
D03*
X529750Y205750D02*
D03*
X449250Y116000D02*
D03*
X409250Y163250D02*
D03*
X98250Y370000D02*
D03*
X135500D02*
D03*
X123250D02*
D03*
X110750D02*
D03*
X357250Y265750D02*
D03*
X371750Y359750D02*
D03*
X384250Y228250D02*
D03*
Y220500D02*
D03*
X423250Y123500D02*
D03*
X460250Y182000D02*
D03*
X435620Y159820D02*
D03*
X450620D02*
D03*
X443250Y152250D02*
D03*
X435620Y144570D02*
D03*
X450870D02*
D03*
X101500Y211500D02*
D03*
X112500D02*
D03*
Y220500D02*
D03*
X101500Y220750D02*
D03*
X357500Y228000D02*
D03*
X343500D02*
D03*
X431750Y277750D02*
D03*
X107000Y216000D02*
D03*
X385500Y176750D02*
D03*
X385750Y192250D02*
D03*
X148000Y101000D02*
D03*
X123500Y137000D02*
D03*
X216750Y127000D02*
D03*
X104250Y123500D02*
D03*
X233250Y131250D02*
D03*
X227250Y146500D02*
D03*
X158000Y174250D02*
D03*
X266000Y222750D02*
D03*
X271000Y229250D02*
D03*
X239736Y221111D02*
D03*
X287750Y220250D02*
D03*
X305500Y228750D02*
D03*
X314730Y327730D02*
D03*
X404500Y278000D02*
D03*
X416500Y192750D02*
D03*
X426250Y202250D02*
D03*
X407000D02*
D03*
X407500Y210500D02*
D03*
X425432Y210567D02*
D03*
X416500Y219500D02*
D03*
X416000Y278250D02*
D03*
X361500Y292480D02*
D03*
X376750D02*
D03*
X369250Y300000D02*
D03*
X361802Y307138D02*
D03*
X376750Y307480D02*
D03*
X326500Y343750D02*
D03*
X359500Y69250D02*
D03*
X404500Y91000D02*
D03*
X385750Y136500D02*
D03*
X410500Y143000D02*
D03*
D108*
X77250Y52500D02*
X83250Y58500D01*
X51250Y58250D02*
X57000Y52500D01*
X77250D01*
X67000Y97250D02*
X73250Y103500D01*
X47500Y97250D02*
X67000D01*
X41250Y103500D02*
X47500Y97250D01*
X83250Y58500D02*
X83250D01*
X51250Y58250D02*
Y58500D01*
D109*
X31258Y130500D02*
X37155Y124604D01*
X56827D02*
X62725Y130502D01*
X37155Y124604D02*
X56827D01*
X56508Y121379D02*
X62387Y115500D01*
X37129Y121379D02*
X56508D01*
X31250Y115500D02*
X37129Y121379D01*
X57116Y40616D02*
X63000Y46500D01*
X31250D02*
X37134Y40616D01*
X57116D01*
X31250Y31500D02*
X37130Y37380D01*
X57620D02*
X59749Y35252D01*
X37130Y37380D02*
X57620D01*
X87619Y64381D02*
X95173Y56828D01*
X37995Y64381D02*
X87619D01*
X32113Y58500D02*
X37995Y64381D01*
X31250Y72637D02*
X36269Y67618D01*
X89632D01*
X101750Y55500D01*
X62725Y130502D02*
X63248D01*
X31250Y73500D02*
Y88500D01*
Y72637D02*
Y73500D01*
X101750Y47172D02*
Y55500D01*
X24500Y96750D02*
X31250Y103500D01*
Y58500D02*
X32113D01*
X24500Y65250D02*
X31250Y58500D01*
X95173Y46828D02*
Y56828D01*
X24500Y65250D02*
Y96750D01*
X59749Y35252D02*
X63250Y31750D01*
X62387Y115500D02*
X63250D01*
X63000Y46500D02*
X63250D01*
X31250D02*
X31250D01*
X63250Y31500D02*
Y31750D01*
X31250Y31500D02*
X31250D01*
D113*
X238250Y267500D02*
Y334500D01*
X227310Y345440D02*
X238250Y334500D01*
X193300Y345440D02*
X227310D01*
X238250Y267500D02*
X240500Y265250D01*
X39000Y370250D02*
X94750Y314500D01*
X116000D01*
X179250Y172500D02*
X211642D01*
X138500Y213250D02*
X179250Y172500D01*
X217500Y178358D02*
Y184750D01*
X211642Y172500D02*
X217500Y178358D01*
X138500Y213250D02*
Y240642D01*
X119500Y246500D02*
X132642D01*
X138500Y240642D01*
X116500Y249500D02*
Y259000D01*
Y249500D02*
X119500Y246500D01*
X217500Y184750D02*
X224000Y191250D01*
X240500D01*
X94128Y275230D02*
X109770D01*
X88270Y281088D02*
X94128Y275230D01*
X39000Y345250D02*
X88270Y295980D01*
Y281088D02*
Y295980D01*
X109770Y275230D02*
X116500Y268500D01*
D116*
X406484Y149250D02*
X407841Y150607D01*
X408145D01*
X405750Y149250D02*
X406484D01*
X408145Y150607D02*
X415144Y157606D01*
D119*
X41250Y17000D02*
D03*
X98250D02*
D03*
X41250Y145000D02*
D03*
X98250D02*
D03*
D120*
X31250Y32750D02*
D03*
Y48250D02*
D03*
Y59250D02*
D03*
Y129250D02*
D03*
Y114750D02*
D03*
Y102750D02*
D03*
Y73750D02*
D03*
Y88250D02*
D03*
X41250Y32750D02*
D03*
Y48250D02*
D03*
Y59250D02*
D03*
Y129250D02*
D03*
Y114750D02*
D03*
Y102750D02*
D03*
Y73750D02*
D03*
Y88250D02*
D03*
X51250Y32750D02*
D03*
Y48250D02*
D03*
Y59250D02*
D03*
Y129250D02*
D03*
Y114750D02*
D03*
Y102750D02*
D03*
Y73750D02*
D03*
Y88250D02*
D03*
X63250Y32750D02*
D03*
Y48250D02*
D03*
Y59250D02*
D03*
Y129250D02*
D03*
Y114750D02*
D03*
Y102750D02*
D03*
Y73750D02*
D03*
Y88250D02*
D03*
X73250Y32750D02*
D03*
Y48250D02*
D03*
Y59250D02*
D03*
Y129250D02*
D03*
Y114750D02*
D03*
Y102750D02*
D03*
Y73750D02*
D03*
Y88250D02*
D03*
X83250Y32750D02*
D03*
Y48250D02*
D03*
Y59250D02*
D03*
Y129250D02*
D03*
Y114750D02*
D03*
Y102750D02*
D03*
Y73750D02*
D03*
Y88250D02*
D03*
D121*
X472700Y345440D02*
D03*
Y269240D02*
D03*
Y193040D02*
D03*
X193300Y269240D02*
D03*
Y307340D02*
D03*
Y231140D02*
D03*
D122*
Y193040D02*
D03*
Y345440D02*
D03*
D123*
X313000Y147000D02*
D03*
D124*
X39000Y345250D02*
D03*
Y370250D02*
D03*
Y320250D02*
D03*
D125*
X584500Y370000D02*
D03*
X44500Y200000D02*
D03*
X584500Y30000D02*
D03*
D126*
X499250Y244000D02*
D03*
D127*
Y294000D02*
D03*
D128*
X599250Y324000D02*
D03*
Y214000D02*
D03*
D129*
X164109Y238546D02*
D03*
X385750Y355250D02*
D03*
X78250Y169750D02*
D03*
D130*
X72750Y380250D02*
D03*
X161250D02*
D03*
D131*
X98250Y352750D02*
D03*
X110750D02*
D03*
X123250D02*
D03*
X135750D02*
D03*
D132*
X329750Y249750D02*
D03*
X306750D02*
D03*
Y267250D02*
D03*
X329750D02*
D03*
D133*
X34800Y239750D02*
D03*
Y290250D02*
D03*
D134*
X57750Y271250D02*
D03*
Y258750D02*
D03*
D135*
X172500Y293500D02*
D03*
Y283500D02*
D03*
D136*
X116500Y315000D02*
D03*
Y259000D02*
D03*
D137*
X176347Y209993D02*
Y244673D01*
X157321Y251929D02*
X169090D01*
X176347Y244673D01*
X120547Y288703D02*
Y310953D01*
X116500Y315000D02*
X120547Y310953D01*
Y288703D02*
X157321Y251929D01*
X176347Y209993D02*
X193300Y193040D01*
M02*
