G04*
G04 #@! TF.GenerationSoftware,Altium Limited,Altium Designer,24.1.2 (44)*
G04*
G04 Layer_Physical_Order=3*
G04 Layer_Color=16440176*
%FSLAX44Y44*%
%MOMM*%
G71*
G04*
G04 #@! TF.SameCoordinates,564CEF90-820D-4554-998B-2DB19DA9D660*
G04*
G04*
G04 #@! TF.FilePolarity,Positive*
G04*
G01*
G75*
%ADD12C,0.5000*%
%ADD14C,0.2540*%
%ADD92R,1.3900X1.3900*%
%ADD93C,1.3900*%
%ADD98R,1.8500X1.8500*%
%ADD99C,1.8500*%
%ADD100C,1.6000*%
%ADD107C,0.5000*%
%ADD115C,0.7000*%
%ADD118C,0.4000*%
%ADD119O,1.8000X0.8000*%
%ADD120C,0.7000*%
%ADD121C,2.1000*%
%ADD122C,2.4000*%
%ADD123R,8.0000X8.0000*%
%ADD124C,1.5000*%
%ADD125C,4.5000*%
%ADD126R,3.2000X3.2000*%
%ADD127C,3.2000*%
%ADD128C,1.8000*%
%ADD129C,1.2700*%
G36*
X172897Y394972D02*
X173802Y394090D01*
X173802Y393702D01*
Y377142D01*
X190750D01*
Y393702D01*
X191654Y394972D01*
X199547D01*
X199714Y393702D01*
X199005Y393512D01*
X197073Y392397D01*
X195495Y390819D01*
X194380Y388886D01*
X193802Y386731D01*
Y384500D01*
X194380Y382345D01*
X195495Y380412D01*
X197073Y378835D01*
X199005Y377719D01*
X201160Y377142D01*
X203392D01*
X205547Y377719D01*
X207479Y378835D01*
X209057Y380412D01*
X210173Y382345D01*
X210750Y384500D01*
Y386731D01*
X210173Y388886D01*
X209057Y390819D01*
X207479Y392397D01*
X205547Y393512D01*
X204838Y393702D01*
X205005Y394972D01*
X219547D01*
X219714Y393702D01*
X219005Y393512D01*
X217073Y392397D01*
X215495Y390819D01*
X214380Y388886D01*
X213802Y386731D01*
Y384500D01*
X214380Y382345D01*
X215495Y380412D01*
X217073Y378835D01*
X219005Y377719D01*
X221160Y377142D01*
X223392D01*
X225547Y377719D01*
X227479Y378835D01*
X229057Y380412D01*
X230173Y382345D01*
X230750Y384500D01*
Y386731D01*
X230173Y388886D01*
X229057Y390819D01*
X227479Y392397D01*
X225547Y393512D01*
X224838Y393702D01*
X225005Y394972D01*
X239547D01*
X239714Y393702D01*
X239005Y393512D01*
X237073Y392397D01*
X235495Y390819D01*
X234380Y388886D01*
X233802Y386731D01*
Y384500D01*
X234380Y382345D01*
X235495Y380412D01*
X237073Y378835D01*
X239005Y377719D01*
X241160Y377142D01*
X243392D01*
X245547Y377719D01*
X247479Y378835D01*
X249057Y380412D01*
X250173Y382345D01*
X250750Y384500D01*
Y386731D01*
X250173Y388886D01*
X249057Y390819D01*
X247479Y392397D01*
X245547Y393512D01*
X244838Y393702D01*
X245005Y394972D01*
X580390Y394972D01*
X580515Y393702D01*
X577492Y393101D01*
X573120Y391290D01*
X569186Y388661D01*
X565839Y385314D01*
X563210Y381380D01*
X561399Y377007D01*
X560476Y372366D01*
Y367634D01*
X561399Y362993D01*
X563210Y358620D01*
X565839Y354686D01*
X569186Y351339D01*
X573120Y348710D01*
X577492Y346899D01*
X582134Y345976D01*
X586866D01*
X591507Y346899D01*
X595880Y348710D01*
X599814Y351339D01*
X603161Y354686D01*
X605790Y358620D01*
X607601Y362993D01*
X608524Y367634D01*
Y372366D01*
X607601Y377007D01*
X605790Y381380D01*
X603161Y385314D01*
X599814Y388661D01*
X595880Y391290D01*
X591507Y393101D01*
X588485Y393702D01*
X588610Y394972D01*
X604073D01*
X605302Y394972D01*
X607573Y394031D01*
X609311Y392293D01*
X610251Y390022D01*
X610251Y388793D01*
X610251Y388793D01*
X610251Y388793D01*
Y328928D01*
X610082Y328819D01*
X608386Y329224D01*
X607671Y330462D01*
X605712Y332421D01*
X603312Y333807D01*
X600635Y334524D01*
X597864D01*
X595188Y333807D01*
X592788Y332421D01*
X590829Y330462D01*
X589443Y328062D01*
X588726Y325386D01*
Y322615D01*
X589443Y319938D01*
X590829Y317538D01*
X592788Y315579D01*
X595188Y314193D01*
X597864Y313476D01*
X600635D01*
X603312Y314193D01*
X605712Y315579D01*
X607671Y317538D01*
X608386Y318776D01*
X610082Y319181D01*
X610251Y319072D01*
X610251Y218928D01*
X610082Y218819D01*
X608386Y219224D01*
X607671Y220462D01*
X605712Y222421D01*
X603312Y223807D01*
X600635Y224524D01*
X597864D01*
X595188Y223807D01*
X592788Y222421D01*
X590829Y220462D01*
X589443Y218062D01*
X588726Y215385D01*
Y212614D01*
X589443Y209938D01*
X590829Y207538D01*
X592788Y205579D01*
X595188Y204193D01*
X597864Y203476D01*
X600635D01*
X603312Y204193D01*
X605712Y205579D01*
X607671Y207538D01*
X608386Y208776D01*
X610082Y209181D01*
X610251Y209072D01*
X610251Y14473D01*
X610251Y13603D01*
X609912Y11896D01*
X609246Y10289D01*
X608280Y8843D01*
X607050Y7613D01*
X605603Y6646D01*
X603996Y5980D01*
X602290Y5641D01*
X601420Y5641D01*
X591693D01*
X591508Y6899D01*
X595880Y8710D01*
X599814Y11339D01*
X603161Y14686D01*
X605790Y18620D01*
X607601Y22992D01*
X608524Y27634D01*
Y32366D01*
X607601Y37008D01*
X605790Y41380D01*
X603161Y45314D01*
X599814Y48661D01*
X595880Y51290D01*
X591507Y53101D01*
X586866Y54024D01*
X582134D01*
X577492Y53101D01*
X573120Y51290D01*
X569186Y48661D01*
X565839Y45314D01*
X563210Y41380D01*
X561399Y37008D01*
X560476Y32366D01*
Y27634D01*
X561399Y22992D01*
X563210Y18620D01*
X565839Y14686D01*
X569186Y11339D01*
X573120Y8710D01*
X577492Y6899D01*
X577307Y5641D01*
X424491D01*
X423698Y6911D01*
X424024Y7700D01*
Y9300D01*
X423411Y10779D01*
X422279Y11911D01*
X420800Y12524D01*
X419200D01*
X417721Y11911D01*
X416589Y10779D01*
X415976Y9300D01*
Y7700D01*
X416302Y6911D01*
X415509Y5641D01*
X394491D01*
X393698Y6911D01*
X394024Y7700D01*
Y9300D01*
X393411Y10779D01*
X392279Y11911D01*
X390800Y12524D01*
X389200D01*
X387721Y11911D01*
X386589Y10779D01*
X385976Y9300D01*
Y7700D01*
X386303Y6911D01*
X385509Y5641D01*
X364491D01*
X363697Y6911D01*
X364024Y7700D01*
Y9300D01*
X363411Y10779D01*
X362279Y11911D01*
X360800Y12524D01*
X359200D01*
X357721Y11911D01*
X356589Y10779D01*
X355976Y9300D01*
Y7700D01*
X356302Y6911D01*
X355509Y5641D01*
X334491D01*
X333698Y6911D01*
X334024Y7700D01*
Y9300D01*
X333411Y10779D01*
X332279Y11911D01*
X330800Y12524D01*
X329200D01*
X327721Y11911D01*
X326589Y10779D01*
X325976Y9300D01*
Y7700D01*
X326302Y6911D01*
X325509Y5641D01*
X316284D01*
Y105476D01*
X354524D01*
Y188524D01*
X271476D01*
Y156838D01*
X246390D01*
Y174861D01*
X287755Y216226D01*
X288550D01*
X290029Y216839D01*
X290592Y217401D01*
X312173D01*
X327589Y201986D01*
X328513Y201368D01*
X329603Y201151D01*
X329603Y201151D01*
X357070D01*
X381476Y176745D01*
Y175950D01*
X382089Y174471D01*
X383221Y173339D01*
X384700Y172726D01*
X386300D01*
X387779Y173339D01*
X388911Y174471D01*
X389524Y175950D01*
Y177550D01*
X388911Y179029D01*
X387779Y180161D01*
X386300Y180774D01*
X385505D01*
X360264Y206014D01*
X359340Y206632D01*
X358250Y206849D01*
X358250Y206849D01*
X330783D01*
X315367Y222264D01*
X314443Y222882D01*
X313353Y223099D01*
X313353Y223099D01*
X290592D01*
X290029Y223661D01*
X288550Y224274D01*
X286950D01*
X285471Y223661D01*
X284339Y222529D01*
X283726Y221050D01*
Y220255D01*
X241527Y178055D01*
X240909Y177131D01*
X240692Y176041D01*
X240692Y176041D01*
Y156838D01*
X22024D01*
Y161352D01*
X23080Y162057D01*
X23441Y161908D01*
X25042D01*
X26521Y162521D01*
X27653Y163653D01*
X28265Y165132D01*
Y166733D01*
X27653Y168212D01*
X26521Y169343D01*
X25042Y169956D01*
X23441D01*
X23080Y169807D01*
X22024Y170512D01*
Y187569D01*
X22264Y187751D01*
X23984Y187462D01*
X25839Y184686D01*
X29186Y181339D01*
X33120Y178710D01*
X37492Y176899D01*
X42134Y175976D01*
X46866D01*
X51508Y176899D01*
X55880Y178710D01*
X59814Y181339D01*
X63161Y184686D01*
X65790Y188620D01*
X67601Y192992D01*
X68524Y197634D01*
Y202366D01*
X67601Y207008D01*
X65790Y211380D01*
X63161Y215314D01*
X59814Y218661D01*
X55880Y221290D01*
X51508Y223101D01*
X46866Y224024D01*
X42134D01*
X37492Y223101D01*
X33120Y221290D01*
X29186Y218661D01*
X25839Y215314D01*
X23984Y212538D01*
X22264Y212249D01*
X22024Y212431D01*
Y235600D01*
X24050D01*
X25216Y236084D01*
X25700Y237250D01*
Y244600D01*
X43900D01*
Y229250D01*
X44384Y228084D01*
X45550Y227600D01*
X61772D01*
X62105Y226719D01*
X62140Y226330D01*
X61089Y225279D01*
X60476Y223800D01*
Y222200D01*
X61089Y220721D01*
X62221Y219589D01*
X63700Y218976D01*
X65300D01*
X66779Y219589D01*
X67911Y220721D01*
X68524Y222200D01*
Y223800D01*
X67911Y225279D01*
X66779Y226411D01*
X65889Y226780D01*
X65731Y227974D01*
X65764Y228197D01*
X66200Y229250D01*
Y254750D01*
X65716Y255916D01*
X64550Y256400D01*
X53400D01*
Y267407D01*
X95263D01*
X98048Y264622D01*
X98005Y264403D01*
Y254856D01*
X96735Y254319D01*
X95508Y254827D01*
X93907D01*
X92428Y254215D01*
X91296Y253083D01*
X90683Y251604D01*
Y250003D01*
X91296Y248524D01*
X92428Y247392D01*
X93907Y246779D01*
X95508D01*
X96735Y247288D01*
X98005Y246751D01*
Y240046D01*
X93919Y235961D01*
X92649Y236487D01*
Y236800D01*
X92036Y238279D01*
X90904Y239411D01*
X89425Y240024D01*
X87825D01*
X86346Y239411D01*
X85214Y238279D01*
X84601Y236800D01*
Y235200D01*
X85214Y233721D01*
X86346Y232589D01*
X87825Y231976D01*
X88138D01*
X88664Y230706D01*
X74628Y216670D01*
X73517Y215008D01*
X73128Y213048D01*
Y175763D01*
X71949Y174585D01*
X70913Y172789D01*
X70376Y170787D01*
Y168713D01*
X70913Y166711D01*
X71949Y164915D01*
X73415Y163449D01*
X75211Y162413D01*
X77213Y161876D01*
X79287D01*
X81289Y162413D01*
X83085Y163449D01*
X84551Y164915D01*
X85587Y166711D01*
X86124Y168713D01*
Y170787D01*
X85587Y172789D01*
X84551Y174585D01*
X83372Y175763D01*
Y210926D01*
X106749Y234302D01*
X107859Y235964D01*
X108249Y237924D01*
Y264403D01*
X107859Y266363D01*
X106749Y268025D01*
X105087Y269135D01*
X103352Y269481D01*
X99292Y273541D01*
X98126Y274319D01*
X96751Y274593D01*
X66639D01*
X66200Y275250D01*
Y300750D01*
X65716Y301916D01*
X64550Y302400D01*
X45550D01*
X44384Y301916D01*
X43900Y300750D01*
Y285400D01*
X34682D01*
X27909Y292172D01*
Y362084D01*
X29179Y362515D01*
X30085Y361335D01*
X32696Y359331D01*
X35737Y358072D01*
X39000Y357642D01*
X42263Y358072D01*
X45304Y359331D01*
X47915Y361335D01*
X49919Y363946D01*
X51178Y366987D01*
X51608Y370250D01*
X51178Y373513D01*
X49919Y376554D01*
X47915Y379165D01*
X45304Y381169D01*
X42263Y382428D01*
X39000Y382858D01*
X35737Y382428D01*
X34147Y381770D01*
X33428Y382846D01*
X34738Y384157D01*
X47262D01*
X74658Y356761D01*
X75089Y355721D01*
X75651Y355158D01*
Y346750D01*
X75651Y346750D01*
X75868Y345660D01*
X76486Y344736D01*
X82226Y338995D01*
Y338200D01*
X82839Y336721D01*
X83971Y335589D01*
X85450Y334976D01*
X87050D01*
X88529Y335589D01*
X89661Y336721D01*
X90274Y338200D01*
Y339800D01*
X89661Y341279D01*
X88529Y342411D01*
X87050Y343024D01*
X86255D01*
X81349Y347930D01*
Y354407D01*
X123250D01*
X124625Y354680D01*
X125791Y355459D01*
X136312Y365981D01*
X137779Y366589D01*
X137848Y366657D01*
X286262D01*
X298658Y354261D01*
X299089Y353221D01*
X300221Y352089D01*
X301700Y351476D01*
X303300D01*
X304779Y352089D01*
X305911Y353221D01*
X306177Y353861D01*
X307053Y354737D01*
X308471Y354359D01*
X308839Y353471D01*
X309971Y352339D01*
X311450Y351726D01*
X313050D01*
X314529Y352339D01*
X315661Y353471D01*
X316274Y354950D01*
Y356550D01*
X315661Y358029D01*
X314529Y359161D01*
X313641Y359529D01*
X313263Y360947D01*
X335109Y382793D01*
X336111Y383208D01*
X504961D01*
X511408Y376761D01*
X511839Y375721D01*
X512971Y374589D01*
X514450Y373976D01*
X516050D01*
X517529Y374589D01*
X518661Y375721D01*
X519274Y377200D01*
Y378800D01*
X518661Y380279D01*
X517529Y381411D01*
X516489Y381842D01*
X508990Y389342D01*
X507824Y390121D01*
X506449Y390394D01*
X336111D01*
X335070Y390825D01*
X333469D01*
X331990Y390212D01*
X330858Y389080D01*
X330593Y388440D01*
X302617Y360464D01*
X290291Y372791D01*
X289125Y373569D01*
X287750Y373843D01*
X136737D01*
X136300Y374024D01*
X134700D01*
X133221Y373411D01*
X132089Y372279D01*
X131834Y371666D01*
X128140Y367971D01*
X127063Y368690D01*
X127274Y369200D01*
Y370800D01*
X126661Y372279D01*
X125529Y373411D01*
X124050Y374024D01*
X122450D01*
X120971Y373411D01*
X119839Y372279D01*
X119226Y370800D01*
Y369200D01*
X119839Y367721D01*
X120971Y366589D01*
X122450Y365976D01*
X124050D01*
X124559Y366187D01*
X125279Y365110D01*
X121762Y361593D01*
X80341D01*
X79739Y361842D01*
X51291Y390291D01*
X50125Y391069D01*
X48750Y391343D01*
X33250D01*
X31875Y391070D01*
X30709Y390291D01*
X23198Y382779D01*
X22024Y383265D01*
Y393003D01*
X22399Y393907D01*
X23090Y394598D01*
X23993Y394972D01*
X24482Y394972D01*
X24482Y394972D01*
X172897Y394972D01*
D02*
G37*
G36*
X32817Y152099D02*
X33201Y150828D01*
X31535Y149715D01*
X30089Y147552D01*
X29834Y146270D01*
X52666D01*
X52411Y147552D01*
X50965Y149715D01*
X49377Y150776D01*
X49764Y152045D01*
X89545Y151917D01*
X89929Y150646D01*
X88535Y149715D01*
X87090Y147552D01*
X86834Y146270D01*
X109665D01*
X109411Y147552D01*
X107965Y149715D01*
X106652Y150593D01*
X107039Y151861D01*
X240692Y151433D01*
Y142721D01*
X233245Y135274D01*
X232450D01*
X230971Y134661D01*
X229839Y133529D01*
X229226Y132050D01*
Y130450D01*
X229839Y128971D01*
X230971Y127839D01*
X232450Y127226D01*
X234050D01*
X235529Y127839D01*
X236092Y128401D01*
X246070D01*
X255401Y119070D01*
Y91424D01*
X254131Y90897D01*
X245274Y99755D01*
Y100550D01*
X244661Y102029D01*
X243529Y103161D01*
X242050Y103774D01*
X240450D01*
X238971Y103161D01*
X237839Y102029D01*
X237226Y100550D01*
Y98950D01*
X237839Y97471D01*
X238971Y96339D01*
X240450Y95726D01*
X241245D01*
X249738Y87233D01*
Y68701D01*
X249738Y68701D01*
X249955Y67610D01*
X250572Y66686D01*
X253622Y63636D01*
X254546Y63019D01*
X255636Y62802D01*
X255637Y62802D01*
X286235D01*
X286235Y62802D01*
X287325Y63019D01*
X287333Y63024D01*
X287450Y62976D01*
X289050D01*
X290529Y63589D01*
X291661Y64721D01*
X292274Y66200D01*
Y67800D01*
X291661Y69279D01*
X290529Y70411D01*
X289050Y71024D01*
X287450D01*
X285971Y70411D01*
X284839Y69279D01*
X284516Y68500D01*
X262841D01*
X261992Y69770D01*
X262274Y70450D01*
Y72050D01*
X261661Y73529D01*
X261099Y74092D01*
Y120250D01*
X260882Y121340D01*
X260264Y122264D01*
X260264Y122264D01*
X249264Y133264D01*
X248340Y133882D01*
X247250Y134099D01*
X247250Y134099D01*
X241787D01*
X241301Y135272D01*
X245555Y139527D01*
X245555Y139527D01*
X246173Y140451D01*
X246390Y141541D01*
Y150515D01*
X247289Y151412D01*
X272960Y151330D01*
Y150997D01*
X273727Y149145D01*
X275145Y147727D01*
X275368Y147635D01*
Y146365D01*
X275145Y146273D01*
X273727Y144855D01*
X273071Y143270D01*
X278000D01*
Y140730D01*
X273071D01*
X273727Y139145D01*
X275145Y137727D01*
X275368Y137635D01*
Y136365D01*
X275145Y136273D01*
X273727Y134855D01*
X273071Y133270D01*
X278000D01*
Y130730D01*
X273071D01*
X273727Y129145D01*
X275145Y127727D01*
X275368Y127635D01*
Y126365D01*
X275145Y126273D01*
X273727Y124855D01*
X273071Y123270D01*
X278000D01*
Y120730D01*
X273071D01*
X273727Y119145D01*
X275145Y117727D01*
X275151Y117725D01*
Y116275D01*
X275145Y116273D01*
X273727Y114855D01*
X273071Y113270D01*
X278000D01*
Y112000D01*
X279270D01*
Y107071D01*
X280855Y107727D01*
X282273Y109145D01*
X282365Y109368D01*
X283635D01*
X283727Y109145D01*
X285145Y107727D01*
X286730Y107071D01*
Y112000D01*
X289270D01*
Y107071D01*
X290855Y107727D01*
X292273Y109145D01*
X292365Y109368D01*
X293635D01*
X293727Y109145D01*
X295145Y107727D01*
X296730Y107071D01*
Y112000D01*
X299270D01*
Y107071D01*
X300855Y107727D01*
X302273Y109145D01*
X302365Y109368D01*
X303635D01*
X303727Y109145D01*
X305145Y107727D01*
X306730Y107071D01*
Y112000D01*
X309270D01*
Y107071D01*
X310855Y107727D01*
X312273Y109145D01*
X312365Y109368D01*
X313635Y109115D01*
Y5640D01*
X26557D01*
X24448Y6513D01*
X22834Y8127D01*
X21960Y10236D01*
Y11378D01*
Y151235D01*
X22860Y152131D01*
X32817Y152099D01*
D02*
G37*
%LPC*%
G36*
X271270Y391429D02*
Y387770D01*
X274929D01*
X274273Y389355D01*
X272855Y390773D01*
X271270Y391429D01*
D02*
G37*
G36*
X268730D02*
X267145Y390773D01*
X265727Y389355D01*
X265071Y387770D01*
X268730D01*
Y391429D01*
D02*
G37*
G36*
X274929Y385230D02*
X271270D01*
Y381571D01*
X272855Y382227D01*
X274273Y383645D01*
X274929Y385230D01*
D02*
G37*
G36*
X268730D02*
X265071D01*
X265727Y383645D01*
X267145Y382227D01*
X268730Y381571D01*
Y385230D01*
D02*
G37*
G36*
X111550Y374024D02*
X109950D01*
X108471Y373411D01*
X107339Y372279D01*
X106726Y370800D01*
Y369200D01*
X107339Y367721D01*
X108471Y366589D01*
X109950Y365976D01*
X111550D01*
X113029Y366589D01*
X114161Y367721D01*
X114774Y369200D01*
Y370800D01*
X114161Y372279D01*
X113029Y373411D01*
X111550Y374024D01*
D02*
G37*
G36*
X99001Y383106D02*
X97400D01*
X95921Y382494D01*
X94789Y381362D01*
X94176Y379883D01*
Y378282D01*
X94789Y376803D01*
X95921Y375671D01*
X97065Y375197D01*
X97114Y373885D01*
X95971Y373411D01*
X94839Y372279D01*
X94226Y370800D01*
Y369200D01*
X94839Y367721D01*
X95971Y366589D01*
X97450Y365976D01*
X99050D01*
X100529Y366589D01*
X101661Y367721D01*
X102274Y369200D01*
Y370800D01*
X101661Y372279D01*
X100529Y373411D01*
X99386Y373885D01*
X99336Y375197D01*
X100480Y375671D01*
X101612Y376803D01*
X102224Y378282D01*
Y379883D01*
X101612Y381362D01*
X100480Y382494D01*
X99001Y383106D01*
D02*
G37*
G36*
X413550Y372774D02*
X411950D01*
X410471Y372161D01*
X409339Y371029D01*
X408726Y369550D01*
Y367950D01*
X409339Y366471D01*
X410471Y365339D01*
X411950Y364726D01*
X413550D01*
X415029Y365339D01*
X416161Y366471D01*
X416774Y367950D01*
Y369550D01*
X416161Y371029D01*
X415029Y372161D01*
X413550Y372774D01*
D02*
G37*
G36*
X532550Y372524D02*
X530950D01*
X529471Y371911D01*
X528339Y370779D01*
X527726Y369300D01*
Y367700D01*
X528339Y366221D01*
X529471Y365089D01*
X530950Y364476D01*
X532550D01*
X534029Y365089D01*
X535161Y366221D01*
X535774Y367700D01*
Y369300D01*
X535161Y370779D01*
X534029Y371911D01*
X532550Y372524D01*
D02*
G37*
G36*
X500050Y372524D02*
X498450D01*
X496971Y371911D01*
X495839Y370779D01*
X495226Y369300D01*
Y367700D01*
X495839Y366221D01*
X496971Y365089D01*
X498450Y364476D01*
X500050D01*
X501529Y365089D01*
X502661Y366221D01*
X503274Y367700D01*
Y369300D01*
X502661Y370779D01*
X501529Y371911D01*
X500050Y372524D01*
D02*
G37*
G36*
X89225Y371661D02*
X87624D01*
X86145Y371048D01*
X85013Y369916D01*
X84400Y368437D01*
Y366836D01*
X85013Y365357D01*
X86145Y364226D01*
X87624Y363613D01*
X89225D01*
X90704Y364226D01*
X91836Y365357D01*
X92448Y366836D01*
Y368437D01*
X91836Y369916D01*
X90704Y371048D01*
X89225Y371661D01*
D02*
G37*
G36*
X372550Y363774D02*
X370950D01*
X369471Y363161D01*
X368339Y362029D01*
X367726Y360550D01*
Y358950D01*
X368339Y357471D01*
X369471Y356339D01*
X370950Y355726D01*
X372550D01*
X374029Y356339D01*
X375161Y357471D01*
X375774Y358950D01*
Y360550D01*
X375161Y362029D01*
X374029Y363161D01*
X372550Y363774D01*
D02*
G37*
G36*
X165621Y361274D02*
X164020D01*
X162541Y360661D01*
X161409Y359529D01*
X160797Y358050D01*
Y356450D01*
X161409Y354971D01*
X162541Y353839D01*
X164020Y353226D01*
X165621D01*
X167100Y353839D01*
X168232Y354971D01*
X168845Y356450D01*
Y358050D01*
X168232Y359529D01*
X167100Y360661D01*
X165621Y361274D01*
D02*
G37*
G36*
X156190D02*
X154590D01*
X153111Y360661D01*
X151979Y359529D01*
X151366Y358050D01*
Y356450D01*
X151979Y354971D01*
X153111Y353839D01*
X154590Y353226D01*
X156190D01*
X157669Y353839D01*
X158801Y354971D01*
X159414Y356450D01*
Y358050D01*
X158801Y359529D01*
X157669Y360661D01*
X156190Y361274D01*
D02*
G37*
G36*
X327300Y360024D02*
X325700D01*
X324221Y359411D01*
X323089Y358279D01*
X322476Y356800D01*
Y355200D01*
X323089Y353721D01*
X324221Y352589D01*
X325700Y351976D01*
X327300D01*
X328779Y352589D01*
X329911Y353721D01*
X330524Y355200D01*
Y356800D01*
X329911Y358279D01*
X328779Y359411D01*
X327300Y360024D01*
D02*
G37*
G36*
X277800Y359274D02*
X276200D01*
X274721Y358661D01*
X273589Y357529D01*
X272976Y356050D01*
Y354450D01*
X273589Y352971D01*
X274721Y351839D01*
X276200Y351226D01*
X277800D01*
X279279Y351839D01*
X280411Y352971D01*
X281024Y354450D01*
Y356050D01*
X280411Y357529D01*
X279279Y358661D01*
X277800Y359274D01*
D02*
G37*
G36*
X216084Y359158D02*
X214484D01*
X213004Y358545D01*
X211873Y357413D01*
X211260Y355934D01*
Y354333D01*
X211873Y352854D01*
X213004Y351722D01*
X214484Y351110D01*
X216084D01*
X217563Y351722D01*
X218695Y352854D01*
X219308Y354333D01*
Y355934D01*
X218695Y357413D01*
X217563Y358545D01*
X216084Y359158D01*
D02*
G37*
G36*
X255533Y358917D02*
X253932D01*
X252453Y358305D01*
X251321Y357173D01*
X250708Y355694D01*
Y354093D01*
X251321Y352614D01*
X252453Y351482D01*
X253932Y350869D01*
X255533D01*
X257012Y351482D01*
X258144Y352614D01*
X258756Y354093D01*
Y355694D01*
X258144Y357173D01*
X257012Y358305D01*
X255533Y358917D01*
D02*
G37*
G36*
X386787Y363124D02*
X384713D01*
X382711Y362587D01*
X380915Y361551D01*
X379449Y360085D01*
X378413Y358289D01*
X377876Y356287D01*
Y354213D01*
X378413Y352211D01*
X379449Y350415D01*
X380915Y348949D01*
X382711Y347913D01*
X384713Y347376D01*
X386787D01*
X388789Y347913D01*
X390585Y348949D01*
X392051Y350415D01*
X393087Y352211D01*
X393624Y354213D01*
Y356287D01*
X393087Y358289D01*
X392051Y360085D01*
X390585Y361551D01*
X388789Y362587D01*
X386787Y363124D01*
D02*
G37*
G36*
X358050Y344274D02*
X356450D01*
X354971Y343661D01*
X353978Y342669D01*
X353250Y342592D01*
X352522Y342669D01*
X351529Y343661D01*
X350050Y344274D01*
X348450D01*
X346971Y343661D01*
X345839Y342529D01*
X345226Y341050D01*
Y339450D01*
X345839Y337971D01*
X346971Y336839D01*
X348450Y336226D01*
X350050D01*
X351529Y336839D01*
X352522Y337831D01*
X353250Y337908D01*
X353978Y337831D01*
X354971Y336839D01*
X356450Y336226D01*
X358050D01*
X359529Y336839D01*
X360661Y337971D01*
X361274Y339450D01*
Y341050D01*
X360661Y342529D01*
X359529Y343661D01*
X358050Y344274D01*
D02*
G37*
G36*
X474283Y357464D02*
X471117D01*
X468059Y356645D01*
X465317Y355062D01*
X463078Y352823D01*
X461495Y350081D01*
X460676Y347023D01*
Y343857D01*
X461495Y340799D01*
X463078Y338057D01*
X465317Y335818D01*
X468059Y334235D01*
X471117Y333416D01*
X474283D01*
X477341Y334235D01*
X480083Y335818D01*
X482322Y338057D01*
X483905Y340799D01*
X484724Y343857D01*
Y347023D01*
X483905Y350081D01*
X482322Y352823D01*
X480083Y355062D01*
X477341Y356645D01*
X474283Y357464D01*
D02*
G37*
G36*
X195081Y358964D02*
X191520D01*
X188080Y358042D01*
X184996Y356262D01*
X182478Y353744D01*
X180698Y350660D01*
X179776Y347220D01*
Y343660D01*
X180698Y340220D01*
X182478Y337136D01*
X184996Y334618D01*
X188080Y332838D01*
X191520Y331916D01*
X195081D01*
X198520Y332838D01*
X201604Y334618D01*
X204122Y337136D01*
X205902Y340220D01*
X206824Y343660D01*
Y347220D01*
X205902Y350660D01*
X204122Y353744D01*
X201604Y356262D01*
X198520Y358042D01*
X195081Y358964D01*
D02*
G37*
G36*
X315530Y331754D02*
X313930D01*
X312451Y331141D01*
X311319Y330009D01*
X310706Y328530D01*
Y326930D01*
X311319Y325451D01*
X312451Y324319D01*
X313930Y323706D01*
X315530D01*
X317009Y324319D01*
X318141Y325451D01*
X318754Y326930D01*
Y328530D01*
X318141Y330009D01*
X317009Y331141D01*
X315530Y331754D01*
D02*
G37*
G36*
X311938Y319945D02*
X310337D01*
X308858Y319332D01*
X307726Y318200D01*
X307114Y316721D01*
Y315120D01*
X307726Y313641D01*
X308858Y312509D01*
X310337Y311897D01*
X311938D01*
X313417Y312509D01*
X314549Y313641D01*
X315162Y315120D01*
Y316721D01*
X314549Y318200D01*
X313417Y319332D01*
X311938Y319945D01*
D02*
G37*
G36*
X294750D02*
X293149D01*
X291670Y319332D01*
X290538Y318200D01*
X289925Y316721D01*
Y315120D01*
X290538Y313641D01*
X291670Y312509D01*
X293149Y311897D01*
X294750D01*
X296229Y312509D01*
X297361Y313641D01*
X297973Y315120D01*
Y316721D01*
X297361Y318200D01*
X296229Y319332D01*
X294750Y319945D01*
D02*
G37*
G36*
X40188Y329274D02*
X37812D01*
X35517Y328659D01*
X33459Y327471D01*
X31779Y325791D01*
X30591Y323733D01*
X29976Y321438D01*
Y319062D01*
X30591Y316767D01*
X31779Y314709D01*
X33459Y313029D01*
X35517Y311841D01*
X37812Y311226D01*
X40188D01*
X42483Y311841D01*
X44541Y313029D01*
X46221Y314709D01*
X47409Y316767D01*
X48024Y319062D01*
Y321438D01*
X47409Y323733D01*
X46221Y325791D01*
X44541Y327471D01*
X42483Y328659D01*
X40188Y329274D01*
D02*
G37*
G36*
X218800Y314524D02*
X217200D01*
X215721Y313911D01*
X214589Y312779D01*
X213976Y311300D01*
Y309700D01*
X214589Y308221D01*
X215721Y307089D01*
X217200Y306476D01*
X218800D01*
X220279Y307089D01*
X221411Y308221D01*
X222024Y309700D01*
Y311300D01*
X221411Y312779D01*
X220279Y313911D01*
X218800Y314524D01*
D02*
G37*
G36*
X228188Y314491D02*
X226587D01*
X225108Y313879D01*
X223976Y312747D01*
X223364Y311268D01*
Y309667D01*
X223976Y308188D01*
X225108Y307056D01*
X226587Y306443D01*
X228188D01*
X229667Y307056D01*
X230799Y308188D01*
X231412Y309667D01*
Y311268D01*
X230799Y312747D01*
X229667Y313879D01*
X228188Y314491D01*
D02*
G37*
G36*
X377551Y311504D02*
X375950D01*
X374471Y310891D01*
X373339Y309759D01*
X372726Y308280D01*
Y306680D01*
X373339Y305201D01*
X374471Y304069D01*
X375950Y303456D01*
X377551D01*
X379029Y304069D01*
X380161Y305201D01*
X380774Y306680D01*
Y308280D01*
X380161Y309759D01*
X379029Y310891D01*
X377551Y311504D01*
D02*
G37*
G36*
X362602Y311162D02*
X361001D01*
X359522Y310549D01*
X358390Y309417D01*
X357778Y307938D01*
Y306337D01*
X358390Y304858D01*
X359522Y303727D01*
X361001Y303114D01*
X362602D01*
X364081Y303727D01*
X365213Y304858D01*
X365826Y306337D01*
Y307938D01*
X365213Y309417D01*
X364081Y310549D01*
X362602Y311162D01*
D02*
G37*
G36*
X324660Y306636D02*
X323060D01*
X321581Y306023D01*
X320449Y304891D01*
X319836Y303412D01*
Y301811D01*
X320449Y300332D01*
X321581Y299200D01*
X323060Y298588D01*
X324660D01*
X326139Y299200D01*
X327271Y300332D01*
X327884Y301811D01*
Y303412D01*
X327271Y304891D01*
X326139Y306023D01*
X324660Y306636D01*
D02*
G37*
G36*
X132800Y306524D02*
X131200D01*
X129721Y305911D01*
X128589Y304779D01*
X127976Y303300D01*
Y301700D01*
X128589Y300221D01*
X129721Y299089D01*
X131200Y298476D01*
X132800D01*
X134279Y299089D01*
X135411Y300221D01*
X136024Y301700D01*
Y303300D01*
X135411Y304779D01*
X134279Y305911D01*
X132800Y306524D01*
D02*
G37*
G36*
X284550Y320024D02*
X282950D01*
X281471Y319411D01*
X280339Y318279D01*
X279726Y316800D01*
Y315200D01*
X280339Y313721D01*
X280854Y313205D01*
X281344Y312375D01*
X280854Y311545D01*
X280339Y311029D01*
X279726Y309550D01*
Y307950D01*
X280339Y306471D01*
X281471Y305339D01*
X281534Y305312D01*
Y303938D01*
X281471Y303911D01*
X280339Y302779D01*
X279726Y301300D01*
Y299700D01*
X280339Y298221D01*
X281471Y297089D01*
X282950Y296476D01*
X284550D01*
X286029Y297089D01*
X287161Y298221D01*
X287774Y299700D01*
Y301300D01*
X287161Y302779D01*
X286029Y303911D01*
X285966Y303938D01*
Y305312D01*
X286029Y305339D01*
X287161Y306471D01*
X287774Y307950D01*
Y309550D01*
X287161Y311029D01*
X286646Y311545D01*
X286156Y312375D01*
X286646Y313205D01*
X287161Y313721D01*
X287774Y315200D01*
Y316800D01*
X287161Y318279D01*
X286029Y319411D01*
X284550Y320024D01*
D02*
G37*
G36*
X270800Y320274D02*
X269200D01*
X267721Y319661D01*
X266589Y318529D01*
X265976Y317050D01*
Y315450D01*
X266589Y313971D01*
X267229Y313330D01*
X267578Y312500D01*
X267229Y311670D01*
X266589Y311029D01*
X265976Y309550D01*
Y307950D01*
X266589Y306471D01*
X267721Y305339D01*
X268086Y305187D01*
Y303813D01*
X267721Y303661D01*
X266589Y302529D01*
X265976Y301050D01*
Y299450D01*
X266589Y297971D01*
X267721Y296839D01*
X269200Y296226D01*
X270800D01*
X272279Y296839D01*
X273411Y297971D01*
X274024Y299450D01*
Y301050D01*
X273411Y302529D01*
X272279Y303661D01*
X271914Y303813D01*
Y305187D01*
X272279Y305339D01*
X273411Y306471D01*
X274024Y307950D01*
Y309550D01*
X273411Y311029D01*
X272771Y311670D01*
X272422Y312500D01*
X272771Y313330D01*
X273411Y313971D01*
X274024Y315450D01*
Y317050D01*
X273411Y318529D01*
X272279Y319661D01*
X270800Y320274D01*
D02*
G37*
G36*
X370050Y304024D02*
X368450D01*
X366971Y303411D01*
X365839Y302279D01*
X365226Y300800D01*
Y299200D01*
X365839Y297721D01*
X366971Y296589D01*
X368450Y295976D01*
X370050D01*
X371529Y296589D01*
X372661Y297721D01*
X373274Y299200D01*
Y300800D01*
X372661Y302279D01*
X371529Y303411D01*
X370050Y304024D01*
D02*
G37*
G36*
X40188Y354274D02*
X37812D01*
X35517Y353659D01*
X33459Y352471D01*
X31779Y350791D01*
X30591Y348733D01*
X29976Y346438D01*
Y344062D01*
X30591Y341767D01*
X31779Y339709D01*
X33459Y338029D01*
X35517Y336841D01*
X37812Y336226D01*
X40188D01*
X42483Y336841D01*
X43052Y337169D01*
X52107Y328115D01*
X52107Y328115D01*
X53031Y327497D01*
X54121Y327280D01*
X54121Y327280D01*
X169331D01*
X183023Y313588D01*
X182095Y311981D01*
X181276Y308923D01*
Y305757D01*
X182095Y302699D01*
X183678Y299957D01*
X185917Y297718D01*
X188659Y296135D01*
X191717Y295316D01*
X194883D01*
X197941Y296135D01*
X200683Y297718D01*
X202922Y299957D01*
X204505Y302699D01*
X205324Y305757D01*
Y308923D01*
X204505Y311981D01*
X202922Y314723D01*
X200683Y316962D01*
X197941Y318545D01*
X194883Y319364D01*
X191717D01*
X188659Y318545D01*
X187052Y317617D01*
X172525Y332143D01*
X171601Y332761D01*
X170511Y332978D01*
X170511Y332978D01*
X55301D01*
X47081Y341198D01*
X47409Y341767D01*
X48024Y344062D01*
Y346438D01*
X47409Y348733D01*
X46221Y350791D01*
X44541Y352471D01*
X42483Y353659D01*
X40188Y354274D01*
D02*
G37*
G36*
X306795Y302215D02*
X305194D01*
X303715Y301602D01*
X302583Y300470D01*
X301971Y298991D01*
Y297390D01*
X302583Y295911D01*
X303715Y294779D01*
X305194Y294167D01*
X306795D01*
X308274Y294779D01*
X309406Y295911D01*
X310019Y297390D01*
Y298991D01*
X309406Y300470D01*
X308274Y301602D01*
X306795Y302215D01*
D02*
G37*
G36*
X377551Y296504D02*
X375950D01*
X374471Y295891D01*
X373339Y294759D01*
X372726Y293280D01*
Y291680D01*
X373339Y290201D01*
X374471Y289069D01*
X375950Y288456D01*
X377551D01*
X379029Y289069D01*
X380161Y290201D01*
X380774Y291680D01*
Y293280D01*
X380161Y294759D01*
X379029Y295891D01*
X377551Y296504D01*
D02*
G37*
G36*
X362300D02*
X360700D01*
X359221Y295891D01*
X358089Y294759D01*
X357476Y293280D01*
Y291680D01*
X358089Y290201D01*
X359221Y289069D01*
X360700Y288456D01*
X362300D01*
X363779Y289069D01*
X364911Y290201D01*
X365524Y291680D01*
Y293280D01*
X364911Y294759D01*
X363779Y295891D01*
X362300Y296504D01*
D02*
G37*
G36*
X401550Y294274D02*
X399950D01*
X398471Y293661D01*
X397339Y292529D01*
X396726Y291050D01*
Y289450D01*
X397339Y287971D01*
X398471Y286839D01*
X399950Y286226D01*
X401550D01*
X403029Y286839D01*
X404161Y287971D01*
X404774Y289450D01*
Y291050D01*
X404161Y292529D01*
X403029Y293661D01*
X401550Y294274D01*
D02*
G37*
G36*
X254800Y294024D02*
X253200D01*
X251721Y293411D01*
X250589Y292279D01*
X249976Y290800D01*
Y289200D01*
X250589Y287721D01*
X251721Y286589D01*
X253200Y285976D01*
X254800D01*
X254956Y286040D01*
X256226Y285192D01*
Y284950D01*
X256839Y283471D01*
X257971Y282339D01*
X259450Y281726D01*
X261050D01*
X262529Y282339D01*
X263661Y283471D01*
X264274Y284950D01*
Y286550D01*
X263661Y288029D01*
X262529Y289161D01*
X261050Y289774D01*
X259450D01*
X259294Y289710D01*
X258024Y290558D01*
Y290800D01*
X257411Y292279D01*
X256279Y293411D01*
X254800Y294024D01*
D02*
G37*
G36*
X337825Y286568D02*
X336224D01*
X334745Y285956D01*
X333614Y284823D01*
X333001Y283344D01*
Y281744D01*
X333614Y280265D01*
X334745Y279133D01*
X336224Y278520D01*
X337825D01*
X339304Y279133D01*
X340436Y280265D01*
X341049Y281744D01*
Y283344D01*
X340436Y284823D01*
X339304Y285956D01*
X337825Y286568D01*
D02*
G37*
G36*
X500976Y311524D02*
X497524D01*
X494138Y310851D01*
X490949Y309530D01*
X488079Y307612D01*
X485638Y305171D01*
X483720Y302301D01*
X482399Y299112D01*
X481726Y295726D01*
Y292274D01*
X482399Y288888D01*
X483720Y285699D01*
X485638Y282829D01*
X488079Y280388D01*
X490949Y278470D01*
X494138Y277150D01*
X497524Y276476D01*
X500976D01*
X504362Y277150D01*
X507551Y278470D01*
X510421Y280388D01*
X512862Y282829D01*
X514780Y285699D01*
X516101Y288888D01*
X516774Y292274D01*
Y295726D01*
X516101Y299112D01*
X514780Y302301D01*
X512862Y305171D01*
X510421Y307612D01*
X507551Y309530D01*
X504362Y310851D01*
X500976Y311524D01*
D02*
G37*
G36*
X416800Y282274D02*
X415200D01*
X413721Y281661D01*
X412589Y280529D01*
X411976Y279050D01*
Y277450D01*
X412589Y275971D01*
X413721Y274839D01*
X415200Y274226D01*
X416800D01*
X418279Y274839D01*
X419411Y275971D01*
X420024Y277450D01*
Y279050D01*
X419411Y280529D01*
X418279Y281661D01*
X416800Y282274D01*
D02*
G37*
G36*
X405300Y282024D02*
X403700D01*
X402221Y281411D01*
X401089Y280279D01*
X400476Y278800D01*
Y277200D01*
X401089Y275721D01*
X402221Y274589D01*
X403700Y273976D01*
X405300D01*
X406779Y274589D01*
X407911Y275721D01*
X408524Y277200D01*
Y278800D01*
X407911Y280279D01*
X406779Y281411D01*
X405300Y282024D01*
D02*
G37*
G36*
X432550Y281774D02*
X430950D01*
X429471Y281161D01*
X428339Y280029D01*
X427726Y278550D01*
Y276950D01*
X428339Y275471D01*
X429471Y274339D01*
X430950Y273726D01*
X432550D01*
X434029Y274339D01*
X435161Y275471D01*
X435774Y276950D01*
Y278550D01*
X435161Y280029D01*
X434029Y281161D01*
X432550Y281774D01*
D02*
G37*
G36*
X346790Y273263D02*
X345189D01*
X343710Y272651D01*
X342578Y271519D01*
X341965Y270040D01*
Y268439D01*
X342578Y266960D01*
X343710Y265828D01*
X345189Y265215D01*
X346790D01*
X348269Y265828D01*
X349401Y266960D01*
X350013Y268439D01*
Y270040D01*
X349401Y271519D01*
X348269Y272651D01*
X346790Y273263D01*
D02*
G37*
G36*
X358050Y269774D02*
X356450D01*
X354971Y269161D01*
X353839Y268029D01*
X353226Y266550D01*
Y264950D01*
X353839Y263471D01*
X354971Y262339D01*
X356450Y261726D01*
X358050D01*
X359529Y262339D01*
X360661Y263471D01*
X361274Y264950D01*
Y266550D01*
X360661Y268029D01*
X359529Y269161D01*
X358050Y269774D01*
D02*
G37*
G36*
X194883Y281264D02*
X191717D01*
X188659Y280445D01*
X185917Y278862D01*
X183678Y276623D01*
X182095Y273881D01*
X181276Y270823D01*
Y267657D01*
X182095Y264599D01*
X183678Y261857D01*
X185917Y259618D01*
X188659Y258035D01*
X191717Y257216D01*
X194883D01*
X197941Y258035D01*
X200683Y259618D01*
X202922Y261857D01*
X204505Y264599D01*
X205324Y267657D01*
Y270823D01*
X204505Y273881D01*
X202922Y276623D01*
X200683Y278862D01*
X197941Y280445D01*
X194883Y281264D01*
D02*
G37*
G36*
X82050Y246774D02*
X80450D01*
X78971Y246161D01*
X77875Y245066D01*
X76779Y246161D01*
X75300Y246774D01*
X73700D01*
X72221Y246161D01*
X71089Y245029D01*
X70476Y243550D01*
Y241950D01*
X71089Y240471D01*
X72221Y239339D01*
X73700Y238726D01*
X75300D01*
X76779Y239339D01*
X77875Y240434D01*
X78971Y239339D01*
X80450Y238726D01*
X82050D01*
X83529Y239339D01*
X84661Y240471D01*
X85274Y241950D01*
Y243550D01*
X84661Y245029D01*
X83529Y246161D01*
X82050Y246774D01*
D02*
G37*
G36*
X130020Y242179D02*
Y238520D01*
X133679D01*
X133023Y240105D01*
X131605Y241523D01*
X130020Y242179D01*
D02*
G37*
G36*
X127480D02*
X125895Y241523D01*
X124477Y240105D01*
X123821Y238520D01*
X127480D01*
Y242179D01*
D02*
G37*
G36*
X354300Y244024D02*
X352700D01*
X351221Y243411D01*
X350089Y242279D01*
X349476Y240800D01*
Y239200D01*
X350089Y237721D01*
X351221Y236589D01*
X352700Y235976D01*
X354300D01*
X355779Y236589D01*
X356911Y237721D01*
X357524Y239200D01*
Y240800D01*
X356911Y242279D01*
X355779Y243411D01*
X354300Y244024D01*
D02*
G37*
G36*
X280963Y243302D02*
X279362D01*
X277883Y242689D01*
X276751Y241557D01*
X276138Y240078D01*
Y238477D01*
X276751Y236998D01*
X277883Y235866D01*
X279362Y235254D01*
X280963D01*
X282442Y235866D01*
X283574Y236998D01*
X284186Y238477D01*
Y240078D01*
X283574Y241557D01*
X282442Y242689D01*
X280963Y243302D01*
D02*
G37*
G36*
X331550Y241774D02*
X329950D01*
X328471Y241161D01*
X327339Y240029D01*
X326726Y238550D01*
Y236950D01*
X327339Y235471D01*
X328471Y234339D01*
X329950Y233726D01*
X331550D01*
X333029Y234339D01*
X334161Y235471D01*
X334774Y236950D01*
Y238550D01*
X334161Y240029D01*
X333029Y241161D01*
X331550Y241774D01*
D02*
G37*
G36*
X151050Y240524D02*
X149450D01*
X147971Y239911D01*
X146839Y238779D01*
X146226Y237300D01*
Y235700D01*
X146839Y234221D01*
X147971Y233089D01*
X149450Y232476D01*
X151050D01*
X152529Y233089D01*
X153661Y234221D01*
X154274Y235700D01*
Y237300D01*
X153661Y238779D01*
X152529Y239911D01*
X151050Y240524D01*
D02*
G37*
G36*
X133679Y235980D02*
X130020D01*
Y232321D01*
X131605Y232977D01*
X133023Y234395D01*
X133679Y235980D01*
D02*
G37*
G36*
X296232Y240297D02*
X294631D01*
X293152Y239684D01*
X292020Y238552D01*
X291407Y237073D01*
Y235472D01*
X292020Y233993D01*
X293152Y232861D01*
X294631Y232249D01*
X296232D01*
X297711Y232861D01*
X298843Y233993D01*
X299455Y235472D01*
Y237073D01*
X298843Y238552D01*
X297711Y239684D01*
X296232Y240297D01*
D02*
G37*
G36*
X127480Y235980D02*
X123047D01*
X122537Y235774D01*
X121950D01*
X120471Y235161D01*
X119339Y234029D01*
X118726Y232550D01*
Y230950D01*
X119339Y229471D01*
X120471Y228339D01*
X121950Y227726D01*
X123550D01*
X125029Y228339D01*
X126161Y229471D01*
X126774Y230950D01*
Y231239D01*
X127480Y231943D01*
Y235980D01*
D02*
G37*
G36*
X474283Y281264D02*
X471117D01*
X468059Y280445D01*
X465317Y278862D01*
X463078Y276623D01*
X461495Y273881D01*
X460676Y270823D01*
Y267657D01*
X461495Y264599D01*
X463078Y261857D01*
X465317Y259618D01*
X468059Y258035D01*
X471117Y257216D01*
X474283D01*
X477341Y258035D01*
X480083Y259618D01*
X480553Y260088D01*
X481726Y259602D01*
Y226476D01*
X516774D01*
Y261524D01*
X483596D01*
X482863Y262794D01*
X483905Y264599D01*
X484724Y267657D01*
Y270823D01*
X483905Y273881D01*
X482322Y276623D01*
X480083Y278862D01*
X477341Y280445D01*
X474283Y281264D01*
D02*
G37*
G36*
X271800Y233274D02*
X270200D01*
X268721Y232661D01*
X267589Y231529D01*
X266976Y230050D01*
Y228450D01*
X267589Y226971D01*
X268721Y225839D01*
X270200Y225226D01*
X271800D01*
X273279Y225839D01*
X274411Y226971D01*
X275024Y228450D01*
Y230050D01*
X274411Y231529D01*
X273279Y232661D01*
X271800Y233274D01*
D02*
G37*
G36*
X306787Y240719D02*
X305186D01*
X303707Y240106D01*
X302575Y238974D01*
X301962Y237495D01*
Y235894D01*
X302575Y234415D01*
X303386Y233605D01*
X303295Y232334D01*
X303221Y232161D01*
X302089Y231029D01*
X301476Y229550D01*
Y227950D01*
X302089Y226471D01*
X303221Y225339D01*
X304700Y224726D01*
X306300D01*
X307779Y225339D01*
X308911Y226471D01*
X309524Y227950D01*
Y229550D01*
X308911Y231029D01*
X308100Y231840D01*
X308191Y233111D01*
X308266Y233283D01*
X309398Y234415D01*
X310010Y235894D01*
Y237495D01*
X309398Y238974D01*
X308266Y240106D01*
X306787Y240719D01*
D02*
G37*
G36*
X321831Y232710D02*
X320230D01*
X318751Y232097D01*
X317619Y230966D01*
X317007Y229487D01*
Y227886D01*
X317619Y226407D01*
X318751Y225275D01*
X320230Y224662D01*
X321831D01*
X323310Y225275D01*
X324442Y226407D01*
X325055Y227886D01*
Y229487D01*
X324442Y230966D01*
X323310Y232097D01*
X321831Y232710D01*
D02*
G37*
G36*
X358300Y232024D02*
X356700D01*
X355221Y231411D01*
X354089Y230279D01*
X353476Y228800D01*
Y227200D01*
X354089Y225721D01*
X355221Y224589D01*
X356700Y223976D01*
X358300D01*
X359779Y224589D01*
X360911Y225721D01*
X361524Y227200D01*
Y228800D01*
X360911Y230279D01*
X359779Y231411D01*
X358300Y232024D01*
D02*
G37*
G36*
X344300D02*
X342700D01*
X341221Y231411D01*
X340089Y230279D01*
X339476Y228800D01*
Y227200D01*
X340089Y225721D01*
X341221Y224589D01*
X342700Y223976D01*
X344300D01*
X345779Y224589D01*
X346911Y225721D01*
X347524Y227200D01*
Y228800D01*
X346911Y230279D01*
X345779Y231411D01*
X344300Y232024D01*
D02*
G37*
G36*
X194883Y243164D02*
X191717D01*
X188659Y242345D01*
X185917Y240762D01*
X183678Y238523D01*
X182095Y235781D01*
X181276Y232723D01*
Y229557D01*
X182095Y226499D01*
X183678Y223757D01*
X185917Y221518D01*
X188659Y219935D01*
X191717Y219116D01*
X194883D01*
X197941Y219935D01*
X200683Y221518D01*
X202922Y223757D01*
X204505Y226499D01*
X205324Y229557D01*
Y232723D01*
X204505Y235781D01*
X202922Y238523D01*
X200683Y240762D01*
X197941Y242345D01*
X194883Y243164D01*
D02*
G37*
G36*
X385050Y232274D02*
X383450D01*
X381971Y231661D01*
X380839Y230529D01*
X380226Y229050D01*
Y227450D01*
X380839Y225971D01*
X381654Y225155D01*
X381853Y224375D01*
X381654Y223595D01*
X380839Y222779D01*
X380226Y221300D01*
Y219700D01*
X380839Y218221D01*
X381971Y217089D01*
X383450Y216476D01*
X385050D01*
X386529Y217089D01*
X387661Y218221D01*
X388274Y219700D01*
Y221300D01*
X387661Y222779D01*
X386846Y223595D01*
X386647Y224375D01*
X386846Y225155D01*
X387661Y225971D01*
X388274Y227450D01*
Y229050D01*
X387661Y230529D01*
X386529Y231661D01*
X385050Y232274D01*
D02*
G37*
G36*
X240537Y232245D02*
X238936D01*
X237457Y231632D01*
X236325Y230500D01*
X235712Y229021D01*
Y227420D01*
X236325Y225941D01*
X236771Y225495D01*
X237356Y224666D01*
X236771Y223836D01*
X236325Y223390D01*
X235712Y221911D01*
Y220310D01*
X236325Y218831D01*
X236778Y218378D01*
X237362Y217563D01*
X236778Y216719D01*
X236339Y216279D01*
X235726Y214800D01*
Y213200D01*
X236339Y211721D01*
X237471Y210589D01*
X238950Y209976D01*
X240550D01*
X242029Y210589D01*
X243161Y211721D01*
X243774Y213200D01*
Y214800D01*
X243161Y216279D01*
X242708Y216733D01*
X242124Y217548D01*
X242708Y218392D01*
X243148Y218831D01*
X243760Y220310D01*
Y221911D01*
X243148Y223390D01*
X242702Y223836D01*
X242117Y224666D01*
X242702Y225495D01*
X243148Y225941D01*
X243760Y227420D01*
Y229021D01*
X243148Y230500D01*
X242016Y231632D01*
X240537Y232245D01*
D02*
G37*
G36*
X102300Y224774D02*
X100700D01*
X99221Y224161D01*
X98089Y223029D01*
X97476Y221550D01*
Y219950D01*
X98089Y218471D01*
X99221Y217339D01*
X100700Y216726D01*
Y215524D01*
X99221Y214911D01*
X98089Y213779D01*
X97476Y212300D01*
Y210700D01*
X98089Y209221D01*
X99221Y208089D01*
X100700Y207476D01*
X102300D01*
X103779Y208089D01*
X104911Y209221D01*
X105524Y210700D01*
Y211525D01*
X106200Y211976D01*
X107800D01*
X108476Y211525D01*
Y210700D01*
X109089Y209221D01*
X110221Y208089D01*
X111700Y207476D01*
X113300D01*
X114779Y208089D01*
X115911Y209221D01*
X116524Y210700D01*
Y212300D01*
X115911Y213779D01*
X114779Y214911D01*
X113811Y215313D01*
Y216687D01*
X114779Y217089D01*
X115911Y218221D01*
X116524Y219700D01*
Y221300D01*
X115911Y222779D01*
X114779Y223911D01*
X113300Y224524D01*
X111700D01*
X110221Y223911D01*
X109089Y222779D01*
X108476Y221300D01*
Y220476D01*
X107800Y220024D01*
X106200D01*
X105524Y221119D01*
Y221550D01*
X104911Y223029D01*
X103779Y224161D01*
X102300Y224774D01*
D02*
G37*
G36*
X530550Y209774D02*
X528950D01*
X527471Y209161D01*
X526339Y208029D01*
X525726Y206550D01*
Y204950D01*
X526339Y203471D01*
X527471Y202339D01*
X528950Y201726D01*
X530550D01*
X532029Y202339D01*
X533161Y203471D01*
X533774Y204950D01*
Y206550D01*
X533161Y208029D01*
X532029Y209161D01*
X530550Y209774D01*
D02*
G37*
G36*
X427050Y206274D02*
X425450D01*
X423971Y205661D01*
X422839Y204529D01*
X422226Y203050D01*
Y201450D01*
X422839Y199971D01*
X423971Y198839D01*
X425450Y198226D01*
X427050D01*
X428529Y198839D01*
X429661Y199971D01*
X430274Y201450D01*
Y203050D01*
X429661Y204529D01*
X428529Y205661D01*
X427050Y206274D01*
D02*
G37*
G36*
X407800D02*
X406200D01*
X404721Y205661D01*
X403589Y204529D01*
X402976Y203050D01*
Y201450D01*
X403589Y199971D01*
X404721Y198839D01*
X406200Y198226D01*
X407800D01*
X409279Y198839D01*
X410411Y199971D01*
X411024Y201450D01*
Y203050D01*
X410411Y204529D01*
X409279Y205661D01*
X407800Y206274D01*
D02*
G37*
G36*
X126800Y205274D02*
X125200D01*
X123721Y204661D01*
X122589Y203529D01*
X121976Y202050D01*
Y200450D01*
X122589Y198971D01*
X123721Y197839D01*
X125200Y197226D01*
X126800D01*
X128279Y197839D01*
X129411Y198971D01*
X130024Y200450D01*
Y202050D01*
X129411Y203529D01*
X128279Y204661D01*
X126800Y205274D01*
D02*
G37*
G36*
X387020Y197179D02*
Y193520D01*
X390679D01*
X390023Y195105D01*
X388605Y196523D01*
X387020Y197179D01*
D02*
G37*
G36*
X384480D02*
X382895Y196523D01*
X381477Y195105D01*
X380821Y193520D01*
X384480D01*
Y197179D01*
D02*
G37*
G36*
X417300Y196774D02*
X415700D01*
X414221Y196161D01*
X413089Y195029D01*
X412476Y193550D01*
Y191950D01*
X413089Y190471D01*
X414221Y189339D01*
X415700Y188726D01*
X417300D01*
X418779Y189339D01*
X419911Y190471D01*
X420524Y191950D01*
Y193550D01*
X419911Y195029D01*
X418779Y196161D01*
X417300Y196774D01*
D02*
G37*
G36*
X443800Y196524D02*
X442200D01*
X440721Y195911D01*
X439589Y194779D01*
X438976Y193300D01*
Y191700D01*
X439589Y190221D01*
X440721Y189089D01*
X442200Y188476D01*
X443800D01*
X445279Y189089D01*
X446411Y190221D01*
X447024Y191700D01*
Y193300D01*
X446411Y194779D01*
X445279Y195911D01*
X443800Y196524D01*
D02*
G37*
G36*
X98050Y196274D02*
X96450D01*
X94971Y195661D01*
X93839Y194529D01*
X93226Y193050D01*
Y191450D01*
X93839Y189971D01*
X94971Y188839D01*
X96450Y188226D01*
X98050D01*
X99529Y188839D01*
X100661Y189971D01*
X101274Y191450D01*
Y193050D01*
X100661Y194529D01*
X99529Y195661D01*
X98050Y196274D01*
D02*
G37*
G36*
X390679Y190980D02*
X387020D01*
Y187321D01*
X388605Y187977D01*
X390023Y189395D01*
X390679Y190980D01*
D02*
G37*
G36*
X384480D02*
X380821D01*
X381477Y189395D01*
X382895Y187977D01*
X384480Y187321D01*
Y190980D01*
D02*
G37*
G36*
X474283Y205064D02*
X471117D01*
X468059Y204245D01*
X465317Y202662D01*
X463078Y200423D01*
X461495Y197681D01*
X460676Y194623D01*
Y191457D01*
X461495Y188399D01*
X462394Y186842D01*
X461510Y185834D01*
X461050Y186024D01*
X459450D01*
X457971Y185411D01*
X456839Y184279D01*
X456226Y182800D01*
Y181200D01*
X456839Y179721D01*
X457971Y178589D01*
X459450Y177976D01*
X461050D01*
X462529Y178589D01*
X463661Y179721D01*
X464274Y181200D01*
Y182665D01*
X464884Y183158D01*
X465416Y183361D01*
X468059Y181835D01*
X471117Y181016D01*
X474283D01*
X477341Y181835D01*
X480083Y183418D01*
X482322Y185657D01*
X483905Y188399D01*
X484724Y191457D01*
Y194623D01*
X483905Y197681D01*
X482322Y200423D01*
X480083Y202662D01*
X477341Y204245D01*
X474283Y205064D01*
D02*
G37*
G36*
X195081Y206564D02*
X191520D01*
X188080Y205642D01*
X184996Y203862D01*
X182478Y201344D01*
X180698Y198260D01*
X179776Y194820D01*
Y191259D01*
X180698Y187820D01*
X182478Y184736D01*
X184996Y182218D01*
X188080Y180438D01*
X191520Y179516D01*
X195081D01*
X198520Y180438D01*
X201604Y182218D01*
X204122Y184736D01*
X205902Y187820D01*
X206824Y191259D01*
Y194820D01*
X205902Y198260D01*
X204122Y201344D01*
X201604Y203862D01*
X198520Y205642D01*
X195081Y206564D01*
D02*
G37*
G36*
X591553Y187750D02*
X589447D01*
X587412Y187205D01*
X585588Y186152D01*
X584098Y184662D01*
X583045Y182838D01*
X582500Y180803D01*
Y178697D01*
X583045Y176662D01*
X584098Y174838D01*
X585588Y173348D01*
X587412Y172295D01*
X589447Y171750D01*
X591553D01*
X593588Y172295D01*
X595412Y173348D01*
X596902Y174838D01*
X597955Y176662D01*
X598500Y178697D01*
Y180803D01*
X597955Y182838D01*
X596902Y184662D01*
X595412Y186152D01*
X593588Y187205D01*
X591553Y187750D01*
D02*
G37*
G36*
X158800Y178274D02*
X157200D01*
X155721Y177661D01*
X154589Y176529D01*
X153976Y175050D01*
Y173450D01*
X154589Y171971D01*
X155721Y170839D01*
X157200Y170226D01*
X158800D01*
X160279Y170839D01*
X161411Y171971D01*
X162024Y173450D01*
Y175050D01*
X161411Y176529D01*
X160279Y177661D01*
X158800Y178274D01*
D02*
G37*
G36*
X520118Y190524D02*
X517282D01*
X514541Y189790D01*
X512085Y188371D01*
X510079Y186365D01*
X508660Y183909D01*
X507926Y181168D01*
Y178332D01*
X508660Y175591D01*
X510079Y173135D01*
X512085Y171129D01*
X514541Y169710D01*
X517282Y168976D01*
X520118D01*
X522859Y169710D01*
X525315Y171129D01*
X527321Y173135D01*
X528740Y175591D01*
X529474Y178332D01*
Y181168D01*
X528740Y183909D01*
X527321Y186365D01*
X525315Y188371D01*
X522859Y189790D01*
X520118Y190524D01*
D02*
G37*
G36*
X483300Y169274D02*
X481700D01*
X480221Y168661D01*
X479089Y167529D01*
X478937Y167164D01*
X477563D01*
X477411Y167529D01*
X476279Y168661D01*
X474800Y169274D01*
X473200D01*
X471721Y168661D01*
X470589Y167529D01*
X469976Y166050D01*
Y164450D01*
X470589Y162971D01*
X471721Y161839D01*
X473200Y161226D01*
X474800D01*
X476279Y161839D01*
X477411Y162971D01*
X477563Y163336D01*
X478937D01*
X479089Y162971D01*
X480221Y161839D01*
X481700Y161226D01*
X483300D01*
X484779Y161839D01*
X485911Y162971D01*
X486524Y164450D01*
Y166050D01*
X485911Y167529D01*
X484779Y168661D01*
X483300Y169274D01*
D02*
G37*
G36*
X424175Y172899D02*
X422575D01*
X421096Y172286D01*
X419964Y171154D01*
X419351Y169675D01*
Y168075D01*
X419964Y166596D01*
X421096Y165464D01*
X422575Y164851D01*
X424175D01*
X425654Y165464D01*
X426786Y166596D01*
X427399Y168075D01*
Y169675D01*
X426786Y171154D01*
X425654Y172286D01*
X424175Y172899D01*
D02*
G37*
G36*
X451420Y163844D02*
X449820D01*
X448341Y163231D01*
X447209Y162099D01*
X446596Y160620D01*
Y159020D01*
X447209Y157541D01*
X448341Y156409D01*
X449820Y155796D01*
X451420D01*
X452899Y156409D01*
X454031Y157541D01*
X454644Y159020D01*
Y160620D01*
X454031Y162099D01*
X452899Y163231D01*
X451420Y163844D01*
D02*
G37*
G36*
X436420D02*
X434820D01*
X433341Y163231D01*
X432209Y162099D01*
X431596Y160620D01*
Y159020D01*
X432209Y157541D01*
X433341Y156409D01*
X434820Y155796D01*
X436420D01*
X437899Y156409D01*
X439031Y157541D01*
X439644Y159020D01*
Y160620D01*
X439031Y162099D01*
X437899Y163231D01*
X436420Y163844D01*
D02*
G37*
G36*
X406050Y188774D02*
X404450D01*
X402971Y188161D01*
X401839Y187029D01*
X401226Y185550D01*
Y183950D01*
X401839Y182471D01*
X402654Y181655D01*
X402853Y180875D01*
X402654Y180095D01*
X401839Y179279D01*
X401226Y177800D01*
Y176200D01*
X401839Y174721D01*
X402355Y174205D01*
X402844Y173375D01*
X402355Y172545D01*
X401839Y172029D01*
X401226Y170550D01*
Y168950D01*
X401839Y167471D01*
X402971Y166339D01*
X404450Y165726D01*
X404545D01*
X405394Y164456D01*
X405226Y164050D01*
Y162450D01*
X405839Y160971D01*
X406971Y159839D01*
X408450Y159226D01*
X409881D01*
X410280Y158980D01*
X410976Y158235D01*
Y156950D01*
X411589Y155471D01*
X412721Y154339D01*
X414200Y153726D01*
X415800D01*
X417279Y154339D01*
X418411Y155471D01*
X419024Y156950D01*
Y158550D01*
X418411Y160029D01*
X417279Y161161D01*
X415800Y161774D01*
X414369D01*
X413969Y162020D01*
X413274Y162765D01*
Y164050D01*
X412661Y165529D01*
X411529Y166661D01*
X410050Y167274D01*
X409955D01*
X409106Y168544D01*
X409274Y168950D01*
Y170550D01*
X408661Y172029D01*
X408145Y172545D01*
X407656Y173375D01*
X408145Y174205D01*
X408661Y174721D01*
X409274Y176200D01*
Y177800D01*
X408661Y179279D01*
X407846Y180095D01*
X407647Y180875D01*
X407846Y181655D01*
X408661Y182471D01*
X409274Y183950D01*
Y185550D01*
X408661Y187029D01*
X407529Y188161D01*
X406050Y188774D01*
D02*
G37*
G36*
X444050Y156274D02*
X442450D01*
X440971Y155661D01*
X439839Y154529D01*
X439226Y153050D01*
Y151450D01*
X439839Y149971D01*
X440971Y148839D01*
X442450Y148226D01*
X444050D01*
X445529Y148839D01*
X446661Y149971D01*
X447274Y151450D01*
Y153050D01*
X446661Y154529D01*
X445529Y155661D01*
X444050Y156274D01*
D02*
G37*
G36*
X591553Y162750D02*
X589447D01*
X587412Y162205D01*
X585588Y161152D01*
X584098Y159662D01*
X583045Y157838D01*
X582500Y155803D01*
Y153697D01*
X583045Y151662D01*
X584098Y149838D01*
X585588Y148348D01*
X587412Y147295D01*
X589447Y146750D01*
X591553D01*
X593588Y147295D01*
X595412Y148348D01*
X596902Y149838D01*
X597955Y151662D01*
X598500Y153697D01*
Y155803D01*
X597955Y157838D01*
X596902Y159662D01*
X595412Y161152D01*
X593588Y162205D01*
X591553Y162750D01*
D02*
G37*
G36*
X529474Y165524D02*
X507926D01*
Y143976D01*
X529474D01*
Y165524D01*
D02*
G37*
G36*
X406550Y153274D02*
X404950D01*
X403471Y152661D01*
X402339Y151529D01*
X401726Y150050D01*
Y148450D01*
X402339Y146971D01*
X403471Y145839D01*
X404950Y145226D01*
X405692D01*
X406540Y143956D01*
X406476Y143800D01*
Y142455D01*
X405829Y141809D01*
X405377Y141535D01*
X404800Y141774D01*
X403200D01*
X401721Y141161D01*
X400589Y140029D01*
X399976Y138550D01*
Y136950D01*
X400589Y135471D01*
X401721Y134339D01*
X403200Y133726D01*
X404800D01*
X406279Y134339D01*
X407411Y135471D01*
X408024Y136950D01*
Y138295D01*
X408671Y138941D01*
X409123Y139215D01*
X409700Y138976D01*
X411300D01*
X412779Y139589D01*
X413911Y140721D01*
X414524Y142200D01*
Y143800D01*
X413911Y145279D01*
X412779Y146411D01*
X411300Y147024D01*
X410558D01*
X409710Y148294D01*
X409774Y148450D01*
Y150050D01*
X409161Y151529D01*
X408029Y152661D01*
X406550Y153274D01*
D02*
G37*
G36*
X451670Y148594D02*
X450070D01*
X448591Y147981D01*
X447459Y146849D01*
X446846Y145370D01*
Y143770D01*
X447459Y142291D01*
X448591Y141159D01*
X450070Y140546D01*
X451670D01*
X453149Y141159D01*
X454281Y142291D01*
X454894Y143770D01*
Y145370D01*
X454281Y146849D01*
X453149Y147981D01*
X451670Y148594D01*
D02*
G37*
G36*
X436420D02*
X434820D01*
X433341Y147981D01*
X432209Y146849D01*
X431596Y145370D01*
Y143770D01*
X432209Y142291D01*
X433341Y141159D01*
X434820Y140546D01*
X436420D01*
X437899Y141159D01*
X439031Y142291D01*
X439644Y143770D01*
Y145370D01*
X439031Y146849D01*
X437899Y147981D01*
X436420Y148594D01*
D02*
G37*
G36*
X386550Y140524D02*
X384950D01*
X383471Y139911D01*
X382339Y138779D01*
X381726Y137300D01*
Y135700D01*
X382339Y134221D01*
X383471Y133089D01*
X384950Y132476D01*
X386550D01*
X388029Y133089D01*
X389161Y134221D01*
X389774Y135700D01*
Y137300D01*
X389161Y138779D01*
X388029Y139911D01*
X386550Y140524D01*
D02*
G37*
G36*
X424050Y136274D02*
X422450D01*
X420971Y135661D01*
X419839Y134529D01*
X419226Y133050D01*
Y131449D01*
X419839Y129971D01*
X420584Y129226D01*
X420436Y127790D01*
X420395Y127773D01*
X418977Y126355D01*
X418321Y124770D01*
X428179D01*
X427523Y126355D01*
X426105Y127773D01*
X426064Y127790D01*
X425916Y129226D01*
X426661Y129971D01*
X427274Y131449D01*
Y133050D01*
X426661Y134529D01*
X425529Y135661D01*
X424050Y136274D01*
D02*
G37*
G36*
X428179Y122230D02*
X424520D01*
Y118571D01*
X426105Y119227D01*
X427523Y120645D01*
X428179Y122230D01*
D02*
G37*
G36*
X421980D02*
X418321D01*
X418977Y120645D01*
X420395Y119227D01*
X421980Y118571D01*
Y122230D01*
D02*
G37*
G36*
X450050Y126774D02*
X448450D01*
X446971Y126161D01*
X445839Y125029D01*
X445226Y123550D01*
Y121950D01*
X445839Y120471D01*
X446216Y120093D01*
X444977Y118855D01*
X444321Y117270D01*
X454179D01*
X453523Y118855D01*
X452284Y120093D01*
X452661Y120471D01*
X453274Y121950D01*
Y123550D01*
X452661Y125029D01*
X451529Y126161D01*
X450050Y126774D01*
D02*
G37*
G36*
X454179Y114730D02*
X450520D01*
Y111071D01*
X452105Y111727D01*
X453523Y113145D01*
X454179Y114730D01*
D02*
G37*
G36*
X447980D02*
X444321D01*
X444977Y113145D01*
X446395Y111727D01*
X447980Y111071D01*
Y114730D01*
D02*
G37*
G36*
X441050Y103774D02*
X439450D01*
X437971Y103161D01*
X436839Y102029D01*
X436437Y101061D01*
X435063D01*
X434661Y102029D01*
X433529Y103161D01*
X432050Y103774D01*
X430450D01*
X428971Y103161D01*
X427839Y102029D01*
X427226Y100550D01*
Y98950D01*
X427839Y97471D01*
X428971Y96339D01*
X430450Y95726D01*
X432050D01*
X433529Y96339D01*
X434661Y97471D01*
X435063Y98439D01*
X436437D01*
X436839Y97471D01*
X437971Y96339D01*
X439450Y95726D01*
X441050D01*
X442529Y96339D01*
X443661Y97471D01*
X443956Y98182D01*
X445226Y97929D01*
Y97700D01*
X445839Y96221D01*
X446971Y95089D01*
X448450Y94476D01*
X450050D01*
X451529Y95089D01*
X452661Y96221D01*
X453274Y97700D01*
Y99300D01*
X452661Y100779D01*
X451529Y101911D01*
X450050Y102524D01*
X448450D01*
X446971Y101911D01*
X445839Y100779D01*
X445544Y100068D01*
X444274Y100321D01*
Y100550D01*
X443661Y102029D01*
X442529Y103161D01*
X441050Y103774D01*
D02*
G37*
G36*
X405300Y95024D02*
X403700D01*
X402221Y94411D01*
X401089Y93279D01*
X400476Y91800D01*
Y90200D01*
X401089Y88721D01*
X402221Y87589D01*
X403700Y86976D01*
X405300D01*
X406779Y87589D01*
X407911Y88721D01*
X408524Y90200D01*
Y91800D01*
X407911Y93279D01*
X406779Y94411D01*
X405300Y95024D01*
D02*
G37*
G36*
X392300Y79774D02*
X390700D01*
X389221Y79161D01*
X388089Y78029D01*
X387476Y76550D01*
Y74950D01*
X388089Y73471D01*
X389221Y72339D01*
X390700Y71726D01*
X392300D01*
X393779Y72339D01*
X394911Y73471D01*
X395524Y74950D01*
Y76550D01*
X394911Y78029D01*
X393779Y79161D01*
X392300Y79774D01*
D02*
G37*
G36*
X377050D02*
X375450D01*
X373971Y79161D01*
X372839Y78029D01*
X372226Y76550D01*
Y74950D01*
X372839Y73471D01*
X373971Y72339D01*
X375450Y71726D01*
X377050D01*
X378529Y72339D01*
X379661Y73471D01*
X380274Y74950D01*
Y76550D01*
X379661Y78029D01*
X378529Y79161D01*
X377050Y79774D01*
D02*
G37*
G36*
X360770Y74179D02*
Y70520D01*
X364429D01*
X363773Y72105D01*
X362355Y73523D01*
X360770Y74179D01*
D02*
G37*
G36*
X358230D02*
X356645Y73523D01*
X355227Y72105D01*
X354571Y70520D01*
X358230D01*
Y74179D01*
D02*
G37*
G36*
X364429Y67980D02*
X360770D01*
Y64321D01*
X362355Y64977D01*
X363773Y66395D01*
X364429Y67980D01*
D02*
G37*
G36*
X358230D02*
X354571D01*
X355227Y66395D01*
X356645Y64977D01*
X358230Y64321D01*
Y67980D01*
D02*
G37*
G36*
X392800Y45774D02*
X391200D01*
X389721Y45161D01*
X388589Y44029D01*
X387976Y42550D01*
Y40950D01*
X388589Y39471D01*
X389721Y38339D01*
X391200Y37726D01*
X392800D01*
X394279Y38339D01*
X395411Y39471D01*
X396024Y40950D01*
Y42550D01*
X395411Y44029D01*
X394279Y45161D01*
X392800Y45774D01*
D02*
G37*
G36*
X109665Y143730D02*
X99520D01*
Y138332D01*
X103250D01*
X105802Y138839D01*
X107965Y140285D01*
X109411Y142448D01*
X109665Y143730D01*
D02*
G37*
G36*
X96980D02*
X86834D01*
X87090Y142448D01*
X88535Y140285D01*
X90698Y138839D01*
X93250Y138332D01*
X96980D01*
Y143730D01*
D02*
G37*
G36*
X52666D02*
X42520D01*
Y138332D01*
X46250D01*
X48802Y138839D01*
X50965Y140285D01*
X52411Y142448D01*
X52666Y143730D01*
D02*
G37*
G36*
X39980D02*
X29834D01*
X30089Y142448D01*
X31535Y140285D01*
X33698Y138839D01*
X36250Y138332D01*
X39980D01*
Y143730D01*
D02*
G37*
G36*
X52249Y134274D02*
X50251D01*
X48404Y133509D01*
X46991Y132096D01*
X46885Y131840D01*
X45615D01*
X45509Y132096D01*
X44096Y133509D01*
X42249Y134274D01*
X40251D01*
X38404Y133509D01*
X36991Y132096D01*
X36885Y131840D01*
X35615D01*
X35509Y132096D01*
X34096Y133509D01*
X32249Y134274D01*
X30251D01*
X28404Y133509D01*
X26991Y132096D01*
X26226Y130249D01*
Y128251D01*
X26991Y126404D01*
X28404Y124991D01*
X30251Y124226D01*
X32249D01*
X34096Y124991D01*
X35509Y126404D01*
X35615Y126660D01*
X36885D01*
X36991Y126404D01*
X38404Y124991D01*
X40251Y124226D01*
X42249D01*
X44096Y124991D01*
X45509Y126404D01*
X45615Y126660D01*
X46885D01*
X46991Y126404D01*
X48404Y124991D01*
X50251Y124226D01*
X52249D01*
X54096Y124991D01*
X55509Y126404D01*
X56274Y128251D01*
Y130249D01*
X55509Y132096D01*
X54096Y133509D01*
X52249Y134274D01*
D02*
G37*
G36*
X84249D02*
X82251D01*
X80404Y133509D01*
X78991Y132096D01*
X78885Y131840D01*
X77615D01*
X77509Y132096D01*
X76096Y133509D01*
X74249Y134274D01*
X72251D01*
X70404Y133509D01*
X68991Y132096D01*
X68885Y131840D01*
X67615D01*
X67509Y132096D01*
X66096Y133509D01*
X64249Y134274D01*
X62251D01*
X60404Y133509D01*
X58991Y132096D01*
X58226Y130249D01*
Y128251D01*
X58991Y126404D01*
X60404Y124991D01*
X62251Y124226D01*
X64249D01*
X66096Y124991D01*
X67509Y126404D01*
X67615Y126660D01*
X68885D01*
X68991Y126404D01*
X70404Y124991D01*
X72251Y124226D01*
X74249D01*
X76096Y124991D01*
X77509Y126404D01*
X77615Y126660D01*
X78885D01*
X78991Y126404D01*
X80404Y124991D01*
X82251Y124226D01*
X84249D01*
X86096Y124991D01*
X87509Y126404D01*
X88274Y128251D01*
Y130249D01*
X87509Y132096D01*
X86096Y133509D01*
X84249Y134274D01*
D02*
G37*
G36*
X84520Y120762D02*
Y116020D01*
X89262D01*
X88371Y118171D01*
X86671Y119870D01*
X84520Y120762D01*
D02*
G37*
G36*
X74520D02*
Y114750D01*
X71980D01*
Y120762D01*
X69829Y119870D01*
X68361Y118403D01*
X68118Y118173D01*
X66807Y118298D01*
X66096Y119009D01*
X64249Y119774D01*
X62251D01*
X60404Y119009D01*
X58991Y117596D01*
X58463Y116322D01*
X57112Y116380D01*
X56371Y118171D01*
X54671Y119870D01*
X52520Y120762D01*
Y114750D01*
X49980D01*
Y120762D01*
X47829Y119870D01*
X46250Y118292D01*
X44671Y119870D01*
X42520Y120762D01*
Y114750D01*
X39980D01*
Y120762D01*
X37829Y119870D01*
X36361Y118403D01*
X36118Y118173D01*
X34807Y118298D01*
X34096Y119009D01*
X32249Y119774D01*
X30251D01*
X28404Y119009D01*
X26991Y117596D01*
X26226Y115749D01*
Y113751D01*
X26991Y111904D01*
X28404Y110491D01*
X30251Y109726D01*
X32249D01*
X34096Y110491D01*
X34807Y111202D01*
X36118Y111327D01*
X36361Y111097D01*
X37829Y109629D01*
X39620Y108888D01*
X39678Y107537D01*
X38404Y107009D01*
X36991Y105596D01*
X36885Y105340D01*
X35615D01*
X35509Y105596D01*
X34096Y107009D01*
X32249Y107774D01*
X30251D01*
X28404Y107009D01*
X26991Y105596D01*
X26226Y103749D01*
Y101751D01*
X26991Y99904D01*
X28404Y98491D01*
X30251Y97726D01*
X32249D01*
X34096Y98491D01*
X35509Y99904D01*
X35615Y100160D01*
X36885D01*
X36991Y99904D01*
X38404Y98491D01*
X40251Y97726D01*
X42249D01*
X44096Y98491D01*
X45509Y99904D01*
X45615Y100160D01*
X46885D01*
X46991Y99904D01*
X48404Y98491D01*
X50251Y97726D01*
X52249D01*
X54096Y98491D01*
X55509Y99904D01*
X56274Y101751D01*
Y103749D01*
X55509Y105596D01*
X54096Y107009D01*
X52822Y107537D01*
X52880Y108888D01*
X54671Y109629D01*
X56371Y111329D01*
X57112Y113120D01*
X58463Y113178D01*
X58991Y111904D01*
X60404Y110491D01*
X62251Y109726D01*
X64249D01*
X66096Y110491D01*
X66807Y111202D01*
X68118Y111327D01*
X68361Y111097D01*
X69829Y109629D01*
X71620Y108888D01*
X71678Y107537D01*
X70404Y107009D01*
X68991Y105596D01*
X68885Y105340D01*
X67615D01*
X67509Y105596D01*
X66096Y107009D01*
X64249Y107774D01*
X62251D01*
X60404Y107009D01*
X58991Y105596D01*
X58226Y103749D01*
Y101751D01*
X58991Y99904D01*
X60404Y98491D01*
X62251Y97726D01*
X64249D01*
X66096Y98491D01*
X67509Y99904D01*
X67615Y100160D01*
X68885D01*
X68991Y99904D01*
X70404Y98491D01*
X72251Y97726D01*
X74249D01*
X76096Y98491D01*
X77509Y99904D01*
X77615Y100160D01*
X78885D01*
X78991Y99904D01*
X80404Y98491D01*
X82251Y97726D01*
X84249D01*
X86096Y98491D01*
X87509Y99904D01*
X88274Y101751D01*
Y103749D01*
X87509Y105596D01*
X86096Y107009D01*
X84822Y107537D01*
X84880Y108888D01*
X86671Y109629D01*
X88371Y111329D01*
X89262Y113480D01*
X83250D01*
Y114750D01*
X81980D01*
Y120762D01*
X79829Y119870D01*
X78250Y118292D01*
X76671Y119870D01*
X74520Y120762D01*
D02*
G37*
G36*
X276730Y110730D02*
X273071D01*
X273727Y109145D01*
X275145Y107727D01*
X276730Y107071D01*
Y110730D01*
D02*
G37*
G36*
X220250Y105103D02*
X148000D01*
X147604Y105024D01*
X147200D01*
X146826Y104869D01*
X146430Y104790D01*
X146094Y104566D01*
X145721Y104411D01*
X145435Y104126D01*
X145099Y103901D01*
X144874Y103565D01*
X144589Y103279D01*
X144434Y102906D01*
X144209Y102570D01*
X144131Y102174D01*
X143976Y101800D01*
Y101396D01*
X143897Y101000D01*
X143976Y100604D01*
Y100200D01*
X144131Y99826D01*
X144209Y99430D01*
X144434Y99094D01*
X144589Y98721D01*
X144874Y98435D01*
X145099Y98099D01*
X145435Y97874D01*
X145721Y97589D01*
X146094Y97434D01*
X146430Y97210D01*
X146826Y97131D01*
X147200Y96976D01*
X147604D01*
X148000Y96897D01*
X220250D01*
X220646Y96976D01*
X221050D01*
X221424Y97131D01*
X221820Y97210D01*
X222156Y97434D01*
X222529Y97589D01*
X222815Y97874D01*
X223151Y98099D01*
X223376Y98435D01*
X223661Y98721D01*
X223816Y99094D01*
X224041Y99430D01*
X224119Y99826D01*
X224274Y100200D01*
Y100604D01*
X224353Y101000D01*
X224274Y101396D01*
Y101800D01*
X224119Y102174D01*
X224041Y102570D01*
X223816Y102906D01*
X223661Y103279D01*
X223376Y103565D01*
X223151Y103901D01*
X222815Y104126D01*
X222529Y104411D01*
X222156Y104566D01*
X221820Y104790D01*
X221424Y104869D01*
X221050Y105024D01*
X220646D01*
X220250Y105103D01*
D02*
G37*
G36*
X52249Y93274D02*
X50251D01*
X48404Y92509D01*
X46991Y91096D01*
X46885Y90840D01*
X45615D01*
X45509Y91096D01*
X44096Y92509D01*
X42249Y93274D01*
X40251D01*
X38404Y92509D01*
X36991Y91096D01*
X36885Y90840D01*
X35615D01*
X35509Y91096D01*
X34096Y92509D01*
X32249Y93274D01*
X30251D01*
X28404Y92509D01*
X26991Y91096D01*
X26226Y89249D01*
Y87251D01*
X26991Y85404D01*
X28404Y83991D01*
X30251Y83226D01*
X32249D01*
X34096Y83991D01*
X35509Y85404D01*
X35615Y85660D01*
X36885D01*
X36991Y85404D01*
X38404Y83991D01*
X40251Y83226D01*
X42249D01*
X44096Y83991D01*
X45509Y85404D01*
X45615Y85660D01*
X46885D01*
X46991Y85404D01*
X48404Y83991D01*
X50251Y83226D01*
X52249D01*
X54096Y83991D01*
X55509Y85404D01*
X56274Y87251D01*
Y89249D01*
X55509Y91096D01*
X54096Y92509D01*
X52249Y93274D01*
D02*
G37*
G36*
X84249D02*
X82251D01*
X80404Y92509D01*
X78991Y91096D01*
X78885Y90840D01*
X77615D01*
X77509Y91096D01*
X76096Y92509D01*
X74249Y93274D01*
X72251D01*
X70404Y92509D01*
X68991Y91096D01*
X68885Y90840D01*
X67615D01*
X67509Y91096D01*
X66096Y92509D01*
X64249Y93274D01*
X62251D01*
X60404Y92509D01*
X58991Y91096D01*
X58226Y89249D01*
Y87251D01*
X58991Y85404D01*
X60404Y83991D01*
X62251Y83226D01*
X64249D01*
X66096Y83991D01*
X67509Y85404D01*
X67615Y85660D01*
X68885D01*
X68991Y85404D01*
X70404Y83991D01*
X72251Y83226D01*
X74249D01*
X76096Y83991D01*
X77509Y85404D01*
X77615Y85660D01*
X78885D01*
X78991Y85404D01*
X80404Y83991D01*
X82251Y83226D01*
X84249D01*
X86096Y83991D01*
X87509Y85404D01*
X88274Y87251D01*
Y89249D01*
X87509Y91096D01*
X86096Y92509D01*
X84249Y93274D01*
D02*
G37*
G36*
X52249Y78774D02*
X50251D01*
X48404Y78009D01*
X46991Y76596D01*
X46885Y76340D01*
X45615D01*
X45509Y76596D01*
X44096Y78009D01*
X42249Y78774D01*
X40251D01*
X38404Y78009D01*
X36991Y76596D01*
X36885Y76340D01*
X35615D01*
X35509Y76596D01*
X34096Y78009D01*
X32249Y78774D01*
X30251D01*
X28404Y78009D01*
X26991Y76596D01*
X26226Y74749D01*
Y72751D01*
X26991Y70904D01*
X28404Y69491D01*
X30251Y68726D01*
X32249D01*
X34096Y69491D01*
X35509Y70904D01*
X35615Y71160D01*
X36885D01*
X36991Y70904D01*
X38404Y69491D01*
X40251Y68726D01*
X42249D01*
X44096Y69491D01*
X45509Y70904D01*
X45615Y71160D01*
X46885D01*
X46991Y70904D01*
X48404Y69491D01*
X50251Y68726D01*
X52249D01*
X54096Y69491D01*
X55509Y70904D01*
X56274Y72751D01*
Y74749D01*
X55509Y76596D01*
X54096Y78009D01*
X52249Y78774D01*
D02*
G37*
G36*
X84249D02*
X82251D01*
X80404Y78009D01*
X78991Y76596D01*
X78885Y76340D01*
X77615D01*
X77509Y76596D01*
X76096Y78009D01*
X74249Y78774D01*
X72251D01*
X70404Y78009D01*
X68991Y76596D01*
X68885Y76340D01*
X67615D01*
X67509Y76596D01*
X66096Y78009D01*
X64249Y78774D01*
X62251D01*
X60404Y78009D01*
X58991Y76596D01*
X58226Y74749D01*
Y72751D01*
X58991Y70904D01*
X60404Y69491D01*
X62251Y68726D01*
X64249D01*
X66096Y69491D01*
X67509Y70904D01*
X67615Y71160D01*
X68885D01*
X68991Y70904D01*
X70404Y69491D01*
X72251Y68726D01*
X74249D01*
X76096Y69491D01*
X77509Y70904D01*
X77615Y71160D01*
X78885D01*
X78991Y70904D01*
X80404Y69491D01*
X82251Y68726D01*
X84249D01*
X86096Y69491D01*
X87509Y70904D01*
X88274Y72751D01*
Y74749D01*
X87509Y76596D01*
X86096Y78009D01*
X84249Y78774D01*
D02*
G37*
G36*
X161800Y70274D02*
X160200D01*
X158721Y69661D01*
X157589Y68529D01*
X156976Y67050D01*
Y65450D01*
X157589Y63971D01*
X158721Y62839D01*
X160200Y62226D01*
X161800D01*
X163279Y62839D01*
X164411Y63971D01*
X165024Y65450D01*
Y67050D01*
X164411Y68529D01*
X163279Y69661D01*
X161800Y70274D01*
D02*
G37*
G36*
X84249Y64274D02*
X82251D01*
X80404Y63509D01*
X78991Y62096D01*
X78885Y61840D01*
X77615D01*
X77509Y62096D01*
X76096Y63509D01*
X74249Y64274D01*
X72251D01*
X70404Y63509D01*
X68991Y62096D01*
X68885Y61840D01*
X67615D01*
X67509Y62096D01*
X66096Y63509D01*
X64249Y64274D01*
X62251D01*
X60404Y63509D01*
X58991Y62096D01*
X58226Y60249D01*
Y58251D01*
X58991Y56404D01*
X60404Y54991D01*
X61740Y54437D01*
Y53063D01*
X60404Y52509D01*
X58991Y51096D01*
X58463Y49822D01*
X57112Y49880D01*
X56371Y51671D01*
X54671Y53370D01*
X54087Y53612D01*
Y54987D01*
X54096Y54991D01*
X55509Y56404D01*
X56274Y58251D01*
Y60249D01*
X55509Y62096D01*
X54096Y63509D01*
X52249Y64274D01*
X50251D01*
X48404Y63509D01*
X46991Y62096D01*
X46885Y61840D01*
X45615D01*
X45509Y62096D01*
X44096Y63509D01*
X42249Y64274D01*
X40251D01*
X38404Y63509D01*
X36991Y62096D01*
X36885Y61840D01*
X35615D01*
X35509Y62096D01*
X34096Y63509D01*
X32249Y64274D01*
X30251D01*
X28404Y63509D01*
X26991Y62096D01*
X26226Y60249D01*
Y58251D01*
X26991Y56404D01*
X28404Y54991D01*
X29741Y54437D01*
Y53063D01*
X28404Y52509D01*
X26991Y51096D01*
X26226Y49249D01*
Y47251D01*
X26991Y45404D01*
X28404Y43991D01*
X30251Y43226D01*
X32249D01*
X34096Y43991D01*
X34807Y44702D01*
X36118Y44827D01*
X36361Y44597D01*
X37829Y43130D01*
X39980Y42238D01*
Y48250D01*
X42520D01*
Y42238D01*
X44671Y43130D01*
X46250Y44708D01*
X47829Y43130D01*
X49980Y42238D01*
Y48250D01*
X52520D01*
Y42238D01*
X54671Y43130D01*
X56371Y44829D01*
X57112Y46620D01*
X58463Y46678D01*
X58991Y45404D01*
X60404Y43991D01*
X62251Y43226D01*
X64249D01*
X66096Y43991D01*
X66807Y44702D01*
X68118Y44827D01*
X68361Y44597D01*
X69829Y43130D01*
X71980Y42238D01*
Y48250D01*
X74520D01*
Y42238D01*
X76671Y43130D01*
X78250Y44708D01*
X79829Y43130D01*
X81980Y42238D01*
Y48250D01*
X83250D01*
Y49520D01*
X89262D01*
X88371Y51671D01*
X86671Y53370D01*
X86087Y53612D01*
Y54987D01*
X86096Y54991D01*
X87509Y56404D01*
X88274Y58251D01*
Y60249D01*
X87509Y62096D01*
X86096Y63509D01*
X84249Y64274D01*
D02*
G37*
G36*
X102550Y51024D02*
X100950D01*
X99471Y50411D01*
X98375Y49316D01*
X97452Y50239D01*
X95973Y50851D01*
X94372D01*
X92893Y50239D01*
X91761Y49107D01*
X91149Y47628D01*
Y46027D01*
X91761Y44548D01*
X92893Y43416D01*
X94372Y42804D01*
X95973D01*
X97452Y43416D01*
X98547Y44512D01*
X99471Y43589D01*
X100950Y42976D01*
X102550D01*
X104029Y43589D01*
X105161Y44721D01*
X105774Y46200D01*
Y47800D01*
X105161Y49279D01*
X104029Y50411D01*
X102550Y51024D01*
D02*
G37*
G36*
X89262Y46980D02*
X84520D01*
Y42238D01*
X86671Y43130D01*
X88371Y44829D01*
X89262Y46980D01*
D02*
G37*
G36*
X52249Y37774D02*
X50251D01*
X48404Y37009D01*
X46991Y35596D01*
X46885Y35340D01*
X45615D01*
X45509Y35596D01*
X44096Y37009D01*
X42249Y37774D01*
X40251D01*
X38404Y37009D01*
X36991Y35596D01*
X36885Y35340D01*
X35615D01*
X35509Y35596D01*
X34096Y37009D01*
X32249Y37774D01*
X30251D01*
X28404Y37009D01*
X26991Y35596D01*
X26226Y33749D01*
Y31751D01*
X26991Y29904D01*
X28404Y28491D01*
X30251Y27726D01*
X32249D01*
X34096Y28491D01*
X35509Y29904D01*
X35615Y30160D01*
X36885D01*
X36991Y29904D01*
X38404Y28491D01*
X40251Y27726D01*
X42249D01*
X44096Y28491D01*
X45509Y29904D01*
X45615Y30160D01*
X46885D01*
X46991Y29904D01*
X48404Y28491D01*
X50251Y27726D01*
X52249D01*
X54096Y28491D01*
X55509Y29904D01*
X56274Y31751D01*
Y33749D01*
X55509Y35596D01*
X54096Y37009D01*
X52249Y37774D01*
D02*
G37*
G36*
X84249D02*
X82251D01*
X80404Y37009D01*
X78991Y35596D01*
X78885Y35340D01*
X77615D01*
X77509Y35596D01*
X76096Y37009D01*
X74249Y37774D01*
X72251D01*
X70404Y37009D01*
X68991Y35596D01*
X68885Y35340D01*
X67615D01*
X67509Y35596D01*
X66096Y37009D01*
X64249Y37774D01*
X62251D01*
X60404Y37009D01*
X58991Y35596D01*
X58226Y33749D01*
Y31751D01*
X58991Y29904D01*
X60404Y28491D01*
X62251Y27726D01*
X64249D01*
X66096Y28491D01*
X67509Y29904D01*
X67615Y30160D01*
X68885D01*
X68991Y29904D01*
X70404Y28491D01*
X72251Y27726D01*
X74249D01*
X76096Y28491D01*
X77509Y29904D01*
X77615Y30160D01*
X78885D01*
X78991Y29904D01*
X80404Y28491D01*
X82251Y27726D01*
X84249D01*
X86096Y28491D01*
X87509Y29904D01*
X88274Y31751D01*
Y33749D01*
X87509Y35596D01*
X86096Y37009D01*
X84249Y37774D01*
D02*
G37*
G36*
X103250Y23668D02*
X99520D01*
Y18270D01*
X109665D01*
X109411Y19552D01*
X107965Y21715D01*
X105802Y23161D01*
X103250Y23668D01*
D02*
G37*
G36*
X46250D02*
X42520D01*
Y18270D01*
X52666D01*
X52411Y19552D01*
X50965Y21715D01*
X48802Y23161D01*
X46250Y23668D01*
D02*
G37*
G36*
X96980D02*
X93250D01*
X90698Y23161D01*
X88535Y21715D01*
X87090Y19552D01*
X86834Y18270D01*
X96980D01*
Y23668D01*
D02*
G37*
G36*
X39980D02*
X36250D01*
X33698Y23161D01*
X31535Y21715D01*
X30089Y19552D01*
X29834Y18270D01*
X39980D01*
Y23668D01*
D02*
G37*
G36*
X172300Y23024D02*
X170700D01*
X169221Y22411D01*
X168089Y21279D01*
X167476Y19800D01*
Y18200D01*
X168089Y16721D01*
X169221Y15589D01*
X170700Y14976D01*
X172300D01*
X173779Y15589D01*
X174911Y16721D01*
X175524Y18200D01*
Y19800D01*
X174911Y21279D01*
X173779Y22411D01*
X172300Y23024D01*
D02*
G37*
G36*
X109665Y15730D02*
X99520D01*
Y10332D01*
X103250D01*
X105802Y10839D01*
X107965Y12285D01*
X109411Y14448D01*
X109665Y15730D01*
D02*
G37*
G36*
X96980D02*
X86834D01*
X87090Y14448D01*
X88535Y12285D01*
X90698Y10839D01*
X93250Y10332D01*
X96980D01*
Y15730D01*
D02*
G37*
G36*
X52666D02*
X42520D01*
Y10332D01*
X46250D01*
X48802Y10839D01*
X50965Y12285D01*
X52411Y14448D01*
X52666Y15730D01*
D02*
G37*
G36*
X39980D02*
X29834D01*
X30089Y14448D01*
X31535Y12285D01*
X33698Y10839D01*
X36250Y10332D01*
X39980D01*
Y15730D01*
D02*
G37*
%LPD*%
D12*
X148000Y101000D02*
X220250D01*
D14*
X78500Y346750D02*
Y358000D01*
Y346750D02*
X86250Y339000D01*
X39000Y345250D02*
X54121Y330129D01*
X170511D02*
X193300Y307340D01*
X54121Y330129D02*
X170511D01*
X252587Y68701D02*
Y88413D01*
X241250Y99750D02*
X252587Y88413D01*
Y68701D02*
X255636Y65651D01*
X286235D01*
X287584Y67000D01*
X288250D01*
X258250Y71250D02*
Y120250D01*
X247250Y131250D02*
X258250Y120250D01*
X358250Y204000D02*
X385500Y176750D01*
X233250Y131250D02*
X243541Y141541D01*
X278000Y112000D02*
Y122000D01*
X288000Y112000D02*
Y122000D01*
X298000Y112000D02*
Y122000D01*
X308000Y112000D02*
Y122000D01*
X318000Y112000D02*
Y122000D01*
X328000Y112000D02*
Y122000D01*
X338000Y112000D02*
Y122000D01*
X233250Y131250D02*
X247250D01*
X298000Y122000D02*
Y132000D01*
X243541Y141541D02*
Y176041D01*
X287750Y220250D01*
X313353D01*
X329603Y204000D02*
X358250D01*
X313353Y220250D02*
X329603Y204000D01*
D92*
X182276Y385616D02*
D03*
D93*
X202276D02*
D03*
X222276D02*
D03*
X242276D02*
D03*
D98*
X518700Y154750D02*
D03*
D99*
Y179750D02*
D03*
D100*
X590500D02*
D03*
Y154750D02*
D03*
D107*
X215284Y355134D02*
D03*
X254732Y354893D02*
D03*
X295431Y236273D02*
D03*
X280162Y239278D02*
D03*
X239736Y228221D02*
D03*
X305986Y236695D02*
D03*
X94707Y250803D02*
D03*
X88625Y236000D02*
D03*
X103237Y264513D02*
D03*
X270000Y386500D02*
D03*
X227388Y310467D02*
D03*
X24241Y165932D02*
D03*
X24009Y144945D02*
D03*
X24400Y123155D02*
D03*
X24405Y109579D02*
D03*
X78253Y95833D02*
D03*
X36207Y96059D02*
D03*
X24411Y52578D02*
D03*
Y39041D02*
D03*
X221622Y53638D02*
D03*
X195854Y53378D02*
D03*
X184142Y65090D02*
D03*
X148353Y64830D02*
D03*
X134168Y73680D02*
D03*
X107880Y74461D02*
D03*
X273678Y35809D02*
D03*
X247910D02*
D03*
X222142Y35939D02*
D03*
X192991D02*
D03*
X163840Y42706D02*
D03*
X128134Y42975D02*
D03*
X420000Y8500D02*
D03*
X390000D02*
D03*
X360000D02*
D03*
X330000D02*
D03*
X300000D02*
D03*
X270000D02*
D03*
X240000D02*
D03*
X210000D02*
D03*
X180000D02*
D03*
X155000D02*
D03*
X125000D02*
D03*
X70000D02*
D03*
X25500Y10000D02*
D03*
X321031Y228686D02*
D03*
X323860Y302612D02*
D03*
X311138Y315921D02*
D03*
X293949D02*
D03*
X305995Y298191D02*
D03*
X337025Y282544D02*
D03*
X345989Y269239D02*
D03*
X334270Y386801D02*
D03*
X164821Y357250D02*
D03*
X155390D02*
D03*
X98200Y379082D02*
D03*
X88424Y367637D02*
D03*
X515250Y378000D02*
D03*
X412750Y368750D02*
D03*
X431750Y377750D02*
D03*
X74500Y242750D02*
D03*
X218000Y310500D02*
D03*
X241250Y99750D02*
D03*
X258250Y71250D02*
D03*
X270000Y316250D02*
D03*
Y308750D02*
D03*
Y300250D02*
D03*
X283750Y316000D02*
D03*
Y300500D02*
D03*
Y308750D02*
D03*
X277000Y355250D02*
D03*
X353500Y240000D02*
D03*
X243500Y125500D02*
D03*
X392000Y41750D02*
D03*
X293750D02*
D03*
X307250Y59000D02*
D03*
X391500Y75750D02*
D03*
X376250D02*
D03*
X405250Y184750D02*
D03*
Y177000D02*
D03*
Y169750D02*
D03*
X404000Y137750D02*
D03*
X440250Y99750D02*
D03*
X431250D02*
D03*
X278000Y182000D02*
D03*
X288000D02*
D03*
X298000D02*
D03*
X308000D02*
D03*
X318000D02*
D03*
X328000D02*
D03*
X338000D02*
D03*
X348000D02*
D03*
Y172000D02*
D03*
X338000D02*
D03*
X328000D02*
D03*
X318000D02*
D03*
X308000D02*
D03*
X298000D02*
D03*
X288000D02*
D03*
X278000D02*
D03*
Y162000D02*
D03*
X288000D02*
D03*
X298000D02*
D03*
X308000D02*
D03*
X318000D02*
D03*
X328000D02*
D03*
X338000D02*
D03*
X348000D02*
D03*
Y152000D02*
D03*
X338000D02*
D03*
X328000D02*
D03*
X318000D02*
D03*
X308000D02*
D03*
X298000D02*
D03*
X288000D02*
D03*
X278000D02*
D03*
Y142000D02*
D03*
X288000D02*
D03*
X298000D02*
D03*
X308000D02*
D03*
X318000D02*
D03*
X328000D02*
D03*
X338000D02*
D03*
X348000D02*
D03*
Y132000D02*
D03*
X338000D02*
D03*
X328000D02*
D03*
X318000D02*
D03*
X308000D02*
D03*
X298000D02*
D03*
X288000D02*
D03*
X278000D02*
D03*
Y122000D02*
D03*
X288000D02*
D03*
X298000D02*
D03*
X308000D02*
D03*
X318000D02*
D03*
X328000D02*
D03*
X338000D02*
D03*
X348000D02*
D03*
Y112000D02*
D03*
X338000D02*
D03*
X328000D02*
D03*
X318000D02*
D03*
X308000D02*
D03*
X298000D02*
D03*
X288000D02*
D03*
X278000D02*
D03*
X95173Y46828D02*
D03*
X302500Y355500D02*
D03*
X253626Y58479D02*
D03*
X260250Y58500D02*
D03*
X239349Y69337D02*
D03*
X239245Y77347D02*
D03*
X220250Y101000D02*
D03*
X288250Y67000D02*
D03*
X94231Y39801D02*
D03*
X90084Y53161D02*
D03*
X109750Y46750D02*
D03*
X107250Y52250D02*
D03*
X101750Y47000D02*
D03*
X86250Y339000D02*
D03*
X78500Y358000D02*
D03*
X449250Y98500D02*
D03*
X349250Y340250D02*
D03*
X357250D02*
D03*
X254000Y290000D02*
D03*
X260250Y285750D02*
D03*
X239750Y214000D02*
D03*
X44000Y271000D02*
D03*
X136250Y313500D02*
D03*
X128750Y237250D02*
D03*
X150250Y236500D02*
D03*
X312250Y355750D02*
D03*
X326500Y356000D02*
D03*
X64500Y223000D02*
D03*
X122750Y231750D02*
D03*
X499250Y368500D02*
D03*
X97250Y192250D02*
D03*
X531750Y368500D02*
D03*
X423375Y168875D02*
D03*
X406750Y295750D02*
D03*
X400750Y290250D02*
D03*
X126000Y201250D02*
D03*
X474000Y165250D02*
D03*
X482500D02*
D03*
X449250Y122750D02*
D03*
X423250Y132250D02*
D03*
X415000Y157750D02*
D03*
X405750Y149250D02*
D03*
X443000Y192500D02*
D03*
X81250Y242750D02*
D03*
X136250Y293529D02*
D03*
X132000Y302500D02*
D03*
X171500Y19000D02*
D03*
X161000Y66250D02*
D03*
X330750Y237750D02*
D03*
X123500Y109250D02*
D03*
X529750Y205750D02*
D03*
X449250Y116000D02*
D03*
X409250Y163250D02*
D03*
X98250Y370000D02*
D03*
X135500D02*
D03*
X123250D02*
D03*
X110750D02*
D03*
X357250Y265750D02*
D03*
X371750Y359750D02*
D03*
X384250Y228250D02*
D03*
Y220500D02*
D03*
X423250Y123500D02*
D03*
X460250Y182000D02*
D03*
X435620Y159820D02*
D03*
X450620D02*
D03*
X443250Y152250D02*
D03*
X435620Y144570D02*
D03*
X450870D02*
D03*
X101500Y211500D02*
D03*
X112500D02*
D03*
Y220500D02*
D03*
X101500Y220750D02*
D03*
X357500Y228000D02*
D03*
X343500D02*
D03*
X431750Y277750D02*
D03*
X107000Y216000D02*
D03*
X385500Y176750D02*
D03*
X385750Y192250D02*
D03*
X148000Y101000D02*
D03*
X123500Y137000D02*
D03*
X216750Y127000D02*
D03*
X104250Y123500D02*
D03*
X233250Y131250D02*
D03*
X227250Y146500D02*
D03*
X158000Y174250D02*
D03*
X266000Y222750D02*
D03*
X271000Y229250D02*
D03*
X239736Y221111D02*
D03*
X287750Y220250D02*
D03*
X305500Y228750D02*
D03*
X314730Y327730D02*
D03*
X404500Y278000D02*
D03*
X416500Y192750D02*
D03*
X426250Y202250D02*
D03*
X407000D02*
D03*
X407500Y210500D02*
D03*
X425432Y210567D02*
D03*
X416500Y219500D02*
D03*
X416000Y278250D02*
D03*
X361500Y292480D02*
D03*
X376750D02*
D03*
X369250Y300000D02*
D03*
X361802Y307138D02*
D03*
X376750Y307480D02*
D03*
X326500Y343750D02*
D03*
X359500Y69250D02*
D03*
X404500Y91000D02*
D03*
X385750Y136500D02*
D03*
X410500Y143000D02*
D03*
D115*
X103127Y237924D02*
Y264403D01*
X78250Y213048D02*
X103127Y237924D01*
X78250Y169750D02*
Y213048D01*
D118*
X96751Y271000D02*
X103237Y264513D01*
X103127Y264403D02*
X103237Y264513D01*
X44000Y271000D02*
X96751D01*
X24316Y378816D02*
X33250Y387750D01*
X24316Y290684D02*
Y378816D01*
Y290684D02*
X44000Y271000D01*
X33250Y387750D02*
X48750D01*
X78500Y358000D01*
X334035Y386801D02*
X506449D01*
X302500Y355500D02*
X302734D01*
X334035Y386801D01*
X506449D02*
X515250Y378000D01*
X135500Y370250D02*
X287750D01*
X302500Y355500D01*
X78500Y358000D02*
X123250D01*
X135500Y370250D01*
D119*
X41250Y17000D02*
D03*
X98250D02*
D03*
X41250Y145000D02*
D03*
X98250D02*
D03*
D120*
X31250Y32750D02*
D03*
Y48250D02*
D03*
Y59250D02*
D03*
Y129250D02*
D03*
Y114750D02*
D03*
Y102750D02*
D03*
Y73750D02*
D03*
Y88250D02*
D03*
X41250Y32750D02*
D03*
Y48250D02*
D03*
Y59250D02*
D03*
Y129250D02*
D03*
Y114750D02*
D03*
Y102750D02*
D03*
Y73750D02*
D03*
Y88250D02*
D03*
X51250Y32750D02*
D03*
Y48250D02*
D03*
Y59250D02*
D03*
Y129250D02*
D03*
Y114750D02*
D03*
Y102750D02*
D03*
Y73750D02*
D03*
Y88250D02*
D03*
X63250Y32750D02*
D03*
Y48250D02*
D03*
Y59250D02*
D03*
Y129250D02*
D03*
Y114750D02*
D03*
Y102750D02*
D03*
Y73750D02*
D03*
Y88250D02*
D03*
X73250Y32750D02*
D03*
Y48250D02*
D03*
Y59250D02*
D03*
Y129250D02*
D03*
Y114750D02*
D03*
Y102750D02*
D03*
Y73750D02*
D03*
Y88250D02*
D03*
X83250Y32750D02*
D03*
Y48250D02*
D03*
Y59250D02*
D03*
Y129250D02*
D03*
Y114750D02*
D03*
Y102750D02*
D03*
Y73750D02*
D03*
Y88250D02*
D03*
D121*
X472700Y345440D02*
D03*
Y269240D02*
D03*
Y193040D02*
D03*
X193300Y269240D02*
D03*
Y307340D02*
D03*
Y231140D02*
D03*
D122*
Y193040D02*
D03*
Y345440D02*
D03*
D123*
X313000Y147000D02*
D03*
D124*
X39000Y345250D02*
D03*
Y370250D02*
D03*
Y320250D02*
D03*
D125*
X584500Y370000D02*
D03*
X44500Y200000D02*
D03*
X584500Y30000D02*
D03*
D126*
X499250Y244000D02*
D03*
D127*
Y294000D02*
D03*
D128*
X599250Y324000D02*
D03*
Y214000D02*
D03*
D129*
X164109Y238546D02*
D03*
X385750Y355250D02*
D03*
X78250Y169750D02*
D03*
M02*
