G04*
G04 #@! TF.GenerationSoftware,Altium Limited,Altium Designer,24.1.2 (44)*
G04*
G04 Layer_Physical_Order=2*
G04 Layer_Color=32768*
%FSLAX44Y44*%
%MOMM*%
G71*
G04*
G04 #@! TF.SameCoordinates,C067CD15-9508-4875-9725-B3D5D2F0FA69*
G04*
G04*
G04 #@! TF.FilePolarity,Negative*
G04*
G01*
G75*
%ADD14C,0.2540*%
%ADD112C,1.5240*%
%ADD122C,1.0160*%
%ADD130C,2.9464*%
%ADD131C,1.9160*%
%ADD132C,5.5080*%
%ADD133C,3.8080*%
%ADD134C,4.9080*%
%ADD135C,2.5160*%
%ADD136C,1.1430*%
%ADD137C,0.7620*%
%ADD138C,1.2700*%
%ADD139C,1.3970*%
%ADD140C,0.8890*%
G36*
X22494Y309306D02*
X39839Y307553D01*
X57058Y304828D01*
X74097Y301140D01*
X90901Y296501D01*
X107419Y290925D01*
X123597Y284429D01*
X139384Y277034D01*
X154731Y268764D01*
X169589Y259645D01*
X183911Y249705D01*
X197652Y238977D01*
X210768Y227493D01*
X223218Y215290D01*
X234963Y202406D01*
X245965Y188883D01*
X256190Y174764D01*
X265606Y160092D01*
X274182Y144914D01*
X281892Y129278D01*
X288711Y113234D01*
X294618Y96832D01*
X299593Y80124D01*
X301608Y71643D01*
X303035Y70763D01*
X305326Y68314D01*
X306890Y65348D01*
X307617Y62074D01*
X307456Y58724D01*
X306417Y55535D01*
X304575Y52733D01*
X302060Y50515D01*
X299049Y49039D01*
X295755Y48408D01*
X292412Y48668D01*
X289255Y49799D01*
X287881Y50761D01*
X157569Y27784D01*
X157569Y27784D01*
X158647Y21669D01*
X159850Y9310D01*
X160090Y-3105D01*
X159368Y-15501D01*
X157688Y-27805D01*
X155059Y-39941D01*
X151498Y-51836D01*
X147025Y-63421D01*
X141668Y-74623D01*
X135460Y-85377D01*
X128436Y-95617D01*
X120640Y-105283D01*
X112119Y-114315D01*
X102923Y-122659D01*
X93109Y-130266D01*
X82734Y-137090D01*
X71862Y-143089D01*
X60557Y-148227D01*
X48889Y-152474D01*
X36926Y-155804D01*
X24742Y-158197D01*
X12408Y-159639D01*
X0Y-160120D01*
X-12408Y-159639D01*
X-24742Y-158197D01*
X-36926Y-155804D01*
X-48889Y-152474D01*
X-60557Y-148227D01*
X-71862Y-143089D01*
X-82734Y-137090D01*
X-93109Y-130266D01*
X-102923Y-122659D01*
X-112119Y-114315D01*
X-120640Y-105283D01*
X-128436Y-95617D01*
X-135460Y-85377D01*
X-138564Y-80000D01*
X-253158Y-146161D01*
X-253159Y-146161D01*
X-253593Y-147781D01*
X-255284Y-150677D01*
X-257678Y-153025D01*
X-260606Y-154659D01*
X-263862Y-155463D01*
X-267215Y-155381D01*
X-270427Y-154419D01*
X-273272Y-152643D01*
X-275549Y-150181D01*
X-277096Y-147206D01*
X-277805Y-143928D01*
X-277624Y-140580D01*
X-277096Y-138988D01*
X-277096D01*
X-281004Y-131197D01*
X-287932Y-115199D01*
X-293951Y-98838D01*
X-299040Y-82164D01*
X-303185Y-65230D01*
X-306371Y-48091D01*
X-308589Y-30799D01*
X-309832Y-13410D01*
X-310096Y4021D01*
X-309380Y21440D01*
X-307687Y38790D01*
X-305021Y56019D01*
X-301391Y73070D01*
X-296809Y89890D01*
X-291289Y106426D01*
X-284849Y122626D01*
X-277508Y138439D01*
X-269290Y153814D01*
X-260222Y168703D01*
X-250331Y183059D01*
X-239649Y196836D01*
X-228210Y209991D01*
X-216049Y222483D01*
X-203206Y234272D01*
X-189721Y245320D01*
X-175636Y255593D01*
X-160996Y265059D01*
X-145848Y273687D01*
X-130238Y281450D01*
X-114217Y288323D01*
X-97835Y294286D01*
X-81144Y299319D01*
X-64197Y303405D01*
X-47046Y306533D01*
X-29747Y308692D01*
X-12354Y309876D01*
X5078Y310081D01*
X22494Y309306D01*
D02*
G37*
G36*
X83157Y-269576D02*
X86054Y-270156D01*
X88782Y-271291D01*
X91236Y-272936D01*
X93323Y-275028D01*
X94961Y-277488D01*
X96087Y-280219D01*
X96373Y-281669D01*
X96374Y-281668D01*
X98640Y-293150D01*
X98926Y-294599D01*
X98922Y-297554D01*
X98341Y-300451D01*
X97206Y-303179D01*
X95561Y-305634D01*
X93469Y-307720D01*
X91010Y-309358D01*
X88278Y-310485D01*
X86829Y-310771D01*
X86829Y-310771D01*
X37775Y-320454D01*
X36326Y-320740D01*
X33371Y-320736D01*
X30474Y-320155D01*
X27746Y-319020D01*
X25292Y-317375D01*
X23205Y-315283D01*
X21567Y-312824D01*
X20440Y-310092D01*
X20154Y-308643D01*
X17888Y-297162D01*
X17602Y-295712D01*
X17606Y-292757D01*
X18187Y-289860D01*
X19322Y-287132D01*
X20967Y-284678D01*
X23059Y-282591D01*
X25518Y-280954D01*
X28250Y-279827D01*
X29699Y-279541D01*
X29699Y-279541D01*
X78752Y-269858D01*
X80202Y-269571D01*
X83157Y-269576D01*
D02*
G37*
D14*
X153670Y-516890D02*
Y-501650D01*
X149860Y-497840D02*
X153670Y-501650D01*
X118110Y-497840D02*
X149860D01*
X115570Y-495300D02*
X118110Y-497840D01*
X-500380Y-191770D02*
X-375920D01*
X-326390D02*
X-162560Y-355600D01*
X-326390Y-191770D02*
X-299720Y-165100D01*
Y-121920D01*
X-308610Y-113030D02*
X-299720Y-121920D01*
X-337820Y-113030D02*
X-308610D01*
X-375920Y-151130D02*
X-337820Y-113030D01*
X-375920Y-191770D02*
Y-151130D01*
X115570Y-495300D02*
Y-367030D01*
X99060Y-350520D02*
X115570Y-367030D01*
X-21590Y-350520D02*
X99060D01*
X-26670Y-355600D02*
X-21590Y-350520D01*
X-162560Y-355600D02*
X-26670D01*
D112*
X5080Y-314960D02*
D03*
D122*
X157569Y27784D02*
X287881Y50761D01*
X157569Y27784D02*
X157569Y27784D01*
X157569Y27784D02*
X158647Y21669D01*
X159850Y9310D01*
X160090Y-3105D01*
X159368Y-15501D02*
X160090Y-3105D01*
X157688Y-27805D02*
X159368Y-15501D01*
X155059Y-39941D02*
X157688Y-27805D01*
X151498Y-51836D02*
X155059Y-39941D01*
X147025Y-63421D02*
X151498Y-51836D01*
X141668Y-74623D02*
X147025Y-63421D01*
X135460Y-85377D02*
X141668Y-74623D01*
X128436Y-95617D02*
X135460Y-85377D01*
X120640Y-105283D02*
X128436Y-95617D01*
X112119Y-114315D02*
X120640Y-105283D01*
X102923Y-122659D02*
X112119Y-114315D01*
X93109Y-130266D02*
X102923Y-122659D01*
X82734Y-137090D02*
X93109Y-130266D01*
X71862Y-143089D02*
X82734Y-137090D01*
X60557Y-148227D02*
X71862Y-143089D01*
X48889Y-152474D02*
X60557Y-148227D01*
X36926Y-155804D02*
X48889Y-152474D01*
X24742Y-158197D02*
X36926Y-155804D01*
X12408Y-159639D02*
X24742Y-158197D01*
X0Y-160120D02*
X12408Y-159639D01*
X-12408D02*
X0Y-160120D01*
X-24742Y-158197D02*
X-12408Y-159639D01*
X-36926Y-155804D02*
X-24742Y-158197D01*
X-48889Y-152474D02*
X-36926Y-155804D01*
X-60557Y-148227D02*
X-48889Y-152474D01*
X-71862Y-143089D02*
X-60557Y-148227D01*
X-82734Y-137090D02*
X-71862Y-143089D01*
X-93109Y-130266D02*
X-82734Y-137090D01*
X-102923Y-122659D02*
X-93109Y-130266D01*
X-112119Y-114315D02*
X-102923Y-122659D01*
X-120640Y-105283D02*
X-112119Y-114315D01*
X-128436Y-95617D02*
X-120640Y-105283D01*
X-135460Y-85377D02*
X-128436Y-95617D01*
X-138564Y-80000D02*
X-135460Y-85377D01*
X-253158Y-146161D02*
X-138564Y-80000D01*
X10554Y537433D02*
X31645Y536604D01*
X-10554Y537433D02*
X10554D01*
X-31645Y536604D02*
X-10554Y537433D01*
X-52688Y534948D02*
X-31645Y536604D01*
X-73649Y532467D02*
X-52688Y534948D01*
X-94497Y529165D02*
X-73649Y532467D01*
X-115199Y525047D02*
X-94497Y529165D01*
X-135723Y520120D02*
X-115199Y525047D01*
X-156039Y514390D02*
X-135723Y520120D01*
X-176113Y507868D02*
X-156039Y514390D01*
X-195916Y500562D02*
X-176113Y507868D01*
X-215417Y492484D02*
X-195916Y500562D01*
X-234586Y483647D02*
X-215417Y492484D01*
X-253393Y474065D02*
X-234586Y483647D01*
X-271809Y463751D02*
X-253393Y474065D01*
X-289806Y452722D02*
X-271809Y463751D01*
X-307357Y440995D02*
X-289806Y452722D01*
X-324433Y428589D02*
X-307357Y440995D01*
X-341009Y415521D02*
X-324433Y428589D01*
X-357060Y401813D02*
X-341009Y415521D01*
X-372560Y387485D02*
X-357060Y401813D01*
X-387485Y372560D02*
X-372560Y387485D01*
X-401813Y357060D02*
X-387485Y372560D01*
X-415521Y341009D02*
X-401813Y357060D01*
X-428589Y324433D02*
X-415521Y341009D01*
X-440996Y307357D02*
X-428589Y324433D01*
X-452722Y289806D02*
X-440996Y307357D01*
X-463751Y271809D02*
X-452722Y289806D01*
X-474065Y253393D02*
X-463751Y271809D01*
X-483647Y234586D02*
X-474065Y253393D01*
X-492484Y215417D02*
X-483647Y234586D01*
X-500562Y195916D02*
X-492484Y215417D01*
X-507868Y176113D02*
X-500562Y195916D01*
X-514390Y156039D02*
X-507868Y176113D01*
X-520120Y135723D02*
X-514390Y156039D01*
X-525047Y115199D02*
X-520120Y135723D01*
X-529165Y94497D02*
X-525047Y115199D01*
X-532467Y73649D02*
X-529165Y94497D01*
X-534948Y52688D02*
X-532467Y73649D01*
X-536604Y31645D02*
X-534948Y52688D01*
X-537433Y10554D02*
X-536604Y31645D01*
X-537433Y0D02*
Y10554D01*
X-537433Y-10554D02*
X-537433Y0D01*
X-537433Y-10554D02*
X-536604Y-31645D01*
X-534948Y-52688D01*
X-532467Y-73649D01*
X-529165Y-94497D01*
X-525047Y-115199D01*
X-520120Y-135723D01*
X-514390Y-156039D01*
X-507868Y-176113D01*
X-500562Y-195916D01*
X-492484Y-215417D01*
X-483647Y-234586D01*
X-474065Y-253393D01*
X-463751Y-271809D01*
X-452722Y-289806D01*
X-440996Y-307357D01*
X-428589Y-324433D01*
X-415521Y-341009D01*
X-401813Y-357060D01*
X-387485Y-372560D01*
X-372560Y-387485D01*
X-357060Y-401813D01*
X-341009Y-415521D01*
X-324433Y-428589D01*
X-307357Y-440996D01*
X-289806Y-452722D01*
X-271809Y-463751D01*
X-253393Y-474065D01*
X-234586Y-483647D01*
X-215417Y-492484D01*
X-195916Y-500562D01*
X-176113Y-507868D01*
X-156039Y-514390D01*
X-135723Y-520120D01*
X-115199Y-525047D01*
X-94497Y-529165D01*
X-73649Y-532467D01*
X-52688Y-534948D01*
X-31645Y-536604D01*
X-10554Y-537433D01*
X-0D01*
X10554Y-537433D01*
X31645Y-536604D01*
X52688Y-534948D01*
X73649Y-532467D01*
X94497Y-529165D01*
X115199Y-525047D01*
X135723Y-520120D01*
X156039Y-514390D01*
X176113Y-507868D01*
X195916Y-500562D01*
X215417Y-492484D01*
X234586Y-483647D01*
X253393Y-474065D01*
X271809Y-463751D01*
X289806Y-452722D01*
X307357Y-440996D01*
X324433Y-428589D01*
X341009Y-415521D01*
X357060Y-401813D01*
X372560Y-387485D01*
X387485Y-372560D01*
X401813Y-357060D01*
X415521Y-341009D01*
X428589Y-324433D01*
X440995Y-307357D01*
X452722Y-289806D01*
X463751Y-271809D01*
X474065Y-253393D01*
X483647Y-234586D01*
X492484Y-215417D01*
X500562Y-195916D01*
X507868Y-176113D01*
X514390Y-156039D01*
X520120Y-135723D01*
X525047Y-115199D01*
X529165Y-94497D01*
X532467Y-73649D01*
X534948Y-52688D01*
X536604Y-31645D01*
X537433Y-10554D01*
Y0D01*
Y10554D01*
X536604Y31645D02*
X537433Y10554D01*
X534948Y52688D02*
X536604Y31645D01*
X532467Y73649D02*
X534948Y52688D01*
X529165Y94497D02*
X532467Y73649D01*
X525047Y115199D02*
X529165Y94497D01*
X520120Y135723D02*
X525047Y115199D01*
X514390Y156039D02*
X520120Y135723D01*
X507868Y176113D02*
X514390Y156039D01*
X500562Y195916D02*
X507868Y176113D01*
X492484Y215417D02*
X500562Y195916D01*
X483647Y234586D02*
X492484Y215417D01*
X474065Y253393D02*
X483647Y234586D01*
X463751Y271809D02*
X474065Y253393D01*
X452722Y289806D02*
X463751Y271809D01*
X440995Y307357D02*
X452722Y289806D01*
X428589Y324433D02*
X440995Y307357D01*
X415521Y341009D02*
X428589Y324433D01*
X401813Y357060D02*
X415521Y341009D01*
X387485Y372560D02*
X401813Y357060D01*
X372560Y387485D02*
X387485Y372560D01*
X357060Y401813D02*
X372560Y387485D01*
X341009Y415521D02*
X357060Y401813D01*
X324433Y428589D02*
X341009Y415521D01*
X307357Y440995D02*
X324433Y428589D01*
X289806Y452722D02*
X307357Y440995D01*
X271809Y463751D02*
X289806Y452722D01*
X253393Y474065D02*
X271809Y463751D01*
X234586Y483647D02*
X253393Y474065D01*
X215417Y492484D02*
X234586Y483647D01*
X195916Y500562D02*
X215417Y492484D01*
X176113Y507868D02*
X195916Y500562D01*
X156039Y514390D02*
X176113Y507868D01*
X135723Y520120D02*
X156039Y514390D01*
X115199Y525047D02*
X135723Y520120D01*
X94497Y529165D02*
X115199Y525047D01*
X73649Y532467D02*
X94497Y529165D01*
X52688Y534948D02*
X73649Y532467D01*
X31645Y536604D02*
X52688Y534948D01*
X5078Y310081D02*
X22494Y309306D01*
X39839Y307553D01*
X57058Y304828D01*
X74097Y301140D01*
X90901Y296501D01*
X107419Y290925D01*
X123597Y284429D01*
X139384Y277034D01*
X154731Y268764D01*
X169589Y259645D01*
X183911Y249705D01*
X197652Y238977D01*
X210768Y227493D01*
X223218Y215290D01*
X234963Y202406D01*
X245965Y188883D01*
X256190Y174764D01*
X265606Y160092D01*
X274182Y144914D01*
X281892Y129278D01*
X288711Y113234D01*
X294618Y96832D01*
X299593Y80124D01*
X301608Y71643D01*
X305326Y68314D02*
X306890Y65348D01*
X307617Y62074D01*
X287881Y50761D02*
X289255Y49799D01*
X-253159Y-146161D02*
X-253158Y-146161D01*
X-253593Y-147781D02*
X-253159Y-146161D01*
X-255284Y-150677D02*
X-253593Y-147781D01*
X-257678Y-153025D02*
X-255284Y-150677D01*
X-260606Y-154659D02*
X-257678Y-153025D01*
X-263862Y-155463D02*
X-260606Y-154659D01*
X-277805Y-143928D02*
X-277624Y-140580D01*
X-277096Y-138988D01*
X-309380Y21440D02*
X-307687Y38790D01*
X-305021Y56019D01*
X-301391Y73070D01*
X-296809Y89890D01*
X-291289Y106426D01*
X-284849Y122626D01*
X-277508Y138439D01*
X-269290Y153814D01*
X-260222Y168703D01*
X-250331Y183059D01*
X-239649Y196836D01*
X-228210Y209991D01*
X-216049Y222483D01*
X-203206Y234272D01*
X-189721Y245320D01*
X-175636Y255593D01*
X-160996Y265059D01*
X-145848Y273687D02*
X-130238Y281450D01*
X-114217Y288323D01*
X-97835Y294286D01*
X-81144Y299319D01*
X-64197Y303405D01*
X-47046Y306533D01*
X-29747Y308692D01*
X-12354Y309876D01*
X5078Y310081D01*
X303035Y70763D02*
X305326Y68314D01*
X307456Y58724D02*
X307617Y62074D01*
X306417Y55535D02*
X307456Y58724D01*
X304575Y52733D02*
X306417Y55535D01*
X292412Y48668D02*
X295755Y48408D01*
X289255Y49799D02*
X292412Y48668D01*
X-267215Y-155381D02*
X-263862Y-155463D01*
X-270427Y-154419D02*
X-267215Y-155381D01*
X-273272Y-152643D02*
X-270427Y-154419D01*
X-275549Y-150181D02*
X-273272Y-152643D01*
X-277096Y-147206D02*
X-275549Y-150181D01*
X-277805Y-143928D02*
X-277096Y-147206D01*
X-277096Y-138988D02*
X-277096D01*
X-281004Y-131197D02*
X-277096Y-138988D01*
X-287932Y-115199D02*
X-281004Y-131197D01*
X-293951Y-98838D02*
X-287932Y-115199D01*
X-299040Y-82164D02*
X-293951Y-98838D01*
X-303185Y-65230D02*
X-299040Y-82164D01*
X-306371Y-48091D02*
X-303185Y-65230D01*
X-308589Y-30799D02*
X-306371Y-48091D01*
X-309832Y-13410D02*
X-308589Y-30799D01*
X301608Y71643D02*
X303035Y70763D01*
X302060Y50515D02*
X304575Y52733D01*
X299049Y49039D02*
X302060Y50515D01*
X295755Y48408D02*
X299049Y49039D01*
X-310096Y4021D02*
X-309832Y-13410D01*
X-310096Y4021D02*
X-309380Y21440D01*
X-160996Y265059D02*
X-145848Y273687D01*
X80202Y-269571D02*
X83157Y-269576D01*
X86054Y-270156D01*
X88782Y-271291D01*
X91236Y-272936D01*
X93323Y-275028D01*
X94961Y-277488D01*
X96087Y-280219D01*
X96373Y-281669D01*
X96374Y-281668D01*
X98640Y-293150D01*
X98926Y-294599D01*
X98922Y-297554D02*
X98926Y-294599D01*
X98341Y-300451D02*
X98922Y-297554D01*
X97206Y-303179D02*
X98341Y-300451D01*
X95561Y-305634D02*
X97206Y-303179D01*
X93469Y-307720D02*
X95561Y-305634D01*
X91010Y-309358D02*
X93469Y-307720D01*
X88278Y-310485D02*
X91010Y-309358D01*
X86829Y-310771D02*
X88278Y-310485D01*
X86829Y-310771D02*
X86829Y-310771D01*
X37775Y-320454D02*
X86829Y-310771D01*
X36326Y-320740D02*
X37775Y-320454D01*
X33371Y-320736D02*
X36326Y-320740D01*
X30474Y-320155D02*
X33371Y-320736D01*
X27746Y-319020D02*
X30474Y-320155D01*
X25292Y-317375D02*
X27746Y-319020D01*
X23205Y-315283D02*
X25292Y-317375D01*
X21567Y-312824D02*
X23205Y-315283D01*
X20440Y-310092D02*
X21567Y-312824D01*
X20154Y-308643D02*
X20440Y-310092D01*
X17888Y-297162D02*
X20154Y-308643D01*
X17602Y-295712D02*
X17888Y-297162D01*
X17602Y-295712D02*
X17606Y-292757D01*
X18187Y-289860D01*
X19322Y-287132D01*
X20967Y-284678D01*
X23059Y-282591D01*
X25518Y-280954D01*
X28250Y-279827D01*
X29699Y-279541D01*
X29699Y-279541D01*
X78752Y-269858D01*
X80202Y-269571D01*
D130*
X393700Y45720D02*
D03*
D131*
X452520Y83820D02*
D03*
X424580Y181610D02*
D03*
D132*
X-381000Y0D02*
D03*
D133*
X500000D02*
D03*
D134*
X-409600Y286800D02*
D03*
X286800Y409600D02*
D03*
X-286800Y-409600D02*
D03*
D135*
X284480Y-284480D02*
D03*
X213360Y-342900D02*
D03*
X342900Y-212090D02*
D03*
D136*
X369347Y310103D02*
D03*
X358740Y320710D02*
D03*
X348134Y331316D02*
D03*
X379953Y299497D02*
D03*
X390560Y288890D02*
D03*
X337527Y341923D02*
D03*
X401166Y278284D02*
D03*
X411773Y267677D02*
D03*
D137*
X212396Y-34875D02*
D03*
X206516Y-38876D02*
D03*
X232574Y-19812D02*
D03*
X226234Y-23034D02*
D03*
X220519Y-28749D02*
D03*
X52070Y-480060D02*
D03*
X76200Y-444500D02*
D03*
X453390Y-173990D02*
D03*
X467360Y-220980D02*
D03*
X450850Y-189230D02*
D03*
X0Y-381647D02*
D03*
X-12700Y-384810D02*
D03*
X468359Y-210820D02*
D03*
X-307340Y385318D02*
D03*
X-63500Y379730D02*
D03*
X-314960Y379222D02*
D03*
X-321310Y391160D02*
D03*
X-443738Y-212090D02*
D03*
X-251460D02*
D03*
X-50800Y373380D02*
D03*
X-327660D02*
D03*
X-50800Y393700D02*
D03*
X-63500D02*
D03*
X-76200D02*
D03*
X-88900D02*
D03*
X160822Y-78925D02*
D03*
X167737Y-77263D02*
D03*
X173325Y-81662D02*
D03*
X179070Y-77470D02*
D03*
X141173Y-106734D02*
D03*
X136633Y-112292D02*
D03*
X-58081Y-155847D02*
D03*
X155313Y-143410D02*
D03*
X-57822Y-281773D02*
D03*
X268609Y-142528D02*
D03*
X341688Y-59290D02*
D03*
X-55880Y-205740D02*
D03*
X86360Y325882D02*
D03*
X55880Y333502D02*
D03*
X243840Y-445770D02*
D03*
X238760Y-439420D02*
D03*
X-347980Y-133350D02*
D03*
X-340360D02*
D03*
X2540Y-265430D02*
D03*
X-5080Y-272492D02*
D03*
X80010Y-514350D02*
D03*
X53340Y-431800D02*
D03*
Y-369570D02*
D03*
X-265430Y-177800D02*
D03*
X-257810Y-177800D02*
D03*
X-55880Y-212090D02*
D03*
X-49530Y-167640D02*
D03*
X-43235Y-221720D02*
D03*
X-273050Y-198120D02*
D03*
X-276860Y-255270D02*
D03*
X-54610Y-318770D02*
D03*
X-63500Y-299720D02*
D03*
X-89139Y-522230D02*
D03*
X-346710Y-266700D02*
D03*
X-342900Y-242909D02*
D03*
X-355600Y-240030D02*
D03*
X-369570Y-234950D02*
D03*
X-309372Y-300990D02*
D03*
X-320802Y-295910D02*
D03*
X-339090Y-288290D02*
D03*
X-24130Y-502920D02*
D03*
X-12700Y-507238D02*
D03*
X0Y-505126D02*
D03*
X93980Y-514350D02*
D03*
X66040D02*
D03*
X-97790Y-434848D02*
D03*
Y-449580D02*
D03*
X-88900Y-472440D02*
D03*
X-210820Y-481330D02*
D03*
X0Y-444120D02*
D03*
X-151130Y-367030D02*
D03*
X-133350Y-337820D02*
D03*
X-144780Y-327660D02*
D03*
X-137160Y-302260D02*
D03*
X-143510Y-250190D02*
D03*
X-297180Y-234950D02*
D03*
X-119380Y-375920D02*
D03*
X-85090Y-287020D02*
D03*
X-252730Y-281940D02*
D03*
X-332740Y-375920D02*
D03*
X-326390Y-367030D02*
D03*
X-332740Y-199390D02*
D03*
X-314960Y-355600D02*
D03*
X-326390Y-207010D02*
D03*
X-314960Y-215900D02*
D03*
X-212090Y-355600D02*
D03*
Y-367030D02*
D03*
Y-378460D02*
D03*
X-198120Y-466090D02*
D03*
X-218440Y-472440D02*
D03*
Y-344170D02*
D03*
X-174244Y-355600D02*
D03*
X-298450Y-344170D02*
D03*
X-265430Y-327660D02*
D03*
X-128960Y-491420D02*
D03*
X0Y355329D02*
D03*
X-12700Y340360D02*
D03*
X6350Y347980D02*
D03*
X-281940Y340360D02*
D03*
X-389890Y-318770D02*
D03*
X-24130Y361950D02*
D03*
X-288290D02*
D03*
X-396240Y-337820D02*
D03*
X-73660Y-318770D02*
D03*
X-12700Y393700D02*
D03*
X8890Y391160D02*
D03*
X25400Y355600D02*
D03*
X-294640D02*
D03*
X-419100Y-220980D02*
D03*
X0Y392921D02*
D03*
X-25400Y393700D02*
D03*
X-300990Y347980D02*
D03*
X-425450Y-248920D02*
D03*
X-38100Y393700D02*
D03*
X-432054Y-170180D02*
D03*
X-437896Y-187960D02*
D03*
X-449580Y-228600D02*
D03*
X-173990Y-187960D02*
D03*
X-215900Y-140970D02*
D03*
Y-228600D02*
D03*
X-97790Y-170180D02*
D03*
X-127000Y-149860D02*
D03*
X-174574Y-224104D02*
D03*
X-194198Y-248497D02*
D03*
X-113030Y-232410D02*
D03*
X-153670Y-273050D02*
D03*
X-24591Y-319278D02*
D03*
X-31750Y-369570D02*
D03*
X-173990Y-372110D02*
D03*
X-38100Y-313690D02*
D03*
Y-363220D02*
D03*
X-44450Y-308610D02*
D03*
Y-355600D02*
D03*
X-173990Y-363220D02*
D03*
X13970Y363220D02*
D03*
X63500Y346710D02*
D03*
X129489Y325207D02*
D03*
X144780Y331470D02*
D03*
X32440Y365252D02*
D03*
X106448Y358088D02*
D03*
X128270Y363220D02*
D03*
X125575Y374495D02*
D03*
X138891Y382731D02*
D03*
X25400Y394462D02*
D03*
X119380Y403860D02*
D03*
X43688Y379730D02*
D03*
X45720Y393700D02*
D03*
X111760Y396240D02*
D03*
X77470Y389890D02*
D03*
X70612Y375920D02*
D03*
X210820Y-27940D02*
D03*
X212245Y-20512D02*
D03*
X213498Y-13511D02*
D03*
X214752Y-6511D02*
D03*
X215900Y508D02*
D03*
X116840Y355600D02*
D03*
X114300Y347980D02*
D03*
X38100Y339090D02*
D03*
X109220D02*
D03*
X76200Y433070D02*
D03*
X63500D02*
D03*
X50800D02*
D03*
X38100D02*
D03*
X25400D02*
D03*
X12700D02*
D03*
X-198120Y-393700D02*
D03*
X173990Y-492760D02*
D03*
X-30480Y-494030D02*
D03*
Y-466090D02*
D03*
Y-417830D02*
D03*
X-200660D02*
D03*
X-130810Y-434086D02*
D03*
Y-441198D02*
D03*
Y-448310D02*
D03*
X130810Y-397510D02*
D03*
X146050Y-449580D02*
D03*
X152400Y-491490D02*
D03*
X-43180Y-299720D02*
D03*
X-85090Y-255270D02*
D03*
X-111760Y-278130D02*
D03*
X-87630Y-294640D02*
D03*
X-124460Y-330200D02*
D03*
X-54610Y-247650D02*
D03*
X-105410Y-306070D02*
D03*
X-95250Y-295910D02*
D03*
X-55880Y-270510D02*
D03*
X-54610Y-288290D02*
D03*
Y-259080D02*
D03*
X100330Y-147320D02*
D03*
X134620Y-157480D02*
D03*
X140970Y-161290D02*
D03*
X140803Y-123708D02*
D03*
X148590Y-101600D02*
D03*
X314104Y-101186D02*
D03*
X337820Y-55880D02*
D03*
X205740Y-184150D02*
D03*
X204470Y-179070D02*
D03*
X214014Y-180994D02*
D03*
X220353Y-175847D02*
D03*
X224452Y-164168D02*
D03*
X225676Y-159232D02*
D03*
X232664Y-109220D02*
D03*
X233680Y-118110D02*
D03*
X238760D02*
D03*
X273050Y-147320D02*
D03*
D138*
X307390Y-209295D02*
D03*
X62230Y-410464D02*
D03*
X186690Y-300990D02*
D03*
X181610Y-295910D02*
D03*
X275590Y-237490D02*
D03*
X278782Y-231336D02*
D03*
X339090Y-168910D02*
D03*
X394970Y-115570D02*
D03*
X344422Y7368D02*
D03*
X338707Y1653D02*
D03*
X487680Y-160020D02*
D03*
X452120Y-127000D02*
D03*
X160020Y-59690D02*
D03*
X156210Y-63500D02*
D03*
X176530Y-427482D02*
D03*
X214630Y-440690D02*
D03*
X398780Y-271780D02*
D03*
X368300Y-308610D02*
D03*
X-20955Y-356220D02*
D03*
X53519Y-342686D02*
D03*
X195439Y-409398D02*
D03*
X-182880Y-346710D02*
D03*
X179070Y-467360D02*
D03*
X91440Y-331470D02*
D03*
X-176530Y-388620D02*
D03*
X-17780Y-449580D02*
D03*
X-44450D02*
D03*
Y-434340D02*
D03*
X-186690D02*
D03*
Y-449580D02*
D03*
X152400Y-414274D02*
D03*
X128270Y-386640D02*
D03*
X152400Y-458470D02*
D03*
X21590Y-467360D02*
D03*
X109220Y-476250D02*
D03*
X107950Y-406400D02*
D03*
X178140Y-398780D02*
D03*
X105410Y-344170D02*
D03*
X436880Y-231140D02*
D03*
X328930Y-347980D02*
D03*
X292100Y-370840D02*
D03*
X252730Y-410210D02*
D03*
X134383Y-142477D02*
D03*
X138430Y-138430D02*
D03*
X187960Y-184150D02*
D03*
Y-189230D02*
D03*
X273050Y-223520D02*
D03*
X336550Y-121920D02*
D03*
X195703Y-185725D02*
D03*
X232001Y-151281D02*
D03*
X236220Y-144780D02*
D03*
X230467Y-144259D02*
D03*
X247650Y-123190D02*
D03*
X238760Y-134620D02*
D03*
X233680D02*
D03*
D139*
X240030Y-269240D02*
D03*
X245110Y-274320D02*
D03*
X295910Y-87630D02*
D03*
X289560Y-93980D02*
D03*
X283210Y-100330D02*
D03*
X276860Y-106680D02*
D03*
X106680Y-280670D02*
D03*
X113030Y-274320D02*
D03*
X119380Y-267970D02*
D03*
X125730Y-261620D02*
D03*
X280670Y-114300D02*
D03*
X287020Y-107950D02*
D03*
X293370Y-101600D02*
D03*
X299720Y-95250D02*
D03*
X232410Y-227076D02*
D03*
X224790Y-233680D02*
D03*
X218440Y-227330D02*
D03*
X134620Y-264160D02*
D03*
X128270Y-270510D02*
D03*
X121920Y-276860D02*
D03*
X115570Y-283210D02*
D03*
X109220Y-289560D02*
D03*
X175260Y-350520D02*
D03*
X168910Y-344170D02*
D03*
X344170Y-177800D02*
D03*
X336550D02*
D03*
D140*
X171167Y-217453D02*
D03*
X176305Y-222590D02*
D03*
X140701Y-247919D02*
D03*
M02*
