G04*
G04 #@! TF.GenerationSoftware,Altium Limited,Altium Designer,24.1.2 (44)*
G04*
G04 Layer_Physical_Order=4*
G04 Layer_Color=16440176*
%FSLAX44Y44*%
%MOMM*%
G71*
G04*
G04 #@! TF.SameCoordinates,C067CD15-9508-4875-9725-B3D5D2F0FA69*
G04*
G04*
G04 #@! TF.FilePolarity,Positive*
G04*
G01*
G75*
%ADD14C,0.2540*%
%ADD19C,0.2032*%
%ADD107C,1.4000*%
%ADD108R,1.4000X1.4000*%
%ADD109C,6.5000*%
%ADD112C,1.5240*%
%ADD113C,1.9050*%
G04:AMPARAMS|DCode=114|XSize=1.143mm|YSize=1.524mm|CornerRadius=0.2858mm|HoleSize=0mm|Usage=FLASHONLY|Rotation=135.000|XOffset=0mm|YOffset=0mm|HoleType=Round|Shape=RoundedRectangle|*
%AMROUNDEDRECTD114*
21,1,1.1430,0.9525,0,0,135.0*
21,1,0.5715,1.5240,0,0,135.0*
1,1,0.5715,0.1347,0.5388*
1,1,0.5715,0.5388,0.1347*
1,1,0.5715,-0.1347,-0.5388*
1,1,0.5715,-0.5388,-0.1347*
%
%ADD114ROUNDEDRECTD114*%
%ADD115C,0.5080*%
%ADD116C,0.7112*%
%ADD118C,0.2286*%
%ADD119C,0.5080*%
%ADD122C,1.0160*%
%ADD127C,5.0000*%
G04:AMPARAMS|DCode=128|XSize=5mm|YSize=5mm|CornerRadius=1.25mm|HoleSize=0mm|Usage=FLASHONLY|Rotation=0.000|XOffset=0mm|YOffset=0mm|HoleType=Round|Shape=RoundedRectangle|*
%AMROUNDEDRECTD128*
21,1,5.0000,2.5000,0,0,0.0*
21,1,2.5000,5.0000,0,0,0.0*
1,1,2.5000,1.2500,-1.2500*
1,1,2.5000,-1.2500,-1.2500*
1,1,2.5000,-1.2500,1.2500*
1,1,2.5000,1.2500,1.2500*
%
%ADD128ROUNDEDRECTD128*%
%ADD129C,5.6000*%
G36*
X369933Y-310579D02*
X369804Y-310744D01*
X369689Y-310921D01*
X369590Y-311108D01*
X369506Y-311307D01*
X369438Y-311516D01*
X369385Y-311736D01*
X369347Y-311967D01*
X369324Y-312209D01*
X369316Y-312462D01*
X367284D01*
X367276Y-312209D01*
X367253Y-311967D01*
X367215Y-311736D01*
X367162Y-311516D01*
X367094Y-311307D01*
X367010Y-311108D01*
X366911Y-310921D01*
X366796Y-310744D01*
X366667Y-310579D01*
X366522Y-310424D01*
X370078D01*
X369933Y-310579D01*
D02*
G37*
G36*
X-36131Y-312057D02*
X-35965Y-312186D01*
X-35789Y-312301D01*
X-35601Y-312400D01*
X-35403Y-312484D01*
X-35194Y-312552D01*
X-34974Y-312605D01*
X-34743Y-312644D01*
X-34501Y-312666D01*
X-34248Y-312674D01*
Y-314706D01*
X-34501Y-314714D01*
X-34743Y-314736D01*
X-34974Y-314775D01*
X-35194Y-314828D01*
X-35403Y-314897D01*
X-35601Y-314980D01*
X-35789Y-315079D01*
X-35965Y-315194D01*
X-36131Y-315323D01*
X-36286Y-315468D01*
Y-311912D01*
X-36131Y-312057D01*
D02*
G37*
G36*
X-53586Y-315171D02*
X-53563Y-315413D01*
X-53525Y-315644D01*
X-53472Y-315864D01*
X-53404Y-316073D01*
X-53320Y-316271D01*
X-53221Y-316459D01*
X-53106Y-316635D01*
X-52977Y-316801D01*
X-52832Y-316956D01*
X-56388D01*
X-56243Y-316801D01*
X-56114Y-316635D01*
X-55999Y-316459D01*
X-55900Y-316271D01*
X-55816Y-316073D01*
X-55748Y-315864D01*
X-55695Y-315644D01*
X-55656Y-315413D01*
X-55634Y-315171D01*
X-55626Y-314918D01*
X-53594D01*
X-53586Y-315171D01*
D02*
G37*
G36*
X-75474Y-320548D02*
X-75629Y-320403D01*
X-75795Y-320274D01*
X-75971Y-320159D01*
X-76158Y-320060D01*
X-76357Y-319977D01*
X-76566Y-319908D01*
X-76786Y-319855D01*
X-77017Y-319816D01*
X-77259Y-319794D01*
X-77512Y-319786D01*
Y-317754D01*
X-77259Y-317746D01*
X-77017Y-317724D01*
X-76786Y-317685D01*
X-76566Y-317632D01*
X-76357Y-317563D01*
X-76158Y-317480D01*
X-75971Y-317381D01*
X-75795Y-317266D01*
X-75629Y-317137D01*
X-75474Y-316992D01*
Y-320548D01*
D02*
G37*
G36*
X-387921Y-317137D02*
X-387756Y-317266D01*
X-387579Y-317381D01*
X-387392Y-317480D01*
X-387193Y-317563D01*
X-386984Y-317632D01*
X-386764Y-317685D01*
X-386533Y-317724D01*
X-386291Y-317746D01*
X-386038Y-317754D01*
Y-319786D01*
X-386291Y-319794D01*
X-386533Y-319816D01*
X-386764Y-319855D01*
X-386984Y-319908D01*
X-387193Y-319977D01*
X-387392Y-320060D01*
X-387579Y-320159D01*
X-387756Y-320274D01*
X-387921Y-320403D01*
X-388076Y-320548D01*
Y-316992D01*
X-387921Y-317137D01*
D02*
G37*
G36*
X-22506Y-317801D02*
X-22393Y-317890D01*
X-22260Y-317968D01*
X-22106Y-318036D01*
X-21932Y-318093D01*
X-21737Y-318141D01*
X-21522Y-318177D01*
X-21287Y-318203D01*
X-20756Y-318224D01*
X-20725Y-320256D01*
X-21001Y-320261D01*
X-21489Y-320305D01*
X-21703Y-320342D01*
X-21896Y-320391D01*
X-22069Y-320450D01*
X-22221Y-320520D01*
X-22352Y-320601D01*
X-22463Y-320692D01*
X-22553Y-320795D01*
X-22599Y-317701D01*
X-22506Y-317801D01*
D02*
G37*
G36*
X-146594Y-329438D02*
X-146749Y-329293D01*
X-146915Y-329164D01*
X-147091Y-329049D01*
X-147278Y-328950D01*
X-147477Y-328867D01*
X-147686Y-328798D01*
X-147906Y-328745D01*
X-148137Y-328707D01*
X-148379Y-328684D01*
X-148632Y-328676D01*
Y-326644D01*
X-148379Y-326636D01*
X-148137Y-326614D01*
X-147906Y-326575D01*
X-147686Y-326522D01*
X-147477Y-326454D01*
X-147278Y-326370D01*
X-147091Y-326271D01*
X-146915Y-326156D01*
X-146749Y-326027D01*
X-146594Y-325882D01*
Y-329438D01*
D02*
G37*
G36*
X-263461Y-326027D02*
X-263295Y-326156D01*
X-263119Y-326271D01*
X-262931Y-326370D01*
X-262733Y-326454D01*
X-262524Y-326522D01*
X-262304Y-326575D01*
X-262073Y-326614D01*
X-261831Y-326636D01*
X-261578Y-326644D01*
Y-328676D01*
X-261831Y-328684D01*
X-262073Y-328707D01*
X-262304Y-328745D01*
X-262524Y-328798D01*
X-262733Y-328867D01*
X-262931Y-328950D01*
X-263119Y-329049D01*
X-263295Y-329164D01*
X-263461Y-329293D01*
X-263616Y-329438D01*
Y-325882D01*
X-263461Y-326027D01*
D02*
G37*
G36*
X89626Y-333248D02*
X89471Y-333103D01*
X89305Y-332974D01*
X89129Y-332859D01*
X88941Y-332760D01*
X88743Y-332677D01*
X88534Y-332608D01*
X88314Y-332555D01*
X88083Y-332517D01*
X87841Y-332494D01*
X87588Y-332486D01*
Y-330454D01*
X87841Y-330446D01*
X88083Y-330424D01*
X88314Y-330385D01*
X88534Y-330332D01*
X88743Y-330263D01*
X88941Y-330180D01*
X89129Y-330081D01*
X89305Y-329966D01*
X89471Y-329837D01*
X89626Y-329692D01*
Y-333248D01*
D02*
G37*
G36*
X-135164Y-339598D02*
X-135319Y-339453D01*
X-135485Y-339324D01*
X-135661Y-339209D01*
X-135849Y-339110D01*
X-136047Y-339026D01*
X-136256Y-338958D01*
X-136476Y-338905D01*
X-136707Y-338867D01*
X-136949Y-338844D01*
X-137202Y-338836D01*
Y-336804D01*
X-136949Y-336796D01*
X-136707Y-336773D01*
X-136476Y-336735D01*
X-136256Y-336682D01*
X-136047Y-336614D01*
X-135849Y-336530D01*
X-135661Y-336431D01*
X-135485Y-336316D01*
X-135319Y-336187D01*
X-135164Y-336042D01*
Y-339598D01*
D02*
G37*
G36*
X-394271Y-336187D02*
X-394105Y-336316D01*
X-393929Y-336431D01*
X-393741Y-336530D01*
X-393543Y-336614D01*
X-393334Y-336682D01*
X-393114Y-336735D01*
X-392883Y-336773D01*
X-392641Y-336796D01*
X-392388Y-336804D01*
Y-338836D01*
X-392641Y-338844D01*
X-392883Y-338867D01*
X-393114Y-338905D01*
X-393334Y-338958D01*
X-393543Y-339026D01*
X-393741Y-339110D01*
X-393929Y-339209D01*
X-394105Y-339324D01*
X-394271Y-339453D01*
X-394426Y-339598D01*
Y-336042D01*
X-394271Y-336187D01*
D02*
G37*
G36*
X55487Y-341053D02*
X55653Y-341183D01*
X55830Y-341297D01*
X56017Y-341396D01*
X56215Y-341480D01*
X56425Y-341548D01*
X56645Y-341602D01*
X56876Y-341640D01*
X57118Y-341663D01*
X57370Y-341670D01*
Y-343702D01*
X57118Y-343710D01*
X56876Y-343733D01*
X56645Y-343771D01*
X56425Y-343824D01*
X56215Y-343893D01*
X56017Y-343977D01*
X55830Y-344076D01*
X55653Y-344190D01*
X55487Y-344320D01*
X55332Y-344464D01*
Y-340908D01*
X55487Y-341053D01*
D02*
G37*
G36*
X107379Y-342537D02*
X107544Y-342666D01*
X107721Y-342781D01*
X107908Y-342880D01*
X108107Y-342963D01*
X108316Y-343032D01*
X108536Y-343085D01*
X108767Y-343124D01*
X109009Y-343146D01*
X109262Y-343154D01*
Y-345186D01*
X109009Y-345194D01*
X108767Y-345216D01*
X108536Y-345255D01*
X108316Y-345308D01*
X108107Y-345377D01*
X107908Y-345460D01*
X107721Y-345559D01*
X107544Y-345674D01*
X107379Y-345803D01*
X107224Y-345948D01*
Y-342392D01*
X107379Y-342537D01*
D02*
G37*
G36*
X-220254Y-345948D02*
X-220409Y-345803D01*
X-220574Y-345674D01*
X-220751Y-345559D01*
X-220938Y-345460D01*
X-221137Y-345377D01*
X-221346Y-345308D01*
X-221566Y-345255D01*
X-221797Y-345216D01*
X-222039Y-345194D01*
X-222292Y-345186D01*
Y-343154D01*
X-222039Y-343146D01*
X-221797Y-343124D01*
X-221566Y-343085D01*
X-221346Y-343032D01*
X-221137Y-342963D01*
X-220938Y-342880D01*
X-220751Y-342781D01*
X-220574Y-342666D01*
X-220409Y-342537D01*
X-220254Y-342392D01*
Y-345948D01*
D02*
G37*
G36*
X-296481Y-342537D02*
X-296315Y-342666D01*
X-296139Y-342781D01*
X-295951Y-342880D01*
X-295753Y-342963D01*
X-295544Y-343032D01*
X-295324Y-343085D01*
X-295093Y-343124D01*
X-294851Y-343146D01*
X-294598Y-343154D01*
Y-345186D01*
X-294851Y-345194D01*
X-295093Y-345216D01*
X-295324Y-345255D01*
X-295544Y-345308D01*
X-295753Y-345377D01*
X-295951Y-345460D01*
X-296139Y-345559D01*
X-296315Y-345674D01*
X-296481Y-345803D01*
X-296636Y-345948D01*
Y-342392D01*
X-296481Y-342537D01*
D02*
G37*
G36*
X-180911Y-345077D02*
X-180746Y-345206D01*
X-180569Y-345321D01*
X-180382Y-345420D01*
X-180183Y-345504D01*
X-179974Y-345572D01*
X-179754Y-345625D01*
X-179523Y-345663D01*
X-179281Y-345686D01*
X-179028Y-345694D01*
Y-347726D01*
X-179281Y-347734D01*
X-179523Y-347757D01*
X-179754Y-347795D01*
X-179974Y-347848D01*
X-180183Y-347916D01*
X-180382Y-348000D01*
X-180569Y-348099D01*
X-180746Y-348214D01*
X-180911Y-348343D01*
X-181066Y-348488D01*
Y-344932D01*
X-180911Y-345077D01*
D02*
G37*
G36*
X330563Y-349949D02*
X330434Y-350115D01*
X330319Y-350291D01*
X330220Y-350479D01*
X330136Y-350677D01*
X330068Y-350886D01*
X330015Y-351106D01*
X329977Y-351337D01*
X329954Y-351579D01*
X329946Y-351832D01*
X327914D01*
X327906Y-351579D01*
X327883Y-351337D01*
X327845Y-351106D01*
X327792Y-350886D01*
X327724Y-350677D01*
X327640Y-350479D01*
X327541Y-350291D01*
X327426Y-350115D01*
X327297Y-349949D01*
X327152Y-349794D01*
X330708D01*
X330563Y-349949D01*
D02*
G37*
G36*
X-46264Y-357378D02*
X-46419Y-357233D01*
X-46585Y-357104D01*
X-46761Y-356989D01*
X-46948Y-356890D01*
X-47147Y-356806D01*
X-47356Y-356738D01*
X-47576Y-356685D01*
X-47807Y-356646D01*
X-48049Y-356624D01*
X-48302Y-356616D01*
Y-354584D01*
X-48049Y-354576D01*
X-47807Y-354553D01*
X-47576Y-354515D01*
X-47356Y-354462D01*
X-47147Y-354394D01*
X-46948Y-354310D01*
X-46761Y-354211D01*
X-46585Y-354096D01*
X-46419Y-353967D01*
X-46264Y-353822D01*
Y-357378D01*
D02*
G37*
G36*
X-172275Y-353967D02*
X-172110Y-354096D01*
X-171933Y-354211D01*
X-171745Y-354310D01*
X-171547Y-354394D01*
X-171338Y-354462D01*
X-171118Y-354515D01*
X-170887Y-354553D01*
X-170645Y-354576D01*
X-170392Y-354584D01*
Y-356616D01*
X-170645Y-356624D01*
X-170887Y-356646D01*
X-171118Y-356685D01*
X-171338Y-356738D01*
X-171547Y-356806D01*
X-171745Y-356890D01*
X-171933Y-356989D01*
X-172110Y-357104D01*
X-172275Y-357233D01*
X-172430Y-357378D01*
Y-353822D01*
X-172275Y-353967D01*
D02*
G37*
G36*
X-213904Y-357378D02*
X-214059Y-357233D01*
X-214224Y-357104D01*
X-214401Y-356989D01*
X-214589Y-356890D01*
X-214787Y-356806D01*
X-214996Y-356738D01*
X-215216Y-356685D01*
X-215447Y-356646D01*
X-215689Y-356624D01*
X-215942Y-356616D01*
Y-354584D01*
X-215689Y-354576D01*
X-215447Y-354553D01*
X-215216Y-354515D01*
X-214996Y-354462D01*
X-214787Y-354394D01*
X-214589Y-354310D01*
X-214401Y-354211D01*
X-214224Y-354096D01*
X-214059Y-353967D01*
X-213904Y-353822D01*
Y-357378D01*
D02*
G37*
G36*
X-312991Y-353967D02*
X-312826Y-354096D01*
X-312649Y-354211D01*
X-312461Y-354310D01*
X-312263Y-354394D01*
X-312054Y-354462D01*
X-311834Y-354515D01*
X-311603Y-354553D01*
X-311361Y-354576D01*
X-311108Y-354584D01*
Y-356616D01*
X-311361Y-356624D01*
X-311603Y-356646D01*
X-311834Y-356685D01*
X-312054Y-356738D01*
X-312263Y-356806D01*
X-312461Y-356890D01*
X-312649Y-356989D01*
X-312826Y-357104D01*
X-312991Y-357233D01*
X-313146Y-357378D01*
Y-353822D01*
X-312991Y-353967D01*
D02*
G37*
G36*
X-19420Y-354177D02*
X-19235Y-354270D01*
X-19041Y-354352D01*
X-18839Y-354424D01*
X-18629Y-354484D01*
X-18411Y-354533D01*
X-18185Y-354571D01*
X-17708Y-354615D01*
X-17458Y-354621D01*
X-16928Y-356653D01*
X-17184Y-356662D01*
X-17425Y-356688D01*
X-17650Y-356732D01*
X-17859Y-356794D01*
X-18052Y-356873D01*
X-18229Y-356970D01*
X-18391Y-357085D01*
X-18537Y-357217D01*
X-18667Y-357367D01*
X-18781Y-357534D01*
X-19598Y-354073D01*
X-19420Y-354177D01*
D02*
G37*
G36*
X-172021Y-361587D02*
X-171856Y-361716D01*
X-171679Y-361831D01*
X-171492Y-361930D01*
X-171293Y-362014D01*
X-171084Y-362082D01*
X-170864Y-362135D01*
X-170633Y-362174D01*
X-170391Y-362196D01*
X-170138Y-362204D01*
Y-364236D01*
X-170391Y-364244D01*
X-170633Y-364267D01*
X-170864Y-364305D01*
X-171084Y-364358D01*
X-171293Y-364426D01*
X-171492Y-364510D01*
X-171679Y-364609D01*
X-171856Y-364724D01*
X-172021Y-364853D01*
X-172176Y-364998D01*
Y-361442D01*
X-172021Y-361587D01*
D02*
G37*
G36*
X-213904Y-368808D02*
X-214059Y-368663D01*
X-214224Y-368534D01*
X-214401Y-368419D01*
X-214589Y-368320D01*
X-214787Y-368237D01*
X-214996Y-368168D01*
X-215216Y-368115D01*
X-215447Y-368077D01*
X-215689Y-368054D01*
X-215942Y-368046D01*
Y-366014D01*
X-215689Y-366006D01*
X-215447Y-365984D01*
X-215216Y-365945D01*
X-214996Y-365892D01*
X-214787Y-365824D01*
X-214589Y-365740D01*
X-214401Y-365641D01*
X-214224Y-365526D01*
X-214059Y-365397D01*
X-213904Y-365252D01*
Y-368808D01*
D02*
G37*
G36*
X-324421Y-365397D02*
X-324255Y-365526D01*
X-324079Y-365641D01*
X-323891Y-365740D01*
X-323693Y-365824D01*
X-323484Y-365892D01*
X-323264Y-365945D01*
X-323033Y-365984D01*
X-322791Y-366006D01*
X-322538Y-366014D01*
Y-368046D01*
X-322791Y-368054D01*
X-323033Y-368077D01*
X-323264Y-368115D01*
X-323484Y-368168D01*
X-323693Y-368237D01*
X-323891Y-368320D01*
X-324079Y-368419D01*
X-324255Y-368534D01*
X-324421Y-368663D01*
X-324576Y-368808D01*
Y-365252D01*
X-324421Y-365397D01*
D02*
G37*
G36*
X-33564Y-371348D02*
X-33719Y-371203D01*
X-33884Y-371074D01*
X-34061Y-370959D01*
X-34248Y-370860D01*
X-34447Y-370776D01*
X-34656Y-370708D01*
X-34876Y-370655D01*
X-35107Y-370616D01*
X-35349Y-370594D01*
X-35602Y-370586D01*
Y-368554D01*
X-35349Y-368546D01*
X-35107Y-368523D01*
X-34876Y-368485D01*
X-34656Y-368432D01*
X-34447Y-368363D01*
X-34248Y-368280D01*
X-34061Y-368181D01*
X-33884Y-368066D01*
X-33719Y-367937D01*
X-33564Y-367792D01*
Y-371348D01*
D02*
G37*
G36*
X-171737Y-370896D02*
X-171602Y-371044D01*
X-171451Y-371175D01*
X-171286Y-371288D01*
X-171105Y-371384D01*
X-170910Y-371463D01*
X-170699Y-371524D01*
X-170474Y-371567D01*
X-170233Y-371593D01*
X-169977Y-371602D01*
X-170434Y-373634D01*
X-170685Y-373640D01*
X-171161Y-373686D01*
X-171387Y-373727D01*
X-171605Y-373779D01*
X-171814Y-373843D01*
X-172015Y-373919D01*
X-172208Y-374006D01*
X-172392Y-374104D01*
X-172568Y-374215D01*
X-171857Y-370731D01*
X-171737Y-370896D01*
D02*
G37*
G36*
X293733Y-372809D02*
X293604Y-372975D01*
X293489Y-373151D01*
X293390Y-373339D01*
X293307Y-373537D01*
X293238Y-373746D01*
X293185Y-373966D01*
X293146Y-374197D01*
X293124Y-374439D01*
X293116Y-374692D01*
X291084D01*
X291076Y-374439D01*
X291054Y-374197D01*
X291015Y-373966D01*
X290962Y-373746D01*
X290893Y-373537D01*
X290810Y-373339D01*
X290711Y-373151D01*
X290596Y-372975D01*
X290467Y-372809D01*
X290322Y-372654D01*
X293878D01*
X293733Y-372809D01*
D02*
G37*
G36*
X-330771Y-374287D02*
X-330606Y-374416D01*
X-330429Y-374531D01*
X-330242Y-374630D01*
X-330043Y-374714D01*
X-329834Y-374782D01*
X-329614Y-374835D01*
X-329383Y-374874D01*
X-329141Y-374896D01*
X-328888Y-374904D01*
Y-376936D01*
X-329141Y-376944D01*
X-329383Y-376967D01*
X-329614Y-377005D01*
X-329834Y-377058D01*
X-330043Y-377127D01*
X-330242Y-377210D01*
X-330429Y-377309D01*
X-330606Y-377424D01*
X-330771Y-377553D01*
X-330926Y-377698D01*
Y-374142D01*
X-330771Y-374287D01*
D02*
G37*
G36*
X-213911Y-375191D02*
X-213724Y-375346D01*
X-213534Y-375482D01*
X-213340Y-375600D01*
X-213144Y-375700D01*
X-212944Y-375781D01*
X-212742Y-375843D01*
X-212536Y-375887D01*
X-212327Y-375913D01*
X-212115Y-375920D01*
X-214630Y-378435D01*
X-214637Y-378223D01*
X-214662Y-378014D01*
X-214707Y-377808D01*
X-214769Y-377606D01*
X-214850Y-377406D01*
X-214950Y-377210D01*
X-215068Y-377016D01*
X-215204Y-376826D01*
X-215359Y-376639D01*
X-215532Y-376455D01*
X-214095Y-375018D01*
X-213911Y-375191D01*
D02*
G37*
G36*
X128245Y-389180D02*
X128033Y-389187D01*
X127824Y-389212D01*
X127618Y-389257D01*
X127416Y-389319D01*
X127216Y-389400D01*
X127020Y-389500D01*
X126826Y-389618D01*
X126636Y-389754D01*
X126449Y-389909D01*
X126265Y-390082D01*
X124828Y-388645D01*
X125001Y-388461D01*
X125156Y-388274D01*
X125293Y-388084D01*
X125410Y-387890D01*
X125510Y-387694D01*
X125591Y-387494D01*
X125653Y-387292D01*
X125697Y-387086D01*
X125723Y-386877D01*
X125730Y-386665D01*
X128245Y-389180D01*
D02*
G37*
G36*
X-174561Y-386987D02*
X-174396Y-387116D01*
X-174219Y-387231D01*
X-174032Y-387330D01*
X-173833Y-387413D01*
X-173624Y-387482D01*
X-173404Y-387535D01*
X-173173Y-387574D01*
X-172931Y-387596D01*
X-172678Y-387604D01*
Y-389636D01*
X-172931Y-389644D01*
X-173173Y-389666D01*
X-173404Y-389705D01*
X-173624Y-389758D01*
X-173833Y-389827D01*
X-174032Y-389910D01*
X-174219Y-390009D01*
X-174396Y-390124D01*
X-174561Y-390253D01*
X-174716Y-390398D01*
Y-386842D01*
X-174561Y-386987D01*
D02*
G37*
G36*
X-195573Y-393937D02*
X-195548Y-394146D01*
X-195503Y-394352D01*
X-195441Y-394554D01*
X-195360Y-394754D01*
X-195260Y-394950D01*
X-195142Y-395144D01*
X-195006Y-395334D01*
X-194851Y-395521D01*
X-194678Y-395705D01*
X-196115Y-397142D01*
X-196299Y-396969D01*
X-196486Y-396814D01*
X-196676Y-396678D01*
X-196870Y-396560D01*
X-197066Y-396460D01*
X-197266Y-396379D01*
X-197468Y-396317D01*
X-197674Y-396273D01*
X-197883Y-396247D01*
X-198095Y-396240D01*
X-195580Y-393725D01*
X-195573Y-393937D01*
D02*
G37*
G36*
X175372Y-396173D02*
X175560Y-396322D01*
X175746Y-396444D01*
X175929Y-396539D01*
X176110Y-396605D01*
X176288Y-396644D01*
X176465Y-396655D01*
X176638Y-396638D01*
X176810Y-396593D01*
X176979Y-396521D01*
X175833Y-399843D01*
X175764Y-399713D01*
X175669Y-399562D01*
X175546Y-399391D01*
X175220Y-398988D01*
X174529Y-398229D01*
X173933Y-397620D01*
X175182Y-395995D01*
X175372Y-396173D01*
D02*
G37*
G36*
X180109Y-397147D02*
X180275Y-397276D01*
X180451Y-397391D01*
X180639Y-397490D01*
X180837Y-397574D01*
X181046Y-397642D01*
X181266Y-397695D01*
X181497Y-397733D01*
X181739Y-397756D01*
X181992Y-397764D01*
Y-399796D01*
X181739Y-399804D01*
X181497Y-399827D01*
X181266Y-399865D01*
X181046Y-399918D01*
X180837Y-399986D01*
X180639Y-400070D01*
X180451Y-400169D01*
X180275Y-400284D01*
X180109Y-400413D01*
X179954Y-400558D01*
Y-397002D01*
X180109Y-397147D01*
D02*
G37*
G36*
X250909Y-406941D02*
X251096Y-407096D01*
X251286Y-407233D01*
X251480Y-407350D01*
X251676Y-407450D01*
X251876Y-407531D01*
X252078Y-407593D01*
X252284Y-407637D01*
X252493Y-407663D01*
X252705Y-407670D01*
X250190Y-410185D01*
X250183Y-409973D01*
X250158Y-409764D01*
X250113Y-409558D01*
X250051Y-409356D01*
X249970Y-409156D01*
X249870Y-408960D01*
X249753Y-408766D01*
X249616Y-408576D01*
X249461Y-408389D01*
X249288Y-408205D01*
X250725Y-406768D01*
X250909Y-406941D01*
D02*
G37*
G36*
X109636Y-408324D02*
X109574Y-408444D01*
X109543Y-408573D01*
X109543Y-408711D01*
X109573Y-408859D01*
X109634Y-409016D01*
X109726Y-409183D01*
X109848Y-409359D01*
X110001Y-409544D01*
X110185Y-409739D01*
X108309Y-410736D01*
X106448Y-408448D01*
X109728Y-408214D01*
X109636Y-408324D01*
D02*
G37*
G36*
X153424Y-410675D02*
X153447Y-410917D01*
X153485Y-411148D01*
X153538Y-411368D01*
X153607Y-411577D01*
X153690Y-411776D01*
X153789Y-411963D01*
X153904Y-412140D01*
X154033Y-412305D01*
X154178Y-412460D01*
X150622D01*
X150767Y-412305D01*
X150896Y-412140D01*
X151011Y-411963D01*
X151110Y-411776D01*
X151194Y-411577D01*
X151262Y-411368D01*
X151315Y-411148D01*
X151354Y-410917D01*
X151376Y-410675D01*
X151384Y-410422D01*
X153416D01*
X153424Y-410675D01*
D02*
G37*
G36*
X175108Y-429587D02*
X174932Y-429477D01*
X174748Y-429378D01*
X174555Y-429291D01*
X174354Y-429215D01*
X174145Y-429151D01*
X173927Y-429099D01*
X173701Y-429058D01*
X173467Y-429029D01*
X172974Y-429006D01*
X172517Y-426974D01*
X172773Y-426965D01*
X173014Y-426939D01*
X173239Y-426896D01*
X173450Y-426835D01*
X173645Y-426756D01*
X173826Y-426660D01*
X173991Y-426547D01*
X174142Y-426416D01*
X174277Y-426268D01*
X174397Y-426103D01*
X175108Y-429587D01*
D02*
G37*
G36*
X-42481Y-432707D02*
X-42316Y-432836D01*
X-42139Y-432951D01*
X-41951Y-433050D01*
X-41753Y-433134D01*
X-41544Y-433202D01*
X-41324Y-433255D01*
X-41093Y-433293D01*
X-40851Y-433316D01*
X-40598Y-433324D01*
Y-435356D01*
X-40851Y-435364D01*
X-41093Y-435387D01*
X-41324Y-435425D01*
X-41544Y-435478D01*
X-41753Y-435546D01*
X-41951Y-435630D01*
X-42139Y-435729D01*
X-42316Y-435844D01*
X-42481Y-435973D01*
X-42636Y-436118D01*
Y-432562D01*
X-42481Y-432707D01*
D02*
G37*
G36*
X236946Y-441198D02*
X236814Y-441077D01*
X236668Y-440969D01*
X236507Y-440874D01*
X236331Y-440792D01*
X236140Y-440722D01*
X235935Y-440665D01*
X235715Y-440620D01*
X235481Y-440588D01*
X235232Y-440569D01*
X234968Y-440563D01*
Y-438277D01*
X235232Y-438271D01*
X235715Y-438220D01*
X235935Y-438175D01*
X236140Y-438118D01*
X236331Y-438048D01*
X236507Y-437966D01*
X236668Y-437871D01*
X236814Y-437763D01*
X236946Y-437642D01*
Y-441198D01*
D02*
G37*
G36*
X-19594Y-451358D02*
X-19749Y-451213D01*
X-19914Y-451084D01*
X-20091Y-450969D01*
X-20278Y-450870D01*
X-20477Y-450787D01*
X-20686Y-450718D01*
X-20906Y-450665D01*
X-21137Y-450626D01*
X-21379Y-450604D01*
X-21632Y-450596D01*
Y-448564D01*
X-21379Y-448556D01*
X-21137Y-448534D01*
X-20906Y-448495D01*
X-20686Y-448442D01*
X-20477Y-448373D01*
X-20278Y-448290D01*
X-20091Y-448191D01*
X-19914Y-448076D01*
X-19749Y-447947D01*
X-19594Y-447802D01*
Y-451358D01*
D02*
G37*
G36*
X-42481Y-447947D02*
X-42316Y-448076D01*
X-42139Y-448191D01*
X-41951Y-448290D01*
X-41753Y-448373D01*
X-41544Y-448442D01*
X-41324Y-448495D01*
X-41093Y-448534D01*
X-40851Y-448556D01*
X-40598Y-448564D01*
Y-450596D01*
X-40851Y-450604D01*
X-41093Y-450626D01*
X-41324Y-450665D01*
X-41544Y-450718D01*
X-41753Y-450787D01*
X-41951Y-450870D01*
X-42139Y-450969D01*
X-42316Y-451084D01*
X-42481Y-451213D01*
X-42636Y-451358D01*
Y-447802D01*
X-42481Y-447947D01*
D02*
G37*
G36*
X148171Y-448149D02*
X148323Y-448290D01*
X148487Y-448413D01*
X148664Y-448521D01*
X148854Y-448612D01*
X149057Y-448686D01*
X149273Y-448744D01*
X149501Y-448785D01*
X149743Y-448810D01*
X149997Y-448818D01*
X149774Y-450850D01*
X149522Y-450857D01*
X149280Y-450877D01*
X149047Y-450911D01*
X148823Y-450959D01*
X148609Y-451020D01*
X148404Y-451095D01*
X148208Y-451183D01*
X148022Y-451286D01*
X147845Y-451401D01*
X147677Y-451530D01*
X148033Y-447992D01*
X148171Y-448149D01*
D02*
G37*
G36*
X150586Y-460248D02*
X150431Y-460103D01*
X150266Y-459974D01*
X150089Y-459859D01*
X149902Y-459760D01*
X149703Y-459677D01*
X149494Y-459608D01*
X149274Y-459555D01*
X149043Y-459516D01*
X148801Y-459494D01*
X148548Y-459486D01*
Y-457454D01*
X148801Y-457446D01*
X149043Y-457424D01*
X149274Y-457385D01*
X149494Y-457332D01*
X149703Y-457263D01*
X149902Y-457180D01*
X150089Y-457081D01*
X150266Y-456966D01*
X150431Y-456837D01*
X150586Y-456692D01*
Y-460248D01*
D02*
G37*
G36*
X182512Y-465355D02*
X182339Y-465539D01*
X182184Y-465726D01*
X182048Y-465916D01*
X181930Y-466110D01*
X181830Y-466306D01*
X181749Y-466506D01*
X181687Y-466708D01*
X181642Y-466914D01*
X181617Y-467123D01*
X181610Y-467335D01*
X179095Y-464820D01*
X179307Y-464813D01*
X179516Y-464787D01*
X179722Y-464743D01*
X179924Y-464681D01*
X180124Y-464600D01*
X180320Y-464500D01*
X180514Y-464383D01*
X180704Y-464246D01*
X180891Y-464091D01*
X181075Y-463918D01*
X182512Y-465355D01*
D02*
G37*
G36*
X-28511Y-464457D02*
X-28345Y-464586D01*
X-28169Y-464701D01*
X-27982Y-464800D01*
X-27783Y-464883D01*
X-27574Y-464952D01*
X-27354Y-465005D01*
X-27123Y-465043D01*
X-26881Y-465066D01*
X-26628Y-465074D01*
Y-467106D01*
X-26881Y-467114D01*
X-27123Y-467136D01*
X-27354Y-467175D01*
X-27574Y-467228D01*
X-27783Y-467296D01*
X-27982Y-467380D01*
X-28169Y-467479D01*
X-28345Y-467594D01*
X-28511Y-467723D01*
X-28666Y-467868D01*
Y-464312D01*
X-28511Y-464457D01*
D02*
G37*
G36*
X179045Y-469900D02*
X178833Y-469907D01*
X178624Y-469933D01*
X178418Y-469977D01*
X178216Y-470039D01*
X178016Y-470120D01*
X177820Y-470220D01*
X177626Y-470337D01*
X177436Y-470474D01*
X177249Y-470629D01*
X177065Y-470802D01*
X175628Y-469365D01*
X175801Y-469181D01*
X175956Y-468994D01*
X176092Y-468804D01*
X176210Y-468610D01*
X176310Y-468414D01*
X176391Y-468214D01*
X176453Y-468012D01*
X176497Y-467806D01*
X176523Y-467597D01*
X176530Y-467385D01*
X179045Y-469900D01*
D02*
G37*
G36*
X24137Y-467597D02*
X24162Y-467806D01*
X24207Y-468012D01*
X24269Y-468214D01*
X24350Y-468414D01*
X24450Y-468610D01*
X24567Y-468804D01*
X24704Y-468994D01*
X24859Y-469181D01*
X25032Y-469365D01*
X23595Y-470802D01*
X23411Y-470629D01*
X23224Y-470474D01*
X23034Y-470337D01*
X22840Y-470220D01*
X22644Y-470120D01*
X22444Y-470039D01*
X22242Y-469977D01*
X22036Y-469933D01*
X21827Y-469907D01*
X21615Y-469900D01*
X24130Y-467385D01*
X24137Y-467597D01*
D02*
G37*
G36*
X-216471Y-470807D02*
X-216306Y-470936D01*
X-216129Y-471051D01*
X-215942Y-471150D01*
X-215743Y-471233D01*
X-215534Y-471302D01*
X-215314Y-471355D01*
X-215083Y-471394D01*
X-214841Y-471416D01*
X-214588Y-471424D01*
Y-473456D01*
X-214841Y-473464D01*
X-215083Y-473487D01*
X-215314Y-473525D01*
X-215534Y-473578D01*
X-215743Y-473647D01*
X-215942Y-473730D01*
X-216129Y-473829D01*
X-216306Y-473944D01*
X-216471Y-474073D01*
X-216626Y-474218D01*
Y-470662D01*
X-216471Y-470807D01*
D02*
G37*
G36*
X111189Y-474617D02*
X111355Y-474746D01*
X111531Y-474861D01*
X111719Y-474960D01*
X111917Y-475043D01*
X112126Y-475112D01*
X112346Y-475165D01*
X112577Y-475204D01*
X112819Y-475226D01*
X113072Y-475234D01*
Y-477266D01*
X112819Y-477274D01*
X112577Y-477296D01*
X112346Y-477335D01*
X112126Y-477388D01*
X111917Y-477457D01*
X111719Y-477540D01*
X111531Y-477639D01*
X111355Y-477754D01*
X111189Y-477883D01*
X111034Y-478028D01*
Y-474472D01*
X111189Y-474617D01*
D02*
G37*
G36*
X-208851Y-479697D02*
X-208685Y-479826D01*
X-208509Y-479941D01*
X-208321Y-480040D01*
X-208123Y-480123D01*
X-207914Y-480192D01*
X-207694Y-480245D01*
X-207463Y-480284D01*
X-207221Y-480306D01*
X-206968Y-480314D01*
Y-482346D01*
X-207221Y-482354D01*
X-207463Y-482377D01*
X-207694Y-482415D01*
X-207914Y-482468D01*
X-208123Y-482537D01*
X-208321Y-482620D01*
X-208509Y-482719D01*
X-208685Y-482834D01*
X-208851Y-482963D01*
X-209006Y-483108D01*
Y-479552D01*
X-208851Y-479697D01*
D02*
G37*
G36*
X172176Y-494538D02*
X172021Y-494393D01*
X171856Y-494264D01*
X171679Y-494149D01*
X171492Y-494050D01*
X171293Y-493966D01*
X171084Y-493898D01*
X170864Y-493845D01*
X170633Y-493806D01*
X170391Y-493784D01*
X170138Y-493776D01*
Y-491744D01*
X170391Y-491736D01*
X170633Y-491713D01*
X170864Y-491675D01*
X171084Y-491622D01*
X171293Y-491553D01*
X171492Y-491470D01*
X171679Y-491371D01*
X171856Y-491256D01*
X172021Y-491127D01*
X172176Y-490982D01*
Y-494538D01*
D02*
G37*
G36*
X152375Y-494030D02*
X152163Y-494037D01*
X151954Y-494062D01*
X151748Y-494107D01*
X151546Y-494169D01*
X151346Y-494250D01*
X151150Y-494350D01*
X150956Y-494468D01*
X150766Y-494604D01*
X150579Y-494759D01*
X150395Y-494932D01*
X148958Y-493495D01*
X149131Y-493311D01*
X149286Y-493124D01*
X149423Y-492934D01*
X149540Y-492740D01*
X149640Y-492544D01*
X149721Y-492344D01*
X149783Y-492142D01*
X149827Y-491936D01*
X149853Y-491727D01*
X149860Y-491515D01*
X152375Y-494030D01*
D02*
G37*
G36*
X-28511Y-492397D02*
X-28345Y-492526D01*
X-28169Y-492641D01*
X-27982Y-492740D01*
X-27783Y-492823D01*
X-27574Y-492892D01*
X-27354Y-492945D01*
X-27123Y-492984D01*
X-26881Y-493006D01*
X-26628Y-493014D01*
Y-495046D01*
X-26881Y-495054D01*
X-27123Y-495076D01*
X-27354Y-495115D01*
X-27574Y-495168D01*
X-27783Y-495237D01*
X-27982Y-495320D01*
X-28169Y-495419D01*
X-28345Y-495534D01*
X-28511Y-495663D01*
X-28666Y-495808D01*
Y-492252D01*
X-28511Y-492397D01*
D02*
G37*
G36*
X-445856Y-229870D02*
X-446129Y-229875D01*
X-446621Y-229916D01*
X-446839Y-229951D01*
X-447040Y-229997D01*
X-447221Y-230053D01*
X-447385Y-230119D01*
X-447530Y-230195D01*
X-447657Y-230282D01*
X-447766Y-230378D01*
Y-226822D01*
X-447657Y-226919D01*
X-447530Y-227005D01*
X-447385Y-227081D01*
X-447221Y-227147D01*
X-447040Y-227203D01*
X-446839Y-227249D01*
X-446621Y-227284D01*
X-446385Y-227310D01*
X-445856Y-227330D01*
Y-229870D01*
D02*
G37*
G36*
X-421456Y-249513D02*
X-421711Y-249521D01*
X-421952Y-249547D01*
X-422179Y-249590D01*
X-422391Y-249650D01*
X-422589Y-249727D01*
X-422773Y-249822D01*
X-422943Y-249933D01*
X-423098Y-250062D01*
X-423238Y-250208D01*
X-423365Y-250371D01*
X-423958Y-246865D01*
X-423784Y-246982D01*
X-423601Y-247086D01*
X-423410Y-247179D01*
X-423210Y-247259D01*
X-423002Y-247327D01*
X-422785Y-247382D01*
X-422560Y-247425D01*
X-422326Y-247456D01*
X-422084Y-247474D01*
X-421833Y-247481D01*
X-421456Y-249513D01*
D02*
G37*
G36*
X-343268Y-264695D02*
X-343441Y-264879D01*
X-343596Y-265066D01*
X-343732Y-265256D01*
X-343850Y-265450D01*
X-343950Y-265646D01*
X-344031Y-265846D01*
X-344093Y-266048D01*
X-344137Y-266254D01*
X-344163Y-266463D01*
X-344170Y-266675D01*
X-346685Y-264160D01*
X-346473Y-264153D01*
X-346264Y-264128D01*
X-346058Y-264083D01*
X-345856Y-264021D01*
X-345656Y-263940D01*
X-345460Y-263840D01*
X-345266Y-263722D01*
X-345076Y-263586D01*
X-344889Y-263431D01*
X-344705Y-263258D01*
X-343268Y-264695D01*
D02*
G37*
G36*
X-295175Y-238392D02*
X-295359Y-238219D01*
X-295546Y-238064D01*
X-295736Y-237927D01*
X-295930Y-237810D01*
X-296126Y-237710D01*
X-296326Y-237629D01*
X-296528Y-237567D01*
X-296734Y-237523D01*
X-296943Y-237497D01*
X-297155Y-237490D01*
X-294640Y-234975D01*
X-294633Y-235187D01*
X-294608Y-235396D01*
X-294563Y-235602D01*
X-294501Y-235804D01*
X-294420Y-236004D01*
X-294320Y-236200D01*
X-294202Y-236394D01*
X-294066Y-236584D01*
X-293911Y-236771D01*
X-293738Y-236955D01*
X-295175Y-238392D01*
D02*
G37*
G36*
X-248878Y-282956D02*
X-249131Y-282964D01*
X-249373Y-282987D01*
X-249604Y-283025D01*
X-249824Y-283078D01*
X-250033Y-283146D01*
X-250231Y-283230D01*
X-250419Y-283329D01*
X-250595Y-283444D01*
X-250761Y-283573D01*
X-250916Y-283718D01*
Y-280162D01*
X-250761Y-280307D01*
X-250595Y-280436D01*
X-250419Y-280551D01*
X-250231Y-280650D01*
X-250033Y-280734D01*
X-249824Y-280802D01*
X-249604Y-280855D01*
X-249373Y-280893D01*
X-249131Y-280916D01*
X-248878Y-280924D01*
Y-282956D01*
D02*
G37*
G36*
X-274864Y-258528D02*
X-275043Y-258355D01*
X-275370Y-258071D01*
X-275519Y-257959D01*
X-275658Y-257868D01*
X-275786Y-257798D01*
X-275905Y-257748D01*
X-276014Y-257719D01*
X-276113Y-257711D01*
X-276202Y-257723D01*
X-274354Y-255687D01*
X-274357Y-255775D01*
X-274339Y-255874D01*
X-274300Y-255985D01*
X-274239Y-256108D01*
X-274157Y-256243D01*
X-274053Y-256389D01*
X-273929Y-256547D01*
X-273616Y-256898D01*
X-273427Y-257092D01*
X-274864Y-258528D01*
D02*
G37*
G36*
X-219624Y-227330D02*
X-219350Y-227325D01*
X-218859Y-227284D01*
X-218640Y-227249D01*
X-218440Y-227203D01*
X-218258Y-227147D01*
X-218095Y-227081D01*
X-217950Y-227005D01*
X-217823Y-226919D01*
X-217714Y-226822D01*
Y-230378D01*
X-217823Y-230282D01*
X-217950Y-230195D01*
X-218095Y-230119D01*
X-218258Y-230053D01*
X-218440Y-229997D01*
X-218640Y-229951D01*
X-218859Y-229916D01*
X-219095Y-229890D01*
X-219624Y-229870D01*
Y-227330D01*
D02*
G37*
G36*
X-198050Y-247481D02*
X-197798Y-247473D01*
X-197556Y-247450D01*
X-197325Y-247412D01*
X-197104Y-247359D01*
X-196895Y-247290D01*
X-196697Y-247206D01*
X-196509Y-247107D01*
X-196333Y-246993D01*
X-196167Y-246863D01*
X-196012Y-246719D01*
Y-250275D01*
X-196167Y-250130D01*
X-196333Y-250000D01*
X-196509Y-249886D01*
X-196697Y-249787D01*
X-196895Y-249703D01*
X-197104Y-249635D01*
X-197325Y-249581D01*
X-197556Y-249543D01*
X-197798Y-249520D01*
X-198050Y-249513D01*
Y-247481D01*
D02*
G37*
G36*
X-145515Y-246748D02*
X-145331Y-246921D01*
X-145144Y-247076D01*
X-144954Y-247213D01*
X-144760Y-247330D01*
X-144564Y-247430D01*
X-144364Y-247511D01*
X-144162Y-247573D01*
X-143956Y-247617D01*
X-143747Y-247643D01*
X-143535Y-247650D01*
X-146050Y-250165D01*
X-146057Y-249953D01*
X-146082Y-249744D01*
X-146127Y-249538D01*
X-146189Y-249336D01*
X-146270Y-249136D01*
X-146370Y-248940D01*
X-146488Y-248746D01*
X-146624Y-248556D01*
X-146779Y-248369D01*
X-146952Y-248185D01*
X-145515Y-246748D01*
D02*
G37*
G36*
X-139165Y-298818D02*
X-138981Y-298991D01*
X-138794Y-299146D01*
X-138604Y-299282D01*
X-138410Y-299400D01*
X-138214Y-299500D01*
X-138014Y-299581D01*
X-137812Y-299643D01*
X-137606Y-299688D01*
X-137397Y-299713D01*
X-137185Y-299720D01*
X-139700Y-302235D01*
X-139707Y-302023D01*
X-139733Y-301814D01*
X-139777Y-301608D01*
X-139839Y-301406D01*
X-139920Y-301206D01*
X-140020Y-301010D01*
X-140138Y-300816D01*
X-140274Y-300626D01*
X-140429Y-300439D01*
X-140602Y-300255D01*
X-139165Y-298818D01*
D02*
G37*
G36*
X-107908Y-279146D02*
X-108161Y-279154D01*
X-108403Y-279177D01*
X-108634Y-279215D01*
X-108854Y-279268D01*
X-109063Y-279336D01*
X-109262Y-279420D01*
X-109449Y-279519D01*
X-109626Y-279634D01*
X-109791Y-279763D01*
X-109946Y-279908D01*
Y-276352D01*
X-109791Y-276497D01*
X-109626Y-276626D01*
X-109449Y-276741D01*
X-109262Y-276840D01*
X-109063Y-276924D01*
X-108854Y-276992D01*
X-108634Y-277045D01*
X-108403Y-277083D01*
X-108161Y-277106D01*
X-107908Y-277114D01*
Y-279146D01*
D02*
G37*
G36*
X-89635Y-291198D02*
X-89451Y-291371D01*
X-89264Y-291526D01*
X-89074Y-291663D01*
X-88880Y-291780D01*
X-88684Y-291880D01*
X-88484Y-291961D01*
X-88282Y-292023D01*
X-88076Y-292068D01*
X-87867Y-292093D01*
X-87655Y-292100D01*
X-90170Y-294615D01*
X-90177Y-294403D01*
X-90203Y-294194D01*
X-90247Y-293988D01*
X-90309Y-293786D01*
X-90390Y-293586D01*
X-90490Y-293390D01*
X-90608Y-293196D01*
X-90744Y-293006D01*
X-90899Y-292819D01*
X-91072Y-292635D01*
X-89635Y-291198D01*
D02*
G37*
G36*
X-65505Y-296278D02*
X-65321Y-296451D01*
X-65134Y-296606D01*
X-64944Y-296742D01*
X-64750Y-296860D01*
X-64554Y-296960D01*
X-64354Y-297041D01*
X-64152Y-297103D01*
X-63946Y-297148D01*
X-63737Y-297173D01*
X-63525Y-297180D01*
X-66040Y-299695D01*
X-66047Y-299483D01*
X-66073Y-299274D01*
X-66117Y-299068D01*
X-66179Y-298866D01*
X-66260Y-298666D01*
X-66360Y-298470D01*
X-66477Y-298276D01*
X-66614Y-298086D01*
X-66769Y-297899D01*
X-66942Y-297715D01*
X-65505Y-296278D01*
D02*
G37*
G36*
X-40399Y-308356D02*
X-40660Y-308365D01*
X-40899Y-308391D01*
X-41115Y-308436D01*
X-41308Y-308498D01*
X-41478Y-308578D01*
X-41626Y-308675D01*
X-41751Y-308790D01*
X-41853Y-308924D01*
X-41933Y-309074D01*
X-41990Y-309243D01*
X-43659Y-306196D01*
X-43559Y-306221D01*
X-43417Y-306242D01*
X-43003Y-306278D01*
X-41657Y-306319D01*
X-40726Y-306324D01*
X-40399Y-308356D01*
D02*
G37*
G36*
X-34658Y395705D02*
X-34831Y395521D01*
X-34986Y395334D01*
X-35122Y395144D01*
X-35240Y394950D01*
X-35340Y394754D01*
X-35421Y394554D01*
X-35483Y394352D01*
X-35528Y394146D01*
X-35553Y393937D01*
X-35560Y393725D01*
X-38075Y396240D01*
X-37863Y396247D01*
X-37654Y396273D01*
X-37448Y396317D01*
X-37246Y396379D01*
X-37046Y396460D01*
X-36850Y396560D01*
X-36656Y396678D01*
X-36466Y396814D01*
X-36279Y396969D01*
X-36095Y397142D01*
X-34658Y395705D01*
D02*
G37*
G36*
X-24921Y359536D02*
X-25021Y359561D01*
X-25163Y359582D01*
X-25577Y359618D01*
X-26923Y359659D01*
X-27854Y359664D01*
X-28181Y361696D01*
X-27920Y361705D01*
X-27681Y361731D01*
X-27466Y361776D01*
X-27272Y361838D01*
X-27102Y361918D01*
X-26954Y362015D01*
X-26829Y362131D01*
X-26727Y362264D01*
X-26647Y362414D01*
X-26590Y362583D01*
X-24921Y359536D01*
D02*
G37*
G36*
X-285773Y362414D02*
X-285693Y362264D01*
X-285591Y362131D01*
X-285466Y362015D01*
X-285318Y361918D01*
X-285148Y361838D01*
X-284954Y361776D01*
X-284739Y361731D01*
X-284500Y361705D01*
X-284239Y361696D01*
X-284566Y359664D01*
X-287499Y359536D01*
X-285830Y362583D01*
X-285773Y362414D01*
D02*
G37*
G36*
X-292671Y357233D02*
X-292505Y357104D01*
X-292329Y356989D01*
X-292141Y356890D01*
X-291943Y356806D01*
X-291734Y356738D01*
X-291514Y356685D01*
X-291283Y356646D01*
X-291041Y356624D01*
X-290788Y356616D01*
Y354584D01*
X-291041Y354576D01*
X-291283Y354553D01*
X-291514Y354515D01*
X-291734Y354462D01*
X-291943Y354394D01*
X-292141Y354310D01*
X-292329Y354211D01*
X-292505Y354096D01*
X-292671Y353967D01*
X-292826Y353822D01*
Y357378D01*
X-292671Y357233D01*
D02*
G37*
G36*
X-1993Y353755D02*
X-2131Y353912D01*
X-2281Y354053D01*
X-2445Y354178D01*
X-2621Y354285D01*
X-2811Y354377D01*
X-3013Y354451D01*
X-3228Y354509D01*
X-3457Y354551D01*
X-3698Y354576D01*
X-3952Y354584D01*
X-3714Y356616D01*
X-3462Y356623D01*
X-3220Y356643D01*
X-2987Y356677D01*
X-2763Y356724D01*
X-2549Y356785D01*
X-2343Y356859D01*
X-2147Y356946D01*
X-1960Y357048D01*
X-1782Y357162D01*
X-1614Y357290D01*
X-1993Y353755D01*
D02*
G37*
G36*
X-299021Y349613D02*
X-298855Y349484D01*
X-298679Y349369D01*
X-298491Y349270D01*
X-298293Y349187D01*
X-298084Y349118D01*
X-297864Y349065D01*
X-297633Y349026D01*
X-297391Y349004D01*
X-297138Y348996D01*
Y346964D01*
X-297391Y346956D01*
X-297633Y346934D01*
X-297864Y346895D01*
X-298084Y346842D01*
X-298293Y346773D01*
X-298491Y346690D01*
X-298679Y346591D01*
X-298855Y346476D01*
X-299021Y346347D01*
X-299176Y346202D01*
Y349758D01*
X-299021Y349613D01*
D02*
G37*
G36*
X-14514Y338582D02*
X-14669Y338727D01*
X-14835Y338856D01*
X-15011Y338971D01*
X-15199Y339070D01*
X-15397Y339154D01*
X-15606Y339222D01*
X-15826Y339275D01*
X-16057Y339314D01*
X-16299Y339336D01*
X-16552Y339344D01*
Y341376D01*
X-16299Y341384D01*
X-16057Y341407D01*
X-15826Y341445D01*
X-15606Y341498D01*
X-15397Y341567D01*
X-15199Y341650D01*
X-15011Y341749D01*
X-14835Y341864D01*
X-14669Y341993D01*
X-14514Y342138D01*
Y338582D01*
D02*
G37*
G36*
X-279971Y341993D02*
X-279806Y341864D01*
X-279629Y341749D01*
X-279442Y341650D01*
X-279243Y341567D01*
X-279034Y341498D01*
X-278814Y341445D01*
X-278583Y341407D01*
X-278341Y341384D01*
X-278088Y341376D01*
Y339344D01*
X-278341Y339336D01*
X-278583Y339314D01*
X-278814Y339275D01*
X-279034Y339222D01*
X-279243Y339154D01*
X-279442Y339070D01*
X-279629Y338971D01*
X-279806Y338856D01*
X-279971Y338727D01*
X-280126Y338582D01*
Y342138D01*
X-279971Y341993D01*
D02*
G37*
G36*
X-176254Y-189112D02*
X-176330Y-188990D01*
X-176429Y-188880D01*
X-176549Y-188783D01*
X-176691Y-188700D01*
X-176855Y-188629D01*
X-177041Y-188571D01*
X-177248Y-188526D01*
X-177478Y-188494D01*
X-177729Y-188475D01*
X-178003Y-188468D01*
X-177038Y-185928D01*
X-176756Y-185926D01*
X-175670Y-185853D01*
X-175517Y-185826D01*
X-175386Y-185795D01*
X-175276Y-185759D01*
X-175187Y-185720D01*
X-176254Y-189112D01*
D02*
G37*
G36*
X-435973Y-186278D02*
X-435846Y-186365D01*
X-435701Y-186441D01*
X-435537Y-186507D01*
X-435356Y-186563D01*
X-435155Y-186609D01*
X-434937Y-186644D01*
X-434701Y-186670D01*
X-434172Y-186690D01*
Y-189230D01*
X-434445Y-189235D01*
X-434937Y-189276D01*
X-435155Y-189311D01*
X-435356Y-189357D01*
X-435537Y-189413D01*
X-435701Y-189479D01*
X-435846Y-189555D01*
X-435973Y-189641D01*
X-436082Y-189738D01*
Y-186182D01*
X-435973Y-186278D01*
D02*
G37*
G36*
X-270503Y-198357D02*
X-270478Y-198566D01*
X-270433Y-198772D01*
X-270371Y-198974D01*
X-270290Y-199174D01*
X-270190Y-199370D01*
X-270072Y-199564D01*
X-269936Y-199754D01*
X-269781Y-199941D01*
X-269608Y-200125D01*
X-271045Y-201562D01*
X-271229Y-201389D01*
X-271416Y-201234D01*
X-271606Y-201098D01*
X-271800Y-200980D01*
X-271996Y-200880D01*
X-272196Y-200799D01*
X-272398Y-200737D01*
X-272604Y-200693D01*
X-272813Y-200667D01*
X-273025Y-200660D01*
X-270510Y-198145D01*
X-270503Y-198357D01*
D02*
G37*
G36*
X-45056Y-218451D02*
X-44869Y-218606D01*
X-44678Y-218742D01*
X-44485Y-218860D01*
X-44289Y-218960D01*
X-44089Y-219041D01*
X-43886Y-219103D01*
X-43681Y-219147D01*
X-43472Y-219173D01*
X-43260Y-219180D01*
X-45774Y-221694D01*
X-45782Y-221482D01*
X-45807Y-221274D01*
X-45851Y-221068D01*
X-45914Y-220865D01*
X-45995Y-220666D01*
X-46094Y-220469D01*
X-46212Y-220276D01*
X-46349Y-220086D01*
X-46503Y-219898D01*
X-46677Y-219714D01*
X-45240Y-218277D01*
X-45056Y-218451D01*
D02*
G37*
G36*
X-417131Y-219347D02*
X-416965Y-219476D01*
X-416789Y-219591D01*
X-416601Y-219690D01*
X-416403Y-219774D01*
X-416194Y-219842D01*
X-415974Y-219895D01*
X-415743Y-219933D01*
X-415501Y-219956D01*
X-415248Y-219964D01*
Y-221996D01*
X-415501Y-222004D01*
X-415743Y-222027D01*
X-415974Y-222065D01*
X-416194Y-222118D01*
X-416403Y-222187D01*
X-416601Y-222270D01*
X-416789Y-222369D01*
X-416965Y-222484D01*
X-417131Y-222613D01*
X-417286Y-222758D01*
Y-219202D01*
X-417131Y-219347D01*
D02*
G37*
G36*
X-176388Y-225882D02*
X-176543Y-225737D01*
X-176708Y-225607D01*
X-176885Y-225493D01*
X-177072Y-225394D01*
X-177271Y-225310D01*
X-177480Y-225242D01*
X-177700Y-225188D01*
X-177931Y-225150D01*
X-178173Y-225127D01*
X-178426Y-225120D01*
Y-223088D01*
X-178173Y-223080D01*
X-177931Y-223057D01*
X-177700Y-223019D01*
X-177480Y-222966D01*
X-177271Y-222897D01*
X-177072Y-222813D01*
X-176885Y-222714D01*
X-176708Y-222600D01*
X-176543Y-222471D01*
X-176388Y-222326D01*
Y-225882D01*
D02*
G37*
G36*
X3810Y-261706D02*
X3815Y-261980D01*
X3856Y-262471D01*
X3891Y-262689D01*
X3937Y-262890D01*
X3993Y-263071D01*
X4059Y-263235D01*
X4135Y-263380D01*
X4221Y-263507D01*
X4318Y-263616D01*
X762D01*
X859Y-263507D01*
X945Y-263380D01*
X1021Y-263235D01*
X1087Y-263071D01*
X1143Y-262890D01*
X1189Y-262689D01*
X1224Y-262471D01*
X1250Y-262234D01*
X1270Y-261706D01*
X3810D01*
D02*
G37*
G36*
X205246Y-42600D02*
X205241Y-42327D01*
X205201Y-41835D01*
X205165Y-41617D01*
X205119Y-41417D01*
X205063Y-41235D01*
X204997Y-41071D01*
X204921Y-40926D01*
X204835Y-40799D01*
X204738Y-40690D01*
X208294D01*
X208198Y-40799D01*
X208111Y-40926D01*
X208035Y-41071D01*
X207969Y-41235D01*
X207913Y-41417D01*
X207868Y-41617D01*
X207832Y-41835D01*
X207807Y-42072D01*
X207786Y-42600D01*
X205246D01*
D02*
G37*
G36*
X211253Y-38668D02*
X211247Y-38404D01*
X211196Y-37920D01*
X211151Y-37700D01*
X211094Y-37495D01*
X211024Y-37304D01*
X210942Y-37129D01*
X210847Y-36967D01*
X210739Y-36821D01*
X210618Y-36689D01*
X214174D01*
X214053Y-36821D01*
X213945Y-36967D01*
X213850Y-37129D01*
X213768Y-37304D01*
X213698Y-37495D01*
X213641Y-37700D01*
X213596Y-37920D01*
X213564Y-38154D01*
X213545Y-38404D01*
X213539Y-38668D01*
X211253D01*
D02*
G37*
G36*
X219503Y-32601D02*
X219495Y-32348D01*
X219472Y-32106D01*
X219434Y-31875D01*
X219381Y-31655D01*
X219312Y-31446D01*
X219228Y-31247D01*
X219129Y-31060D01*
X219015Y-30883D01*
X218885Y-30717D01*
X218741Y-30563D01*
X222297D01*
X222152Y-30717D01*
X222022Y-30883D01*
X221908Y-31060D01*
X221809Y-31247D01*
X221725Y-31446D01*
X221657Y-31655D01*
X221603Y-31875D01*
X221565Y-32106D01*
X221542Y-32348D01*
X221535Y-32601D01*
X219503D01*
D02*
G37*
G36*
X244119Y-124925D02*
X244308Y-124728D01*
X244627Y-124352D01*
X244757Y-124172D01*
X244866Y-123998D01*
X244955Y-123830D01*
X245024Y-123668D01*
X245073Y-123511D01*
X245102Y-123361D01*
X245110Y-123215D01*
X247625Y-125730D01*
X247479Y-125738D01*
X247329Y-125767D01*
X247172Y-125816D01*
X247010Y-125885D01*
X246842Y-125974D01*
X246668Y-126083D01*
X246488Y-126213D01*
X246303Y-126362D01*
X245915Y-126721D01*
X244119Y-124925D01*
D02*
G37*
G36*
X395338Y-273785D02*
X395511Y-273601D01*
X395666Y-273414D01*
X395802Y-273224D01*
X395920Y-273030D01*
X396020Y-272834D01*
X396101Y-272634D01*
X396163Y-272432D01*
X396208Y-272226D01*
X396233Y-272017D01*
X396240Y-271805D01*
X398755Y-274320D01*
X398543Y-274327D01*
X398334Y-274352D01*
X398128Y-274397D01*
X397926Y-274459D01*
X397726Y-274540D01*
X397530Y-274640D01*
X397336Y-274757D01*
X397146Y-274894D01*
X396959Y-275049D01*
X396775Y-275222D01*
X395338Y-273785D01*
D02*
G37*
G36*
X435864Y-234992D02*
X435856Y-234739D01*
X435834Y-234497D01*
X435795Y-234266D01*
X435742Y-234046D01*
X435673Y-233837D01*
X435590Y-233638D01*
X435491Y-233451D01*
X435376Y-233274D01*
X435247Y-233109D01*
X435102Y-232954D01*
X438658D01*
X438513Y-233109D01*
X438384Y-233274D01*
X438269Y-233451D01*
X438170Y-233638D01*
X438087Y-233837D01*
X438018Y-234046D01*
X437965Y-234266D01*
X437926Y-234497D01*
X437904Y-234739D01*
X437896Y-234992D01*
X435864D01*
D02*
G37*
G36*
X225218Y-26886D02*
X225210Y-26633D01*
X225187Y-26391D01*
X225149Y-26160D01*
X225096Y-25940D01*
X225027Y-25731D01*
X224943Y-25532D01*
X224844Y-25345D01*
X224730Y-25168D01*
X224600Y-25002D01*
X224456Y-24848D01*
X228012D01*
X227867Y-25002D01*
X227737Y-25168D01*
X227623Y-25345D01*
X227524Y-25532D01*
X227440Y-25731D01*
X227372Y-25940D01*
X227318Y-26160D01*
X227280Y-26391D01*
X227257Y-26633D01*
X227250Y-26886D01*
X225218D01*
D02*
G37*
G36*
X231558Y-23664D02*
X231551Y-23411D01*
X231528Y-23169D01*
X231490Y-22938D01*
X231436Y-22718D01*
X231368Y-22509D01*
X231284Y-22311D01*
X231185Y-22123D01*
X231070Y-21946D01*
X230941Y-21781D01*
X230796Y-21626D01*
X234352D01*
X234207Y-21781D01*
X234078Y-21946D01*
X233964Y-22123D01*
X233864Y-22311D01*
X233781Y-22509D01*
X233712Y-22718D01*
X233659Y-22938D01*
X233621Y-23169D01*
X233598Y-23411D01*
X233590Y-23664D01*
X231558D01*
D02*
G37*
G36*
X89698Y324104D02*
X89447Y324099D01*
X88969Y324062D01*
X88743Y324030D01*
X88315Y323938D01*
X88113Y323877D01*
X87920Y323808D01*
X87734Y323730D01*
X87557Y323642D01*
X88624Y327034D01*
X88724Y326863D01*
X88841Y326711D01*
X88977Y326576D01*
X89129Y326459D01*
X89299Y326361D01*
X89487Y326280D01*
X89691Y326217D01*
X89914Y326172D01*
X90154Y326145D01*
X90411Y326136D01*
X89698Y324104D01*
D02*
G37*
G36*
X125601Y326136D02*
X125854Y326144D01*
X126096Y326167D01*
X126326Y326207D01*
X126545Y326262D01*
X126752Y326332D01*
X126948Y326419D01*
X127132Y326521D01*
X127305Y326639D01*
X127466Y326772D01*
X127615Y326922D01*
X127737Y323368D01*
X127577Y323508D01*
X127407Y323633D01*
X127227Y323743D01*
X127037Y323839D01*
X126836Y323920D01*
X126625Y323986D01*
X126403Y324038D01*
X126171Y324075D01*
X125929Y324097D01*
X125677Y324104D01*
X125601Y326136D01*
D02*
G37*
G36*
X41952Y338074D02*
X41699Y338066D01*
X41457Y338044D01*
X41226Y338005D01*
X41006Y337952D01*
X40797Y337883D01*
X40599Y337800D01*
X40411Y337701D01*
X40234Y337586D01*
X40069Y337457D01*
X39914Y337312D01*
Y340868D01*
X40069Y340723D01*
X40234Y340594D01*
X40411Y340479D01*
X40599Y340380D01*
X40797Y340297D01*
X41006Y340228D01*
X41226Y340175D01*
X41457Y340136D01*
X41699Y340114D01*
X41952Y340106D01*
Y338074D01*
D02*
G37*
G36*
X105368Y340106D02*
X105621Y340114D01*
X105863Y340136D01*
X106094Y340175D01*
X106314Y340228D01*
X106523Y340297D01*
X106721Y340380D01*
X106909Y340479D01*
X107086Y340594D01*
X107251Y340723D01*
X107406Y340868D01*
Y337312D01*
X107251Y337457D01*
X107086Y337586D01*
X106909Y337701D01*
X106721Y337800D01*
X106523Y337883D01*
X106314Y337952D01*
X106094Y338005D01*
X105863Y338044D01*
X105621Y338066D01*
X105368Y338074D01*
Y340106D01*
D02*
G37*
G36*
X140928Y332486D02*
X141181Y332494D01*
X141423Y332517D01*
X141654Y332555D01*
X141874Y332608D01*
X142083Y332677D01*
X142282Y332760D01*
X142469Y332859D01*
X142646Y332974D01*
X142811Y333103D01*
X142966Y333248D01*
Y329692D01*
X142811Y329837D01*
X142646Y329966D01*
X142469Y330081D01*
X142282Y330180D01*
X142083Y330263D01*
X141874Y330332D01*
X141654Y330385D01*
X141423Y330424D01*
X141181Y330446D01*
X140928Y330454D01*
Y332486D01*
D02*
G37*
G36*
X2498Y348996D02*
X2751Y349004D01*
X2993Y349026D01*
X3224Y349065D01*
X3444Y349118D01*
X3653Y349187D01*
X3851Y349270D01*
X4039Y349369D01*
X4216Y349484D01*
X4381Y349613D01*
X4536Y349758D01*
Y346202D01*
X4381Y346347D01*
X4216Y346476D01*
X4039Y346591D01*
X3851Y346690D01*
X3653Y346773D01*
X3444Y346842D01*
X3224Y346895D01*
X2993Y346934D01*
X2751Y346956D01*
X2498Y346964D01*
Y348996D01*
D02*
G37*
G36*
X29252Y354584D02*
X28999Y354576D01*
X28757Y354553D01*
X28526Y354515D01*
X28306Y354462D01*
X28097Y354394D01*
X27898Y354310D01*
X27711Y354211D01*
X27534Y354096D01*
X27369Y353967D01*
X27214Y353822D01*
Y357378D01*
X27369Y357233D01*
X27534Y357104D01*
X27711Y356989D01*
X27898Y356890D01*
X28097Y356806D01*
X28306Y356738D01*
X28526Y356685D01*
X28757Y356646D01*
X28999Y356624D01*
X29252Y356616D01*
Y354584D01*
D02*
G37*
G36*
X36291Y364236D02*
X36039Y364228D01*
X35797Y364206D01*
X35566Y364167D01*
X35346Y364114D01*
X35136Y364045D01*
X34938Y363962D01*
X34751Y363863D01*
X34574Y363748D01*
X34408Y363619D01*
X34253Y363474D01*
Y367030D01*
X34408Y366885D01*
X34574Y366756D01*
X34751Y366641D01*
X34938Y366542D01*
X35136Y366459D01*
X35346Y366390D01*
X35566Y366337D01*
X35797Y366298D01*
X36039Y366276D01*
X36291Y366268D01*
Y364236D01*
D02*
G37*
G36*
X47635Y380492D02*
X47368Y380484D01*
X47129Y380462D01*
X46917Y380423D01*
X46734Y380370D01*
X46580Y380302D01*
X46453Y380218D01*
X46355Y380119D01*
X46284Y380004D01*
X46242Y379875D01*
X46228Y379730D01*
X44090Y382238D01*
X47026Y382524D01*
X47635Y380492D01*
D02*
G37*
G36*
X67551Y346964D02*
X67290Y346955D01*
X67051Y346928D01*
X66835Y346884D01*
X66642Y346822D01*
X66472Y346742D01*
X66324Y346645D01*
X66199Y346530D01*
X66097Y346396D01*
X66017Y346246D01*
X65960Y346077D01*
X64291Y349124D01*
X64391Y349099D01*
X64533Y349078D01*
X64947Y349042D01*
X66293Y349001D01*
X67224Y348996D01*
X67551Y346964D01*
D02*
G37*
G36*
X74464Y374904D02*
X74211Y374896D01*
X73969Y374874D01*
X73738Y374835D01*
X73518Y374782D01*
X73309Y374714D01*
X73110Y374630D01*
X72923Y374531D01*
X72747Y374416D01*
X72581Y374287D01*
X72426Y374142D01*
Y377698D01*
X72581Y377553D01*
X72747Y377424D01*
X72923Y377309D01*
X73110Y377210D01*
X73309Y377127D01*
X73518Y377058D01*
X73738Y377005D01*
X73969Y376967D01*
X74211Y376944D01*
X74464Y376936D01*
Y374904D01*
D02*
G37*
G36*
X102596Y359104D02*
X102849Y359112D01*
X103090Y359134D01*
X103322Y359173D01*
X103542Y359226D01*
X103751Y359295D01*
X103949Y359378D01*
X104137Y359477D01*
X104313Y359592D01*
X104479Y359721D01*
X104634Y359866D01*
Y356310D01*
X104479Y356455D01*
X104313Y356584D01*
X104137Y356699D01*
X103949Y356798D01*
X103751Y356881D01*
X103542Y356950D01*
X103322Y357003D01*
X103090Y357042D01*
X102849Y357064D01*
X102596Y357072D01*
Y359104D01*
D02*
G37*
G36*
X110448Y348996D02*
X110701Y349004D01*
X110943Y349026D01*
X111174Y349065D01*
X111394Y349118D01*
X111603Y349187D01*
X111802Y349270D01*
X111989Y349369D01*
X112165Y349484D01*
X112331Y349613D01*
X112486Y349758D01*
Y346202D01*
X112331Y346347D01*
X112165Y346476D01*
X111989Y346591D01*
X111802Y346690D01*
X111603Y346773D01*
X111394Y346842D01*
X111174Y346895D01*
X110943Y346934D01*
X110701Y346956D01*
X110448Y346964D01*
Y348996D01*
D02*
G37*
G36*
X112946Y356514D02*
X113199Y356522D01*
X113441Y356545D01*
X113671Y356585D01*
X113890Y356640D01*
X114096Y356711D01*
X114292Y356798D01*
X114475Y356901D01*
X114647Y357019D01*
X114807Y357153D01*
X114956Y357304D01*
X115099Y353750D01*
X114939Y353889D01*
X114768Y354014D01*
X114587Y354123D01*
X114396Y354218D01*
X114195Y354299D01*
X113983Y354365D01*
X113762Y354416D01*
X113530Y354452D01*
X113288Y354474D01*
X113035Y354482D01*
X112946Y356514D01*
D02*
G37*
G36*
X124418Y364236D02*
X124671Y364244D01*
X124913Y364267D01*
X125144Y364305D01*
X125364Y364358D01*
X125573Y364426D01*
X125772Y364510D01*
X125959Y364609D01*
X126136Y364724D01*
X126301Y364853D01*
X126456Y364998D01*
Y361442D01*
X126301Y361587D01*
X126136Y361716D01*
X125959Y361831D01*
X125772Y361930D01*
X125573Y362014D01*
X125364Y362082D01*
X125144Y362135D01*
X124913Y362174D01*
X124671Y362196D01*
X124418Y362204D01*
Y364236D01*
D02*
G37*
G36*
X121723Y375511D02*
X121976Y375519D01*
X122218Y375541D01*
X122449Y375580D01*
X122669Y375633D01*
X122878Y375702D01*
X123076Y375785D01*
X123264Y375884D01*
X123441Y375999D01*
X123606Y376128D01*
X123761Y376273D01*
Y372717D01*
X123606Y372862D01*
X123441Y372991D01*
X123264Y373106D01*
X123076Y373205D01*
X122878Y373289D01*
X122669Y373357D01*
X122449Y373410D01*
X122218Y373449D01*
X121976Y373471D01*
X121723Y373479D01*
Y375511D01*
D02*
G37*
G36*
X107908Y397256D02*
X108161Y397264D01*
X108403Y397286D01*
X108634Y397325D01*
X108854Y397378D01*
X109063Y397447D01*
X109262Y397530D01*
X109449Y397629D01*
X109626Y397744D01*
X109791Y397873D01*
X109946Y398018D01*
Y394462D01*
X109791Y394607D01*
X109626Y394736D01*
X109449Y394851D01*
X109262Y394950D01*
X109063Y395033D01*
X108854Y395102D01*
X108634Y395155D01*
X108403Y395193D01*
X108161Y395216D01*
X107908Y395224D01*
Y397256D01*
D02*
G37*
G36*
X115528Y404876D02*
X115781Y404884D01*
X116023Y404907D01*
X116254Y404945D01*
X116474Y404998D01*
X116683Y405066D01*
X116882Y405150D01*
X117069Y405249D01*
X117246Y405364D01*
X117411Y405493D01*
X117566Y405638D01*
Y402082D01*
X117411Y402227D01*
X117246Y402356D01*
X117069Y402471D01*
X116882Y402570D01*
X116683Y402654D01*
X116474Y402722D01*
X116254Y402775D01*
X116023Y402813D01*
X115781Y402836D01*
X115528Y402844D01*
Y404876D01*
D02*
G37*
D14*
X206516Y-44944D02*
Y-38876D01*
X184912Y-66548D02*
X206516Y-44944D01*
X178493Y-87579D02*
X184912Y-81160D01*
Y-66548D01*
X147320Y-118110D02*
X177851Y-87579D01*
X178493D01*
X143467Y-118110D02*
X147320D01*
X181610Y-295910D02*
X182096Y-295424D01*
X185906D02*
X189230Y-292100D01*
X182096Y-295424D02*
X185906D01*
X189230Y-292100D02*
Y-214630D01*
X-84582Y385318D02*
X-76200Y393700D01*
X-307340Y385318D02*
X-84582D01*
X-64008Y379222D02*
X-63500Y379730D01*
X-314960Y379222D02*
X-64008D01*
X-321310Y391160D02*
X-91658D01*
X-89118Y393700D01*
X-443738Y-212090D02*
X-375267D01*
X-374505Y-211328D02*
X-350000D01*
X-375267Y-212090D02*
X-374505Y-211328D01*
X-348475Y-212852D02*
X-323970D01*
X-350000Y-211328D02*
X-348475Y-212852D01*
X-323970D02*
X-321176Y-210058D01*
X-285780D01*
X-283748Y-212090D01*
X-251460D01*
X-327660Y373380D02*
X-50800D01*
X137160Y-118110D02*
X138139D01*
X138383Y-117866D02*
X143223D01*
X138139Y-118110D02*
X138383Y-117866D01*
X125222Y-130048D02*
X137160Y-118110D01*
X143223Y-117866D02*
X143467Y-118110D01*
X125222Y-131960D02*
Y-130048D01*
X-216587Y-140970D02*
X-215900D01*
X-218440Y-142240D02*
X-217857D01*
X-428244Y-166370D02*
X-242570D01*
X-217857Y-142240D02*
X-216587Y-140970D01*
X-242570Y-166370D02*
X-218440Y-142240D01*
X-437896Y-187960D02*
X-389225D01*
X-388463Y-187198D01*
X-175439D01*
X-174677Y-187960D01*
X-173990D01*
X2540Y-265430D02*
Y-254642D01*
X125222Y-131960D01*
X-432054Y-170180D02*
X-428244Y-166370D01*
X-449580Y-228600D02*
X-215900D01*
X166370Y-191770D02*
Y-176530D01*
X215900Y-127000D01*
X166370Y-191770D02*
X189230Y-214630D01*
X215900Y-127000D02*
X243840D01*
X247650Y-123190D01*
D19*
X74638Y-452994D02*
G03*
X84211Y-447725I1562J8494D01*
G01*
X83532Y-243078D02*
X127220Y-199390D01*
X232574Y-94036D01*
Y-19812D01*
X226234Y-94629D02*
Y-23034D01*
X121920Y-198942D02*
X226234Y-94629D01*
X220519Y-89644D02*
Y-88900D01*
Y-28749D01*
X38927Y-243078D02*
X83532D01*
X143285Y-166878D02*
X220519Y-89644D01*
X81848Y-239014D02*
X121920Y-198942D01*
X-29435Y-487172D02*
X41402D01*
X49530Y-495300D02*
X111380D01*
X41402Y-487172D02*
X49530Y-495300D01*
X111380D02*
X118924Y-487756D01*
X86630Y-443484D02*
X120904D01*
X85439Y-444674D02*
X86630Y-443484D01*
X34067Y-434340D02*
X47188Y-447461D01*
X47783Y-448056D02*
X74638Y-452994D01*
X84211Y-447725D02*
X85439Y-444674D01*
X47188Y-447461D02*
X47783Y-448056D01*
X467360Y-251460D02*
Y-220980D01*
X208280Y-480060D02*
X229979D01*
X198176Y-490164D02*
X208280Y-480060D01*
X229979D02*
X239408Y-470631D01*
X42184Y-494030D02*
X48280Y-500126D01*
X117730D01*
X118924Y-498932D01*
X114784Y-481838D02*
X116308Y-480314D01*
X65424Y-471424D02*
X75838Y-481838D01*
X114784D01*
X65553Y-419100D02*
X88900D01*
X-6075Y-390398D02*
X124512D01*
X128270Y-386640D01*
X-3129Y-397510D02*
X130810D01*
X-6177Y-400558D02*
X-3129Y-397510D01*
X-9123Y-393446D02*
X-6075Y-390398D01*
X62230Y-415777D02*
X65553Y-419100D01*
X62230Y-415777D02*
Y-410464D01*
X176784Y-427736D02*
X177038Y-427482D01*
X202076D01*
X-86896Y-388620D02*
X-82070Y-393446D01*
X-191262Y-400558D02*
X-6177D01*
X-82070Y-393446D02*
X-9123D01*
X-198120Y-393700D02*
X-191262Y-400558D01*
X487680Y-160020D02*
Y-149860D01*
X433070Y-95250D02*
X487680Y-149860D01*
X433070Y-95250D02*
Y-29210D01*
X411480Y-7620D02*
X433070Y-29210D01*
X359410Y-7620D02*
X411480D01*
X344422Y7368D02*
X359410Y-7620D01*
X426720Y-101600D02*
X452120Y-127000D01*
X426720Y-101600D02*
Y-31750D01*
X408940Y-13970D02*
X426720Y-31750D01*
X354330Y-13970D02*
X408940D01*
X338707Y1653D02*
X354330Y-13970D01*
X87947Y325120D02*
X129402D01*
X86360Y325882D02*
X87185D01*
X87947Y325120D01*
X55880Y333502D02*
X56562D01*
X58594Y331470D01*
X144780D01*
X194913Y-490164D02*
X198176D01*
X158415Y-474726D02*
X179276Y-453865D01*
X247417Y-454406D02*
X378460Y-323363D01*
X179070Y-467360D02*
X188501Y-457929D01*
X249100Y-458470D02*
X436880Y-270690D01*
X179276Y-453865D02*
X239722D01*
X238039Y-457929D02*
X238580Y-458470D01*
X239722Y-453865D02*
X240263Y-454406D01*
X238580Y-458470D02*
X249100D01*
X188501Y-457929D02*
X238039D01*
X240263Y-454406D02*
X247417D01*
X378460Y-323363D02*
Y-292100D01*
X436880Y-270690D02*
Y-231140D01*
X239408Y-470631D02*
X248188D01*
X172857Y-473573D02*
X179070Y-467360D01*
X259080Y-422910D02*
X328930Y-353060D01*
X233842Y-422910D02*
X259080D01*
X121920D02*
X173199D01*
X88900Y-419100D02*
X91694Y-421894D01*
X202076Y-427482D02*
X204870Y-424688D01*
X260763Y-426974D02*
X368300Y-319437D01*
X204870Y-424688D02*
X229873D01*
X175485Y-420624D02*
X231556D01*
X229873Y-424688D02*
X232159Y-426974D01*
X231556Y-420624D02*
X233842Y-422910D01*
X91694Y-421894D02*
X115157D01*
X232159Y-426974D02*
X260763D01*
X173199Y-422910D02*
X175485Y-420624D01*
X121253Y-427990D02*
X176022D01*
X115157Y-421894D02*
X121253Y-427990D01*
X176022D02*
X176530Y-427482D01*
X107522Y-408512D02*
X121920Y-422910D01*
X120904Y-443484D02*
X135890Y-458470D01*
X378460Y-292100D02*
X398780Y-271780D01*
X368300Y-319437D02*
Y-308610D01*
X248188Y-470631D02*
X467360Y-251460D01*
X141658Y-478790D02*
X166857D01*
X172074Y-473573D01*
X172857D01*
X-370615Y-222758D02*
X-203962D01*
X-372393Y-220980D02*
X-370615Y-222758D01*
X-203962D02*
X-202616Y-224104D01*
X-419100Y-220980D02*
X-372393D01*
X-396240Y-337820D02*
X-296897D01*
X-295119Y-339598D01*
X-221771D01*
X-219993Y-337820D01*
X-133350D01*
X-265430Y-327660D02*
X-144780D01*
X-20372Y-355637D02*
X-15927D01*
X-20955Y-356220D02*
X-20372Y-355637D01*
X-15927D02*
X-10922Y-350632D01*
X29353Y-351322D02*
X68112D01*
X28662Y-350632D02*
X29353Y-351322D01*
X-10922Y-350632D02*
X28662D01*
X116308Y-480314D02*
X140134D01*
X142751Y-487756D02*
X144604Y-485902D01*
X118924Y-498932D02*
X144958D01*
X109220Y-476250D02*
X138451D01*
X118924Y-487756D02*
X142751D01*
X138451Y-476250D02*
X139975Y-474726D01*
X140134Y-480314D02*
X141658Y-478790D01*
X-44450Y-434340D02*
X34067D01*
X123952Y-358902D02*
X152400Y-387350D01*
X68112Y-351322D02*
X75692Y-358902D01*
X123952D01*
X53519Y-342686D02*
X87390D01*
X-26670Y-327660D02*
X-22860Y-331470D01*
X87390Y-342686D02*
X96494Y-351790D01*
X-22860Y-331470D02*
X91440D01*
X96494Y-351790D02*
X129540D01*
X98804Y-523192D02*
X104021Y-517975D01*
X108418D02*
X113635Y-512758D01*
X140305D01*
X104021Y-517975D02*
X108418D01*
X-35277Y-481330D02*
X-29435Y-487172D01*
X-30480Y-494030D02*
X42184D01*
X155977Y-467106D02*
X161036Y-462047D01*
X21590Y-467360D02*
X25654Y-471424D01*
X137537Y-467106D02*
X155977D01*
X112797Y-467614D02*
X113051Y-467868D01*
X30755Y-464312D02*
X106877D01*
X25654Y-471424D02*
X65424D01*
X106877Y-464312D02*
X110179Y-467614D01*
X136775Y-467868D02*
X137537Y-467106D01*
X25167Y-458724D02*
X30755Y-464312D01*
X113051Y-467868D02*
X136775D01*
X110179Y-467614D02*
X112797D01*
X35560Y-234950D02*
X73943D01*
X121920Y-183137D02*
X138179Y-166878D01*
X100084Y-208809D02*
Y-204973D01*
X121920Y-183137D01*
X73943Y-234950D02*
X100084Y-208809D01*
X138179Y-166878D02*
X143285D01*
X37243Y-239014D02*
X81848D01*
X-58703Y-217170D02*
X-58195Y-217678D01*
X-47276D02*
X-43235Y-221720D01*
X-240030Y-204470D02*
X-227330Y-217170D01*
X-58195Y-217678D02*
X-47276D01*
X-227330Y-217170D02*
X-58703D01*
X-266700Y-204470D02*
X-240030D01*
X-273050Y-198120D02*
X-266700Y-204470D01*
X-276686Y-255270D02*
X-274146Y-257810D01*
X-276860Y-255270D02*
X-276686D01*
X-274146Y-257810D02*
X-97790D01*
X-61468Y-294132D01*
X-61185D01*
X-54610Y-300707D01*
Y-318770D02*
Y-300707D01*
X-346710Y-266700D02*
X-342900Y-262890D01*
X-100330D01*
X-63500Y-299720D01*
X-86787Y-522813D02*
X-86360Y-523240D01*
X-89139Y-522230D02*
X-88556Y-522813D01*
X-86787D01*
X-86360Y-523240D02*
X80083D01*
X80132Y-523192D01*
X98804D01*
X140305Y-512758D02*
X143072Y-509991D01*
X148409D02*
X152260Y-506140D01*
X143072Y-509991D02*
X148409D01*
X186472Y-498605D02*
X194913Y-490164D01*
X172502Y-498605D02*
X186472D01*
X164966Y-506140D02*
X172502Y-498605D01*
X152260Y-506140D02*
X164966D01*
X-210820Y-481330D02*
X-35277D01*
X-91009Y-471156D02*
X-89725Y-472440D01*
X-91454Y-471156D02*
X-91009D01*
X-102870Y-459740D02*
X-91454Y-471156D01*
X-124460Y-459740D02*
X-102870D01*
X-89725Y-472440D02*
X-88900D01*
X-176530Y-388620D02*
X-86896D01*
X-153445Y-361442D02*
X-40703D01*
X-173990Y-372110D02*
X-173482Y-372618D01*
X-123981D01*
X-120933Y-369570D01*
X-40703Y-361442D02*
X-38925Y-363220D01*
X-38100D01*
X-173990D02*
X-155223D01*
X-120933Y-369570D02*
X-31750D01*
X-155223Y-363220D02*
X-153445Y-361442D01*
X-157480Y-281940D02*
X-137160Y-302260D01*
X-252730Y-281940D02*
X-157480D01*
X-187960Y-242570D02*
X-151130D01*
X-143510Y-250190D01*
X-293370Y-238760D02*
X-191770D01*
X-187960Y-242570D01*
X-297180Y-234950D02*
X-293370Y-238760D01*
X-120650Y-346710D02*
X-101600Y-327660D01*
X-174244Y-355600D02*
X-44450D01*
X-182880Y-346710D02*
X-120650D01*
X-101600Y-327660D02*
X-26670D01*
X-104140Y-278130D02*
X-87630Y-294640D01*
X-111760Y-278130D02*
X-104140D01*
X-218440Y-372110D02*
X-212090Y-378460D01*
X-320040Y-372110D02*
X-218440D01*
X-323850Y-375920D02*
X-320040Y-372110D01*
X-332740Y-375920D02*
X-323850D01*
X-425027Y-248497D02*
X-194198D01*
X-425450Y-248920D02*
X-425027Y-248497D01*
X-326390Y-367030D02*
X-212090D01*
X-314960Y-355600D02*
X-212090D01*
X-137160Y-472440D02*
X-124460Y-459740D01*
X-218440Y-472440D02*
X-137160D01*
X-298450Y-344170D02*
X-218440D01*
X161573Y-492760D02*
X173990D01*
X144604Y-485902D02*
X154715D01*
X139975Y-474726D02*
X158415D01*
X154715Y-485902D02*
X161573Y-492760D01*
X-271Y355600D02*
X0Y355329D01*
X-294640Y355600D02*
X-271D01*
X-281940Y340360D02*
X-12700D01*
X-300990Y347980D02*
X6350D01*
X-389890Y-318770D02*
X-112043D01*
X-106397D02*
X-73660D01*
X-106905Y-319278D02*
X-106397Y-318770D01*
X-111535Y-319278D02*
X-106905D01*
X-112043Y-318770D02*
X-111535Y-319278D01*
X-288290Y361950D02*
X-287465D01*
X-286195Y360680D01*
X-26225D01*
X-24955Y361950D02*
X-24130D01*
X-26225Y360680D02*
X-24955Y361950D01*
X25400Y355600D02*
X88234D01*
X-202616Y-224104D02*
X-174574D01*
X-38100Y393700D02*
X-27940Y403860D01*
X-38100Y392875D02*
Y393700D01*
X-27940Y403860D02*
X119380D01*
X-24591Y-319278D02*
X-24553Y-319240D01*
X-20725D02*
X30988Y-267527D01*
X-24553Y-319240D02*
X-20725D01*
X30988Y-267527D02*
Y-251017D01*
X-21590Y-313690D02*
X-19304Y-311404D01*
X-18637D02*
X26924Y-265843D01*
Y-249333D01*
X-38100Y-313690D02*
X-21590D01*
X-19304Y-311404D02*
X-18637D01*
X22860Y-264160D02*
Y-247650D01*
X-20320Y-307340D02*
X22860Y-264160D01*
X-42355Y-307340D02*
X-20320D01*
X-43625Y-308610D02*
X-42355Y-307340D01*
X-44450Y-308610D02*
X-43625D01*
X14652Y363220D02*
X16684Y361188D01*
X13970Y363220D02*
X14652D01*
X16684Y361188D02*
X28601D01*
X65595Y347980D02*
X114300D01*
X63500Y346710D02*
X64325D01*
X65595Y347980D01*
X129402Y325120D02*
X129489Y325207D01*
X30125Y359664D02*
X89917D01*
X91493Y358088D01*
X106448D01*
X107186Y365252D02*
X109373Y363065D01*
X32440Y365252D02*
X107186D01*
X28601Y361188D02*
X30125Y359664D01*
X88234Y355600D02*
X91334Y352500D01*
X111760Y355498D02*
X116738D01*
X109373Y363065D02*
X123834D01*
X91334Y352500D02*
X108762D01*
X116738Y355498D02*
X116840Y355600D01*
X108762Y352500D02*
X111760Y355498D01*
X123989Y363220D02*
X128270D01*
X98592Y374495D02*
X125575D01*
X123834Y363065D02*
X123989Y363220D01*
X136986Y385462D02*
X138891Y383556D01*
X97167Y375920D02*
X98592Y374495D01*
X138891Y382731D02*
Y383556D01*
X136986Y385462D02*
Y386080D01*
X70612Y375920D02*
X97167D01*
X90170Y386080D02*
X136986D01*
X30988Y-251017D02*
X38927Y-243078D01*
X26924Y-249333D02*
X37243Y-239014D01*
X22860Y-247650D02*
X35560Y-234950D01*
X43688Y379730D02*
Y380318D01*
X44878Y381508D01*
X72927D02*
X73435Y381000D01*
X44878Y381508D02*
X72927D01*
X73435Y381000D02*
X85090D01*
X90170Y386080D01*
X45720Y393700D02*
Y394970D01*
X46990Y396240D02*
X111760D01*
X45720Y394970D02*
X46990Y396240D01*
X38100Y339090D02*
X109220D01*
X152400Y-414274D02*
Y-387350D01*
X-44450Y-449580D02*
X-17780D01*
X146050D02*
X146304Y-449834D01*
X155977D01*
X161036Y-454893D01*
Y-462047D02*
Y-454893D01*
X18013Y-458724D02*
X25167D01*
X10647Y-466090D02*
X18013Y-458724D01*
X-30480Y-466090D02*
X10647D01*
X144958Y-498932D02*
X152400Y-491490D01*
X135890Y-458470D02*
X152400D01*
X328930Y-353060D02*
Y-347980D01*
X249428Y-415798D02*
X256032D01*
X292100Y-379730D01*
X107522Y-408512D02*
Y-406828D01*
X107950Y-406400D01*
X129540Y-351790D02*
X175947Y-398197D01*
X177557D02*
X178140Y-398780D01*
X175947Y-398197D02*
X177557D01*
X178140Y-398780D02*
X232410D01*
X249428Y-415798D01*
X292100Y-379730D02*
Y-370840D01*
X105410Y-344170D02*
X130810D01*
X176530Y-389890D01*
X232410D02*
X252730Y-410210D01*
X176530Y-389890D02*
X232410D01*
D107*
X502520Y83820D02*
D03*
X474580Y181610D02*
D03*
D108*
X452520Y83820D02*
D03*
X424580Y181610D02*
D03*
D109*
X500000Y0D02*
D03*
D112*
X420370Y295910D02*
D03*
D113*
X444500Y248920D02*
D03*
X5080Y-314960D02*
D03*
D114*
X369347Y310103D02*
D03*
X358740Y320710D02*
D03*
X348134Y331316D02*
D03*
X379953Y299497D02*
D03*
X390560Y288890D02*
D03*
X337527Y341923D02*
D03*
X401166Y278284D02*
D03*
X411773Y267677D02*
D03*
D115*
X212396Y-34875D02*
D03*
X206516Y-38876D02*
D03*
X232574Y-19812D02*
D03*
X226234Y-23034D02*
D03*
X220519Y-28749D02*
D03*
X383181Y189270D02*
D03*
X364131D02*
D03*
X354606Y-58380D02*
D03*
X78381Y-153630D02*
D03*
X68856Y-172680D02*
D03*
Y-248880D02*
D03*
X49806Y-172680D02*
D03*
X40281Y-191730D02*
D03*
X49806Y-248880D02*
D03*
X30756Y-172680D02*
D03*
X21231Y-191730D02*
D03*
X30756Y-210780D02*
D03*
X11706Y-172680D02*
D03*
X2181Y-229830D02*
D03*
X-7344Y-172680D02*
D03*
Y-248880D02*
D03*
X-26394D02*
D03*
X-35919Y-267930D02*
D03*
X-54969Y-229830D02*
D03*
Y-344130D02*
D03*
X-93069D02*
D03*
X-102594Y-134580D02*
D03*
X-112119Y-191730D02*
D03*
X-102594Y-210780D02*
D03*
X-131169Y-115530D02*
D03*
X-121644Y-134580D02*
D03*
X-131169Y-191730D02*
D03*
X-121644Y-210780D02*
D03*
X-131169Y-229830D02*
D03*
X-121644Y-248880D02*
D03*
Y-286980D02*
D03*
X-140694Y-96480D02*
D03*
X-150219Y-115530D02*
D03*
X-140694Y-134580D02*
D03*
X-150219Y-191730D02*
D03*
X-140694Y-210780D02*
D03*
X-150219Y-229830D02*
D03*
X-169269Y-153630D02*
D03*
X-159744Y-248880D02*
D03*
X-169269Y-306030D02*
D03*
X-178794Y-134580D02*
D03*
Y-248880D02*
D03*
X-188319Y-306030D02*
D03*
X-197844Y-134580D02*
D03*
X-293094Y-172680D02*
D03*
X-321669Y-77430D02*
D03*
X-359769D02*
D03*
X-350244Y-96480D02*
D03*
X-359769Y-115530D02*
D03*
X-378819Y-77430D02*
D03*
X-369294Y-96480D02*
D03*
X-378819Y-115530D02*
D03*
X-369294Y-134580D02*
D03*
X-407394Y-96480D02*
D03*
Y-134580D02*
D03*
Y-172680D02*
D03*
X-474069Y-77430D02*
D03*
X-464544Y-96480D02*
D03*
X-474069Y-115530D02*
D03*
X-464544Y-134580D02*
D03*
X-474069Y-153630D02*
D03*
X-464544Y-172680D02*
D03*
X-493119Y-77430D02*
D03*
X-483594Y-96480D02*
D03*
X-493119Y-115530D02*
D03*
X-483594Y-134580D02*
D03*
X-493119Y-153630D02*
D03*
X-483594Y-172680D02*
D03*
X-512169Y-77430D02*
D03*
X-502644Y-96480D02*
D03*
Y-134580D02*
D03*
X266700Y448310D02*
D03*
X331470Y396240D02*
D03*
X-260350Y-448310D02*
D03*
X-330200Y-396240D02*
D03*
X307390Y-209295D02*
D03*
X101600Y461010D02*
D03*
X52070Y-480060D02*
D03*
X76200Y-444500D02*
D03*
X80010Y-369570D02*
D03*
Y-431800D02*
D03*
X453390Y-173990D02*
D03*
X467360Y-220980D02*
D03*
X450850Y-189230D02*
D03*
X453839Y-275396D02*
D03*
X447723Y-285231D02*
D03*
X428109Y-313903D02*
D03*
X419100Y-309880D02*
D03*
X421160Y-323167D02*
D03*
X408940Y-320040D02*
D03*
X388620Y-340360D02*
D03*
X378460Y-350520D02*
D03*
X327660Y-401320D02*
D03*
X294930Y-441394D02*
D03*
X285231Y-447723D02*
D03*
X213802Y-485902D02*
D03*
X0Y-381647D02*
D03*
X62230Y-410464D02*
D03*
X-12700Y-384810D02*
D03*
X186690Y-300990D02*
D03*
X181610Y-295910D02*
D03*
X275590Y-237490D02*
D03*
X278782Y-231336D02*
D03*
X339090Y-168910D02*
D03*
X394970Y-115570D02*
D03*
X389890Y171450D02*
D03*
X391160Y161290D02*
D03*
X379730Y166370D02*
D03*
X374650Y175260D02*
D03*
X364490D02*
D03*
X355600Y179070D02*
D03*
X346710Y184150D02*
D03*
X344422Y7368D02*
D03*
X338707Y1653D02*
D03*
X511810Y-83820D02*
D03*
X491490Y-68580D02*
D03*
X487680Y-160020D02*
D03*
X452120Y-127000D02*
D03*
X468359Y-210820D02*
D03*
X-307340Y385318D02*
D03*
X-63500Y379730D02*
D03*
X-314960Y379222D02*
D03*
X-321310Y391160D02*
D03*
X-443738Y-212090D02*
D03*
X-251460D02*
D03*
X-50800Y373380D02*
D03*
X-327660D02*
D03*
X-50800Y393700D02*
D03*
X-63500D02*
D03*
X-76200D02*
D03*
X-88900D02*
D03*
X101600Y438150D02*
D03*
Y445770D02*
D03*
Y453390D02*
D03*
X57793Y527705D02*
D03*
X160020Y-59690D02*
D03*
X156210Y-63500D02*
D03*
X166370Y13970D02*
D03*
Y21590D02*
D03*
X160822Y-78925D02*
D03*
X167737Y-77263D02*
D03*
X173325Y-81662D02*
D03*
X179070Y-77470D02*
D03*
X141173Y-106734D02*
D03*
X136633Y-112292D02*
D03*
X116840Y-125730D02*
D03*
X-58081Y-155847D02*
D03*
X155313Y-143410D02*
D03*
X-57822Y-281773D02*
D03*
X268609Y-142528D02*
D03*
X341688Y-59290D02*
D03*
X-55880Y-205740D02*
D03*
X127868Y-185092D02*
D03*
X447723Y285231D02*
D03*
X86360Y325882D02*
D03*
X55880Y333502D02*
D03*
X163830Y-125730D02*
D03*
Y-116840D02*
D03*
X297180Y-431800D02*
D03*
X429260Y-299720D02*
D03*
X398780Y-330200D02*
D03*
X368300Y-360680D02*
D03*
X358140Y-370840D02*
D03*
X347980Y-381000D02*
D03*
X337820Y-391160D02*
D03*
X317500Y-411480D02*
D03*
X307340Y-421640D02*
D03*
X-254385Y-159509D02*
D03*
X-243840Y-152400D02*
D03*
X-234950Y-146050D02*
D03*
X-226060Y-139700D02*
D03*
X-148590Y-93980D02*
D03*
X-157480Y-99060D02*
D03*
X-165100Y-104140D02*
D03*
X-187960Y-118110D02*
D03*
X-196850Y-124460D02*
D03*
X-207010Y-129540D02*
D03*
X-217170Y-133350D02*
D03*
X-301836Y-95169D02*
D03*
X-304602Y-85907D02*
D03*
X-307083Y-76564D02*
D03*
X-309278Y-67151D02*
D03*
X-311184Y-57675D02*
D03*
X-312801Y-48145D02*
D03*
X-314125Y-38570D02*
D03*
X-315156Y-28959D02*
D03*
X-315894Y-19321D02*
D03*
X-316336Y-9665D02*
D03*
X304974Y84577D02*
D03*
X302248Y93851D02*
D03*
X299242Y103037D02*
D03*
X295955Y112127D02*
D03*
X292393Y121113D02*
D03*
X288558Y129986D02*
D03*
X284454Y138737D02*
D03*
X280084Y147360D02*
D03*
X275454Y155844D02*
D03*
X270566Y164183D02*
D03*
X265426Y172369D02*
D03*
X260038Y180395D02*
D03*
X254408Y188252D02*
D03*
X186025Y256041D02*
D03*
X178119Y261602D02*
D03*
X170047Y266920D02*
D03*
X161816Y271988D02*
D03*
X153434Y276803D02*
D03*
X144910Y281360D02*
D03*
X136250Y285654D02*
D03*
X127463Y289681D02*
D03*
X118557Y293439D02*
D03*
X109541Y296922D02*
D03*
X-61743Y310403D02*
D03*
X-71193Y308372D02*
D03*
X-80577Y306055D02*
D03*
X-89886Y303451D02*
D03*
X-99111Y300565D02*
D03*
X-108244Y297398D02*
D03*
X-117275Y293953D02*
D03*
X-126198Y290235D02*
D03*
X-135002Y286246D02*
D03*
X-143681Y281989D02*
D03*
X-152225Y277470D02*
D03*
X-160628Y272692D02*
D03*
X-168881Y267659D02*
D03*
X-176976Y262377D02*
D03*
X-184906Y256850D02*
D03*
X-192663Y251084D02*
D03*
X-200241Y245083D02*
D03*
X-207632Y238853D02*
D03*
X-214830Y232401D02*
D03*
X-221827Y225732D02*
D03*
X-228617Y218853D02*
D03*
X-235194Y211769D02*
D03*
X-241551Y204488D02*
D03*
X-247683Y197016D02*
D03*
X-253584Y189360D02*
D03*
X-259249Y181528D02*
D03*
X-264671Y173526D02*
D03*
X-269847Y165362D02*
D03*
X-274771Y157045D02*
D03*
X-279439Y148580D02*
D03*
X-283846Y139977D02*
D03*
X-287988Y131244D02*
D03*
X-291862Y122388D02*
D03*
X-295463Y113418D02*
D03*
X-298789Y104342D02*
D03*
X-301836Y95169D02*
D03*
X-304602Y85907D02*
D03*
X-307083Y76564D02*
D03*
X-309278Y67151D02*
D03*
X-311184Y57675D02*
D03*
X-312801Y48145D02*
D03*
X-314125Y38570D02*
D03*
X-315156Y28959D02*
D03*
X-315894Y19321D02*
D03*
X-316336Y9665D02*
D03*
X-316484Y0D02*
D03*
X235571Y-466565D02*
D03*
X-530733Y11581D02*
D03*
X-530355Y23156D02*
D03*
X-529723Y34720D02*
D03*
X-528840Y46267D02*
D03*
X-527705Y57793D02*
D03*
X-526318Y69291D02*
D03*
X-524681Y80756D02*
D03*
X-522795Y92183D02*
D03*
X-520659Y103566D02*
D03*
X-518276Y114899D02*
D03*
X-515647Y126178D02*
D03*
X-512771Y137397D02*
D03*
X-509652Y148550D02*
D03*
X-506290Y159633D02*
D03*
X-502687Y170639D02*
D03*
X-498845Y181565D02*
D03*
X-494766Y192404D02*
D03*
X-490451Y203151D02*
D03*
X-485902Y213802D02*
D03*
X-481122Y224351D02*
D03*
X-476114Y234793D02*
D03*
X-470878Y245124D02*
D03*
X-465419Y255338D02*
D03*
X-459738Y265430D02*
D03*
X-453838Y275396D02*
D03*
X-414009Y332278D02*
D03*
X-406662Y341230D02*
D03*
X-399122Y350020D02*
D03*
X-391391Y358644D02*
D03*
X-383474Y367096D02*
D03*
X-375374Y375375D02*
D03*
X-367096Y383474D02*
D03*
X-358644Y391391D02*
D03*
X-350020Y399122D02*
D03*
X-341230Y406662D02*
D03*
X-332278Y414009D02*
D03*
X-323167Y421160D02*
D03*
X-313902Y428109D02*
D03*
X-304489Y434855D02*
D03*
X-294930Y441394D02*
D03*
X-285231Y447723D02*
D03*
X-275396Y453838D02*
D03*
X-265430Y459738D02*
D03*
X-255338Y465419D02*
D03*
X-245124Y470878D02*
D03*
X-234793Y476114D02*
D03*
X-224351Y481122D02*
D03*
X-213802Y485902D02*
D03*
X-203151Y490451D02*
D03*
X-192404Y494766D02*
D03*
X-181565Y498845D02*
D03*
X-170639Y502687D02*
D03*
X-159633Y506290D02*
D03*
X-148550Y509652D02*
D03*
X-137397Y512771D02*
D03*
X-126178Y515647D02*
D03*
X-114899Y518276D02*
D03*
X-103566Y520659D02*
D03*
X-92183Y522795D02*
D03*
X-80756Y524681D02*
D03*
X-34720Y529723D02*
D03*
X-23156Y530355D02*
D03*
X-11581Y530733D02*
D03*
X0Y530860D02*
D03*
X11581Y530733D02*
D03*
X23156Y530355D02*
D03*
X34720Y529723D02*
D03*
X46268Y528840D02*
D03*
X69291Y526318D02*
D03*
X80756Y524681D02*
D03*
X148550Y509652D02*
D03*
X159633Y506290D02*
D03*
X170639Y502687D02*
D03*
X181565Y498845D02*
D03*
X192404Y494766D02*
D03*
X203151Y490451D02*
D03*
X213802Y485902D02*
D03*
X224351Y481122D02*
D03*
X234793Y476114D02*
D03*
X245124Y470878D02*
D03*
X255338Y465419D02*
D03*
X265430Y459738D02*
D03*
X275396Y453838D02*
D03*
X332278Y414009D02*
D03*
X341230Y406662D02*
D03*
X350020Y399122D02*
D03*
X358644Y391391D02*
D03*
X367097Y383474D02*
D03*
X375375Y375375D02*
D03*
X383474Y367096D02*
D03*
X391391Y358644D02*
D03*
X399122Y350020D02*
D03*
X406662Y341230D02*
D03*
X414010Y332278D02*
D03*
X434855Y304489D02*
D03*
X441394Y294930D02*
D03*
X453839Y275396D02*
D03*
X459738Y265430D02*
D03*
X441394Y-294930D02*
D03*
X434855Y-304489D02*
D03*
X414010Y-332278D02*
D03*
X406662Y-341230D02*
D03*
X399122Y-350020D02*
D03*
X391391Y-358644D02*
D03*
X383474Y-367097D02*
D03*
X375375Y-375375D02*
D03*
X367097Y-383474D02*
D03*
X358644Y-391391D02*
D03*
X350020Y-399122D02*
D03*
X341230Y-406662D02*
D03*
X332278Y-414010D02*
D03*
X323167Y-421160D02*
D03*
X313903Y-428109D02*
D03*
X304489Y-434855D02*
D03*
X275396Y-453839D02*
D03*
X11581Y-530734D02*
D03*
X0Y-530860D02*
D03*
X-11581Y-530734D02*
D03*
X-148550Y-509652D02*
D03*
X-159633Y-506290D02*
D03*
X-170639Y-502687D02*
D03*
X-203151Y-490451D02*
D03*
X-224351Y-481123D02*
D03*
X-234793Y-476114D02*
D03*
X-245124Y-470879D02*
D03*
X-255338Y-465419D02*
D03*
X-265430Y-459738D02*
D03*
X-275396Y-453839D02*
D03*
X-332278Y-414010D02*
D03*
X-341230Y-406662D02*
D03*
X-350020Y-399122D02*
D03*
X-358644Y-391391D02*
D03*
X-367097Y-383474D02*
D03*
X-375375Y-375375D02*
D03*
X-383474Y-367097D02*
D03*
X-391391Y-358644D02*
D03*
X-399122Y-350020D02*
D03*
X-406662Y-341230D02*
D03*
X-414010Y-332278D02*
D03*
X-421160Y-323167D02*
D03*
X-428109Y-313903D02*
D03*
X-434855Y-304489D02*
D03*
X-441394Y-294930D02*
D03*
X-447723Y-285231D02*
D03*
X-453839Y-275396D02*
D03*
X-459738Y-265430D02*
D03*
X-465419Y-255338D02*
D03*
X-470879Y-245124D02*
D03*
X-476114Y-234793D02*
D03*
X-481123Y-224351D02*
D03*
X-485902Y-213802D02*
D03*
X-490451Y-203151D02*
D03*
X-498845Y-181565D02*
D03*
X-502687Y-170639D02*
D03*
X-506290Y-159633D02*
D03*
X-509652Y-148550D02*
D03*
X-512771Y-137397D02*
D03*
X-515647Y-126178D02*
D03*
X-518276Y-114899D02*
D03*
X-520660Y-103566D02*
D03*
X-522795Y-92183D02*
D03*
X-524682Y-80756D02*
D03*
X-526318Y-69291D02*
D03*
X-527705Y-57793D02*
D03*
X-528840Y-46267D02*
D03*
X-529723Y-34720D02*
D03*
X-530355Y-23156D02*
D03*
X-530734Y-11581D02*
D03*
X-530860Y0D02*
D03*
X243840Y-445770D02*
D03*
X238760Y-439420D02*
D03*
X106680Y-430530D02*
D03*
X176530Y-427482D02*
D03*
X214630Y-440690D02*
D03*
X398780Y-271780D02*
D03*
X368300Y-308610D02*
D03*
X175260Y-482600D02*
D03*
X-347980Y-133350D02*
D03*
X-340360D02*
D03*
X-309880Y-119380D02*
D03*
X-308610Y-147320D02*
D03*
X-363220Y-148590D02*
D03*
X-368300Y-217170D02*
D03*
X-342900Y-193040D02*
D03*
X-251460Y-334010D02*
D03*
X-226060Y-309880D02*
D03*
X-64770Y-191770D02*
D03*
X-30480Y-173990D02*
D03*
X-38100D02*
D03*
X-26670Y-271780D02*
D03*
X-17780D02*
D03*
X-20955Y-356220D02*
D03*
X2540Y-265430D02*
D03*
X-3810Y-359268D02*
D03*
X-5080Y-272492D02*
D03*
X80010Y-514350D02*
D03*
X121239Y-493344D02*
D03*
X68580Y-439420D02*
D03*
X53340Y-431800D02*
D03*
Y-369570D02*
D03*
X53519Y-342686D02*
D03*
X109220Y-374650D02*
D03*
X90170Y-210820D02*
D03*
X85090Y-250190D02*
D03*
X-24678Y-287020D02*
D03*
X52070Y-256540D02*
D03*
X-265430Y-177800D02*
D03*
X-257810Y-177800D02*
D03*
X-55880Y-212090D02*
D03*
X-49530Y-167640D02*
D03*
X-43235Y-221720D02*
D03*
X-273050Y-198120D02*
D03*
X-276860Y-255270D02*
D03*
X-54610Y-318770D02*
D03*
X-63500Y-299720D02*
D03*
X-89139Y-522230D02*
D03*
X-346710Y-266700D02*
D03*
X195439Y-409398D02*
D03*
X-342900Y-242909D02*
D03*
X-355600Y-240030D02*
D03*
X-369570Y-234950D02*
D03*
X-309372Y-300990D02*
D03*
X-320802Y-295910D02*
D03*
X-339090Y-288290D02*
D03*
X-24130Y-502920D02*
D03*
X-12700Y-507238D02*
D03*
X0Y-505126D02*
D03*
X93980Y-514350D02*
D03*
X66040D02*
D03*
X-97790Y-434848D02*
D03*
Y-441960D02*
D03*
Y-449580D02*
D03*
X-88900Y-472440D02*
D03*
X-210820Y-481330D02*
D03*
X0Y-444120D02*
D03*
X-151130Y-367030D02*
D03*
X-133350Y-337820D02*
D03*
X-144780Y-327660D02*
D03*
X-137160Y-302260D02*
D03*
X-143510Y-250190D02*
D03*
X-297180Y-234950D02*
D03*
X-119380Y-375920D02*
D03*
X-109220Y-313690D02*
D03*
X-85090Y-287020D02*
D03*
X-252730Y-281940D02*
D03*
X-332740Y-375920D02*
D03*
X-326390Y-367030D02*
D03*
X-332740Y-199390D02*
D03*
X-314960Y-355600D02*
D03*
X-326390Y-207010D02*
D03*
X-314960Y-215900D02*
D03*
X-195580Y-345440D02*
D03*
X-212090Y-355600D02*
D03*
Y-367030D02*
D03*
Y-378460D02*
D03*
X-116840Y-468630D02*
D03*
X-198120Y-466090D02*
D03*
X-218440Y-472440D02*
D03*
Y-344170D02*
D03*
X-182880Y-346710D02*
D03*
X-174244Y-355600D02*
D03*
X-298450Y-344170D02*
D03*
X-265430Y-327660D02*
D03*
X-128960Y-491420D02*
D03*
X0Y355329D02*
D03*
X-12700Y340360D02*
D03*
X6350Y347980D02*
D03*
X-281940Y340360D02*
D03*
X-389890Y-318770D02*
D03*
X-24130Y361950D02*
D03*
X-288290D02*
D03*
X-396240Y-337820D02*
D03*
X-73660Y-318770D02*
D03*
X-12700Y393700D02*
D03*
X8890Y391160D02*
D03*
X25400Y355600D02*
D03*
X-294640D02*
D03*
X-419100Y-220980D02*
D03*
X0Y392921D02*
D03*
X-25400Y393700D02*
D03*
X-300990Y347980D02*
D03*
X-425450Y-248920D02*
D03*
X-38100Y393700D02*
D03*
X-432054Y-170180D02*
D03*
X-437896Y-187960D02*
D03*
X-449580Y-228600D02*
D03*
X-173990Y-187960D02*
D03*
X-215900Y-140970D02*
D03*
Y-228600D02*
D03*
X-74930Y-160020D02*
D03*
X-97790Y-170180D02*
D03*
X-102870Y-143510D02*
D03*
X-127000Y-149860D02*
D03*
X-174574Y-224104D02*
D03*
X-194198Y-248497D02*
D03*
X-156210Y-209550D02*
D03*
X-181610Y-234950D02*
D03*
X-113030Y-232410D02*
D03*
X-153670Y-273050D02*
D03*
X-24591Y-319278D02*
D03*
X-31750Y-369570D02*
D03*
X-173990Y-372110D02*
D03*
X-38100Y-313690D02*
D03*
Y-363220D02*
D03*
X-44450Y-308610D02*
D03*
Y-355600D02*
D03*
X-173990Y-363220D02*
D03*
X13970Y363220D02*
D03*
X63500Y346710D02*
D03*
X129489Y325207D02*
D03*
X144780Y331470D02*
D03*
X32440Y365252D02*
D03*
X106448Y358088D02*
D03*
X128270Y363220D02*
D03*
X121519Y368653D02*
D03*
X125575Y374495D02*
D03*
X138891Y382731D02*
D03*
X25400Y394462D02*
D03*
X179070Y-467360D02*
D03*
X119380Y403860D02*
D03*
X43688Y379730D02*
D03*
X45720Y393700D02*
D03*
X111760Y396240D02*
D03*
X77470Y389890D02*
D03*
X120650Y380238D02*
D03*
X70612Y375920D02*
D03*
X210820Y-27940D02*
D03*
X212245Y-20512D02*
D03*
X213498Y-13511D02*
D03*
X214752Y-6511D02*
D03*
X215900Y508D02*
D03*
X116840Y355600D02*
D03*
X114300Y347980D02*
D03*
X38100Y339090D02*
D03*
X109220D02*
D03*
X76200Y433070D02*
D03*
X63500D02*
D03*
X50800D02*
D03*
X38100D02*
D03*
X25400D02*
D03*
X12700D02*
D03*
X-110490Y-468630D02*
D03*
Y-414020D02*
D03*
X-118110D02*
D03*
X-198120Y-393700D02*
D03*
X91440Y-331470D02*
D03*
X173990Y-492760D02*
D03*
X192350Y-466990D02*
D03*
X184360Y-444500D02*
D03*
X-176530Y-388620D02*
D03*
X-17780Y-449580D02*
D03*
X-30480Y-494030D02*
D03*
Y-466090D02*
D03*
X-44450Y-449580D02*
D03*
Y-434340D02*
D03*
X-30480Y-417830D02*
D03*
X-200660D02*
D03*
X-186690Y-434340D02*
D03*
Y-449580D02*
D03*
X-130810Y-434086D02*
D03*
Y-441198D02*
D03*
Y-448310D02*
D03*
X152400Y-414274D02*
D03*
X130810Y-397510D02*
D03*
X128270Y-386640D02*
D03*
X146050Y-449580D02*
D03*
X152400Y-458470D02*
D03*
Y-491490D02*
D03*
X120650Y-462280D02*
D03*
X121920Y-375920D02*
D03*
X21590Y-467360D02*
D03*
X109220Y-476250D02*
D03*
X107950Y-406400D02*
D03*
X175260Y-441960D02*
D03*
X121920Y-406400D02*
D03*
X167640Y-407670D02*
D03*
X178140Y-398780D02*
D03*
X105410Y-344170D02*
D03*
X-43180Y-299720D02*
D03*
X-85090Y-255270D02*
D03*
X-111760Y-278130D02*
D03*
X-87630Y-294640D02*
D03*
X-124460Y-330200D02*
D03*
X-97891Y-302513D02*
D03*
X-54610Y-247650D02*
D03*
X-105410Y-306070D02*
D03*
X-95250Y-295910D02*
D03*
X-55880Y-270510D02*
D03*
X-54610Y-288290D02*
D03*
Y-259080D02*
D03*
X436880Y-231140D02*
D03*
X328930Y-347980D02*
D03*
X292100Y-370840D02*
D03*
X252730Y-410210D02*
D03*
X87630Y-154940D02*
D03*
X93980D02*
D03*
X100330Y-147320D02*
D03*
X134620Y-157480D02*
D03*
X140970Y-161290D02*
D03*
X134383Y-142477D02*
D03*
X138430Y-138430D02*
D03*
X140803Y-123708D02*
D03*
X148590Y-101600D02*
D03*
X165100Y-135890D02*
D03*
X187960Y-184150D02*
D03*
Y-189230D02*
D03*
X273050Y-223520D02*
D03*
X336550Y-121920D02*
D03*
X314104Y-101186D02*
D03*
X337820Y-55880D02*
D03*
X195703Y-185725D02*
D03*
X205740Y-184150D02*
D03*
X204470Y-179070D02*
D03*
X214014Y-180994D02*
D03*
X220353Y-175847D02*
D03*
X224452Y-164168D02*
D03*
X225676Y-159232D02*
D03*
X232001Y-151281D02*
D03*
X236220Y-144780D02*
D03*
X230467Y-144259D02*
D03*
X247650Y-123190D02*
D03*
X238760Y-134620D02*
D03*
X233680D02*
D03*
X232664Y-109220D02*
D03*
X233680Y-118110D02*
D03*
X238760D02*
D03*
X273050Y-147320D02*
D03*
D116*
X240030Y-269240D02*
D03*
X245110Y-274320D02*
D03*
X171167Y-217453D02*
D03*
X169778Y-228994D02*
D03*
X176305Y-222590D02*
D03*
X162560Y-226060D02*
D03*
X160020Y-218440D02*
D03*
X295910Y-87630D02*
D03*
X289560Y-93980D02*
D03*
X283210Y-100330D02*
D03*
X276860Y-106680D02*
D03*
X106680Y-280670D02*
D03*
X113030Y-274320D02*
D03*
X119380Y-267970D02*
D03*
X125730Y-261620D02*
D03*
X280670Y-114300D02*
D03*
X287020Y-107950D02*
D03*
X293370Y-101600D02*
D03*
X299720Y-95250D02*
D03*
X232410Y-227076D02*
D03*
X224790Y-233680D02*
D03*
X218440Y-227330D02*
D03*
X140701Y-247919D02*
D03*
X267970Y-118110D02*
D03*
X260350Y-111760D02*
D03*
Y-119380D02*
D03*
X259080Y-127000D02*
D03*
X248920Y-139700D02*
D03*
X236220Y-162560D02*
D03*
X262890Y-134620D02*
D03*
X266700Y-125730D02*
D03*
X254000Y-133350D02*
D03*
X256540Y-140970D02*
D03*
X241300Y-157480D02*
D03*
X246380Y-152400D02*
D03*
X251460Y-147320D02*
D03*
X309880Y-78740D02*
D03*
X314960Y-73660D02*
D03*
X320040Y-68580D02*
D03*
X317500Y-81280D02*
D03*
X312420Y-86360D02*
D03*
X322580Y-76200D02*
D03*
X327660Y-71120D02*
D03*
X325120Y-63500D02*
D03*
X307340Y-71120D02*
D03*
X312420Y-66040D02*
D03*
X317500Y-60960D02*
D03*
X302260Y-76200D02*
D03*
X322580Y-55880D02*
D03*
X332740Y-66040D02*
D03*
X139700Y-238760D02*
D03*
X154940Y-223520D02*
D03*
X149860Y-228600D02*
D03*
X144780Y-233680D02*
D03*
X165100D02*
D03*
X160020Y-238760D02*
D03*
X149860Y-248920D02*
D03*
X154940Y-243840D02*
D03*
X157480Y-231140D02*
D03*
X152400Y-236220D02*
D03*
X147320Y-241300D02*
D03*
X134620Y-264160D02*
D03*
X128270Y-270510D02*
D03*
X121920Y-276860D02*
D03*
X115570Y-283210D02*
D03*
X109220Y-289560D02*
D03*
X175260Y-350520D02*
D03*
X168910Y-344170D02*
D03*
X344170Y-177800D02*
D03*
X336550D02*
D03*
D118*
X212396Y-45350D02*
Y-34875D01*
X189357Y-68389D02*
X212396Y-45350D01*
X189357Y-83001D02*
Y-68389D01*
X180334Y-92024D02*
X189357Y-83001D01*
X148590Y-123190D02*
X179756Y-92024D01*
X180334D01*
X76200Y-444500D02*
X78200Y-441676D01*
X83631Y-436245D02*
X206682D01*
X78200Y-441676D02*
X83631Y-436245D01*
X148590Y-125730D02*
Y-123190D01*
X225753Y-439420D02*
X238760D01*
X211000Y-431927D02*
X218260D01*
X225753Y-439420D01*
X206682Y-436245D02*
X211000Y-431927D01*
X129667Y-133801D02*
Y-133223D01*
X9525Y-269875D02*
Y-253943D01*
X129667Y-133801D01*
Y-133223D02*
X133350Y-129540D01*
X144780D01*
X-4545Y-273027D02*
X-2570D01*
X-5080Y-272492D02*
X-4545Y-273027D01*
X-2570D02*
X-2546Y-273050D01*
X6350D01*
X9525Y-269875D01*
X144780Y-129540D02*
X148590Y-125730D01*
D119*
X196645Y-306173D02*
Y-213155D01*
X168910Y-333908D02*
X196645Y-306173D01*
X168910Y-344170D02*
Y-333908D01*
X172212Y-188722D02*
X196645Y-213155D01*
X172212Y-188722D02*
Y-178950D01*
X217063Y-134099D02*
X234676D01*
X172212Y-178950D02*
X217063Y-134099D01*
X168910Y-344170D02*
X175260Y-350520D01*
X235197Y-134620D02*
X238760D01*
X234676Y-134099D02*
X235197Y-134620D01*
D122*
X-54828Y-205958D02*
X-54610Y-205740D01*
X-55046D02*
X-54828Y-205958D01*
X-64450Y-205740D02*
X-55880D01*
X-55880Y-205740D01*
X-54828Y-205958D02*
X-54610Y-205740D01*
X-55880D02*
X-55046D01*
X-75880Y-194310D02*
X-64450Y-205740D01*
X-90170Y-194310D02*
X-75880D01*
X-106680Y-177800D02*
X-90170Y-194310D01*
X-257810Y-177800D02*
X-106680Y-177800D01*
X-265430Y-177800D02*
X-257810D01*
D127*
X393700Y-45720D02*
D03*
X-381000Y0D02*
D03*
D128*
X393700Y45720D02*
D03*
D129*
X284480Y-284480D02*
D03*
X213360Y-342900D02*
D03*
X342900Y-212090D02*
D03*
M02*
