G04*
G04 #@! TF.GenerationSoftware,Altium Limited,Altium Designer,24.1.2 (44)*
G04*
G04 Layer_Physical_Order=3*
G04 Layer_Color=36540*
%FSLAX44Y44*%
%MOMM*%
G71*
G04*
G04 #@! TF.SameCoordinates,C067CD15-9508-4875-9725-B3D5D2F0FA69*
G04*
G04*
G04 #@! TF.FilePolarity,Positive*
G04*
G01*
G75*
%ADD14C,0.2540*%
%ADD19C,0.2032*%
%ADD20C,0.3810*%
%ADD107C,1.4000*%
%ADD108R,1.4000X1.4000*%
%ADD109C,6.5000*%
%ADD112C,1.5240*%
%ADD113C,1.9050*%
G04:AMPARAMS|DCode=114|XSize=1.143mm|YSize=1.524mm|CornerRadius=0.2858mm|HoleSize=0mm|Usage=FLASHONLY|Rotation=135.000|XOffset=0mm|YOffset=0mm|HoleType=Round|Shape=RoundedRectangle|*
%AMROUNDEDRECTD114*
21,1,1.1430,0.9525,0,0,135.0*
21,1,0.5715,1.5240,0,0,135.0*
1,1,0.5715,0.1347,0.5388*
1,1,0.5715,0.5388,0.1347*
1,1,0.5715,-0.1347,-0.5388*
1,1,0.5715,-0.5388,-0.1347*
%
%ADD114ROUNDEDRECTD114*%
%ADD115C,0.5080*%
%ADD116C,0.7112*%
%ADD118C,0.2286*%
%ADD119C,0.5080*%
%ADD121C,0.7620*%
%ADD123C,0.6350*%
%ADD127C,5.0000*%
G04:AMPARAMS|DCode=128|XSize=5mm|YSize=5mm|CornerRadius=1.25mm|HoleSize=0mm|Usage=FLASHONLY|Rotation=0.000|XOffset=0mm|YOffset=0mm|HoleType=Round|Shape=RoundedRectangle|*
%AMROUNDEDRECTD128*
21,1,5.0000,2.5000,0,0,0.0*
21,1,2.5000,5.0000,0,0,0.0*
1,1,2.5000,1.2500,-1.2500*
1,1,2.5000,-1.2500,-1.2500*
1,1,2.5000,-1.2500,1.2500*
1,1,2.5000,1.2500,1.2500*
%
%ADD128ROUNDEDRECTD128*%
%ADD129C,5.6000*%
G36*
X76175Y430530D02*
X75963Y430523D01*
X75754Y430498D01*
X75548Y430453D01*
X75346Y430391D01*
X75146Y430310D01*
X74950Y430210D01*
X74756Y430093D01*
X74566Y429956D01*
X74379Y429801D01*
X74195Y429628D01*
X72758Y431065D01*
X72931Y431249D01*
X73086Y431436D01*
X73222Y431626D01*
X73340Y431820D01*
X73440Y432016D01*
X73521Y432216D01*
X73583Y432418D01*
X73628Y432624D01*
X73653Y432833D01*
X73660Y433045D01*
X76175Y430530D01*
D02*
G37*
G36*
X27947Y432833D02*
X27973Y432624D01*
X28017Y432418D01*
X28079Y432216D01*
X28160Y432016D01*
X28260Y431820D01*
X28377Y431626D01*
X28514Y431436D01*
X28669Y431249D01*
X28842Y431065D01*
X27405Y429628D01*
X27221Y429801D01*
X27034Y429956D01*
X26844Y430093D01*
X26650Y430210D01*
X26454Y430310D01*
X26254Y430391D01*
X26052Y430453D01*
X25846Y430498D01*
X25637Y430523D01*
X25425Y430530D01*
X27940Y433045D01*
X27947Y432833D01*
D02*
G37*
G36*
X53333Y432710D02*
X53350Y432502D01*
X53386Y432297D01*
X53443Y432095D01*
X53518Y431895D01*
X53614Y431699D01*
X53728Y431505D01*
X53863Y431315D01*
X54017Y431127D01*
X54190Y430942D01*
X52677Y429581D01*
X52494Y429755D01*
X52307Y429911D01*
X52118Y430049D01*
X51925Y430170D01*
X51729Y430274D01*
X51530Y430360D01*
X51328Y430429D01*
X51122Y430481D01*
X50914Y430515D01*
X50702Y430532D01*
X53336Y432921D01*
X53333Y432710D01*
D02*
G37*
G36*
X39733Y431101D02*
X39604Y430936D01*
X39489Y430759D01*
X39390Y430572D01*
X39306Y430373D01*
X39238Y430164D01*
X39185Y429944D01*
X39146Y429713D01*
X39124Y429471D01*
X39116Y429218D01*
X37084D01*
X37076Y429471D01*
X37053Y429713D01*
X37015Y429944D01*
X36962Y430164D01*
X36893Y430373D01*
X36810Y430572D01*
X36711Y430759D01*
X36596Y430936D01*
X36467Y431101D01*
X36322Y431256D01*
X39878D01*
X39733Y431101D01*
D02*
G37*
G36*
X65889Y432179D02*
X65868Y432037D01*
X65832Y431623D01*
X65791Y430277D01*
X65786Y429346D01*
X63754Y429019D01*
X63745Y429280D01*
X63719Y429519D01*
X63674Y429734D01*
X63612Y429928D01*
X63532Y430098D01*
X63435Y430246D01*
X63320Y430371D01*
X63186Y430473D01*
X63036Y430553D01*
X62867Y430610D01*
X65914Y432279D01*
X65889Y432179D01*
D02*
G37*
G36*
X121349Y405493D02*
X121515Y405364D01*
X121691Y405249D01*
X121878Y405150D01*
X122077Y405066D01*
X122286Y404998D01*
X122506Y404945D01*
X122737Y404907D01*
X122979Y404884D01*
X123232Y404876D01*
Y402844D01*
X122979Y402836D01*
X122737Y402813D01*
X122506Y402775D01*
X122286Y402722D01*
X122077Y402654D01*
X121878Y402570D01*
X121691Y402471D01*
X121515Y402356D01*
X121349Y402227D01*
X121194Y402082D01*
Y405638D01*
X121349Y405493D01*
D02*
G37*
G36*
X113729Y397873D02*
X113895Y397744D01*
X114071Y397629D01*
X114258Y397530D01*
X114457Y397447D01*
X114666Y397378D01*
X114886Y397325D01*
X115117Y397286D01*
X115359Y397264D01*
X115612Y397256D01*
Y395224D01*
X115359Y395216D01*
X115117Y395193D01*
X114886Y395155D01*
X114666Y395102D01*
X114457Y395033D01*
X114258Y394950D01*
X114071Y394851D01*
X113895Y394736D01*
X113729Y394607D01*
X113574Y394462D01*
Y398018D01*
X113729Y397873D01*
D02*
G37*
G36*
X27033Y392493D02*
X26904Y392327D01*
X26789Y392151D01*
X26690Y391964D01*
X26607Y391765D01*
X26538Y391556D01*
X26485Y391336D01*
X26446Y391105D01*
X26424Y390863D01*
X26416Y390610D01*
X24384D01*
X24376Y390863D01*
X24353Y391105D01*
X24315Y391336D01*
X24262Y391556D01*
X24193Y391765D01*
X24110Y391964D01*
X24011Y392151D01*
X23896Y392327D01*
X23767Y392493D01*
X23622Y392648D01*
X27178D01*
X27033Y392493D01*
D02*
G37*
G36*
X-11067Y391731D02*
X-11196Y391566D01*
X-11311Y391389D01*
X-11410Y391202D01*
X-11494Y391003D01*
X-11562Y390794D01*
X-11615Y390574D01*
X-11653Y390343D01*
X-11676Y390101D01*
X-11684Y389848D01*
X-13716D01*
X-13724Y390101D01*
X-13747Y390343D01*
X-13785Y390574D01*
X-13838Y390794D01*
X-13907Y391003D01*
X-13990Y391202D01*
X-14089Y391389D01*
X-14204Y391566D01*
X-14333Y391731D01*
X-14478Y391886D01*
X-10922D01*
X-11067Y391731D01*
D02*
G37*
G36*
X-23767D02*
X-23896Y391566D01*
X-24011Y391389D01*
X-24110Y391202D01*
X-24193Y391003D01*
X-24262Y390794D01*
X-24315Y390574D01*
X-24353Y390343D01*
X-24376Y390101D01*
X-24384Y389848D01*
X-26416D01*
X-26424Y390101D01*
X-26446Y390343D01*
X-26485Y390574D01*
X-26538Y390794D01*
X-26607Y391003D01*
X-26690Y391202D01*
X-26789Y391389D01*
X-26904Y391566D01*
X-27033Y391731D01*
X-27178Y391886D01*
X-23622D01*
X-23767Y391731D01*
D02*
G37*
G36*
X1633Y390953D02*
X1504Y390787D01*
X1389Y390610D01*
X1290Y390423D01*
X1207Y390224D01*
X1138Y390015D01*
X1085Y389795D01*
X1046Y389564D01*
X1024Y389322D01*
X1016Y389069D01*
X-1016D01*
X-1024Y389322D01*
X-1046Y389564D01*
X-1085Y389795D01*
X-1138Y390015D01*
X-1207Y390224D01*
X-1290Y390423D01*
X-1389Y390610D01*
X-1504Y390787D01*
X-1633Y390953D01*
X-1778Y391107D01*
X1778D01*
X1633Y390953D01*
D02*
G37*
G36*
X8473Y388655D02*
X8385Y388657D01*
X8286Y388639D01*
X8175Y388600D01*
X8052Y388539D01*
X7917Y388457D01*
X7771Y388353D01*
X7613Y388229D01*
X7262Y387916D01*
X7068Y387727D01*
X5632Y389164D01*
X5805Y389343D01*
X6090Y389670D01*
X6201Y389819D01*
X6292Y389958D01*
X6362Y390086D01*
X6412Y390205D01*
X6441Y390314D01*
X6449Y390413D01*
X6437Y390502D01*
X8473Y388655D01*
D02*
G37*
G36*
X79439Y391523D02*
X79605Y391394D01*
X79781Y391279D01*
X79969Y391180D01*
X80167Y391096D01*
X80376Y391028D01*
X80596Y390975D01*
X80827Y390937D01*
X81069Y390914D01*
X81322Y390906D01*
Y388874D01*
X81069Y388866D01*
X80827Y388843D01*
X80596Y388805D01*
X80376Y388752D01*
X80167Y388684D01*
X79969Y388600D01*
X79781Y388501D01*
X79605Y388386D01*
X79439Y388257D01*
X79284Y388112D01*
Y391668D01*
X79439Y391523D01*
D02*
G37*
G36*
X141320Y381924D02*
X141306Y381726D01*
X141316Y381530D01*
X141349Y381334D01*
X141406Y381140D01*
X141487Y380947D01*
X141591Y380756D01*
X141719Y380566D01*
X141870Y380377D01*
X142045Y380190D01*
X140233Y379128D01*
X140052Y379301D01*
X139684Y379607D01*
X139497Y379740D01*
X139308Y379859D01*
X139117Y379965D01*
X138924Y380057D01*
X138729Y380136D01*
X138532Y380202D01*
X138333Y380253D01*
X141357Y382123D01*
X141320Y381924D01*
D02*
G37*
G36*
X128132Y374478D02*
X128173Y374271D01*
X128231Y374066D01*
X128305Y373865D01*
X128395Y373667D01*
X128502Y373471D01*
X128626Y373279D01*
X128766Y373090D01*
X128922Y372904D01*
X129095Y372721D01*
X127795Y371149D01*
X127609Y371322D01*
X127421Y371476D01*
X127230Y371609D01*
X127037Y371721D01*
X126841Y371813D01*
X126642Y371885D01*
X126440Y371936D01*
X126236Y371967D01*
X126029Y371977D01*
X125820Y371967D01*
X128108Y374689D01*
X128132Y374478D01*
D02*
G37*
G36*
X33463Y368851D02*
X33486Y368609D01*
X33524Y368378D01*
X33577Y368158D01*
X33646Y367949D01*
X33730Y367751D01*
X33829Y367563D01*
X33943Y367387D01*
X34073Y367221D01*
X34218Y367066D01*
X30662D01*
X30806Y367221D01*
X30936Y367387D01*
X31050Y367563D01*
X31149Y367751D01*
X31233Y367949D01*
X31302Y368158D01*
X31355Y368378D01*
X31393Y368609D01*
X31416Y368851D01*
X31424Y369104D01*
X33456D01*
X33463Y368851D01*
D02*
G37*
G36*
X14994Y366819D02*
X15016Y366577D01*
X15055Y366346D01*
X15108Y366126D01*
X15177Y365917D01*
X15260Y365718D01*
X15359Y365531D01*
X15474Y365354D01*
X15603Y365189D01*
X15748Y365034D01*
X12192D01*
X12337Y365189D01*
X12466Y365354D01*
X12581Y365531D01*
X12680Y365718D01*
X12764Y365917D01*
X12832Y366126D01*
X12885Y366346D01*
X12924Y366577D01*
X12946Y366819D01*
X12954Y367072D01*
X14986D01*
X14994Y366819D01*
D02*
G37*
G36*
X-24375Y365740D02*
X-24348Y365501D01*
X-24304Y365285D01*
X-24242Y365092D01*
X-24162Y364922D01*
X-24065Y364774D01*
X-23949Y364649D01*
X-23816Y364547D01*
X-23666Y364467D01*
X-23497Y364410D01*
X-26544Y362741D01*
X-26519Y362841D01*
X-26498Y362983D01*
X-26462Y363397D01*
X-26421Y364743D01*
X-26416Y365674D01*
X-24384Y366001D01*
X-24375Y365740D01*
D02*
G37*
G36*
X130817Y362983D02*
X130843Y362774D01*
X130887Y362568D01*
X130949Y362366D01*
X131030Y362166D01*
X131130Y361970D01*
X131248Y361776D01*
X131384Y361586D01*
X131539Y361399D01*
X131712Y361215D01*
X130275Y359778D01*
X130091Y359951D01*
X129904Y360106D01*
X129714Y360243D01*
X129520Y360360D01*
X129324Y360460D01*
X129124Y360541D01*
X128922Y360603D01*
X128716Y360648D01*
X128507Y360673D01*
X128295Y360680D01*
X130810Y363195D01*
X130817Y362983D01*
D02*
G37*
G36*
X-286657Y359981D02*
X-286786Y359815D01*
X-286901Y359639D01*
X-287000Y359451D01*
X-287083Y359253D01*
X-287152Y359044D01*
X-287205Y358824D01*
X-287243Y358593D01*
X-287266Y358351D01*
X-287274Y358098D01*
X-289306D01*
X-289314Y358351D01*
X-289336Y358593D01*
X-289375Y358824D01*
X-289428Y359044D01*
X-289496Y359253D01*
X-289580Y359451D01*
X-289679Y359639D01*
X-289794Y359815D01*
X-289923Y359981D01*
X-290068Y360136D01*
X-286512D01*
X-286657Y359981D01*
D02*
G37*
G36*
X107283Y360497D02*
X107410Y360482D01*
X107807Y360457D01*
X110141Y360426D01*
X110493Y358394D01*
X110232Y358385D01*
X109993Y358359D01*
X109778Y358315D01*
X109586Y358253D01*
X109417Y358174D01*
X109271Y358077D01*
X109149Y357963D01*
X109050Y357831D01*
X108975Y357681D01*
X108922Y357514D01*
X107203Y360513D01*
X107283Y360497D01*
D02*
G37*
G36*
X26424Y359199D02*
X26446Y358957D01*
X26485Y358726D01*
X26538Y358506D01*
X26607Y358297D01*
X26690Y358098D01*
X26789Y357911D01*
X26904Y357734D01*
X27033Y357569D01*
X27178Y357414D01*
X23622D01*
X23767Y357569D01*
X23896Y357734D01*
X24011Y357911D01*
X24110Y358098D01*
X24193Y358297D01*
X24262Y358506D01*
X24315Y358726D01*
X24353Y358957D01*
X24376Y359199D01*
X24384Y359452D01*
X26416D01*
X26424Y359199D01*
D02*
G37*
G36*
X1024Y358928D02*
X1046Y358686D01*
X1085Y358455D01*
X1138Y358235D01*
X1207Y358026D01*
X1290Y357827D01*
X1389Y357640D01*
X1504Y357463D01*
X1633Y357298D01*
X1778Y357143D01*
X-1778D01*
X-1633Y357298D01*
X-1504Y357463D01*
X-1389Y357640D01*
X-1290Y357827D01*
X-1207Y358026D01*
X-1138Y358235D01*
X-1085Y358455D01*
X-1046Y358686D01*
X-1024Y358928D01*
X-1016Y359181D01*
X1016D01*
X1024Y358928D01*
D02*
G37*
G36*
X119387Y355363D02*
X119412Y355154D01*
X119457Y354948D01*
X119519Y354746D01*
X119600Y354546D01*
X119700Y354350D01*
X119817Y354156D01*
X119954Y353966D01*
X120109Y353779D01*
X120282Y353595D01*
X118845Y352158D01*
X118661Y352331D01*
X118474Y352486D01*
X118284Y352622D01*
X118090Y352740D01*
X117894Y352840D01*
X117694Y352921D01*
X117492Y352983D01*
X117286Y353027D01*
X117077Y353053D01*
X116865Y353060D01*
X119380Y355575D01*
X119387Y355363D01*
D02*
G37*
G36*
X-293007Y353631D02*
X-293136Y353465D01*
X-293251Y353289D01*
X-293350Y353102D01*
X-293433Y352903D01*
X-293502Y352694D01*
X-293555Y352474D01*
X-293594Y352243D01*
X-293616Y352001D01*
X-293624Y351748D01*
X-295656D01*
X-295664Y352001D01*
X-295686Y352243D01*
X-295725Y352474D01*
X-295778Y352694D01*
X-295847Y352903D01*
X-295930Y353102D01*
X-296029Y353289D01*
X-296144Y353465D01*
X-296273Y353631D01*
X-296418Y353786D01*
X-292862D01*
X-293007Y353631D01*
D02*
G37*
G36*
X7374Y351579D02*
X7397Y351337D01*
X7435Y351106D01*
X7488Y350886D01*
X7556Y350677D01*
X7640Y350479D01*
X7739Y350291D01*
X7854Y350115D01*
X7983Y349949D01*
X8128Y349794D01*
X4572D01*
X4717Y349949D01*
X4846Y350115D01*
X4961Y350291D01*
X5060Y350479D01*
X5143Y350677D01*
X5212Y350886D01*
X5265Y351106D01*
X5304Y351337D01*
X5326Y351579D01*
X5334Y351832D01*
X7366D01*
X7374Y351579D01*
D02*
G37*
G36*
X65786Y350434D02*
X65914Y347501D01*
X62867Y349170D01*
X63036Y349227D01*
X63186Y349307D01*
X63320Y349409D01*
X63435Y349534D01*
X63532Y349682D01*
X63612Y349852D01*
X63674Y350046D01*
X63719Y350261D01*
X63745Y350500D01*
X63754Y350761D01*
X65786Y350434D01*
D02*
G37*
G36*
X116851Y348148D02*
X116904Y347944D01*
X116973Y347743D01*
X117056Y347545D01*
X117154Y347349D01*
X117267Y347156D01*
X117396Y346966D01*
X117539Y346779D01*
X117697Y346594D01*
X117870Y346412D01*
X116684Y344724D01*
X116498Y344898D01*
X116309Y345051D01*
X116119Y345181D01*
X115926Y345289D01*
X115731Y345376D01*
X115534Y345440D01*
X115335Y345482D01*
X115134Y345502D01*
X114930Y345500D01*
X114725Y345476D01*
X116812Y348355D01*
X116851Y348148D01*
D02*
G37*
G36*
X-299357Y346011D02*
X-299486Y345845D01*
X-299601Y345669D01*
X-299700Y345481D01*
X-299783Y345283D01*
X-299852Y345074D01*
X-299905Y344854D01*
X-299944Y344623D01*
X-299966Y344381D01*
X-299974Y344128D01*
X-302006D01*
X-302014Y344381D01*
X-302036Y344623D01*
X-302075Y344854D01*
X-302128Y345074D01*
X-302197Y345283D01*
X-302280Y345481D01*
X-302379Y345669D01*
X-302494Y345845D01*
X-302623Y346011D01*
X-302768Y346166D01*
X-299212D01*
X-299357Y346011D01*
D02*
G37*
G36*
X-11676Y343959D02*
X-11653Y343717D01*
X-11615Y343486D01*
X-11562Y343266D01*
X-11494Y343057D01*
X-11410Y342859D01*
X-11311Y342671D01*
X-11196Y342495D01*
X-11067Y342329D01*
X-10922Y342174D01*
X-14478D01*
X-14333Y342329D01*
X-14204Y342495D01*
X-14089Y342671D01*
X-13990Y342859D01*
X-13907Y343057D01*
X-13838Y343266D01*
X-13785Y343486D01*
X-13747Y343717D01*
X-13724Y343959D01*
X-13716Y344212D01*
X-11684D01*
X-11676Y343959D01*
D02*
G37*
G36*
X39124Y342689D02*
X39146Y342447D01*
X39185Y342216D01*
X39238Y341996D01*
X39306Y341787D01*
X39390Y341589D01*
X39489Y341401D01*
X39604Y341225D01*
X39733Y341059D01*
X39878Y340904D01*
X36322D01*
X36467Y341059D01*
X36596Y341225D01*
X36711Y341401D01*
X36810Y341589D01*
X36893Y341787D01*
X36962Y341996D01*
X37015Y342216D01*
X37053Y342447D01*
X37076Y342689D01*
X37084Y342942D01*
X39116D01*
X39124Y342689D01*
D02*
G37*
G36*
X-280307Y338391D02*
X-280436Y338226D01*
X-280551Y338049D01*
X-280650Y337862D01*
X-280734Y337663D01*
X-280802Y337454D01*
X-280855Y337234D01*
X-280893Y337003D01*
X-280916Y336761D01*
X-280924Y336508D01*
X-282956D01*
X-282964Y336761D01*
X-282987Y337003D01*
X-283025Y337234D01*
X-283078Y337454D01*
X-283146Y337663D01*
X-283230Y337862D01*
X-283329Y338049D01*
X-283444Y338226D01*
X-283573Y338391D01*
X-283718Y338546D01*
X-280162D01*
X-280307Y338391D01*
D02*
G37*
G36*
X111767Y338853D02*
X111792Y338644D01*
X111837Y338438D01*
X111899Y338236D01*
X111980Y338036D01*
X112080Y337840D01*
X112198Y337646D01*
X112334Y337456D01*
X112489Y337269D01*
X112662Y337085D01*
X111225Y335648D01*
X111041Y335821D01*
X110854Y335976D01*
X110664Y336113D01*
X110470Y336230D01*
X110274Y336330D01*
X110074Y336411D01*
X109872Y336473D01*
X109666Y336517D01*
X109457Y336543D01*
X109245Y336550D01*
X111760Y339065D01*
X111767Y338853D01*
D02*
G37*
G36*
X56904Y337101D02*
X56926Y336859D01*
X56965Y336628D01*
X57018Y336408D01*
X57087Y336199D01*
X57170Y336001D01*
X57269Y335813D01*
X57384Y335636D01*
X57513Y335471D01*
X57658Y335316D01*
X54102D01*
X54247Y335471D01*
X54376Y335636D01*
X54491Y335813D01*
X54590Y336001D01*
X54674Y336199D01*
X54742Y336408D01*
X54795Y336628D01*
X54833Y336859D01*
X54856Y337101D01*
X54864Y337354D01*
X56896D01*
X56904Y337101D01*
D02*
G37*
G36*
X147311Y331817D02*
X147376Y331620D01*
X147454Y331424D01*
X147546Y331231D01*
X147652Y331039D01*
X147770Y330850D01*
X147903Y330663D01*
X148209Y330294D01*
X148382Y330113D01*
X147312Y328310D01*
X147124Y328485D01*
X146936Y328636D01*
X146746Y328764D01*
X146554Y328868D01*
X146361Y328949D01*
X146167Y329007D01*
X145971Y329040D01*
X145774Y329051D01*
X145576Y329038D01*
X145376Y329001D01*
X147260Y332017D01*
X147311Y331817D01*
D02*
G37*
G36*
X87384Y329481D02*
X87407Y329239D01*
X87445Y329008D01*
X87498Y328788D01*
X87566Y328579D01*
X87650Y328381D01*
X87749Y328193D01*
X87864Y328017D01*
X87993Y327851D01*
X88138Y327696D01*
X84582D01*
X84727Y327851D01*
X84856Y328017D01*
X84971Y328193D01*
X85070Y328381D01*
X85154Y328579D01*
X85222Y328788D01*
X85275Y329008D01*
X85314Y329239D01*
X85336Y329481D01*
X85344Y329734D01*
X87376D01*
X87384Y329481D01*
D02*
G37*
G36*
X131845Y326186D02*
X131938Y326047D01*
X132059Y325886D01*
X132388Y325492D01*
X133390Y324425D01*
X133713Y324100D01*
X132480Y322458D01*
X132289Y322636D01*
X132101Y322786D01*
X131916Y322908D01*
X131734Y323002D01*
X131555Y323067D01*
X131378Y323105D01*
X131204Y323114D01*
X131033Y323095D01*
X130864Y323048D01*
X130699Y322974D01*
X131781Y326301D01*
X131845Y326186D01*
D02*
G37*
G36*
X152032Y-99595D02*
X151859Y-99779D01*
X151704Y-99966D01*
X151567Y-100156D01*
X151450Y-100350D01*
X151350Y-100546D01*
X151269Y-100746D01*
X151207Y-100948D01*
X151163Y-101154D01*
X151137Y-101363D01*
X151130Y-101575D01*
X148615Y-99060D01*
X148827Y-99053D01*
X149036Y-99028D01*
X149242Y-98983D01*
X149444Y-98921D01*
X149644Y-98840D01*
X149840Y-98740D01*
X150034Y-98623D01*
X150224Y-98486D01*
X150411Y-98331D01*
X150595Y-98158D01*
X152032Y-99595D01*
D02*
G37*
G36*
X315562Y-103266D02*
X315400Y-103393D01*
X315254Y-103534D01*
X315126Y-103690D01*
X315014Y-103860D01*
X314920Y-104044D01*
X314843Y-104242D01*
X314783Y-104455D01*
X314740Y-104682D01*
X314715Y-104923D01*
X314706Y-105178D01*
X312674Y-104810D01*
X312668Y-104559D01*
X312618Y-104082D01*
X312575Y-103857D01*
X312519Y-103641D01*
X312451Y-103433D01*
X312370Y-103233D01*
X312277Y-103042D01*
X312172Y-102860D01*
X312054Y-102686D01*
X315562Y-103266D01*
D02*
G37*
G36*
X232639Y-111760D02*
X232427Y-111767D01*
X232218Y-111792D01*
X232012Y-111837D01*
X231810Y-111899D01*
X231610Y-111980D01*
X231414Y-112080D01*
X231220Y-112198D01*
X231030Y-112334D01*
X230843Y-112489D01*
X230659Y-112662D01*
X229222Y-111225D01*
X229395Y-111041D01*
X229550Y-110854D01*
X229687Y-110664D01*
X229804Y-110470D01*
X229904Y-110274D01*
X229985Y-110074D01*
X230047Y-109872D01*
X230091Y-109666D01*
X230117Y-109457D01*
X230124Y-109245D01*
X232639Y-111760D01*
D02*
G37*
G36*
X337557Y-124252D02*
X337517Y-124280D01*
X337441Y-124347D01*
X336193Y-125560D01*
X335477Y-126273D01*
X333527Y-124631D01*
X333717Y-124432D01*
X333880Y-124242D01*
X334017Y-124059D01*
X334128Y-123883D01*
X334213Y-123715D01*
X334272Y-123555D01*
X334305Y-123403D01*
X334312Y-123259D01*
X334293Y-123122D01*
X334248Y-122993D01*
X337557Y-124252D01*
D02*
G37*
G36*
X232068Y-142260D02*
X232189Y-142280D01*
X232372Y-142297D01*
X233285Y-142335D01*
X235355Y-142354D01*
Y-146164D01*
X232007Y-146279D01*
Y-142239D01*
X232068Y-142260D01*
D02*
G37*
G36*
X102470Y-145925D02*
X102572Y-146008D01*
X102695Y-146081D01*
X102840Y-146144D01*
X103006Y-146197D01*
X103193Y-146241D01*
X103401Y-146275D01*
X103631Y-146299D01*
X104154Y-146318D01*
Y-148350D01*
X103880Y-148355D01*
X103394Y-148393D01*
X103184Y-148427D01*
X102995Y-148470D01*
X102828Y-148523D01*
X102682Y-148585D01*
X102557Y-148657D01*
X102454Y-148739D01*
X102373Y-148830D01*
X102389Y-145833D01*
X102470Y-145925D01*
D02*
G37*
G36*
X-47410Y-169065D02*
X-47493Y-169251D01*
X-47567Y-169445D01*
X-47630Y-169647D01*
X-47684Y-169857D01*
X-47763Y-170302D01*
X-47787Y-170536D01*
X-47807Y-171030D01*
X-49839Y-171685D01*
X-49848Y-171428D01*
X-49874Y-171188D01*
X-49919Y-170965D01*
X-49982Y-170759D01*
X-50062Y-170569D01*
X-50160Y-170397D01*
X-50277Y-170242D01*
X-50411Y-170103D01*
X-50563Y-169982D01*
X-50732Y-169877D01*
X-47317Y-168887D01*
X-47410Y-169065D01*
D02*
G37*
G36*
X-436621Y-184510D02*
X-436580Y-185001D01*
X-436545Y-185219D01*
X-436499Y-185420D01*
X-436443Y-185602D01*
X-436377Y-185765D01*
X-436301Y-185910D01*
X-436214Y-186037D01*
X-436118Y-186146D01*
X-439674D01*
X-439577Y-186037D01*
X-439491Y-185910D01*
X-439415Y-185765D01*
X-439349Y-185602D01*
X-439293Y-185420D01*
X-439247Y-185219D01*
X-439212Y-185001D01*
X-439186Y-184764D01*
X-439166Y-184236D01*
X-436626D01*
X-436621Y-184510D01*
D02*
G37*
G36*
X-331107Y-201359D02*
X-331236Y-201525D01*
X-331351Y-201701D01*
X-331450Y-201889D01*
X-331534Y-202087D01*
X-331602Y-202296D01*
X-331655Y-202516D01*
X-331693Y-202747D01*
X-331716Y-202989D01*
X-331724Y-203242D01*
X-333756D01*
X-333764Y-202989D01*
X-333787Y-202747D01*
X-333825Y-202516D01*
X-333878Y-202296D01*
X-333946Y-202087D01*
X-334030Y-201889D01*
X-334129Y-201701D01*
X-334244Y-201525D01*
X-334373Y-201359D01*
X-334518Y-201204D01*
X-330962D01*
X-331107Y-201359D01*
D02*
G37*
G36*
X-324757Y-208979D02*
X-324886Y-209144D01*
X-325001Y-209321D01*
X-325100Y-209508D01*
X-325183Y-209707D01*
X-325252Y-209916D01*
X-325305Y-210136D01*
X-325344Y-210367D01*
X-325366Y-210609D01*
X-325374Y-210862D01*
X-327406D01*
X-327414Y-210609D01*
X-327436Y-210367D01*
X-327475Y-210136D01*
X-327528Y-209916D01*
X-327597Y-209707D01*
X-327680Y-209508D01*
X-327779Y-209321D01*
X-327894Y-209144D01*
X-328023Y-208979D01*
X-328168Y-208824D01*
X-324612D01*
X-324757Y-208979D01*
D02*
G37*
G36*
X-418076Y-217381D02*
X-418054Y-217623D01*
X-418015Y-217854D01*
X-417962Y-218074D01*
X-417893Y-218283D01*
X-417810Y-218482D01*
X-417711Y-218669D01*
X-417596Y-218846D01*
X-417467Y-219011D01*
X-417322Y-219166D01*
X-420878D01*
X-420733Y-219011D01*
X-420604Y-218846D01*
X-420489Y-218669D01*
X-420390Y-218482D01*
X-420307Y-218283D01*
X-420238Y-218074D01*
X-420185Y-217854D01*
X-420146Y-217623D01*
X-420124Y-217381D01*
X-420116Y-217128D01*
X-418084D01*
X-418076Y-217381D01*
D02*
G37*
G36*
X-313327Y-217869D02*
X-313456Y-218034D01*
X-313571Y-218211D01*
X-313670Y-218398D01*
X-313754Y-218597D01*
X-313822Y-218806D01*
X-313875Y-219026D01*
X-313913Y-219257D01*
X-313936Y-219499D01*
X-313944Y-219752D01*
X-315976D01*
X-315984Y-219499D01*
X-316007Y-219257D01*
X-316045Y-219026D01*
X-316098Y-218806D01*
X-316166Y-218597D01*
X-316250Y-218398D01*
X-316349Y-218211D01*
X-316464Y-218034D01*
X-316593Y-217869D01*
X-316738Y-217714D01*
X-313182D01*
X-313327Y-217869D01*
D02*
G37*
G36*
X271512Y-220179D02*
X271888Y-220497D01*
X272068Y-220627D01*
X272241Y-220736D01*
X272410Y-220825D01*
X272572Y-220894D01*
X272729Y-220943D01*
X272880Y-220972D01*
X273025Y-220980D01*
X270510Y-223495D01*
X270501Y-223349D01*
X270473Y-223199D01*
X270424Y-223042D01*
X270355Y-222880D01*
X270266Y-222712D01*
X270157Y-222538D01*
X270027Y-222358D01*
X269878Y-222173D01*
X269519Y-221785D01*
X271315Y-219989D01*
X271512Y-220179D01*
D02*
G37*
G36*
X-41560Y-223653D02*
X-41687Y-223821D01*
X-41799Y-224000D01*
X-41895Y-224190D01*
X-41978Y-224390D01*
X-42045Y-224600D01*
X-42097Y-224821D01*
X-42134Y-225053D01*
X-42157Y-225294D01*
X-42164Y-225547D01*
X-44196Y-225595D01*
X-44204Y-225342D01*
X-44227Y-225100D01*
X-44266Y-224869D01*
X-44320Y-224650D01*
X-44390Y-224442D01*
X-44476Y-224245D01*
X-44577Y-224060D01*
X-44693Y-223886D01*
X-44826Y-223723D01*
X-44973Y-223571D01*
X-41418Y-223495D01*
X-41560Y-223653D01*
D02*
G37*
G36*
X-448305Y-225149D02*
X-448264Y-225641D01*
X-448229Y-225860D01*
X-448183Y-226060D01*
X-448127Y-226241D01*
X-448061Y-226405D01*
X-447985Y-226550D01*
X-447898Y-226677D01*
X-447802Y-226786D01*
X-451358D01*
X-451261Y-226677D01*
X-451175Y-226550D01*
X-451099Y-226405D01*
X-451033Y-226241D01*
X-450977Y-226060D01*
X-450931Y-225860D01*
X-450896Y-225641D01*
X-450870Y-225404D01*
X-450850Y-224876D01*
X-448310D01*
X-448305Y-225149D01*
D02*
G37*
G36*
X-424426Y-245321D02*
X-424403Y-245563D01*
X-424365Y-245794D01*
X-424312Y-246014D01*
X-424244Y-246223D01*
X-424160Y-246422D01*
X-424061Y-246609D01*
X-423946Y-246786D01*
X-423817Y-246951D01*
X-423672Y-247106D01*
X-427228D01*
X-427083Y-246951D01*
X-426954Y-246786D01*
X-426839Y-246609D01*
X-426740Y-246422D01*
X-426656Y-246223D01*
X-426588Y-246014D01*
X-426535Y-245794D01*
X-426497Y-245563D01*
X-426474Y-245321D01*
X-426466Y-245068D01*
X-424434D01*
X-424426Y-245321D01*
D02*
G37*
G36*
X-56424Y-249428D02*
X-56579Y-249283D01*
X-56744Y-249154D01*
X-56921Y-249039D01*
X-57108Y-248940D01*
X-57307Y-248857D01*
X-57516Y-248788D01*
X-57736Y-248735D01*
X-57967Y-248696D01*
X-58209Y-248674D01*
X-58462Y-248666D01*
Y-246634D01*
X-58209Y-246626D01*
X-57967Y-246604D01*
X-57736Y-246565D01*
X-57516Y-246512D01*
X-57307Y-246444D01*
X-57108Y-246360D01*
X-56921Y-246261D01*
X-56744Y-246146D01*
X-56579Y-246017D01*
X-56424Y-245872D01*
Y-249428D01*
D02*
G37*
G36*
X-141877Y-252159D02*
X-142006Y-252325D01*
X-142121Y-252501D01*
X-142220Y-252689D01*
X-142303Y-252887D01*
X-142372Y-253096D01*
X-142425Y-253316D01*
X-142464Y-253547D01*
X-142486Y-253789D01*
X-142494Y-254042D01*
X-144526D01*
X-144534Y-253789D01*
X-144557Y-253547D01*
X-144595Y-253316D01*
X-144648Y-253096D01*
X-144717Y-252887D01*
X-144800Y-252689D01*
X-144899Y-252501D01*
X-145014Y-252325D01*
X-145143Y-252159D01*
X-145288Y-252004D01*
X-141732D01*
X-141877Y-252159D01*
D02*
G37*
G36*
X-83457Y-257239D02*
X-83586Y-257404D01*
X-83701Y-257581D01*
X-83800Y-257768D01*
X-83883Y-257967D01*
X-83952Y-258176D01*
X-84005Y-258396D01*
X-84044Y-258627D01*
X-84066Y-258869D01*
X-84074Y-259122D01*
X-86106D01*
X-86114Y-258869D01*
X-86137Y-258627D01*
X-86175Y-258396D01*
X-86228Y-258176D01*
X-86297Y-257967D01*
X-86380Y-257768D01*
X-86479Y-257581D01*
X-86594Y-257404D01*
X-86723Y-257239D01*
X-86868Y-257084D01*
X-83312D01*
X-83457Y-257239D01*
D02*
G37*
G36*
X-56424Y-260858D02*
X-56579Y-260713D01*
X-56744Y-260584D01*
X-56921Y-260469D01*
X-57108Y-260370D01*
X-57307Y-260287D01*
X-57516Y-260218D01*
X-57736Y-260165D01*
X-57967Y-260126D01*
X-58209Y-260104D01*
X-58462Y-260096D01*
Y-258064D01*
X-58209Y-258056D01*
X-57967Y-258034D01*
X-57736Y-257995D01*
X-57516Y-257942D01*
X-57307Y-257873D01*
X-57108Y-257790D01*
X-56921Y-257691D01*
X-56744Y-257576D01*
X-56579Y-257447D01*
X-56424Y-257302D01*
Y-260858D01*
D02*
G37*
G36*
X-57694Y-272288D02*
X-57849Y-272143D01*
X-58014Y-272014D01*
X-58191Y-271899D01*
X-58379Y-271800D01*
X-58577Y-271716D01*
X-58786Y-271648D01*
X-59006Y-271595D01*
X-59237Y-271556D01*
X-59479Y-271534D01*
X-59732Y-271526D01*
Y-269494D01*
X-59479Y-269486D01*
X-59237Y-269464D01*
X-59006Y-269425D01*
X-58786Y-269372D01*
X-58577Y-269303D01*
X-58379Y-269220D01*
X-58191Y-269121D01*
X-58014Y-269006D01*
X-57849Y-268877D01*
X-57694Y-268732D01*
Y-272288D01*
D02*
G37*
G36*
X-55750Y-280271D02*
X-55594Y-280408D01*
X-55425Y-280529D01*
X-55244Y-280634D01*
X-55051Y-280723D01*
X-54846Y-280795D01*
X-54628Y-280851D01*
X-54399Y-280892D01*
X-54157Y-280916D01*
X-53904Y-280924D01*
X-54050Y-282956D01*
X-54302Y-282963D01*
X-54544Y-282984D01*
X-54777Y-283020D01*
X-54999Y-283070D01*
X-55212Y-283134D01*
X-55415Y-283212D01*
X-55608Y-283304D01*
X-55791Y-283411D01*
X-55965Y-283531D01*
X-56129Y-283666D01*
X-55894Y-280118D01*
X-55750Y-280271D01*
D02*
G37*
G36*
X-81648Y-285015D02*
X-81821Y-285199D01*
X-81976Y-285386D01*
X-82113Y-285576D01*
X-82230Y-285770D01*
X-82330Y-285966D01*
X-82411Y-286166D01*
X-82473Y-286368D01*
X-82517Y-286574D01*
X-82543Y-286783D01*
X-82550Y-286995D01*
X-85065Y-284480D01*
X-84853Y-284473D01*
X-84644Y-284447D01*
X-84438Y-284403D01*
X-84236Y-284341D01*
X-84036Y-284260D01*
X-83840Y-284160D01*
X-83646Y-284042D01*
X-83456Y-283906D01*
X-83269Y-283751D01*
X-83085Y-283578D01*
X-81648Y-285015D01*
D02*
G37*
G36*
X-94226Y-292311D02*
X-94204Y-292553D01*
X-94165Y-292784D01*
X-94112Y-293004D01*
X-94044Y-293213D01*
X-93960Y-293412D01*
X-93861Y-293599D01*
X-93746Y-293776D01*
X-93617Y-293941D01*
X-93472Y-294096D01*
X-97028D01*
X-96883Y-293941D01*
X-96754Y-293776D01*
X-96639Y-293599D01*
X-96540Y-293412D01*
X-96456Y-293213D01*
X-96388Y-293004D01*
X-96335Y-292784D01*
X-96297Y-292553D01*
X-96274Y-292311D01*
X-96266Y-292058D01*
X-94234D01*
X-94226Y-292311D01*
D02*
G37*
G36*
X-42156Y-296121D02*
X-42133Y-296363D01*
X-42095Y-296594D01*
X-42042Y-296814D01*
X-41974Y-297023D01*
X-41890Y-297222D01*
X-41791Y-297409D01*
X-41676Y-297586D01*
X-41547Y-297751D01*
X-41402Y-297906D01*
X-44958D01*
X-44813Y-297751D01*
X-44684Y-297586D01*
X-44569Y-297409D01*
X-44470Y-297222D01*
X-44387Y-297023D01*
X-44318Y-296814D01*
X-44265Y-296594D01*
X-44226Y-296363D01*
X-44204Y-296121D01*
X-44196Y-295868D01*
X-42164D01*
X-42156Y-296121D01*
D02*
G37*
G36*
X-104386Y-302471D02*
X-104363Y-302713D01*
X-104325Y-302944D01*
X-104272Y-303164D01*
X-104204Y-303373D01*
X-104120Y-303571D01*
X-104021Y-303759D01*
X-103906Y-303936D01*
X-103777Y-304101D01*
X-103632Y-304256D01*
X-107188D01*
X-107043Y-304101D01*
X-106914Y-303936D01*
X-106799Y-303759D01*
X-106700Y-303571D01*
X-106616Y-303373D01*
X-106548Y-303164D01*
X-106495Y-302944D01*
X-106456Y-302713D01*
X-106434Y-302471D01*
X-106426Y-302218D01*
X-104394D01*
X-104386Y-302471D01*
D02*
G37*
G36*
X-135527Y-304229D02*
X-135656Y-304394D01*
X-135771Y-304571D01*
X-135870Y-304758D01*
X-135954Y-304957D01*
X-136022Y-305166D01*
X-136075Y-305386D01*
X-136114Y-305617D01*
X-136136Y-305859D01*
X-136144Y-306112D01*
X-138176D01*
X-138184Y-305859D01*
X-138207Y-305617D01*
X-138245Y-305386D01*
X-138298Y-305166D01*
X-138366Y-304957D01*
X-138450Y-304758D01*
X-138549Y-304571D01*
X-138664Y-304394D01*
X-138793Y-304229D01*
X-138938Y-304074D01*
X-135382D01*
X-135527Y-304229D01*
D02*
G37*
G36*
X4498Y-300527D02*
X4655Y-301290D01*
X4917Y-302033D01*
X5285Y-302754D01*
X5757Y-303453D01*
X6334Y-304131D01*
X7016Y-304787D01*
X7803Y-305422D01*
X8695Y-306035D01*
X9692Y-306626D01*
X-3160Y-310182D01*
X-2439Y-308910D01*
X-314Y-304569D01*
X28Y-303671D01*
X483Y-302097D01*
X597Y-301421D01*
X635Y-300821D01*
X4445Y-299741D01*
X4498Y-300527D01*
D02*
G37*
G36*
X-42817Y-310579D02*
X-42946Y-310744D01*
X-43061Y-310921D01*
X-43160Y-311108D01*
X-43243Y-311307D01*
X-43312Y-311516D01*
X-43365Y-311736D01*
X-43404Y-311967D01*
X-43426Y-312209D01*
X-43434Y-312462D01*
X-45466D01*
X-45474Y-312209D01*
X-45497Y-311967D01*
X-45535Y-311736D01*
X-45588Y-311516D01*
X-45656Y-311307D01*
X-45740Y-311108D01*
X-45839Y-310921D01*
X-45954Y-310744D01*
X-46083Y-310579D01*
X-46228Y-310424D01*
X-42672D01*
X-42817Y-310579D01*
D02*
G37*
G36*
X-388866Y-315171D02*
X-388843Y-315413D01*
X-388805Y-315644D01*
X-388752Y-315864D01*
X-388684Y-316073D01*
X-388600Y-316271D01*
X-388501Y-316459D01*
X-388386Y-316635D01*
X-388257Y-316801D01*
X-388112Y-316956D01*
X-391668D01*
X-391523Y-316801D01*
X-391394Y-316635D01*
X-391279Y-316459D01*
X-391180Y-316271D01*
X-391096Y-316073D01*
X-391028Y-315864D01*
X-390975Y-315644D01*
X-390937Y-315413D01*
X-390914Y-315171D01*
X-390906Y-314918D01*
X-388874D01*
X-388866Y-315171D01*
D02*
G37*
G36*
X-36467Y-315659D02*
X-36596Y-315825D01*
X-36711Y-316001D01*
X-36810Y-316189D01*
X-36893Y-316387D01*
X-36962Y-316596D01*
X-37015Y-316816D01*
X-37053Y-317047D01*
X-37076Y-317289D01*
X-37084Y-317542D01*
X-39116D01*
X-39124Y-317289D01*
X-39146Y-317047D01*
X-39185Y-316816D01*
X-39238Y-316596D01*
X-39306Y-316387D01*
X-39390Y-316189D01*
X-39489Y-316001D01*
X-39604Y-315825D01*
X-39733Y-315659D01*
X-39878Y-315504D01*
X-36322D01*
X-36467Y-315659D01*
D02*
G37*
G36*
X-24650Y-321817D02*
X-24861Y-321822D01*
X-25070Y-321845D01*
X-25276Y-321887D01*
X-25478Y-321948D01*
X-25678Y-322027D01*
X-25874Y-322126D01*
X-26068Y-322243D01*
X-26258Y-322379D01*
X-26446Y-322533D01*
X-26630Y-322707D01*
X-28046Y-321249D01*
X-27873Y-321065D01*
X-27718Y-320878D01*
X-27581Y-320688D01*
X-27462Y-320495D01*
X-27361Y-320299D01*
X-27279Y-320099D01*
X-27215Y-319897D01*
X-27169Y-319691D01*
X-27141Y-319482D01*
X-27131Y-319270D01*
X-24650Y-321817D01*
D02*
G37*
G36*
X-123436Y-326601D02*
X-123413Y-326843D01*
X-123375Y-327074D01*
X-123322Y-327294D01*
X-123253Y-327503D01*
X-123170Y-327701D01*
X-123071Y-327889D01*
X-122956Y-328065D01*
X-122827Y-328231D01*
X-122682Y-328386D01*
X-126238D01*
X-126093Y-328231D01*
X-125964Y-328065D01*
X-125849Y-327889D01*
X-125750Y-327701D01*
X-125667Y-327503D01*
X-125598Y-327294D01*
X-125545Y-327074D01*
X-125506Y-326843D01*
X-125484Y-326601D01*
X-125476Y-326348D01*
X-123444D01*
X-123436Y-326601D01*
D02*
G37*
G36*
X10843Y-322685D02*
X9319Y-324465D01*
X8699Y-325322D01*
X8176Y-326158D01*
X7747Y-326971D01*
X7414Y-327763D01*
X7175Y-328533D01*
X7033Y-329281D01*
X6985Y-330008D01*
X3175D01*
X3127Y-329281D01*
X2984Y-328533D01*
X2746Y-327763D01*
X2413Y-326971D01*
X1984Y-326158D01*
X1461Y-325322D01*
X841Y-324465D01*
X127Y-323586D01*
X-1587Y-321762D01*
X11747D01*
X10843Y-322685D01*
D02*
G37*
G36*
X-143147Y-329629D02*
X-143276Y-329795D01*
X-143391Y-329971D01*
X-143490Y-330159D01*
X-143574Y-330357D01*
X-143642Y-330566D01*
X-143695Y-330786D01*
X-143734Y-331017D01*
X-143756Y-331259D01*
X-143764Y-331512D01*
X-145796D01*
X-145804Y-331259D01*
X-145827Y-331017D01*
X-145865Y-330786D01*
X-145918Y-330566D01*
X-145986Y-330357D01*
X-146070Y-330159D01*
X-146169Y-329971D01*
X-146284Y-329795D01*
X-146413Y-329629D01*
X-146558Y-329474D01*
X-143002D01*
X-143147Y-329629D01*
D02*
G37*
G36*
X93409Y-329837D02*
X93574Y-329966D01*
X93751Y-330081D01*
X93939Y-330180D01*
X94137Y-330263D01*
X94346Y-330332D01*
X94566Y-330385D01*
X94797Y-330424D01*
X95039Y-330446D01*
X95292Y-330454D01*
Y-332486D01*
X95039Y-332494D01*
X94797Y-332517D01*
X94566Y-332555D01*
X94346Y-332608D01*
X94137Y-332677D01*
X93939Y-332760D01*
X93751Y-332859D01*
X93574Y-332974D01*
X93409Y-333103D01*
X93254Y-333248D01*
Y-329692D01*
X93409Y-329837D01*
D02*
G37*
G36*
X-395216Y-334221D02*
X-395193Y-334463D01*
X-395155Y-334694D01*
X-395102Y-334914D01*
X-395033Y-335123D01*
X-394950Y-335322D01*
X-394851Y-335509D01*
X-394736Y-335686D01*
X-394607Y-335851D01*
X-394462Y-336006D01*
X-398018D01*
X-397873Y-335851D01*
X-397744Y-335686D01*
X-397629Y-335509D01*
X-397530Y-335322D01*
X-397447Y-335123D01*
X-397378Y-334914D01*
X-397325Y-334694D01*
X-397286Y-334463D01*
X-397264Y-334221D01*
X-397256Y-333968D01*
X-395224D01*
X-395216Y-334221D01*
D02*
G37*
G36*
X-216807Y-346139D02*
X-216936Y-346305D01*
X-217051Y-346481D01*
X-217150Y-346669D01*
X-217234Y-346867D01*
X-217302Y-347076D01*
X-217355Y-347296D01*
X-217393Y-347527D01*
X-217416Y-347769D01*
X-217424Y-348022D01*
X-219456D01*
X-219464Y-347769D01*
X-219487Y-347527D01*
X-219525Y-347296D01*
X-219578Y-347076D01*
X-219646Y-346867D01*
X-219730Y-346669D01*
X-219829Y-346481D01*
X-219944Y-346305D01*
X-220073Y-346139D01*
X-220218Y-345984D01*
X-216662D01*
X-216807Y-346139D01*
D02*
G37*
G36*
X-181247Y-348679D02*
X-181376Y-348844D01*
X-181491Y-349021D01*
X-181590Y-349208D01*
X-181674Y-349407D01*
X-181742Y-349616D01*
X-181795Y-349836D01*
X-181833Y-350067D01*
X-181856Y-350309D01*
X-181864Y-350562D01*
X-183896D01*
X-183904Y-350309D01*
X-183927Y-350067D01*
X-183965Y-349836D01*
X-184018Y-349616D01*
X-184086Y-349407D01*
X-184170Y-349208D01*
X-184269Y-349021D01*
X-184384Y-348844D01*
X-184513Y-348679D01*
X-184658Y-348524D01*
X-181102D01*
X-181247Y-348679D01*
D02*
G37*
G36*
X-43426Y-352001D02*
X-43404Y-352243D01*
X-43365Y-352474D01*
X-43312Y-352694D01*
X-43243Y-352903D01*
X-43160Y-353102D01*
X-43061Y-353289D01*
X-42946Y-353465D01*
X-42817Y-353631D01*
X-42672Y-353786D01*
X-46228D01*
X-46083Y-353631D01*
X-45954Y-353465D01*
X-45839Y-353289D01*
X-45740Y-353102D01*
X-45656Y-352903D01*
X-45588Y-352694D01*
X-45535Y-352474D01*
X-45497Y-352243D01*
X-45474Y-352001D01*
X-45466Y-351748D01*
X-43434D01*
X-43426Y-352001D01*
D02*
G37*
G36*
X-313936D02*
X-313913Y-352243D01*
X-313875Y-352474D01*
X-313822Y-352694D01*
X-313754Y-352903D01*
X-313670Y-353102D01*
X-313571Y-353289D01*
X-313456Y-353465D01*
X-313327Y-353631D01*
X-313182Y-353786D01*
X-316738D01*
X-316593Y-353631D01*
X-316464Y-353465D01*
X-316349Y-353289D01*
X-316250Y-353102D01*
X-316166Y-352903D01*
X-316098Y-352694D01*
X-316045Y-352474D01*
X-316007Y-352243D01*
X-315984Y-352001D01*
X-315976Y-351748D01*
X-313944D01*
X-313936Y-352001D01*
D02*
G37*
G36*
X-19469Y-358280D02*
X-19631Y-358410D01*
X-19776Y-358553D01*
X-19903Y-358711D01*
X-20014Y-358882D01*
X-20107Y-359068D01*
X-20184Y-359267D01*
X-20243Y-359480D01*
X-20286Y-359707D01*
X-20312Y-359948D01*
X-20320Y-360203D01*
X-22352Y-359865D01*
X-22358Y-359614D01*
X-22377Y-359372D01*
X-22409Y-359138D01*
X-22453Y-358913D01*
X-22510Y-358697D01*
X-22580Y-358490D01*
X-22662Y-358291D01*
X-22757Y-358101D01*
X-22865Y-357919D01*
X-22985Y-357747D01*
X-19469Y-358280D01*
D02*
G37*
G36*
X-37076Y-359621D02*
X-37053Y-359863D01*
X-37015Y-360094D01*
X-36962Y-360314D01*
X-36893Y-360523D01*
X-36810Y-360722D01*
X-36711Y-360909D01*
X-36596Y-361086D01*
X-36467Y-361251D01*
X-36322Y-361406D01*
X-39878D01*
X-39733Y-361251D01*
X-39604Y-361086D01*
X-39489Y-360909D01*
X-39390Y-360722D01*
X-39306Y-360523D01*
X-39238Y-360314D01*
X-39185Y-360094D01*
X-39146Y-359863D01*
X-39124Y-359621D01*
X-39116Y-359368D01*
X-37084D01*
X-37076Y-359621D01*
D02*
G37*
G36*
X-325366Y-363431D02*
X-325344Y-363673D01*
X-325305Y-363904D01*
X-325252Y-364124D01*
X-325183Y-364333D01*
X-325100Y-364532D01*
X-325001Y-364719D01*
X-324886Y-364896D01*
X-324757Y-365061D01*
X-324612Y-365216D01*
X-328168D01*
X-328023Y-365061D01*
X-327894Y-364896D01*
X-327779Y-364719D01*
X-327680Y-364532D01*
X-327597Y-364333D01*
X-327528Y-364124D01*
X-327475Y-363904D01*
X-327436Y-363673D01*
X-327414Y-363431D01*
X-327406Y-363178D01*
X-325374D01*
X-325366Y-363431D01*
D02*
G37*
G36*
X-151375Y-363240D02*
X-151348Y-363479D01*
X-151304Y-363694D01*
X-151242Y-363888D01*
X-151162Y-364058D01*
X-151065Y-364206D01*
X-150949Y-364331D01*
X-150816Y-364433D01*
X-150666Y-364513D01*
X-150497Y-364570D01*
X-153544Y-366239D01*
X-153519Y-366139D01*
X-153498Y-365997D01*
X-153462Y-365583D01*
X-153421Y-364237D01*
X-153416Y-363306D01*
X-151384Y-362979D01*
X-151375Y-363240D01*
D02*
G37*
G36*
X-30726Y-365971D02*
X-30703Y-366213D01*
X-30665Y-366444D01*
X-30612Y-366664D01*
X-30543Y-366873D01*
X-30460Y-367071D01*
X-30361Y-367259D01*
X-30246Y-367435D01*
X-30117Y-367601D01*
X-29972Y-367756D01*
X-33528D01*
X-33383Y-367601D01*
X-33254Y-367435D01*
X-33139Y-367259D01*
X-33040Y-367071D01*
X-32957Y-366873D01*
X-32888Y-366664D01*
X-32835Y-366444D01*
X-32796Y-366213D01*
X-32774Y-365971D01*
X-32766Y-365718D01*
X-30734D01*
X-30726Y-365971D01*
D02*
G37*
G36*
X-331716Y-372321D02*
X-331693Y-372563D01*
X-331655Y-372794D01*
X-331602Y-373014D01*
X-331534Y-373223D01*
X-331450Y-373422D01*
X-331351Y-373609D01*
X-331236Y-373786D01*
X-331107Y-373951D01*
X-330962Y-374106D01*
X-334518D01*
X-334373Y-373951D01*
X-334244Y-373786D01*
X-334129Y-373609D01*
X-334030Y-373422D01*
X-333946Y-373223D01*
X-333878Y-373014D01*
X-333825Y-372794D01*
X-333787Y-372563D01*
X-333764Y-372321D01*
X-333756Y-372068D01*
X-331724D01*
X-331716Y-372321D01*
D02*
G37*
G36*
X-121201Y-372651D02*
X-121014Y-372806D01*
X-120824Y-372943D01*
X-120630Y-373060D01*
X-120434Y-373160D01*
X-120234Y-373241D01*
X-120032Y-373303D01*
X-119826Y-373348D01*
X-119617Y-373373D01*
X-119405Y-373380D01*
X-121920Y-375895D01*
X-121927Y-375683D01*
X-121952Y-375474D01*
X-121997Y-375268D01*
X-122059Y-375066D01*
X-122140Y-374866D01*
X-122240Y-374670D01*
X-122358Y-374476D01*
X-122494Y-374286D01*
X-122649Y-374099D01*
X-122822Y-373915D01*
X-121385Y-372478D01*
X-121201Y-372651D01*
D02*
G37*
G36*
X-25Y-384187D02*
X-237Y-384194D01*
X-446Y-384220D01*
X-652Y-384264D01*
X-854Y-384326D01*
X-1054Y-384407D01*
X-1250Y-384507D01*
X-1444Y-384625D01*
X-1634Y-384761D01*
X-1821Y-384916D01*
X-2005Y-385089D01*
X-3442Y-383653D01*
X-3269Y-383469D01*
X-3114Y-383281D01*
X-2977Y-383091D01*
X-2860Y-382898D01*
X-2760Y-382701D01*
X-2679Y-382502D01*
X-2617Y-382299D01*
X-2573Y-382093D01*
X-2547Y-381885D01*
X-2540Y-381673D01*
X-25Y-384187D01*
D02*
G37*
G36*
X-174897Y-390589D02*
X-175026Y-390755D01*
X-175141Y-390931D01*
X-175240Y-391119D01*
X-175324Y-391317D01*
X-175392Y-391526D01*
X-175445Y-391746D01*
X-175483Y-391977D01*
X-175506Y-392219D01*
X-175514Y-392472D01*
X-177546D01*
X-177554Y-392219D01*
X-177577Y-391977D01*
X-177615Y-391746D01*
X-177668Y-391526D01*
X-177736Y-391317D01*
X-177820Y-391119D01*
X-177919Y-390931D01*
X-178034Y-390755D01*
X-178163Y-390589D01*
X-178308Y-390434D01*
X-174752D01*
X-174897Y-390589D01*
D02*
G37*
G36*
X-195573Y-393937D02*
X-195548Y-394146D01*
X-195503Y-394352D01*
X-195441Y-394554D01*
X-195360Y-394754D01*
X-195260Y-394950D01*
X-195142Y-395144D01*
X-195006Y-395334D01*
X-194851Y-395521D01*
X-194678Y-395705D01*
X-196115Y-397142D01*
X-196299Y-396969D01*
X-196486Y-396814D01*
X-196676Y-396678D01*
X-196870Y-396560D01*
X-197066Y-396460D01*
X-197266Y-396379D01*
X-197468Y-396317D01*
X-197674Y-396273D01*
X-197883Y-396247D01*
X-198095Y-396240D01*
X-195580Y-393725D01*
X-195573Y-393937D01*
D02*
G37*
G36*
X-200685Y-420370D02*
X-200897Y-420377D01*
X-201106Y-420402D01*
X-201312Y-420447D01*
X-201514Y-420509D01*
X-201714Y-420590D01*
X-201910Y-420690D01*
X-202104Y-420807D01*
X-202294Y-420944D01*
X-202481Y-421099D01*
X-202665Y-421272D01*
X-204102Y-419835D01*
X-203929Y-419651D01*
X-203774Y-419464D01*
X-203638Y-419274D01*
X-203520Y-419080D01*
X-203420Y-418884D01*
X-203339Y-418684D01*
X-203277Y-418482D01*
X-203232Y-418276D01*
X-203207Y-418067D01*
X-203200Y-417855D01*
X-200685Y-420370D01*
D02*
G37*
G36*
X-28847Y-419799D02*
X-28976Y-419964D01*
X-29091Y-420141D01*
X-29190Y-420328D01*
X-29274Y-420527D01*
X-29342Y-420736D01*
X-29395Y-420956D01*
X-29434Y-421187D01*
X-29456Y-421429D01*
X-29464Y-421682D01*
X-31496D01*
X-31504Y-421429D01*
X-31527Y-421187D01*
X-31565Y-420956D01*
X-31618Y-420736D01*
X-31686Y-420527D01*
X-31770Y-420328D01*
X-31869Y-420141D01*
X-31984Y-419964D01*
X-32113Y-419799D01*
X-32258Y-419644D01*
X-28702D01*
X-28847Y-419799D01*
D02*
G37*
G36*
X215654Y-437091D02*
X215676Y-437333D01*
X215715Y-437564D01*
X215768Y-437784D01*
X215837Y-437993D01*
X215920Y-438191D01*
X216019Y-438379D01*
X216134Y-438555D01*
X216263Y-438721D01*
X216408Y-438876D01*
X212852D01*
X212997Y-438721D01*
X213126Y-438555D01*
X213241Y-438379D01*
X213340Y-438191D01*
X213424Y-437993D01*
X213492Y-437784D01*
X213545Y-437564D01*
X213584Y-437333D01*
X213606Y-437091D01*
X213614Y-436838D01*
X215646D01*
X215654Y-437091D01*
D02*
G37*
G36*
X1657Y-446066D02*
X1549Y-446212D01*
X1454Y-446373D01*
X1372Y-446549D01*
X1302Y-446740D01*
X1245Y-446945D01*
X1200Y-447165D01*
X1168Y-447399D01*
X1149Y-447648D01*
X1143Y-447912D01*
X-1143D01*
X-1149Y-447648D01*
X-1200Y-447165D01*
X-1245Y-446945D01*
X-1302Y-446740D01*
X-1372Y-446549D01*
X-1454Y-446373D01*
X-1549Y-446212D01*
X-1657Y-446066D01*
X-1778Y-445934D01*
X1778D01*
X1657Y-446066D01*
D02*
G37*
G36*
X-19549Y-446291D02*
X-19362Y-446446D01*
X-19172Y-446584D01*
X-18979Y-446703D01*
X-18783Y-446804D01*
X-18583Y-446887D01*
X-18381Y-446953D01*
X-18175Y-447000D01*
X-17966Y-447029D01*
X-17754Y-447040D01*
X-20319Y-449504D01*
X-20322Y-449292D01*
X-20344Y-449083D01*
X-20385Y-448878D01*
X-20445Y-448675D01*
X-20523Y-448476D01*
X-20621Y-448279D01*
X-20738Y-448086D01*
X-20873Y-447895D01*
X-21028Y-447708D01*
X-21201Y-447523D01*
X-19733Y-446118D01*
X-19549Y-446291D01*
D02*
G37*
G36*
X-183248Y-447575D02*
X-183421Y-447759D01*
X-183576Y-447946D01*
X-183713Y-448136D01*
X-183830Y-448330D01*
X-183930Y-448526D01*
X-184011Y-448726D01*
X-184073Y-448928D01*
X-184118Y-449134D01*
X-184143Y-449343D01*
X-184150Y-449555D01*
X-186665Y-447040D01*
X-186453Y-447033D01*
X-186244Y-447007D01*
X-186038Y-446963D01*
X-185836Y-446901D01*
X-185636Y-446820D01*
X-185440Y-446720D01*
X-185246Y-446603D01*
X-185056Y-446466D01*
X-184869Y-446311D01*
X-184685Y-446138D01*
X-183248Y-447575D01*
D02*
G37*
G36*
X-197096Y-462491D02*
X-197073Y-462733D01*
X-197035Y-462964D01*
X-196982Y-463184D01*
X-196914Y-463393D01*
X-196830Y-463591D01*
X-196731Y-463779D01*
X-196616Y-463955D01*
X-196487Y-464121D01*
X-196342Y-464276D01*
X-199898D01*
X-199753Y-464121D01*
X-199624Y-463955D01*
X-199509Y-463779D01*
X-199410Y-463591D01*
X-199326Y-463393D01*
X-199258Y-463184D01*
X-199205Y-462964D01*
X-199167Y-462733D01*
X-199144Y-462491D01*
X-199136Y-462238D01*
X-197104D01*
X-197096Y-462491D01*
D02*
G37*
G36*
X-217416Y-468841D02*
X-217393Y-469083D01*
X-217355Y-469314D01*
X-217302Y-469534D01*
X-217234Y-469743D01*
X-217150Y-469941D01*
X-217051Y-470129D01*
X-216936Y-470305D01*
X-216807Y-470471D01*
X-216662Y-470626D01*
X-220218D01*
X-220073Y-470471D01*
X-219944Y-470305D01*
X-219829Y-470129D01*
X-219730Y-469941D01*
X-219646Y-469743D01*
X-219578Y-469534D01*
X-219525Y-469314D01*
X-219487Y-469083D01*
X-219464Y-468841D01*
X-219456Y-468588D01*
X-217424D01*
X-217416Y-468841D01*
D02*
G37*
G36*
X-209796Y-477731D02*
X-209774Y-477973D01*
X-209735Y-478204D01*
X-209682Y-478424D01*
X-209613Y-478633D01*
X-209530Y-478831D01*
X-209431Y-479019D01*
X-209316Y-479196D01*
X-209187Y-479361D01*
X-209042Y-479516D01*
X-212598D01*
X-212453Y-479361D01*
X-212324Y-479196D01*
X-212209Y-479019D01*
X-212110Y-478831D01*
X-212027Y-478633D01*
X-211958Y-478424D01*
X-211905Y-478204D01*
X-211866Y-477973D01*
X-211844Y-477731D01*
X-211836Y-477478D01*
X-209804D01*
X-209796Y-477731D01*
D02*
G37*
G36*
X-130781Y-488151D02*
X-130594Y-488306D01*
X-130404Y-488442D01*
X-130210Y-488560D01*
X-130014Y-488660D01*
X-129814Y-488741D01*
X-129612Y-488803D01*
X-129406Y-488848D01*
X-129197Y-488873D01*
X-128985Y-488880D01*
X-131500Y-491395D01*
X-131507Y-491183D01*
X-131532Y-490974D01*
X-131577Y-490768D01*
X-131639Y-490566D01*
X-131720Y-490366D01*
X-131820Y-490170D01*
X-131938Y-489976D01*
X-132074Y-489786D01*
X-132229Y-489599D01*
X-132402Y-489415D01*
X-130965Y-487978D01*
X-130781Y-488151D01*
D02*
G37*
G36*
X-29456Y-490431D02*
X-29434Y-490673D01*
X-29395Y-490904D01*
X-29342Y-491124D01*
X-29274Y-491333D01*
X-29190Y-491531D01*
X-29091Y-491719D01*
X-28976Y-491895D01*
X-28847Y-492061D01*
X-28702Y-492216D01*
X-32258D01*
X-32113Y-492061D01*
X-31984Y-491895D01*
X-31869Y-491719D01*
X-31770Y-491531D01*
X-31686Y-491333D01*
X-31618Y-491124D01*
X-31565Y-490904D01*
X-31527Y-490673D01*
X-31504Y-490431D01*
X-31496Y-490178D01*
X-29464D01*
X-29456Y-490431D01*
D02*
G37*
G36*
X-20688Y-500915D02*
X-20861Y-501099D01*
X-21016Y-501286D01*
X-21153Y-501476D01*
X-21270Y-501670D01*
X-21370Y-501866D01*
X-21451Y-502066D01*
X-21513Y-502268D01*
X-21558Y-502474D01*
X-21583Y-502683D01*
X-21590Y-502895D01*
X-24105Y-500380D01*
X-23893Y-500373D01*
X-23684Y-500348D01*
X-23478Y-500303D01*
X-23276Y-500241D01*
X-23076Y-500160D01*
X-22880Y-500060D01*
X-22686Y-499943D01*
X-22496Y-499806D01*
X-22309Y-499651D01*
X-22125Y-499478D01*
X-20688Y-500915D01*
D02*
G37*
G36*
X-9360Y-505006D02*
X-9542Y-505198D01*
X-9702Y-505389D01*
X-9840Y-505578D01*
X-9955Y-505765D01*
X-10049Y-505950D01*
X-10121Y-506134D01*
X-10171Y-506317D01*
X-10199Y-506497D01*
X-10205Y-506676D01*
X-10189Y-506854D01*
X-13034Y-504720D01*
X-12865Y-504689D01*
X-12694Y-504642D01*
X-12520Y-504577D01*
X-12344Y-504495D01*
X-12165Y-504397D01*
X-11984Y-504281D01*
X-11801Y-504149D01*
X-11427Y-503833D01*
X-11236Y-503650D01*
X-9360Y-505006D01*
D02*
G37*
G36*
X-85697Y-520225D02*
X-85870Y-520409D01*
X-86025Y-520596D01*
X-86161Y-520787D01*
X-86279Y-520980D01*
X-86379Y-521176D01*
X-86460Y-521376D01*
X-86522Y-521578D01*
X-86566Y-521784D01*
X-86592Y-521993D01*
X-86599Y-522205D01*
X-89114Y-519690D01*
X-88902Y-519683D01*
X-88693Y-519658D01*
X-88487Y-519614D01*
X-88285Y-519551D01*
X-88085Y-519470D01*
X-87889Y-519371D01*
X-87695Y-519253D01*
X-87505Y-519116D01*
X-87318Y-518961D01*
X-87134Y-518788D01*
X-85697Y-520225D01*
D02*
G37*
D14*
X-307340Y243724D02*
Y385318D01*
X-63500Y379730D02*
Y393700D01*
X-314960Y379222D02*
X-314452D01*
X-321310Y243840D02*
Y391160D01*
X-443738Y121412D02*
X-321310Y243840D01*
X-443738Y-212090D02*
Y121412D01*
X-50800Y373380D02*
Y393700D01*
X-314960Y242570D02*
Y379222D01*
X-437896Y119634D02*
X-314960Y242570D01*
X-432054Y-170180D02*
Y119010D01*
X-437896Y-187960D02*
Y119634D01*
X-432054Y119010D02*
X-307340Y243724D01*
X-449580Y124460D02*
X-327660Y246380D01*
X-449580Y-228600D02*
Y124460D01*
X-327660Y246380D02*
Y373380D01*
X179070Y-195452D02*
Y-175030D01*
X204000Y-150101D02*
X228758D01*
X179070Y-175030D02*
X204000Y-150101D01*
X228758D02*
X229254Y-150596D01*
X200788Y-217170D02*
X266700D01*
X273050Y-223520D01*
X179070Y-195452D02*
X200788Y-217170D01*
X195703Y-185725D02*
X196189Y-186211D01*
Y-188375D02*
X208473Y-200660D01*
X336064Y-123890D02*
Y-122406D01*
X208473Y-200660D02*
X259294D01*
X336064Y-123890D01*
Y-122406D02*
X336550Y-121920D01*
X196189Y-188375D02*
Y-186211D01*
D19*
X-7620Y-389267D02*
X0Y-381647D01*
X-21336Y-445952D02*
Y-356601D01*
Y-445952D02*
X-17780Y-449508D01*
Y-449580D02*
Y-449508D01*
X-21336Y-356601D02*
X-20955Y-356220D01*
X227141Y-14224D02*
X310617D01*
X360934Y36093D01*
Y158496D01*
X160175Y-75919D02*
X160239Y-75983D01*
Y-78342D02*
X160822Y-78925D01*
X160239Y-78342D02*
Y-75983D01*
X160175Y-73505D02*
X176530Y-57150D01*
X160175Y-75919D02*
Y-73505D01*
X167212Y-73899D02*
Y-72216D01*
Y-73899D02*
X167237Y-73924D01*
Y-76763D02*
Y-73924D01*
X167212Y-72216D02*
X180594Y-58833D01*
X167237Y-76763D02*
X167737Y-77263D01*
X173325Y-71850D02*
X184658Y-60517D01*
X173325Y-81662D02*
Y-71850D01*
X179653Y-76887D02*
X182193D01*
X179070Y-77470D02*
X179653Y-76887D01*
X182193D02*
X188722Y-70358D01*
Y-1240D01*
X145417Y-106329D02*
X146275Y-107188D01*
X153162D01*
X141578Y-106329D02*
X145417D01*
X141173Y-106734D02*
X141578Y-106329D01*
X138997Y-113830D02*
X152267D01*
X137458Y-112292D02*
X138997Y-113830D01*
X136633Y-112292D02*
X137458D01*
X152267Y-113830D02*
X170339Y-95758D01*
X-58081Y-202714D02*
Y-155847D01*
Y-202714D02*
X-55880Y-204915D01*
X-57822Y-281773D02*
X-57654Y-281940D01*
X-53340D02*
X-48260Y-276860D01*
X-57654Y-281940D02*
X-53340D01*
X-55880Y-205740D02*
Y-204915D01*
X71120Y384810D02*
X86360Y369570D01*
Y325882D02*
Y369570D01*
X50800Y432896D02*
X55880Y427816D01*
Y333502D02*
Y427816D01*
X214630Y-440690D02*
Y-417830D01*
X-48823Y-224034D02*
Y-168347D01*
X-49530Y-167640D02*
X-48823Y-168347D01*
Y-224034D02*
X-48260Y-224597D01*
Y-276860D02*
Y-224597D01*
X-43235Y-221720D02*
X-43180Y-221774D01*
Y-299720D02*
Y-221774D01*
X-66040Y-323850D02*
Y-300990D01*
X-64770Y-299720D02*
X-63500D01*
X-66040Y-300990D02*
X-64770Y-299720D01*
X-78740Y-336550D02*
X-66040Y-323850D01*
X-78740Y-511831D02*
Y-336550D01*
X-89139Y-522230D02*
X-78740Y-511831D01*
X121920Y-163068D02*
X136935D01*
X100330Y-147320D02*
X100344Y-147334D01*
X104154D02*
X119888Y-163068D01*
X121920D01*
X100344Y-147334D02*
X104154D01*
X136935Y-163068D02*
X138129Y-161873D01*
X140387D02*
X140970Y-161290D01*
X138129Y-161873D02*
X140387D01*
X128270Y-331470D02*
X214630Y-417830D01*
X91440Y-331470D02*
X128270D01*
X131009Y319619D02*
X316230Y134398D01*
Y54610D02*
Y134398D01*
X127175Y319619D02*
X131009D01*
X302200Y6096D02*
X340614Y44510D01*
X213300Y6096D02*
X302200D01*
X200914Y-6290D02*
X213300Y6096D01*
X123901Y322892D02*
Y324409D01*
Y322892D02*
X127175Y319619D01*
X129489Y325207D02*
X130072Y324624D01*
X131751D02*
X320294Y136081D01*
X130072Y324624D02*
X131751D01*
X320294Y52927D02*
Y136081D01*
X324358Y51243D02*
Y138487D01*
X141027Y321818D02*
X324358Y138487D01*
X140782Y321818D02*
X141027D01*
X135077Y327523D02*
X140782Y321818D01*
X135077Y327523D02*
Y327768D01*
X114865Y347980D02*
X135077Y327768D01*
X139192Y329155D02*
Y333248D01*
X142465Y325882D02*
X145429D01*
X139192Y329155D02*
X142465Y325882D01*
X328422Y49560D02*
Y142889D01*
X145429Y325882D02*
X328422Y142889D01*
X332486Y47877D02*
Y144572D01*
X145589Y331470D02*
X332486Y144572D01*
X336550Y46193D02*
Y148396D01*
X162814Y322132D02*
Y322147D01*
X127329Y357632D02*
X162814Y322147D01*
Y322132D02*
X336550Y148396D01*
X166878Y323815D02*
X340614Y150079D01*
Y44510D02*
Y150079D01*
X166878Y323815D02*
Y324612D01*
X128270Y363220D02*
X166878Y324612D01*
X344678Y42826D02*
Y151763D01*
X171450Y324991D02*
X344678Y151763D01*
X171450Y324991D02*
Y328930D01*
X129239Y378733D02*
Y379551D01*
X175514Y326674D02*
Y332459D01*
X129239Y378733D02*
X175514Y332459D01*
Y326674D02*
X348742Y153446D01*
Y41143D02*
Y153446D01*
X133303Y380417D02*
Y381235D01*
X352806Y39460D02*
Y155129D01*
X179578Y328357D02*
Y334142D01*
X133303Y380417D02*
X179578Y334142D01*
Y328357D02*
X352806Y155129D01*
X183642Y330041D02*
X356870Y156813D01*
X183642Y330041D02*
Y336643D01*
X356870Y37776D02*
Y156813D01*
X187706Y331724D02*
X360934Y158496D01*
X187706Y331724D02*
Y338327D01*
X-24130Y-502920D02*
X-7620Y-486410D01*
Y-389267D01*
X-210820Y-481330D02*
Y-427990D01*
X-152400Y-364935D02*
Y-309880D01*
X-151130Y-367030D02*
Y-366205D01*
X-152400Y-364935D02*
X-151130Y-366205D01*
X-152400Y-309880D02*
X-143510Y-300990D01*
Y-250190D01*
X-138938Y-356362D02*
Y-335505D01*
X-137160Y-333727D02*
Y-302260D01*
X-138938Y-335505D02*
X-137160Y-333727D01*
X-138938Y-356362D02*
X-119380Y-375920D01*
X-144780Y-475600D02*
Y-327660D01*
Y-475600D02*
X-128960Y-491420D01*
X-85090Y-287020D02*
X-68580Y-270510D01*
X-332740Y-375920D02*
Y-199390D01*
X-326390Y-367030D02*
Y-207010D01*
X-314960Y-355600D02*
Y-215900D01*
X-218440Y-472440D02*
Y-344170D01*
X-198120Y-466090D02*
Y-430530D01*
X-210820Y-427990D02*
X-200660Y-417830D01*
X-182880Y-382757D02*
Y-346710D01*
X-288290Y244443D02*
Y361950D01*
X-415036Y117697D02*
X-288290Y244443D01*
X-12700Y340360D02*
Y393700D01*
X0Y355329D02*
Y392921D01*
X6350Y347980D02*
Y388446D01*
X-281940Y245045D02*
Y340360D01*
X-410972Y116013D02*
X-281940Y245045D01*
X-425450Y-248920D02*
Y119380D01*
X-415036Y-26924D02*
Y117697D01*
X-419100Y-220980D02*
Y119380D01*
X-294640Y243840D01*
X-425450Y119380D02*
X-300990Y243840D01*
X-294640D02*
Y355600D01*
X-396240Y-337820D02*
Y-45720D01*
X-300990Y243840D02*
Y347980D01*
X-415036Y-26924D02*
X-396240Y-45720D01*
X-410972Y-23368D02*
Y116013D01*
Y-23368D02*
X-389890Y-44450D01*
Y-318770D02*
Y-44450D01*
X-25400Y364045D02*
X-24130Y362775D01*
Y361950D02*
Y362775D01*
X-25400Y364045D02*
Y393700D01*
X13970Y378797D02*
X14478Y379305D01*
Y430467D01*
X12700Y432245D02*
Y433070D01*
X6350Y388446D02*
X8890Y390986D01*
X12700Y432245D02*
X14478Y430467D01*
X8890Y390986D02*
Y391160D01*
X25400Y355600D02*
Y394462D01*
X13970Y363220D02*
Y378797D01*
X-24638Y-319278D02*
X-24591D01*
X-31750Y-326390D02*
X-24638Y-319278D01*
X-31750Y-369570D02*
Y-326390D01*
X-38100Y-363220D02*
Y-313690D01*
X-44450Y-355600D02*
Y-308610D01*
X64770Y348805D02*
Y430975D01*
X63500Y346710D02*
Y347535D01*
X64770Y348805D01*
X109220Y339090D02*
X123901Y324409D01*
X116840Y355600D02*
X139192Y333248D01*
X144780Y331470D02*
X145589D01*
X114300Y347980D02*
X114865D01*
X122711Y357632D02*
X127329D01*
X32440Y365252D02*
Y426030D01*
X25400Y433070D02*
X32440Y426030D01*
X63500Y432245D02*
Y433070D01*
Y432245D02*
X64770Y430975D01*
X50800Y432896D02*
Y433070D01*
X108595Y359410D02*
X112747D01*
X107273Y358088D02*
X108595Y359410D01*
X106448Y358088D02*
X107273D01*
X112747Y359410D02*
X114525Y361188D01*
X119155D01*
X122711Y357632D01*
X125885Y374495D02*
X171450Y328930D01*
X118298Y396240D02*
X133303Y381235D01*
X119380Y403860D02*
X125665D01*
X118901Y389890D02*
X129239Y379551D01*
X125575Y374495D02*
X125885D01*
X146050Y379983D02*
Y383475D01*
X138891Y381907D02*
X141986Y378812D01*
X77470Y389890D02*
X118901D01*
X138891Y381907D02*
Y382731D01*
X141986Y378299D02*
Y378812D01*
X125665Y403860D02*
X146050Y383475D01*
X141986Y378299D02*
X183642Y336643D01*
X111760Y396240D02*
X118298D01*
X146050Y379983D02*
X187706Y338327D01*
X215265Y-26100D02*
X227141Y-14224D01*
X210820Y-27940D02*
X211645D01*
X213485Y-26100D01*
X215265D01*
X308934Y-10160D02*
X356870Y37776D01*
X213070Y-20512D02*
X214483Y-19099D01*
X216518D01*
X225457Y-10160D02*
X308934D01*
X212245Y-20512D02*
X213070D01*
X216518Y-19099D02*
X225457Y-10160D01*
X223774Y-6096D02*
X307250D01*
X216848Y-13022D02*
X223774Y-6096D01*
X307250D02*
X352806Y39460D01*
X213498Y-13511D02*
X213988Y-13022D01*
X216848D01*
X71120Y384810D02*
Y427990D01*
X76200Y433070D01*
X305567Y-2032D02*
X348742Y41143D01*
X221488Y-2032D02*
X305567D01*
X217593Y-5928D02*
X221488Y-2032D01*
X214752Y-6511D02*
X215335Y-5928D01*
X217593D01*
X303883Y2032D02*
X344678Y42826D01*
X216725Y508D02*
X218249Y2032D01*
X215900Y508D02*
X216725D01*
X218249Y2032D02*
X303883D01*
X38100Y407670D02*
Y433070D01*
Y339090D02*
Y407670D01*
X-186690Y-434340D02*
Y-433515D01*
X-185166Y-431991D01*
Y-385043D01*
X-182880Y-382757D01*
X-198120Y-430530D02*
X-194310Y-426720D01*
Y-397510D01*
X-198120Y-393700D02*
X-194310Y-397510D01*
X-186690Y-449580D02*
X-176530Y-439420D01*
Y-388620D01*
X-30480Y-494030D02*
Y-478790D01*
X-24130Y-472440D01*
Y-461010D01*
X-30480Y-454660D02*
Y-417830D01*
Y-454660D02*
X-24130Y-461010D01*
X-124460Y-300990D02*
X-85090Y-261620D01*
Y-255270D01*
X-124460Y-330200D02*
Y-300990D01*
X-105410Y-290830D02*
X-62230Y-247650D01*
X-54610D01*
X-105410Y-306070D02*
Y-290830D01*
X-95250Y-287020D02*
X-67310Y-259080D01*
X-54610D01*
X-95250Y-295910D02*
Y-287020D01*
X-68580Y-270510D02*
X-55880D01*
X170339Y-95758D02*
X181449D01*
X153162Y-107188D02*
X168656Y-91694D01*
X179766D01*
X196850Y-74610D01*
X148590Y-101600D02*
X162560Y-87630D01*
X229362Y-112522D02*
X232664Y-109220D01*
X211045Y-112522D02*
X229362D01*
X156972Y-210058D02*
Y-166595D01*
X211045Y-112522D01*
X132080Y-234950D02*
X156972Y-210058D01*
X132080Y-242570D02*
X136457Y-246947D01*
X132080Y-242570D02*
Y-234950D01*
X136457Y-246947D02*
X139729D01*
X140701Y-247919D01*
X229355Y-150697D02*
X231418D01*
X232001Y-151281D01*
X229254Y-150596D02*
X229355Y-150697D01*
X313690Y-101600D02*
X314104Y-101186D01*
X246380Y-182880D02*
X313690Y-115570D01*
Y-101600D01*
X216725Y-182880D02*
X246380D01*
X214839Y-180994D02*
X216725Y-182880D01*
X214014Y-180994D02*
X214839D01*
X196850Y-4607D02*
X211617Y10160D01*
X300517D01*
X336550Y46193D01*
X192786Y-2923D02*
X209933Y14224D01*
X298833D01*
X332486Y47877D01*
X200914Y-76293D02*
Y-6290D01*
X181449Y-95758D02*
X200914Y-76293D01*
X178083Y-87630D02*
X192786Y-72927D01*
X162560Y-87630D02*
X178083D01*
X196850Y-74610D02*
Y-4607D01*
X192786Y-72927D02*
Y-2923D01*
X297150Y18288D02*
X328422Y49560D01*
X188722Y-1240D02*
X208250Y18288D01*
X297150D01*
X184658Y-60517D02*
Y443D01*
X206567Y22352D02*
X295467D01*
X184658Y443D02*
X206567Y22352D01*
X295467D02*
X324358Y51243D01*
X204883Y26416D02*
X293783D01*
X180594Y2127D02*
X204883Y26416D01*
X293783D02*
X320294Y52927D01*
X180594Y-58833D02*
Y2127D01*
X176530Y-57150D02*
Y3810D01*
X203200Y30480D02*
X292100D01*
X176530Y3810D02*
X203200Y30480D01*
X292100D02*
X316230Y54610D01*
D20*
X-12700Y-384810D02*
Y-382270D01*
X-11430Y-381000D01*
Y-278842D01*
X149860Y-75519D02*
X152174Y-73205D01*
X156210Y-63500D02*
X160020Y-59690D01*
X156210Y-63844D02*
Y-63500D01*
X154940Y-65114D02*
X156210Y-63844D01*
X152174Y-73205D02*
Y-70191D01*
X154940Y-67425D01*
Y-65114D01*
X135421Y-98511D02*
X137286Y-96646D01*
X131648Y-102789D02*
X135421Y-99016D01*
X127452Y-108003D02*
X131648Y-103806D01*
Y-102789D01*
X135421Y-99016D02*
Y-98511D01*
X127452Y-108860D02*
Y-108003D01*
X125730Y-110582D02*
X127452Y-108860D01*
X125730Y-114300D02*
Y-110582D01*
X-11430Y-278842D02*
X-5080Y-272492D01*
X-3810Y-359268D02*
X-3668D01*
X5080Y-350520D01*
Y-314960D01*
X2540Y-312420D02*
Y-265430D01*
Y-312420D02*
X5080Y-314960D01*
X230467Y-144259D02*
X235355D01*
X235876Y-144780D01*
X236220D01*
D107*
X502520Y83820D02*
D03*
X474580Y181610D02*
D03*
D108*
X452520Y83820D02*
D03*
X424580Y181610D02*
D03*
D109*
X500000Y0D02*
D03*
D112*
X420370Y295910D02*
D03*
D113*
X444500Y248920D02*
D03*
X5080Y-314960D02*
D03*
D114*
X369347Y310103D02*
D03*
X358740Y320710D02*
D03*
X348134Y331316D02*
D03*
X379953Y299497D02*
D03*
X390560Y288890D02*
D03*
X337527Y341923D02*
D03*
X401166Y278284D02*
D03*
X411773Y267677D02*
D03*
D115*
X212396Y-34875D02*
D03*
X206516Y-38876D02*
D03*
X232574Y-19812D02*
D03*
X226234Y-23034D02*
D03*
X220519Y-28749D02*
D03*
X383181Y189270D02*
D03*
X364131D02*
D03*
X354606Y-58380D02*
D03*
X78381Y-153630D02*
D03*
X68856Y-172680D02*
D03*
Y-248880D02*
D03*
X49806Y-172680D02*
D03*
X40281Y-191730D02*
D03*
X49806Y-248880D02*
D03*
X30756Y-172680D02*
D03*
X21231Y-191730D02*
D03*
X30756Y-210780D02*
D03*
X11706Y-172680D02*
D03*
X2181Y-229830D02*
D03*
X-7344Y-172680D02*
D03*
Y-248880D02*
D03*
X-26394D02*
D03*
X-35919Y-267930D02*
D03*
X-54969Y-229830D02*
D03*
Y-344130D02*
D03*
X-93069D02*
D03*
X-102594Y-134580D02*
D03*
X-112119Y-191730D02*
D03*
X-102594Y-210780D02*
D03*
X-131169Y-115530D02*
D03*
X-121644Y-134580D02*
D03*
X-131169Y-191730D02*
D03*
X-121644Y-210780D02*
D03*
X-131169Y-229830D02*
D03*
X-121644Y-248880D02*
D03*
Y-286980D02*
D03*
X-140694Y-96480D02*
D03*
X-150219Y-115530D02*
D03*
X-140694Y-134580D02*
D03*
X-150219Y-191730D02*
D03*
X-140694Y-210780D02*
D03*
X-150219Y-229830D02*
D03*
X-169269Y-153630D02*
D03*
X-159744Y-248880D02*
D03*
X-169269Y-306030D02*
D03*
X-178794Y-134580D02*
D03*
Y-248880D02*
D03*
X-188319Y-306030D02*
D03*
X-197844Y-134580D02*
D03*
X-293094Y-172680D02*
D03*
X-321669Y-77430D02*
D03*
X-359769D02*
D03*
X-350244Y-96480D02*
D03*
X-359769Y-115530D02*
D03*
X-378819Y-77430D02*
D03*
X-369294Y-96480D02*
D03*
X-378819Y-115530D02*
D03*
X-369294Y-134580D02*
D03*
X-407394Y-96480D02*
D03*
Y-134580D02*
D03*
Y-172680D02*
D03*
X-474069Y-77430D02*
D03*
X-464544Y-96480D02*
D03*
X-474069Y-115530D02*
D03*
X-464544Y-134580D02*
D03*
X-474069Y-153630D02*
D03*
X-464544Y-172680D02*
D03*
X-493119Y-77430D02*
D03*
X-483594Y-96480D02*
D03*
X-493119Y-115530D02*
D03*
X-483594Y-134580D02*
D03*
X-493119Y-153630D02*
D03*
X-483594Y-172680D02*
D03*
X-512169Y-77430D02*
D03*
X-502644Y-96480D02*
D03*
Y-134580D02*
D03*
X266700Y448310D02*
D03*
X331470Y396240D02*
D03*
X-260350Y-448310D02*
D03*
X-330200Y-396240D02*
D03*
X307390Y-209295D02*
D03*
X101600Y461010D02*
D03*
X52070Y-480060D02*
D03*
X76200Y-444500D02*
D03*
X80010Y-369570D02*
D03*
Y-431800D02*
D03*
X453390Y-173990D02*
D03*
X467360Y-220980D02*
D03*
X450850Y-189230D02*
D03*
X453839Y-275396D02*
D03*
X447723Y-285231D02*
D03*
X428109Y-313903D02*
D03*
X419100Y-309880D02*
D03*
X421160Y-323167D02*
D03*
X408940Y-320040D02*
D03*
X388620Y-340360D02*
D03*
X378460Y-350520D02*
D03*
X327660Y-401320D02*
D03*
X294930Y-441394D02*
D03*
X285231Y-447723D02*
D03*
X213802Y-485902D02*
D03*
X0Y-381647D02*
D03*
X62230Y-410464D02*
D03*
X-12700Y-384810D02*
D03*
X186690Y-300990D02*
D03*
X181610Y-295910D02*
D03*
X275590Y-237490D02*
D03*
X278782Y-231336D02*
D03*
X339090Y-168910D02*
D03*
X394970Y-115570D02*
D03*
X389890Y171450D02*
D03*
X391160Y161290D02*
D03*
X379730Y166370D02*
D03*
X374650Y175260D02*
D03*
X364490D02*
D03*
X355600Y179070D02*
D03*
X346710Y184150D02*
D03*
X344422Y7368D02*
D03*
X338707Y1653D02*
D03*
X511810Y-83820D02*
D03*
X491490Y-68580D02*
D03*
X487680Y-160020D02*
D03*
X452120Y-127000D02*
D03*
X468359Y-210820D02*
D03*
X-307340Y385318D02*
D03*
X-63500Y379730D02*
D03*
X-314960Y379222D02*
D03*
X-321310Y391160D02*
D03*
X-443738Y-212090D02*
D03*
X-251460D02*
D03*
X-50800Y373380D02*
D03*
X-327660D02*
D03*
X-50800Y393700D02*
D03*
X-63500D02*
D03*
X-76200D02*
D03*
X-88900D02*
D03*
X101600Y438150D02*
D03*
Y445770D02*
D03*
Y453390D02*
D03*
X57793Y527705D02*
D03*
X160020Y-59690D02*
D03*
X156210Y-63500D02*
D03*
X166370Y13970D02*
D03*
Y21590D02*
D03*
X160822Y-78925D02*
D03*
X167737Y-77263D02*
D03*
X173325Y-81662D02*
D03*
X179070Y-77470D02*
D03*
X141173Y-106734D02*
D03*
X136633Y-112292D02*
D03*
X116840Y-125730D02*
D03*
X-58081Y-155847D02*
D03*
X155313Y-143410D02*
D03*
X-57822Y-281773D02*
D03*
X268609Y-142528D02*
D03*
X341688Y-59290D02*
D03*
X-55880Y-205740D02*
D03*
X127868Y-185092D02*
D03*
X447723Y285231D02*
D03*
X86360Y325882D02*
D03*
X55880Y333502D02*
D03*
X163830Y-125730D02*
D03*
Y-116840D02*
D03*
X297180Y-431800D02*
D03*
X429260Y-299720D02*
D03*
X398780Y-330200D02*
D03*
X368300Y-360680D02*
D03*
X358140Y-370840D02*
D03*
X347980Y-381000D02*
D03*
X337820Y-391160D02*
D03*
X317500Y-411480D02*
D03*
X307340Y-421640D02*
D03*
X-254385Y-159509D02*
D03*
X-243840Y-152400D02*
D03*
X-234950Y-146050D02*
D03*
X-226060Y-139700D02*
D03*
X-148590Y-93980D02*
D03*
X-157480Y-99060D02*
D03*
X-165100Y-104140D02*
D03*
X-187960Y-118110D02*
D03*
X-196850Y-124460D02*
D03*
X-207010Y-129540D02*
D03*
X-217170Y-133350D02*
D03*
X-301836Y-95169D02*
D03*
X-304602Y-85907D02*
D03*
X-307083Y-76564D02*
D03*
X-309278Y-67151D02*
D03*
X-311184Y-57675D02*
D03*
X-312801Y-48145D02*
D03*
X-314125Y-38570D02*
D03*
X-315156Y-28959D02*
D03*
X-315894Y-19321D02*
D03*
X-316336Y-9665D02*
D03*
X304974Y84577D02*
D03*
X302248Y93851D02*
D03*
X299242Y103037D02*
D03*
X295955Y112127D02*
D03*
X292393Y121113D02*
D03*
X288558Y129986D02*
D03*
X284454Y138737D02*
D03*
X280084Y147360D02*
D03*
X275454Y155844D02*
D03*
X270566Y164183D02*
D03*
X265426Y172369D02*
D03*
X260038Y180395D02*
D03*
X254408Y188252D02*
D03*
X186025Y256041D02*
D03*
X178119Y261602D02*
D03*
X170047Y266920D02*
D03*
X161816Y271988D02*
D03*
X153434Y276803D02*
D03*
X144910Y281360D02*
D03*
X136250Y285654D02*
D03*
X127463Y289681D02*
D03*
X118557Y293439D02*
D03*
X109541Y296922D02*
D03*
X-61743Y310403D02*
D03*
X-71193Y308372D02*
D03*
X-80577Y306055D02*
D03*
X-89886Y303451D02*
D03*
X-99111Y300565D02*
D03*
X-108244Y297398D02*
D03*
X-117275Y293953D02*
D03*
X-126198Y290235D02*
D03*
X-135002Y286246D02*
D03*
X-143681Y281989D02*
D03*
X-152225Y277470D02*
D03*
X-160628Y272692D02*
D03*
X-168881Y267659D02*
D03*
X-176976Y262377D02*
D03*
X-184906Y256850D02*
D03*
X-192663Y251084D02*
D03*
X-200241Y245083D02*
D03*
X-207632Y238853D02*
D03*
X-214830Y232401D02*
D03*
X-221827Y225732D02*
D03*
X-228617Y218853D02*
D03*
X-235194Y211769D02*
D03*
X-241551Y204488D02*
D03*
X-247683Y197016D02*
D03*
X-253584Y189360D02*
D03*
X-259249Y181528D02*
D03*
X-264671Y173526D02*
D03*
X-269847Y165362D02*
D03*
X-274771Y157045D02*
D03*
X-279439Y148580D02*
D03*
X-283846Y139977D02*
D03*
X-287988Y131244D02*
D03*
X-291862Y122388D02*
D03*
X-295463Y113418D02*
D03*
X-298789Y104342D02*
D03*
X-301836Y95169D02*
D03*
X-304602Y85907D02*
D03*
X-307083Y76564D02*
D03*
X-309278Y67151D02*
D03*
X-311184Y57675D02*
D03*
X-312801Y48145D02*
D03*
X-314125Y38570D02*
D03*
X-315156Y28959D02*
D03*
X-315894Y19321D02*
D03*
X-316336Y9665D02*
D03*
X-316484Y0D02*
D03*
X235571Y-466565D02*
D03*
X-530733Y11581D02*
D03*
X-530355Y23156D02*
D03*
X-529723Y34720D02*
D03*
X-528840Y46267D02*
D03*
X-527705Y57793D02*
D03*
X-526318Y69291D02*
D03*
X-524681Y80756D02*
D03*
X-522795Y92183D02*
D03*
X-520659Y103566D02*
D03*
X-518276Y114899D02*
D03*
X-515647Y126178D02*
D03*
X-512771Y137397D02*
D03*
X-509652Y148550D02*
D03*
X-506290Y159633D02*
D03*
X-502687Y170639D02*
D03*
X-498845Y181565D02*
D03*
X-494766Y192404D02*
D03*
X-490451Y203151D02*
D03*
X-485902Y213802D02*
D03*
X-481122Y224351D02*
D03*
X-476114Y234793D02*
D03*
X-470878Y245124D02*
D03*
X-465419Y255338D02*
D03*
X-459738Y265430D02*
D03*
X-453838Y275396D02*
D03*
X-414009Y332278D02*
D03*
X-406662Y341230D02*
D03*
X-399122Y350020D02*
D03*
X-391391Y358644D02*
D03*
X-383474Y367096D02*
D03*
X-375374Y375375D02*
D03*
X-367096Y383474D02*
D03*
X-358644Y391391D02*
D03*
X-350020Y399122D02*
D03*
X-341230Y406662D02*
D03*
X-332278Y414009D02*
D03*
X-323167Y421160D02*
D03*
X-313902Y428109D02*
D03*
X-304489Y434855D02*
D03*
X-294930Y441394D02*
D03*
X-285231Y447723D02*
D03*
X-275396Y453838D02*
D03*
X-265430Y459738D02*
D03*
X-255338Y465419D02*
D03*
X-245124Y470878D02*
D03*
X-234793Y476114D02*
D03*
X-224351Y481122D02*
D03*
X-213802Y485902D02*
D03*
X-203151Y490451D02*
D03*
X-192404Y494766D02*
D03*
X-181565Y498845D02*
D03*
X-170639Y502687D02*
D03*
X-159633Y506290D02*
D03*
X-148550Y509652D02*
D03*
X-137397Y512771D02*
D03*
X-126178Y515647D02*
D03*
X-114899Y518276D02*
D03*
X-103566Y520659D02*
D03*
X-92183Y522795D02*
D03*
X-80756Y524681D02*
D03*
X-34720Y529723D02*
D03*
X-23156Y530355D02*
D03*
X-11581Y530733D02*
D03*
X0Y530860D02*
D03*
X11581Y530733D02*
D03*
X23156Y530355D02*
D03*
X34720Y529723D02*
D03*
X46268Y528840D02*
D03*
X69291Y526318D02*
D03*
X80756Y524681D02*
D03*
X148550Y509652D02*
D03*
X159633Y506290D02*
D03*
X170639Y502687D02*
D03*
X181565Y498845D02*
D03*
X192404Y494766D02*
D03*
X203151Y490451D02*
D03*
X213802Y485902D02*
D03*
X224351Y481122D02*
D03*
X234793Y476114D02*
D03*
X245124Y470878D02*
D03*
X255338Y465419D02*
D03*
X265430Y459738D02*
D03*
X275396Y453838D02*
D03*
X332278Y414009D02*
D03*
X341230Y406662D02*
D03*
X350020Y399122D02*
D03*
X358644Y391391D02*
D03*
X367097Y383474D02*
D03*
X375375Y375375D02*
D03*
X383474Y367096D02*
D03*
X391391Y358644D02*
D03*
X399122Y350020D02*
D03*
X406662Y341230D02*
D03*
X414010Y332278D02*
D03*
X434855Y304489D02*
D03*
X441394Y294930D02*
D03*
X453839Y275396D02*
D03*
X459738Y265430D02*
D03*
X441394Y-294930D02*
D03*
X434855Y-304489D02*
D03*
X414010Y-332278D02*
D03*
X406662Y-341230D02*
D03*
X399122Y-350020D02*
D03*
X391391Y-358644D02*
D03*
X383474Y-367097D02*
D03*
X375375Y-375375D02*
D03*
X367097Y-383474D02*
D03*
X358644Y-391391D02*
D03*
X350020Y-399122D02*
D03*
X341230Y-406662D02*
D03*
X332278Y-414010D02*
D03*
X323167Y-421160D02*
D03*
X313903Y-428109D02*
D03*
X304489Y-434855D02*
D03*
X275396Y-453839D02*
D03*
X11581Y-530734D02*
D03*
X0Y-530860D02*
D03*
X-11581Y-530734D02*
D03*
X-148550Y-509652D02*
D03*
X-159633Y-506290D02*
D03*
X-170639Y-502687D02*
D03*
X-203151Y-490451D02*
D03*
X-224351Y-481123D02*
D03*
X-234793Y-476114D02*
D03*
X-245124Y-470879D02*
D03*
X-255338Y-465419D02*
D03*
X-265430Y-459738D02*
D03*
X-275396Y-453839D02*
D03*
X-332278Y-414010D02*
D03*
X-341230Y-406662D02*
D03*
X-350020Y-399122D02*
D03*
X-358644Y-391391D02*
D03*
X-367097Y-383474D02*
D03*
X-375375Y-375375D02*
D03*
X-383474Y-367097D02*
D03*
X-391391Y-358644D02*
D03*
X-399122Y-350020D02*
D03*
X-406662Y-341230D02*
D03*
X-414010Y-332278D02*
D03*
X-421160Y-323167D02*
D03*
X-428109Y-313903D02*
D03*
X-434855Y-304489D02*
D03*
X-441394Y-294930D02*
D03*
X-447723Y-285231D02*
D03*
X-453839Y-275396D02*
D03*
X-459738Y-265430D02*
D03*
X-465419Y-255338D02*
D03*
X-470879Y-245124D02*
D03*
X-476114Y-234793D02*
D03*
X-481123Y-224351D02*
D03*
X-485902Y-213802D02*
D03*
X-490451Y-203151D02*
D03*
X-498845Y-181565D02*
D03*
X-502687Y-170639D02*
D03*
X-506290Y-159633D02*
D03*
X-509652Y-148550D02*
D03*
X-512771Y-137397D02*
D03*
X-515647Y-126178D02*
D03*
X-518276Y-114899D02*
D03*
X-520660Y-103566D02*
D03*
X-522795Y-92183D02*
D03*
X-524682Y-80756D02*
D03*
X-526318Y-69291D02*
D03*
X-527705Y-57793D02*
D03*
X-528840Y-46267D02*
D03*
X-529723Y-34720D02*
D03*
X-530355Y-23156D02*
D03*
X-530734Y-11581D02*
D03*
X-530860Y0D02*
D03*
X243840Y-445770D02*
D03*
X238760Y-439420D02*
D03*
X106680Y-430530D02*
D03*
X176530Y-427482D02*
D03*
X214630Y-440690D02*
D03*
X398780Y-271780D02*
D03*
X368300Y-308610D02*
D03*
X175260Y-482600D02*
D03*
X-347980Y-133350D02*
D03*
X-340360D02*
D03*
X-309880Y-119380D02*
D03*
X-308610Y-147320D02*
D03*
X-363220Y-148590D02*
D03*
X-368300Y-217170D02*
D03*
X-342900Y-193040D02*
D03*
X-251460Y-334010D02*
D03*
X-226060Y-309880D02*
D03*
X-64770Y-191770D02*
D03*
X-30480Y-173990D02*
D03*
X-38100D02*
D03*
X-26670Y-271780D02*
D03*
X-17780D02*
D03*
X-20955Y-356220D02*
D03*
X2540Y-265430D02*
D03*
X-3810Y-359268D02*
D03*
X-5080Y-272492D02*
D03*
X80010Y-514350D02*
D03*
X121239Y-493344D02*
D03*
X68580Y-439420D02*
D03*
X53340Y-431800D02*
D03*
Y-369570D02*
D03*
X53519Y-342686D02*
D03*
X109220Y-374650D02*
D03*
X90170Y-210820D02*
D03*
X85090Y-250190D02*
D03*
X-24678Y-287020D02*
D03*
X52070Y-256540D02*
D03*
X-265430Y-177800D02*
D03*
X-257810Y-177800D02*
D03*
X-55880Y-212090D02*
D03*
X-49530Y-167640D02*
D03*
X-43235Y-221720D02*
D03*
X-273050Y-198120D02*
D03*
X-276860Y-255270D02*
D03*
X-54610Y-318770D02*
D03*
X-63500Y-299720D02*
D03*
X-89139Y-522230D02*
D03*
X-346710Y-266700D02*
D03*
X195439Y-409398D02*
D03*
X-342900Y-242909D02*
D03*
X-355600Y-240030D02*
D03*
X-369570Y-234950D02*
D03*
X-309372Y-300990D02*
D03*
X-320802Y-295910D02*
D03*
X-339090Y-288290D02*
D03*
X-24130Y-502920D02*
D03*
X-12700Y-507238D02*
D03*
X0Y-505126D02*
D03*
X93980Y-514350D02*
D03*
X66040D02*
D03*
X-97790Y-434848D02*
D03*
Y-441960D02*
D03*
Y-449580D02*
D03*
X-88900Y-472440D02*
D03*
X-210820Y-481330D02*
D03*
X0Y-444120D02*
D03*
X-151130Y-367030D02*
D03*
X-133350Y-337820D02*
D03*
X-144780Y-327660D02*
D03*
X-137160Y-302260D02*
D03*
X-143510Y-250190D02*
D03*
X-297180Y-234950D02*
D03*
X-119380Y-375920D02*
D03*
X-109220Y-313690D02*
D03*
X-85090Y-287020D02*
D03*
X-252730Y-281940D02*
D03*
X-332740Y-375920D02*
D03*
X-326390Y-367030D02*
D03*
X-332740Y-199390D02*
D03*
X-314960Y-355600D02*
D03*
X-326390Y-207010D02*
D03*
X-314960Y-215900D02*
D03*
X-195580Y-345440D02*
D03*
X-212090Y-355600D02*
D03*
Y-367030D02*
D03*
Y-378460D02*
D03*
X-116840Y-468630D02*
D03*
X-198120Y-466090D02*
D03*
X-218440Y-472440D02*
D03*
Y-344170D02*
D03*
X-182880Y-346710D02*
D03*
X-174244Y-355600D02*
D03*
X-298450Y-344170D02*
D03*
X-265430Y-327660D02*
D03*
X-128960Y-491420D02*
D03*
X0Y355329D02*
D03*
X-12700Y340360D02*
D03*
X6350Y347980D02*
D03*
X-281940Y340360D02*
D03*
X-389890Y-318770D02*
D03*
X-24130Y361950D02*
D03*
X-288290D02*
D03*
X-396240Y-337820D02*
D03*
X-73660Y-318770D02*
D03*
X-12700Y393700D02*
D03*
X8890Y391160D02*
D03*
X25400Y355600D02*
D03*
X-294640D02*
D03*
X-419100Y-220980D02*
D03*
X0Y392921D02*
D03*
X-25400Y393700D02*
D03*
X-300990Y347980D02*
D03*
X-425450Y-248920D02*
D03*
X-38100Y393700D02*
D03*
X-432054Y-170180D02*
D03*
X-437896Y-187960D02*
D03*
X-449580Y-228600D02*
D03*
X-173990Y-187960D02*
D03*
X-215900Y-140970D02*
D03*
Y-228600D02*
D03*
X-74930Y-160020D02*
D03*
X-97790Y-170180D02*
D03*
X-102870Y-143510D02*
D03*
X-127000Y-149860D02*
D03*
X-174574Y-224104D02*
D03*
X-194198Y-248497D02*
D03*
X-156210Y-209550D02*
D03*
X-181610Y-234950D02*
D03*
X-113030Y-232410D02*
D03*
X-153670Y-273050D02*
D03*
X-24591Y-319278D02*
D03*
X-31750Y-369570D02*
D03*
X-173990Y-372110D02*
D03*
X-38100Y-313690D02*
D03*
Y-363220D02*
D03*
X-44450Y-308610D02*
D03*
Y-355600D02*
D03*
X-173990Y-363220D02*
D03*
X13970Y363220D02*
D03*
X63500Y346710D02*
D03*
X129489Y325207D02*
D03*
X144780Y331470D02*
D03*
X32440Y365252D02*
D03*
X106448Y358088D02*
D03*
X128270Y363220D02*
D03*
X121519Y368653D02*
D03*
X125575Y374495D02*
D03*
X138891Y382731D02*
D03*
X25400Y394462D02*
D03*
X179070Y-467360D02*
D03*
X119380Y403860D02*
D03*
X43688Y379730D02*
D03*
X45720Y393700D02*
D03*
X111760Y396240D02*
D03*
X77470Y389890D02*
D03*
X120650Y380238D02*
D03*
X70612Y375920D02*
D03*
X210820Y-27940D02*
D03*
X212245Y-20512D02*
D03*
X213498Y-13511D02*
D03*
X214752Y-6511D02*
D03*
X215900Y508D02*
D03*
X116840Y355600D02*
D03*
X114300Y347980D02*
D03*
X38100Y339090D02*
D03*
X109220D02*
D03*
X76200Y433070D02*
D03*
X63500D02*
D03*
X50800D02*
D03*
X38100D02*
D03*
X25400D02*
D03*
X12700D02*
D03*
X-110490Y-468630D02*
D03*
Y-414020D02*
D03*
X-118110D02*
D03*
X-198120Y-393700D02*
D03*
X91440Y-331470D02*
D03*
X173990Y-492760D02*
D03*
X192350Y-466990D02*
D03*
X184360Y-444500D02*
D03*
X-176530Y-388620D02*
D03*
X-17780Y-449580D02*
D03*
X-30480Y-494030D02*
D03*
Y-466090D02*
D03*
X-44450Y-449580D02*
D03*
Y-434340D02*
D03*
X-30480Y-417830D02*
D03*
X-200660D02*
D03*
X-186690Y-434340D02*
D03*
Y-449580D02*
D03*
X-130810Y-434086D02*
D03*
Y-441198D02*
D03*
Y-448310D02*
D03*
X152400Y-414274D02*
D03*
X130810Y-397510D02*
D03*
X128270Y-386640D02*
D03*
X146050Y-449580D02*
D03*
X152400Y-458470D02*
D03*
Y-491490D02*
D03*
X120650Y-462280D02*
D03*
X121920Y-375920D02*
D03*
X21590Y-467360D02*
D03*
X109220Y-476250D02*
D03*
X107950Y-406400D02*
D03*
X175260Y-441960D02*
D03*
X121920Y-406400D02*
D03*
X167640Y-407670D02*
D03*
X178140Y-398780D02*
D03*
X105410Y-344170D02*
D03*
X-43180Y-299720D02*
D03*
X-85090Y-255270D02*
D03*
X-111760Y-278130D02*
D03*
X-87630Y-294640D02*
D03*
X-124460Y-330200D02*
D03*
X-97891Y-302513D02*
D03*
X-54610Y-247650D02*
D03*
X-105410Y-306070D02*
D03*
X-95250Y-295910D02*
D03*
X-55880Y-270510D02*
D03*
X-54610Y-288290D02*
D03*
Y-259080D02*
D03*
X436880Y-231140D02*
D03*
X328930Y-347980D02*
D03*
X292100Y-370840D02*
D03*
X252730Y-410210D02*
D03*
X87630Y-154940D02*
D03*
X93980D02*
D03*
X100330Y-147320D02*
D03*
X134620Y-157480D02*
D03*
X140970Y-161290D02*
D03*
X134383Y-142477D02*
D03*
X138430Y-138430D02*
D03*
X140803Y-123708D02*
D03*
X148590Y-101600D02*
D03*
X165100Y-135890D02*
D03*
X187960Y-184150D02*
D03*
Y-189230D02*
D03*
X273050Y-223520D02*
D03*
X336550Y-121920D02*
D03*
X314104Y-101186D02*
D03*
X337820Y-55880D02*
D03*
X195703Y-185725D02*
D03*
X205740Y-184150D02*
D03*
X204470Y-179070D02*
D03*
X214014Y-180994D02*
D03*
X220353Y-175847D02*
D03*
X224452Y-164168D02*
D03*
X225676Y-159232D02*
D03*
X232001Y-151281D02*
D03*
X236220Y-144780D02*
D03*
X230467Y-144259D02*
D03*
X247650Y-123190D02*
D03*
X238760Y-134620D02*
D03*
X233680D02*
D03*
X232664Y-109220D02*
D03*
X233680Y-118110D02*
D03*
X238760D02*
D03*
X273050Y-147320D02*
D03*
D116*
X240030Y-269240D02*
D03*
X245110Y-274320D02*
D03*
X171167Y-217453D02*
D03*
X169778Y-228994D02*
D03*
X176305Y-222590D02*
D03*
X162560Y-226060D02*
D03*
X160020Y-218440D02*
D03*
X295910Y-87630D02*
D03*
X289560Y-93980D02*
D03*
X283210Y-100330D02*
D03*
X276860Y-106680D02*
D03*
X106680Y-280670D02*
D03*
X113030Y-274320D02*
D03*
X119380Y-267970D02*
D03*
X125730Y-261620D02*
D03*
X280670Y-114300D02*
D03*
X287020Y-107950D02*
D03*
X293370Y-101600D02*
D03*
X299720Y-95250D02*
D03*
X232410Y-227076D02*
D03*
X224790Y-233680D02*
D03*
X218440Y-227330D02*
D03*
X140701Y-247919D02*
D03*
X267970Y-118110D02*
D03*
X260350Y-111760D02*
D03*
Y-119380D02*
D03*
X259080Y-127000D02*
D03*
X248920Y-139700D02*
D03*
X236220Y-162560D02*
D03*
X262890Y-134620D02*
D03*
X266700Y-125730D02*
D03*
X254000Y-133350D02*
D03*
X256540Y-140970D02*
D03*
X241300Y-157480D02*
D03*
X246380Y-152400D02*
D03*
X251460Y-147320D02*
D03*
X309880Y-78740D02*
D03*
X314960Y-73660D02*
D03*
X320040Y-68580D02*
D03*
X317500Y-81280D02*
D03*
X312420Y-86360D02*
D03*
X322580Y-76200D02*
D03*
X327660Y-71120D02*
D03*
X325120Y-63500D02*
D03*
X307340Y-71120D02*
D03*
X312420Y-66040D02*
D03*
X317500Y-60960D02*
D03*
X302260Y-76200D02*
D03*
X322580Y-55880D02*
D03*
X332740Y-66040D02*
D03*
X139700Y-238760D02*
D03*
X154940Y-223520D02*
D03*
X149860Y-228600D02*
D03*
X144780Y-233680D02*
D03*
X165100D02*
D03*
X160020Y-238760D02*
D03*
X149860Y-248920D02*
D03*
X154940Y-243840D02*
D03*
X157480Y-231140D02*
D03*
X152400Y-236220D02*
D03*
X147320Y-241300D02*
D03*
X134620Y-264160D02*
D03*
X128270Y-270510D02*
D03*
X121920Y-276860D02*
D03*
X115570Y-283210D02*
D03*
X109220Y-289560D02*
D03*
X175260Y-350520D02*
D03*
X168910Y-344170D02*
D03*
X344170Y-177800D02*
D03*
X336550D02*
D03*
D118*
X-12700Y-507238D02*
Y-506730D01*
X0Y-494030D02*
Y-444120D01*
X-12700Y-506730D02*
X0Y-494030D01*
D119*
X172720Y-202193D02*
X239767Y-269240D01*
X240030D01*
X245110Y-274320D01*
X162560Y-208845D02*
X171167Y-217453D01*
X162560Y-208845D02*
Y-185420D01*
X172720Y-202193D02*
Y-173118D01*
X162560Y-185420D02*
Y-168910D01*
X213360Y-118110D01*
X147320Y-87194D02*
Y-81280D01*
X149860Y-78740D01*
Y-75519D01*
X144344Y-90170D02*
X147320Y-87194D01*
X143762Y-90170D02*
X144344D01*
X137286Y-96646D02*
X143762Y-90170D01*
X129540Y-129540D02*
Y-124062D01*
X125730Y-120252D02*
Y-114300D01*
X129540Y-129540D02*
X138430Y-138430D01*
X125730Y-120252D02*
X129540Y-124062D01*
X238760Y-175260D02*
X268609Y-145411D01*
Y-142528D02*
X272685Y-146604D01*
Y-146955D02*
Y-146604D01*
Y-146955D02*
X273050Y-147320D01*
X268609Y-145411D02*
Y-142528D01*
X341688Y-59290D02*
X346710Y-64312D01*
Y-95250D02*
Y-64312D01*
X337820Y-55880D02*
X341230Y-59290D01*
X341688D01*
X187960Y-189230D02*
Y-184150D01*
X201580Y-144259D02*
X230467D01*
X172720Y-173118D02*
X201580Y-144259D01*
X213360Y-118110D02*
X233680D01*
X295910Y-177800D02*
X336550D01*
X187960Y-191770D02*
Y-189230D01*
X233680Y-118110D02*
X238760D01*
X265430Y-208280D02*
X295910Y-177800D01*
X336550D02*
X344170D01*
X204470Y-208280D02*
X265430D01*
X187960Y-191770D02*
X204470Y-208280D01*
X251460Y-190500D02*
X346710Y-95250D01*
X212090Y-190500D02*
X251460D01*
X205740Y-184150D02*
X212090Y-190500D01*
X205740Y-184150D02*
Y-181394D01*
X204470Y-180124D02*
Y-179070D01*
Y-180124D02*
X205740Y-181394D01*
X229870Y-175260D02*
X238760D01*
X224452Y-169842D02*
X229870Y-175260D01*
X224452Y-169842D02*
Y-164168D01*
X225676Y-162943D02*
Y-159232D01*
X224452Y-164168D02*
X225676Y-162943D01*
D121*
X134383Y-142477D02*
X138430Y-138430D01*
D123*
X171167Y-217453D02*
X176305Y-222590D01*
D127*
X393700Y-45720D02*
D03*
X-381000Y0D02*
D03*
D128*
X393700Y45720D02*
D03*
D129*
X284480Y-284480D02*
D03*
X213360Y-342900D02*
D03*
X342900Y-212090D02*
D03*
M02*
