G04*
G04 #@! TF.GenerationSoftware,Altium Limited,Altium Designer,24.1.2 (44)*
G04*
G04 Layer_Color=16711935*
%FSLAX44Y44*%
%MOMM*%
G71*
G04*
G04 #@! TF.SameCoordinates,C067CD15-9508-4875-9725-B3D5D2F0FA69*
G04*
G04*
G04 #@! TF.FilePolarity,Negative*
G04*
G01*
G75*
%ADD72R,0.6000X0.5750*%
%ADD81R,0.7500X1.0000*%
G04:AMPARAMS|DCode=90|XSize=1.1mm|YSize=1.05mm|CornerRadius=0mm|HoleSize=0mm|Usage=FLASHONLY|Rotation=135.000|XOffset=0mm|YOffset=0mm|HoleType=Round|Shape=Rectangle|*
%AMROTATEDRECTD90*
4,1,4,0.7601,-0.0177,0.0177,-0.7601,-0.7601,0.0177,-0.0177,0.7601,0.7601,-0.0177,0.0*
%
%ADD90ROTATEDRECTD90*%

%ADD91R,0.7200X0.7200*%
%ADD95P,1.0182X4X180.0*%
%ADD96R,0.7200X0.7200*%
%ADD99R,0.5750X0.6000*%
%ADD100R,1.2500X1.2500*%
G04:AMPARAMS|DCode=102|XSize=0.6mm|YSize=0.575mm|CornerRadius=0mm|HoleSize=0mm|Usage=FLASHONLY|Rotation=315.000|XOffset=0mm|YOffset=0mm|HoleType=Round|Shape=Rectangle|*
%AMROTATEDRECTD102*
4,1,4,-0.4154,0.0088,-0.0088,0.4154,0.4154,-0.0088,0.0088,-0.4154,-0.4154,0.0088,0.0*
%
%ADD102ROTATEDRECTD102*%

%ADD105C,5.1016*%
G04:AMPARAMS|DCode=106|XSize=5.1016mm|YSize=5.1016mm|CornerRadius=1.3008mm|HoleSize=0mm|Usage=FLASHONLY|Rotation=0.000|XOffset=0mm|YOffset=0mm|HoleType=Round|Shape=RoundedRectangle|*
%AMROUNDEDRECTD106*
21,1,5.1016,2.5000,0,0,0.0*
21,1,2.5000,5.1016,0,0,0.0*
1,1,2.6016,1.2500,-1.2500*
1,1,2.6016,-1.2500,-1.2500*
1,1,2.6016,-1.2500,1.2500*
1,1,2.6016,1.2500,1.2500*
%
%ADD106ROUNDEDRECTD106*%
%ADD107C,1.4000*%
%ADD108R,1.4000X1.4000*%
%ADD109C,6.5000*%
%ADD111C,5.7016*%
%ADD112C,1.5240*%
%ADD113C,1.9050*%
G04:AMPARAMS|DCode=114|XSize=1.143mm|YSize=1.524mm|CornerRadius=0.2858mm|HoleSize=0mm|Usage=FLASHONLY|Rotation=135.000|XOffset=0mm|YOffset=0mm|HoleType=Round|Shape=RoundedRectangle|*
%AMROUNDEDRECTD114*
21,1,1.1430,0.9525,0,0,135.0*
21,1,0.5715,1.5240,0,0,135.0*
1,1,0.5715,0.1347,0.5388*
1,1,0.5715,0.5388,0.1347*
1,1,0.5715,-0.1347,-0.5388*
1,1,0.5715,-0.5388,-0.1347*
%
%ADD114ROUNDEDRECTD114*%
%ADD115C,0.5080*%
%ADD116C,0.7112*%
%ADD142R,0.7000X0.6000*%
%ADD143O,1.5500X0.6000*%
G04:AMPARAMS|DCode=144|XSize=0.71mm|YSize=1.372mm|CornerRadius=0mm|HoleSize=0mm|Usage=FLASHONLY|Rotation=225.000|XOffset=0mm|YOffset=0mm|HoleType=Round|Shape=Rectangle|*
%AMROTATEDRECTD144*
4,1,4,-0.2341,0.7361,0.7361,-0.2341,0.2341,-0.7361,-0.7361,0.2341,-0.2341,0.7361,0.0*
%
%ADD144ROTATEDRECTD144*%

G04:AMPARAMS|DCode=145|XSize=4.52mm|YSize=3.85mm|CornerRadius=0mm|HoleSize=0mm|Usage=FLASHONLY|Rotation=225.000|XOffset=0mm|YOffset=0mm|HoleType=Round|Shape=Rectangle|*
%AMROTATEDRECTD145*
4,1,4,0.2369,2.9592,2.9592,0.2369,-0.2369,-2.9592,-2.9592,-0.2369,0.2369,2.9592,0.0*
%
%ADD145ROTATEDRECTD145*%

G04:AMPARAMS|DCode=146|XSize=0.6mm|YSize=1mm|CornerRadius=0mm|HoleSize=0mm|Usage=FLASHONLY|Rotation=225.000|XOffset=0mm|YOffset=0mm|HoleType=Round|Shape=Rectangle|*
%AMROTATEDRECTD146*
4,1,4,-0.1414,0.5657,0.5657,-0.1414,0.1414,-0.5657,-0.5657,0.1414,-0.1414,0.5657,0.0*
%
%ADD146ROTATEDRECTD146*%

%ADD147R,0.5500X0.5500*%
%ADD150R,3.7000X2.8000*%
G04:AMPARAMS|DCode=151|XSize=2.8mm|YSize=3.7mm|CornerRadius=0mm|HoleSize=0mm|Usage=FLASHONLY|Rotation=225.000|XOffset=0mm|YOffset=0mm|HoleType=Round|Shape=Rectangle|*
%AMROTATEDRECTD151*
4,1,4,-0.3182,2.2981,2.2981,-0.3182,0.3182,-2.2981,-2.2981,0.3182,-0.3182,2.2981,0.0*
%
%ADD151ROTATEDRECTD151*%

D72*
X-124460Y-468675D02*
D03*
Y-458425D02*
D03*
Y-413975D02*
D03*
Y-424225D02*
D03*
X-104140Y-468675D02*
D03*
Y-458425D02*
D03*
Y-415245D02*
D03*
Y-425495D02*
D03*
D81*
X167270Y-398780D02*
D03*
X152770D02*
D03*
X167270Y-383540D02*
D03*
X152770D02*
D03*
X229500Y-467360D02*
D03*
X215000D02*
D03*
X229500Y-452120D02*
D03*
X215000D02*
D03*
X167270Y-441960D02*
D03*
X152770D02*
D03*
X167270Y-426720D02*
D03*
X152770D02*
D03*
X167270Y-482600D02*
D03*
X152770D02*
D03*
X167270Y-467360D02*
D03*
X152770D02*
D03*
D90*
X122497Y-148013D02*
D03*
X111183Y-159327D02*
D03*
D91*
X465400Y-170180D02*
D03*
X474400D02*
D03*
X-194890Y-354330D02*
D03*
X-203890D02*
D03*
X-194890Y-367030D02*
D03*
X-203890D02*
D03*
X-194890Y-379730D02*
D03*
X-203890D02*
D03*
X130120Y-406400D02*
D03*
X139120D02*
D03*
X-109800Y-441960D02*
D03*
X-118800D02*
D03*
X139120Y-375920D02*
D03*
X130120D02*
D03*
X192350Y-474980D02*
D03*
X201350D02*
D03*
X130120Y-448310D02*
D03*
X139120D02*
D03*
X201350Y-444500D02*
D03*
X192350D02*
D03*
X139120Y-417830D02*
D03*
X130120D02*
D03*
Y-490220D02*
D03*
X139120D02*
D03*
Y-459740D02*
D03*
X130120D02*
D03*
D95*
X131452Y-120008D02*
D03*
X125088Y-126372D02*
D03*
D96*
X491490Y-61650D02*
D03*
Y-52650D02*
D03*
X156210Y-125040D02*
D03*
Y-134040D02*
D03*
X19050Y-483180D02*
D03*
Y-492180D02*
D03*
Y-422220D02*
D03*
Y-431220D02*
D03*
Y-359990D02*
D03*
Y-368990D02*
D03*
X7620Y-483180D02*
D03*
Y-492180D02*
D03*
Y-422220D02*
D03*
Y-431220D02*
D03*
Y-359990D02*
D03*
Y-368990D02*
D03*
X139700Y-395660D02*
D03*
Y-386660D02*
D03*
X201930Y-464240D02*
D03*
Y-455240D02*
D03*
X139700Y-437570D02*
D03*
Y-428570D02*
D03*
Y-479480D02*
D03*
Y-470480D02*
D03*
D99*
X466045Y-184150D02*
D03*
X476295D02*
D03*
X17825Y-505460D02*
D03*
X7575D02*
D03*
X17825Y-382270D02*
D03*
X7575D02*
D03*
D100*
X511810Y-72710D02*
D03*
Y-49210D02*
D03*
D102*
X106866Y-144594D02*
D03*
X114114Y-137346D02*
D03*
X122106Y-172879D02*
D03*
X129354Y-165631D02*
D03*
X-193226Y-230056D02*
D03*
X-200474Y-237304D02*
D03*
X-172906Y-211006D02*
D03*
X-180154Y-218254D02*
D03*
D105*
X393700Y-45720D02*
D03*
X-381000Y0D02*
D03*
D106*
X393700Y45720D02*
D03*
D107*
X502520Y83820D02*
D03*
X474580Y181610D02*
D03*
D108*
X452520Y83820D02*
D03*
X424580Y181610D02*
D03*
D109*
X500000Y0D02*
D03*
D111*
X284480Y-284480D02*
D03*
X213360Y-342900D02*
D03*
X342900Y-212090D02*
D03*
D112*
X420370Y295910D02*
D03*
D113*
X444500Y248920D02*
D03*
X5080Y-314960D02*
D03*
D114*
X369347Y310103D02*
D03*
X358740Y320710D02*
D03*
X348134Y331316D02*
D03*
X379953Y299497D02*
D03*
X390560Y288890D02*
D03*
X337527Y341923D02*
D03*
X401166Y278284D02*
D03*
X411773Y267677D02*
D03*
D115*
X212396Y-34875D02*
D03*
X206516Y-38876D02*
D03*
X232574Y-19812D02*
D03*
X226234Y-23034D02*
D03*
X220519Y-28749D02*
D03*
X266700Y448310D02*
D03*
X331470Y396240D02*
D03*
X-260350Y-448310D02*
D03*
X-330200Y-396240D02*
D03*
X307390Y-209295D02*
D03*
X101600Y461010D02*
D03*
X52070Y-480060D02*
D03*
X76200Y-444500D02*
D03*
X80010Y-369570D02*
D03*
Y-431800D02*
D03*
X453390Y-173990D02*
D03*
X467360Y-220980D02*
D03*
X450850Y-189230D02*
D03*
X453839Y-275396D02*
D03*
X447723Y-285231D02*
D03*
X428109Y-313903D02*
D03*
X419100Y-309880D02*
D03*
X421160Y-323167D02*
D03*
X408940Y-320040D02*
D03*
X388620Y-340360D02*
D03*
X378460Y-350520D02*
D03*
X327660Y-401320D02*
D03*
X294930Y-441394D02*
D03*
X285231Y-447723D02*
D03*
X213802Y-485902D02*
D03*
X0Y-381647D02*
D03*
X62230Y-410464D02*
D03*
X-12700Y-384810D02*
D03*
X186690Y-300990D02*
D03*
X181610Y-295910D02*
D03*
X275590Y-237490D02*
D03*
X278782Y-231336D02*
D03*
X339090Y-168910D02*
D03*
X394970Y-115570D02*
D03*
X389890Y171450D02*
D03*
X391160Y161290D02*
D03*
X379730Y166370D02*
D03*
X374650Y175260D02*
D03*
X364490D02*
D03*
X355600Y179070D02*
D03*
X346710Y184150D02*
D03*
X344422Y7368D02*
D03*
X338707Y1653D02*
D03*
X511810Y-83820D02*
D03*
X491490Y-68580D02*
D03*
X487680Y-160020D02*
D03*
X452120Y-127000D02*
D03*
X468359Y-210820D02*
D03*
X-307340Y385318D02*
D03*
X-63500Y379730D02*
D03*
X-314960Y379222D02*
D03*
X-321310Y391160D02*
D03*
X-443738Y-212090D02*
D03*
X-251460D02*
D03*
X-50800Y373380D02*
D03*
X-327660D02*
D03*
X-50800Y393700D02*
D03*
X-63500D02*
D03*
X-76200D02*
D03*
X-88900D02*
D03*
X101600Y438150D02*
D03*
Y445770D02*
D03*
Y453390D02*
D03*
X57793Y527705D02*
D03*
X160020Y-59690D02*
D03*
X156210Y-63500D02*
D03*
X166370Y13970D02*
D03*
Y21590D02*
D03*
X160822Y-78925D02*
D03*
X167737Y-77263D02*
D03*
X173325Y-81662D02*
D03*
X179070Y-77470D02*
D03*
X141173Y-106734D02*
D03*
X136633Y-112292D02*
D03*
X-58081Y-155847D02*
D03*
X-57822Y-281773D02*
D03*
X268609Y-142528D02*
D03*
X341688Y-59290D02*
D03*
X-55880Y-205740D02*
D03*
X127868Y-185092D02*
D03*
X447723Y285231D02*
D03*
X86360Y325882D02*
D03*
X55880Y333502D02*
D03*
X163830Y-125730D02*
D03*
Y-116840D02*
D03*
X297180Y-431800D02*
D03*
X429260Y-299720D02*
D03*
X398780Y-330200D02*
D03*
X368300Y-360680D02*
D03*
X358140Y-370840D02*
D03*
X347980Y-381000D02*
D03*
X337820Y-391160D02*
D03*
X317500Y-411480D02*
D03*
X307340Y-421640D02*
D03*
X-254385Y-159509D02*
D03*
X-243840Y-152400D02*
D03*
X-234950Y-146050D02*
D03*
X-226060Y-139700D02*
D03*
X-148590Y-93980D02*
D03*
X-157480Y-99060D02*
D03*
X-165100Y-104140D02*
D03*
X-187960Y-118110D02*
D03*
X-196850Y-124460D02*
D03*
X-207010Y-129540D02*
D03*
X-217170Y-133350D02*
D03*
X-301836Y-95169D02*
D03*
X-304602Y-85907D02*
D03*
X-307083Y-76564D02*
D03*
X-309278Y-67151D02*
D03*
X-311184Y-57675D02*
D03*
X-312801Y-48145D02*
D03*
X-314125Y-38570D02*
D03*
X-315156Y-28959D02*
D03*
X-315894Y-19321D02*
D03*
X-316336Y-9665D02*
D03*
X304974Y84577D02*
D03*
X302248Y93851D02*
D03*
X299242Y103037D02*
D03*
X295955Y112127D02*
D03*
X292393Y121113D02*
D03*
X288558Y129986D02*
D03*
X284454Y138737D02*
D03*
X280084Y147360D02*
D03*
X275454Y155844D02*
D03*
X270566Y164183D02*
D03*
X265426Y172369D02*
D03*
X260038Y180395D02*
D03*
X254408Y188252D02*
D03*
X186025Y256041D02*
D03*
X178119Y261602D02*
D03*
X170047Y266920D02*
D03*
X161816Y271988D02*
D03*
X153434Y276803D02*
D03*
X144910Y281360D02*
D03*
X136250Y285654D02*
D03*
X127463Y289681D02*
D03*
X118557Y293439D02*
D03*
X109541Y296922D02*
D03*
X-61743Y310403D02*
D03*
X-71193Y308372D02*
D03*
X-80577Y306055D02*
D03*
X-89886Y303451D02*
D03*
X-99111Y300565D02*
D03*
X-108244Y297398D02*
D03*
X-117275Y293953D02*
D03*
X-126198Y290235D02*
D03*
X-135002Y286246D02*
D03*
X-143681Y281989D02*
D03*
X-152225Y277470D02*
D03*
X-160628Y272692D02*
D03*
X-168881Y267659D02*
D03*
X-176976Y262377D02*
D03*
X-184906Y256850D02*
D03*
X-192663Y251084D02*
D03*
X-200241Y245083D02*
D03*
X-207632Y238853D02*
D03*
X-214830Y232401D02*
D03*
X-221827Y225732D02*
D03*
X-228617Y218853D02*
D03*
X-235194Y211769D02*
D03*
X-241551Y204488D02*
D03*
X-247683Y197016D02*
D03*
X-253584Y189360D02*
D03*
X-259249Y181528D02*
D03*
X-264671Y173526D02*
D03*
X-269847Y165362D02*
D03*
X-274771Y157045D02*
D03*
X-279439Y148580D02*
D03*
X-283846Y139977D02*
D03*
X-287988Y131244D02*
D03*
X-291862Y122388D02*
D03*
X-295463Y113418D02*
D03*
X-298789Y104342D02*
D03*
X-301836Y95169D02*
D03*
X-304602Y85907D02*
D03*
X-307083Y76564D02*
D03*
X-309278Y67151D02*
D03*
X-311184Y57675D02*
D03*
X-312801Y48145D02*
D03*
X-314125Y38570D02*
D03*
X-315156Y28959D02*
D03*
X-315894Y19321D02*
D03*
X-316336Y9665D02*
D03*
X-316484Y0D02*
D03*
X235571Y-466565D02*
D03*
X-530733Y11581D02*
D03*
X-530355Y23156D02*
D03*
X-529723Y34720D02*
D03*
X-528840Y46267D02*
D03*
X-527705Y57793D02*
D03*
X-526318Y69291D02*
D03*
X-524681Y80756D02*
D03*
X-522795Y92183D02*
D03*
X-520659Y103566D02*
D03*
X-518276Y114899D02*
D03*
X-515647Y126178D02*
D03*
X-512771Y137397D02*
D03*
X-509652Y148550D02*
D03*
X-506290Y159633D02*
D03*
X-502687Y170639D02*
D03*
X-498845Y181565D02*
D03*
X-494766Y192404D02*
D03*
X-490451Y203151D02*
D03*
X-485902Y213802D02*
D03*
X-481122Y224351D02*
D03*
X-476114Y234793D02*
D03*
X-470878Y245124D02*
D03*
X-465419Y255338D02*
D03*
X-459738Y265430D02*
D03*
X-453838Y275396D02*
D03*
X-414009Y332278D02*
D03*
X-406662Y341230D02*
D03*
X-399122Y350020D02*
D03*
X-391391Y358644D02*
D03*
X-383474Y367096D02*
D03*
X-375374Y375375D02*
D03*
X-367096Y383474D02*
D03*
X-358644Y391391D02*
D03*
X-350020Y399122D02*
D03*
X-341230Y406662D02*
D03*
X-332278Y414009D02*
D03*
X-323167Y421160D02*
D03*
X-313902Y428109D02*
D03*
X-304489Y434855D02*
D03*
X-294930Y441394D02*
D03*
X-285231Y447723D02*
D03*
X-275396Y453838D02*
D03*
X-265430Y459738D02*
D03*
X-255338Y465419D02*
D03*
X-245124Y470878D02*
D03*
X-234793Y476114D02*
D03*
X-224351Y481122D02*
D03*
X-213802Y485902D02*
D03*
X-203151Y490451D02*
D03*
X-192404Y494766D02*
D03*
X-181565Y498845D02*
D03*
X-170639Y502687D02*
D03*
X-159633Y506290D02*
D03*
X-148550Y509652D02*
D03*
X-137397Y512771D02*
D03*
X-126178Y515647D02*
D03*
X-114899Y518276D02*
D03*
X-103566Y520659D02*
D03*
X-92183Y522795D02*
D03*
X-80756Y524681D02*
D03*
X-34720Y529723D02*
D03*
X-23156Y530355D02*
D03*
X-11581Y530733D02*
D03*
X0Y530860D02*
D03*
X11581Y530733D02*
D03*
X23156Y530355D02*
D03*
X34720Y529723D02*
D03*
X46268Y528840D02*
D03*
X69291Y526318D02*
D03*
X80756Y524681D02*
D03*
X148550Y509652D02*
D03*
X159633Y506290D02*
D03*
X170639Y502687D02*
D03*
X181565Y498845D02*
D03*
X192404Y494766D02*
D03*
X203151Y490451D02*
D03*
X213802Y485902D02*
D03*
X224351Y481122D02*
D03*
X234793Y476114D02*
D03*
X245124Y470878D02*
D03*
X255338Y465419D02*
D03*
X265430Y459738D02*
D03*
X275396Y453838D02*
D03*
X332278Y414009D02*
D03*
X341230Y406662D02*
D03*
X350020Y399122D02*
D03*
X358644Y391391D02*
D03*
X367097Y383474D02*
D03*
X375375Y375375D02*
D03*
X383474Y367096D02*
D03*
X391391Y358644D02*
D03*
X399122Y350020D02*
D03*
X406662Y341230D02*
D03*
X414010Y332278D02*
D03*
X434855Y304489D02*
D03*
X441394Y294930D02*
D03*
X453839Y275396D02*
D03*
X459738Y265430D02*
D03*
X441394Y-294930D02*
D03*
X434855Y-304489D02*
D03*
X414010Y-332278D02*
D03*
X406662Y-341230D02*
D03*
X399122Y-350020D02*
D03*
X391391Y-358644D02*
D03*
X383474Y-367097D02*
D03*
X375375Y-375375D02*
D03*
X367097Y-383474D02*
D03*
X358644Y-391391D02*
D03*
X350020Y-399122D02*
D03*
X341230Y-406662D02*
D03*
X332278Y-414010D02*
D03*
X323167Y-421160D02*
D03*
X313903Y-428109D02*
D03*
X304489Y-434855D02*
D03*
X275396Y-453839D02*
D03*
X11581Y-530734D02*
D03*
X0Y-530860D02*
D03*
X-11581Y-530734D02*
D03*
X-148550Y-509652D02*
D03*
X-159633Y-506290D02*
D03*
X-170639Y-502687D02*
D03*
X-203151Y-490451D02*
D03*
X-224351Y-481123D02*
D03*
X-234793Y-476114D02*
D03*
X-245124Y-470879D02*
D03*
X-255338Y-465419D02*
D03*
X-265430Y-459738D02*
D03*
X-275396Y-453839D02*
D03*
X-332278Y-414010D02*
D03*
X-341230Y-406662D02*
D03*
X-350020Y-399122D02*
D03*
X-358644Y-391391D02*
D03*
X-367097Y-383474D02*
D03*
X-375375Y-375375D02*
D03*
X-383474Y-367097D02*
D03*
X-391391Y-358644D02*
D03*
X-399122Y-350020D02*
D03*
X-406662Y-341230D02*
D03*
X-414010Y-332278D02*
D03*
X-421160Y-323167D02*
D03*
X-428109Y-313903D02*
D03*
X-434855Y-304489D02*
D03*
X-441394Y-294930D02*
D03*
X-447723Y-285231D02*
D03*
X-453839Y-275396D02*
D03*
X-459738Y-265430D02*
D03*
X-465419Y-255338D02*
D03*
X-470879Y-245124D02*
D03*
X-476114Y-234793D02*
D03*
X-481123Y-224351D02*
D03*
X-485902Y-213802D02*
D03*
X-490451Y-203151D02*
D03*
X-498845Y-181565D02*
D03*
X-502687Y-170639D02*
D03*
X-506290Y-159633D02*
D03*
X-509652Y-148550D02*
D03*
X-512771Y-137397D02*
D03*
X-515647Y-126178D02*
D03*
X-518276Y-114899D02*
D03*
X-520660Y-103566D02*
D03*
X-522795Y-92183D02*
D03*
X-524682Y-80756D02*
D03*
X-526318Y-69291D02*
D03*
X-527705Y-57793D02*
D03*
X-528840Y-46267D02*
D03*
X-529723Y-34720D02*
D03*
X-530355Y-23156D02*
D03*
X-530734Y-11581D02*
D03*
X-530860Y0D02*
D03*
X243840Y-445770D02*
D03*
X238760Y-439420D02*
D03*
X106680Y-430530D02*
D03*
X176530Y-427482D02*
D03*
X214630Y-440690D02*
D03*
X398780Y-271780D02*
D03*
X368300Y-308610D02*
D03*
X175260Y-482600D02*
D03*
X-347980Y-133350D02*
D03*
X-340360D02*
D03*
X-309880Y-119380D02*
D03*
X-308610Y-147320D02*
D03*
X-363220Y-148590D02*
D03*
X-368300Y-217170D02*
D03*
X-342900Y-193040D02*
D03*
X-251460Y-334010D02*
D03*
X-226060Y-309880D02*
D03*
X-64770Y-191770D02*
D03*
X-30480Y-173990D02*
D03*
X-38100D02*
D03*
X-26670Y-271780D02*
D03*
X-17780D02*
D03*
X-20955Y-356220D02*
D03*
X2540Y-265430D02*
D03*
X-3810Y-359268D02*
D03*
X-5080Y-272492D02*
D03*
X80010Y-514350D02*
D03*
X121239Y-493344D02*
D03*
X68580Y-439420D02*
D03*
X53340Y-431800D02*
D03*
Y-369570D02*
D03*
X53519Y-342686D02*
D03*
X109220Y-374650D02*
D03*
X90170Y-210820D02*
D03*
X85090Y-250190D02*
D03*
X-24678Y-287020D02*
D03*
X52070Y-256540D02*
D03*
X-265430Y-177800D02*
D03*
X-257810Y-177800D02*
D03*
X-55880Y-212090D02*
D03*
X-49530Y-167640D02*
D03*
X-43235Y-221720D02*
D03*
X-273050Y-198120D02*
D03*
X-276860Y-255270D02*
D03*
X-54610Y-318770D02*
D03*
X-63500Y-299720D02*
D03*
X-89139Y-522230D02*
D03*
X-346710Y-266700D02*
D03*
X195439Y-409398D02*
D03*
X-342900Y-242909D02*
D03*
X-355600Y-240030D02*
D03*
X-369570Y-234950D02*
D03*
X-309372Y-300990D02*
D03*
X-320802Y-295910D02*
D03*
X-339090Y-288290D02*
D03*
X-24130Y-502920D02*
D03*
X-12700Y-507238D02*
D03*
X0Y-505126D02*
D03*
X93980Y-514350D02*
D03*
X66040D02*
D03*
X-97790Y-434848D02*
D03*
Y-441960D02*
D03*
Y-449580D02*
D03*
X-88900Y-472440D02*
D03*
X-210820Y-481330D02*
D03*
X0Y-444120D02*
D03*
X-151130Y-367030D02*
D03*
X-133350Y-337820D02*
D03*
X-144780Y-327660D02*
D03*
X-137160Y-302260D02*
D03*
X-143510Y-250190D02*
D03*
X-297180Y-234950D02*
D03*
X-119380Y-375920D02*
D03*
X-109220Y-313690D02*
D03*
X-85090Y-287020D02*
D03*
X-252730Y-281940D02*
D03*
X-332740Y-375920D02*
D03*
X-326390Y-367030D02*
D03*
X-332740Y-199390D02*
D03*
X-314960Y-355600D02*
D03*
X-326390Y-207010D02*
D03*
X-314960Y-215900D02*
D03*
X-195580Y-345440D02*
D03*
X-212090Y-355600D02*
D03*
Y-367030D02*
D03*
Y-378460D02*
D03*
X-116840Y-468630D02*
D03*
X-198120Y-466090D02*
D03*
X-218440Y-472440D02*
D03*
Y-344170D02*
D03*
X-182880Y-346710D02*
D03*
X-174244Y-355600D02*
D03*
X-298450Y-344170D02*
D03*
X-265430Y-327660D02*
D03*
X-128960Y-491420D02*
D03*
X0Y355329D02*
D03*
X-12700Y340360D02*
D03*
X6350Y347980D02*
D03*
X-281940Y340360D02*
D03*
X-389890Y-318770D02*
D03*
X-24130Y361950D02*
D03*
X-288290D02*
D03*
X-396240Y-337820D02*
D03*
X-73660Y-318770D02*
D03*
X-12700Y393700D02*
D03*
X8890Y391160D02*
D03*
X25400Y355600D02*
D03*
X-294640D02*
D03*
X-419100Y-220980D02*
D03*
X0Y392921D02*
D03*
X-25400Y393700D02*
D03*
X-300990Y347980D02*
D03*
X-425450Y-248920D02*
D03*
X-38100Y393700D02*
D03*
X-432054Y-170180D02*
D03*
X-437896Y-187960D02*
D03*
X-449580Y-228600D02*
D03*
X-173990Y-187960D02*
D03*
X-215900Y-140970D02*
D03*
Y-228600D02*
D03*
X-74930Y-160020D02*
D03*
X-97790Y-170180D02*
D03*
X-102870Y-143510D02*
D03*
X-127000Y-149860D02*
D03*
X-174574Y-224104D02*
D03*
X-194198Y-248497D02*
D03*
X-156210Y-209550D02*
D03*
X-181610Y-234950D02*
D03*
X-113030Y-232410D02*
D03*
X-153670Y-273050D02*
D03*
X-24591Y-319278D02*
D03*
X-31750Y-369570D02*
D03*
X-173990Y-372110D02*
D03*
X-38100Y-313690D02*
D03*
Y-363220D02*
D03*
X-44450Y-308610D02*
D03*
Y-355600D02*
D03*
X-173990Y-363220D02*
D03*
X13970Y363220D02*
D03*
X63500Y346710D02*
D03*
X129489Y325207D02*
D03*
X144780Y331470D02*
D03*
X32440Y365252D02*
D03*
X106448Y358088D02*
D03*
X128270Y363220D02*
D03*
X121519Y368653D02*
D03*
X125575Y374495D02*
D03*
X138891Y382731D02*
D03*
X25400Y394462D02*
D03*
X179070Y-467360D02*
D03*
X119380Y403860D02*
D03*
X43688Y379730D02*
D03*
X45720Y393700D02*
D03*
X111760Y396240D02*
D03*
X77470Y389890D02*
D03*
X120650Y380238D02*
D03*
X70612Y375920D02*
D03*
X210820Y-27940D02*
D03*
X212245Y-20512D02*
D03*
X213498Y-13511D02*
D03*
X214752Y-6511D02*
D03*
X215900Y508D02*
D03*
X116840Y355600D02*
D03*
X114300Y347980D02*
D03*
X38100Y339090D02*
D03*
X109220D02*
D03*
X76200Y433070D02*
D03*
X63500D02*
D03*
X50800D02*
D03*
X38100D02*
D03*
X25400D02*
D03*
X12700D02*
D03*
X-110490Y-468630D02*
D03*
Y-414020D02*
D03*
X-118110D02*
D03*
X-198120Y-393700D02*
D03*
X91440Y-331470D02*
D03*
X173990Y-492760D02*
D03*
X192350Y-466990D02*
D03*
X184360Y-444500D02*
D03*
X-176530Y-388620D02*
D03*
X-17780Y-449580D02*
D03*
X-30480Y-494030D02*
D03*
Y-466090D02*
D03*
X-44450Y-449580D02*
D03*
Y-434340D02*
D03*
X-30480Y-417830D02*
D03*
X-200660D02*
D03*
X-186690Y-434340D02*
D03*
Y-449580D02*
D03*
X-130810Y-434086D02*
D03*
Y-441198D02*
D03*
Y-448310D02*
D03*
X152400Y-414274D02*
D03*
X130810Y-397510D02*
D03*
X128270Y-386640D02*
D03*
X146050Y-449580D02*
D03*
X152400Y-458470D02*
D03*
Y-491490D02*
D03*
X120650Y-462280D02*
D03*
X121920Y-375920D02*
D03*
X21590Y-467360D02*
D03*
X109220Y-476250D02*
D03*
X107950Y-406400D02*
D03*
X175260Y-441960D02*
D03*
X121920Y-406400D02*
D03*
X167640Y-407670D02*
D03*
X178140Y-398780D02*
D03*
X105410Y-344170D02*
D03*
X-43180Y-299720D02*
D03*
X-85090Y-255270D02*
D03*
X-111760Y-278130D02*
D03*
X-87630Y-294640D02*
D03*
X-124460Y-330200D02*
D03*
X-97891Y-302513D02*
D03*
X-54610Y-247650D02*
D03*
X-105410Y-306070D02*
D03*
X-95250Y-295910D02*
D03*
X-55880Y-270510D02*
D03*
X-54610Y-288290D02*
D03*
Y-259080D02*
D03*
X436880Y-231140D02*
D03*
X328930Y-347980D02*
D03*
X292100Y-370840D02*
D03*
X252730Y-410210D02*
D03*
X87630Y-154940D02*
D03*
X93980D02*
D03*
X100330Y-147320D02*
D03*
X134620Y-157480D02*
D03*
X140970Y-161290D02*
D03*
X134383Y-142477D02*
D03*
X138430Y-138430D02*
D03*
X140803Y-123708D02*
D03*
X148590Y-101600D02*
D03*
X165100Y-135890D02*
D03*
X187960Y-184150D02*
D03*
Y-189230D02*
D03*
X273050Y-223520D02*
D03*
X336550Y-121920D02*
D03*
X314104Y-101186D02*
D03*
X337820Y-55880D02*
D03*
X195703Y-185725D02*
D03*
X205740Y-184150D02*
D03*
X204470Y-179070D02*
D03*
X214014Y-180994D02*
D03*
X220353Y-175847D02*
D03*
X224452Y-164168D02*
D03*
X225676Y-159232D02*
D03*
X232001Y-151281D02*
D03*
X236220Y-144780D02*
D03*
X230467Y-144259D02*
D03*
X247650Y-123190D02*
D03*
X238760Y-134620D02*
D03*
X233680D02*
D03*
X232664Y-109220D02*
D03*
X233680Y-118110D02*
D03*
X238760D02*
D03*
X273050Y-147320D02*
D03*
D116*
X240030Y-269240D02*
D03*
X245110Y-274320D02*
D03*
X171167Y-217453D02*
D03*
X169778Y-228994D02*
D03*
X176305Y-222590D02*
D03*
X162560Y-226060D02*
D03*
X160020Y-218440D02*
D03*
X295910Y-87630D02*
D03*
X289560Y-93980D02*
D03*
X283210Y-100330D02*
D03*
X276860Y-106680D02*
D03*
X106680Y-280670D02*
D03*
X113030Y-274320D02*
D03*
X119380Y-267970D02*
D03*
X125730Y-261620D02*
D03*
X280670Y-114300D02*
D03*
X287020Y-107950D02*
D03*
X293370Y-101600D02*
D03*
X299720Y-95250D02*
D03*
X232410Y-227076D02*
D03*
X224790Y-233680D02*
D03*
X218440Y-227330D02*
D03*
X140701Y-247919D02*
D03*
X267970Y-118110D02*
D03*
X260350Y-111760D02*
D03*
Y-119380D02*
D03*
X259080Y-127000D02*
D03*
X248920Y-139700D02*
D03*
X236220Y-162560D02*
D03*
X262890Y-134620D02*
D03*
X266700Y-125730D02*
D03*
X254000Y-133350D02*
D03*
X256540Y-140970D02*
D03*
X241300Y-157480D02*
D03*
X246380Y-152400D02*
D03*
X251460Y-147320D02*
D03*
X309880Y-78740D02*
D03*
X314960Y-73660D02*
D03*
X320040Y-68580D02*
D03*
X317500Y-81280D02*
D03*
X312420Y-86360D02*
D03*
X322580Y-76200D02*
D03*
X327660Y-71120D02*
D03*
X325120Y-63500D02*
D03*
X307340Y-71120D02*
D03*
X312420Y-66040D02*
D03*
X317500Y-60960D02*
D03*
X302260Y-76200D02*
D03*
X322580Y-55880D02*
D03*
X332740Y-66040D02*
D03*
X139700Y-238760D02*
D03*
X154940Y-223520D02*
D03*
X149860Y-228600D02*
D03*
X144780Y-233680D02*
D03*
X165100D02*
D03*
X160020Y-238760D02*
D03*
X149860Y-248920D02*
D03*
X154940Y-243840D02*
D03*
X157480Y-231140D02*
D03*
X152400Y-236220D02*
D03*
X147320Y-241300D02*
D03*
X134620Y-264160D02*
D03*
X128270Y-270510D02*
D03*
X121920Y-276860D02*
D03*
X115570Y-283210D02*
D03*
X109220Y-289560D02*
D03*
X175260Y-350520D02*
D03*
X168910Y-344170D02*
D03*
X344170Y-177800D02*
D03*
X336550D02*
D03*
D142*
X9470Y-444500D02*
D03*
X18470D02*
D03*
D143*
X37770Y-344170D02*
D03*
Y-356870D02*
D03*
Y-369570D02*
D03*
Y-382270D02*
D03*
X91770D02*
D03*
Y-369570D02*
D03*
Y-356870D02*
D03*
Y-344170D02*
D03*
X37770Y-406400D02*
D03*
Y-419100D02*
D03*
Y-431800D02*
D03*
Y-444500D02*
D03*
X91770D02*
D03*
Y-431800D02*
D03*
Y-419100D02*
D03*
Y-406400D02*
D03*
X37770Y-467360D02*
D03*
Y-480060D02*
D03*
Y-492760D02*
D03*
Y-505460D02*
D03*
X91770D02*
D03*
Y-492760D02*
D03*
Y-480060D02*
D03*
Y-467360D02*
D03*
D144*
X157443Y-258043D02*
D03*
X166423Y-249063D02*
D03*
X175403Y-240083D02*
D03*
X184384Y-231103D02*
D03*
X196616Y-297217D02*
D03*
X205597Y-288237D02*
D03*
X214577Y-279257D02*
D03*
X223557Y-270277D02*
D03*
X345477Y-148357D02*
D03*
X336497Y-157337D02*
D03*
X327517Y-166317D02*
D03*
X318536Y-175297D02*
D03*
X306304Y-109183D02*
D03*
X297323Y-118163D02*
D03*
X288343Y-127143D02*
D03*
X279363Y-136124D02*
D03*
X264197Y-229636D02*
D03*
X255217Y-238617D02*
D03*
X246237Y-247597D02*
D03*
X237257Y-256577D02*
D03*
X225023Y-190463D02*
D03*
X216043Y-199443D02*
D03*
X207063Y-208423D02*
D03*
X198083Y-217404D02*
D03*
X182917Y-310917D02*
D03*
X173937Y-319897D02*
D03*
X164957Y-328877D02*
D03*
X155976Y-337857D02*
D03*
X143743Y-271743D02*
D03*
X134763Y-280723D02*
D03*
X125783Y-289703D02*
D03*
X116803Y-298683D02*
D03*
X320003Y-95484D02*
D03*
X328983Y-86503D02*
D03*
X337963Y-77523D02*
D03*
X346944Y-68543D02*
D03*
X359176Y-134657D02*
D03*
X368157Y-125677D02*
D03*
X377137Y-116697D02*
D03*
X386117Y-107717D02*
D03*
X238723Y-176763D02*
D03*
X247703Y-167783D02*
D03*
X256683Y-158803D02*
D03*
X265664Y-149823D02*
D03*
X277896Y-215937D02*
D03*
X286877Y-206957D02*
D03*
X295857Y-197977D02*
D03*
X304837Y-188997D02*
D03*
D145*
X197145Y-270805D02*
D03*
X305775Y-135595D02*
D03*
X224495Y-216875D02*
D03*
X143215Y-298155D02*
D03*
X359705Y-108245D02*
D03*
X278425Y-189525D02*
D03*
D146*
X-138835Y-239625D02*
D03*
X-149088Y-215937D02*
D03*
X-162523Y-229372D02*
D03*
X-164235Y-265025D02*
D03*
X-174488Y-241337D02*
D03*
X-187923Y-254772D02*
D03*
D147*
X-77300Y-170180D02*
D03*
X-87800D02*
D03*
X-105240Y-153670D02*
D03*
X-115740D02*
D03*
D150*
X301594Y-28250D02*
D03*
Y28250D02*
D03*
D151*
X381344Y-254926D02*
D03*
X421296Y-214974D02*
D03*
X312764Y-332396D02*
D03*
X352716Y-292444D02*
D03*
X236564Y-394626D02*
D03*
X276516Y-354674D02*
D03*
M02*
