G04*
G04 #@! TF.GenerationSoftware,Altium Limited,Altium Designer,24.1.2 (44)*
G04*
G04 Layer_Color=8388736*
%FSLAX44Y44*%
%MOMM*%
G71*
G04*
G04 #@! TF.SameCoordinates,C067CD15-9508-4875-9725-B3D5D2F0FA69*
G04*
G04*
G04 #@! TF.FilePolarity,Negative*
G04*
G01*
G75*
G04:AMPARAMS|DCode=30|XSize=0.9mm|YSize=0.8mm|CornerRadius=0mm|HoleSize=0mm|Usage=FLASHONLY|Rotation=315.000|XOffset=0mm|YOffset=0mm|HoleType=Round|Shape=Rectangle|*
%AMROTATEDRECTD30*
4,1,4,-0.6010,0.0354,-0.0354,0.6010,0.6010,-0.0354,0.0354,-0.6010,-0.6010,0.0354,0.0*
%
%ADD30ROTATEDRECTD30*%

G04:AMPARAMS|DCode=31|XSize=1.25mm|YSize=0.95mm|CornerRadius=0mm|HoleSize=0mm|Usage=FLASHONLY|Rotation=225.000|XOffset=0mm|YOffset=0mm|HoleType=Round|Shape=Rectangle|*
%AMROTATEDRECTD31*
4,1,4,0.1061,0.7778,0.7778,0.1061,-0.1061,-0.7778,-0.7778,-0.1061,0.1061,0.7778,0.0*
%
%ADD31ROTATEDRECTD31*%

G04:AMPARAMS|DCode=32|XSize=0.9mm|YSize=0.8mm|CornerRadius=0mm|HoleSize=0mm|Usage=FLASHONLY|Rotation=45.000|XOffset=0mm|YOffset=0mm|HoleType=Round|Shape=Rectangle|*
%AMROTATEDRECTD32*
4,1,4,-0.0354,-0.6010,-0.6010,-0.0354,0.0354,0.6010,0.6010,0.0354,-0.0354,-0.6010,0.0*
%
%ADD32ROTATEDRECTD32*%

G04:AMPARAMS|DCode=33|XSize=1.55mm|YSize=0.6mm|CornerRadius=0mm|HoleSize=0mm|Usage=FLASHONLY|Rotation=135.000|XOffset=0mm|YOffset=0mm|HoleType=Round|Shape=Round|*
%AMOVALD33*
21,1,0.9500,0.6000,0.0000,0.0000,135.0*
1,1,0.6000,0.3359,-0.3359*
1,1,0.6000,-0.3359,0.3359*
%
%ADD33OVALD33*%

%ADD39R,1.4000X3.0000*%
%ADD46R,0.8000X0.8000*%
%ADD47R,0.9800X0.7700*%
G04:AMPARAMS|DCode=51|XSize=2.6mm|YSize=1.1mm|CornerRadius=0mm|HoleSize=0mm|Usage=FLASHONLY|Rotation=135.000|XOffset=0mm|YOffset=0mm|HoleType=Round|Shape=Rectangle|*
%AMROTATEDRECTD51*
4,1,4,1.3082,-0.5303,0.5303,-1.3082,-1.3082,0.5303,-0.5303,1.3082,1.3082,-0.5303,0.0*
%
%ADD51ROTATEDRECTD51*%

%ADD56R,1.2500X0.3500*%
%ADD57O,1.2500X0.3500*%
%ADD69R,3.0000X1.4000*%
G04:AMPARAMS|DCode=70|XSize=0.4mm|YSize=0.9mm|CornerRadius=0mm|HoleSize=0mm|Usage=FLASHONLY|Rotation=191.500|XOffset=0mm|YOffset=0mm|HoleType=Round|Shape=Rectangle|*
%AMROTATEDRECTD70*
4,1,4,0.1063,0.4808,0.2857,-0.4011,-0.1063,-0.4808,-0.2857,0.4011,0.1063,0.4808,0.0*
%
%ADD70ROTATEDRECTD70*%

G04:AMPARAMS|DCode=71|XSize=1.2mm|YSize=3.15mm|CornerRadius=0mm|HoleSize=0mm|Usage=FLASHONLY|Rotation=191.500|XOffset=0mm|YOffset=0mm|HoleType=Round|Shape=Rectangle|*
%AMROTATEDRECTD71*
4,1,4,0.2740,1.6630,0.9020,-1.4238,-0.2740,-1.6630,-0.9020,1.4238,0.2740,1.6630,0.0*
%
%ADD71ROTATEDRECTD71*%

%ADD72R,0.6000X0.5750*%
G04:AMPARAMS|DCode=73|XSize=1.6mm|YSize=1.35mm|CornerRadius=0mm|HoleSize=0mm|Usage=FLASHONLY|Rotation=135.000|XOffset=0mm|YOffset=0mm|HoleType=Round|Shape=Rectangle|*
%AMROTATEDRECTD73*
4,1,4,1.0430,-0.0884,0.0884,-1.0430,-1.0430,0.0884,-0.0884,1.0430,1.0430,-0.0884,0.0*
%
%ADD73ROTATEDRECTD73*%

%ADD74R,5.5000X1.6000*%
%ADD75R,5.1150X4.7400*%
%ADD76R,0.7400X0.3800*%
%ADD77R,0.3800X0.7400*%
%ADD78R,0.6000X0.6000*%
%ADD79R,1.8000X2.6000*%
%ADD80R,1.2500X1.2500*%
%ADD81R,0.7500X1.0000*%
%ADD82R,1.6000X2.5000*%
%ADD83R,1.6000X1.1500*%
G04:AMPARAMS|DCode=84|XSize=2.1mm|YSize=1.6mm|CornerRadius=0.3125mm|HoleSize=0mm|Usage=FLASHONLY|Rotation=135.000|XOffset=0mm|YOffset=0mm|HoleType=Round|Shape=RoundedRectangle|*
%AMROUNDEDRECTD84*
21,1,2.1000,0.9750,0,0,135.0*
21,1,1.4750,1.6000,0,0,135.0*
1,1,0.6250,-0.1768,0.8662*
1,1,0.6250,0.8662,-0.1768*
1,1,0.6250,0.1768,-0.8662*
1,1,0.6250,-0.8662,0.1768*
%
%ADD84ROUNDEDRECTD84*%
%ADD85R,1.7000X2.3000*%
G04:AMPARAMS|DCode=86|XSize=0.9mm|YSize=2.72mm|CornerRadius=0mm|HoleSize=0mm|Usage=FLASHONLY|Rotation=315.000|XOffset=0mm|YOffset=0mm|HoleType=Round|Shape=Rectangle|*
%AMROTATEDRECTD86*
4,1,4,-1.2799,-0.6435,0.6435,1.2799,1.2799,0.6435,-0.6435,-1.2799,-1.2799,-0.6435,0.0*
%
%ADD86ROTATEDRECTD86*%

%ADD87R,2.7000X1.2000*%
%ADD88R,1.2500X1.5500*%
G04:AMPARAMS|DCode=89|XSize=1mm|YSize=1.1mm|CornerRadius=0mm|HoleSize=0mm|Usage=FLASHONLY|Rotation=135.000|XOffset=0mm|YOffset=0mm|HoleType=Round|Shape=Rectangle|*
%AMROTATEDRECTD89*
4,1,4,0.7425,0.0354,-0.0354,-0.7425,-0.7425,-0.0354,0.0354,0.7425,0.7425,0.0354,0.0*
%
%ADD89ROTATEDRECTD89*%

G04:AMPARAMS|DCode=90|XSize=1.1mm|YSize=1.05mm|CornerRadius=0mm|HoleSize=0mm|Usage=FLASHONLY|Rotation=135.000|XOffset=0mm|YOffset=0mm|HoleType=Round|Shape=Rectangle|*
%AMROTATEDRECTD90*
4,1,4,0.7601,-0.0177,0.0177,-0.7601,-0.7601,0.0177,-0.0177,0.7601,0.7601,-0.0177,0.0*
%
%ADD90ROTATEDRECTD90*%

%ADD91R,0.7200X0.7200*%
%ADD92R,1.5500X1.2500*%
G04:AMPARAMS|DCode=93|XSize=5.5mm|YSize=1.6mm|CornerRadius=0mm|HoleSize=0mm|Usage=FLASHONLY|Rotation=45.000|XOffset=0mm|YOffset=0mm|HoleType=Round|Shape=Rectangle|*
%AMROTATEDRECTD93*
4,1,4,-1.3789,-2.5102,-2.5102,-1.3789,1.3789,2.5102,2.5102,1.3789,-1.3789,-2.5102,0.0*
%
%ADD93ROTATEDRECTD93*%

G04:AMPARAMS|DCode=94|XSize=1.55mm|YSize=1.25mm|CornerRadius=0mm|HoleSize=0mm|Usage=FLASHONLY|Rotation=315.000|XOffset=0mm|YOffset=0mm|HoleType=Round|Shape=Rectangle|*
%AMROTATEDRECTD94*
4,1,4,-0.9900,0.1061,-0.1061,0.9900,0.9900,-0.1061,0.1061,-0.9900,-0.9900,0.1061,0.0*
%
%ADD94ROTATEDRECTD94*%

%ADD95P,1.0182X4X180.0*%
%ADD96R,0.7200X0.7200*%
%ADD97P,1.0182X4X270.0*%
%ADD98R,0.9000X2.7200*%
%ADD99R,0.5750X0.6000*%
%ADD100R,1.2500X1.2500*%
G04:AMPARAMS|DCode=101|XSize=0.6mm|YSize=0.575mm|CornerRadius=0mm|HoleSize=0mm|Usage=FLASHONLY|Rotation=45.000|XOffset=0mm|YOffset=0mm|HoleType=Round|Shape=Rectangle|*
%AMROTATEDRECTD101*
4,1,4,-0.0088,-0.4154,-0.4154,-0.0088,0.0088,0.4154,0.4154,0.0088,-0.0088,-0.4154,0.0*
%
%ADD101ROTATEDRECTD101*%

G04:AMPARAMS|DCode=102|XSize=0.6mm|YSize=0.575mm|CornerRadius=0mm|HoleSize=0mm|Usage=FLASHONLY|Rotation=315.000|XOffset=0mm|YOffset=0mm|HoleType=Round|Shape=Rectangle|*
%AMROTATEDRECTD102*
4,1,4,-0.4154,0.0088,-0.0088,0.4154,0.4154,-0.0088,0.0088,-0.4154,-0.4154,0.0088,0.0*
%
%ADD102ROTATEDRECTD102*%

G04:AMPARAMS|DCode=103|XSize=1.4mm|YSize=2.3mm|CornerRadius=0mm|HoleSize=0mm|Usage=FLASHONLY|Rotation=191.500|XOffset=0mm|YOffset=0mm|HoleType=Round|Shape=Rectangle|*
%AMROTATEDRECTD103*
4,1,4,0.4567,1.2665,0.9152,-0.9874,-0.4567,-1.2665,-0.9152,0.9874,0.4567,1.2665,0.0*
%
%ADD103ROTATEDRECTD103*%

G04:AMPARAMS|DCode=104|XSize=1.4mm|YSize=2.3mm|CornerRadius=0mm|HoleSize=0mm|Usage=FLASHONLY|Rotation=191.500|XOffset=0mm|YOffset=0mm|HoleType=Round|Shape=Rectangle|*
%AMROTATEDRECTD104*
4,1,4,0.4567,1.2665,0.9152,-0.9874,-0.4567,-1.2665,-0.9152,0.9874,0.4567,1.2665,0.0*
%
%ADD104ROTATEDRECTD104*%

%ADD105C,5.1016*%
G04:AMPARAMS|DCode=106|XSize=5.1016mm|YSize=5.1016mm|CornerRadius=1.3008mm|HoleSize=0mm|Usage=FLASHONLY|Rotation=0.000|XOffset=0mm|YOffset=0mm|HoleType=Round|Shape=RoundedRectangle|*
%AMROUNDEDRECTD106*
21,1,5.1016,2.5000,0,0,0.0*
21,1,2.5000,5.1016,0,0,0.0*
1,1,2.6016,1.2500,-1.2500*
1,1,2.6016,-1.2500,-1.2500*
1,1,2.6016,-1.2500,1.2500*
1,1,2.6016,1.2500,1.2500*
%
%ADD106ROUNDEDRECTD106*%
%ADD107C,1.4000*%
%ADD108R,1.4000X1.4000*%
%ADD109C,6.5000*%
%ADD110C,7.2000*%
%ADD111C,5.7016*%
%ADD112C,1.5240*%
%ADD113C,1.9050*%
G04:AMPARAMS|DCode=114|XSize=1.143mm|YSize=1.524mm|CornerRadius=0.2858mm|HoleSize=0mm|Usage=FLASHONLY|Rotation=135.000|XOffset=0mm|YOffset=0mm|HoleType=Round|Shape=RoundedRectangle|*
%AMROUNDEDRECTD114*
21,1,1.1430,0.9525,0,0,135.0*
21,1,0.5715,1.5240,0,0,135.0*
1,1,0.5715,0.1347,0.5388*
1,1,0.5715,0.5388,0.1347*
1,1,0.5715,-0.1347,-0.5388*
1,1,0.5715,-0.5388,-0.1347*
%
%ADD114ROUNDEDRECTD114*%
%ADD115C,0.5080*%
%ADD116C,0.7112*%
D30*
X168301Y-316839D02*
D03*
X177139Y-308001D02*
D03*
X178409Y-239421D02*
D03*
X169571Y-248259D02*
D03*
X258471Y-238099D02*
D03*
X267309Y-229261D02*
D03*
D31*
X140170Y-300190D02*
D03*
X151130Y-311150D02*
D03*
X237490Y-238760D02*
D03*
X248450Y-249720D02*
D03*
X292970Y-125330D02*
D03*
X303930Y-136290D02*
D03*
X197250Y-268370D02*
D03*
X186290Y-257410D02*
D03*
X292500Y-185820D02*
D03*
X281540Y-174860D02*
D03*
X373780Y-108350D02*
D03*
X362820Y-97390D02*
D03*
D32*
X271119Y-164439D02*
D03*
X262281Y-155601D02*
D03*
X316891Y-149251D02*
D03*
X325729Y-158089D02*
D03*
X351129Y-85699D02*
D03*
X342291Y-76861D02*
D03*
D33*
X484682Y-173262D02*
D03*
X475702Y-182242D02*
D03*
X466722Y-191222D02*
D03*
X457742Y-200202D02*
D03*
X419558Y-162019D02*
D03*
X428538Y-153038D02*
D03*
X437518Y-144058D02*
D03*
X446498Y-135078D02*
D03*
D39*
X-361950Y-356870D02*
D03*
D46*
X-102990Y-153670D02*
D03*
X-117990D02*
D03*
X-75050Y-170180D02*
D03*
X-90050D02*
D03*
D47*
X-331470Y-133820D02*
D03*
Y-148120D02*
D03*
X93980Y-503720D02*
D03*
Y-489420D02*
D03*
X80010Y-503720D02*
D03*
Y-489420D02*
D03*
X66040Y-503720D02*
D03*
Y-489420D02*
D03*
X88900Y366230D02*
D03*
Y380530D02*
D03*
D51*
X157480Y-290830D02*
D03*
X176572Y-271738D02*
D03*
X330158Y-134662D02*
D03*
X349250Y-115570D02*
D03*
X243840Y-214630D02*
D03*
X262932Y-195538D02*
D03*
D56*
X-142550Y-422460D02*
D03*
D57*
Y-428960D02*
D03*
Y-435460D02*
D03*
Y-441960D02*
D03*
Y-448460D02*
D03*
Y-454960D02*
D03*
Y-461460D02*
D03*
X-86050Y-422460D02*
D03*
Y-428960D02*
D03*
Y-435460D02*
D03*
Y-441960D02*
D03*
Y-448460D02*
D03*
Y-454960D02*
D03*
Y-461460D02*
D03*
D69*
X-2540Y-494030D02*
D03*
Y-433070D02*
D03*
Y-370840D02*
D03*
X-125730Y-504190D02*
D03*
X-149860Y-378460D02*
D03*
X-54610Y-504190D02*
D03*
X-78740Y-378460D02*
D03*
D70*
X81110Y-469124D02*
D03*
X86010Y-468127D02*
D03*
X90909Y-467130D02*
D03*
X95809Y-466133D02*
D03*
X100708Y-465137D02*
D03*
X105608Y-464140D02*
D03*
D71*
X59633Y-453849D02*
D03*
X119409Y-441688D02*
D03*
D72*
X-67310Y-410165D02*
D03*
Y-420415D02*
D03*
X116840Y-353015D02*
D03*
Y-363265D02*
D03*
X111760Y-168865D02*
D03*
Y-179115D02*
D03*
X-161290Y-463505D02*
D03*
Y-473755D02*
D03*
Y-420415D02*
D03*
Y-410165D02*
D03*
X-67310Y-463505D02*
D03*
Y-473755D02*
D03*
X-31750Y-297225D02*
D03*
Y-286975D02*
D03*
X-17780D02*
D03*
Y-297225D02*
D03*
D73*
X-187458Y-149358D02*
D03*
X-163062Y-124962D02*
D03*
X-211322Y-169412D02*
D03*
X-235718Y-193808D02*
D03*
D74*
X336550Y106850D02*
D03*
Y159850D02*
D03*
D75*
X184760Y-135890D02*
D03*
D76*
X148880Y-163390D02*
D03*
Y-158390D02*
D03*
Y-153390D02*
D03*
Y-148390D02*
D03*
Y-143390D02*
D03*
Y-138390D02*
D03*
Y-133390D02*
D03*
Y-128390D02*
D03*
Y-123390D02*
D03*
Y-118390D02*
D03*
Y-113390D02*
D03*
Y-108390D02*
D03*
X216880D02*
D03*
Y-113390D02*
D03*
X216880Y-118390D02*
D03*
Y-123390D02*
D03*
Y-128390D02*
D03*
Y-133390D02*
D03*
Y-138390D02*
D03*
X216880Y-143390D02*
D03*
Y-148390D02*
D03*
X216880Y-153390D02*
D03*
Y-158390D02*
D03*
Y-163390D02*
D03*
D77*
X155380Y-101890D02*
D03*
X160380D02*
D03*
X165380D02*
D03*
X170380D02*
D03*
X175380D02*
D03*
X180380D02*
D03*
X185380D02*
D03*
X190380D02*
D03*
X195380D02*
D03*
X200380D02*
D03*
X205380D02*
D03*
X210380D02*
D03*
Y-169890D02*
D03*
X205380D02*
D03*
X200380D02*
D03*
X195380Y-169890D02*
D03*
X190380D02*
D03*
X185380Y-169890D02*
D03*
X180380D02*
D03*
X175380D02*
D03*
X170380D02*
D03*
X165380D02*
D03*
X160380Y-169890D02*
D03*
X155380D02*
D03*
D78*
X-64380Y-254000D02*
D03*
X-47380Y-247500D02*
D03*
Y-260500D02*
D03*
X-64380Y-281940D02*
D03*
X-47380Y-275440D02*
D03*
Y-288440D02*
D03*
D79*
X387350Y143190D02*
D03*
Y103190D02*
D03*
D80*
X223200Y448310D02*
D03*
X246700D02*
D03*
X-308290Y283210D02*
D03*
X-331790D02*
D03*
D81*
X-66940Y-434340D02*
D03*
X-52440D02*
D03*
X-175630Y-466090D02*
D03*
X-190130D02*
D03*
X-161660Y-449580D02*
D03*
X-176160D02*
D03*
X-175630Y-417830D02*
D03*
X-190130D02*
D03*
X-161660Y-434340D02*
D03*
X-176160D02*
D03*
X-52970Y-466090D02*
D03*
X-38470D02*
D03*
X-66940Y-449580D02*
D03*
X-52440D02*
D03*
X-52970Y-417830D02*
D03*
X-38470D02*
D03*
D82*
X95250Y-176920D02*
D03*
D83*
Y-200670D02*
D03*
D84*
X-147512Y-160918D02*
D03*
X-165472Y-178878D02*
D03*
X-101408Y-242942D02*
D03*
X-83448Y-224982D02*
D03*
X-188152Y-201558D02*
D03*
X-206112Y-219518D02*
D03*
X-142048Y-283582D02*
D03*
X-124088Y-265622D02*
D03*
D85*
X71910Y-210820D02*
D03*
X11910D02*
D03*
D86*
X-202820Y-303144D02*
D03*
X-211801Y-294164D02*
D03*
X-220781Y-285183D02*
D03*
X-229761Y-276203D02*
D03*
X-238741Y-267223D02*
D03*
X-283643Y-222322D02*
D03*
X-274662Y-231302D02*
D03*
X-265682Y-240282D02*
D03*
X-256702Y-249262D02*
D03*
X-247722Y-258243D02*
D03*
X-292623Y-213341D02*
D03*
X-301603Y-204361D02*
D03*
X-310583Y-195381D02*
D03*
X-319564Y-186401D02*
D03*
X-328544Y-177420D02*
D03*
X-230256Y-330580D02*
D03*
X-239236Y-321599D02*
D03*
X-248217Y-312619D02*
D03*
X-257197Y-303639D02*
D03*
X-266177Y-294659D02*
D03*
X-311078Y-249757D02*
D03*
X-302098Y-258738D02*
D03*
X-293118Y-267718D02*
D03*
X-284138Y-276698D02*
D03*
X-275157Y-285678D02*
D03*
X-320059Y-240777D02*
D03*
X-329039Y-231797D02*
D03*
X-338019Y-222817D02*
D03*
X-346999Y-213836D02*
D03*
X-355980Y-204856D02*
D03*
D87*
X-17780Y-235420D02*
D03*
Y-262420D02*
D03*
X-38100Y-210350D02*
D03*
Y-183350D02*
D03*
D88*
X196690Y15240D02*
D03*
X176690D02*
D03*
D89*
X122613Y-193733D02*
D03*
X133927Y-205047D02*
D03*
D90*
X144203Y-273627D02*
D03*
X155517Y-262313D02*
D03*
X141547Y-219133D02*
D03*
X130233Y-230447D02*
D03*
X317616Y-117994D02*
D03*
X328930Y-106680D02*
D03*
X232410Y-195580D02*
D03*
X243724Y-184266D02*
D03*
D91*
X230450Y431800D02*
D03*
X239450D02*
D03*
X217860Y-82550D02*
D03*
X208860D02*
D03*
X-128960Y-480060D02*
D03*
X-119960D02*
D03*
X-128960Y-403860D02*
D03*
X-119960D02*
D03*
X-99640Y-480060D02*
D03*
X-108640D02*
D03*
X-99640Y-403860D02*
D03*
X-108640D02*
D03*
X103450Y379730D02*
D03*
X112450D02*
D03*
X103450Y365760D02*
D03*
X112450D02*
D03*
X-344750Y-148590D02*
D03*
X-353750D02*
D03*
X-318190Y-138430D02*
D03*
X-309190D02*
D03*
X-318190Y-127000D02*
D03*
X-309190D02*
D03*
X-316810Y267970D02*
D03*
X-325810D02*
D03*
D92*
X279400Y16350D02*
D03*
Y-3650D02*
D03*
X260350Y15080D02*
D03*
Y-4920D02*
D03*
D93*
X280982Y-345752D02*
D03*
X318458Y-383228D02*
D03*
X237802Y-388932D02*
D03*
X275278Y-426408D02*
D03*
X410522Y-216212D02*
D03*
X447998Y-253688D02*
D03*
X367342Y-259392D02*
D03*
X404818Y-296868D02*
D03*
X324162Y-302572D02*
D03*
X361638Y-340048D02*
D03*
D94*
X111211Y-232959D02*
D03*
X97069Y-247101D02*
D03*
X193589Y-216621D02*
D03*
X207731Y-202479D02*
D03*
D95*
X480688Y-205112D02*
D03*
X487052Y-198748D02*
D03*
X140342Y-174618D02*
D03*
X133978Y-180982D02*
D03*
D96*
X125730Y-158060D02*
D03*
Y-167060D02*
D03*
X-64770Y-207700D02*
D03*
Y-198700D02*
D03*
X-5080Y-287600D02*
D03*
Y-296600D02*
D03*
X-212090Y-399360D02*
D03*
Y-408360D02*
D03*
D97*
X-103512Y-319398D02*
D03*
X-97148Y-325762D02*
D03*
X-95892Y-311778D02*
D03*
X-89528Y-318142D02*
D03*
D98*
X-88900Y412400D02*
D03*
X-76200D02*
D03*
X-63500D02*
D03*
X-50800D02*
D03*
X-38100D02*
D03*
X25400D02*
D03*
X12700D02*
D03*
X0D02*
D03*
X-12700D02*
D03*
X-25400D02*
D03*
X38100D02*
D03*
X50800D02*
D03*
X63500D02*
D03*
X76200D02*
D03*
X88900D02*
D03*
X-88900Y451200D02*
D03*
X-76200D02*
D03*
X-63500D02*
D03*
X-50800D02*
D03*
X-38100D02*
D03*
X25400D02*
D03*
X12700D02*
D03*
X0D02*
D03*
X-12700D02*
D03*
X-25400D02*
D03*
X38100D02*
D03*
X50800D02*
D03*
X63500D02*
D03*
X76200D02*
D03*
X88900D02*
D03*
D99*
X-194265Y-378460D02*
D03*
X-204515D02*
D03*
X-194265Y-367030D02*
D03*
X-204515D02*
D03*
Y-355600D02*
D03*
X-194265D02*
D03*
X22905Y-256540D02*
D03*
X12655D02*
D03*
X44495D02*
D03*
X34245D02*
D03*
X-139655Y-480060D02*
D03*
X-149905D02*
D03*
X-139655Y-403860D02*
D03*
X-149905D02*
D03*
X-88945Y-480060D02*
D03*
X-78695D02*
D03*
X-88945Y-403860D02*
D03*
X-78695D02*
D03*
D100*
X-10160Y-193990D02*
D03*
Y-217490D02*
D03*
X-227330Y-394650D02*
D03*
Y-418150D02*
D03*
D101*
X-116654Y-293556D02*
D03*
X-97604Y-274506D02*
D03*
X-90356Y-281754D02*
D03*
X-87444Y-264346D02*
D03*
X-80196Y-271594D02*
D03*
X-106494Y-283396D02*
D03*
X-99246Y-290644D02*
D03*
X-111946Y-342714D02*
D03*
X-119194Y-335466D02*
D03*
X-72576Y-303344D02*
D03*
X-79824Y-296096D02*
D03*
X-111574Y-327846D02*
D03*
X-104326Y-335094D02*
D03*
X-87444Y-303716D02*
D03*
X-80196Y-310964D02*
D03*
D102*
X-109406Y-300804D02*
D03*
D103*
X132015Y-443461D02*
D03*
D104*
X48723Y-460420D02*
D03*
D105*
X393700Y-45720D02*
D03*
X-381000Y0D02*
D03*
D106*
X393700Y45720D02*
D03*
D107*
X502520Y83820D02*
D03*
X474580Y181610D02*
D03*
D108*
X452520Y83820D02*
D03*
X424580Y181610D02*
D03*
D109*
X500000Y0D02*
D03*
D110*
X-409600Y286800D02*
D03*
X286800Y409600D02*
D03*
X-286800Y-409600D02*
D03*
D111*
X284480Y-284480D02*
D03*
X213360Y-342900D02*
D03*
X342900Y-212090D02*
D03*
D112*
X420370Y295910D02*
D03*
D113*
X444500Y248920D02*
D03*
X5080Y-314960D02*
D03*
D114*
X369347Y310103D02*
D03*
X358740Y320710D02*
D03*
X348134Y331316D02*
D03*
X379953Y299497D02*
D03*
X390560Y288890D02*
D03*
X337527Y341923D02*
D03*
X401166Y278284D02*
D03*
X411773Y267677D02*
D03*
D115*
X212396Y-34875D02*
D03*
X206516Y-38876D02*
D03*
X232574Y-19812D02*
D03*
X226234Y-23034D02*
D03*
X220519Y-28749D02*
D03*
X266700Y448310D02*
D03*
X331470Y396240D02*
D03*
X-260350Y-448310D02*
D03*
X-330200Y-396240D02*
D03*
X307390Y-209295D02*
D03*
X101600Y461010D02*
D03*
X52070Y-480060D02*
D03*
X76200Y-444500D02*
D03*
X80010Y-369570D02*
D03*
Y-431800D02*
D03*
X453390Y-173990D02*
D03*
X467360Y-220980D02*
D03*
X450850Y-189230D02*
D03*
X453839Y-275396D02*
D03*
X447723Y-285231D02*
D03*
X428109Y-313903D02*
D03*
X419100Y-309880D02*
D03*
X421160Y-323167D02*
D03*
X408940Y-320040D02*
D03*
X388620Y-340360D02*
D03*
X378460Y-350520D02*
D03*
X327660Y-401320D02*
D03*
X294930Y-441394D02*
D03*
X285231Y-447723D02*
D03*
X213802Y-485902D02*
D03*
X0Y-381647D02*
D03*
X62230Y-410464D02*
D03*
X-12700Y-384810D02*
D03*
X186690Y-300990D02*
D03*
X181610Y-295910D02*
D03*
X275590Y-237490D02*
D03*
X278782Y-231336D02*
D03*
X339090Y-168910D02*
D03*
X394970Y-115570D02*
D03*
X389890Y171450D02*
D03*
X391160Y161290D02*
D03*
X379730Y166370D02*
D03*
X374650Y175260D02*
D03*
X364490D02*
D03*
X355600Y179070D02*
D03*
X346710Y184150D02*
D03*
X344422Y7368D02*
D03*
X338707Y1653D02*
D03*
X511810Y-83820D02*
D03*
X491490Y-68580D02*
D03*
X487680Y-160020D02*
D03*
X452120Y-127000D02*
D03*
X468359Y-210820D02*
D03*
X-307340Y385318D02*
D03*
X-63500Y379730D02*
D03*
X-314960Y379222D02*
D03*
X-321310Y391160D02*
D03*
X-443738Y-212090D02*
D03*
X-251460D02*
D03*
X-50800Y373380D02*
D03*
X-327660D02*
D03*
X-50800Y393700D02*
D03*
X-63500D02*
D03*
X-76200D02*
D03*
X-88900D02*
D03*
X101600Y438150D02*
D03*
Y445770D02*
D03*
Y453390D02*
D03*
X57793Y527705D02*
D03*
X160020Y-59690D02*
D03*
X156210Y-63500D02*
D03*
X166370Y13970D02*
D03*
Y21590D02*
D03*
X160822Y-78925D02*
D03*
X167737Y-77263D02*
D03*
X173325Y-81662D02*
D03*
X179070Y-77470D02*
D03*
X141173Y-106734D02*
D03*
X136633Y-112292D02*
D03*
X-58081Y-155847D02*
D03*
X-57822Y-281773D02*
D03*
X268609Y-142528D02*
D03*
X341688Y-59290D02*
D03*
X-55880Y-205740D02*
D03*
X127868Y-185092D02*
D03*
X447723Y285231D02*
D03*
X86360Y325882D02*
D03*
X55880Y333502D02*
D03*
X163830Y-125730D02*
D03*
Y-116840D02*
D03*
X297180Y-431800D02*
D03*
X429260Y-299720D02*
D03*
X398780Y-330200D02*
D03*
X368300Y-360680D02*
D03*
X358140Y-370840D02*
D03*
X347980Y-381000D02*
D03*
X337820Y-391160D02*
D03*
X317500Y-411480D02*
D03*
X307340Y-421640D02*
D03*
X-254385Y-159509D02*
D03*
X-243840Y-152400D02*
D03*
X-234950Y-146050D02*
D03*
X-226060Y-139700D02*
D03*
X-148590Y-93980D02*
D03*
X-157480Y-99060D02*
D03*
X-165100Y-104140D02*
D03*
X-187960Y-118110D02*
D03*
X-196850Y-124460D02*
D03*
X-207010Y-129540D02*
D03*
X-217170Y-133350D02*
D03*
X-301836Y-95169D02*
D03*
X-304602Y-85907D02*
D03*
X-307083Y-76564D02*
D03*
X-309278Y-67151D02*
D03*
X-311184Y-57675D02*
D03*
X-312801Y-48145D02*
D03*
X-314125Y-38570D02*
D03*
X-315156Y-28959D02*
D03*
X-315894Y-19321D02*
D03*
X-316336Y-9665D02*
D03*
X304974Y84577D02*
D03*
X302248Y93851D02*
D03*
X299242Y103037D02*
D03*
X295955Y112127D02*
D03*
X292393Y121113D02*
D03*
X288558Y129986D02*
D03*
X284454Y138737D02*
D03*
X280084Y147360D02*
D03*
X275454Y155844D02*
D03*
X270566Y164183D02*
D03*
X265426Y172369D02*
D03*
X260038Y180395D02*
D03*
X254408Y188252D02*
D03*
X186025Y256041D02*
D03*
X178119Y261602D02*
D03*
X170047Y266920D02*
D03*
X161816Y271988D02*
D03*
X153434Y276803D02*
D03*
X144910Y281360D02*
D03*
X136250Y285654D02*
D03*
X127463Y289681D02*
D03*
X118557Y293439D02*
D03*
X109541Y296922D02*
D03*
X-61743Y310403D02*
D03*
X-71193Y308372D02*
D03*
X-80577Y306055D02*
D03*
X-89886Y303451D02*
D03*
X-99111Y300565D02*
D03*
X-108244Y297398D02*
D03*
X-117275Y293953D02*
D03*
X-126198Y290235D02*
D03*
X-135002Y286246D02*
D03*
X-143681Y281989D02*
D03*
X-152225Y277470D02*
D03*
X-160628Y272692D02*
D03*
X-168881Y267659D02*
D03*
X-176976Y262377D02*
D03*
X-184906Y256850D02*
D03*
X-192663Y251084D02*
D03*
X-200241Y245083D02*
D03*
X-207632Y238853D02*
D03*
X-214830Y232401D02*
D03*
X-221827Y225732D02*
D03*
X-228617Y218853D02*
D03*
X-235194Y211769D02*
D03*
X-241551Y204488D02*
D03*
X-247683Y197016D02*
D03*
X-253584Y189360D02*
D03*
X-259249Y181528D02*
D03*
X-264671Y173526D02*
D03*
X-269847Y165362D02*
D03*
X-274771Y157045D02*
D03*
X-279439Y148580D02*
D03*
X-283846Y139977D02*
D03*
X-287988Y131244D02*
D03*
X-291862Y122388D02*
D03*
X-295463Y113418D02*
D03*
X-298789Y104342D02*
D03*
X-301836Y95169D02*
D03*
X-304602Y85907D02*
D03*
X-307083Y76564D02*
D03*
X-309278Y67151D02*
D03*
X-311184Y57675D02*
D03*
X-312801Y48145D02*
D03*
X-314125Y38570D02*
D03*
X-315156Y28959D02*
D03*
X-315894Y19321D02*
D03*
X-316336Y9665D02*
D03*
X-316484Y0D02*
D03*
X235571Y-466565D02*
D03*
X-530733Y11581D02*
D03*
X-530355Y23156D02*
D03*
X-529723Y34720D02*
D03*
X-528840Y46267D02*
D03*
X-527705Y57793D02*
D03*
X-526318Y69291D02*
D03*
X-524681Y80756D02*
D03*
X-522795Y92183D02*
D03*
X-520659Y103566D02*
D03*
X-518276Y114899D02*
D03*
X-515647Y126178D02*
D03*
X-512771Y137397D02*
D03*
X-509652Y148550D02*
D03*
X-506290Y159633D02*
D03*
X-502687Y170639D02*
D03*
X-498845Y181565D02*
D03*
X-494766Y192404D02*
D03*
X-490451Y203151D02*
D03*
X-485902Y213802D02*
D03*
X-481122Y224351D02*
D03*
X-476114Y234793D02*
D03*
X-470878Y245124D02*
D03*
X-465419Y255338D02*
D03*
X-459738Y265430D02*
D03*
X-453838Y275396D02*
D03*
X-414009Y332278D02*
D03*
X-406662Y341230D02*
D03*
X-399122Y350020D02*
D03*
X-391391Y358644D02*
D03*
X-383474Y367096D02*
D03*
X-375374Y375375D02*
D03*
X-367096Y383474D02*
D03*
X-358644Y391391D02*
D03*
X-350020Y399122D02*
D03*
X-341230Y406662D02*
D03*
X-332278Y414009D02*
D03*
X-323167Y421160D02*
D03*
X-313902Y428109D02*
D03*
X-304489Y434855D02*
D03*
X-294930Y441394D02*
D03*
X-285231Y447723D02*
D03*
X-275396Y453838D02*
D03*
X-265430Y459738D02*
D03*
X-255338Y465419D02*
D03*
X-245124Y470878D02*
D03*
X-234793Y476114D02*
D03*
X-224351Y481122D02*
D03*
X-213802Y485902D02*
D03*
X-203151Y490451D02*
D03*
X-192404Y494766D02*
D03*
X-181565Y498845D02*
D03*
X-170639Y502687D02*
D03*
X-159633Y506290D02*
D03*
X-148550Y509652D02*
D03*
X-137397Y512771D02*
D03*
X-126178Y515647D02*
D03*
X-114899Y518276D02*
D03*
X-103566Y520659D02*
D03*
X-92183Y522795D02*
D03*
X-80756Y524681D02*
D03*
X-34720Y529723D02*
D03*
X-23156Y530355D02*
D03*
X-11581Y530733D02*
D03*
X0Y530860D02*
D03*
X11581Y530733D02*
D03*
X23156Y530355D02*
D03*
X34720Y529723D02*
D03*
X46268Y528840D02*
D03*
X69291Y526318D02*
D03*
X80756Y524681D02*
D03*
X148550Y509652D02*
D03*
X159633Y506290D02*
D03*
X170639Y502687D02*
D03*
X181565Y498845D02*
D03*
X192404Y494766D02*
D03*
X203151Y490451D02*
D03*
X213802Y485902D02*
D03*
X224351Y481122D02*
D03*
X234793Y476114D02*
D03*
X245124Y470878D02*
D03*
X255338Y465419D02*
D03*
X265430Y459738D02*
D03*
X275396Y453838D02*
D03*
X332278Y414009D02*
D03*
X341230Y406662D02*
D03*
X350020Y399122D02*
D03*
X358644Y391391D02*
D03*
X367097Y383474D02*
D03*
X375375Y375375D02*
D03*
X383474Y367096D02*
D03*
X391391Y358644D02*
D03*
X399122Y350020D02*
D03*
X406662Y341230D02*
D03*
X414010Y332278D02*
D03*
X434855Y304489D02*
D03*
X441394Y294930D02*
D03*
X453839Y275396D02*
D03*
X459738Y265430D02*
D03*
X441394Y-294930D02*
D03*
X434855Y-304489D02*
D03*
X414010Y-332278D02*
D03*
X406662Y-341230D02*
D03*
X399122Y-350020D02*
D03*
X391391Y-358644D02*
D03*
X383474Y-367097D02*
D03*
X375375Y-375375D02*
D03*
X367097Y-383474D02*
D03*
X358644Y-391391D02*
D03*
X350020Y-399122D02*
D03*
X341230Y-406662D02*
D03*
X332278Y-414010D02*
D03*
X323167Y-421160D02*
D03*
X313903Y-428109D02*
D03*
X304489Y-434855D02*
D03*
X275396Y-453839D02*
D03*
X11581Y-530734D02*
D03*
X0Y-530860D02*
D03*
X-11581Y-530734D02*
D03*
X-148550Y-509652D02*
D03*
X-159633Y-506290D02*
D03*
X-170639Y-502687D02*
D03*
X-203151Y-490451D02*
D03*
X-224351Y-481123D02*
D03*
X-234793Y-476114D02*
D03*
X-245124Y-470879D02*
D03*
X-255338Y-465419D02*
D03*
X-265430Y-459738D02*
D03*
X-275396Y-453839D02*
D03*
X-332278Y-414010D02*
D03*
X-341230Y-406662D02*
D03*
X-350020Y-399122D02*
D03*
X-358644Y-391391D02*
D03*
X-367097Y-383474D02*
D03*
X-375375Y-375375D02*
D03*
X-383474Y-367097D02*
D03*
X-391391Y-358644D02*
D03*
X-399122Y-350020D02*
D03*
X-406662Y-341230D02*
D03*
X-414010Y-332278D02*
D03*
X-421160Y-323167D02*
D03*
X-428109Y-313903D02*
D03*
X-434855Y-304489D02*
D03*
X-441394Y-294930D02*
D03*
X-447723Y-285231D02*
D03*
X-453839Y-275396D02*
D03*
X-459738Y-265430D02*
D03*
X-465419Y-255338D02*
D03*
X-470879Y-245124D02*
D03*
X-476114Y-234793D02*
D03*
X-481123Y-224351D02*
D03*
X-485902Y-213802D02*
D03*
X-490451Y-203151D02*
D03*
X-498845Y-181565D02*
D03*
X-502687Y-170639D02*
D03*
X-506290Y-159633D02*
D03*
X-509652Y-148550D02*
D03*
X-512771Y-137397D02*
D03*
X-515647Y-126178D02*
D03*
X-518276Y-114899D02*
D03*
X-520660Y-103566D02*
D03*
X-522795Y-92183D02*
D03*
X-524682Y-80756D02*
D03*
X-526318Y-69291D02*
D03*
X-527705Y-57793D02*
D03*
X-528840Y-46267D02*
D03*
X-529723Y-34720D02*
D03*
X-530355Y-23156D02*
D03*
X-530734Y-11581D02*
D03*
X-530860Y0D02*
D03*
X243840Y-445770D02*
D03*
X238760Y-439420D02*
D03*
X106680Y-430530D02*
D03*
X176530Y-427482D02*
D03*
X214630Y-440690D02*
D03*
X398780Y-271780D02*
D03*
X368300Y-308610D02*
D03*
X175260Y-482600D02*
D03*
X-347980Y-133350D02*
D03*
X-340360D02*
D03*
X-309880Y-119380D02*
D03*
X-308610Y-147320D02*
D03*
X-363220Y-148590D02*
D03*
X-368300Y-217170D02*
D03*
X-342900Y-193040D02*
D03*
X-251460Y-334010D02*
D03*
X-226060Y-309880D02*
D03*
X-64770Y-191770D02*
D03*
X-30480Y-173990D02*
D03*
X-38100D02*
D03*
X-26670Y-271780D02*
D03*
X-17780D02*
D03*
X-20955Y-356220D02*
D03*
X2540Y-265430D02*
D03*
X-3810Y-359268D02*
D03*
X-5080Y-272492D02*
D03*
X80010Y-514350D02*
D03*
X121239Y-493344D02*
D03*
X68580Y-439420D02*
D03*
X53340Y-431800D02*
D03*
Y-369570D02*
D03*
X53519Y-342686D02*
D03*
X109220Y-374650D02*
D03*
X90170Y-210820D02*
D03*
X85090Y-250190D02*
D03*
X-24678Y-287020D02*
D03*
X52070Y-256540D02*
D03*
X-265430Y-177800D02*
D03*
X-257810Y-177800D02*
D03*
X-55880Y-212090D02*
D03*
X-49530Y-167640D02*
D03*
X-43235Y-221720D02*
D03*
X-273050Y-198120D02*
D03*
X-276860Y-255270D02*
D03*
X-54610Y-318770D02*
D03*
X-63500Y-299720D02*
D03*
X-89139Y-522230D02*
D03*
X-346710Y-266700D02*
D03*
X195439Y-409398D02*
D03*
X-342900Y-242909D02*
D03*
X-355600Y-240030D02*
D03*
X-369570Y-234950D02*
D03*
X-309372Y-300990D02*
D03*
X-320802Y-295910D02*
D03*
X-339090Y-288290D02*
D03*
X-24130Y-502920D02*
D03*
X-12700Y-507238D02*
D03*
X0Y-505126D02*
D03*
X93980Y-514350D02*
D03*
X66040D02*
D03*
X-97790Y-434848D02*
D03*
Y-441960D02*
D03*
Y-449580D02*
D03*
X-88900Y-472440D02*
D03*
X-210820Y-481330D02*
D03*
X0Y-444120D02*
D03*
X-151130Y-367030D02*
D03*
X-133350Y-337820D02*
D03*
X-144780Y-327660D02*
D03*
X-137160Y-302260D02*
D03*
X-143510Y-250190D02*
D03*
X-297180Y-234950D02*
D03*
X-119380Y-375920D02*
D03*
X-109220Y-313690D02*
D03*
X-85090Y-287020D02*
D03*
X-252730Y-281940D02*
D03*
X-332740Y-375920D02*
D03*
X-326390Y-367030D02*
D03*
X-332740Y-199390D02*
D03*
X-314960Y-355600D02*
D03*
X-326390Y-207010D02*
D03*
X-314960Y-215900D02*
D03*
X-195580Y-345440D02*
D03*
X-212090Y-355600D02*
D03*
Y-367030D02*
D03*
Y-378460D02*
D03*
X-116840Y-468630D02*
D03*
X-198120Y-466090D02*
D03*
X-218440Y-472440D02*
D03*
Y-344170D02*
D03*
X-182880Y-346710D02*
D03*
X-174244Y-355600D02*
D03*
X-298450Y-344170D02*
D03*
X-265430Y-327660D02*
D03*
X-128960Y-491420D02*
D03*
X0Y355329D02*
D03*
X-12700Y340360D02*
D03*
X6350Y347980D02*
D03*
X-281940Y340360D02*
D03*
X-389890Y-318770D02*
D03*
X-24130Y361950D02*
D03*
X-288290D02*
D03*
X-396240Y-337820D02*
D03*
X-73660Y-318770D02*
D03*
X-12700Y393700D02*
D03*
X8890Y391160D02*
D03*
X25400Y355600D02*
D03*
X-294640D02*
D03*
X-419100Y-220980D02*
D03*
X0Y392921D02*
D03*
X-25400Y393700D02*
D03*
X-300990Y347980D02*
D03*
X-425450Y-248920D02*
D03*
X-38100Y393700D02*
D03*
X-432054Y-170180D02*
D03*
X-437896Y-187960D02*
D03*
X-449580Y-228600D02*
D03*
X-173990Y-187960D02*
D03*
X-215900Y-140970D02*
D03*
Y-228600D02*
D03*
X-74930Y-160020D02*
D03*
X-97790Y-170180D02*
D03*
X-102870Y-143510D02*
D03*
X-127000Y-149860D02*
D03*
X-174574Y-224104D02*
D03*
X-194198Y-248497D02*
D03*
X-156210Y-209550D02*
D03*
X-181610Y-234950D02*
D03*
X-113030Y-232410D02*
D03*
X-153670Y-273050D02*
D03*
X-24591Y-319278D02*
D03*
X-31750Y-369570D02*
D03*
X-173990Y-372110D02*
D03*
X-38100Y-313690D02*
D03*
Y-363220D02*
D03*
X-44450Y-308610D02*
D03*
Y-355600D02*
D03*
X-173990Y-363220D02*
D03*
X13970Y363220D02*
D03*
X63500Y346710D02*
D03*
X129489Y325207D02*
D03*
X144780Y331470D02*
D03*
X32440Y365252D02*
D03*
X106448Y358088D02*
D03*
X128270Y363220D02*
D03*
X121519Y368653D02*
D03*
X125575Y374495D02*
D03*
X138891Y382731D02*
D03*
X25400Y394462D02*
D03*
X179070Y-467360D02*
D03*
X119380Y403860D02*
D03*
X43688Y379730D02*
D03*
X45720Y393700D02*
D03*
X111760Y396240D02*
D03*
X77470Y389890D02*
D03*
X120650Y380238D02*
D03*
X70612Y375920D02*
D03*
X210820Y-27940D02*
D03*
X212245Y-20512D02*
D03*
X213498Y-13511D02*
D03*
X214752Y-6511D02*
D03*
X215900Y508D02*
D03*
X116840Y355600D02*
D03*
X114300Y347980D02*
D03*
X38100Y339090D02*
D03*
X109220D02*
D03*
X76200Y433070D02*
D03*
X63500D02*
D03*
X50800D02*
D03*
X38100D02*
D03*
X25400D02*
D03*
X12700D02*
D03*
X-110490Y-468630D02*
D03*
Y-414020D02*
D03*
X-118110D02*
D03*
X-198120Y-393700D02*
D03*
X91440Y-331470D02*
D03*
X173990Y-492760D02*
D03*
X192350Y-466990D02*
D03*
X184360Y-444500D02*
D03*
X-176530Y-388620D02*
D03*
X-17780Y-449580D02*
D03*
X-30480Y-494030D02*
D03*
Y-466090D02*
D03*
X-44450Y-449580D02*
D03*
Y-434340D02*
D03*
X-30480Y-417830D02*
D03*
X-200660D02*
D03*
X-186690Y-434340D02*
D03*
Y-449580D02*
D03*
X-130810Y-434086D02*
D03*
Y-441198D02*
D03*
Y-448310D02*
D03*
X152400Y-414274D02*
D03*
X130810Y-397510D02*
D03*
X128270Y-386640D02*
D03*
X146050Y-449580D02*
D03*
X152400Y-458470D02*
D03*
Y-491490D02*
D03*
X120650Y-462280D02*
D03*
X121920Y-375920D02*
D03*
X21590Y-467360D02*
D03*
X109220Y-476250D02*
D03*
X107950Y-406400D02*
D03*
X175260Y-441960D02*
D03*
X121920Y-406400D02*
D03*
X167640Y-407670D02*
D03*
X178140Y-398780D02*
D03*
X105410Y-344170D02*
D03*
X-43180Y-299720D02*
D03*
X-85090Y-255270D02*
D03*
X-111760Y-278130D02*
D03*
X-87630Y-294640D02*
D03*
X-124460Y-330200D02*
D03*
X-97891Y-302513D02*
D03*
X-54610Y-247650D02*
D03*
X-105410Y-306070D02*
D03*
X-95250Y-295910D02*
D03*
X-55880Y-270510D02*
D03*
X-54610Y-288290D02*
D03*
Y-259080D02*
D03*
X436880Y-231140D02*
D03*
X328930Y-347980D02*
D03*
X292100Y-370840D02*
D03*
X252730Y-410210D02*
D03*
X87630Y-154940D02*
D03*
X93980D02*
D03*
X100330Y-147320D02*
D03*
X134620Y-157480D02*
D03*
X140970Y-161290D02*
D03*
X134383Y-142477D02*
D03*
X138430Y-138430D02*
D03*
X140803Y-123708D02*
D03*
X148590Y-101600D02*
D03*
X165100Y-135890D02*
D03*
X187960Y-184150D02*
D03*
Y-189230D02*
D03*
X273050Y-223520D02*
D03*
X336550Y-121920D02*
D03*
X314104Y-101186D02*
D03*
X337820Y-55880D02*
D03*
X195703Y-185725D02*
D03*
X205740Y-184150D02*
D03*
X204470Y-179070D02*
D03*
X214014Y-180994D02*
D03*
X220353Y-175847D02*
D03*
X224452Y-164168D02*
D03*
X225676Y-159232D02*
D03*
X232001Y-151281D02*
D03*
X236220Y-144780D02*
D03*
X230467Y-144259D02*
D03*
X247650Y-123190D02*
D03*
X238760Y-134620D02*
D03*
X233680D02*
D03*
X232664Y-109220D02*
D03*
X233680Y-118110D02*
D03*
X238760D02*
D03*
X273050Y-147320D02*
D03*
D116*
X240030Y-269240D02*
D03*
X245110Y-274320D02*
D03*
X171167Y-217453D02*
D03*
X169778Y-228994D02*
D03*
X176305Y-222590D02*
D03*
X162560Y-226060D02*
D03*
X160020Y-218440D02*
D03*
X295910Y-87630D02*
D03*
X289560Y-93980D02*
D03*
X283210Y-100330D02*
D03*
X276860Y-106680D02*
D03*
X106680Y-280670D02*
D03*
X113030Y-274320D02*
D03*
X119380Y-267970D02*
D03*
X125730Y-261620D02*
D03*
X280670Y-114300D02*
D03*
X287020Y-107950D02*
D03*
X293370Y-101600D02*
D03*
X299720Y-95250D02*
D03*
X232410Y-227076D02*
D03*
X224790Y-233680D02*
D03*
X218440Y-227330D02*
D03*
X140701Y-247919D02*
D03*
X267970Y-118110D02*
D03*
X260350Y-111760D02*
D03*
Y-119380D02*
D03*
X259080Y-127000D02*
D03*
X248920Y-139700D02*
D03*
X236220Y-162560D02*
D03*
X262890Y-134620D02*
D03*
X266700Y-125730D02*
D03*
X254000Y-133350D02*
D03*
X256540Y-140970D02*
D03*
X241300Y-157480D02*
D03*
X246380Y-152400D02*
D03*
X251460Y-147320D02*
D03*
X309880Y-78740D02*
D03*
X314960Y-73660D02*
D03*
X320040Y-68580D02*
D03*
X317500Y-81280D02*
D03*
X312420Y-86360D02*
D03*
X322580Y-76200D02*
D03*
X327660Y-71120D02*
D03*
X325120Y-63500D02*
D03*
X307340Y-71120D02*
D03*
X312420Y-66040D02*
D03*
X317500Y-60960D02*
D03*
X302260Y-76200D02*
D03*
X322580Y-55880D02*
D03*
X332740Y-66040D02*
D03*
X139700Y-238760D02*
D03*
X154940Y-223520D02*
D03*
X149860Y-228600D02*
D03*
X144780Y-233680D02*
D03*
X165100D02*
D03*
X160020Y-238760D02*
D03*
X149860Y-248920D02*
D03*
X154940Y-243840D02*
D03*
X157480Y-231140D02*
D03*
X152400Y-236220D02*
D03*
X147320Y-241300D02*
D03*
X134620Y-264160D02*
D03*
X128270Y-270510D02*
D03*
X121920Y-276860D02*
D03*
X115570Y-283210D02*
D03*
X109220Y-289560D02*
D03*
X175260Y-350520D02*
D03*
X168910Y-344170D02*
D03*
X344170Y-177800D02*
D03*
X336550D02*
D03*
M02*
