G04*
G04 #@! TF.GenerationSoftware,Altium Limited,Altium Designer,24.1.2 (44)*
G04*
G04 Layer_Color=128*
%FSLAX44Y44*%
%MOMM*%
G71*
G04*
G04 #@! TF.SameCoordinates,C067CD15-9508-4875-9725-B3D5D2F0FA69*
G04*
G04*
G04 #@! TF.FilePolarity,Positive*
G04*
G01*
G75*
%ADD29R,0.5000X0.4750*%
%ADD42R,0.6500X0.9000*%
G04:AMPARAMS|DCode=54|XSize=1mm|YSize=0.95mm|CornerRadius=0mm|HoleSize=0mm|Usage=FLASHONLY|Rotation=135.000|XOffset=0mm|YOffset=0mm|HoleType=Round|Shape=Rectangle|*
%AMROTATEDRECTD54*
4,1,4,0.6894,-0.0177,0.0177,-0.6894,-0.6894,0.0177,-0.0177,0.6894,0.6894,-0.0177,0.0*
%
%ADD54ROTATEDRECTD54*%

%ADD55R,0.6200X0.6200*%
%ADD61P,0.8768X4X180.0*%
%ADD62R,0.6200X0.6200*%
%ADD65R,0.4750X0.5000*%
%ADD66R,1.1500X1.1500*%
G04:AMPARAMS|DCode=68|XSize=0.5mm|YSize=0.475mm|CornerRadius=0mm|HoleSize=0mm|Usage=FLASHONLY|Rotation=315.000|XOffset=0mm|YOffset=0mm|HoleType=Round|Shape=Rectangle|*
%AMROTATEDRECTD68*
4,1,4,-0.3447,0.0088,-0.0088,0.3447,0.3447,-0.0088,0.0088,-0.3447,-0.3447,0.0088,0.0*
%
%ADD68ROTATEDRECTD68*%

%ADD142R,0.7000X0.6000*%
%ADD143O,1.5500X0.6000*%
G04:AMPARAMS|DCode=144|XSize=0.71mm|YSize=1.372mm|CornerRadius=0mm|HoleSize=0mm|Usage=FLASHONLY|Rotation=225.000|XOffset=0mm|YOffset=0mm|HoleType=Round|Shape=Rectangle|*
%AMROTATEDRECTD144*
4,1,4,-0.2341,0.7361,0.7361,-0.2341,0.2341,-0.7361,-0.7361,0.2341,-0.2341,0.7361,0.0*
%
%ADD144ROTATEDRECTD144*%

G04:AMPARAMS|DCode=145|XSize=4.52mm|YSize=3.85mm|CornerRadius=0mm|HoleSize=0mm|Usage=FLASHONLY|Rotation=225.000|XOffset=0mm|YOffset=0mm|HoleType=Round|Shape=Rectangle|*
%AMROTATEDRECTD145*
4,1,4,0.2369,2.9592,2.9592,0.2369,-0.2369,-2.9592,-2.9592,-0.2369,0.2369,2.9592,0.0*
%
%ADD145ROTATEDRECTD145*%

G04:AMPARAMS|DCode=146|XSize=0.6mm|YSize=1mm|CornerRadius=0mm|HoleSize=0mm|Usage=FLASHONLY|Rotation=225.000|XOffset=0mm|YOffset=0mm|HoleType=Round|Shape=Rectangle|*
%AMROTATEDRECTD146*
4,1,4,-0.1414,0.5657,0.5657,-0.1414,0.1414,-0.5657,-0.5657,0.1414,-0.1414,0.5657,0.0*
%
%ADD146ROTATEDRECTD146*%

%ADD147R,0.5500X0.5500*%
%ADD148R,3.6000X2.7000*%
G04:AMPARAMS|DCode=149|XSize=2.7mm|YSize=3.6mm|CornerRadius=0mm|HoleSize=0mm|Usage=FLASHONLY|Rotation=225.000|XOffset=0mm|YOffset=0mm|HoleType=Round|Shape=Rectangle|*
%AMROTATEDRECTD149*
4,1,4,-0.3182,2.2274,2.2274,-0.3182,0.3182,-2.2274,-2.2274,0.3182,-0.3182,2.2274,0.0*
%
%ADD149ROTATEDRECTD149*%

D29*
X-124460Y-468675D02*
D03*
Y-458425D02*
D03*
Y-413975D02*
D03*
Y-424225D02*
D03*
X-104140Y-468675D02*
D03*
Y-458425D02*
D03*
Y-415245D02*
D03*
Y-425495D02*
D03*
D42*
X167270Y-398780D02*
D03*
X152770D02*
D03*
X167270Y-383540D02*
D03*
X152770D02*
D03*
X229500Y-467360D02*
D03*
X215000D02*
D03*
X229500Y-452120D02*
D03*
X215000D02*
D03*
X167270Y-441960D02*
D03*
X152770D02*
D03*
X167270Y-426720D02*
D03*
X152770D02*
D03*
X167270Y-482600D02*
D03*
X152770D02*
D03*
X167270Y-467360D02*
D03*
X152770D02*
D03*
D54*
X122497Y-148013D02*
D03*
X111183Y-159327D02*
D03*
D55*
X465400Y-170180D02*
D03*
X474400D02*
D03*
X-194890Y-354330D02*
D03*
X-203890D02*
D03*
X-194890Y-367030D02*
D03*
X-203890D02*
D03*
X-194890Y-379730D02*
D03*
X-203890D02*
D03*
X130120Y-406400D02*
D03*
X139120D02*
D03*
X-109800Y-441960D02*
D03*
X-118800D02*
D03*
X139120Y-375920D02*
D03*
X130120D02*
D03*
X192350Y-474980D02*
D03*
X201350D02*
D03*
X130120Y-448310D02*
D03*
X139120D02*
D03*
X201350Y-444500D02*
D03*
X192350D02*
D03*
X139120Y-417830D02*
D03*
X130120D02*
D03*
Y-490220D02*
D03*
X139120D02*
D03*
Y-459740D02*
D03*
X130120D02*
D03*
D61*
X131452Y-120008D02*
D03*
X125088Y-126372D02*
D03*
D62*
X491490Y-61650D02*
D03*
Y-52650D02*
D03*
X156210Y-125040D02*
D03*
Y-134040D02*
D03*
X19050Y-483180D02*
D03*
Y-492180D02*
D03*
Y-422220D02*
D03*
Y-431220D02*
D03*
Y-359990D02*
D03*
Y-368990D02*
D03*
X7620Y-483180D02*
D03*
Y-492180D02*
D03*
Y-422220D02*
D03*
Y-431220D02*
D03*
Y-359990D02*
D03*
Y-368990D02*
D03*
X139700Y-395660D02*
D03*
Y-386660D02*
D03*
X201930Y-464240D02*
D03*
Y-455240D02*
D03*
X139700Y-437570D02*
D03*
Y-428570D02*
D03*
Y-479480D02*
D03*
Y-470480D02*
D03*
D65*
X466045Y-184150D02*
D03*
X476295D02*
D03*
X17825Y-505460D02*
D03*
X7575D02*
D03*
X17825Y-382270D02*
D03*
X7575D02*
D03*
D66*
X511810Y-72710D02*
D03*
Y-49210D02*
D03*
D68*
X106866Y-144594D02*
D03*
X114114Y-137346D02*
D03*
X122106Y-172879D02*
D03*
X129354Y-165631D02*
D03*
X-193226Y-230056D02*
D03*
X-200474Y-237304D02*
D03*
X-172906Y-211006D02*
D03*
X-180154Y-218254D02*
D03*
D142*
X9470Y-444500D02*
D03*
X18470D02*
D03*
D143*
X37770Y-344170D02*
D03*
Y-356870D02*
D03*
Y-369570D02*
D03*
Y-382270D02*
D03*
X91770D02*
D03*
Y-369570D02*
D03*
Y-356870D02*
D03*
Y-344170D02*
D03*
X37770Y-406400D02*
D03*
Y-419100D02*
D03*
Y-431800D02*
D03*
Y-444500D02*
D03*
X91770D02*
D03*
Y-431800D02*
D03*
Y-419100D02*
D03*
Y-406400D02*
D03*
X37770Y-467360D02*
D03*
Y-480060D02*
D03*
Y-492760D02*
D03*
Y-505460D02*
D03*
X91770D02*
D03*
Y-492760D02*
D03*
Y-480060D02*
D03*
Y-467360D02*
D03*
D144*
X157443Y-258043D02*
D03*
X166423Y-249063D02*
D03*
X175403Y-240083D02*
D03*
X184384Y-231103D02*
D03*
X196616Y-297217D02*
D03*
X205597Y-288237D02*
D03*
X214577Y-279257D02*
D03*
X223557Y-270277D02*
D03*
X345477Y-148357D02*
D03*
X336497Y-157337D02*
D03*
X327517Y-166317D02*
D03*
X318536Y-175297D02*
D03*
X306304Y-109183D02*
D03*
X297323Y-118163D02*
D03*
X288343Y-127143D02*
D03*
X279363Y-136124D02*
D03*
X264197Y-229636D02*
D03*
X255217Y-238617D02*
D03*
X246237Y-247597D02*
D03*
X237257Y-256577D02*
D03*
X225023Y-190463D02*
D03*
X216043Y-199443D02*
D03*
X207063Y-208423D02*
D03*
X198083Y-217404D02*
D03*
X182917Y-310917D02*
D03*
X173937Y-319897D02*
D03*
X164957Y-328877D02*
D03*
X155976Y-337857D02*
D03*
X143743Y-271743D02*
D03*
X134763Y-280723D02*
D03*
X125783Y-289703D02*
D03*
X116803Y-298683D02*
D03*
X320003Y-95484D02*
D03*
X328983Y-86503D02*
D03*
X337963Y-77523D02*
D03*
X346944Y-68543D02*
D03*
X359176Y-134657D02*
D03*
X368157Y-125677D02*
D03*
X377137Y-116697D02*
D03*
X386117Y-107717D02*
D03*
X238723Y-176763D02*
D03*
X247703Y-167783D02*
D03*
X256683Y-158803D02*
D03*
X265664Y-149823D02*
D03*
X277896Y-215937D02*
D03*
X286877Y-206957D02*
D03*
X295857Y-197977D02*
D03*
X304837Y-188997D02*
D03*
D145*
X197145Y-270805D02*
D03*
X305775Y-135595D02*
D03*
X224495Y-216875D02*
D03*
X143215Y-298155D02*
D03*
X359705Y-108245D02*
D03*
X278425Y-189525D02*
D03*
D146*
X-138835Y-239625D02*
D03*
X-149088Y-215937D02*
D03*
X-162523Y-229372D02*
D03*
X-164235Y-265025D02*
D03*
X-174488Y-241337D02*
D03*
X-187923Y-254772D02*
D03*
D147*
X-77300Y-170180D02*
D03*
X-87800D02*
D03*
X-105240Y-153670D02*
D03*
X-115740D02*
D03*
D148*
X301594Y-28250D02*
D03*
Y28250D02*
D03*
D149*
X381344Y-254926D02*
D03*
X421296Y-214974D02*
D03*
X312764Y-332396D02*
D03*
X352716Y-292444D02*
D03*
X236564Y-394626D02*
D03*
X276516Y-354674D02*
D03*
M02*
