G04*
G04 #@! TF.GenerationSoftware,Altium Limited,Altium Designer,24.1.2 (44)*
G04*
G04 Layer_Color=16711935*
%FSLAX44Y44*%
%MOMM*%
G71*
G04*
G04 #@! TF.SameCoordinates,9C14B213-01B7-469D-91E1-2C6BB7E4D26A*
G04*
G04*
G04 #@! TF.FilePolarity,Negative*
G04*
G01*
G75*
%ADD33C,5.1000*%
%ADD34R,1.7024X1.7024*%
%ADD35C,1.7024*%
%ADD36C,0.8024*%
%ADD37C,0.6604*%
%ADD48R,0.4627X0.5541*%
G04:AMPARAMS|DCode=52|XSize=0.9024mm|YSize=0.7524mm|CornerRadius=0mm|HoleSize=0mm|Usage=FLASHONLY|Rotation=135.000|XOffset=0mm|YOffset=0mm|HoleType=Round|Shape=Rectangle|*
%AMROTATEDRECTD52*
4,1,4,0.5851,-0.0530,0.0530,-0.5851,-0.5851,0.0530,-0.0530,0.5851,0.5851,-0.0530,0.0*
%
%ADD52ROTATEDRECTD52*%

%ADD53R,0.3520X0.8020*%
%ADD54R,0.8020X0.3520*%
%ADD55R,1.8020X1.8020*%
D33*
X-142890Y-82500D02*
D03*
X142890D02*
D03*
X0Y165000D02*
D03*
D34*
X-95188Y34236D02*
D03*
D35*
Y59236D02*
D03*
D36*
X-81788Y46736D02*
D03*
D37*
X76528Y29955D02*
D03*
X77341Y17957D02*
D03*
X-25146Y36322D02*
D03*
X9144Y29718D02*
D03*
X-2326Y23876D02*
D03*
X23368Y-18034D02*
D03*
X21928Y17283D02*
D03*
X22352Y39370D02*
D03*
X-15238Y-42673D02*
D03*
X33498Y54834D02*
D03*
X46833Y41499D02*
D03*
X54707Y33625D02*
D03*
D48*
X27432Y9893D02*
D03*
Y2807D02*
D03*
D52*
X80947Y25479D02*
D03*
X88725Y17701D02*
D03*
D53*
X7500Y-14500D02*
D03*
X2500D02*
D03*
X-2500D02*
D03*
X-7500D02*
D03*
Y14500D02*
D03*
X-2500D02*
D03*
X2500D02*
D03*
X7500D02*
D03*
D54*
X-14500Y-7500D02*
D03*
Y-2500D02*
D03*
Y2500D02*
D03*
Y7500D02*
D03*
X14500D02*
D03*
Y2500D02*
D03*
Y-2500D02*
D03*
Y-7500D02*
D03*
D55*
X0Y0D02*
D03*
M02*
