G04*
G04 #@! TF.GenerationSoftware,Altium Limited,Altium Designer,24.1.2 (44)*
G04*
G04 Layer_Physical_Order=1*
G04 Layer_Color=255*
%FSLAX44Y44*%
%MOMM*%
G71*
G04*
G04 #@! TF.SameCoordinates,9C14B213-01B7-469D-91E1-2C6BB7E4D26A*
G04*
G04*
G04 #@! TF.FilePolarity,Positive*
G04*
G01*
G75*
%ADD14R,0.5200X0.5200*%
%ADD15R,0.5500X0.6000*%
G04:AMPARAMS|DCode=16|XSize=0.6mm|YSize=0.55mm|CornerRadius=0mm|HoleSize=0mm|Usage=FLASHONLY|Rotation=135.000|XOffset=0mm|YOffset=0mm|HoleType=Round|Shape=Rectangle|*
%AMROTATEDRECTD16*
4,1,4,0.4066,-0.0177,0.0177,-0.4066,-0.4066,0.0177,-0.0177,0.4066,0.4066,-0.0177,0.0*
%
%ADD16ROTATEDRECTD16*%

G04:AMPARAMS|DCode=17|XSize=3mm|YSize=2.1mm|CornerRadius=0mm|HoleSize=0mm|Usage=FLASHONLY|Rotation=187.500|XOffset=0mm|YOffset=0mm|HoleType=Round|Shape=Rectangle|*
%AMROTATEDRECTD17*
4,1,4,1.3501,1.2368,1.6242,-0.8452,-1.3501,-1.2368,-1.6242,0.8452,1.3501,1.2368,0.0*
%
%ADD17ROTATEDRECTD17*%

G04:AMPARAMS|DCode=18|XSize=1.6mm|YSize=0.8mm|CornerRadius=0mm|HoleSize=0mm|Usage=FLASHONLY|Rotation=187.500|XOffset=0mm|YOffset=0mm|HoleType=Round|Shape=Rectangle|*
%AMROTATEDRECTD18*
4,1,4,0.7410,0.5010,0.8454,-0.2922,-0.7410,-0.5010,-0.8454,0.2922,0.7410,0.5010,0.0*
%
%ADD18ROTATEDRECTD18*%

%ADD19R,0.6000X0.5000*%
%ADD20R,0.6725X0.6682*%
%ADD21R,0.5000X0.5000*%
%ADD22R,0.5000X0.7000*%
G04:AMPARAMS|DCode=23|XSize=0.5541mm|YSize=0.4627mm|CornerRadius=0mm|HoleSize=0mm|Usage=FLASHONLY|Rotation=135.000|XOffset=0mm|YOffset=0mm|HoleType=Round|Shape=Rectangle|*
%AMROTATEDRECTD23*
4,1,4,0.3595,-0.0323,0.0323,-0.3595,-0.3595,0.0323,-0.0323,0.3595,0.3595,-0.0323,0.0*
%
%ADD23ROTATEDRECTD23*%

%ADD24R,0.5000X0.5000*%
%ADD25R,0.5541X0.4627*%
%ADD26P,0.7071X4X180.0*%
%ADD27R,0.7000X1.1500*%
%ADD38C,0.5080*%
%ADD39C,0.1524*%
%ADD40C,0.3810*%
%ADD41C,0.3000*%
%ADD42C,5.0000*%
%ADD43R,1.5500X1.5500*%
%ADD44C,1.5500*%
%ADD45C,0.6500*%
%ADD46C,0.5080*%
G36*
X19518Y191439D02*
X32432Y189678D01*
X45196Y187048D01*
X57753Y183560D01*
X70045Y179230D01*
X82016Y174078D01*
X93610Y168127D01*
X104775Y161406D01*
X115460Y153944D01*
X125615Y145775D01*
X135194Y136939D01*
X144153Y127474D01*
X152451Y117424D01*
X160049Y106836D01*
X166913Y95758D01*
X173012Y84241D01*
X178317Y72337D01*
X182805Y60101D01*
X186453Y47590D01*
X189247Y34861D01*
X191173Y21971D01*
X192221Y8981D01*
X192388Y-4050D01*
X191673Y-17063D01*
X190079Y-29997D01*
X187612Y-42794D01*
X184285Y-55395D01*
X180113Y-67741D01*
X175115Y-79777D01*
X171947Y-86151D01*
X170723Y-85759D01*
X170890Y-84704D01*
Y-80296D01*
X170201Y-75943D01*
X168839Y-71752D01*
X166838Y-67825D01*
X164247Y-64259D01*
X161131Y-61143D01*
X157565Y-58552D01*
X153638Y-56551D01*
X149447Y-55189D01*
X145094Y-54500D01*
X140686D01*
X136333Y-55189D01*
X132142Y-56551D01*
X128215Y-58552D01*
X124649Y-61143D01*
X121533Y-64259D01*
X118942Y-67825D01*
X116941Y-71752D01*
X116097Y-74352D01*
X100346D01*
X100346Y-74352D01*
X98184Y-74781D01*
X96351Y-76006D01*
X96351Y-76006D01*
X93006Y-79352D01*
X79378D01*
Y-77750D01*
X80750D01*
Y-65750D01*
X80290D01*
Y-64520D01*
X69710D01*
Y-65750D01*
X69250D01*
Y-69793D01*
X68511Y-70898D01*
X68081Y-73060D01*
X68081Y-73060D01*
Y-79352D01*
X66040D01*
Y-77295D01*
X66216D01*
Y-66095D01*
X65756D01*
Y-64965D01*
X60616D01*
X55476D01*
Y-66095D01*
X55016D01*
Y-71967D01*
X54743Y-73338D01*
Y-79352D01*
X54496D01*
X52335Y-79781D01*
X50502Y-81006D01*
X50502Y-81006D01*
X24657Y-106852D01*
X-106224D01*
X-117916Y-95160D01*
X-116941Y-93248D01*
X-115580Y-89057D01*
X-114890Y-84704D01*
Y-80296D01*
X-115580Y-75943D01*
X-116941Y-71752D01*
X-118942Y-67825D01*
X-121533Y-64259D01*
X-124649Y-61143D01*
X-128215Y-58552D01*
X-132142Y-56551D01*
X-136333Y-55189D01*
X-140686Y-54500D01*
X-145094D01*
X-149447Y-55189D01*
X-153638Y-56551D01*
X-153894Y-56682D01*
X-164352Y-46224D01*
Y66166D01*
X-79956Y150562D01*
X-24068D01*
X-23948Y150325D01*
X-21357Y146759D01*
X-18241Y143643D01*
X-14675Y141052D01*
X-10748Y139051D01*
X-6557Y137690D01*
X-2204Y137000D01*
X2204D01*
X6557Y137690D01*
X10748Y139051D01*
X14675Y141052D01*
X18241Y143643D01*
X21357Y146759D01*
X23948Y150325D01*
X25949Y154252D01*
X27311Y158443D01*
X28000Y162796D01*
Y167204D01*
X27311Y171557D01*
X25949Y175748D01*
X23948Y179675D01*
X21357Y183241D01*
X18241Y186357D01*
X14675Y188948D01*
X11174Y190732D01*
X11519Y191981D01*
X19518Y191439D01*
D02*
G37*
G36*
X-11174Y190732D02*
X-14675Y188948D01*
X-18241Y186357D01*
X-21357Y183241D01*
X-23948Y179675D01*
X-25949Y175748D01*
X-27311Y171557D01*
X-28000Y167204D01*
Y162796D01*
X-28801Y161859D01*
X-82296D01*
X-84458Y161429D01*
X-86290Y160204D01*
X-86290Y160204D01*
X-173994Y72500D01*
X-175219Y70668D01*
X-175648Y68506D01*
X-175648Y68506D01*
Y-48564D01*
X-175648Y-48564D01*
X-175219Y-50726D01*
X-173994Y-52558D01*
X-163270Y-63282D01*
X-164247Y-64259D01*
X-166838Y-67825D01*
X-168839Y-71752D01*
X-170201Y-75943D01*
X-170890Y-80296D01*
Y-84704D01*
X-170723Y-85760D01*
X-171947Y-86151D01*
X-175115Y-79777D01*
X-180113Y-67741D01*
X-184285Y-55395D01*
X-187612Y-42794D01*
X-190079Y-29997D01*
X-191673Y-17063D01*
X-192388Y-4050D01*
X-192221Y8981D01*
X-191173Y21971D01*
X-189247Y34861D01*
X-186453Y47590D01*
X-182805Y60101D01*
X-178317Y72337D01*
X-173012Y84241D01*
X-166914Y95758D01*
X-160049Y106836D01*
X-152451Y117424D01*
X-144153Y127474D01*
X-135194Y136939D01*
X-125616Y145775D01*
X-115461Y153943D01*
X-104776Y161406D01*
X-93610Y168127D01*
X-82016Y174078D01*
X-70045Y179230D01*
X-57753Y183560D01*
X-45196Y187048D01*
X-32432Y189678D01*
X-19518Y191439D01*
X-11519Y191981D01*
X-11174Y190732D01*
D02*
G37*
G36*
X115580Y-89057D02*
X116941Y-93248D01*
X118942Y-97175D01*
X121533Y-100741D01*
X124649Y-103857D01*
X128215Y-106448D01*
X132142Y-108449D01*
X136333Y-109810D01*
X140686Y-110500D01*
X145094D01*
X149447Y-109810D01*
X153638Y-108449D01*
X157565Y-106448D01*
X159712Y-104888D01*
X160638Y-105785D01*
X159305Y-107746D01*
X158177Y-108943D01*
X155100Y-111678D01*
X151794Y-114130D01*
X148285Y-116282D01*
X144599Y-118116D01*
X140766Y-119617D01*
X136817Y-120774D01*
X132779Y-121579D01*
X131013Y-121771D01*
X101043Y-121771D01*
X-131013Y-121771D01*
X-132780Y-121579D01*
X-136816Y-120774D01*
X-140767Y-119617D01*
X-144600Y-118115D01*
X-148285Y-116282D01*
X-151794Y-114130D01*
X-155100Y-111678D01*
X-158177Y-108943D01*
X-159305Y-107746D01*
X-160638Y-105785D01*
X-159712Y-104888D01*
X-157565Y-106448D01*
X-153638Y-108449D01*
X-149447Y-109810D01*
X-145094Y-110500D01*
X-140686D01*
X-136333Y-109810D01*
X-132142Y-108449D01*
X-128215Y-106448D01*
X-124965Y-104087D01*
X-112558Y-116494D01*
X-112558Y-116494D01*
X-110726Y-117719D01*
X-108564Y-118149D01*
X-108564Y-118148D01*
X26996D01*
X26996Y-118149D01*
X29158Y-117719D01*
X30990Y-116494D01*
X56836Y-90648D01*
X95346D01*
X95346Y-90649D01*
X97507Y-90219D01*
X99340Y-88994D01*
X102685Y-85648D01*
X115040D01*
X115580Y-89057D01*
D02*
G37*
%LPC*%
G36*
X126996Y131635D02*
X110865Y129511D01*
X112401Y117842D01*
X128532Y119965D01*
X126996Y131635D01*
D02*
G37*
G36*
X108347Y129179D02*
X92216Y127056D01*
X93752Y115386D01*
X109883Y117510D01*
X108347Y129179D01*
D02*
G37*
G36*
X128864Y117447D02*
X112733Y115323D01*
X114269Y103654D01*
X130400Y105778D01*
X128864Y117447D01*
D02*
G37*
G36*
X110214Y114992D02*
X94084Y112868D01*
X95620Y101199D01*
X111751Y103322D01*
X110214Y114992D01*
D02*
G37*
G36*
X7934Y94214D02*
X-1838D01*
Y92578D01*
X-10454D01*
Y94106D01*
X-18502D01*
Y86122D01*
X-19518D01*
Y81352D01*
X-14478D01*
Y78812D01*
X-19518D01*
Y74042D01*
X-19002D01*
Y66872D01*
X-20018D01*
Y63102D01*
X-14478D01*
Y60562D01*
X-20018D01*
Y56792D01*
X-19010D01*
Y48982D01*
X-19816Y48046D01*
X-20026D01*
Y44276D01*
X-14986D01*
Y41736D01*
X-20026D01*
Y38653D01*
X-21729D01*
X-22844Y39767D01*
X-24338Y40386D01*
X-25954D01*
X-27448Y39767D01*
X-28591Y38624D01*
X-29210Y37130D01*
Y35514D01*
X-28591Y34020D01*
X-27448Y32877D01*
X-25954Y32258D01*
X-24338D01*
X-22844Y32877D01*
X-21729Y33991D01*
X-6977D01*
X-6085Y34169D01*
X-5329Y34674D01*
X-2600Y37402D01*
X-1330Y36876D01*
Y36088D01*
X3733D01*
X4219Y34914D01*
X2670Y33365D01*
X2165Y32609D01*
X1987Y31717D01*
Y28543D01*
X717Y28017D01*
X552Y28183D01*
X-1056Y28849D01*
Y23876D01*
Y18903D01*
X552Y19569D01*
X717Y19735D01*
X1987Y19209D01*
Y1016D01*
X2165Y124D01*
X2670Y-632D01*
X19304Y-17266D01*
Y-18842D01*
X19923Y-20336D01*
X21066Y-21479D01*
X22560Y-22098D01*
X24176D01*
X25670Y-21479D01*
X26813Y-20336D01*
X27432Y-18842D01*
Y-17226D01*
X26813Y-15732D01*
X25670Y-14589D01*
X24176Y-13970D01*
X22600D01*
X6649Y1981D01*
Y24978D01*
X7919Y25827D01*
X8336Y25654D01*
X9952D01*
X11446Y26273D01*
X12589Y27416D01*
X13208Y28910D01*
Y30526D01*
X12938Y31178D01*
X13901Y32141D01*
X14406Y32897D01*
X14583Y33789D01*
Y74074D01*
X14406Y74965D01*
X13901Y75722D01*
X9452Y80170D01*
X8696Y80676D01*
X7934Y80827D01*
Y84171D01*
X7934D01*
Y84485D01*
X7934D01*
Y94214D01*
D02*
G37*
G36*
X94606Y94069D02*
X75721Y91583D01*
X75846Y90635D01*
X75008Y89680D01*
X70840D01*
X69948Y89503D01*
X69191Y88998D01*
X59233Y79039D01*
X55372D01*
X54480Y78861D01*
X53724Y78356D01*
X34266Y58898D01*
X32690D01*
X31196Y58280D01*
X30053Y57136D01*
X29434Y55643D01*
Y54026D01*
X30053Y52532D01*
X31196Y51389D01*
X32690Y50770D01*
X34307D01*
X35800Y51389D01*
X36944Y52532D01*
X37562Y54026D01*
Y55602D01*
X56337Y74377D01*
X60198D01*
X61090Y74555D01*
X61846Y75060D01*
X71805Y85019D01*
X76585D01*
X77163Y80630D01*
X96048Y83116D01*
X94606Y94069D01*
D02*
G37*
G36*
X96237Y81676D02*
X77352Y79190D01*
X77648Y76946D01*
X76811Y75991D01*
X70360D01*
X69468Y75813D01*
X68712Y75308D01*
X37390Y43987D01*
X25600D01*
X24708Y43809D01*
X23952Y43304D01*
X23812Y43164D01*
X23160Y43434D01*
X21544D01*
X20050Y42815D01*
X18907Y41672D01*
X18288Y40178D01*
Y38562D01*
X18907Y37068D01*
X20050Y35925D01*
X21544Y35306D01*
X23160D01*
X24654Y35925D01*
X25797Y37068D01*
X26416Y38562D01*
Y39176D01*
X26566Y39325D01*
X38356D01*
X39248Y39503D01*
X40004Y40008D01*
X41499Y41503D01*
X42769Y40977D01*
Y40691D01*
X43388Y39197D01*
X44531Y38054D01*
X46025Y37435D01*
X47642D01*
X49135Y38054D01*
X50279Y39197D01*
X50897Y40691D01*
Y42267D01*
X55321Y46691D01*
X63400D01*
X64291Y46869D01*
X65048Y47374D01*
X77906Y60233D01*
X79848D01*
X80426Y55844D01*
X99311Y58330D01*
X97869Y69283D01*
X78984Y66797D01*
X79109Y65849D01*
X78271Y64894D01*
X76941D01*
X76049Y64717D01*
X75293Y64212D01*
X62434Y51353D01*
X54356D01*
X53464Y51175D01*
X52708Y50670D01*
X48399Y46362D01*
X48194Y46402D01*
X47776Y47780D01*
X71325Y71329D01*
X78387D01*
X78795Y68237D01*
X97680Y70723D01*
X96237Y81676D01*
D02*
G37*
G36*
X99501Y56890D02*
X80616Y54404D01*
X81092Y50784D01*
X80255Y49829D01*
X79553D01*
X78661Y49651D01*
X77905Y49146D01*
X71984Y43225D01*
X61976D01*
X61084Y43047D01*
X60328Y42542D01*
X55475Y37689D01*
X53899D01*
X52405Y37071D01*
X51262Y35927D01*
X50643Y34434D01*
Y32817D01*
X51262Y31323D01*
X52405Y30180D01*
X53899Y29561D01*
X55516D01*
X57009Y30180D01*
X58153Y31323D01*
X58771Y32817D01*
Y34393D01*
X62941Y38563D01*
X72949D01*
X73841Y38741D01*
X74597Y39246D01*
X80519Y45167D01*
X81832D01*
X82058Y43450D01*
X100943Y45937D01*
X99501Y56890D01*
D02*
G37*
G36*
X-93967Y68510D02*
X-96409D01*
X-98768Y67878D01*
X-100882Y66657D01*
X-102609Y64930D01*
X-103830Y62816D01*
X-104462Y60457D01*
Y58015D01*
X-103830Y55656D01*
X-102609Y53542D01*
X-100882Y51815D01*
X-98768Y50594D01*
X-96409Y49962D01*
X-93967D01*
X-91608Y50594D01*
X-90514Y51226D01*
X-89585Y50296D01*
X-89739Y50029D01*
X-90320Y47859D01*
Y45613D01*
X-90027Y44518D01*
X-90800Y43510D01*
X-104462D01*
Y24962D01*
X-85914D01*
Y37945D01*
X-84644Y38668D01*
X-82911Y38204D01*
X-80665D01*
X-78495Y38785D01*
X-76549Y39909D01*
X-74961Y41497D01*
X-73837Y43443D01*
X-73256Y45613D01*
Y47859D01*
X-73837Y50029D01*
X-74961Y51975D01*
X-76549Y53563D01*
X-78495Y54687D01*
X-80665Y55268D01*
X-82911D01*
X-85081Y54687D01*
X-85919Y54203D01*
X-86848Y55133D01*
X-86546Y55656D01*
X-85914Y58015D01*
Y60457D01*
X-86546Y62816D01*
X-87767Y64930D01*
X-89494Y66657D01*
X-91608Y67878D01*
X-93967Y68510D01*
D02*
G37*
G36*
X101132Y44497D02*
X82247Y42011D01*
X82410Y40774D01*
X82386Y40757D01*
X75596Y33968D01*
X74225Y33400D01*
X73082Y32257D01*
X72463Y30763D01*
Y29147D01*
X73082Y27653D01*
X74225Y26510D01*
X75719Y25891D01*
X77336D01*
X78830Y26510D01*
X79973Y27653D01*
X80541Y29024D01*
X82857Y31340D01*
X83689Y31057D01*
Y31057D01*
X102574Y33544D01*
X101132Y44497D01*
D02*
G37*
G36*
X-3596Y28849D02*
X-5204Y28183D01*
X-6633Y26754D01*
X-7298Y25146D01*
X-3596D01*
Y28849D01*
D02*
G37*
G36*
Y22606D02*
X-7298D01*
X-6633Y20998D01*
X-5204Y19569D01*
X-3596Y18903D01*
Y22606D01*
D02*
G37*
G36*
X23198Y22256D02*
Y18553D01*
X26900D01*
X26234Y20161D01*
X24805Y21590D01*
X23198Y22256D01*
D02*
G37*
G36*
X20658D02*
X19050Y21590D01*
X17621Y20161D01*
X16955Y18553D01*
X20658D01*
Y22256D01*
D02*
G37*
G36*
X102764Y32104D02*
X83879Y29618D01*
X83944Y29123D01*
X83938Y29122D01*
X82803Y28364D01*
X76409Y21970D01*
X75039Y21402D01*
X73895Y20259D01*
X73277Y18766D01*
Y17149D01*
X73895Y15655D01*
X75039Y14512D01*
X76532Y13893D01*
X78149D01*
X79643Y14512D01*
X80786Y15655D01*
X81354Y17026D01*
X83588Y19261D01*
X83743Y19139D01*
X84370Y18099D01*
X85058Y12875D01*
X95508Y14250D01*
X105958Y15626D01*
X105448Y19504D01*
X105270Y20851D01*
X104183Y21326D01*
X104097Y21978D01*
X102764Y32104D01*
D02*
G37*
G36*
X26900Y16013D02*
X23198D01*
Y12311D01*
X24805Y12977D01*
X26234Y14406D01*
X26900Y16013D01*
D02*
G37*
G36*
X20658D02*
X16955D01*
X17621Y14406D01*
X19050Y12977D01*
X20658Y12311D01*
Y16013D01*
D02*
G37*
G36*
X76828Y-2291D02*
X73986Y-5133D01*
X77005Y-8153D01*
X79847Y-5310D01*
X76828Y-2291D01*
D02*
G37*
G36*
X106290Y13108D02*
X95840Y11732D01*
X85390Y10356D01*
X85900Y6479D01*
X86078Y5131D01*
X87165Y4656D01*
X87251Y4005D01*
X88584Y-6122D01*
X88722Y-6104D01*
X89965Y-7164D01*
X89985Y-7837D01*
X85461Y-12361D01*
X83944Y-10844D01*
X84663Y-10126D01*
X81643Y-7106D01*
X77903Y-10847D01*
X74162Y-14587D01*
X77182Y-17607D01*
X77155Y-18866D01*
X75421Y-20599D01*
X63198D01*
X62594Y-19408D01*
Y-19408D01*
X59737Y-16551D01*
X56305Y-19983D01*
X52873Y-23415D01*
X55730Y-26272D01*
X56448Y-25553D01*
X57764Y-26869D01*
X53860Y-30773D01*
X53482D01*
X51524Y-28815D01*
X51288Y-28579D01*
X51196Y-27347D01*
X51344Y-27199D01*
X48678Y-24533D01*
X45115Y-28096D01*
X41551Y-31660D01*
X44216Y-34326D01*
X44365Y-34178D01*
X45597Y-34270D01*
X45833Y-34506D01*
X47980Y-36653D01*
X43206Y-41427D01*
X40847D01*
X40242Y-40236D01*
Y-40236D01*
X37385Y-37379D01*
X33953Y-40811D01*
X30521Y-44243D01*
X33378Y-47100D01*
X34096Y-46381D01*
X36174Y-48459D01*
X23809Y-60824D01*
X21128D01*
Y-57046D01*
X12644D01*
Y-56030D01*
X7874D01*
Y-64320D01*
X5334D01*
Y-56030D01*
X564D01*
Y-57046D01*
X-7920D01*
Y-71594D01*
X-6327D01*
X-6126Y-72605D01*
X-5368Y-73739D01*
X-3136Y-75971D01*
X-2002Y-76729D01*
X-664Y-76995D01*
X11524D01*
X12862Y-76729D01*
X13996Y-75971D01*
X16981Y-72986D01*
X17739Y-71852D01*
X17790Y-71594D01*
X21128D01*
Y-67816D01*
X25258D01*
X26596Y-67550D01*
X27730Y-66792D01*
X47126Y-47396D01*
X57780Y-36742D01*
X57780Y-36742D01*
X66533Y-27989D01*
X66799Y-27592D01*
X76870D01*
X78208Y-27325D01*
X79342Y-26567D01*
X86277Y-19632D01*
X86630D01*
X87968Y-19366D01*
X89102Y-18608D01*
X96595Y-11115D01*
X97353Y-9981D01*
X97619Y-8643D01*
Y-4932D01*
X107469Y-3636D01*
X106136Y6491D01*
X106977Y7883D01*
X106977Y7883D01*
X106290Y13108D01*
D02*
G37*
G36*
X72189Y-6929D02*
X69347Y-9772D01*
X72366Y-12791D01*
X75209Y-9949D01*
X72189Y-6929D01*
D02*
G37*
G36*
X55084Y-11897D02*
X52550Y-14432D01*
X55407Y-17289D01*
X57941Y-14755D01*
X55084Y-11897D01*
D02*
G37*
G36*
X145074Y-5681D02*
X128943Y-7804D01*
X130479Y-19474D01*
X146610Y-17350D01*
X145074Y-5681D01*
D02*
G37*
G36*
X-37579Y-16228D02*
X-41620D01*
Y-19812D01*
X-37579D01*
Y-16228D01*
D02*
G37*
G36*
X50753Y-16228D02*
X48219Y-18762D01*
X51076Y-21619D01*
X53611Y-19085D01*
X50753Y-16228D01*
D02*
G37*
G36*
X126425Y-8136D02*
X110294Y-10259D01*
X111830Y-21929D01*
X127961Y-19805D01*
X126425Y-8136D01*
D02*
G37*
G36*
X44216Y-20071D02*
X41551Y-22737D01*
X44216Y-25402D01*
X46882Y-22737D01*
X44216Y-20071D01*
D02*
G37*
G36*
X-37579Y-22352D02*
X-41620D01*
Y-25936D01*
X-37579D01*
Y-22352D01*
D02*
G37*
G36*
X39755Y-24533D02*
X37089Y-27199D01*
X39755Y-29864D01*
X42421Y-27198D01*
X39755Y-24533D01*
D02*
G37*
G36*
X-30998Y-16228D02*
X-35039D01*
Y-21082D01*
Y-25936D01*
X-30998D01*
Y-24920D01*
X-24928D01*
Y-24920D01*
X-23658Y-24632D01*
X-20423Y-27868D01*
Y-31959D01*
X-23488D01*
Y-30266D01*
X-31202D01*
X-31536Y-30266D01*
X-32472Y-29460D01*
Y-29250D01*
X-36242D01*
Y-34290D01*
Y-39330D01*
X-32472D01*
Y-39120D01*
X-31536Y-38314D01*
X-31202Y-38314D01*
X-23488D01*
Y-36621D01*
X-20979D01*
X-20908Y-36727D01*
X-18322Y-39313D01*
Y-40009D01*
X-18684Y-40371D01*
X-19302Y-41865D01*
Y-43482D01*
X-18684Y-44975D01*
X-17540Y-46119D01*
X-16047Y-46737D01*
X-14430D01*
X-12936Y-46119D01*
X-11793Y-44975D01*
X-11174Y-43482D01*
Y-41865D01*
X-10676Y-41120D01*
X-7920D01*
Y-47094D01*
X2128D01*
Y-32546D01*
X-7920D01*
Y-34953D01*
X-13961D01*
X-15761Y-33153D01*
Y-26902D01*
X-15939Y-26010D01*
X-16444Y-25254D01*
X-22264Y-19434D01*
X-23020Y-18929D01*
X-23912Y-18751D01*
X-24928D01*
Y-17244D01*
X-30998D01*
Y-16228D01*
D02*
G37*
G36*
X-38782Y-29250D02*
X-42552D01*
Y-33020D01*
X-38782D01*
Y-29250D01*
D02*
G37*
G36*
X146942Y-19868D02*
X130811Y-21992D01*
X132347Y-33661D01*
X148478Y-31537D01*
X146942Y-19868D01*
D02*
G37*
G36*
X128293Y-22324D02*
X112162Y-24447D01*
X113698Y-36116D01*
X129829Y-33993D01*
X128293Y-22324D01*
D02*
G37*
G36*
X32732Y-32725D02*
X30198Y-35259D01*
X33055Y-38117D01*
X35589Y-35582D01*
X32732Y-32725D01*
D02*
G37*
G36*
X-38782Y-35560D02*
X-42552D01*
Y-39330D01*
X-38782D01*
Y-35560D01*
D02*
G37*
G36*
X28402Y-37056D02*
X25867Y-39590D01*
X28725Y-42447D01*
X31259Y-39913D01*
X28402Y-37056D01*
D02*
G37*
G36*
X21128Y-32546D02*
X11080D01*
Y-47094D01*
X21128D01*
Y-32546D01*
D02*
G37*
G36*
X80290Y-57710D02*
X76270D01*
Y-61980D01*
X80290D01*
Y-57710D01*
D02*
G37*
G36*
X73730D02*
X69710D01*
Y-61980D01*
X73730D01*
Y-57710D01*
D02*
G37*
G36*
X65756Y-58555D02*
X61886D01*
Y-62425D01*
X65756D01*
Y-58555D01*
D02*
G37*
G36*
X59346D02*
X55476D01*
Y-62425D01*
X59346D01*
Y-58555D01*
D02*
G37*
%LPD*%
D14*
X60616Y-71695D02*
D03*
Y-63696D02*
D03*
D15*
X75000Y-71750D02*
D03*
Y-63250D02*
D03*
D16*
X77005Y-9949D02*
D03*
X83015Y-15959D02*
D03*
D17*
X129386Y-20898D02*
D03*
X111308Y116417D02*
D03*
D18*
X97305Y598D02*
D03*
X95674Y12991D02*
D03*
X94042Y25384D02*
D03*
X92411Y37777D02*
D03*
X90779Y50170D02*
D03*
X89148Y62563D02*
D03*
X87516Y74956D02*
D03*
X85885Y87350D02*
D03*
D19*
X-14478Y61832D02*
D03*
Y70832D02*
D03*
D20*
X3048Y89349D02*
D03*
Y79307D02*
D03*
X3556Y50995D02*
D03*
Y40953D02*
D03*
X3302Y69791D02*
D03*
Y59749D02*
D03*
D21*
X-14986Y53006D02*
D03*
Y43006D02*
D03*
D22*
X-14478Y89082D02*
D03*
Y80082D02*
D03*
D23*
X33055Y-39913D02*
D03*
X38065Y-44923D02*
D03*
X55407Y-19085D02*
D03*
X60417Y-24095D02*
D03*
D24*
X-37512Y-34290D02*
D03*
X-27512D02*
D03*
D25*
X-36309Y-21082D02*
D03*
X-29223D02*
D03*
D26*
X44216Y-27199D02*
D03*
X51287Y-34269D02*
D03*
D27*
X-2896Y-64320D02*
D03*
X6604D02*
D03*
X16104D02*
D03*
Y-39820D02*
D03*
X-2896D02*
D03*
D38*
X73730Y-73060D02*
X75000Y-71790D01*
X73730Y-85000D02*
Y-73060D01*
X60392Y-85000D02*
X73730D01*
X60392D02*
Y-73338D01*
X73730Y-85000D02*
X95346D01*
X54496D02*
X60392D01*
X95346D02*
X100346Y-80000D01*
X26996Y-112500D02*
X54496Y-85000D01*
X100346Y-80000D02*
X147500D01*
X-170000Y68506D02*
X-82296Y156210D01*
X-170000Y-48564D02*
Y68506D01*
Y-48564D02*
X-138564Y-80000D01*
X-108564Y-112500D02*
X26996D01*
X-138564Y-82500D02*
X-108564Y-112500D01*
X147500Y-80000D02*
X155000Y-87500D01*
X-142890Y-82500D02*
X-141454D01*
X-82296Y156210D02*
X-3790D01*
X0Y160000D01*
D39*
X74946Y-71695D02*
X75000Y-71750D01*
X54496Y-85000D02*
Y-83240D01*
X60392Y-85000D02*
X60616Y-84776D01*
X38356Y41656D02*
X70360Y73660D01*
X25600Y41656D02*
X38356D01*
X22352Y39370D02*
X23314D01*
X25600Y41656D01*
X70840Y87350D02*
X85885D01*
X60198Y76708D02*
X70840Y87350D01*
X55372Y76708D02*
X60198D01*
X33498Y54834D02*
X55372Y76708D01*
X46833Y41499D02*
X54356Y49022D01*
X54707Y33625D02*
X61976Y40894D01*
X54356Y49022D02*
X63400D01*
X76941Y62563D01*
X89148D01*
X70360Y73660D02*
X86220D01*
X87516Y74956D01*
X61976Y40894D02*
X72949D01*
X79553Y47498D01*
X88107D01*
X90779Y50170D01*
X-18985Y-34290D02*
X-18092Y-33397D01*
Y-26902D01*
X-23912Y-21082D02*
X-18092Y-26902D01*
X-29223Y-21082D02*
X-23912D01*
X-27512Y-34290D02*
X-18985D01*
X3832Y78522D02*
X7804D01*
X12252Y74074D01*
X3048Y79307D02*
X3832Y78522D01*
X12252Y33789D02*
Y74074D01*
X3302Y59749D02*
X4306Y58744D01*
X9204Y36603D02*
Y57598D01*
X8058Y58744D02*
X9204Y57598D01*
X4306Y58744D02*
X8058D01*
X-18985Y-34290D02*
X-18728Y-34547D01*
X-6977Y36322D02*
X-2346Y40953D01*
X-25146Y36322D02*
X-6977D01*
X-2346Y40953D02*
X3556D01*
X4318Y1016D02*
X23368Y-18034D01*
X4318Y1016D02*
Y31717D01*
X9204Y36603D01*
X9144Y29718D02*
Y30680D01*
X12252Y33789D01*
D40*
X64061Y-24095D02*
X76870D01*
X86630Y-16136D02*
X94123Y-8643D01*
X83192Y-16136D02*
X86630D01*
X76870Y-24095D02*
X84201Y-16764D01*
X83015Y-15959D02*
X83192Y-16136D01*
X97228Y598D02*
X97305D01*
X94123Y-2507D02*
X97228Y598D01*
X94123Y-8643D02*
Y-2507D01*
X76528Y29955D02*
X84858Y38285D01*
X91903D01*
X92411Y37777D01*
X77341Y17957D02*
X85276Y25892D01*
X93534D01*
X94042Y25384D01*
X-14478Y70832D02*
X-14186Y70540D01*
X-13228D01*
X2553D02*
X3302Y69791D01*
X-13228Y70540D02*
X2553D01*
X44654Y-44923D02*
X55308Y-34269D01*
X64061Y-25517D01*
X38065Y-44923D02*
X44654D01*
X25258Y-64320D02*
X44654Y-44923D01*
X60417Y-24095D02*
X64061D01*
X51287Y-34269D02*
X55308D01*
X14509Y-65915D02*
X16104Y-64320D01*
X14509Y-70514D02*
Y-65915D01*
X11524Y-73499D02*
X14509Y-70514D01*
X-664Y-73499D02*
X11524D01*
X-2896Y-71267D02*
X-664Y-73499D01*
X-2896Y-71267D02*
Y-64320D01*
X16104D02*
X25258D01*
X-2346Y50995D02*
X3556D01*
X-14986Y53006D02*
X-4357D01*
X-2346Y50995D01*
X2781Y89082D02*
X3048Y89349D01*
X-14478Y89082D02*
X2781D01*
D41*
X-15238Y-38036D02*
X-4680D01*
X-2896Y-39820D01*
X-15238Y-42673D02*
Y-38036D01*
X-18728Y-34547D02*
X-15238Y-38036D01*
D42*
X-142890Y-82500D02*
D03*
X142890D02*
D03*
X0Y165000D02*
D03*
D43*
X-95188Y34236D02*
D03*
D44*
Y59236D02*
D03*
D45*
X-81788Y46736D02*
D03*
D46*
X76528Y29955D02*
D03*
X77341Y17957D02*
D03*
X-25146Y36322D02*
D03*
X9144Y29718D02*
D03*
X-2326Y23876D02*
D03*
X23368Y-18034D02*
D03*
X21928Y17283D02*
D03*
X22352Y39370D02*
D03*
X-15238Y-42673D02*
D03*
X33498Y54834D02*
D03*
X46833Y41499D02*
D03*
X54707Y33625D02*
D03*
M02*
