G04*
G04 #@! TF.GenerationSoftware,Altium Limited,Altium Designer,24.1.2 (44)*
G04*
G04 Layer_Color=8388736*
%FSLAX44Y44*%
%MOMM*%
G71*
G04*
G04 #@! TF.SameCoordinates,9C14B213-01B7-469D-91E1-2C6BB7E4D26A*
G04*
G04*
G04 #@! TF.FilePolarity,Negative*
G04*
G01*
G75*
%ADD14R,0.5200X0.5200*%
%ADD19R,0.6000X0.5000*%
%ADD20R,0.6725X0.6682*%
%ADD21R,0.5000X0.5000*%
%ADD22R,0.5000X0.7000*%
G04:AMPARAMS|DCode=23|XSize=0.5541mm|YSize=0.4627mm|CornerRadius=0mm|HoleSize=0mm|Usage=FLASHONLY|Rotation=135.000|XOffset=0mm|YOffset=0mm|HoleType=Round|Shape=Rectangle|*
%AMROTATEDRECTD23*
4,1,4,0.3595,-0.0323,0.0323,-0.3595,-0.3595,0.0323,-0.0323,0.3595,0.3595,-0.0323,0.0*
%
%ADD23ROTATEDRECTD23*%

%ADD24R,0.5000X0.5000*%
%ADD25R,0.5541X0.4627*%
%ADD26P,0.7071X4X180.0*%
%ADD28R,0.7024X0.7524*%
G04:AMPARAMS|DCode=29|XSize=0.7524mm|YSize=0.7024mm|CornerRadius=0mm|HoleSize=0mm|Usage=FLASHONLY|Rotation=135.000|XOffset=0mm|YOffset=0mm|HoleType=Round|Shape=Rectangle|*
%AMROTATEDRECTD29*
4,1,4,0.5143,-0.0177,0.0177,-0.5143,-0.5143,0.0177,-0.0177,0.5143,0.5143,-0.0177,0.0*
%
%ADD29ROTATEDRECTD29*%

G04:AMPARAMS|DCode=30|XSize=3.1524mm|YSize=2.2524mm|CornerRadius=0mm|HoleSize=0mm|Usage=FLASHONLY|Rotation=187.500|XOffset=0mm|YOffset=0mm|HoleType=Round|Shape=Rectangle|*
%AMROTATEDRECTD30*
4,1,4,1.4157,1.3223,1.7097,-0.9108,-1.4157,-1.3223,-1.7097,0.9108,1.4157,1.3223,0.0*
%
%ADD30ROTATEDRECTD30*%

G04:AMPARAMS|DCode=31|XSize=1.7524mm|YSize=0.9524mm|CornerRadius=0mm|HoleSize=0mm|Usage=FLASHONLY|Rotation=187.500|XOffset=0mm|YOffset=0mm|HoleType=Round|Shape=Rectangle|*
%AMROTATEDRECTD31*
4,1,4,0.8066,0.5865,0.9309,-0.3578,-0.8066,-0.5865,-0.9309,0.3578,0.8066,0.5865,0.0*
%
%ADD31ROTATEDRECTD31*%

%ADD32R,0.8524X1.3024*%
%ADD33C,5.1000*%
%ADD34R,1.7024X1.7024*%
%ADD35C,1.7024*%
%ADD36C,0.8024*%
%ADD37C,0.6604*%
D14*
X60616Y-71695D02*
D03*
Y-63696D02*
D03*
D19*
X-14478Y61832D02*
D03*
Y70832D02*
D03*
D20*
X3048Y89349D02*
D03*
Y79307D02*
D03*
X3556Y50995D02*
D03*
Y40953D02*
D03*
X3302Y69791D02*
D03*
Y59749D02*
D03*
D21*
X-14986Y53006D02*
D03*
Y43006D02*
D03*
D22*
X-14478Y89082D02*
D03*
Y80082D02*
D03*
D23*
X33055Y-39913D02*
D03*
X38065Y-44923D02*
D03*
X55407Y-19085D02*
D03*
X60417Y-24095D02*
D03*
D24*
X-37512Y-34290D02*
D03*
X-27512D02*
D03*
D25*
X-36309Y-21082D02*
D03*
X-29223D02*
D03*
D26*
X44216Y-27199D02*
D03*
X51287Y-34269D02*
D03*
D28*
X75000Y-71750D02*
D03*
Y-63250D02*
D03*
D29*
X77005Y-9949D02*
D03*
X83015Y-15959D02*
D03*
D30*
X129386Y-20898D02*
D03*
X111308Y116417D02*
D03*
D31*
X97305Y598D02*
D03*
X95674Y12991D02*
D03*
X94042Y25384D02*
D03*
X92411Y37777D02*
D03*
X90779Y50170D02*
D03*
X89148Y62563D02*
D03*
X87516Y74956D02*
D03*
X85885Y87350D02*
D03*
D32*
X-2896Y-64320D02*
D03*
X6604D02*
D03*
X16104D02*
D03*
Y-39820D02*
D03*
X-2896D02*
D03*
D33*
X-142890Y-82500D02*
D03*
X142890D02*
D03*
X0Y165000D02*
D03*
D34*
X-95188Y34236D02*
D03*
D35*
Y59236D02*
D03*
D36*
X-81788Y46736D02*
D03*
D37*
X76528Y29955D02*
D03*
X77341Y17957D02*
D03*
X-25146Y36322D02*
D03*
X9144Y29718D02*
D03*
X-2326Y23876D02*
D03*
X23368Y-18034D02*
D03*
X21928Y17283D02*
D03*
X22352Y39370D02*
D03*
X-15238Y-42673D02*
D03*
X33498Y54834D02*
D03*
X46833Y41499D02*
D03*
X54707Y33625D02*
D03*
M02*
