G04*
G04 #@! TF.GenerationSoftware,Altium Limited,Altium Designer,24.1.2 (44)*
G04*
G04 Layer_Color=32896*
%FSLAX44Y44*%
%MOMM*%
G71*
G04*
G04 #@! TF.SameCoordinates,9C14B213-01B7-469D-91E1-2C6BB7E4D26A*
G04*
G04*
G04 #@! TF.FilePolarity,Positive*
G04*
G01*
G75*
%ADD11C,0.2000*%
%ADD12C,0.2500*%
%ADD13C,0.1270*%
%ADD39C,0.1524*%
%ADD56C,0.1300*%
D11*
X83775Y20529D02*
X85897Y22651D01*
X33746Y36D02*
Y12664D01*
X21118Y36D02*
Y12664D01*
D12*
X14458Y-19558D02*
G03*
X14458Y-19558I-1250J0D01*
G01*
D13*
X55000Y-117500D02*
Y-112422D01*
X52461Y-109882D01*
X49922Y-112422D01*
Y-117500D01*
Y-113691D01*
X55000D01*
X47382Y-109882D02*
Y-117500D01*
X43574D01*
X42304Y-116230D01*
Y-111152D01*
X43574Y-109882D01*
X47382D01*
X39765Y-117500D02*
Y-112422D01*
X37226Y-109882D01*
X34687Y-112422D01*
Y-117500D01*
Y-113691D01*
X39765D01*
X19452Y-109882D02*
X21991Y-111152D01*
X24530Y-113691D01*
Y-116230D01*
X23260Y-117500D01*
X20721D01*
X19452Y-116230D01*
Y-114961D01*
X20721Y-113691D01*
X24530D01*
X11834Y-109882D02*
X16912D01*
Y-113691D01*
X14373Y-112422D01*
X13103D01*
X11834Y-113691D01*
Y-116230D01*
X13103Y-117500D01*
X15643D01*
X16912Y-116230D01*
X9295Y-111152D02*
X8025Y-109882D01*
X5486D01*
X4216Y-111152D01*
Y-116230D01*
X5486Y-117500D01*
X8025D01*
X9295Y-116230D01*
Y-111152D01*
X1677Y-113691D02*
X-3401D01*
X-5940Y-111152D02*
X-7210Y-109882D01*
X-9749D01*
X-11019Y-111152D01*
Y-116230D01*
X-9749Y-117500D01*
X-7210D01*
X-5940Y-116230D01*
Y-111152D01*
X-13558D02*
X-14827Y-109882D01*
X-17367D01*
X-18636Y-111152D01*
Y-112422D01*
X-17367Y-113691D01*
X-16097D01*
X-17367D01*
X-18636Y-114961D01*
Y-116230D01*
X-17367Y-117500D01*
X-14827D01*
X-13558Y-116230D01*
X-21175Y-111152D02*
X-22445Y-109882D01*
X-24984D01*
X-26254Y-111152D01*
Y-112422D01*
X-24984Y-113691D01*
X-23715D01*
X-24984D01*
X-26254Y-114961D01*
Y-116230D01*
X-24984Y-117500D01*
X-22445D01*
X-21175Y-116230D01*
X-28793Y-111152D02*
X-30062Y-109882D01*
X-32602D01*
X-33871Y-111152D01*
Y-112422D01*
X-32602Y-113691D01*
X-31332D01*
X-32602D01*
X-33871Y-114961D01*
Y-116230D01*
X-32602Y-117500D01*
X-30062D01*
X-28793Y-116230D01*
X-36410D02*
X-37680Y-117500D01*
X-40219D01*
X-41489Y-116230D01*
Y-111152D01*
X-40219Y-109882D01*
X-37680D01*
X-36410Y-111152D01*
Y-112422D01*
X-37680Y-113691D01*
X-41489D01*
X-44028D02*
X-49106D01*
X-51645Y-111152D02*
X-52915Y-109882D01*
X-55454D01*
X-56724Y-111152D01*
Y-116230D01*
X-55454Y-117500D01*
X-52915D01*
X-51645Y-116230D01*
Y-111152D01*
X-59263Y-117500D02*
X-61802D01*
X-60533D01*
Y-109882D01*
X-59263Y-111152D01*
X45465Y6096D02*
X46735Y4826D01*
Y2287D01*
X45465Y1018D01*
X40387D01*
X39117Y2287D01*
Y4826D01*
X40387Y6096D01*
X39117Y8635D02*
Y11174D01*
Y9905D01*
X46735D01*
X45465Y8635D01*
X98417Y22603D02*
X103804Y27989D01*
X101110Y30683D01*
X99315Y30683D01*
X97520Y28887D01*
X97520Y27092D01*
X100213Y24398D01*
X98417Y26194D02*
X94826Y26194D01*
X98417Y33376D02*
X94826Y36967D01*
X96622Y35171D01*
X91235Y29785D01*
X87645Y33376D02*
X85849Y35171D01*
X86747Y34274D01*
X92133Y39660D01*
Y37864D01*
X-7062Y35263D02*
Y28915D01*
X-8332Y27645D01*
X-10871D01*
X-12141Y28915D01*
Y35263D01*
X-14680Y27645D02*
X-17219D01*
X-15949D01*
Y35263D01*
X-14680Y33993D01*
D39*
X-55880Y132080D02*
X-46990D01*
X-55880Y123190D02*
Y132080D01*
D56*
X11430Y-15000D02*
X15000D01*
Y-11430D01*
Y11430D02*
Y15000D01*
X11430D02*
X15000D01*
X-15000D02*
X-11432D01*
X-15000Y11430D02*
Y15000D01*
Y-15000D02*
Y-11430D01*
Y-15000D02*
X-11434D01*
M02*
