G04*
G04 #@! TF.GenerationSoftware,Altium Limited,Altium Designer,24.1.2 (44)*
G04*
G04 Layer_Color=65535*
%FSLAX44Y44*%
%MOMM*%
G71*
G04*
G04 #@! TF.SameCoordinates,9C14B213-01B7-469D-91E1-2C6BB7E4D26A*
G04*
G04*
G04 #@! TF.FilePolarity,Positive*
G04*
G01*
G75*
%ADD10C,0.1000*%
%ADD11C,0.2000*%
%ADD12C,0.2500*%
%ADD13C,0.1270*%
D10*
X87788Y-20732D02*
G03*
X87081Y-20025I-353J353D01*
G01*
D02*
G03*
X87788Y-20732I353J-353D01*
G01*
X129558Y123358D02*
X148811Y-22880D01*
D11*
X72004Y85522D02*
G03*
X71013Y85392I-496J-65D01*
G01*
D02*
G03*
X72004Y85522I496J65D01*
G01*
D02*
G03*
X71013Y85392I-496J-65D01*
G01*
X54266Y-72695D02*
Y-62695D01*
X66966Y-72695D02*
Y-62695D01*
X-21228Y61082D02*
Y71582D01*
X-7728Y61082D02*
Y71582D01*
X-4314Y75966D02*
Y92690D01*
X10410Y75966D02*
Y92690D01*
X-3806Y37612D02*
Y54336D01*
X10918Y37612D02*
Y54336D01*
X-4060Y56408D02*
Y73132D01*
X10664Y56408D02*
Y73132D01*
X-8639Y42506D02*
Y53506D01*
X-21236Y42506D02*
Y53506D01*
X-20728Y79082D02*
Y90082D01*
X-8228Y79082D02*
Y90082D01*
X26631Y-42418D02*
X35560Y-51347D01*
Y-33489D02*
X44489Y-42418D01*
X-37709Y-27483D02*
X-27209D01*
X-37762Y-41040D02*
X-27262D01*
X-39080Y-27396D02*
X-26452D01*
X-39080Y-14768D02*
X-26452D01*
X48983Y-21590D02*
X57912Y-30519D01*
Y-12661D02*
X66841Y-21590D01*
X48891Y-22246D02*
X56315Y-29671D01*
X39267Y-31795D02*
X46691Y-39219D01*
X-7896Y-54570D02*
Y-49570D01*
X21104Y-54570D02*
Y-49570D01*
X-7896Y-54570D02*
X21104D01*
X-7896Y-49570D02*
X21104D01*
D12*
X-13228Y53832D02*
G03*
X-13228Y53832I-1250J0D01*
G01*
X-13986Y34756D02*
G03*
X-13986Y34756I-1250J0D01*
G01*
X-13228Y70832D02*
G03*
X-13228Y70832I-1250J0D01*
G01*
X-10646Y-64320D02*
G03*
X-10646Y-64320I-1250J0D01*
G01*
D13*
X-112588Y17036D02*
Y76436D01*
X-49188D01*
Y17036D02*
Y76436D01*
X-112588Y17036D02*
X-49188D01*
X-100188Y4236D02*
X-90188D01*
X-100188D02*
X-95188Y14236D01*
X-90188Y4236D01*
X-129540Y67308D02*
X-124462D01*
X-127001D01*
Y59690D01*
X-121923Y63499D02*
X-116844D01*
X-60000Y-117500D02*
Y-112422D01*
X-57461Y-109882D01*
X-54922Y-112422D01*
Y-117500D01*
Y-113691D01*
X-60000D01*
X-52382Y-109882D02*
Y-117500D01*
X-48574D01*
X-47304Y-116230D01*
Y-111152D01*
X-48574Y-109882D01*
X-52382D01*
X-44765Y-117500D02*
Y-112422D01*
X-42226Y-109882D01*
X-39687Y-112422D01*
Y-117500D01*
Y-113691D01*
X-44765D01*
X-24451Y-109882D02*
X-26991Y-111152D01*
X-29530Y-113691D01*
Y-116230D01*
X-28260Y-117500D01*
X-25721D01*
X-24451Y-116230D01*
Y-114961D01*
X-25721Y-113691D01*
X-29530D01*
X-16834Y-109882D02*
X-21912D01*
Y-113691D01*
X-19373Y-112422D01*
X-18103D01*
X-16834Y-113691D01*
Y-116230D01*
X-18103Y-117500D01*
X-20643D01*
X-21912Y-116230D01*
X-14295Y-111152D02*
X-13025Y-109882D01*
X-10486D01*
X-9216Y-111152D01*
Y-116230D01*
X-10486Y-117500D01*
X-13025D01*
X-14295Y-116230D01*
Y-111152D01*
X-6677Y-113691D02*
X-1599D01*
X940Y-111152D02*
X2210Y-109882D01*
X4749D01*
X6019Y-111152D01*
Y-116230D01*
X4749Y-117500D01*
X2210D01*
X940Y-116230D01*
Y-111152D01*
X8558D02*
X9827Y-109882D01*
X12367D01*
X13636Y-111152D01*
Y-112422D01*
X12367Y-113691D01*
X11097D01*
X12367D01*
X13636Y-114961D01*
Y-116230D01*
X12367Y-117500D01*
X9827D01*
X8558Y-116230D01*
X16175Y-111152D02*
X17445Y-109882D01*
X19984D01*
X21254Y-111152D01*
Y-112422D01*
X19984Y-113691D01*
X18714D01*
X19984D01*
X21254Y-114961D01*
Y-116230D01*
X19984Y-117500D01*
X17445D01*
X16175Y-116230D01*
X23793Y-111152D02*
X25062Y-109882D01*
X27602D01*
X28871Y-111152D01*
Y-112422D01*
X27602Y-113691D01*
X26332D01*
X27602D01*
X28871Y-114961D01*
Y-116230D01*
X27602Y-117500D01*
X25062D01*
X23793Y-116230D01*
X31410D02*
X32680Y-117500D01*
X35219D01*
X36489Y-116230D01*
Y-111152D01*
X35219Y-109882D01*
X32680D01*
X31410Y-111152D01*
Y-112422D01*
X32680Y-113691D01*
X36489D01*
X39028D02*
X44106D01*
X46645Y-111152D02*
X47915Y-109882D01*
X50454D01*
X51724Y-111152D01*
Y-116230D01*
X50454Y-117500D01*
X47915D01*
X46645Y-116230D01*
Y-111152D01*
X54263Y-117500D02*
X56802D01*
X55533D01*
Y-109882D01*
X54263Y-111152D01*
X-28956Y107185D02*
Y105916D01*
X-26417Y103377D01*
X-23878Y105916D01*
Y107185D01*
X-26417Y103377D02*
Y99568D01*
X-21339Y107185D02*
Y99568D01*
X-16260D01*
X-13721Y107185D02*
Y99568D01*
X-11182Y102107D01*
X-8643Y99568D01*
Y107185D01*
X-6103Y102107D02*
X-1025D01*
X-6103Y104646D02*
X-1025D01*
X1514Y99568D02*
Y107185D01*
X4053Y104646D01*
X6593Y107185D01*
Y99568D01*
X14210Y105916D02*
X12940Y107185D01*
X10401D01*
X9132Y105916D01*
Y100838D01*
X10401Y99568D01*
X12940D01*
X14210Y100838D01*
Y103377D01*
X11671D01*
X16749Y107185D02*
Y99568D01*
Y103377D01*
X21828D01*
Y107185D01*
Y99568D01*
X-28702Y115570D02*
Y123188D01*
X-24893D01*
X-23624Y121918D01*
Y119379D01*
X-24893Y118109D01*
X-28702D01*
X-26163D02*
X-23624Y115570D01*
X-16006Y123188D02*
X-21084D01*
Y115570D01*
X-16006D01*
X-21084Y119379D02*
X-18545D01*
X-13467Y123188D02*
Y115570D01*
X-9658D01*
X-8389Y116840D01*
Y121918D01*
X-9658Y123188D01*
X-13467D01*
X-5849Y118109D02*
X-771D01*
X-5849Y120648D02*
X-771D01*
X1768Y115570D02*
Y123188D01*
X4307Y120648D01*
X6847Y123188D01*
Y115570D01*
X14464Y121918D02*
X13195Y123188D01*
X10655D01*
X9386Y121918D01*
Y116840D01*
X10655Y115570D01*
X13195D01*
X14464Y116840D01*
Y119379D01*
X11925D01*
X17003Y123188D02*
Y115570D01*
X22082D01*
X-129032Y34288D02*
X-123954D01*
X-126493D01*
Y26670D01*
X-121414Y30479D02*
X-116336D01*
X-118875Y33018D02*
Y27940D01*
X77479Y-91294D02*
X69981D01*
Y-87546D01*
X71231Y-86296D01*
X73730D01*
X74980Y-87546D01*
Y-91294D01*
Y-88795D02*
X77479Y-86296D01*
Y-83797D02*
Y-81298D01*
Y-82547D01*
X69981D01*
X71231Y-83797D01*
X57893Y-85402D02*
X56643Y-86651D01*
Y-89150D01*
X57893Y-90400D01*
X62891D01*
X64141Y-89150D01*
Y-86651D01*
X62891Y-85402D01*
X64141Y-79154D02*
X56643D01*
X60392Y-82903D01*
Y-77904D01*
X13971Y51814D02*
X21589D01*
Y48005D01*
X20319Y46736D01*
X17780D01*
X16510Y48005D01*
Y51814D01*
Y49275D02*
X13971Y46736D01*
Y40388D02*
X21589D01*
X17780Y44196D01*
Y39118D01*
X14479Y70610D02*
X22097D01*
Y66801D01*
X20827Y65532D01*
X18288D01*
X17018Y66801D01*
Y70610D01*
Y68071D02*
X14479Y65532D01*
X20827Y62992D02*
X22097Y61723D01*
Y59184D01*
X20827Y57914D01*
X19558D01*
X18288Y59184D01*
Y60453D01*
Y59184D01*
X17018Y57914D01*
X15749D01*
X14479Y59184D01*
Y61723D01*
X15749Y62992D01*
X14987Y90422D02*
X22605D01*
Y86613D01*
X21335Y85344D01*
X18796D01*
X17526Y86613D01*
Y90422D01*
Y87883D02*
X14987Y85344D01*
Y77726D02*
Y82804D01*
X20066Y77726D01*
X21335D01*
X22605Y78996D01*
Y81535D01*
X21335Y82804D01*
X-31495Y42674D02*
X-23877D01*
Y46483D01*
X-25147Y47752D01*
X-30225D01*
X-31495Y46483D01*
Y42674D01*
X-23877Y54100D02*
X-31495D01*
X-27686Y50292D01*
Y55370D01*
X-30987Y79250D02*
X-23369D01*
Y83059D01*
X-24639Y84328D01*
X-29717D01*
X-30987Y83059D01*
Y79250D01*
X-29717Y86868D02*
X-30987Y88137D01*
Y90676D01*
X-29717Y91946D01*
X-28448D01*
X-27178Y90676D01*
Y89407D01*
Y90676D01*
X-25908Y91946D01*
X-24639D01*
X-23369Y90676D01*
Y88137D01*
X-24639Y86868D01*
X-31495Y59984D02*
X-23877D01*
Y63793D01*
X-25147Y65062D01*
X-30225D01*
X-31495Y63793D01*
Y59984D01*
X-23877Y72680D02*
Y67602D01*
X-28956Y72680D01*
X-30225D01*
X-31495Y71410D01*
Y68871D01*
X-30225Y67602D01*
X47599Y-9516D02*
X45803Y-9516D01*
X44008Y-11312D01*
Y-13107D01*
X47599Y-16698D01*
X49394D01*
X51190Y-14903D01*
X51190Y-13107D01*
X52087Y-3232D02*
X51190Y-5925D01*
X51190Y-9516D01*
X52985Y-11312D01*
X54781D01*
X56576Y-9516D01*
X56576Y-7721D01*
X55678Y-6823D01*
X53883Y-6823D01*
X51190Y-9516D01*
X62285Y-898D02*
X67671Y-6284D01*
X70364Y-3591D01*
X70364Y-1796D01*
X66773Y1796D01*
X64978Y1796D01*
X62285Y-898D01*
X73057D02*
X74853Y898D01*
X73955Y0D01*
X68569Y5386D01*
Y3591D01*
X-51816Y-17781D02*
X-53085Y-16511D01*
X-55624D01*
X-56894Y-17781D01*
Y-22859D01*
X-55624Y-24129D01*
X-53085D01*
X-51816Y-22859D01*
X-49276Y-17781D02*
X-48007Y-16511D01*
X-45468D01*
X-44198Y-17781D01*
Y-19050D01*
X-45468Y-20320D01*
X-46737D01*
X-45468D01*
X-44198Y-21590D01*
Y-22859D01*
X-45468Y-24129D01*
X-48007D01*
X-49276Y-22859D01*
X24993Y-31360D02*
X23197Y-31360D01*
X21402Y-33156D01*
Y-34951D01*
X24993Y-38542D01*
X26788D01*
X28584Y-36747D01*
X28584Y-34951D01*
X34868Y-30463D02*
X31277Y-34053D01*
Y-26872D01*
X30379Y-25974D01*
X28584Y-25974D01*
X26788Y-27769D01*
Y-29565D01*
X-52070Y-32513D02*
X-53339Y-31243D01*
X-55878D01*
X-57148Y-32513D01*
Y-37591D01*
X-55878Y-38861D01*
X-53339D01*
X-52070Y-37591D01*
X-49530Y-31243D02*
X-44452D01*
Y-32513D01*
X-49530Y-37591D01*
Y-38861D01*
X36169Y-20184D02*
X34373Y-20184D01*
X32578Y-21980D01*
Y-23775D01*
X36169Y-27366D01*
X37964D01*
X39760Y-25571D01*
X39760Y-23775D01*
X40657Y-13900D02*
X37067Y-17491D01*
X39760Y-20184D01*
X40658Y-17491D01*
X41555Y-16593D01*
X43351D01*
X45146Y-18389D01*
X45146Y-20184D01*
X43351Y-21980D01*
X41555D01*
X-6348Y-25261D02*
Y-31609D01*
X-5078Y-32879D01*
X-2539D01*
X-1270Y-31609D01*
Y-25261D01*
X6348Y-32879D02*
X1270D01*
X6348Y-27800D01*
Y-26531D01*
X5078Y-25261D01*
X2539D01*
X1270Y-26531D01*
X-124715Y47244D02*
Y49783D01*
Y48513D01*
X-131063D01*
X-132333Y49783D01*
Y51052D01*
X-131063Y52322D01*
X-132333Y39626D02*
Y44704D01*
X-127254Y39626D01*
X-125985D01*
X-124715Y40896D01*
Y43435D01*
X-125985Y44704D01*
X118589Y147235D02*
X116072Y146904D01*
X117331Y147070D01*
X118159Y140776D01*
X117066Y139352D01*
X115807Y139186D01*
X114383Y140279D01*
X122101Y140014D02*
X124618Y140346D01*
X123360Y140180D01*
X122365Y147732D01*
X121272Y146308D01*
M02*
