M48
;Layer_Color=9474304
;FILE_FORMAT=4:4
METRIC,LZ
;TYPE=PLATED
T01F00S00C0.3048
T02F00S00C0.3810
T03F00S00C0.7112
T04F00S00C0.8382
T05F00S00C1.1400
T06F00S00C3.1500
;TYPE=NON_PLATED
T07F00S00C1.6510
%
T01
X00325144Y-00185
X00322Y-001595
X00331Y-001115
X00335Y-00094
X00339826Y-00078
X003545Y-00091
X00329Y000445
Y000565
X003375Y00057
Y0007
X00329Y00069
X003285Y00082
X003375Y00083
Y00095
X003285Y000945
Y001075
X003375Y00108
Y00121
X003285Y0012
Y001305
X003375Y001335
X003375Y00146
X003285Y001455
Y00158
X00289Y00114
X002845Y000695
X002855Y00044
X00277Y-000255
X002665
X002286Y-0004572
X0029394Y-0007534
X002245Y00063
X001785Y000635
X001524Y0004064
X001295Y00063
X00087Y000625
X000325
X-0001Y00062
X-00055
X-00091Y000625
X-000762Y-000508
X000762Y-0004064
X0010795Y0013335
X001115Y001695
X001555Y00169
X002085Y001695
X0024Y00158
X00249Y00153
Y00138
X002545Y00169
X002286Y002032
X00254Y0026924
X00072Y00203
X000625Y001685
X0002Y00168
X-00025
X-00064Y001685
X-00092Y002205
X-001035Y00169
X-001395
X-001755
X-002085Y0017
X-002395Y001695
X-00234Y00146
X-00226Y0012
X-002195Y00101
Y000885
X-00211Y000945
Y00082
X-002055Y00063
X-002385Y00064
X-002695Y000635
X-001695Y00063
X-001335
X-00211Y001075
X-002755Y0017
X-003085Y00171
X-003395Y001705
X-00364Y00142
X-003645Y001065
Y00074
Y0004
Y00008
Y-000275
X-00354Y-000445
X-003365Y-000635
X002032Y003048
X0019812Y003302
T02
X-00309Y-00232
T03
X-000325Y-00279
X-000255Y-00065
X0013
X-00178
T04
X00345562Y00017942
X00368168
Y00184058
X00345562
T05
X-003187Y-001143
X-002933
Y-000889
Y-000635
Y-000381
Y-000127
Y000127
Y000381
Y000635
Y000889
Y001143
X-003187
Y000889
Y000635
Y000381
Y000127
Y-000127
Y-000381
Y-000635
Y-000889
T06
X-003048Y-003048
X003048
X-003048Y003048
X003048
T07
X00295Y0002175
Y0018025
M30
