M48
;Layer_Color=9474304
;FILE_FORMAT=4:4
METRIC,LZ
;TYPE=PLATED
T02F00S00C0.7112
T03F00S00C2.7000
T04F00S00C4.5000
;TYPE=NON_PLATED
T05F00S00C3.2000
%
T02
X00278892Y00163068
T03
X0008Y00114
X0042
Y00186
Y00314
Y00386
X00275Y0036
X00225
Y00255
X00275
X0008Y00314
Y00386
Y00186
T04
X00214Y0005
X00286
T05
X0003Y0003
X00147Y0005
X00353
X0047Y0003
X0025Y0019
Y003075
Y0045
X0047Y0047
X0003
M30
