M48
;Layer_Color=9474304
;FILE_FORMAT=4:4
METRIC,LZ
;TYPE=PLATED
T01F00S00C0.5000
T02F00S00C0.7112
T03F00S00C0.8000
T04F00S00C1.2000
T05F00S00C3.1000
;TYPE=NON_PLATED
T06F00S00C1.6000
%
T01
X00017Y00067
X00085Y00065
X00132023Y00060023
X00149Y00023
X00156Y00014
X0007Y00015
X00219Y0006
X0023Y00161
X00285Y0015
X00284856Y0017225
X00278Y00129
X00312Y00089
X00352Y00082
Y00062
X00410821Y00075547
X00402Y00088
X0041Y0012
X00425
X00435Y00123
X004325Y001025
X00402Y00128
X00413Y00165
X00475Y0015
X004875Y0017
X004975
X0051Y001525
X005025Y00105
X00495Y001125
X004875Y000825
X00475Y00055
X005275Y000925
X00341Y00151
X00297Y0021
X00245Y00265
X00225Y00305
X00185
X00205Y00345
X00271Y00299
X00322
X00373
X00404
X00455Y00303
X00438Y00361
X00387
X00336
X00501Y00352
X005175Y002225
X0047411Y00226653
X00455Y0022
X00456Y00204
X004325Y001925
X00423Y00187
X0041Y00202
X0011Y00255
X00055
X00145Y00305
X00165Y00345
T02
X00385Y00262
T03
X00345Y0002
X00365
X00385
X00405
X00425
X00445
X00465
X00485
X00505
X00525
Y0024
X00505
X00485
X00465
X00445
X00425
X00405
X00385
X00365
X00345
T04
X001218Y00095
X001468
Y0012
Y00145
X001218
Y0012
T05
X00035Y00035
X0059
Y003
X00035Y0034
T06
X0005Y00145
M30
