G04*
G04 #@! TF.GenerationSoftware,Altium Limited,Altium Designer,24.1.2 (44)*
G04*
G04 Layer_Physical_Order=1*
G04 Layer_Color=255*
%FSLAX44Y44*%
%MOMM*%
G71*
G04*
G04 #@! TF.SameCoordinates,47630513-E096-4814-B05C-B46C922ECB9E*
G04*
G04*
G04 #@! TF.FilePolarity,Positive*
G04*
G01*
G75*
%ADD13R,0.4725X0.4682*%
%ADD14R,1.6000X0.8000*%
%ADD15R,3.0000X2.1000*%
%ADD16R,0.5000X0.4000*%
%ADD17R,0.4000X0.5000*%
G04:AMPARAMS|DCode=18|XSize=0.4mm|YSize=0.95mm|CornerRadius=0.2mm|HoleSize=0mm|Usage=FLASHONLY|Rotation=90.000|XOffset=0mm|YOffset=0mm|HoleType=Round|Shape=RoundedRectangle|*
%AMROUNDEDRECTD18*
21,1,0.4000,0.5500,0,0,90.0*
21,1,0.0000,0.9500,0,0,90.0*
1,1,0.4000,0.2750,0.0000*
1,1,0.4000,0.2750,0.0000*
1,1,0.4000,-0.2750,0.0000*
1,1,0.4000,-0.2750,0.0000*
%
%ADD18ROUNDEDRECTD18*%
G04:AMPARAMS|DCode=19|XSize=0.95mm|YSize=0.4mm|CornerRadius=0.2mm|HoleSize=0mm|Usage=FLASHONLY|Rotation=90.000|XOffset=0mm|YOffset=0mm|HoleType=Round|Shape=RoundedRectangle|*
%AMROUNDEDRECTD19*
21,1,0.9500,0.0000,0,0,90.0*
21,1,0.5500,0.4000,0,0,90.0*
1,1,0.4000,0.0000,0.2750*
1,1,0.4000,0.0000,-0.2750*
1,1,0.4000,0.0000,-0.2750*
1,1,0.4000,0.0000,0.2750*
%
%ADD19ROUNDEDRECTD19*%
%ADD20R,0.5682X0.5725*%
%ADD21R,0.7000X0.5000*%
%ADD22R,0.5500X0.5500*%
%ADD23R,2.1500X0.6500*%
%ADD24R,2.3000X2.3000*%
%ADD25R,0.4000X0.9500*%
%ADD32C,0.2540*%
%ADD33C,4.0640*%
%ADD34C,0.7112*%
G36*
X456883Y230847D02*
X458269Y230273D01*
X459517Y229439D01*
X460579Y228377D01*
X461413Y227129D01*
X461987Y225743D01*
X462280Y224270D01*
Y223520D01*
Y135725D01*
X461010Y135199D01*
X459072Y137136D01*
X455328Y139638D01*
X451168Y141362D01*
X446752Y142240D01*
X442248D01*
X437832Y141362D01*
X433672Y139638D01*
X429928Y137136D01*
X426744Y133952D01*
X424242Y130208D01*
X422519Y126048D01*
X421640Y121631D01*
Y117128D01*
X422519Y112712D01*
X424242Y108552D01*
X426744Y104808D01*
X429928Y101623D01*
X433672Y99122D01*
X437832Y97399D01*
X442248Y96520D01*
X446752D01*
X451168Y97399D01*
X455328Y99122D01*
X459072Y101623D01*
X461010Y103561D01*
X462280Y103035D01*
Y15240D01*
Y14490D01*
X461987Y13017D01*
X461413Y11631D01*
X460579Y10382D01*
X459517Y9321D01*
X458269Y8487D01*
X456883Y7913D01*
X455410Y7620D01*
X134204D01*
X133835Y8835D01*
X133952Y8913D01*
X137136Y12098D01*
X139638Y15842D01*
X141362Y20002D01*
X142240Y24418D01*
Y28921D01*
X141362Y33338D01*
X139638Y37498D01*
X137136Y41242D01*
X133952Y44426D01*
X130208Y46928D01*
X126048Y48651D01*
X121631Y49530D01*
X117128D01*
X112712Y48651D01*
X108552Y46928D01*
X104808Y44426D01*
X101623Y41242D01*
X99122Y37498D01*
X97399Y33338D01*
X96520Y28921D01*
Y24418D01*
X97399Y20002D01*
X99122Y15842D01*
X101623Y12098D01*
X104808Y8913D01*
X104925Y8835D01*
X104556Y7620D01*
X14490D01*
X13017Y7913D01*
X11631Y8487D01*
X10382Y9321D01*
X9321Y10382D01*
X8487Y11631D01*
X7913Y13017D01*
X7620Y14490D01*
X7620Y15240D01*
Y223520D01*
Y224270D01*
X7913Y225743D01*
X8487Y227129D01*
X9321Y228377D01*
X10382Y229439D01*
X11631Y230273D01*
X13017Y230847D01*
X14490Y231140D01*
X104556D01*
X104925Y229925D01*
X104808Y229846D01*
X101623Y226662D01*
X99122Y222918D01*
X97399Y218758D01*
X96520Y214342D01*
Y209839D01*
X97399Y205422D01*
X99122Y201262D01*
X101623Y197518D01*
X104808Y194333D01*
X108552Y191832D01*
X112712Y190109D01*
X117128Y189230D01*
X121631D01*
X126048Y190109D01*
X130208Y191832D01*
X133952Y194333D01*
X137136Y197518D01*
X139638Y201262D01*
X141362Y205422D01*
X142240Y209839D01*
Y214342D01*
X141362Y218758D01*
X139638Y222918D01*
X137136Y226662D01*
X133952Y229846D01*
X133835Y229925D01*
X134204Y231140D01*
X455410D01*
X456883Y230847D01*
D02*
G37*
%LPC*%
G36*
X213106Y178284D02*
Y173482D01*
X217908D01*
X217004Y175665D01*
X215289Y177380D01*
X213106Y178284D01*
D02*
G37*
G36*
X210566D02*
X208383Y177380D01*
X206668Y175665D01*
X205764Y173482D01*
X210566D01*
Y178284D01*
D02*
G37*
G36*
X232918Y177776D02*
Y172974D01*
X237720D01*
X236816Y175157D01*
X235101Y176872D01*
X232918Y177776D01*
D02*
G37*
G36*
X230378D02*
X228195Y176872D01*
X226480Y175157D01*
X225576Y172974D01*
X230378D01*
Y177776D01*
D02*
G37*
G36*
X217908Y170942D02*
X213106D01*
Y166140D01*
X215289Y167044D01*
X217004Y168759D01*
X217908Y170942D01*
D02*
G37*
G36*
X210566D02*
X205764D01*
X206668Y168759D01*
X208383Y167044D01*
X210566Y166140D01*
Y170942D01*
D02*
G37*
G36*
X237720Y170434D02*
X232918D01*
Y165632D01*
X235101Y166536D01*
X236816Y168251D01*
X237720Y170434D01*
D02*
G37*
G36*
X230378D02*
X225576D01*
X226480Y168251D01*
X228195Y166536D01*
X230378Y165632D01*
Y170434D01*
D02*
G37*
G36*
X222758Y168124D02*
Y163322D01*
X227560D01*
X226656Y165505D01*
X224941Y167220D01*
X222758Y168124D01*
D02*
G37*
G36*
X220218D02*
X218035Y167220D01*
X216320Y165505D01*
X215416Y163322D01*
X220218D01*
Y168124D01*
D02*
G37*
G36*
X227560Y160782D02*
X222758D01*
Y155980D01*
X224941Y156884D01*
X226656Y158599D01*
X227560Y160782D01*
D02*
G37*
G36*
X220218D02*
X215354D01*
X215237Y160608D01*
X213042D01*
Y156838D01*
X216377D01*
X217582Y157337D01*
X218035Y156884D01*
X220218Y155980D01*
Y160782D01*
D02*
G37*
G36*
X232410Y157456D02*
Y152654D01*
X237212D01*
X236308Y154837D01*
X234593Y156552D01*
X232410Y157456D01*
D02*
G37*
G36*
X229870D02*
X227687Y156552D01*
X225972Y154837D01*
X225068Y152654D01*
X229870D01*
Y157456D01*
D02*
G37*
G36*
X47490Y176670D02*
X12410D01*
Y150590D01*
X47490D01*
Y176670D01*
D02*
G37*
G36*
X237212Y150114D02*
X225068D01*
X225972Y147931D01*
X227255Y146648D01*
Y144684D01*
X226100D01*
Y141414D01*
X231140D01*
X236180D01*
Y144684D01*
X235025D01*
Y146648D01*
X236308Y147931D01*
X237212Y150114D01*
D02*
G37*
G36*
X41020Y208240D02*
X19940D01*
Y198160D01*
X22095D01*
Y195790D01*
X20690D01*
Y185210D01*
X40270D01*
Y186615D01*
X55065D01*
Y144670D01*
X48410D01*
Y131590D01*
Y119090D01*
Y106590D01*
Y101900D01*
X58950D01*
X69490D01*
Y107174D01*
X70760Y107887D01*
X72447Y107188D01*
X74873D01*
X76125Y107707D01*
X77395Y106858D01*
Y65109D01*
X66971Y54685D01*
X40270D01*
Y56090D01*
X20690D01*
Y45510D01*
X22095D01*
Y43140D01*
X19940D01*
Y33060D01*
X41020D01*
Y34215D01*
X62992D01*
X64479Y34511D01*
X65739Y35353D01*
X85937Y55551D01*
X207772D01*
X209259Y55847D01*
X210519Y56689D01*
X222928Y69099D01*
X223770Y70359D01*
X224066Y71845D01*
Y108450D01*
X224424Y108521D01*
X225925Y109525D01*
X226929Y111026D01*
X227281Y112798D01*
X227013Y114143D01*
X227776Y115413D01*
X234693D01*
X236521Y113585D01*
X237781Y112743D01*
X239268Y112447D01*
X240542D01*
Y110930D01*
X260346D01*
Y112447D01*
X262980D01*
X264263Y111164D01*
X266503Y110236D01*
X268929D01*
X271169Y111164D01*
X272884Y112879D01*
X273812Y115119D01*
Y117545D01*
X272884Y119785D01*
X271169Y121500D01*
X268929Y122428D01*
X266503D01*
X264263Y121500D01*
X262980Y120217D01*
X260346D01*
Y121734D01*
X240542D01*
Y121734D01*
X240424Y121686D01*
X239329Y122181D01*
X239090Y122432D01*
X239201Y123471D01*
X239630Y123900D01*
X240542Y124646D01*
Y124646D01*
X240542Y124646D01*
X260346D01*
Y126052D01*
X262796D01*
X264080Y124769D01*
X266320Y123841D01*
X268745D01*
X270986Y124769D01*
X272701Y126484D01*
X273629Y128724D01*
Y131150D01*
X272701Y133390D01*
X270986Y135105D01*
X268745Y136033D01*
X266320D01*
X264080Y135105D01*
X262796Y133822D01*
X260346D01*
Y135450D01*
X240542D01*
Y133933D01*
X240284D01*
X238797Y133637D01*
X237537Y132795D01*
X237353Y132611D01*
X236180Y133097D01*
Y138874D01*
X231140D01*
X226100D01*
Y136759D01*
X224981Y136357D01*
X223849Y136997D01*
Y140810D01*
X223553Y142297D01*
X222711Y143557D01*
X221223Y145045D01*
X219963Y145887D01*
X218476Y146183D01*
X214305D01*
X214179Y146819D01*
X213175Y148321D01*
X212757Y148600D01*
X212421Y150325D01*
X212558Y150528D01*
X216312D01*
Y154298D01*
X211772D01*
Y155568D01*
X210502D01*
Y160608D01*
X207657D01*
Y160972D01*
X207361Y162459D01*
X206519Y163719D01*
X203407Y166831D01*
X202147Y167673D01*
X200660Y167969D01*
X196418D01*
X195569Y169239D01*
X196088Y170491D01*
Y172917D01*
X195160Y175157D01*
X193445Y176872D01*
X191205Y177800D01*
X188779D01*
X186539Y176872D01*
X185256Y175589D01*
X108289D01*
X77931Y205947D01*
X76671Y206789D01*
X75184Y207085D01*
X41020D01*
Y208240D01*
D02*
G37*
G36*
X32258Y125452D02*
Y120650D01*
X37060D01*
X36156Y122833D01*
X34441Y124548D01*
X32258Y125452D01*
D02*
G37*
G36*
X29718D02*
X27535Y124548D01*
X25820Y122833D01*
X24916Y120650D01*
X29718D01*
Y125452D01*
D02*
G37*
G36*
X37060Y118110D02*
X32258D01*
Y113308D01*
X34441Y114212D01*
X36156Y115927D01*
X37060Y118110D01*
D02*
G37*
G36*
X29718D02*
X24916D01*
X25820Y115927D01*
X27535Y114212D01*
X29718Y113308D01*
Y118110D01*
D02*
G37*
G36*
X69490Y99360D02*
X60220D01*
Y94090D01*
X69490D01*
Y99360D01*
D02*
G37*
G36*
X57680D02*
X48410D01*
Y94090D01*
X57680D01*
Y99360D01*
D02*
G37*
G36*
X47490Y88170D02*
X12410D01*
Y62090D01*
X47490D01*
Y88170D01*
D02*
G37*
%LPD*%
G36*
X103933Y168957D02*
X104368Y168667D01*
X103983Y167397D01*
X88332D01*
X86845Y167101D01*
X85585Y166259D01*
X64105Y144778D01*
X62835Y144932D01*
Y189012D01*
X62539Y190499D01*
X61697Y191759D01*
X60209Y193247D01*
X58949Y194089D01*
X57462Y194385D01*
X40270D01*
Y195790D01*
X29865D01*
Y198160D01*
X41020D01*
Y199315D01*
X73575D01*
X103933Y168957D01*
D02*
G37*
G36*
X185146Y158929D02*
X184409Y157150D01*
Y154725D01*
X185337Y152484D01*
X187052Y150770D01*
X187969Y150389D01*
X188091Y148964D01*
X187129Y148321D01*
X186125Y146819D01*
X185773Y145048D01*
Y139548D01*
X186109Y137857D01*
X186110Y137787D01*
X184948Y136590D01*
X184843Y136591D01*
X183152Y136927D01*
X181672D01*
Y132298D01*
X180402D01*
Y131028D01*
X173276D01*
X173375Y130527D01*
X174363Y129048D01*
X173375Y127570D01*
X173023Y125798D01*
X173291Y124452D01*
X172528Y123182D01*
X166954D01*
Y132346D01*
X165937D01*
Y143940D01*
X167207Y144193D01*
X167552Y143359D01*
X169267Y141644D01*
X171450Y140740D01*
Y146812D01*
Y152884D01*
X169267Y151980D01*
X167552Y150265D01*
X167207Y149431D01*
X165937Y149684D01*
Y153331D01*
X172805Y160199D01*
X184486D01*
X185146Y158929D01*
D02*
G37*
G36*
X158167Y153331D02*
Y137238D01*
X156897Y136712D01*
X156361Y137248D01*
X154178Y138152D01*
Y132080D01*
X151638D01*
Y138152D01*
X149650Y137329D01*
X148380Y137832D01*
Y138990D01*
X148380Y139140D01*
Y150570D01*
X121800D01*
Y139140D01*
X121800Y138990D01*
Y137870D01*
X121800Y137720D01*
Y137537D01*
X120530Y137011D01*
X120293Y137248D01*
X118110Y138152D01*
Y132080D01*
X115570D01*
Y138152D01*
X113387Y137248D01*
X113053Y136914D01*
X111880Y137400D01*
Y137720D01*
X111880Y137870D01*
Y138990D01*
X111880Y139140D01*
Y150570D01*
X85300D01*
Y139140D01*
X85300Y138990D01*
Y137870D01*
X85300Y137720D01*
Y134191D01*
X84030Y133806D01*
X84027Y133811D01*
X76915Y140923D01*
X75655Y141765D01*
X74168Y142061D01*
X74034D01*
X73548Y143234D01*
X89941Y159627D01*
X151871D01*
X158167Y153331D01*
D02*
G37*
G36*
X173291Y114143D02*
X173023Y112798D01*
X173375Y111026D01*
X174379Y109525D01*
X175881Y108521D01*
X177652Y108169D01*
X183152D01*
X184592Y108455D01*
X185862Y107737D01*
Y95508D01*
X186517D01*
Y93172D01*
X184845Y91500D01*
X174204D01*
Y94170D01*
X169164D01*
Y95440D01*
X167894D01*
Y99980D01*
X164124D01*
Y99325D01*
X162024D01*
X161124Y101497D01*
X159409Y103212D01*
X157226Y104116D01*
Y98044D01*
X155956D01*
Y96774D01*
X149884D01*
X150788Y94591D01*
X152125Y93254D01*
X152373Y92456D01*
X152125Y91658D01*
X150788Y90321D01*
X149860Y88081D01*
Y85655D01*
X150788Y83415D01*
X150955Y83247D01*
X150470Y82074D01*
X128216D01*
X123370Y86920D01*
X123519Y88190D01*
X148380D01*
Y99770D01*
X148380D01*
Y100890D01*
X148380D01*
Y102795D01*
X150184D01*
X150317Y102822D01*
X150942Y101651D01*
X150788Y101497D01*
X149884Y99314D01*
X154686D01*
Y104475D01*
X154554Y104653D01*
X154311Y105313D01*
X163539Y114542D01*
X166954D01*
Y115413D01*
X172528D01*
X173291Y114143D01*
D02*
G37*
G36*
X215461Y108505D02*
X216297Y108339D01*
Y73454D01*
X206163Y63321D01*
X158828D01*
X158575Y64591D01*
X159409Y64936D01*
X160714Y66241D01*
X164262D01*
Y65266D01*
X174066D01*
Y74305D01*
X187917D01*
X189404Y74601D01*
X190664Y75443D01*
X199928Y84706D01*
X200770Y85967D01*
X201066Y87453D01*
Y94738D01*
X202132Y95488D01*
Y102798D01*
X204672D01*
Y95672D01*
X205174Y95771D01*
X206652Y96759D01*
X208131Y95771D01*
X208198Y95758D01*
X208073Y94488D01*
X207575D01*
X205335Y93560D01*
X203620Y91845D01*
X202716Y89662D01*
X214860D01*
X213956Y91845D01*
X212241Y93560D01*
X210562Y94255D01*
X210692Y95576D01*
X211674Y95771D01*
X213175Y96775D01*
X214179Y98277D01*
X214531Y100048D01*
Y105548D01*
X214195Y107239D01*
X214194Y107608D01*
X215092Y108506D01*
X215461Y108505D01*
D02*
G37*
G36*
X110415Y83312D02*
X110711Y81825D01*
X111553Y80565D01*
X124761Y67357D01*
X126021Y66515D01*
X127508Y66219D01*
X151220D01*
X152503Y64936D01*
X153337Y64591D01*
X153084Y63321D01*
X85312D01*
X85165Y63500D01*
Y86976D01*
X85300Y88190D01*
X110415D01*
Y83312D01*
D02*
G37*
%LPC*%
G36*
X173990Y152884D02*
Y148082D01*
X178792D01*
X177888Y150265D01*
X176173Y151980D01*
X173990Y152884D01*
D02*
G37*
G36*
X178792Y145542D02*
X173990D01*
Y140740D01*
X176173Y141644D01*
X177888Y143359D01*
X178792Y145542D01*
D02*
G37*
G36*
X179132Y136927D02*
X177652D01*
X175881Y136575D01*
X174379Y135571D01*
X173375Y134069D01*
X173276Y133568D01*
X179132D01*
Y136927D01*
D02*
G37*
G36*
X174204Y99980D02*
X170434D01*
Y96710D01*
X174204D01*
Y99980D01*
D02*
G37*
G36*
X214860Y87122D02*
X210058D01*
Y82320D01*
X212241Y83224D01*
X213956Y84939D01*
X214860Y87122D01*
D02*
G37*
G36*
X207518D02*
X202716D01*
X203620Y84939D01*
X205335Y83224D01*
X207518Y82320D01*
Y87122D01*
D02*
G37*
%LPD*%
D13*
X169164Y78190D02*
D03*
Y70146D02*
D03*
X162052Y127465D02*
D03*
Y119423D02*
D03*
D14*
X58950Y138130D02*
D03*
Y125630D02*
D03*
Y113130D02*
D03*
Y100630D02*
D03*
D15*
X29950Y163630D02*
D03*
Y75130D02*
D03*
D16*
X231140Y132144D02*
D03*
Y140144D02*
D03*
X169164Y87440D02*
D03*
Y95440D02*
D03*
D17*
X203772Y155568D02*
D03*
X211772D02*
D03*
D18*
X219902Y132298D02*
D03*
X180402Y112798D02*
D03*
Y119298D02*
D03*
Y125798D02*
D03*
Y132298D02*
D03*
X219902Y125798D02*
D03*
Y119298D02*
D03*
Y112798D02*
D03*
D19*
X209902Y142298D02*
D03*
X190402D02*
D03*
X196902D02*
D03*
X203402D02*
D03*
X209902Y102798D02*
D03*
X203402D02*
D03*
X196902D02*
D03*
D20*
X254965Y116332D02*
D03*
X245923D02*
D03*
X254965Y130048D02*
D03*
X245923D02*
D03*
D21*
X25980Y38100D02*
D03*
X34980D02*
D03*
X25980Y203200D02*
D03*
X34980D02*
D03*
D22*
X25980Y50800D02*
D03*
X34980D02*
D03*
X25980Y190500D02*
D03*
X34980D02*
D03*
D23*
X98590Y93980D02*
D03*
X135090D02*
D03*
X98590Y106680D02*
D03*
X135090D02*
D03*
X98590Y119380D02*
D03*
X135090D02*
D03*
X98590Y132080D02*
D03*
X135090D02*
D03*
X98590Y144780D02*
D03*
X135090D02*
D03*
D24*
X200152Y122548D02*
D03*
D25*
X190402Y102798D02*
D03*
D32*
X153480Y163512D02*
X162052Y154940D01*
X88332Y163512D02*
X153480D01*
X162052Y154940D02*
X171196Y164084D01*
X239268Y116332D02*
X245923D01*
X236302Y119298D02*
X239268Y116332D01*
X231140Y140144D02*
Y151384D01*
X155956Y98044D02*
X157193D01*
X159797Y95440D02*
X169164D01*
X157193Y98044D02*
X159797Y95440D01*
X75184Y203200D02*
X106680Y171704D01*
X189992D01*
X127508Y70104D02*
X155956D01*
X169185Y70125D02*
X169207Y70104D01*
X155956D02*
X155977Y70125D01*
X169185D01*
X156242Y87154D02*
X168878D01*
X169339Y87615D02*
X186454D01*
X168878Y87154D02*
X169339Y87615D01*
X155956Y86868D02*
X156242Y87154D01*
X186454Y87615D02*
X190402Y91563D01*
X135090Y132080D02*
X152908D01*
X84328Y59436D02*
X207772D01*
X220181Y71845D01*
Y112519D01*
X219902Y112798D02*
X220181Y112519D01*
X126607Y78190D02*
X169164D01*
X187917D01*
X197181Y87453D02*
Y102519D01*
X187917Y78190D02*
X197181Y87453D01*
X119380Y85416D02*
X126607Y78190D01*
X81280Y106680D02*
Y131064D01*
Y63500D02*
Y106680D01*
X98590D01*
X62996Y138176D02*
X74168D01*
X62996D02*
X88332Y163512D01*
X62950Y138130D02*
X62996Y138176D01*
X58950Y138130D02*
X62950D01*
X25980Y38100D02*
X25980Y38100D01*
X25980Y38100D02*
Y50800D01*
X25980Y50800D02*
X25980Y50800D01*
X34980Y38100D02*
X62992D01*
X84328Y59436D01*
X68580Y50800D02*
X81280Y63500D01*
X34351Y50800D02*
X68580D01*
X25980Y203200D02*
X25980Y203200D01*
Y190500D02*
Y203200D01*
Y190500D02*
X25980Y190500D01*
X57462D02*
X58950Y189012D01*
Y138130D02*
Y189012D01*
X37989Y190500D02*
X57462D01*
X34980Y203200D02*
X75184D01*
X74168Y138176D02*
X81280Y131064D01*
X98590Y106680D02*
X112812D01*
X254855Y129937D02*
X267533D01*
X254915Y115436D02*
X255811Y116332D01*
X267716D01*
X58950Y113130D02*
X59104Y113284D01*
X73660D01*
X58950Y125630D02*
X59104Y125476D01*
X73660D01*
X231063Y132221D02*
X231140Y132144D01*
X219979Y132221D02*
X231063D01*
X209902Y142298D02*
X218476D01*
X219964Y132360D02*
Y140810D01*
X218476Y142298D02*
X219964Y140810D01*
X219902Y132298D02*
X219964Y132360D01*
X219902Y132298D02*
X219979Y132221D01*
X240284Y130048D02*
X245923D01*
X203402Y102798D02*
Y119298D01*
X200152Y122548D02*
X203402Y119298D01*
X219902Y125798D02*
X236034D01*
X240284Y130048D01*
X219902Y119298D02*
X236302D01*
X200660Y164084D02*
X203772Y160972D01*
X203402Y142298D02*
X203587Y142483D01*
Y155383D01*
X203772Y155568D01*
Y160972D01*
X112812Y106680D02*
X114300Y105192D01*
X115244Y119380D02*
X119380Y115244D01*
X116840Y132080D02*
X135090D01*
X98590Y119380D02*
X115244D01*
X135090Y106680D02*
X150184D01*
X162031Y118526D01*
X190402Y91563D02*
Y102798D01*
X162177Y119298D02*
X180402D01*
X162031Y118526D02*
X162052D01*
X190402Y132298D02*
X200152Y122548D01*
X180402Y132298D02*
X190402D01*
X171196Y164084D02*
X200660D01*
X190505Y155938D02*
X196902Y149540D01*
Y102798D02*
X197181Y102519D01*
X162052Y126569D02*
Y154940D01*
X196902Y142298D02*
Y149540D01*
X114300Y83312D02*
X127508Y70104D01*
X114300Y83312D02*
Y105192D01*
X119380Y85416D02*
Y115244D01*
D33*
Y26670D02*
D03*
Y212090D02*
D03*
X444500Y119380D02*
D03*
D34*
X221488Y162052D02*
D03*
X231648Y171704D02*
D03*
X211836Y172212D02*
D03*
X155956Y98044D02*
D03*
X189992Y171704D02*
D03*
X155956Y70104D02*
D03*
Y86868D02*
D03*
X152908Y132080D02*
D03*
X208788Y88392D02*
D03*
X172720Y146812D02*
D03*
X267716Y116332D02*
D03*
X267533Y129937D02*
D03*
X73660Y113284D02*
D03*
Y125476D02*
D03*
X30988Y119380D02*
D03*
X190505Y155938D02*
D03*
X231140Y151384D02*
D03*
X200152Y122548D02*
D03*
X116840Y132080D02*
D03*
M02*
