G04*
G04 #@! TF.GenerationSoftware,Altium Limited,Altium Designer,24.1.2 (44)*
G04*
G04 Layer_Color=32896*
%FSLAX44Y44*%
%MOMM*%
G71*
G04*
G04 #@! TF.SameCoordinates,47630513-E096-4814-B05C-B46C922ECB9E*
G04*
G04*
G04 #@! TF.FilePolarity,Positive*
G04*
G01*
G75*
%ADD32C,0.2540*%
D32*
X28443Y58928D02*
X13208D01*
X20826D01*
Y69085D01*
X28443D01*
X13208D01*
X23365Y76702D02*
Y81781D01*
X20826Y84320D01*
X13208D01*
Y76702D01*
X15747Y74163D01*
X18286Y76702D01*
Y84320D01*
X13208Y89398D02*
X23365D01*
Y91937D01*
X20826Y94476D01*
X13208D01*
X20826D01*
X23365Y97016D01*
X20826Y99555D01*
X13208D01*
Y104633D02*
Y109712D01*
Y107172D01*
X23365D01*
Y104633D01*
X13208Y117329D02*
Y122407D01*
Y119868D01*
X28443D01*
Y117329D01*
X25904Y132564D02*
X23365D01*
Y130025D01*
Y135103D01*
Y132564D01*
X15747D01*
X13208Y135103D01*
Y145260D02*
Y150338D01*
X15747Y152878D01*
X20826D01*
X23365Y150338D01*
Y145260D01*
X20826Y142721D01*
X15747D01*
X13208Y145260D01*
Y157956D02*
X23365D01*
Y165574D01*
X20826Y168113D01*
X13208D01*
M02*
