G04*
G04 #@! TF.GenerationSoftware,Altium Limited,Altium Designer,24.1.2 (44)*
G04*
G04 Layer_Color=8388736*
%FSLAX44Y44*%
%MOMM*%
G71*
G04*
G04 #@! TF.SameCoordinates,47630513-E096-4814-B05C-B46C922ECB9E*
G04*
G04*
G04 #@! TF.FilePolarity,Negative*
G04*
G01*
G75*
%ADD13R,0.4725X0.4682*%
%ADD16R,0.5000X0.4000*%
%ADD17R,0.4000X0.5000*%
G04:AMPARAMS|DCode=18|XSize=0.4mm|YSize=0.95mm|CornerRadius=0.2mm|HoleSize=0mm|Usage=FLASHONLY|Rotation=90.000|XOffset=0mm|YOffset=0mm|HoleType=Round|Shape=RoundedRectangle|*
%AMROUNDEDRECTD18*
21,1,0.4000,0.5500,0,0,90.0*
21,1,0.0000,0.9500,0,0,90.0*
1,1,0.4000,0.2750,0.0000*
1,1,0.4000,0.2750,0.0000*
1,1,0.4000,-0.2750,0.0000*
1,1,0.4000,-0.2750,0.0000*
%
%ADD18ROUNDEDRECTD18*%
G04:AMPARAMS|DCode=19|XSize=0.95mm|YSize=0.4mm|CornerRadius=0.2mm|HoleSize=0mm|Usage=FLASHONLY|Rotation=90.000|XOffset=0mm|YOffset=0mm|HoleType=Round|Shape=RoundedRectangle|*
%AMROUNDEDRECTD19*
21,1,0.9500,0.0000,0,0,90.0*
21,1,0.5500,0.4000,0,0,90.0*
1,1,0.4000,0.0000,0.2750*
1,1,0.4000,0.0000,-0.2750*
1,1,0.4000,0.0000,-0.2750*
1,1,0.4000,0.0000,0.2750*
%
%ADD19ROUNDEDRECTD19*%
%ADD20R,0.5682X0.5725*%
%ADD21R,0.7000X0.5000*%
%ADD24R,2.3000X2.3000*%
%ADD25R,0.4000X0.9500*%
%ADD26R,1.8032X1.0032*%
%ADD27R,3.2032X2.3032*%
%ADD28R,0.7532X0.7532*%
%ADD29R,2.3532X0.8532*%
%ADD30C,4.2672*%
%ADD31C,0.9144*%
D13*
X169164Y78190D02*
D03*
Y70146D02*
D03*
X162052Y127465D02*
D03*
Y119423D02*
D03*
D16*
X231140Y132144D02*
D03*
Y140144D02*
D03*
X169164Y87440D02*
D03*
Y95440D02*
D03*
D17*
X203772Y155568D02*
D03*
X211772D02*
D03*
D18*
X219902Y132298D02*
D03*
X180402Y112798D02*
D03*
Y119298D02*
D03*
Y125798D02*
D03*
Y132298D02*
D03*
X219902Y125798D02*
D03*
Y119298D02*
D03*
Y112798D02*
D03*
D19*
X209902Y142298D02*
D03*
X190402D02*
D03*
X196902D02*
D03*
X203402D02*
D03*
X209902Y102798D02*
D03*
X203402D02*
D03*
X196902D02*
D03*
D20*
X254965Y116332D02*
D03*
X245923D02*
D03*
X254965Y130048D02*
D03*
X245923D02*
D03*
D21*
X25980Y38100D02*
D03*
X34980D02*
D03*
X25980Y203200D02*
D03*
X34980D02*
D03*
D24*
X200152Y122548D02*
D03*
D25*
X190402Y102798D02*
D03*
D26*
X58950Y138130D02*
D03*
Y125630D02*
D03*
Y113130D02*
D03*
Y100630D02*
D03*
D27*
X29950Y163630D02*
D03*
Y75130D02*
D03*
D28*
X25980Y50800D02*
D03*
X34980D02*
D03*
X25980Y190500D02*
D03*
X34980D02*
D03*
D29*
X98590Y93980D02*
D03*
X135090D02*
D03*
X98590Y106680D02*
D03*
X135090D02*
D03*
X98590Y119380D02*
D03*
X135090D02*
D03*
X98590Y132080D02*
D03*
X135090D02*
D03*
X98590Y144780D02*
D03*
X135090D02*
D03*
D30*
X119380Y26670D02*
D03*
Y212090D02*
D03*
X444500Y119380D02*
D03*
D31*
X221488Y162052D02*
D03*
X231648Y171704D02*
D03*
X211836Y172212D02*
D03*
X155956Y98044D02*
D03*
X189992Y171704D02*
D03*
X155956Y70104D02*
D03*
Y86868D02*
D03*
X152908Y132080D02*
D03*
X208788Y88392D02*
D03*
X172720Y146812D02*
D03*
X267716Y116332D02*
D03*
X267533Y129937D02*
D03*
X73660Y113284D02*
D03*
Y125476D02*
D03*
X30988Y119380D02*
D03*
X190505Y155938D02*
D03*
X231140Y151384D02*
D03*
X200152Y122548D02*
D03*
X116840Y132080D02*
D03*
M02*
