G04*
G04 #@! TF.GenerationSoftware,Altium Limited,Altium Designer,24.1.2 (44)*
G04*
G04 Layer_Color=65535*
%FSLAX44Y44*%
%MOMM*%
G71*
G04*
G04 #@! TF.SameCoordinates,4D670051-7F49-4B36-91F3-1F1B1C4DC3BF*
G04*
G04*
G04 #@! TF.FilePolarity,Positive*
G04*
G01*
G75*
%ADD10C,0.2500*%
%ADD11C,0.2540*%
%ADD12C,0.1300*%
%ADD13C,0.1000*%
%ADD14C,0.2000*%
%ADD15C,0.1778*%
%ADD16C,0.1270*%
%ADD17C,0.1800*%
%ADD18C,0.1780*%
D10*
X329655Y-158961D02*
G03*
X329655Y-158961I-1250J0D01*
G01*
X265000Y-65250D02*
G03*
X265000Y-65250I-1250J0D01*
G01*
X337750Y-229750D02*
G03*
X337750Y-229750I-1250J0D01*
G01*
X-317450Y172150D02*
G03*
X-317450Y172150I-1250J0D01*
G01*
X364750Y-114250D02*
G03*
X364750Y-114250I-1250J0D01*
G01*
D11*
X315844Y-1997D02*
X377820D01*
X315844D02*
Y28991D01*
X293492D02*
X315844D01*
X293492D02*
Y173009D01*
X315844D01*
Y203997D01*
X377820D01*
X259764Y-230803D02*
X257225Y-233342D01*
Y-238421D01*
X259764Y-240960D01*
X262303D01*
X264842Y-238421D01*
Y-233342D01*
X267382Y-230803D01*
X269921D01*
X272460Y-233342D01*
Y-238421D01*
X269921Y-240960D01*
X272460Y-218107D02*
Y-223186D01*
X269921Y-225725D01*
X264842D01*
X262303Y-223186D01*
Y-218107D01*
X264842Y-215568D01*
X267382D01*
Y-225725D01*
X262303Y-210490D02*
X272460D01*
X267382D01*
X264842Y-207951D01*
X262303Y-205411D01*
Y-202872D01*
X272460Y-195255D02*
Y-190177D01*
Y-192716D01*
X262303D01*
Y-195255D01*
Y-180020D02*
Y-174941D01*
X264842Y-172402D01*
X272460D01*
Y-180020D01*
X269921Y-182559D01*
X267382Y-180020D01*
Y-172402D01*
X272460Y-167324D02*
Y-162246D01*
Y-164785D01*
X257225D01*
Y-167324D01*
Y-131775D02*
Y-136854D01*
X259764Y-139393D01*
X269921D01*
X272460Y-136854D01*
Y-131775D01*
X269921Y-129236D01*
X259764D01*
X257225Y-131775D01*
X262303Y-124158D02*
X269921D01*
X272460Y-121619D01*
Y-114001D01*
X262303D01*
X259764Y-106384D02*
X262303D01*
Y-108923D01*
Y-103844D01*
Y-106384D01*
X269921D01*
X272460Y-103844D01*
X-227225Y54960D02*
Y44803D01*
Y49882D01*
X-242460D01*
Y37186D02*
Y32107D01*
X-239921Y29568D01*
X-234842D01*
X-232303Y32107D01*
Y37186D01*
X-234842Y39725D01*
X-239921D01*
X-242460Y37186D01*
X-227225Y-902D02*
Y4176D01*
Y1637D01*
X-239921D01*
X-242460Y4176D01*
Y6716D01*
X-239921Y9255D01*
X-227225Y-5980D02*
X-242460D01*
Y-16137D01*
Y-21215D02*
Y-26294D01*
Y-23754D01*
X-232303D01*
Y-21215D01*
X-242460Y-33911D02*
X-232303D01*
Y-41529D01*
X-234842Y-44068D01*
X-242460D01*
Y-49146D02*
X-227225D01*
X-237382D02*
X-232303Y-56764D01*
X-237382Y-49146D02*
X-242460Y-56764D01*
X259686Y23697D02*
X257147Y21158D01*
Y16079D01*
X259686Y13540D01*
X269842D01*
X272382Y16079D01*
Y21158D01*
X269842Y23697D01*
X272382Y31314D02*
Y36393D01*
X269842Y38932D01*
X264764D01*
X262225Y36393D01*
Y31314D01*
X264764Y28775D01*
X269842D01*
X272382Y31314D01*
X262225Y44010D02*
X272382D01*
X267303D01*
X264764Y46549D01*
X262225Y49089D01*
Y51628D01*
X259686Y61784D02*
X262225D01*
Y59245D01*
Y64324D01*
Y61784D01*
X269842D01*
X272382Y64324D01*
Y79559D02*
Y74480D01*
X269842Y71941D01*
X264764D01*
X262225Y74480D01*
Y79559D01*
X264764Y82098D01*
X267303D01*
Y71941D01*
X272382Y87176D02*
Y94794D01*
X269842Y97333D01*
X267303Y94794D01*
Y89715D01*
X264764Y87176D01*
X262225Y89715D01*
Y97333D01*
X257147Y117646D02*
X272382D01*
Y125264D01*
X269842Y127803D01*
X259686D01*
X257147Y125264D01*
Y117646D01*
X272382Y140499D02*
Y135421D01*
X269842Y132881D01*
X264764D01*
X262225Y135421D01*
Y140499D01*
X264764Y143038D01*
X267303D01*
Y132881D01*
X257147Y148117D02*
X272382D01*
Y155734D01*
X269842Y158273D01*
X267303D01*
X264764D01*
X262225Y155734D01*
Y148117D01*
Y163351D02*
X269842D01*
X272382Y165891D01*
Y173508D01*
X262225D01*
X277460Y183665D02*
Y186204D01*
X274921Y188743D01*
X262225D01*
Y181126D01*
X264764Y178587D01*
X269842D01*
X272382Y181126D01*
Y188743D01*
X53040Y272540D02*
Y282537D01*
X60538D01*
X63037Y280038D01*
Y272540D01*
X68035D02*
Y287535D01*
X75533D01*
X78032Y285036D01*
Y280038D01*
X75533Y277538D01*
X68035D01*
X73033D02*
X78032Y272540D01*
X93027Y285036D02*
X90528Y287535D01*
X85529D01*
X83030Y285036D01*
Y282537D01*
X85529Y280038D01*
X90528D01*
X93027Y277538D01*
Y275039D01*
X90528Y272540D01*
X85529D01*
X83030Y275039D01*
X98025Y287535D02*
X108022D01*
X103024D01*
Y272540D01*
X-112960Y287535D02*
Y272540D01*
X-105462D01*
X-102963Y275039D01*
Y277538D01*
X-105462Y280038D01*
X-112960D01*
X-105462D01*
X-102963Y282537D01*
Y285036D01*
X-105462Y287535D01*
X-112960D01*
X-90467D02*
X-95466D01*
X-97965Y285036D01*
Y275039D01*
X-95466Y272540D01*
X-90467D01*
X-87968Y275039D01*
Y285036D01*
X-90467Y287535D01*
X-75472D02*
X-80471D01*
X-82970Y285036D01*
Y275039D01*
X-80471Y272540D01*
X-75472D01*
X-72973Y275039D01*
Y285036D01*
X-75472Y287535D01*
X-67975D02*
X-57978D01*
X-62976D01*
Y272540D01*
X-52979Y285036D02*
X-50480Y287535D01*
X-45482D01*
X-42983Y285036D01*
Y275039D01*
X-45482Y272540D01*
X-50480D01*
X-52979Y275039D01*
Y285036D01*
X-46960Y-192460D02*
Y-182463D01*
X-39462D01*
X-36963Y-184962D01*
Y-192460D01*
X-31965Y-177465D02*
Y-192460D01*
X-24467D01*
X-21968Y-189961D01*
Y-187462D01*
X-24467Y-184962D01*
X-31965D01*
X-24467D01*
X-21968Y-182463D01*
Y-179964D01*
X-24467Y-177465D01*
X-31965D01*
X-16970Y-182463D02*
Y-189961D01*
X-14470Y-192460D01*
X-6973D01*
Y-182463D01*
X525Y-179964D02*
Y-182463D01*
X-1975D01*
X3024D01*
X525D01*
Y-189961D01*
X3024Y-192460D01*
X13021Y-179964D02*
Y-182463D01*
X10521D01*
X15520D01*
X13021D01*
Y-189961D01*
X15520Y-192460D01*
X25517D02*
X30515D01*
X33014Y-189961D01*
Y-184962D01*
X30515Y-182463D01*
X25517D01*
X23017Y-184962D01*
Y-189961D01*
X25517Y-192460D01*
X38012D02*
Y-182463D01*
X45510D01*
X48009Y-184962D01*
Y-192460D01*
X-204460Y-177467D02*
Y-192462D01*
X-196962D01*
X-194463Y-189962D01*
Y-187463D01*
X-196962Y-184964D01*
X-204460D01*
X-196962D01*
X-194463Y-182465D01*
Y-179966D01*
X-196962Y-177467D01*
X-204460D01*
X-189465Y-192462D02*
X-184466D01*
X-186966D01*
Y-177467D01*
X-189465D01*
X-176969Y-192462D02*
X-171971D01*
X-174470D01*
Y-182465D01*
X-176969D01*
X-164473Y-192462D02*
Y-182465D01*
X-156975D01*
X-154476Y-184964D01*
Y-192462D01*
X-149478D02*
Y-177467D01*
Y-187463D02*
X-141980Y-182465D01*
X-149478Y-187463D02*
X-141980Y-192462D01*
X-134483Y-182465D02*
Y-189962D01*
X-131983Y-192462D01*
X-124486D01*
Y-194961D01*
X-126985Y-197460D01*
X-129484D01*
X-124486Y-192462D02*
Y-182465D01*
X-109491Y-192462D02*
X-119487D01*
X-109491Y-182465D01*
Y-179966D01*
X-111990Y-177467D01*
X-116988D01*
X-119487Y-179966D01*
X116540Y-177467D02*
Y-192462D01*
X124038D01*
X126537Y-189962D01*
Y-187463D01*
X124038Y-184964D01*
X116540D01*
X124038D01*
X126537Y-182465D01*
Y-179966D01*
X124038Y-177467D01*
X116540D01*
X131535Y-192462D02*
X136533D01*
X134034D01*
Y-177467D01*
X131535D01*
X144031Y-192462D02*
X149030D01*
X146530D01*
Y-182465D01*
X144031D01*
X156527Y-192462D02*
Y-182465D01*
X164025D01*
X166524Y-184964D01*
Y-192462D01*
X171522D02*
Y-177467D01*
Y-187463D02*
X179020Y-182465D01*
X171522Y-187463D02*
X179020Y-192462D01*
X186517Y-182465D02*
Y-189962D01*
X189016Y-192462D01*
X196514D01*
Y-194961D01*
X194015Y-197460D01*
X191516D01*
X196514Y-192462D02*
Y-182465D01*
X201513Y-192462D02*
X206511D01*
X204012D01*
Y-177467D01*
X201513Y-179966D01*
X-340701Y197579D02*
X-345780D01*
X-343241D01*
Y184883D01*
X-345780Y182344D01*
X-348319D01*
X-350858Y184883D01*
X-335623Y182344D02*
X-330545D01*
X-333084D01*
Y197579D01*
X-335623Y195040D01*
X-322927D02*
X-320388Y197579D01*
X-315310D01*
X-312771Y195040D01*
Y184883D01*
X-315310Y182344D01*
X-320388D01*
X-322927Y184883D01*
Y195040D01*
D12*
X70200Y-19240D02*
Y-11240D01*
X82200Y-19240D02*
Y-11240D01*
X347700Y-249000D02*
X352300D01*
X347700Y-241000D02*
X352300D01*
X55500Y74500D02*
Y79500D01*
X65500Y74500D02*
Y79500D01*
X-107300Y29500D02*
X-102700D01*
X-107300Y21500D02*
X-102700D01*
X44800Y-19240D02*
Y-11240D01*
X56800Y-19240D02*
Y-11240D01*
X224600Y324200D02*
X232600D01*
X224600Y336200D02*
X232600D01*
X192910Y29400D02*
X197510D01*
X192910Y21400D02*
X197510D01*
X234600Y-24320D02*
Y-16320D01*
X222600Y-24320D02*
Y-16320D01*
X43420Y21400D02*
X48020D01*
X43420Y29400D02*
X48020D01*
X-95600Y-29400D02*
Y-21400D01*
X-107600Y-29400D02*
Y-21400D01*
X197200Y-24320D02*
Y-16320D01*
X209200Y-24320D02*
Y-16320D01*
X-82200Y-29400D02*
Y-21400D01*
X-70200Y-29400D02*
Y-21400D01*
X126000Y150200D02*
Y154800D01*
X134000Y150200D02*
Y154800D01*
X196500Y74000D02*
Y79000D01*
X206500Y74000D02*
Y79000D01*
X-117000Y75500D02*
Y80500D01*
X-107000Y75500D02*
Y80500D01*
X251700Y199200D02*
X256300D01*
X251700Y207200D02*
X256300D01*
X347700Y-98500D02*
X352300D01*
X347700Y-106500D02*
X352300D01*
D13*
X330140Y-127550D02*
X335220D01*
X330140Y-131360D02*
Y-127550D01*
Y-216450D02*
Y-212640D01*
Y-216450D02*
X335220D01*
X354270Y-127550D02*
Y-122470D01*
X350460Y-127550D02*
X354270D01*
X350460Y-216450D02*
X354270D01*
Y-221530D02*
Y-216450D01*
D14*
X274000Y-55000D02*
X278500D01*
X309500D02*
X314000D01*
Y-95000D02*
Y-90500D01*
Y-59500D02*
Y-55000D01*
X274000Y-95000D02*
X278500D01*
X309500D02*
X314000D01*
X274000D02*
Y-90500D01*
Y-59500D02*
Y-55000D01*
X322000Y-110500D02*
X332000D01*
X322000Y-97500D02*
X332000D01*
X-235750Y119616D02*
Y132341D01*
X-249250Y119616D02*
Y132341D01*
X294362Y-136362D02*
Y-121638D01*
X280638Y-136362D02*
Y-121638D01*
X-32150Y-31762D02*
Y-19038D01*
X-18650Y-31762D02*
Y-19038D01*
X-192000Y-93500D02*
X-128000D01*
Y-166500D02*
Y-143750D01*
Y-116250D02*
Y-93500D01*
X-192000Y-166500D02*
X-128000D01*
X-192000D02*
Y-143750D01*
Y-116250D02*
Y-93500D01*
X344500Y-223500D02*
X355500D01*
X344393Y-236313D02*
X355393D01*
X-351450Y166100D02*
X-260550D01*
X-351450Y-166100D02*
Y166100D01*
Y-166100D02*
X-260550D01*
Y166100D01*
X120250Y-31762D02*
Y-19038D01*
X133750Y-31762D02*
Y-19038D01*
X260750Y243138D02*
Y255862D01*
X247250Y243138D02*
Y255862D01*
X-184550Y-31762D02*
Y-19038D01*
X-171050Y-31762D02*
Y-19038D01*
X82538Y140100D02*
X95262D01*
X82538Y126600D02*
X95262D01*
X323500Y-87000D02*
Y-77000D01*
X336500Y-87000D02*
Y-77000D01*
X265500Y-47000D02*
X275500D01*
X265500Y-34000D02*
X275500D01*
X344500Y-120500D02*
X355500D01*
X344607Y-107687D02*
X355607D01*
X307362Y-136362D02*
Y-121638D01*
X293638Y-136362D02*
Y-121638D01*
X288278Y-28810D02*
X301002D01*
X288278Y-42310D02*
X301002D01*
X245138Y-65250D02*
X257862D01*
X245138Y-78750D02*
X257862D01*
X-315862Y-199250D02*
X-303138D01*
X-315862Y-185750D02*
X-303138D01*
X128000Y-93500D02*
X192000D01*
Y-166500D02*
Y-143750D01*
Y-116250D02*
Y-93500D01*
X128000Y-166500D02*
X192000D01*
X128000D02*
Y-143750D01*
Y-116250D02*
Y-93500D01*
X-32000D02*
X32000D01*
Y-166500D02*
Y-143750D01*
Y-116250D02*
Y-93500D01*
X-32000Y-166500D02*
X32000D01*
X-32000D02*
Y-143750D01*
Y-116250D02*
Y-93500D01*
X-112000Y256500D02*
X-48000D01*
Y183500D02*
Y206250D01*
Y233750D02*
Y256500D01*
X-112000Y183500D02*
X-48000D01*
X-112000D02*
Y206250D01*
Y233750D02*
Y256500D01*
X48000D02*
X112000D01*
Y183500D02*
Y206250D01*
Y233750D02*
Y256500D01*
X48000Y183500D02*
X112000D01*
X48000D02*
Y206250D01*
Y233750D02*
Y256500D01*
D15*
X297000Y183922D02*
Y189000D01*
X302078Y183922D01*
X303348D01*
X304618Y185191D01*
Y187730D01*
X303348Y189000D01*
Y181383D02*
X304618Y180113D01*
Y177574D01*
X303348Y176304D01*
X298270D01*
X297000Y177574D01*
Y180113D01*
X298270Y181383D01*
X303348D01*
X303000Y24000D02*
Y21461D01*
Y22730D01*
X310618D01*
X309348Y24000D01*
X57882Y47000D02*
X65500D01*
X62961D01*
X57882Y52078D01*
X61691Y48270D01*
X65500Y52078D01*
X198883Y46500D02*
X206500D01*
X203961D01*
X198883Y51578D01*
X202691Y47770D01*
X206500Y51578D01*
X-114618Y48000D02*
X-107000D01*
X-109539D01*
X-114618Y53078D01*
X-110809Y49270D01*
X-107000Y53078D01*
X-253722Y-357490D02*
Y-344794D01*
X-249490Y-349026D01*
X-245258Y-344794D01*
Y-357490D01*
X-238910Y-349026D02*
X-234678D01*
X-232562Y-351142D01*
Y-357490D01*
X-238910D01*
X-241026Y-355374D01*
X-238910Y-353258D01*
X-232562D01*
X-226214Y-346910D02*
Y-349026D01*
X-228330D01*
X-224098D01*
X-226214D01*
Y-355374D01*
X-224098Y-357490D01*
X-215634Y-349026D02*
X-211402D01*
X-209286Y-351142D01*
Y-357490D01*
X-215634D01*
X-217750Y-355374D01*
X-215634Y-353258D01*
X-209286D01*
X-205054Y-349026D02*
Y-357490D01*
Y-353258D01*
X-202938Y-351142D01*
X-200823Y-349026D01*
X-198706D01*
X-192358Y-357490D02*
X-188127D01*
X-190243D01*
Y-349026D01*
X-192358D01*
X-173315D02*
X-179663D01*
X-181779Y-351142D01*
Y-355374D01*
X-179663Y-357490D01*
X-173315D01*
X-156387D02*
Y-344794D01*
X-150039D01*
X-147923Y-346910D01*
Y-351142D01*
X-150039Y-353258D01*
X-156387D01*
X-143691Y-349026D02*
Y-357490D01*
Y-353258D01*
X-141575Y-351142D01*
X-139459Y-349026D01*
X-137343D01*
X-128879Y-357490D02*
X-124647D01*
X-122531Y-355374D01*
Y-351142D01*
X-124647Y-349026D01*
X-128879D01*
X-130995Y-351142D01*
Y-355374D01*
X-128879Y-357490D01*
X-114067Y-361722D02*
X-111951D01*
X-109835Y-359606D01*
Y-349026D01*
X-116183D01*
X-118299Y-351142D01*
Y-355374D01*
X-116183Y-357490D01*
X-109835D01*
X-105603Y-349026D02*
Y-357490D01*
Y-353258D01*
X-103487Y-351142D01*
X-101371Y-349026D01*
X-99255D01*
X-90792D02*
X-86559D01*
X-84444Y-351142D01*
Y-357490D01*
X-90792D01*
X-92907Y-355374D01*
X-90792Y-353258D01*
X-84444D01*
X-80211Y-357490D02*
Y-349026D01*
X-78096D01*
X-75980Y-351142D01*
Y-357490D01*
Y-351142D01*
X-73864Y-349026D01*
X-71748Y-351142D01*
Y-357490D01*
X-67516D02*
Y-349026D01*
X-65400D01*
X-63284Y-351142D01*
Y-357490D01*
Y-351142D01*
X-61168Y-349026D01*
X-59052Y-351142D01*
Y-357490D01*
X-54820D02*
X-50588D01*
X-52704D01*
Y-349026D01*
X-54820D01*
X-44240Y-357490D02*
Y-349026D01*
X-37892D01*
X-35776Y-351142D01*
Y-357490D01*
X-27312Y-361722D02*
X-25196D01*
X-23080Y-359606D01*
Y-349026D01*
X-29428D01*
X-31544Y-351142D01*
Y-355374D01*
X-29428Y-357490D01*
X-23080D01*
X-6152D02*
Y-344794D01*
X196D01*
X2312Y-346910D01*
Y-351142D01*
X196Y-353258D01*
X-6152D01*
X15008Y-346910D02*
X12892Y-344794D01*
X8660D01*
X6544Y-346910D01*
Y-355374D01*
X8660Y-357490D01*
X12892D01*
X15008Y-355374D01*
X19240Y-344794D02*
Y-357490D01*
X25587D01*
X27703Y-355374D01*
Y-353258D01*
X25587Y-351142D01*
X19240D01*
X25587D01*
X27703Y-349026D01*
Y-346910D01*
X25587Y-344794D01*
X19240D01*
X364604Y-242722D02*
Y-237644D01*
Y-240183D01*
X372222D01*
X364604Y-235105D02*
X372222Y-230026D01*
X364604D02*
X372222Y-235105D01*
Y-109222D02*
X364604D01*
Y-105413D01*
X365874Y-104144D01*
X368413D01*
X369683Y-105413D01*
Y-109222D01*
Y-106683D02*
X372222Y-104144D01*
X364604Y-101604D02*
X372222Y-96526D01*
X364604D02*
X372222Y-101604D01*
X-5644Y-295374D02*
X-6913Y-294104D01*
X-9452D01*
X-10722Y-295374D01*
Y-300452D01*
X-9452Y-301722D01*
X-6913D01*
X-5644Y-300452D01*
Y-297913D01*
X-8183D01*
X-3104Y-301722D02*
Y-294104D01*
X1974Y-301722D01*
Y-294104D01*
X4513D02*
Y-301722D01*
X8322D01*
X9591Y-300452D01*
Y-295374D01*
X8322Y-294104D01*
X4513D01*
X296840Y225267D02*
X294301D01*
X295571D01*
Y218920D01*
X294301Y217650D01*
X293031D01*
X291762Y218920D01*
X299379Y215111D02*
Y222728D01*
X303188D01*
X304458Y221459D01*
Y218920D01*
X303188Y217650D01*
X299379D01*
X306997Y222728D02*
Y217650D01*
Y220189D01*
X308267Y221459D01*
X309536Y222728D01*
X310806D01*
X315884Y217650D02*
X318423D01*
X319693Y218920D01*
Y221459D01*
X318423Y222728D01*
X315884D01*
X314615Y221459D01*
Y218920D01*
X315884Y217650D01*
X324771Y215111D02*
X326041D01*
X327310Y216380D01*
Y222728D01*
X323502D01*
X322232Y221459D01*
Y218920D01*
X323502Y217650D01*
X327310D01*
X329850D02*
X332389D01*
X331119D01*
Y225267D01*
X329850Y223998D01*
X24603Y-285351D02*
X29682D01*
X27143D01*
Y-292969D01*
X32221D02*
Y-285351D01*
X36030D01*
X37299Y-286621D01*
Y-289160D01*
X36030Y-290430D01*
X32221D01*
X39838Y-286621D02*
X41108Y-285351D01*
X43647D01*
X44917Y-286621D01*
Y-291699D01*
X43647Y-292969D01*
X41108D01*
X39838Y-291699D01*
Y-286621D01*
X243756Y216126D02*
Y223743D01*
X247565D01*
X248834Y222474D01*
Y219935D01*
X247565Y218665D01*
X243756D01*
X246295D02*
X248834Y216126D01*
X251373Y217395D02*
X252643Y216126D01*
X255182D01*
X256452Y217395D01*
Y222474D01*
X255182Y223743D01*
X252643D01*
X251373Y222474D01*
Y221204D01*
X252643Y219935D01*
X256452D01*
X-306664Y-214406D02*
X-307933Y-213137D01*
X-310473D01*
X-311742Y-214406D01*
Y-219485D01*
X-310473Y-220754D01*
X-307933D01*
X-306664Y-219485D01*
Y-216945D01*
X-309203D01*
X-304125Y-220754D02*
Y-213137D01*
X-299046Y-220754D01*
Y-213137D01*
X-296507D02*
Y-220754D01*
X-292698D01*
X-291429Y-219485D01*
Y-214406D01*
X-292698Y-213137D01*
X-296507D01*
X-363852Y328929D02*
X-368931D01*
Y325120D01*
X-366391D01*
X-368931D01*
Y321311D01*
X-361313Y328929D02*
X-358774D01*
X-360044D01*
Y321311D01*
X-361313D01*
X-358774D01*
X-354965Y328929D02*
Y321311D01*
X-351156D01*
X-349887Y322581D01*
Y327659D01*
X-351156Y328929D01*
X-354965D01*
X-342269D02*
X-347348D01*
Y325120D01*
X-344809Y326390D01*
X-343539D01*
X-342269Y325120D01*
Y322581D01*
X-343539Y321311D01*
X-346078D01*
X-347348Y322581D01*
X347386Y359633D02*
X342308D01*
Y355825D01*
X344847D01*
X342308D01*
Y352016D01*
X349925Y359633D02*
X352465D01*
X351195D01*
Y352016D01*
X349925D01*
X352465D01*
X356273Y359633D02*
Y352016D01*
X360082D01*
X361352Y353285D01*
Y358364D01*
X360082Y359633D01*
X356273D01*
X367700Y352016D02*
Y359633D01*
X363891Y355825D01*
X368969D01*
X-363814Y-326167D02*
X-368892D01*
Y-329975D01*
X-366353D01*
X-368892D01*
Y-333784D01*
X-361275Y-326167D02*
X-358735D01*
X-360005D01*
Y-333784D01*
X-361275D01*
X-358735D01*
X-354927Y-326167D02*
Y-333784D01*
X-351118D01*
X-349848Y-332514D01*
Y-327436D01*
X-351118Y-326167D01*
X-354927D01*
X-342231Y-333784D02*
X-347309D01*
X-342231Y-328706D01*
Y-327436D01*
X-343500Y-326167D01*
X-346040D01*
X-347309Y-327436D01*
X52748Y116555D02*
Y108938D01*
X57826D01*
X65444Y116555D02*
X60365D01*
Y108938D01*
X65444D01*
X60365Y112747D02*
X62905D01*
X67983Y116555D02*
Y108938D01*
X71792D01*
X73061Y110208D01*
Y115286D01*
X71792Y116555D01*
X67983D01*
X75601Y115286D02*
X76870Y116555D01*
X79409D01*
X80679Y115286D01*
Y114016D01*
X79409Y112747D01*
X78140D01*
X79409D01*
X80679Y111477D01*
Y110208D01*
X79409Y108938D01*
X76870D01*
X75601Y110208D01*
X-119718Y117571D02*
Y109954D01*
X-114640D01*
X-107022Y117571D02*
X-112101D01*
Y109954D01*
X-107022D01*
X-112101Y113763D02*
X-109561D01*
X-104483Y117571D02*
Y109954D01*
X-100674D01*
X-99405Y111223D01*
Y116302D01*
X-100674Y117571D01*
X-104483D01*
X-91787Y109954D02*
X-96866D01*
X-91787Y115032D01*
Y116302D01*
X-93057Y117571D01*
X-95596D01*
X-96866Y116302D01*
X193718Y116047D02*
Y108430D01*
X198796D01*
X206414Y116047D02*
X201335D01*
Y108430D01*
X206414D01*
X201335Y112239D02*
X203875D01*
X208953Y116047D02*
Y108430D01*
X212762D01*
X214031Y109699D01*
Y114778D01*
X212762Y116047D01*
X208953D01*
X216570Y108430D02*
X219110D01*
X217840D01*
Y116047D01*
X216570Y114778D01*
X-18372Y26385D02*
X-13294D01*
X-15833D01*
Y18768D01*
X-10755D02*
Y26385D01*
X-6946D01*
X-5676Y25116D01*
Y22577D01*
X-6946Y21307D01*
X-10755D01*
X-3137Y25116D02*
X-1867Y26385D01*
X672D01*
X1941Y25116D01*
Y23846D01*
X672Y22577D01*
X-598D01*
X672D01*
X1941Y21307D01*
Y20038D01*
X672Y18768D01*
X-1867D01*
X-3137Y20038D01*
X-170772Y26385D02*
X-165694D01*
X-168233D01*
Y18768D01*
X-163155D02*
Y26385D01*
X-159346D01*
X-158076Y25116D01*
Y22577D01*
X-159346Y21307D01*
X-163155D01*
X-150459Y18768D02*
X-155537D01*
X-150459Y23846D01*
Y25116D01*
X-151728Y26385D01*
X-154268D01*
X-155537Y25116D01*
X134028Y26385D02*
X139106D01*
X136567D01*
Y18768D01*
X141645D02*
Y26385D01*
X145454D01*
X146724Y25116D01*
Y22577D01*
X145454Y21307D01*
X141645D01*
X149263Y18768D02*
X151802D01*
X150533D01*
Y26385D01*
X149263Y25116D01*
X143972Y148691D02*
Y156309D01*
X147781D01*
X149050Y155039D01*
Y152500D01*
X147781Y151230D01*
X143972D01*
X146511D02*
X149050Y148691D01*
X156668D02*
X151590D01*
X156668Y153770D01*
Y155039D01*
X155398Y156309D01*
X152859D01*
X151590Y155039D01*
X70782Y10640D02*
Y18257D01*
X74591D01*
X75860Y16988D01*
Y14449D01*
X74591Y13179D01*
X70782D01*
X73321D02*
X75860Y10640D01*
X83478Y18257D02*
X78399D01*
Y14449D01*
X80939Y15718D01*
X82208D01*
X83478Y14449D01*
Y11910D01*
X82208Y10640D01*
X79669D01*
X78399Y11910D01*
X-81618Y480D02*
Y8097D01*
X-77809D01*
X-76540Y6828D01*
Y4289D01*
X-77809Y3019D01*
X-81618D01*
X-79079D02*
X-76540Y480D01*
X-74001Y6828D02*
X-72731Y8097D01*
X-70192D01*
X-68922Y6828D01*
Y5558D01*
X-70192Y4289D01*
X-68922Y3019D01*
Y1750D01*
X-70192Y480D01*
X-72731D01*
X-74001Y1750D01*
Y3019D01*
X-72731Y4289D01*
X-74001Y5558D01*
Y6828D01*
X-72731Y4289D02*
X-70192D01*
X197782Y5626D02*
Y13243D01*
X201591D01*
X202860Y11974D01*
Y9435D01*
X201591Y8165D01*
X197782D01*
X200321D02*
X202860Y5626D01*
X209208D02*
Y13243D01*
X205399Y9435D01*
X210478D01*
X-107018Y480D02*
Y8097D01*
X-103209D01*
X-101940Y6828D01*
Y4289D01*
X-103209Y3019D01*
X-107018D01*
X-104479D02*
X-101940Y480D01*
X-99401D02*
X-96861D01*
X-98131D01*
Y8097D01*
X-99401Y6828D01*
X-93053Y480D02*
X-90513D01*
X-91783D01*
Y8097D01*
X-93053Y6828D01*
X35476Y38326D02*
Y45943D01*
X39285D01*
X40554Y44674D01*
Y42135D01*
X39285Y40865D01*
X35476D01*
X38015D02*
X40554Y38326D01*
X48172Y45943D02*
X45633Y44674D01*
X43093Y42135D01*
Y39595D01*
X44363Y38326D01*
X46902D01*
X48172Y39595D01*
Y40865D01*
X46902Y42135D01*
X43093D01*
X223182Y5626D02*
Y13243D01*
X226991D01*
X228260Y11974D01*
Y9435D01*
X226991Y8165D01*
X223182D01*
X225721D02*
X228260Y5626D01*
X230799D02*
X233339D01*
X232069D01*
Y13243D01*
X230799Y11974D01*
X185082Y38326D02*
Y45943D01*
X188891D01*
X190160Y44674D01*
Y42135D01*
X188891Y40865D01*
X185082D01*
X187621D02*
X190160Y38326D01*
X192699Y44674D02*
X193969Y45943D01*
X196508D01*
X197778Y44674D01*
Y43404D01*
X196508Y42135D01*
X195239D01*
X196508D01*
X197778Y40865D01*
Y39595D01*
X196508Y38326D01*
X193969D01*
X192699Y39595D01*
X211328Y344424D02*
Y352042D01*
X215137D01*
X216406Y350772D01*
Y348233D01*
X215137Y346963D01*
X211328D01*
X213867D02*
X216406Y344424D01*
X218946D02*
X221485D01*
X220215D01*
Y352042D01*
X218946Y350772D01*
X230372Y344424D02*
X225294D01*
X230372Y349502D01*
Y350772D01*
X229102Y352042D01*
X226563D01*
X225294Y350772D01*
X44452Y6351D02*
Y13969D01*
X48261D01*
X49530Y12699D01*
Y10160D01*
X48261Y8890D01*
X44452D01*
X46991D02*
X49530Y6351D01*
X52070Y13969D02*
X57148D01*
Y12699D01*
X52070Y7621D01*
Y6351D01*
X-89122Y26771D02*
Y34389D01*
X-85313D01*
X-84044Y33119D01*
Y30580D01*
X-85313Y29310D01*
X-89122D01*
X-86583D02*
X-84044Y26771D01*
X-81504D02*
X-78965D01*
X-80235D01*
Y34389D01*
X-81504Y33119D01*
X-75156D02*
X-73887Y34389D01*
X-71348D01*
X-70078Y33119D01*
Y28041D01*
X-71348Y26771D01*
X-73887D01*
X-75156Y28041D01*
Y33119D01*
X227330Y292099D02*
X226061Y293369D01*
X223522D01*
X222252Y292099D01*
Y287021D01*
X223522Y285751D01*
X226061D01*
X227330Y287021D01*
X229870Y292099D02*
X231139Y293369D01*
X233678D01*
X234948Y292099D01*
Y290830D01*
X233678Y289560D01*
X234948Y288290D01*
Y287021D01*
X233678Y285751D01*
X231139D01*
X229870Y287021D01*
Y288290D01*
X231139Y289560D01*
X229870Y290830D01*
Y292099D01*
X231139Y289560D02*
X233678D01*
X-41910Y-17781D02*
X-43179Y-16511D01*
X-45718D01*
X-46988Y-17781D01*
Y-22859D01*
X-45718Y-24129D01*
X-43179D01*
X-41910Y-22859D01*
X-34292Y-16511D02*
X-36831Y-17781D01*
X-39370Y-20320D01*
Y-22859D01*
X-38101Y-24129D01*
X-35562D01*
X-34292Y-22859D01*
Y-21590D01*
X-35562Y-20320D01*
X-39370D01*
X64770Y144779D02*
X63501Y146049D01*
X60962D01*
X59692Y144779D01*
Y139701D01*
X60962Y138431D01*
X63501D01*
X64770Y139701D01*
X67310Y144779D02*
X68579Y146049D01*
X71118D01*
X72388Y144779D01*
Y143510D01*
X71118Y142240D01*
X69849D01*
X71118D01*
X72388Y140970D01*
Y139701D01*
X71118Y138431D01*
X68579D01*
X67310Y139701D01*
X-199390Y-12701D02*
X-200659Y-11431D01*
X-203198D01*
X-204468Y-12701D01*
Y-17779D01*
X-203198Y-19049D01*
X-200659D01*
X-199390Y-17779D01*
X-196850Y-11431D02*
X-191772D01*
Y-12701D01*
X-196850Y-17779D01*
Y-19049D01*
X273050Y246379D02*
X271781Y247649D01*
X269242D01*
X267972Y246379D01*
Y241301D01*
X269242Y240031D01*
X271781D01*
X273050Y241301D01*
X279398Y240031D02*
Y247649D01*
X275590Y243840D01*
X280668D01*
X110490Y-20321D02*
X109221Y-19051D01*
X106682D01*
X105412Y-20321D01*
Y-25399D01*
X106682Y-26669D01*
X109221D01*
X110490Y-25399D01*
X118108Y-19051D02*
X113030D01*
Y-22860D01*
X115569Y-21590D01*
X116838D01*
X118108Y-22860D01*
Y-25399D01*
X116838Y-26669D01*
X114299D01*
X113030Y-25399D01*
D16*
X314753Y-246999D02*
Y-242001D01*
X317252D01*
X318085Y-242834D01*
Y-244500D01*
X317252Y-245333D01*
X314753D01*
X316419D02*
X318085Y-246999D01*
X319751D02*
X321417D01*
X320584D01*
Y-242001D01*
X319751Y-242834D01*
X323917D02*
X324750Y-242001D01*
X326416D01*
X327249Y-242834D01*
Y-246166D01*
X326416Y-246999D01*
X324750D01*
X323917Y-246166D01*
Y-242834D01*
X332247Y-242001D02*
X330581Y-242834D01*
X328915Y-244500D01*
Y-246166D01*
X329748Y-246999D01*
X331414D01*
X332247Y-246166D01*
Y-245333D01*
X331414Y-244500D01*
X328915D01*
X341253Y-94499D02*
Y-89501D01*
X343752D01*
X344585Y-90334D01*
Y-92000D01*
X343752Y-92833D01*
X341253D01*
X342919D02*
X344585Y-94499D01*
X346251D02*
X347917D01*
X347084D01*
Y-89501D01*
X346251Y-90334D01*
X350416D02*
X351250Y-89501D01*
X352916D01*
X353749Y-90334D01*
Y-93666D01*
X352916Y-94499D01*
X351250D01*
X350416Y-93666D01*
Y-90334D01*
X358747Y-89501D02*
X355415D01*
Y-92000D01*
X357081Y-91167D01*
X357914D01*
X358747Y-92000D01*
Y-93666D01*
X357914Y-94499D01*
X356248D01*
X355415Y-93666D01*
X314443Y-227461D02*
Y-232539D01*
X316982D01*
X317829Y-231693D01*
Y-228307D01*
X316982Y-227461D01*
X314443D01*
X319521Y-232539D02*
X321214D01*
X320368D01*
Y-227461D01*
X319521Y-228307D01*
X323753D02*
X324600Y-227461D01*
X326292D01*
X327139Y-228307D01*
Y-231693D01*
X326292Y-232539D01*
X324600D01*
X323753Y-231693D01*
Y-228307D01*
X332217Y-232539D02*
X328832D01*
X332217Y-229154D01*
Y-228307D01*
X331371Y-227461D01*
X329678D01*
X328832Y-228307D01*
X308959Y-42461D02*
Y-46693D01*
X309806Y-47539D01*
X311499D01*
X312345Y-46693D01*
Y-42461D01*
X314038Y-47539D02*
X315730D01*
X314884D01*
Y-42461D01*
X314038Y-43307D01*
X318270D02*
X319116Y-42461D01*
X320809D01*
X321655Y-43307D01*
Y-46693D01*
X320809Y-47539D01*
X319116D01*
X318270Y-46693D01*
Y-43307D01*
X323348Y-47539D02*
X325041D01*
X324194D01*
Y-42461D01*
X323348Y-43307D01*
X222343Y-74149D02*
Y-69071D01*
X224882D01*
X225728Y-69917D01*
Y-71610D01*
X224882Y-72456D01*
X222343D01*
X224036D02*
X225728Y-74149D01*
X227421D02*
X229114D01*
X228268D01*
Y-69071D01*
X227421Y-69917D01*
X231653D02*
X232500Y-69071D01*
X234192D01*
X235039Y-69917D01*
Y-73303D01*
X234192Y-74149D01*
X232500D01*
X231653Y-73303D01*
Y-69917D01*
X239271Y-74149D02*
Y-69071D01*
X236732Y-71610D01*
X240117D01*
X287444Y-21364D02*
Y-16286D01*
X289983D01*
X290829Y-17132D01*
Y-18825D01*
X289983Y-19671D01*
X287444D01*
X289137D02*
X290829Y-21364D01*
X292522D02*
X294215D01*
X293369D01*
Y-16286D01*
X292522Y-17132D01*
X296754D02*
X297601Y-16286D01*
X299293D01*
X300140Y-17132D01*
Y-20518D01*
X299293Y-21364D01*
X297601D01*
X296754Y-20518D01*
Y-17132D01*
X301833D02*
X302679Y-16286D01*
X304372D01*
X305218Y-17132D01*
Y-17979D01*
X304372Y-18825D01*
X303525D01*
X304372D01*
X305218Y-19671D01*
Y-20518D01*
X304372Y-21364D01*
X302679D01*
X301833Y-20518D01*
X290539Y-159387D02*
X285461D01*
Y-156848D01*
X286307Y-156002D01*
X288000D01*
X288846Y-156848D01*
Y-159387D01*
Y-157694D02*
X290539Y-156002D01*
Y-154309D02*
Y-152616D01*
Y-153462D01*
X285461D01*
X286307Y-154309D01*
Y-150077D02*
X285461Y-149230D01*
Y-147538D01*
X286307Y-146691D01*
X289693D01*
X290539Y-147538D01*
Y-149230D01*
X289693Y-150077D01*
X286307D01*
X290539Y-141613D02*
Y-144998D01*
X287154Y-141613D01*
X286307D01*
X285461Y-142459D01*
Y-144152D01*
X286307Y-144998D01*
X303039Y-158041D02*
X297961D01*
Y-155501D01*
X298807Y-154655D01*
X300500D01*
X301346Y-155501D01*
Y-158041D01*
Y-156348D02*
X303039Y-154655D01*
Y-152962D02*
Y-151270D01*
Y-152116D01*
X297961D01*
X298807Y-152962D01*
Y-148730D02*
X297961Y-147884D01*
Y-146191D01*
X298807Y-145345D01*
X302193D01*
X303039Y-146191D01*
Y-147884D01*
X302193Y-148730D01*
X298807D01*
X303039Y-143652D02*
Y-141959D01*
Y-142806D01*
X297961D01*
X298807Y-143652D01*
X312461Y-174655D02*
Y-176348D01*
Y-175501D01*
X316693D01*
X317539Y-176348D01*
Y-177194D01*
X316693Y-178041D01*
X317539Y-172962D02*
Y-171270D01*
Y-172116D01*
X312461D01*
X313307Y-172962D01*
Y-168730D02*
X312461Y-167884D01*
Y-166191D01*
X313307Y-165345D01*
X316693D01*
X317539Y-166191D01*
Y-167884D01*
X316693Y-168730D01*
X313307D01*
X317539Y-163652D02*
Y-161959D01*
Y-162806D01*
X312461D01*
X313307Y-163652D01*
X322959Y-112961D02*
Y-118039D01*
X325499D01*
X326345Y-117193D01*
Y-113807D01*
X325499Y-112961D01*
X322959D01*
X328038Y-118039D02*
X329730D01*
X328884D01*
Y-112961D01*
X328038Y-113807D01*
X332270D02*
X333116Y-112961D01*
X334809D01*
X335655Y-113807D01*
Y-117193D01*
X334809Y-118039D01*
X333116D01*
X332270Y-117193D01*
Y-113807D01*
X337348Y-118039D02*
X339041D01*
X338194D01*
Y-112961D01*
X337348Y-113807D01*
X304998Y-106807D02*
X304152Y-105961D01*
X302459D01*
X301613Y-106807D01*
Y-110193D01*
X302459Y-111039D01*
X304152D01*
X304998Y-110193D01*
X306691Y-111039D02*
X308384D01*
X307538D01*
Y-105961D01*
X306691Y-106807D01*
X310923D02*
X311770Y-105961D01*
X313462D01*
X314309Y-106807D01*
Y-110193D01*
X313462Y-111039D01*
X311770D01*
X310923Y-110193D01*
Y-106807D01*
X316002D02*
X316848Y-105961D01*
X318541D01*
X319387Y-106807D01*
Y-107654D01*
X318541Y-108500D01*
X317694D01*
X318541D01*
X319387Y-109346D01*
Y-110193D01*
X318541Y-111039D01*
X316848D01*
X316002Y-110193D01*
X245998Y-38807D02*
X245152Y-37961D01*
X243459D01*
X242613Y-38807D01*
Y-42193D01*
X243459Y-43039D01*
X245152D01*
X245998Y-42193D01*
X247691Y-43039D02*
X249384D01*
X248538D01*
Y-37961D01*
X247691Y-38807D01*
X251923D02*
X252770Y-37961D01*
X254462D01*
X255309Y-38807D01*
Y-42193D01*
X254462Y-43039D01*
X252770D01*
X251923Y-42193D01*
Y-38807D01*
X260387Y-43039D02*
X257002D01*
X260387Y-39654D01*
Y-38807D01*
X259541Y-37961D01*
X257848D01*
X257002Y-38807D01*
X346845Y-80307D02*
X345998Y-79461D01*
X344306D01*
X343459Y-80307D01*
Y-83693D01*
X344306Y-84539D01*
X345998D01*
X346845Y-83693D01*
X348538Y-84539D02*
X350230D01*
X349384D01*
Y-79461D01*
X348538Y-80307D01*
X352770D02*
X353616Y-79461D01*
X355309D01*
X356155Y-80307D01*
Y-83693D01*
X355309Y-84539D01*
X353616D01*
X352770Y-83693D01*
Y-80307D01*
X357848Y-84539D02*
X359541D01*
X358694D01*
Y-79461D01*
X357848Y-80307D01*
D17*
X-194904Y-77946D02*
X-196237Y-76613D01*
X-198903D01*
X-200236Y-77946D01*
Y-79278D01*
X-198903Y-80611D01*
X-196237D01*
X-194904Y-81944D01*
Y-83277D01*
X-196237Y-84610D01*
X-198903D01*
X-200236Y-83277D01*
X-192239Y-76613D02*
Y-84610D01*
X-189573Y-81944D01*
X-186907Y-84610D01*
Y-76613D01*
X-184241Y-77946D02*
X-182908Y-76613D01*
X-180243D01*
X-178910Y-77946D01*
Y-79278D01*
X-180243Y-80611D01*
X-181576D01*
X-180243D01*
X-178910Y-81944D01*
Y-83277D01*
X-180243Y-84610D01*
X-182908D01*
X-184241Y-83277D01*
X149168Y224166D02*
X147836Y225499D01*
X145170D01*
X143837Y224166D01*
Y222833D01*
X145170Y221500D01*
X147836D01*
X149168Y220167D01*
Y218834D01*
X147836Y217501D01*
X145170D01*
X143837Y218834D01*
X151834Y225499D02*
Y217501D01*
X154500Y220167D01*
X157166Y217501D01*
Y225499D01*
X165163D02*
X159832D01*
Y221500D01*
X162497Y222833D01*
X163830D01*
X165163Y221500D01*
Y218834D01*
X163830Y217501D01*
X161164D01*
X159832Y218834D01*
X-154832Y223666D02*
X-156165Y224999D01*
X-158830D01*
X-160163Y223666D01*
Y222333D01*
X-158830Y221000D01*
X-156165D01*
X-154832Y219667D01*
Y218334D01*
X-156165Y217001D01*
X-158830D01*
X-160163Y218334D01*
X-152166Y224999D02*
Y217001D01*
X-149500Y219667D01*
X-146834Y217001D01*
Y224999D01*
X-140170Y217001D02*
Y224999D01*
X-144168Y221000D01*
X-138837D01*
X-34885Y-77946D02*
X-36217Y-76613D01*
X-38883D01*
X-40216Y-77946D01*
Y-79278D01*
X-38883Y-80611D01*
X-36217D01*
X-34885Y-81944D01*
Y-83277D01*
X-36217Y-84610D01*
X-38883D01*
X-40216Y-83277D01*
X-32219Y-76613D02*
Y-84610D01*
X-29553Y-81944D01*
X-26887Y-84610D01*
Y-76613D01*
X-18890Y-84610D02*
X-24221D01*
X-18890Y-79278D01*
Y-77946D01*
X-20223Y-76613D01*
X-22888D01*
X-24221Y-77946D01*
X125135D02*
X123803Y-76613D01*
X121137D01*
X119804Y-77946D01*
Y-79278D01*
X121137Y-80611D01*
X123803D01*
X125135Y-81944D01*
Y-83277D01*
X123803Y-84610D01*
X121137D01*
X119804Y-83277D01*
X127801Y-76613D02*
Y-84610D01*
X130467Y-81944D01*
X133133Y-84610D01*
Y-76613D01*
X135799Y-84610D02*
X138464D01*
X137132D01*
Y-76613D01*
X135799Y-77946D01*
D18*
X-248496Y141196D02*
Y148813D01*
X-244687D01*
X-243418Y147544D01*
Y145005D01*
X-244687Y143735D01*
X-248496D01*
X-245957D02*
X-243418Y141196D01*
X-235800D02*
X-240879D01*
X-235800Y146274D01*
Y147544D01*
X-237070Y148813D01*
X-239609D01*
X-240879Y147544D01*
X-233261Y141196D02*
X-230722D01*
X-231992D01*
Y148813D01*
X-233261Y147544D01*
X-316060Y-177828D02*
Y-170211D01*
X-312251D01*
X-310982Y-171480D01*
Y-174019D01*
X-312251Y-175289D01*
X-316060D01*
X-313521D02*
X-310982Y-177828D01*
X-303364D02*
X-308443D01*
X-303364Y-172750D01*
Y-171480D01*
X-304634Y-170211D01*
X-307173D01*
X-308443Y-171480D01*
X-300825D02*
X-299555Y-170211D01*
X-297016D01*
X-295747Y-171480D01*
Y-176558D01*
X-297016Y-177828D01*
X-299555D01*
X-300825Y-176558D01*
Y-171480D01*
M02*
