G04*
G04 #@! TF.GenerationSoftware,Altium Limited,Altium Designer,24.1.2 (44)*
G04*
G04 Layer_Color=16711935*
%FSLAX44Y44*%
%MOMM*%
G71*
G04*
G04 #@! TF.SameCoordinates,4D670051-7F49-4B36-91F3-1F1B1C4DC3BF*
G04*
G04*
G04 #@! TF.FilePolarity,Negative*
G04*
G01*
G75*
%ADD56C,1.1000*%
%ADD57C,0.8874*%
%ADD58C,1.4224*%
%ADD59C,6.1000*%
%ADD60C,1.7400*%
%ADD61R,1.7400X1.7400*%
%ADD62C,1.6510*%
%ADD63C,0.6604*%
%ADD75R,0.9270X0.9270*%
%ADD76R,2.8270X1.3270*%
D56*
X-355600Y355600D02*
D03*
X355600Y330200D02*
D03*
X-355600Y-355600D02*
D03*
D57*
X-309000Y-232000D02*
D03*
D58*
X345562Y17942D02*
D03*
X368168D02*
D03*
X345562Y184058D02*
D03*
X368168D02*
D03*
X130000Y-65000D02*
D03*
X-25500D02*
D03*
X-178000D02*
D03*
X-32500Y-279000D02*
D03*
D59*
X304800Y-304800D02*
D03*
Y304800D02*
D03*
X-304800D02*
D03*
Y-304800D02*
D03*
D60*
X-293300Y-114300D02*
D03*
Y-88900D02*
D03*
Y-63500D02*
D03*
Y-38100D02*
D03*
Y-12700D02*
D03*
Y12700D02*
D03*
Y38100D02*
D03*
Y63500D02*
D03*
Y88900D02*
D03*
Y114300D02*
D03*
X-318700Y-114300D02*
D03*
Y-88900D02*
D03*
Y-63500D02*
D03*
Y-38100D02*
D03*
Y-12700D02*
D03*
Y12700D02*
D03*
Y38100D02*
D03*
Y63500D02*
D03*
Y88900D02*
D03*
D61*
Y114300D02*
D03*
D62*
X295000Y180250D02*
D03*
Y21750D02*
D03*
D63*
X289000Y114000D02*
D03*
X354500Y-91000D02*
D03*
X-219500Y101000D02*
D03*
Y88500D02*
D03*
X249000Y153000D02*
D03*
Y138000D02*
D03*
X240000Y158000D02*
D03*
X328500Y130500D02*
D03*
Y158000D02*
D03*
X284500Y69500D02*
D03*
X285500Y44000D02*
D03*
X254500Y169000D02*
D03*
X-211000Y82000D02*
D03*
Y94500D02*
D03*
Y107500D02*
D03*
X331000Y-111500D02*
D03*
X-92000Y220500D02*
D03*
X-226000Y120000D02*
D03*
X329000Y44500D02*
D03*
Y56500D02*
D03*
Y69000D02*
D03*
X328500Y82000D02*
D03*
Y94500D02*
D03*
Y107500D02*
D03*
Y120000D02*
D03*
Y145500D02*
D03*
X322000Y-159500D02*
D03*
X72000Y203000D02*
D03*
X-364500Y-27500D02*
D03*
Y8000D02*
D03*
Y40000D02*
D03*
X-354000Y-44500D02*
D03*
X-336500Y-63500D02*
D03*
X-364500Y74000D02*
D03*
Y106500D02*
D03*
X-364000Y142000D02*
D03*
X-339500Y170500D02*
D03*
X-308500Y171000D02*
D03*
X-275500Y170000D02*
D03*
X87000Y62500D02*
D03*
X-269500Y63500D02*
D03*
X-238500Y64000D02*
D03*
X-205500Y63000D02*
D03*
X-169500D02*
D03*
X-133500D02*
D03*
X-91000Y62500D02*
D03*
X-55000Y62000D02*
D03*
X-10000D02*
D03*
X32500Y62500D02*
D03*
X129500Y63000D02*
D03*
X178500Y63500D02*
D03*
X224500Y63000D02*
D03*
X-234000Y146000D02*
D03*
X277000Y-25500D02*
D03*
X337500Y57000D02*
D03*
Y70000D02*
D03*
Y83000D02*
D03*
Y95000D02*
D03*
Y108000D02*
D03*
Y121000D02*
D03*
X337500Y133500D02*
D03*
X337500Y146000D02*
D03*
X208500Y169500D02*
D03*
X155500Y169000D02*
D03*
X111500Y169500D02*
D03*
X62500Y168500D02*
D03*
X20000Y168000D02*
D03*
X-25000D02*
D03*
X-64000Y168500D02*
D03*
X-103500Y169000D02*
D03*
X-139500D02*
D03*
X-175500D02*
D03*
X-208500Y170000D02*
D03*
X-239500Y169500D02*
D03*
X339826Y-78000D02*
D03*
X335000Y-94000D02*
D03*
X325144Y-185000D02*
D03*
X293940Y-75340D02*
D03*
X266500Y-25500D02*
D03*
X254000Y269240D02*
D03*
X198120Y330200D02*
D03*
X203200Y304800D02*
D03*
X-76200Y-50800D02*
D03*
X76200Y-40640D02*
D03*
X228600Y-45720D02*
D03*
X152400Y40640D02*
D03*
X228600Y203200D02*
D03*
X107950Y133350D02*
D03*
D75*
X275000Y158150D02*
D03*
X262300D02*
D03*
X275000Y145450D02*
D03*
X262300Y145450D02*
D03*
X275000Y132750D02*
D03*
X262300D02*
D03*
X275000Y120050D02*
D03*
X262300D02*
D03*
X275000Y107350D02*
D03*
X262300Y107350D02*
D03*
X275000Y94650D02*
D03*
X262300D02*
D03*
X275000Y81950D02*
D03*
X262300D02*
D03*
X275000Y69250D02*
D03*
X262300Y69250D02*
D03*
X275000Y56550D02*
D03*
X262300D02*
D03*
X275000Y43850D02*
D03*
X262300D02*
D03*
D76*
X319500Y183100D02*
D03*
X270500D02*
D03*
X319500Y18900D02*
D03*
X270500D02*
D03*
M02*
