G04*
G04 #@! TF.GenerationSoftware,Altium Limited,Altium Designer,24.1.2 (44)*
G04*
G04 Layer_Color=8421504*
%FSLAX44Y44*%
%MOMM*%
G71*
G04*
G04 #@! TF.SameCoordinates,4D670051-7F49-4B36-91F3-1F1B1C4DC3BF*
G04*
G04*
G04 #@! TF.FilePolarity,Positive*
G04*
G01*
G75*
%ADD19R,1.1430X0.7366*%
%ADD20R,1.1500X1.1500*%
%ADD21R,0.6500X0.9000*%
%ADD22R,1.0000X1.5000*%
%ADD23R,3.4300X1.7800*%
%ADD24R,1.9000X1.2000*%
%ADD25R,1.9000X1.6000*%
%ADD26R,2.0000X2.1000*%
%ADD27R,1.3500X0.4000*%
%ADD28R,0.9500X0.4000*%
G04:AMPARAMS|DCode=29|XSize=0.95mm|YSize=0.4mm|CornerRadius=0.2mm|HoleSize=0mm|Usage=FLASHONLY|Rotation=0.000|XOffset=0mm|YOffset=0mm|HoleType=Round|Shape=RoundedRectangle|*
%AMROUNDEDRECTD29*
21,1,0.9500,0.0000,0,0,0.0*
21,1,0.5500,0.4000,0,0,0.0*
1,1,0.4000,0.2750,0.0000*
1,1,0.4000,-0.2750,0.0000*
1,1,0.4000,-0.2750,0.0000*
1,1,0.4000,0.2750,0.0000*
%
%ADD29ROUNDEDRECTD29*%
G04:AMPARAMS|DCode=30|XSize=0.4mm|YSize=0.95mm|CornerRadius=0.2mm|HoleSize=0mm|Usage=FLASHONLY|Rotation=0.000|XOffset=0mm|YOffset=0mm|HoleType=Round|Shape=RoundedRectangle|*
%AMROUNDEDRECTD30*
21,1,0.4000,0.5500,0,0,0.0*
21,1,0.0000,0.9500,0,0,0.0*
1,1,0.4000,0.0000,-0.2750*
1,1,0.4000,0.0000,-0.2750*
1,1,0.4000,0.0000,0.2750*
1,1,0.4000,0.0000,0.2750*
%
%ADD30ROUNDEDRECTD30*%
%ADD31R,2.3000X2.3000*%
%ADD32R,0.4000X0.5000*%
%ADD33R,0.4725X0.4682*%
%ADD34R,0.5725X0.5682*%
%ADD35R,0.4725X0.5393*%
%ADD36R,2.0000X2.0000*%
%ADD37R,0.7000X0.5000*%
%ADD38R,0.6200X0.6200*%
%ADD39R,0.5393X0.4725*%
%ADD40R,1.1500X1.1500*%
%ADD41R,0.9000X0.6500*%
%ADD42R,0.5000X0.4000*%
%ADD43R,0.4682X0.4725*%
G36*
X354960Y28737D02*
Y4099D01*
X330322D01*
Y28737D01*
X354960D01*
D02*
G37*
G36*
X381630D02*
Y4099D01*
X358770D01*
Y28737D01*
X381630D01*
D02*
G37*
G36*
X354960Y197901D02*
Y173263D01*
X330322D01*
Y197901D01*
X354960D01*
D02*
G37*
G36*
X381630D02*
Y173263D01*
X358770D01*
Y197901D01*
X381630D01*
D02*
G37*
D19*
X301874Y158150D02*
D03*
X317114D02*
D03*
X301874Y145450D02*
D03*
X317114D02*
D03*
X301874Y132750D02*
D03*
X317114D02*
D03*
X301874Y120050D02*
D03*
X317114D02*
D03*
X301874Y107350D02*
D03*
X317114D02*
D03*
X301874Y94650D02*
D03*
X317114D02*
D03*
X301874Y81950D02*
D03*
X317114D02*
D03*
X301874Y69250D02*
D03*
X317114D02*
D03*
X301874Y56550D02*
D03*
X317114D02*
D03*
X301874Y43850D02*
D03*
X317114D02*
D03*
D20*
X76200Y-3490D02*
D03*
Y-26990D02*
D03*
X50800Y-3490D02*
D03*
Y-26990D02*
D03*
X228600Y-32070D02*
D03*
Y-8570D02*
D03*
X-101600Y-37150D02*
D03*
Y-13650D02*
D03*
X203200Y-8570D02*
D03*
Y-32070D02*
D03*
X-76200Y-13650D02*
D03*
Y-37150D02*
D03*
D21*
X342750Y-245000D02*
D03*
X357250D02*
D03*
X-97750Y25500D02*
D03*
X-112250D02*
D03*
X202460Y25400D02*
D03*
X187960D02*
D03*
X38470D02*
D03*
X52970D02*
D03*
X246750Y203200D02*
D03*
X261250D02*
D03*
X357250Y-102500D02*
D03*
X342750D02*
D03*
D22*
X60500Y64000D02*
D03*
Y90000D02*
D03*
X201500Y63500D02*
D03*
Y89500D02*
D03*
X-112000Y65000D02*
D03*
Y91000D02*
D03*
D23*
X0Y0D02*
D03*
Y-279000D02*
D03*
X152400Y0D02*
D03*
X-152400D02*
D03*
D24*
X366375Y-180500D02*
D03*
Y-163500D02*
D03*
D25*
Y-213000D02*
D03*
Y-131000D02*
D03*
D26*
X342875Y-203000D02*
D03*
Y-141000D02*
D03*
D27*
X339625Y-185000D02*
D03*
Y-178500D02*
D03*
Y-172000D02*
D03*
Y-165500D02*
D03*
Y-159000D02*
D03*
D28*
X274250Y-65250D02*
D03*
D29*
Y-71750D02*
D03*
Y-78250D02*
D03*
Y-84750D02*
D03*
X313750D02*
D03*
Y-78250D02*
D03*
Y-71750D02*
D03*
Y-65250D02*
D03*
D30*
X284250Y-94750D02*
D03*
X290750D02*
D03*
X297250D02*
D03*
X303750D02*
D03*
Y-55250D02*
D03*
X297250D02*
D03*
X290750D02*
D03*
X284250D02*
D03*
D31*
X294000Y-75000D02*
D03*
D32*
X331000Y-104000D02*
D03*
X323000D02*
D03*
X274500Y-40500D02*
D03*
X266500D02*
D03*
D33*
X-242500Y121957D02*
D03*
Y130000D02*
D03*
D34*
X287500Y-133521D02*
D03*
Y-124479D02*
D03*
X300500Y-133521D02*
D03*
Y-124479D02*
D03*
D35*
X-25400Y-21734D02*
D03*
Y-29066D02*
D03*
X127000Y-21734D02*
D03*
Y-29066D02*
D03*
X254000Y245834D02*
D03*
Y253166D02*
D03*
X-177800Y-21734D02*
D03*
Y-29066D02*
D03*
D36*
X-190000Y-130000D02*
D03*
X-130000D02*
D03*
X130000D02*
D03*
X190000D02*
D03*
X-30000D02*
D03*
X30000D02*
D03*
X-110000Y220000D02*
D03*
X-50000D02*
D03*
X50000D02*
D03*
X110000D02*
D03*
D37*
X345500Y-230000D02*
D03*
X354500D02*
D03*
Y-114000D02*
D03*
X345500D02*
D03*
D38*
X233100Y304800D02*
D03*
X224100D02*
D03*
D39*
X92566Y133350D02*
D03*
X85234D02*
D03*
D40*
X216850Y330200D02*
D03*
X240350D02*
D03*
D41*
X130000Y159750D02*
D03*
Y145250D02*
D03*
D42*
X330000Y-86000D02*
D03*
Y-78000D02*
D03*
D43*
X298661Y-35560D02*
D03*
X290618D02*
D03*
X255522Y-72000D02*
D03*
X247479D02*
D03*
X-313521Y-192500D02*
D03*
X-305478D02*
D03*
M02*
