G04*
G04 #@! TF.GenerationSoftware,Altium Limited,Altium Designer,24.1.2 (44)*
G04*
G04 Layer_Physical_Order=4*
G04 Layer_Color=16711680*
%FSLAX44Y44*%
%MOMM*%
G71*
G04*
G04 #@! TF.SameCoordinates,4D670051-7F49-4B36-91F3-1F1B1C4DC3BF*
G04*
G04*
G04 #@! TF.FilePolarity,Positive*
G04*
G01*
G75*
%ADD11C,0.2540*%
%ADD16C,0.1270*%
%ADD60C,1.7400*%
%ADD61R,1.7400X1.7400*%
%ADD62C,1.6510*%
%ADD64C,0.1524*%
%ADD65C,1.0000*%
%ADD66C,0.2390*%
%ADD68C,0.1575*%
%ADD69C,0.7874*%
%ADD70C,1.2700*%
%ADD71C,6.0000*%
%ADD72C,0.5080*%
%ADD73R,0.8000X0.8000*%
%ADD74R,2.7000X1.2000*%
G36*
X361684Y375658D02*
X365481Y374085D01*
X368897Y371803D01*
X371803Y368897D01*
X374085Y365481D01*
X375658Y361684D01*
X376459Y357654D01*
Y355500D01*
X376459Y190359D01*
X373919Y189497D01*
X373784Y189674D01*
X372139Y190936D01*
X370224Y191729D01*
X368168Y192000D01*
X366113Y191729D01*
X364197Y190936D01*
X362552Y189674D01*
X361290Y188029D01*
X360611Y186389D01*
X353119D01*
X352440Y188029D01*
X351178Y189674D01*
X349533Y190936D01*
X347617Y191729D01*
X345562Y192000D01*
X343507Y191729D01*
X341591Y190936D01*
X339946Y189674D01*
X338684Y188029D01*
X338005Y186389D01*
X334524D01*
Y190624D01*
X321831D01*
Y193000D01*
X321653Y193892D01*
X321148Y194648D01*
X316148Y199648D01*
X315392Y200153D01*
X314500Y200331D01*
X276000D01*
X275108Y200153D01*
X274352Y199648D01*
X268852Y194148D01*
X268347Y193392D01*
X268169Y192500D01*
Y190624D01*
X255476D01*
Y178772D01*
X252852Y176148D01*
X252347Y175392D01*
X252169Y174500D01*
Y172330D01*
X251570Y171930D01*
X250672Y170586D01*
X250356Y169000D01*
X250672Y167414D01*
X251570Y166070D01*
X252914Y165172D01*
X254500Y164856D01*
X254746Y164905D01*
X256572Y163021D01*
X256251Y160481D01*
X243230D01*
X242930Y160930D01*
X241586Y161828D01*
X240000Y162144D01*
X238414Y161828D01*
X237070Y160930D01*
X236172Y159586D01*
X235856Y158000D01*
X236172Y156414D01*
X237070Y155070D01*
X238414Y154172D01*
X240000Y153856D01*
X241586Y154172D01*
X242083Y154504D01*
X244671Y153692D01*
X244912Y153279D01*
X244856Y153000D01*
X245172Y151414D01*
X246070Y150070D01*
X247414Y149172D01*
X249000Y148856D01*
X250298Y147657D01*
X250803Y146901D01*
X253902Y143802D01*
X254658Y143297D01*
X255550Y143119D01*
X256776D01*
Y139926D01*
X256776D01*
Y138477D01*
X255776Y137619D01*
X253266Y138050D01*
X253096Y138239D01*
X252828Y139586D01*
X251930Y140930D01*
X250586Y141828D01*
X249000Y142144D01*
X247414Y141828D01*
X246070Y140930D01*
X245172Y139586D01*
X244856Y138000D01*
X245172Y136414D01*
X246070Y135070D01*
X247414Y134172D01*
X249000Y133856D01*
X249707Y133997D01*
X252602Y131102D01*
X253358Y130597D01*
X254250Y130419D01*
X256776D01*
Y127226D01*
X256776D01*
Y125574D01*
X256776D01*
Y122381D01*
X240415D01*
X210831Y151965D01*
Y166170D01*
X211430Y166570D01*
X212328Y167914D01*
X212644Y169500D01*
X212328Y171086D01*
X211430Y172430D01*
X210086Y173328D01*
X208500Y173644D01*
X206914Y173328D01*
X205570Y172430D01*
X204672Y171086D01*
X204356Y169500D01*
X204672Y167914D01*
X205570Y166570D01*
X206169Y166170D01*
Y151000D01*
X206347Y150108D01*
X206852Y149352D01*
X237802Y118402D01*
X238558Y117897D01*
X239450Y117719D01*
X256776D01*
Y114526D01*
X256776D01*
Y112874D01*
X256776D01*
Y101826D01*
X256776D01*
Y100174D01*
X256776D01*
Y89126D01*
X256776D01*
Y87474D01*
X256776D01*
Y76426D01*
X256776D01*
Y74774D01*
X256776D01*
Y64614D01*
X256776Y62074D01*
X256776Y61186D01*
Y51914D01*
X256776Y49374D01*
X256776Y48721D01*
X256209Y46181D01*
X234615D01*
X226831Y53965D01*
Y59670D01*
X227430Y60070D01*
X228328Y61414D01*
X228644Y63000D01*
X228328Y64586D01*
X227430Y65930D01*
X226086Y66828D01*
X224500Y67144D01*
X222914Y66828D01*
X221570Y65930D01*
X220672Y64586D01*
X220356Y63000D01*
X220672Y61414D01*
X221570Y60070D01*
X222169Y59670D01*
Y53000D01*
X222347Y52108D01*
X222852Y51352D01*
X232002Y42202D01*
X232758Y41697D01*
X233650Y41519D01*
X256776D01*
Y38326D01*
X259969D01*
Y26424D01*
X255476D01*
Y11376D01*
X268169D01*
Y10360D01*
X268347Y9468D01*
X268852Y8712D01*
X274712Y2852D01*
X275468Y2347D01*
X276360Y2169D01*
X314035D01*
X314221Y1983D01*
X314977Y1478D01*
X315869Y1301D01*
X317097D01*
X317989Y1478D01*
X318745Y1983D01*
X321648Y4886D01*
X322153Y5642D01*
X322331Y6534D01*
Y11376D01*
X334524D01*
Y15611D01*
X338005D01*
X338684Y13971D01*
X339946Y12326D01*
X341591Y11064D01*
X343507Y10271D01*
X345562Y10000D01*
X347617Y10271D01*
X349533Y11064D01*
X351178Y12326D01*
X352440Y13971D01*
X353119Y15611D01*
X360611D01*
X361290Y13971D01*
X362552Y12326D01*
X364197Y11064D01*
X366113Y10271D01*
X368168Y10000D01*
X370224Y10271D01*
X372139Y11064D01*
X373784Y12326D01*
X373919Y12503D01*
X376459Y11641D01*
X376459Y-355000D01*
X376459Y-355001D01*
X376459Y-355001D01*
X376459Y-355601D01*
Y-357601D01*
X375699Y-361529D01*
X374206Y-365241D01*
X372034Y-368602D01*
X369263Y-371488D01*
X365994Y-373796D01*
X362346Y-375439D01*
X358452Y-376360D01*
X356454Y-376442D01*
X356381Y-376459D01*
X235681D01*
X234629Y-373919D01*
X281429Y-327120D01*
X282440Y-327160D01*
X286213Y-330382D01*
X290444Y-332975D01*
X295028Y-334874D01*
X299853Y-336032D01*
X304800Y-336422D01*
X309747Y-336032D01*
X314572Y-334874D01*
X319156Y-332975D01*
X323387Y-330382D01*
X327160Y-327160D01*
X330382Y-323387D01*
X332975Y-319156D01*
X334874Y-314572D01*
X336032Y-309747D01*
X336422Y-304800D01*
X336032Y-299853D01*
X334874Y-295028D01*
X332975Y-290444D01*
X330382Y-286213D01*
X327160Y-282440D01*
X323387Y-279218D01*
X319156Y-276625D01*
X314572Y-274726D01*
X309747Y-273568D01*
X304800Y-273179D01*
X299853Y-273568D01*
X295028Y-274726D01*
X290444Y-276625D01*
X286213Y-279218D01*
X282440Y-282440D01*
X279218Y-286213D01*
X276625Y-290444D01*
X274726Y-295028D01*
X273568Y-299853D01*
X273179Y-304800D01*
X273568Y-309747D01*
X274726Y-314572D01*
X276625Y-319156D01*
X278415Y-322076D01*
X229840Y-370651D01*
X-234920D01*
X-280584Y-324987D01*
X-279218Y-323387D01*
X-276625Y-319156D01*
X-274726Y-314572D01*
X-273568Y-309747D01*
X-273179Y-304800D01*
X-273568Y-299853D01*
X-274726Y-295028D01*
X-276625Y-290444D01*
X-279218Y-286213D01*
X-282440Y-282440D01*
X-286213Y-279218D01*
X-290444Y-276625D01*
X-295028Y-274726D01*
X-299853Y-273568D01*
X-304800Y-273179D01*
X-309747Y-273568D01*
X-314572Y-274726D01*
X-319156Y-276625D01*
X-323387Y-279218D01*
X-324987Y-280584D01*
X-367991Y-237580D01*
Y-33110D01*
X-367371Y-32530D01*
X-365451Y-31454D01*
X-364500Y-31644D01*
X-362914Y-31328D01*
X-362590Y-31111D01*
X-361344Y-30561D01*
X-359369Y-31708D01*
X-359024Y-32224D01*
X-353353Y-37895D01*
X-353688Y-39171D01*
X-354403Y-40437D01*
X-355586Y-40672D01*
X-356930Y-41570D01*
X-357828Y-42914D01*
X-358144Y-44500D01*
X-357828Y-46086D01*
X-356930Y-47430D01*
X-355586Y-48328D01*
X-354000Y-48644D01*
X-352414Y-48328D01*
X-351070Y-47430D01*
X-350172Y-46086D01*
X-349937Y-44903D01*
X-348671Y-44188D01*
X-347395Y-43853D01*
X-334718Y-56530D01*
X-334792Y-57106D01*
X-336500Y-59356D01*
X-338086Y-59672D01*
X-339430Y-60570D01*
X-340328Y-61914D01*
X-340644Y-63500D01*
X-340328Y-65086D01*
X-339430Y-66430D01*
X-338086Y-67328D01*
X-336500Y-67644D01*
X-334914Y-67328D01*
X-334678Y-67170D01*
X-334117Y-67154D01*
X-331854Y-67929D01*
X-331739Y-68029D01*
X-330737Y-70449D01*
X-328528Y-73328D01*
X-325649Y-75537D01*
X-322721Y-76750D01*
X-322433Y-78071D01*
X-322597Y-79448D01*
X-323856Y-79969D01*
X-325992Y-81608D01*
X-327631Y-83744D01*
X-328661Y-86231D01*
X-329012Y-88900D01*
X-328661Y-91569D01*
X-327631Y-94056D01*
X-325992Y-96192D01*
X-323856Y-97831D01*
X-321369Y-98861D01*
X-318700Y-99212D01*
X-316031Y-98861D01*
X-313544Y-97831D01*
X-311408Y-96192D01*
X-309769Y-94056D01*
X-308739Y-91569D01*
X-308388Y-88900D01*
X-308739Y-86231D01*
X-309769Y-83744D01*
X-311408Y-81608D01*
X-313544Y-79969D01*
X-314803Y-79448D01*
X-314967Y-78071D01*
X-314679Y-76750D01*
X-311751Y-75537D01*
X-308872Y-73328D01*
X-306663Y-70449D01*
X-305450Y-67521D01*
X-304128Y-67233D01*
X-302752Y-67397D01*
X-302231Y-68656D01*
X-300592Y-70792D01*
X-298456Y-72431D01*
X-295969Y-73461D01*
X-293300Y-73812D01*
X-290631Y-73461D01*
X-288144Y-72431D01*
X-286008Y-70792D01*
X-284369Y-68656D01*
X-283339Y-66169D01*
X-282988Y-63500D01*
X-283339Y-60831D01*
X-284369Y-58344D01*
X-286008Y-56208D01*
X-288144Y-54569D01*
X-290631Y-53539D01*
X-293300Y-53188D01*
X-295969Y-53539D01*
X-298456Y-54569D01*
X-300592Y-56208D01*
X-302231Y-58344D01*
X-302752Y-59603D01*
X-304128Y-59767D01*
X-305450Y-59479D01*
X-306663Y-56551D01*
X-308872Y-53672D01*
X-310623Y-52328D01*
X-310685Y-52208D01*
Y-49392D01*
X-310623Y-49272D01*
X-308872Y-47928D01*
X-306663Y-45049D01*
X-305450Y-42121D01*
X-304128Y-41833D01*
X-302752Y-41997D01*
X-302231Y-43256D01*
X-300592Y-45392D01*
X-298456Y-47031D01*
X-295969Y-48061D01*
X-293300Y-48412D01*
X-290631Y-48061D01*
X-288144Y-47031D01*
X-286008Y-45392D01*
X-284369Y-43256D01*
X-283339Y-40769D01*
X-282988Y-38100D01*
X-283339Y-35431D01*
X-284369Y-32944D01*
X-286008Y-30808D01*
X-288144Y-29169D01*
X-290631Y-28139D01*
X-293300Y-27788D01*
X-295969Y-28139D01*
X-298456Y-29169D01*
X-300592Y-30808D01*
X-302231Y-32944D01*
X-302752Y-34203D01*
X-304128Y-34367D01*
X-305450Y-34079D01*
X-306663Y-31151D01*
X-308872Y-28272D01*
X-311751Y-26063D01*
X-314679Y-24850D01*
X-314967Y-23528D01*
X-314803Y-22152D01*
X-313544Y-21631D01*
X-311408Y-19992D01*
X-309769Y-17856D01*
X-308739Y-15369D01*
X-308388Y-12700D01*
X-308739Y-10031D01*
X-309769Y-7544D01*
X-311408Y-5408D01*
X-313544Y-3769D01*
X-314803Y-3248D01*
X-314967Y-1872D01*
X-314679Y-550D01*
X-311751Y663D01*
X-308872Y2872D01*
X-306663Y5751D01*
X-305450Y8679D01*
X-304128Y8967D01*
X-302752Y8803D01*
X-302231Y7544D01*
X-300592Y5408D01*
X-298456Y3769D01*
X-295969Y2739D01*
X-293300Y2388D01*
X-290631Y2739D01*
X-288144Y3769D01*
X-286008Y5408D01*
X-284369Y7544D01*
X-283339Y10031D01*
X-282988Y12700D01*
X-283339Y15369D01*
X-284369Y17856D01*
X-286008Y19992D01*
X-288144Y21631D01*
X-290631Y22661D01*
X-293300Y23012D01*
X-295969Y22661D01*
X-298456Y21631D01*
X-300592Y19992D01*
X-302231Y17856D01*
X-302752Y16597D01*
X-304128Y16433D01*
X-305450Y16721D01*
X-306663Y19649D01*
X-308872Y22528D01*
X-310623Y23872D01*
X-310685Y23992D01*
Y26808D01*
X-310623Y26928D01*
X-308872Y28272D01*
X-306663Y31151D01*
X-305450Y34079D01*
X-304128Y34367D01*
X-302752Y34203D01*
X-302231Y32944D01*
X-300592Y30808D01*
X-298456Y29169D01*
X-295969Y28139D01*
X-293300Y27788D01*
X-290631Y28139D01*
X-288144Y29169D01*
X-286008Y30808D01*
X-284369Y32944D01*
X-283339Y35431D01*
X-282988Y38100D01*
X-283339Y40769D01*
X-284369Y43256D01*
X-286008Y45392D01*
X-288144Y47031D01*
X-290631Y48061D01*
X-293300Y48412D01*
X-295969Y48061D01*
X-298456Y47031D01*
X-300592Y45392D01*
X-302231Y43256D01*
X-302752Y41997D01*
X-304128Y41833D01*
X-305450Y42121D01*
X-306663Y45049D01*
X-308872Y47928D01*
X-310623Y49272D01*
X-310685Y49392D01*
Y52208D01*
X-310623Y52328D01*
X-308872Y53672D01*
X-306663Y56551D01*
X-305450Y59479D01*
X-304128Y59767D01*
X-302752Y59603D01*
X-302231Y58344D01*
X-300592Y56208D01*
X-298456Y54569D01*
X-295969Y53539D01*
X-293300Y53188D01*
X-290631Y53539D01*
X-288144Y54569D01*
X-286008Y56208D01*
X-284369Y58344D01*
X-283339Y60831D01*
X-282988Y63500D01*
X-283339Y66169D01*
X-284369Y68656D01*
X-286008Y70792D01*
X-288144Y72431D01*
X-290631Y73461D01*
X-293300Y73812D01*
X-295969Y73461D01*
X-298456Y72431D01*
X-300592Y70792D01*
X-302231Y68656D01*
X-302752Y67397D01*
X-304128Y67233D01*
X-305450Y67521D01*
X-306663Y70449D01*
X-308872Y73328D01*
X-310623Y74672D01*
X-310685Y74792D01*
Y77608D01*
X-310623Y77728D01*
X-308872Y79072D01*
X-306663Y81951D01*
X-305450Y84879D01*
X-304128Y85167D01*
X-302752Y85003D01*
X-302231Y83744D01*
X-300592Y81608D01*
X-298456Y79969D01*
X-295969Y78939D01*
X-293300Y78588D01*
X-290631Y78939D01*
X-288144Y79969D01*
X-286008Y81608D01*
X-284369Y83744D01*
X-283339Y86231D01*
X-282988Y88900D01*
X-283339Y91569D01*
X-284369Y94056D01*
X-286008Y96192D01*
X-288144Y97831D01*
X-290631Y98861D01*
X-293300Y99212D01*
X-295969Y98861D01*
X-298456Y97831D01*
X-300592Y96192D01*
X-302231Y94056D01*
X-302752Y92797D01*
X-304128Y92633D01*
X-305450Y92921D01*
X-306663Y95849D01*
X-308872Y98728D01*
X-311207Y100520D01*
X-310646Y102899D01*
X-310555Y103060D01*
X-307460D01*
Y113030D01*
X-318700D01*
Y115570D01*
X-307460D01*
Y122470D01*
X-303120D01*
X-301867Y119930D01*
X-302231Y119456D01*
X-303261Y116969D01*
X-303612Y114300D01*
X-303261Y111631D01*
X-302231Y109144D01*
X-300592Y107008D01*
X-298456Y105369D01*
X-295969Y104339D01*
X-293300Y103988D01*
X-290631Y104339D01*
X-288144Y105369D01*
X-286008Y107008D01*
X-284369Y109144D01*
X-283339Y111631D01*
X-282988Y114300D01*
X-283071Y114931D01*
X-280665Y116117D01*
X-242024Y77476D01*
X-239948Y76089D01*
X-237500Y75602D01*
X-215179D01*
X-214843Y75344D01*
X-212989Y74576D01*
X-211000Y74314D01*
X-209011Y74576D01*
X-207157Y75344D01*
X-205565Y76565D01*
X-204344Y78157D01*
X-203576Y80011D01*
X-203314Y82000D01*
X-203576Y83989D01*
X-204344Y85843D01*
X-204807Y86446D01*
X-205329Y88250D01*
X-204807Y90054D01*
X-204344Y90657D01*
X-203576Y92511D01*
X-203314Y94500D01*
X-203576Y96489D01*
X-204344Y98343D01*
X-205565Y99935D01*
X-205048Y102739D01*
X-204344Y103657D01*
X-203576Y105511D01*
X-203314Y107500D01*
X-203576Y109489D01*
X-204344Y111343D01*
X-205565Y112935D01*
X-207157Y114156D01*
X-209011Y114924D01*
X-211000Y115186D01*
X-212989Y114924D01*
X-214843Y114156D01*
X-215179Y113898D01*
X-217876D01*
X-218829Y115365D01*
X-219228Y116438D01*
X-218576Y118011D01*
X-218314Y120000D01*
X-218576Y121989D01*
X-219344Y123843D01*
X-219781Y124412D01*
X-218528Y126952D01*
X103771D01*
X104107Y126694D01*
X105961Y125926D01*
X107950Y125664D01*
X109939Y125926D01*
X111793Y126694D01*
X113385Y127915D01*
X114606Y129507D01*
X115374Y131361D01*
X115636Y133350D01*
X115374Y135339D01*
X114606Y137193D01*
X113385Y138785D01*
X111793Y140006D01*
X109939Y140774D01*
X107950Y141036D01*
X105961Y140774D01*
X104107Y140006D01*
X103771Y139748D01*
X-225991D01*
X-227344Y142157D01*
X-226576Y144011D01*
X-226314Y146000D01*
X-226576Y147989D01*
X-227344Y149843D01*
X-228565Y151435D01*
X-230157Y152656D01*
X-232011Y153424D01*
X-234000Y153686D01*
X-235989Y153424D01*
X-237843Y152656D01*
X-239435Y151435D01*
X-240656Y149843D01*
X-241424Y147989D01*
X-241686Y146000D01*
X-241424Y144011D01*
X-240656Y142157D01*
X-242009Y139748D01*
X-251200D01*
X-266976Y155524D01*
X-269052Y156911D01*
X-271500Y157398D01*
X-271575Y157383D01*
X-271650Y157398D01*
X-336000D01*
X-338448Y156911D01*
X-340524Y155524D01*
X-359024Y137024D01*
X-360411Y134948D01*
X-360898Y132500D01*
Y112036D01*
X-361655Y111395D01*
X-363438Y110432D01*
X-364500Y110644D01*
X-365451Y110454D01*
X-367371Y111530D01*
X-367991Y112110D01*
Y136724D01*
X-365620Y138151D01*
X-365451Y138145D01*
X-364000Y137856D01*
X-362414Y138172D01*
X-361070Y139070D01*
X-360172Y140414D01*
X-359856Y142000D01*
X-360172Y143586D01*
X-361070Y144930D01*
X-362414Y145828D01*
X-364000Y146144D01*
X-365451Y145855D01*
X-365620Y145849D01*
X-367991Y147276D01*
Y237580D01*
X-324987Y280584D01*
X-323387Y279218D01*
X-319156Y276625D01*
X-314572Y274726D01*
X-309747Y273568D01*
X-304800Y273179D01*
X-299853Y273568D01*
X-295028Y274726D01*
X-290444Y276625D01*
X-286213Y279218D01*
X-282440Y282440D01*
X-279218Y286213D01*
X-276625Y290444D01*
X-274726Y295028D01*
X-273568Y299853D01*
X-273179Y304800D01*
X-273568Y309747D01*
X-274726Y314572D01*
X-276625Y319156D01*
X-279218Y323387D01*
X-280584Y324987D01*
X-235420Y370151D01*
X235420D01*
X280584Y324987D01*
X279218Y323387D01*
X276625Y319156D01*
X274726Y314572D01*
X273568Y309747D01*
X273179Y304800D01*
X273568Y299853D01*
X274726Y295028D01*
X276625Y290444D01*
X279218Y286213D01*
X282440Y282440D01*
X286213Y279218D01*
X290444Y276625D01*
X295028Y274726D01*
X299853Y273568D01*
X304800Y273179D01*
X309747Y273568D01*
X314572Y274726D01*
X319156Y276625D01*
X323387Y279218D01*
X327160Y282440D01*
X330382Y286213D01*
X332975Y290444D01*
X334874Y295028D01*
X336032Y299853D01*
X336422Y304800D01*
X336032Y309747D01*
X334874Y314572D01*
X332975Y319156D01*
X330382Y323387D01*
X327160Y327160D01*
X323387Y330382D01*
X319156Y332975D01*
X314572Y334874D01*
X309747Y336032D01*
X304800Y336422D01*
X299853Y336032D01*
X295028Y334874D01*
X290444Y332975D01*
X286213Y330382D01*
X284613Y329016D01*
X239711Y373917D01*
X240763Y376457D01*
X355600Y376459D01*
X357654D01*
X361684Y375658D01*
D02*
G37*
G36*
X361290Y180087D02*
X362552Y178442D01*
X364197Y177180D01*
X366113Y176387D01*
X368168Y176116D01*
X370224Y176387D01*
X372139Y177180D01*
X373784Y178442D01*
X373919Y178619D01*
X376459Y177757D01*
X376459Y24243D01*
X373919Y23381D01*
X373784Y23558D01*
X372139Y24820D01*
X370224Y25613D01*
X368168Y25884D01*
X366113Y25613D01*
X364197Y24820D01*
X362552Y23558D01*
X361290Y21913D01*
X360611Y20273D01*
X353119D01*
X352440Y21913D01*
X351178Y23558D01*
X349533Y24820D01*
X347617Y25613D01*
X345562Y25884D01*
X343507Y25613D01*
X341591Y24820D01*
X339946Y23558D01*
X338684Y21913D01*
X338005Y20273D01*
X334524D01*
Y26424D01*
X310168D01*
X307761Y26779D01*
X307580Y27217D01*
X307555Y27242D01*
X307554Y27277D01*
X307355Y27707D01*
X307330Y27731D01*
X307327Y27765D01*
X307112Y28187D01*
X307086Y28210D01*
X307082Y28245D01*
X306850Y28658D01*
X306823Y28679D01*
X306817Y28714D01*
X306570Y29118D01*
X306542Y29138D01*
X306535Y29172D01*
X306271Y29566D01*
X306243Y29586D01*
X306234Y29619D01*
X305956Y30003D01*
X305926Y30021D01*
X305917Y30055D01*
X305623Y30427D01*
X305593Y30444D01*
X305582Y30477D01*
X305275Y30837D01*
X305244Y30853D01*
X305232Y30885D01*
X304910Y31233D01*
X304878Y31248D01*
X304865Y31280D01*
X304530Y31615D01*
X304498Y31628D01*
X304483Y31660D01*
X304135Y31982D01*
X304103Y31994D01*
X304087Y32025D01*
X303727Y32332D01*
X303694Y32343D01*
X303677Y32373D01*
X303305Y32667D01*
X303271Y32676D01*
X303253Y32706D01*
X302869Y32985D01*
X302836Y32993D01*
X302816Y33022D01*
X302422Y33285D01*
X302388Y33292D01*
X302368Y33320D01*
X301964Y33567D01*
X301929Y33573D01*
X301908Y33600D01*
X301494Y33832D01*
X301460Y33836D01*
X301437Y33862D01*
X301015Y34077D01*
X300980Y34080D01*
X300957Y34106D01*
X300527Y34304D01*
X300492Y34305D01*
X300467Y34330D01*
X300029Y34511D01*
X299995D01*
X299969Y34535D01*
X299524Y34699D01*
X299490Y34697D01*
X299463Y34720D01*
X299013Y34866D01*
X298978Y34864D01*
X298951Y34885D01*
X298495Y35014D01*
X298460Y35010D01*
X298432Y35030D01*
X297971Y35141D01*
X297937Y35136D01*
X297908Y35155D01*
X297443Y35247D01*
X297409Y35240D01*
X297379Y35259D01*
X296911Y35333D01*
X296877Y35325D01*
X296847Y35342D01*
X296376Y35397D01*
X296343Y35388D01*
X296312Y35404D01*
X295840Y35441D01*
X295807Y35430D01*
X295775Y35445D01*
X295302Y35463D01*
X295269Y35451D01*
X295237Y35464D01*
X294763D01*
X294731Y35451D01*
X294698Y35463D01*
X294225Y35445D01*
X294193Y35430D01*
X294160Y35441D01*
X293688Y35404D01*
X293657Y35388D01*
X293623Y35397D01*
X293153Y35342D01*
X293122Y35325D01*
X293088Y35333D01*
X292620Y35259D01*
X292591Y35240D01*
X292557Y35247D01*
X292092Y35155D01*
X292063Y35136D01*
X292029Y35141D01*
X291568Y35030D01*
X291540Y35010D01*
X291505Y35014D01*
X291049Y34885D01*
X291022Y34864D01*
X290987Y34866D01*
X290536Y34720D01*
X290510Y34697D01*
X290475Y34699D01*
X290031Y34535D01*
X290005Y34511D01*
X289970D01*
X289533Y34330D01*
X289508Y34305D01*
X289473Y34304D01*
X289043Y34106D01*
X289019Y34080D01*
X288985Y34077D01*
X288563Y33862D01*
X288540Y33836D01*
X288505Y33832D01*
X288092Y33600D01*
X288070Y33573D01*
X288036Y33567D01*
X287632Y33320D01*
X287612Y33292D01*
X287577Y33285D01*
X287183Y33022D01*
X287164Y32993D01*
X287130Y32985D01*
X286747Y32706D01*
X286729Y32676D01*
X286695Y32667D01*
X286323Y32373D01*
X286306Y32343D01*
X286273Y32332D01*
X285913Y32025D01*
X285897Y31994D01*
X285864Y31982D01*
X285516Y31660D01*
X285502Y31628D01*
X285470Y31615D01*
X285135Y31280D01*
X285121Y31248D01*
X285090Y31233D01*
X284768Y30885D01*
X284756Y30853D01*
X284725Y30837D01*
X284417Y30477D01*
X284407Y30444D01*
X284376Y30427D01*
X284083Y30055D01*
X284074Y30021D01*
X284044Y30003D01*
X283765Y29620D01*
X283757Y29586D01*
X283728Y29566D01*
X283465Y29172D01*
X283458Y29138D01*
X283430Y29118D01*
X283183Y28714D01*
X283177Y28679D01*
X283150Y28658D01*
X282918Y28245D01*
X282914Y28210D01*
X282888Y28187D01*
X282673Y27765D01*
X282670Y27731D01*
X282644Y27707D01*
X282446Y27277D01*
X282444Y27242D01*
X282420Y27217D01*
X282239Y26779D01*
X279831Y26424D01*
X264631D01*
Y36616D01*
X264826Y36811D01*
X267171Y37928D01*
X268460Y37310D01*
X269943Y37310D01*
X273730D01*
Y43850D01*
X276270D01*
Y37310D01*
X281540D01*
Y38703D01*
X283853Y40134D01*
X284080Y40139D01*
X285500Y39856D01*
X287086Y40172D01*
X288430Y41070D01*
X289328Y42414D01*
X289644Y44000D01*
X289328Y45586D01*
X288430Y46930D01*
X287086Y47828D01*
X285500Y48144D01*
X284080Y47861D01*
X283853Y47866D01*
X281540Y49296D01*
Y50390D01*
X280884Y51759D01*
X281816Y53801D01*
X282313Y54299D01*
X312781D01*
X313432Y54169D01*
X325670D01*
X326070Y53570D01*
X327414Y52672D01*
X329000Y52356D01*
X330586Y52672D01*
X331874Y53533D01*
X331930Y53570D01*
X334482Y54053D01*
X334996Y53785D01*
X335914Y53172D01*
X337500Y52856D01*
X339086Y53172D01*
X340430Y54070D01*
X341328Y55414D01*
X341644Y57000D01*
X341328Y58586D01*
X340430Y59930D01*
X339086Y60828D01*
X337500Y61144D01*
X335914Y60828D01*
X334626Y59967D01*
X334570Y59930D01*
X332018Y59447D01*
X331504Y59715D01*
X330586Y60328D01*
X329000Y60644D01*
X327414Y60328D01*
X326070Y59430D01*
X325670Y58831D01*
X313432D01*
X312781Y58701D01*
X280657D01*
X280524Y61241D01*
X280524Y63726D01*
Y64214D01*
X282868Y65643D01*
X283064Y65642D01*
X284500Y65356D01*
X286086Y65672D01*
X287430Y66570D01*
X287583Y66799D01*
X314281D01*
X314932Y66669D01*
X325670D01*
X326070Y66070D01*
X327414Y65172D01*
X329000Y64856D01*
X330586Y65172D01*
X331930Y66070D01*
X332057Y66260D01*
X334246Y66966D01*
X335158Y66677D01*
X335914Y66172D01*
X337500Y65856D01*
X339086Y66172D01*
X340430Y67070D01*
X341328Y68414D01*
X341644Y70000D01*
X341328Y71586D01*
X340430Y72930D01*
X339086Y73828D01*
X337500Y74144D01*
X335914Y73828D01*
X334570Y72930D01*
X333306Y73480D01*
X333472Y76210D01*
X333935Y76565D01*
X335156Y78157D01*
X335528Y79054D01*
X335914Y79172D01*
X337500Y78856D01*
X339086Y79172D01*
X340430Y80070D01*
X341328Y81414D01*
X341644Y83000D01*
X341328Y84586D01*
X340430Y85930D01*
X339086Y86828D01*
X337500Y87144D01*
X336251Y86895D01*
X335584Y87308D01*
X334772Y90156D01*
X335156Y90657D01*
X335291Y90983D01*
X335914Y91172D01*
X337500Y90856D01*
X339086Y91172D01*
X340430Y92070D01*
X341328Y93414D01*
X341644Y95000D01*
X341328Y96586D01*
X340430Y97930D01*
X339086Y98828D01*
X337500Y99144D01*
X336029Y98851D01*
X335422Y99313D01*
X334697Y100027D01*
X334966Y102816D01*
X336574Y104041D01*
X337500Y103856D01*
X339086Y104172D01*
X340430Y105070D01*
X341328Y106414D01*
X341644Y108000D01*
X341328Y109586D01*
X340430Y110930D01*
X339086Y111828D01*
X337500Y112144D01*
X335914Y111828D01*
X334179Y113723D01*
X334171Y113750D01*
X334693Y115554D01*
X335156Y116157D01*
X335528Y117055D01*
X335914Y117172D01*
X337500Y116856D01*
X339086Y117172D01*
X340430Y118070D01*
X341328Y119414D01*
X341644Y121000D01*
X341328Y122586D01*
X340430Y123930D01*
X339086Y124828D01*
X337500Y125144D01*
X337142Y125072D01*
X336462Y125615D01*
X335432Y127322D01*
X335924Y128511D01*
X337190Y129418D01*
X337500Y129356D01*
X339086Y129672D01*
X340430Y130570D01*
X341328Y131914D01*
X341644Y133500D01*
X341328Y135086D01*
X340430Y136430D01*
X339086Y137328D01*
X337500Y137644D01*
X335914Y137328D01*
X335599Y137118D01*
X334793Y137522D01*
X334422Y138620D01*
X334290Y140528D01*
X335156Y141657D01*
X335291Y141983D01*
X335914Y142172D01*
X337500Y141856D01*
X339086Y142172D01*
X340430Y143070D01*
X341328Y144414D01*
X341644Y146000D01*
X341328Y147586D01*
X340430Y148930D01*
X339086Y149828D01*
X337500Y150144D01*
X335914Y149828D01*
X335178Y149336D01*
X335156Y149343D01*
X333935Y150935D01*
X332343Y152156D01*
X331909Y152336D01*
X331451Y154952D01*
X331542Y155237D01*
X332328Y156414D01*
X332644Y158000D01*
X332328Y159586D01*
X331430Y160930D01*
X330086Y161828D01*
X328500Y162144D01*
X326914Y161828D01*
X325570Y160930D01*
X325270Y160481D01*
X280524D01*
Y163674D01*
X269476D01*
Y163674D01*
X267824D01*
Y163674D01*
X258416D01*
X257694Y165430D01*
X257526Y166214D01*
X258328Y167414D01*
X258644Y169000D01*
X258328Y170586D01*
X257430Y171930D01*
X257822Y174526D01*
X258872Y175576D01*
X279831D01*
X282239Y175221D01*
X282420Y174783D01*
X282444Y174758D01*
X282446Y174723D01*
X282644Y174293D01*
X282670Y174270D01*
X282673Y174235D01*
X282888Y173813D01*
X282914Y173790D01*
X282918Y173755D01*
X283150Y173342D01*
X283177Y173321D01*
X283183Y173286D01*
X283430Y172882D01*
X283458Y172862D01*
X283465Y172827D01*
X283728Y172434D01*
X283757Y172414D01*
X283765Y172381D01*
X284044Y171997D01*
X284074Y171979D01*
X284083Y171945D01*
X284376Y171573D01*
X284407Y171556D01*
X284417Y171523D01*
X284725Y171163D01*
X284756Y171147D01*
X284768Y171115D01*
X285090Y170767D01*
X285121Y170752D01*
X285135Y170720D01*
X285470Y170385D01*
X285502Y170371D01*
X285516Y170340D01*
X285864Y170018D01*
X285897Y170006D01*
X285913Y169975D01*
X286273Y169667D01*
X286306Y169657D01*
X286323Y169627D01*
X286695Y169333D01*
X286729Y169324D01*
X286747Y169294D01*
X287130Y169015D01*
X287164Y169007D01*
X287183Y168978D01*
X287577Y168715D01*
X287612Y168708D01*
X287632Y168680D01*
X288036Y168433D01*
X288070Y168427D01*
X288092Y168400D01*
X288505Y168168D01*
X288540Y168164D01*
X288563Y168138D01*
X288985Y167923D01*
X289019Y167920D01*
X289043Y167894D01*
X289473Y167696D01*
X289508Y167695D01*
X289533Y167670D01*
X289970Y167489D01*
X290005D01*
X290031Y167465D01*
X290475Y167301D01*
X290510Y167302D01*
X290536Y167280D01*
X290987Y167134D01*
X291022Y167136D01*
X291049Y167115D01*
X291505Y166986D01*
X291540Y166990D01*
X291568Y166970D01*
X292029Y166859D01*
X292063Y166864D01*
X292092Y166845D01*
X292557Y166753D01*
X292591Y166759D01*
X292620Y166741D01*
X293088Y166667D01*
X293122Y166675D01*
X293153Y166658D01*
X293623Y166603D01*
X293657Y166612D01*
X293688Y166596D01*
X294160Y166559D01*
X294193Y166570D01*
X294225Y166555D01*
X294698Y166537D01*
X294731Y166549D01*
X294763Y166535D01*
X295237D01*
X295269Y166549D01*
X295302Y166537D01*
X295775Y166555D01*
X295807Y166570D01*
X295840Y166559D01*
X296312Y166596D01*
X296343Y166612D01*
X296376Y166603D01*
X296847Y166658D01*
X296877Y166675D01*
X296911Y166667D01*
X297379Y166741D01*
X297409Y166759D01*
X297443Y166753D01*
X297908Y166845D01*
X297937Y166864D01*
X297971Y166859D01*
X298432Y166970D01*
X298460Y166990D01*
X298495Y166986D01*
X298951Y167115D01*
X298978Y167136D01*
X299013Y167134D01*
X299463Y167280D01*
X299490Y167302D01*
X299524Y167301D01*
X299969Y167465D01*
X299995Y167489D01*
X300029D01*
X300467Y167670D01*
X300492Y167695D01*
X300527Y167696D01*
X300957Y167894D01*
X300980Y167920D01*
X301015Y167923D01*
X301437Y168138D01*
X301460Y168164D01*
X301494Y168168D01*
X301908Y168400D01*
X301929Y168427D01*
X301964Y168433D01*
X302368Y168680D01*
X302388Y168708D01*
X302422Y168715D01*
X302816Y168978D01*
X302836Y169007D01*
X302869Y169015D01*
X303253Y169294D01*
X303271Y169324D01*
X303305Y169333D01*
X303677Y169627D01*
X303694Y169657D01*
X303727Y169667D01*
X304087Y169975D01*
X304103Y170006D01*
X304135Y170018D01*
X304483Y170340D01*
X304498Y170371D01*
X304530Y170385D01*
X304865Y170720D01*
X304878Y170752D01*
X304910Y170767D01*
X305232Y171115D01*
X305244Y171147D01*
X305275Y171163D01*
X305582Y171523D01*
X305593Y171556D01*
X305623Y171573D01*
X305917Y171945D01*
X305926Y171979D01*
X305956Y171997D01*
X306234Y172381D01*
X306243Y172414D01*
X306271Y172434D01*
X306535Y172827D01*
X306542Y172862D01*
X306570Y172882D01*
X306817Y173286D01*
X306823Y173321D01*
X306850Y173342D01*
X307082Y173755D01*
X307086Y173790D01*
X307112Y173813D01*
X307327Y174235D01*
X307330Y174270D01*
X307355Y174293D01*
X307554Y174723D01*
X307555Y174758D01*
X307580Y174783D01*
X307761Y175221D01*
X310168Y175576D01*
X334524D01*
Y181727D01*
X338005D01*
X338684Y180087D01*
X339946Y178442D01*
X341591Y177180D01*
X343507Y176387D01*
X345562Y176116D01*
X347617Y176387D01*
X349533Y177180D01*
X351178Y178442D01*
X352440Y180087D01*
X353119Y181727D01*
X360611D01*
X361290Y180087D01*
D02*
G37*
%LPC*%
G36*
X198120Y334344D02*
X196534Y334028D01*
X195190Y333130D01*
X194292Y331786D01*
X193976Y330200D01*
X194292Y328614D01*
X195190Y327270D01*
X196534Y326372D01*
X198120Y326056D01*
X199706Y326372D01*
X201050Y327270D01*
X201948Y328614D01*
X202264Y330200D01*
X201948Y331786D01*
X201050Y333130D01*
X199706Y334028D01*
X198120Y334344D01*
D02*
G37*
G36*
X355600Y346804D02*
X352361Y346485D01*
X349246Y345540D01*
X346375Y344006D01*
X343859Y341941D01*
X341794Y339425D01*
X340260Y336554D01*
X339315Y333439D01*
X338996Y330200D01*
X339315Y326961D01*
X340260Y323846D01*
X341794Y320975D01*
X343859Y318459D01*
X346375Y316394D01*
X349246Y314860D01*
X352361Y313915D01*
X355600Y313596D01*
X358839Y313915D01*
X361954Y314860D01*
X364825Y316394D01*
X367341Y318459D01*
X369406Y320975D01*
X370940Y323846D01*
X371885Y326961D01*
X372204Y330200D01*
X371885Y333439D01*
X370940Y336554D01*
X369406Y339425D01*
X367341Y341941D01*
X364825Y344006D01*
X361954Y345540D01*
X358839Y346485D01*
X355600Y346804D01*
D02*
G37*
G36*
X203200Y308944D02*
X201614Y308628D01*
X200270Y307730D01*
X199372Y306386D01*
X199056Y304800D01*
X199372Y303214D01*
X200270Y301870D01*
X201614Y300972D01*
X203200Y300656D01*
X204786Y300972D01*
X206130Y301870D01*
X207028Y303214D01*
X207344Y304800D01*
X207028Y306386D01*
X206130Y307730D01*
X204786Y308628D01*
X203200Y308944D01*
D02*
G37*
G36*
X254000Y273384D02*
X252414Y273068D01*
X251070Y272170D01*
X250172Y270826D01*
X249856Y269240D01*
X250172Y267654D01*
X251070Y266310D01*
X252414Y265412D01*
X254000Y265096D01*
X255586Y265412D01*
X256930Y266310D01*
X257828Y267654D01*
X258144Y269240D01*
X257828Y270826D01*
X256930Y272170D01*
X255586Y273068D01*
X254000Y273384D01*
D02*
G37*
G36*
X-92000Y224644D02*
X-93586Y224328D01*
X-94930Y223430D01*
X-95828Y222086D01*
X-96144Y220500D01*
X-95828Y218914D01*
X-94930Y217570D01*
X-93586Y216672D01*
X-92000Y216356D01*
X-90414Y216672D01*
X-89070Y217570D01*
X-88670Y218169D01*
X210335D01*
X224597Y203907D01*
X224456Y203200D01*
X224772Y201614D01*
X225670Y200270D01*
X227014Y199372D01*
X228600Y199056D01*
X230186Y199372D01*
X231530Y200270D01*
X232428Y201614D01*
X232744Y203200D01*
X232428Y204786D01*
X231530Y206130D01*
X230186Y207028D01*
X228600Y207344D01*
X227893Y207203D01*
X212948Y222148D01*
X212192Y222653D01*
X211300Y222831D01*
X-88670D01*
X-89070Y223430D01*
X-90414Y224328D01*
X-92000Y224644D01*
D02*
G37*
G36*
X72000Y207144D02*
X70414Y206828D01*
X69070Y205930D01*
X68172Y204586D01*
X67856Y203000D01*
X68172Y201414D01*
X69070Y200070D01*
X70414Y199172D01*
X72000Y198856D01*
X73586Y199172D01*
X74930Y200070D01*
X75828Y201414D01*
X76144Y203000D01*
X75828Y204586D01*
X74930Y205930D01*
X73586Y206828D01*
X72000Y207144D01*
D02*
G37*
G36*
X-308500Y175144D02*
X-310086Y174828D01*
X-311430Y173930D01*
X-312328Y172586D01*
X-312644Y171000D01*
X-312328Y169414D01*
X-311430Y168070D01*
X-310086Y167172D01*
X-308500Y166856D01*
X-306914Y167172D01*
X-305570Y168070D01*
X-304672Y169414D01*
X-304356Y171000D01*
X-304672Y172586D01*
X-305570Y173930D01*
X-306914Y174828D01*
X-308500Y175144D01*
D02*
G37*
G36*
X-339500Y174644D02*
X-341086Y174328D01*
X-342430Y173430D01*
X-343328Y172086D01*
X-343644Y170500D01*
X-343328Y168914D01*
X-342430Y167570D01*
X-341086Y166672D01*
X-339500Y166356D01*
X-337914Y166672D01*
X-336570Y167570D01*
X-335672Y168914D01*
X-335356Y170500D01*
X-335672Y172086D01*
X-336570Y173430D01*
X-337914Y174328D01*
X-339500Y174644D01*
D02*
G37*
G36*
X-275500Y174144D02*
X-277086Y173828D01*
X-278430Y172930D01*
X-279328Y171586D01*
X-279644Y170000D01*
X-279328Y168414D01*
X-278430Y167070D01*
X-277086Y166172D01*
X-275500Y165856D01*
X-273914Y166172D01*
X-272570Y167070D01*
X-271672Y168414D01*
X-271356Y170000D01*
X-271672Y171586D01*
X-272570Y172930D01*
X-273914Y173828D01*
X-275500Y174144D01*
D02*
G37*
G36*
X-208500Y174144D02*
X-210086Y173828D01*
X-211430Y172930D01*
X-212328Y171586D01*
X-212644Y170000D01*
X-212328Y168414D01*
X-211430Y167070D01*
X-210086Y166172D01*
X-208500Y165856D01*
X-206914Y166172D01*
X-205570Y167070D01*
X-204672Y168414D01*
X-204356Y170000D01*
X-204672Y171586D01*
X-205570Y172930D01*
X-206914Y173828D01*
X-208500Y174144D01*
D02*
G37*
G36*
X111500Y173644D02*
X109914Y173328D01*
X108570Y172430D01*
X107672Y171086D01*
X107356Y169500D01*
X107672Y167914D01*
X108570Y166570D01*
X109914Y165672D01*
X111500Y165356D01*
X113086Y165672D01*
X114430Y166570D01*
X115328Y167914D01*
X115644Y169500D01*
X115328Y171086D01*
X114430Y172430D01*
X113086Y173328D01*
X111500Y173644D01*
D02*
G37*
G36*
X-239500D02*
X-241086Y173328D01*
X-242430Y172430D01*
X-243328Y171086D01*
X-243644Y169500D01*
X-243328Y167914D01*
X-242430Y166570D01*
X-241086Y165672D01*
X-239500Y165356D01*
X-237914Y165672D01*
X-236570Y166570D01*
X-235672Y167914D01*
X-235356Y169500D01*
X-235672Y171086D01*
X-236570Y172430D01*
X-237914Y173328D01*
X-239500Y173644D01*
D02*
G37*
G36*
X155500Y173144D02*
X153914Y172828D01*
X152570Y171930D01*
X151672Y170586D01*
X151356Y169000D01*
X151672Y167414D01*
X152570Y166070D01*
X153914Y165172D01*
X155500Y164856D01*
X157086Y165172D01*
X158430Y166070D01*
X159328Y167414D01*
X159644Y169000D01*
X159328Y170586D01*
X158430Y171930D01*
X157086Y172828D01*
X155500Y173144D01*
D02*
G37*
G36*
X-103500D02*
X-105086Y172828D01*
X-106430Y171930D01*
X-107328Y170586D01*
X-107644Y169000D01*
X-107328Y167414D01*
X-106430Y166070D01*
X-105086Y165172D01*
X-103500Y164856D01*
X-101914Y165172D01*
X-100570Y166070D01*
X-99672Y167414D01*
X-99356Y169000D01*
X-99672Y170586D01*
X-100570Y171930D01*
X-101914Y172828D01*
X-103500Y173144D01*
D02*
G37*
G36*
X-139500D02*
X-141086Y172828D01*
X-142430Y171930D01*
X-143328Y170586D01*
X-143644Y169000D01*
X-143328Y167414D01*
X-142430Y166070D01*
X-141086Y165172D01*
X-139500Y164856D01*
X-137914Y165172D01*
X-136570Y166070D01*
X-135672Y167414D01*
X-135356Y169000D01*
X-135672Y170586D01*
X-136570Y171930D01*
X-137914Y172828D01*
X-139500Y173144D01*
D02*
G37*
G36*
X-175500D02*
X-177086Y172828D01*
X-178430Y171930D01*
X-179328Y170586D01*
X-179644Y169000D01*
X-179328Y167414D01*
X-178430Y166070D01*
X-177086Y165172D01*
X-175500Y164856D01*
X-173914Y165172D01*
X-172570Y166070D01*
X-171672Y167414D01*
X-171356Y169000D01*
X-171672Y170586D01*
X-172570Y171930D01*
X-173914Y172828D01*
X-175500Y173144D01*
D02*
G37*
G36*
X62500Y172644D02*
X60914Y172328D01*
X59570Y171430D01*
X58672Y170086D01*
X58356Y168500D01*
X58672Y166914D01*
X59570Y165570D01*
X60914Y164672D01*
X62500Y164356D01*
X64086Y164672D01*
X65430Y165570D01*
X66328Y166914D01*
X66644Y168500D01*
X66328Y170086D01*
X65430Y171430D01*
X64086Y172328D01*
X62500Y172644D01*
D02*
G37*
G36*
X-64000D02*
X-65586Y172328D01*
X-66930Y171430D01*
X-67828Y170086D01*
X-68144Y168500D01*
X-67828Y166914D01*
X-66930Y165570D01*
X-65586Y164672D01*
X-64000Y164356D01*
X-62414Y164672D01*
X-61070Y165570D01*
X-60172Y166914D01*
X-59856Y168500D01*
X-60172Y170086D01*
X-61070Y171430D01*
X-62414Y172328D01*
X-64000Y172644D01*
D02*
G37*
G36*
X20000Y172144D02*
X18414Y171828D01*
X17070Y170930D01*
X16172Y169586D01*
X15856Y168000D01*
X16172Y166414D01*
X17070Y165070D01*
X18414Y164172D01*
X20000Y163856D01*
X21586Y164172D01*
X22930Y165070D01*
X23828Y166414D01*
X24144Y168000D01*
X23828Y169586D01*
X22930Y170930D01*
X21586Y171828D01*
X20000Y172144D01*
D02*
G37*
G36*
X-25000D02*
X-26586Y171828D01*
X-27930Y170930D01*
X-28828Y169586D01*
X-29144Y168000D01*
X-28828Y166414D01*
X-27930Y165070D01*
X-26586Y164172D01*
X-25000Y163856D01*
X-23414Y164172D01*
X-22070Y165070D01*
X-21172Y166414D01*
X-20856Y168000D01*
X-21172Y169586D01*
X-22070Y170930D01*
X-23414Y171828D01*
X-25000Y172144D01*
D02*
G37*
G36*
X-238500Y68144D02*
X-240086Y67828D01*
X-241430Y66930D01*
X-242328Y65586D01*
X-242644Y64000D01*
X-242328Y62414D01*
X-241430Y61070D01*
X-240086Y60172D01*
X-238500Y59856D01*
X-236914Y60172D01*
X-235570Y61070D01*
X-234672Y62414D01*
X-234356Y64000D01*
X-234672Y65586D01*
X-235570Y66930D01*
X-236914Y67828D01*
X-238500Y68144D01*
D02*
G37*
G36*
X178500Y67644D02*
X176914Y67328D01*
X175570Y66430D01*
X174672Y65086D01*
X174356Y63500D01*
X174672Y61914D01*
X175570Y60570D01*
X176914Y59672D01*
X178500Y59356D01*
X180086Y59672D01*
X181430Y60570D01*
X182328Y61914D01*
X182644Y63500D01*
X182328Y65086D01*
X181430Y66430D01*
X180086Y67328D01*
X178500Y67644D01*
D02*
G37*
G36*
X-269500D02*
X-271086Y67328D01*
X-272430Y66430D01*
X-273328Y65086D01*
X-273644Y63500D01*
X-273328Y61914D01*
X-272430Y60570D01*
X-271086Y59672D01*
X-269500Y59356D01*
X-267914Y59672D01*
X-266570Y60570D01*
X-265672Y61914D01*
X-265356Y63500D01*
X-265672Y65086D01*
X-266570Y66430D01*
X-267914Y67328D01*
X-269500Y67644D01*
D02*
G37*
G36*
X129500Y67144D02*
X127914Y66828D01*
X126570Y65930D01*
X125672Y64586D01*
X125356Y63000D01*
X125672Y61414D01*
X126570Y60070D01*
X127914Y59172D01*
X129500Y58856D01*
X131086Y59172D01*
X132430Y60070D01*
X133328Y61414D01*
X133644Y63000D01*
X133328Y64586D01*
X132430Y65930D01*
X131086Y66828D01*
X129500Y67144D01*
D02*
G37*
G36*
X-133500D02*
X-135086Y66828D01*
X-136430Y65930D01*
X-137328Y64586D01*
X-137644Y63000D01*
X-137328Y61414D01*
X-136430Y60070D01*
X-135086Y59172D01*
X-133500Y58856D01*
X-131914Y59172D01*
X-130570Y60070D01*
X-129672Y61414D01*
X-129356Y63000D01*
X-129672Y64586D01*
X-130570Y65930D01*
X-131914Y66828D01*
X-133500Y67144D01*
D02*
G37*
G36*
X-169500D02*
X-171086Y66828D01*
X-172430Y65930D01*
X-173328Y64586D01*
X-173644Y63000D01*
X-173328Y61414D01*
X-172430Y60070D01*
X-171086Y59172D01*
X-169500Y58856D01*
X-167914Y59172D01*
X-166570Y60070D01*
X-165672Y61414D01*
X-165356Y63000D01*
X-165672Y64586D01*
X-166570Y65930D01*
X-167914Y66828D01*
X-169500Y67144D01*
D02*
G37*
G36*
X-205500D02*
X-207086Y66828D01*
X-208430Y65930D01*
X-209328Y64586D01*
X-209644Y63000D01*
X-209328Y61414D01*
X-208430Y60070D01*
X-207086Y59172D01*
X-205500Y58856D01*
X-203914Y59172D01*
X-202570Y60070D01*
X-201672Y61414D01*
X-201356Y63000D01*
X-201672Y64586D01*
X-202570Y65930D01*
X-203914Y66828D01*
X-205500Y67144D01*
D02*
G37*
G36*
X87000Y66644D02*
X85414Y66328D01*
X84070Y65430D01*
X83172Y64086D01*
X82856Y62500D01*
X83172Y60914D01*
X84070Y59570D01*
X85414Y58672D01*
X87000Y58356D01*
X88586Y58672D01*
X89930Y59570D01*
X90828Y60914D01*
X91144Y62500D01*
X90828Y64086D01*
X89930Y65430D01*
X88586Y66328D01*
X87000Y66644D01*
D02*
G37*
G36*
X32500D02*
X30914Y66328D01*
X29570Y65430D01*
X28672Y64086D01*
X28356Y62500D01*
X28672Y60914D01*
X29570Y59570D01*
X30914Y58672D01*
X32500Y58356D01*
X34086Y58672D01*
X35430Y59570D01*
X36328Y60914D01*
X36644Y62500D01*
X36328Y64086D01*
X35430Y65430D01*
X34086Y66328D01*
X32500Y66644D01*
D02*
G37*
G36*
X-91000D02*
X-92586Y66328D01*
X-93930Y65430D01*
X-94828Y64086D01*
X-95144Y62500D01*
X-94828Y60914D01*
X-93930Y59570D01*
X-92586Y58672D01*
X-91000Y58356D01*
X-89414Y58672D01*
X-88070Y59570D01*
X-87172Y60914D01*
X-86856Y62500D01*
X-87172Y64086D01*
X-88070Y65430D01*
X-89414Y66328D01*
X-91000Y66644D01*
D02*
G37*
G36*
X-10000Y66144D02*
X-11586Y65828D01*
X-12930Y64930D01*
X-13828Y63586D01*
X-14144Y62000D01*
X-13828Y60414D01*
X-12930Y59070D01*
X-11586Y58172D01*
X-10000Y57856D01*
X-8414Y58172D01*
X-7070Y59070D01*
X-6172Y60414D01*
X-5856Y62000D01*
X-6172Y63586D01*
X-7070Y64930D01*
X-8414Y65828D01*
X-10000Y66144D01*
D02*
G37*
G36*
X-55000D02*
X-56586Y65828D01*
X-57930Y64930D01*
X-58828Y63586D01*
X-59144Y62000D01*
X-58828Y60414D01*
X-57930Y59070D01*
X-56586Y58172D01*
X-55000Y57856D01*
X-53414Y58172D01*
X-52070Y59070D01*
X-51172Y60414D01*
X-50856Y62000D01*
X-51172Y63586D01*
X-52070Y64930D01*
X-53414Y65828D01*
X-55000Y66144D01*
D02*
G37*
G36*
X153670Y45567D02*
Y41910D01*
X157327D01*
X157185Y42622D01*
X156062Y44303D01*
X154382Y45425D01*
X153670Y45567D01*
D02*
G37*
G36*
X151130D02*
X150418Y45425D01*
X148737Y44303D01*
X147615Y42622D01*
X147473Y41910D01*
X151130D01*
Y45567D01*
D02*
G37*
G36*
X157327Y39370D02*
X153670D01*
Y35713D01*
X154382Y35855D01*
X156062Y36978D01*
X157185Y38658D01*
X157327Y39370D01*
D02*
G37*
G36*
X151130D02*
X147473D01*
X147615Y38658D01*
X148737Y36978D01*
X150418Y35855D01*
X151130Y35713D01*
Y39370D01*
D02*
G37*
G36*
X-293300Y-2388D02*
X-295969Y-2739D01*
X-298456Y-3769D01*
X-300592Y-5408D01*
X-302231Y-7544D01*
X-303261Y-10031D01*
X-303612Y-12700D01*
X-303261Y-15369D01*
X-302231Y-17856D01*
X-300592Y-19992D01*
X-298456Y-21631D01*
X-295969Y-22661D01*
X-293300Y-23012D01*
X-290631Y-22661D01*
X-288144Y-21631D01*
X-286008Y-19992D01*
X-284369Y-17856D01*
X-283339Y-15369D01*
X-282988Y-12700D01*
X-283339Y-10031D01*
X-284369Y-7544D01*
X-286008Y-5408D01*
X-288144Y-3769D01*
X-290631Y-2739D01*
X-293300Y-2388D01*
D02*
G37*
G36*
X265230Y-20573D02*
X264518Y-20715D01*
X262838Y-21837D01*
X261715Y-23518D01*
X261573Y-24230D01*
X265230D01*
Y-20573D01*
D02*
G37*
G36*
X267770D02*
Y-25500D01*
Y-30427D01*
X268482Y-30285D01*
X270163Y-29162D01*
X270950Y-27984D01*
X270977Y-27973D01*
X272937Y-27815D01*
X273772Y-27984D01*
X274070Y-28430D01*
X275414Y-29328D01*
X277000Y-29644D01*
X278586Y-29328D01*
X279930Y-28430D01*
X280828Y-27086D01*
X281144Y-25500D01*
X280828Y-23914D01*
X279930Y-22570D01*
X278586Y-21672D01*
X277000Y-21356D01*
X275414Y-21672D01*
X274070Y-22570D01*
X273772Y-23016D01*
X272937Y-23184D01*
X270977Y-23027D01*
X270950Y-23016D01*
X270163Y-21837D01*
X268482Y-20715D01*
X267770Y-20573D01*
D02*
G37*
G36*
X265230Y-26770D02*
X261573D01*
X261715Y-27482D01*
X262838Y-29162D01*
X264518Y-30285D01*
X265230Y-30427D01*
Y-26770D01*
D02*
G37*
G36*
X77470Y-35713D02*
Y-39370D01*
X81127D01*
X80985Y-38658D01*
X79862Y-36978D01*
X78182Y-35855D01*
X77470Y-35713D01*
D02*
G37*
G36*
X74930D02*
X74218Y-35855D01*
X72537Y-36978D01*
X71415Y-38658D01*
X71273Y-39370D01*
X74930D01*
Y-35713D01*
D02*
G37*
G36*
X229870Y-40793D02*
Y-44450D01*
X233527D01*
X233385Y-43738D01*
X232262Y-42057D01*
X230582Y-40935D01*
X229870Y-40793D01*
D02*
G37*
G36*
X227330D02*
X226618Y-40935D01*
X224937Y-42057D01*
X223815Y-43738D01*
X223673Y-44450D01*
X227330D01*
Y-40793D01*
D02*
G37*
G36*
X81127Y-41910D02*
X77470D01*
Y-45567D01*
X78182Y-45425D01*
X79862Y-44303D01*
X80985Y-42622D01*
X81127Y-41910D01*
D02*
G37*
G36*
X74930D02*
X71273D01*
X71415Y-42622D01*
X72537Y-44303D01*
X74218Y-45425D01*
X74930Y-45567D01*
Y-41910D01*
D02*
G37*
G36*
X-74930Y-45873D02*
Y-49530D01*
X-71273D01*
X-71415Y-48818D01*
X-72537Y-47137D01*
X-74218Y-46015D01*
X-74930Y-45873D01*
D02*
G37*
G36*
X-77470D02*
X-78182Y-46015D01*
X-79862Y-47137D01*
X-80985Y-48818D01*
X-81127Y-49530D01*
X-77470D01*
Y-45873D01*
D02*
G37*
G36*
X233527Y-46990D02*
X229870D01*
Y-50647D01*
X230582Y-50505D01*
X232262Y-49383D01*
X233385Y-47702D01*
X233527Y-46990D01*
D02*
G37*
G36*
X227330D02*
X223673D01*
X223815Y-47702D01*
X224937Y-49383D01*
X226618Y-50505D01*
X227330Y-50647D01*
Y-46990D01*
D02*
G37*
G36*
X-71273Y-52070D02*
X-74930D01*
Y-55727D01*
X-74218Y-55585D01*
X-72537Y-54462D01*
X-71415Y-52782D01*
X-71273Y-52070D01*
D02*
G37*
G36*
X-77470D02*
X-81127D01*
X-80985Y-52782D01*
X-79862Y-54462D01*
X-78182Y-55585D01*
X-77470Y-55727D01*
Y-52070D01*
D02*
G37*
G36*
X130000Y-57058D02*
X127944Y-57329D01*
X126029Y-58122D01*
X124384Y-59384D01*
X123122Y-61029D01*
X122329Y-62944D01*
X122058Y-65000D01*
X122329Y-67056D01*
X123122Y-68971D01*
X124384Y-70616D01*
X126029Y-71878D01*
X127944Y-72671D01*
X130000Y-72942D01*
X132056Y-72671D01*
X133971Y-71878D01*
X135616Y-70616D01*
X136878Y-68971D01*
X137671Y-67056D01*
X137942Y-65000D01*
X137671Y-62944D01*
X136878Y-61029D01*
X135616Y-59384D01*
X133971Y-58122D01*
X132056Y-57329D01*
X130000Y-57058D01*
D02*
G37*
G36*
X-25500D02*
X-27555Y-57329D01*
X-29471Y-58122D01*
X-31116Y-59384D01*
X-32378Y-61029D01*
X-33171Y-62944D01*
X-33442Y-65000D01*
X-33171Y-67056D01*
X-32378Y-68971D01*
X-31116Y-70616D01*
X-29471Y-71878D01*
X-27555Y-72671D01*
X-25500Y-72942D01*
X-23444Y-72671D01*
X-21529Y-71878D01*
X-19884Y-70616D01*
X-18622Y-68971D01*
X-17829Y-67056D01*
X-17558Y-65000D01*
X-17829Y-62944D01*
X-18622Y-61029D01*
X-19884Y-59384D01*
X-21529Y-58122D01*
X-23444Y-57329D01*
X-25500Y-57058D01*
D02*
G37*
G36*
X-178000D02*
X-180056Y-57329D01*
X-181971Y-58122D01*
X-183616Y-59384D01*
X-184878Y-61029D01*
X-185671Y-62944D01*
X-185942Y-65000D01*
X-185671Y-67056D01*
X-184878Y-68971D01*
X-183616Y-70616D01*
X-181971Y-71878D01*
X-180056Y-72671D01*
X-178000Y-72942D01*
X-175944Y-72671D01*
X-174029Y-71878D01*
X-172384Y-70616D01*
X-171122Y-68971D01*
X-170329Y-67056D01*
X-170058Y-65000D01*
X-170329Y-62944D01*
X-171122Y-61029D01*
X-172384Y-59384D01*
X-174029Y-58122D01*
X-175944Y-57329D01*
X-178000Y-57058D01*
D02*
G37*
G36*
X293940Y-71196D02*
X292354Y-71512D01*
X291010Y-72410D01*
X290112Y-73754D01*
X289796Y-75340D01*
X290112Y-76926D01*
X291010Y-78270D01*
X292354Y-79168D01*
X293940Y-79484D01*
X295526Y-79168D01*
X296870Y-78270D01*
X297768Y-76926D01*
X298084Y-75340D01*
X297768Y-73754D01*
X296870Y-72410D01*
X295526Y-71512D01*
X293940Y-71196D01*
D02*
G37*
G36*
X355770Y-86073D02*
Y-89730D01*
X359427D01*
X359285Y-89018D01*
X358162Y-87338D01*
X356482Y-86215D01*
X355770Y-86073D01*
D02*
G37*
G36*
X353230D02*
X352518Y-86215D01*
X350838Y-87338D01*
X349715Y-89018D01*
X349573Y-89730D01*
X353230D01*
Y-86073D01*
D02*
G37*
G36*
X359427Y-92270D02*
X355770D01*
Y-95927D01*
X356482Y-95785D01*
X358162Y-94663D01*
X359285Y-92982D01*
X359427Y-92270D01*
D02*
G37*
G36*
X353230D02*
X349573D01*
X349715Y-92982D01*
X350838Y-94663D01*
X352518Y-95785D01*
X353230Y-95927D01*
Y-92270D01*
D02*
G37*
G36*
X-293300Y-78588D02*
X-295969Y-78939D01*
X-298456Y-79969D01*
X-300592Y-81608D01*
X-302231Y-83744D01*
X-303261Y-86231D01*
X-303612Y-88900D01*
X-303261Y-91569D01*
X-302231Y-94056D01*
X-300592Y-96192D01*
X-298456Y-97831D01*
X-295969Y-98861D01*
X-293300Y-99212D01*
X-290631Y-98861D01*
X-288144Y-97831D01*
X-286008Y-96192D01*
X-284369Y-94056D01*
X-283339Y-91569D01*
X-282988Y-88900D01*
X-283339Y-86231D01*
X-284369Y-83744D01*
X-286008Y-81608D01*
X-288144Y-79969D01*
X-290631Y-78939D01*
X-293300Y-78588D01*
D02*
G37*
G36*
X339826Y-73856D02*
X338240Y-74172D01*
X336896Y-75070D01*
X335998Y-76414D01*
X335682Y-78000D01*
X335998Y-79586D01*
X336896Y-80930D01*
X337495Y-81330D01*
Y-87957D01*
X335000Y-89856D01*
X333414Y-90172D01*
X332070Y-91070D01*
X331172Y-92414D01*
X330856Y-94000D01*
X331172Y-95586D01*
X332070Y-96930D01*
X333414Y-97828D01*
X335000Y-98144D01*
X337495Y-100043D01*
Y-110302D01*
X334955Y-110553D01*
X334828Y-109914D01*
X333930Y-108570D01*
X332586Y-107672D01*
X331000Y-107356D01*
X329414Y-107672D01*
X328070Y-108570D01*
X327172Y-109914D01*
X326856Y-111500D01*
X327172Y-113086D01*
X328070Y-114430D01*
X329414Y-115328D01*
X331000Y-115644D01*
X332586Y-115328D01*
X333930Y-114430D01*
X334828Y-113086D01*
X334955Y-112447D01*
X337495Y-112697D01*
Y-140709D01*
X322707Y-155497D01*
X322000Y-155356D01*
X320414Y-155672D01*
X319070Y-156570D01*
X318172Y-157914D01*
X317856Y-159500D01*
X318172Y-161086D01*
X319070Y-162430D01*
X320414Y-163328D01*
X322000Y-163644D01*
X323586Y-163328D01*
X324930Y-162430D01*
X325828Y-161086D01*
X326144Y-159500D01*
X326003Y-158793D01*
X341474Y-143322D01*
X341979Y-142566D01*
X342157Y-141674D01*
Y-81330D01*
X342756Y-80930D01*
X343654Y-79586D01*
X343970Y-78000D01*
X343654Y-76414D01*
X342756Y-75070D01*
X341412Y-74172D01*
X339826Y-73856D01*
D02*
G37*
G36*
X-293300Y-103988D02*
X-295969Y-104339D01*
X-298456Y-105369D01*
X-300592Y-107008D01*
X-302231Y-109144D01*
X-303261Y-111631D01*
X-303612Y-114300D01*
X-303261Y-116969D01*
X-302231Y-119456D01*
X-300592Y-121592D01*
X-298456Y-123231D01*
X-295969Y-124261D01*
X-293300Y-124612D01*
X-290631Y-124261D01*
X-288144Y-123231D01*
X-286008Y-121592D01*
X-284369Y-119456D01*
X-283339Y-116969D01*
X-282988Y-114300D01*
X-283339Y-111631D01*
X-284369Y-109144D01*
X-286008Y-107008D01*
X-288144Y-105369D01*
X-290631Y-104339D01*
X-293300Y-103988D01*
D02*
G37*
G36*
X-318700D02*
X-321369Y-104339D01*
X-323856Y-105369D01*
X-325992Y-107008D01*
X-327631Y-109144D01*
X-328661Y-111631D01*
X-329012Y-114300D01*
X-328661Y-116969D01*
X-327631Y-119456D01*
X-325992Y-121592D01*
X-323856Y-123231D01*
X-321369Y-124261D01*
X-318700Y-124612D01*
X-316031Y-124261D01*
X-313544Y-123231D01*
X-311408Y-121592D01*
X-309769Y-119456D01*
X-308739Y-116969D01*
X-308388Y-114300D01*
X-308739Y-111631D01*
X-309769Y-109144D01*
X-311408Y-107008D01*
X-313544Y-105369D01*
X-316031Y-104339D01*
X-318700Y-103988D01*
D02*
G37*
G36*
X325144Y-180856D02*
X323558Y-181172D01*
X322214Y-182070D01*
X321315Y-183414D01*
X321000Y-185000D01*
X321315Y-186586D01*
X322214Y-187930D01*
X323558Y-188828D01*
X325144Y-189144D01*
X326729Y-188828D01*
X328074Y-187930D01*
X328972Y-186586D01*
X329287Y-185000D01*
X328972Y-183414D01*
X328074Y-182070D01*
X326729Y-181172D01*
X325144Y-180856D01*
D02*
G37*
G36*
X-309000Y-226432D02*
X-311131Y-226856D01*
X-312937Y-228063D01*
X-314144Y-229869D01*
X-314568Y-232000D01*
X-314144Y-234131D01*
X-312937Y-235937D01*
X-311131Y-237144D01*
X-309000Y-237568D01*
X-306869Y-237144D01*
X-305063Y-235937D01*
X-303856Y-234131D01*
X-303432Y-232000D01*
X-303856Y-229869D01*
X-305063Y-228063D01*
X-306869Y-226856D01*
X-309000Y-226432D01*
D02*
G37*
G36*
X-32500Y-271058D02*
X-34555Y-271329D01*
X-36471Y-272122D01*
X-38116Y-273384D01*
X-39378Y-275029D01*
X-40171Y-276945D01*
X-40442Y-279000D01*
X-40171Y-281056D01*
X-39378Y-282971D01*
X-38116Y-284616D01*
X-36471Y-285878D01*
X-34555Y-286671D01*
X-32500Y-286942D01*
X-30445Y-286671D01*
X-28529Y-285878D01*
X-26884Y-284616D01*
X-25622Y-282971D01*
X-24829Y-281056D01*
X-24558Y-279000D01*
X-24829Y-276945D01*
X-25622Y-275029D01*
X-26884Y-273384D01*
X-28529Y-272122D01*
X-30445Y-271329D01*
X-32500Y-271058D01*
D02*
G37*
G36*
X330270Y49427D02*
Y45770D01*
X333927D01*
X333785Y46482D01*
X332663Y48162D01*
X330982Y49285D01*
X330270Y49427D01*
D02*
G37*
G36*
X327730D02*
X327018Y49285D01*
X325337Y48162D01*
X324215Y46482D01*
X324073Y45770D01*
X327730D01*
Y49427D01*
D02*
G37*
G36*
X333927Y43230D02*
X330270D01*
Y39573D01*
X330982Y39715D01*
X332663Y40837D01*
X333785Y42518D01*
X333927Y43230D01*
D02*
G37*
G36*
X327730D02*
X324073D01*
X324215Y42518D01*
X325337Y40837D01*
X327018Y39715D01*
X327730Y39573D01*
Y43230D01*
D02*
G37*
%LPD*%
D11*
X236600Y373000D02*
X304800Y304800D01*
X-236600Y373000D02*
X236600D01*
X-304800Y304800D02*
X-236600Y373000D01*
X231020Y-373500D02*
X299720Y-304800D01*
X-304800D02*
X-236100Y-373500D01*
X231020D01*
X-370840Y-238760D02*
X-314960Y-294640D01*
X-370840Y-238760D02*
Y238760D01*
X-309880Y-299720D02*
X-304800Y-304800D01*
X-320040Y-299720D02*
X-309880D01*
X299720Y-304800D02*
X304800D01*
X-314960Y-294640D02*
X-309880D01*
X-370840Y238760D02*
X-304800Y304800D01*
D16*
X273450Y55000D02*
X275000Y56550D01*
Y56500D02*
X313432D01*
X275000Y69500D02*
X284500D01*
X274500Y69000D02*
X275000Y69500D01*
X284500Y69000D02*
X314932D01*
D60*
X-293300Y-114300D02*
D03*
Y-88900D02*
D03*
Y-63500D02*
D03*
Y-38100D02*
D03*
Y-12700D02*
D03*
Y12700D02*
D03*
Y38100D02*
D03*
Y63500D02*
D03*
Y88900D02*
D03*
Y114300D02*
D03*
X-318700Y-114300D02*
D03*
Y-88900D02*
D03*
Y-63500D02*
D03*
Y-38100D02*
D03*
Y-12700D02*
D03*
Y12700D02*
D03*
Y38100D02*
D03*
Y63500D02*
D03*
Y88900D02*
D03*
D61*
Y114300D02*
D03*
D62*
X295000Y180250D02*
D03*
Y21750D02*
D03*
D64*
X262293Y182393D02*
X269793D01*
X257762Y177762D02*
Y177862D01*
X254500Y169000D02*
Y174500D01*
X257762Y177862D02*
X262293Y182393D01*
X254500Y174500D02*
X257762Y177762D01*
X269793Y182393D02*
X270500Y183100D01*
X262300Y24138D02*
X267538Y18900D01*
X262300Y24138D02*
Y43850D01*
X267538Y18900D02*
X270500D01*
X320458Y184058D02*
X368168D01*
X319500Y183100D02*
X320458Y184058D01*
X319500Y18900D02*
X320458Y17942D01*
X368168D01*
X320000Y6534D02*
Y18400D01*
X319500Y18900D02*
X320000Y18400D01*
X315869Y3631D02*
X317097D01*
X320000Y6534D01*
X315000Y4500D02*
X315869Y3631D01*
X270500Y10360D02*
X276360Y4500D01*
X315000D01*
X270500Y10360D02*
Y18900D01*
X319500Y183100D02*
Y193000D01*
X314500Y198000D02*
X319500Y193000D01*
X276000Y198000D02*
X314500D01*
X270500Y183100D02*
Y192500D01*
X276000Y198000D01*
X249000Y152718D02*
Y153000D01*
X252451Y148549D02*
X255550Y145450D01*
X249000Y152718D02*
X252451Y149267D01*
Y148549D02*
Y149267D01*
X249000Y138000D02*
X254250Y132750D01*
X262300D01*
X240150Y158150D02*
X262300D01*
X240000Y158000D02*
X240150Y158150D01*
X255550Y145450D02*
X262300D01*
X275000Y158150D02*
X328350D01*
X211300Y220500D02*
X228600Y203200D01*
X-92000Y220500D02*
X211300D01*
X328350Y158150D02*
X328500Y158000D01*
X224500Y53000D02*
Y63000D01*
Y53000D02*
X233650Y43850D01*
X262300D01*
X208500Y151000D02*
Y169500D01*
X239450Y120050D02*
X262300D01*
X208500Y151000D02*
X239450Y120050D01*
X313432Y56500D02*
X329000D01*
X314932Y69000D02*
X329000D01*
X322000Y-159500D02*
X339826Y-141674D01*
Y-78000D01*
D65*
X-355600Y355600D02*
D03*
X355600Y330200D02*
D03*
X-355600Y-355600D02*
D03*
D66*
X107950Y133350D02*
X108125Y133175D01*
X-253850Y133350D02*
X107950D01*
X-237500Y82000D02*
X-211000D01*
X-238500Y107500D02*
X-211000D01*
X-237500Y94500D02*
X-211500D01*
X-284367Y128867D02*
X-237500Y82000D01*
X-279155Y136155D02*
X-237500Y94500D01*
X-274500Y143500D02*
X-238500Y107500D01*
X-354500Y-27700D02*
Y132500D01*
Y-27700D02*
X-318700Y-63500D01*
X-354500Y132500D02*
X-336000Y151000D01*
X-271650D01*
X-347000Y130500D02*
X-334000Y143500D01*
X-347000Y-9800D02*
Y130500D01*
Y-9800D02*
X-318700Y-38100D01*
X-334000Y143500D02*
X-274500D01*
X-340000Y127500D02*
X-331345Y136155D01*
X-340000Y19500D02*
Y127500D01*
X-331345Y136155D02*
X-279155D01*
X-340000Y19500D02*
X-333200Y12700D01*
X-333500Y42500D02*
X-329940Y38940D01*
X-333500Y124500D02*
X-329133Y128867D01*
X-333500Y42500D02*
Y124500D01*
X-329133Y128867D02*
X-284367D01*
X-271500Y151000D02*
X-253850Y133350D01*
X-329940Y38940D02*
X-319540D01*
X-333200Y12700D02*
X-318700D01*
D68*
X327551Y130500D02*
X328500D01*
X325051Y133000D02*
X327551Y130500D01*
X275000Y133000D02*
X325051D01*
X272750Y135000D02*
X275000Y132750D01*
X275000Y145500D02*
X328500D01*
X272050Y142500D02*
X275000Y145450D01*
X275000Y81950D02*
X275050Y82000D01*
X328500D01*
X275000Y94650D02*
X275150Y94500D01*
X328500D01*
X275000Y120050D02*
X275050Y120000D01*
X328500D01*
X275000Y107350D02*
X275150Y107500D01*
X328500D01*
X-234000Y146000D02*
X-233750Y145750D01*
X328250D02*
X328500Y145500D01*
X-319540Y38940D02*
X-318700Y38100D01*
D69*
X-309000Y-232000D02*
D03*
D70*
X345562Y17942D02*
D03*
X368168D02*
D03*
X345562Y184058D02*
D03*
X368168D02*
D03*
X130000Y-65000D02*
D03*
X-25500D02*
D03*
X-178000D02*
D03*
X-32500Y-279000D02*
D03*
D71*
X304800Y-304800D02*
D03*
Y304800D02*
D03*
X-304800D02*
D03*
Y-304800D02*
D03*
D72*
X289000Y114000D02*
D03*
X354500Y-91000D02*
D03*
X-219500Y101000D02*
D03*
Y88500D02*
D03*
X249000Y153000D02*
D03*
Y138000D02*
D03*
X240000Y158000D02*
D03*
X328500Y130500D02*
D03*
Y158000D02*
D03*
X284500Y69500D02*
D03*
X285500Y44000D02*
D03*
X254500Y169000D02*
D03*
X-211000Y82000D02*
D03*
Y94500D02*
D03*
Y107500D02*
D03*
X331000Y-111500D02*
D03*
X-92000Y220500D02*
D03*
X-226000Y120000D02*
D03*
X329000Y44500D02*
D03*
Y56500D02*
D03*
Y69000D02*
D03*
X328500Y82000D02*
D03*
Y94500D02*
D03*
Y107500D02*
D03*
Y120000D02*
D03*
Y145500D02*
D03*
X322000Y-159500D02*
D03*
X72000Y203000D02*
D03*
X-364500Y-27500D02*
D03*
Y8000D02*
D03*
Y40000D02*
D03*
X-354000Y-44500D02*
D03*
X-336500Y-63500D02*
D03*
X-364500Y74000D02*
D03*
Y106500D02*
D03*
X-364000Y142000D02*
D03*
X-339500Y170500D02*
D03*
X-308500Y171000D02*
D03*
X-275500Y170000D02*
D03*
X87000Y62500D02*
D03*
X-269500Y63500D02*
D03*
X-238500Y64000D02*
D03*
X-205500Y63000D02*
D03*
X-169500D02*
D03*
X-133500D02*
D03*
X-91000Y62500D02*
D03*
X-55000Y62000D02*
D03*
X-10000D02*
D03*
X32500Y62500D02*
D03*
X129500Y63000D02*
D03*
X178500Y63500D02*
D03*
X224500Y63000D02*
D03*
X-234000Y146000D02*
D03*
X277000Y-25500D02*
D03*
X337500Y57000D02*
D03*
Y70000D02*
D03*
Y83000D02*
D03*
Y95000D02*
D03*
Y108000D02*
D03*
Y121000D02*
D03*
X337500Y133500D02*
D03*
X337500Y146000D02*
D03*
X208500Y169500D02*
D03*
X155500Y169000D02*
D03*
X111500Y169500D02*
D03*
X62500Y168500D02*
D03*
X20000Y168000D02*
D03*
X-25000D02*
D03*
X-64000Y168500D02*
D03*
X-103500Y169000D02*
D03*
X-139500D02*
D03*
X-175500D02*
D03*
X-208500Y170000D02*
D03*
X-239500Y169500D02*
D03*
X339826Y-78000D02*
D03*
X335000Y-94000D02*
D03*
X325144Y-185000D02*
D03*
X293940Y-75340D02*
D03*
X266500Y-25500D02*
D03*
X254000Y269240D02*
D03*
X198120Y330200D02*
D03*
X203200Y304800D02*
D03*
X-76200Y-50800D02*
D03*
X76200Y-40640D02*
D03*
X228600Y-45720D02*
D03*
X152400Y40640D02*
D03*
X228600Y203200D02*
D03*
X107950Y133350D02*
D03*
D73*
X275000Y158150D02*
D03*
X262300D02*
D03*
X275000Y145450D02*
D03*
X262300Y145450D02*
D03*
X275000Y132750D02*
D03*
X262300D02*
D03*
X275000Y120050D02*
D03*
X262300D02*
D03*
X275000Y107350D02*
D03*
X262300Y107350D02*
D03*
X275000Y94650D02*
D03*
X262300D02*
D03*
X275000Y81950D02*
D03*
X262300D02*
D03*
X275000Y69250D02*
D03*
X262300Y69250D02*
D03*
X275000Y56550D02*
D03*
X262300D02*
D03*
X275000Y43850D02*
D03*
X262300D02*
D03*
D74*
X319500Y183100D02*
D03*
X270500D02*
D03*
X319500Y18900D02*
D03*
X270500D02*
D03*
M02*
