G04*
G04 #@! TF.GenerationSoftware,Altium Limited,Altium Designer,24.1.2 (44)*
G04*
G04 Layer_Physical_Order=1*
G04 Layer_Color=255*
%FSLAX44Y44*%
%MOMM*%
G71*
G04*
G04 #@! TF.SameCoordinates,4D670051-7F49-4B36-91F3-1F1B1C4DC3BF*
G04*
G04*
G04 #@! TF.FilePolarity,Positive*
G04*
G01*
G75*
%ADD11C,0.2540*%
%ADD19R,1.1430X0.7366*%
%ADD20R,1.1500X1.1500*%
%ADD21R,0.6500X0.9000*%
%ADD22R,1.0000X1.5000*%
%ADD23R,3.4300X1.7800*%
%ADD24R,1.9000X1.2000*%
%ADD25R,1.9000X1.6000*%
%ADD26R,2.0000X2.1000*%
%ADD27R,1.3500X0.4000*%
%ADD28R,0.9500X0.4000*%
G04:AMPARAMS|DCode=29|XSize=0.95mm|YSize=0.4mm|CornerRadius=0.2mm|HoleSize=0mm|Usage=FLASHONLY|Rotation=0.000|XOffset=0mm|YOffset=0mm|HoleType=Round|Shape=RoundedRectangle|*
%AMROUNDEDRECTD29*
21,1,0.9500,0.0000,0,0,0.0*
21,1,0.5500,0.4000,0,0,0.0*
1,1,0.4000,0.2750,0.0000*
1,1,0.4000,-0.2750,0.0000*
1,1,0.4000,-0.2750,0.0000*
1,1,0.4000,0.2750,0.0000*
%
%ADD29ROUNDEDRECTD29*%
G04:AMPARAMS|DCode=30|XSize=0.4mm|YSize=0.95mm|CornerRadius=0.2mm|HoleSize=0mm|Usage=FLASHONLY|Rotation=0.000|XOffset=0mm|YOffset=0mm|HoleType=Round|Shape=RoundedRectangle|*
%AMROUNDEDRECTD30*
21,1,0.4000,0.5500,0,0,0.0*
21,1,0.0000,0.9500,0,0,0.0*
1,1,0.4000,0.0000,-0.2750*
1,1,0.4000,0.0000,-0.2750*
1,1,0.4000,0.0000,0.2750*
1,1,0.4000,0.0000,0.2750*
%
%ADD30ROUNDEDRECTD30*%
%ADD31R,2.3000X2.3000*%
%ADD32R,0.4000X0.5000*%
%ADD33R,0.4725X0.4682*%
%ADD34R,0.5725X0.5682*%
%ADD35R,0.4725X0.5393*%
%ADD36R,2.0000X2.0000*%
%ADD37R,0.7000X0.5000*%
%ADD38R,0.6200X0.6200*%
%ADD39R,0.5393X0.4725*%
%ADD40R,1.1500X1.1500*%
%ADD41R,0.9000X0.6500*%
%ADD42R,0.5000X0.4000*%
%ADD43R,0.4682X0.4725*%
%ADD60C,1.7400*%
%ADD61R,1.7400X1.7400*%
%ADD62C,1.6510*%
%ADD64C,0.1524*%
%ADD65C,1.0000*%
%ADD66C,0.2390*%
%ADD67C,0.5000*%
%ADD68C,0.1575*%
%ADD69C,0.7874*%
%ADD70C,1.2700*%
%ADD71C,6.0000*%
%ADD72C,0.5080*%
G36*
X361684Y375658D02*
X365481Y374085D01*
X368897Y371803D01*
X371803Y368897D01*
X374085Y365481D01*
X375658Y361684D01*
X376459Y357654D01*
Y355500D01*
X376459Y190359D01*
X373919Y189497D01*
X373784Y189674D01*
X372139Y190936D01*
X370224Y191729D01*
X368168Y192000D01*
X366113Y191729D01*
X364197Y190936D01*
X362552Y189674D01*
X361290Y188029D01*
X360497Y186113D01*
X360226Y184058D01*
X360497Y182003D01*
X361290Y180087D01*
X362552Y178442D01*
X364197Y177180D01*
X366113Y176387D01*
X368168Y176116D01*
X370224Y176387D01*
X372139Y177180D01*
X373784Y178442D01*
X373919Y178619D01*
X376459Y177757D01*
X376459Y24243D01*
X373919Y23381D01*
X373784Y23558D01*
X372139Y24820D01*
X370224Y25613D01*
X368168Y25884D01*
X366113Y25613D01*
X364197Y24820D01*
X362552Y23558D01*
X361290Y21913D01*
X360497Y19998D01*
X360226Y17942D01*
X360497Y15886D01*
X361290Y13971D01*
X362552Y12326D01*
X364197Y11064D01*
X366113Y10271D01*
X368168Y10000D01*
X370224Y10271D01*
X372139Y11064D01*
X373784Y12326D01*
X373919Y12503D01*
X376459Y11641D01*
X376459Y-121476D01*
X355351D01*
Y-126830D01*
X354399Y-128976D01*
X352811Y-128976D01*
X331351D01*
Y-152936D01*
X331351Y-153024D01*
Y-155476D01*
X329372Y-156919D01*
X325163D01*
X324930Y-156570D01*
X323586Y-155672D01*
X322000Y-155356D01*
X320414Y-155672D01*
X319070Y-156570D01*
X318172Y-157914D01*
X317856Y-159500D01*
X318081Y-160629D01*
X317194Y-162310D01*
X316509Y-163169D01*
X307465D01*
X297831Y-153535D01*
Y-144965D01*
X302255Y-140541D01*
X302760Y-139785D01*
X302938Y-138893D01*
Y-137886D01*
X304886D01*
X304886Y-129157D01*
X304886Y-126617D01*
Y-120114D01*
X302831D01*
Y-118500D01*
X302653Y-117608D01*
X302148Y-116852D01*
X299581Y-114285D01*
Y-105567D01*
X301782Y-104772D01*
X302121Y-104757D01*
X303152Y-105788D01*
X303908Y-106293D01*
X304800Y-106471D01*
X319476D01*
Y-108024D01*
X325380Y-108024D01*
X326097Y-108780D01*
X327088Y-110327D01*
X327076Y-110398D01*
X326856Y-111500D01*
X327172Y-113086D01*
X328070Y-114430D01*
X329414Y-115328D01*
X331000Y-115644D01*
X332586Y-115328D01*
X333930Y-114430D01*
X334828Y-113086D01*
X335144Y-111500D01*
X334925Y-110398D01*
X334524Y-108024D01*
X334524Y-108024D01*
Y-100631D01*
X334547Y-100511D01*
X335436Y-99977D01*
X337785Y-101199D01*
X337976Y-101481D01*
Y-108524D01*
X338537D01*
X340476Y-109976D01*
Y-118024D01*
X359524D01*
Y-116331D01*
X365169D01*
X366061Y-116153D01*
X366817Y-115648D01*
X369648Y-112817D01*
X370153Y-112061D01*
X370331Y-111169D01*
Y-80278D01*
X370153Y-79386D01*
X369648Y-78630D01*
X363512Y-72494D01*
X361717Y-70699D01*
X361738Y-70677D01*
X361738Y-70677D01*
X361738Y-70677D01*
X361502Y-70463D01*
X361270Y-70252D01*
X360769Y-69917D01*
X360769Y-69917D01*
X360515Y-69747D01*
X360514Y-69746D01*
X360066Y-69658D01*
X360066Y-69657D01*
X359622Y-69569D01*
X320675D01*
X320544Y-69427D01*
X319549Y-67029D01*
X319820Y-66625D01*
X320093Y-65250D01*
X319820Y-63875D01*
X319041Y-62709D01*
X317875Y-61930D01*
X316500Y-61657D01*
X311000D01*
X309625Y-61930D01*
X309562Y-61972D01*
X308823Y-61973D01*
X307027Y-60177D01*
X307028Y-59437D01*
X307069Y-59375D01*
X307343Y-58000D01*
Y-52500D01*
X307069Y-51125D01*
X306291Y-49959D01*
X305125Y-49180D01*
X303750Y-48907D01*
X302375Y-49180D01*
X301209Y-49959D01*
X299791D01*
X298625Y-49180D01*
X297250Y-48907D01*
X295875Y-49180D01*
X295840Y-49204D01*
X295420Y-49328D01*
X293021Y-48263D01*
Y-42688D01*
X293781Y-40462D01*
X297391D01*
Y-35560D01*
Y-30658D01*
X293781D01*
X292949Y-28462D01*
Y-19847D01*
X337648Y24852D01*
X338153Y25608D01*
X338331Y26500D01*
Y49500D01*
X338153Y50392D01*
X338151Y50396D01*
X338799Y52768D01*
X339070Y53149D01*
X339164Y53224D01*
X340430Y54070D01*
X341328Y55414D01*
X341644Y57000D01*
X341328Y58586D01*
X340430Y59930D01*
X339086Y60828D01*
X337500Y61144D01*
X335914Y60828D01*
X334570Y59930D01*
X332007Y59445D01*
X331573Y59668D01*
X330586Y60328D01*
X329000Y60644D01*
X327414Y60328D01*
X326893Y59980D01*
X324392Y61067D01*
X324353Y61105D01*
X324353Y61757D01*
Y64043D01*
X324353Y64395D01*
X324392Y64433D01*
X326893Y65520D01*
X327414Y65172D01*
X329000Y64856D01*
X330586Y65172D01*
X331930Y66070D01*
X332057Y66260D01*
X334246Y66966D01*
X335158Y66677D01*
X335914Y66172D01*
X337500Y65856D01*
X339086Y66172D01*
X340430Y67070D01*
X341328Y68414D01*
X341644Y70000D01*
X341328Y71586D01*
X340430Y72930D01*
X339086Y73828D01*
X337500Y74144D01*
X335914Y73828D01*
X334570Y72930D01*
X333306Y73480D01*
X333472Y76210D01*
X333935Y76565D01*
X335156Y78157D01*
X335528Y79054D01*
X335914Y79172D01*
X337500Y78856D01*
X339086Y79172D01*
X340430Y80070D01*
X341328Y81414D01*
X341644Y83000D01*
X341328Y84586D01*
X340430Y85930D01*
X339086Y86828D01*
X337500Y87144D01*
X336251Y86895D01*
X335584Y87308D01*
X334772Y90156D01*
X335156Y90657D01*
X335291Y90983D01*
X335914Y91172D01*
X337500Y90856D01*
X339086Y91172D01*
X340430Y92070D01*
X341328Y93414D01*
X341644Y95000D01*
X341328Y96586D01*
X340430Y97930D01*
X339086Y98828D01*
X337500Y99144D01*
X336029Y98851D01*
X335422Y99313D01*
X334697Y100027D01*
X334966Y102816D01*
X336574Y104041D01*
X337500Y103856D01*
X339086Y104172D01*
X340430Y105070D01*
X341328Y106414D01*
X341644Y108000D01*
X341328Y109586D01*
X340430Y110930D01*
X339086Y111828D01*
X337500Y112144D01*
X335914Y111828D01*
X334179Y113723D01*
X334171Y113750D01*
X334693Y115554D01*
X335156Y116157D01*
X335528Y117055D01*
X335914Y117172D01*
X337500Y116856D01*
X339086Y117172D01*
X340430Y118070D01*
X341328Y119414D01*
X341644Y121000D01*
X341328Y122586D01*
X340430Y123930D01*
X339086Y124828D01*
X337500Y125144D01*
X337142Y125072D01*
X336462Y125615D01*
X335432Y127322D01*
X335924Y128511D01*
X337190Y129418D01*
X337500Y129356D01*
X339086Y129672D01*
X340430Y130570D01*
X341328Y131914D01*
X341644Y133500D01*
X341328Y135086D01*
X340430Y136430D01*
X339086Y137328D01*
X337500Y137644D01*
X335914Y137328D01*
X335599Y137118D01*
X334793Y137522D01*
X334422Y138620D01*
X334290Y140528D01*
X335156Y141657D01*
X335291Y141983D01*
X335914Y142172D01*
X337500Y141856D01*
X339086Y142172D01*
X340430Y143070D01*
X341328Y144414D01*
X341644Y146000D01*
X341328Y147586D01*
X340430Y148930D01*
X339086Y149828D01*
X337500Y150144D01*
X335914Y149828D01*
X335178Y149336D01*
X335156Y149343D01*
X333935Y150935D01*
X332343Y152156D01*
X331909Y152336D01*
X331451Y154952D01*
X331542Y155237D01*
X332328Y156414D01*
X332644Y158000D01*
X332328Y159586D01*
X331430Y160930D01*
X330086Y161828D01*
X328500Y162144D01*
X326914Y161828D01*
X326893Y161814D01*
X324353Y163172D01*
Y163357D01*
X319331D01*
Y177030D01*
X319153Y177922D01*
X318648Y178678D01*
X292478Y204848D01*
X291722Y205353D01*
X290830Y205531D01*
X266024D01*
Y209224D01*
X263581D01*
Y226430D01*
X263403Y227322D01*
X262898Y228078D01*
X256331Y234645D01*
Y241614D01*
X257886D01*
Y248945D01*
Y257386D01*
X256331D01*
Y265910D01*
X256930Y266310D01*
X257828Y267654D01*
X258144Y269240D01*
X257828Y270826D01*
X256930Y272170D01*
X255586Y273068D01*
X254000Y273384D01*
X252414Y273068D01*
X251070Y272170D01*
X250172Y270826D01*
X249856Y269240D01*
X250172Y267654D01*
X251070Y266310D01*
X251669Y265910D01*
Y257386D01*
X250114D01*
Y248945D01*
Y241614D01*
X251669D01*
Y233680D01*
X251847Y232788D01*
X252352Y232032D01*
X258919Y225465D01*
Y209224D01*
X256476D01*
Y197176D01*
X266024D01*
Y200869D01*
X289865D01*
X294246Y196488D01*
X294241Y195912D01*
X293088Y193833D01*
X292620Y193759D01*
X292591Y193741D01*
X292557Y193747D01*
X292092Y193655D01*
X292063Y193636D01*
X292029Y193641D01*
X291568Y193530D01*
X291540Y193510D01*
X291505Y193514D01*
X291049Y193385D01*
X291022Y193364D01*
X290987Y193367D01*
X290536Y193220D01*
X290510Y193198D01*
X290475Y193199D01*
X290031Y193035D01*
X290005Y193011D01*
X289970D01*
X289533Y192830D01*
X289508Y192805D01*
X289473Y192804D01*
X289043Y192606D01*
X289019Y192580D01*
X288985Y192577D01*
X288563Y192362D01*
X288540Y192336D01*
X288505Y192332D01*
X288092Y192100D01*
X288070Y192073D01*
X288036Y192067D01*
X287632Y191820D01*
X287612Y191792D01*
X287577Y191785D01*
X287183Y191522D01*
X287164Y191493D01*
X287130Y191485D01*
X286747Y191206D01*
X286729Y191176D01*
X286695Y191167D01*
X286323Y190874D01*
X286306Y190843D01*
X286273Y190833D01*
X285913Y190525D01*
X285897Y190494D01*
X285864Y190482D01*
X285516Y190160D01*
X285502Y190128D01*
X285470Y190115D01*
X285135Y189780D01*
X285121Y189748D01*
X285090Y189734D01*
X284768Y189386D01*
X284756Y189353D01*
X284725Y189337D01*
X284417Y188977D01*
X284407Y188944D01*
X284376Y188927D01*
X284083Y188555D01*
X284074Y188521D01*
X284044Y188503D01*
X283765Y188120D01*
X283757Y188086D01*
X283728Y188067D01*
X283465Y187673D01*
X283458Y187638D01*
X283430Y187618D01*
X283183Y187214D01*
X283177Y187180D01*
X283150Y187158D01*
X282918Y186745D01*
X282914Y186710D01*
X282888Y186687D01*
X282673Y186265D01*
X282670Y186231D01*
X282644Y186207D01*
X282446Y185777D01*
X282444Y185742D01*
X282420Y185717D01*
X282239Y185279D01*
Y185245D01*
X282215Y185219D01*
X282051Y184775D01*
X282052Y184740D01*
X282030Y184713D01*
X281883Y184263D01*
X281886Y184228D01*
X281864Y184201D01*
X281736Y183745D01*
X281740Y183710D01*
X281720Y183682D01*
X281609Y183221D01*
X281614Y183187D01*
X281595Y183158D01*
X281503Y182693D01*
X281509Y182659D01*
X281491Y182630D01*
X281417Y182162D01*
X281425Y182128D01*
X281408Y182097D01*
X281353Y181627D01*
X281362Y181593D01*
X281346Y181562D01*
X281309Y181090D01*
X281320Y181057D01*
X281305Y181025D01*
X281287Y180552D01*
X281299Y180519D01*
X281285Y180487D01*
Y180013D01*
X281299Y179981D01*
X281287Y179948D01*
X281305Y179475D01*
X281320Y179443D01*
X281309Y179410D01*
X281346Y178938D01*
X281362Y178907D01*
X281353Y178873D01*
X281408Y178403D01*
X281425Y178372D01*
X281417Y178339D01*
X281491Y177871D01*
X281509Y177841D01*
X281503Y177807D01*
X281595Y177342D01*
X281614Y177313D01*
X281609Y177279D01*
X281720Y176818D01*
X281740Y176790D01*
X281736Y176755D01*
X281864Y176299D01*
X281886Y176272D01*
X281883Y176237D01*
X282030Y175787D01*
X282052Y175760D01*
X282051Y175725D01*
X282215Y175281D01*
X282239Y175255D01*
Y175221D01*
X282420Y174783D01*
X282444Y174758D01*
X282446Y174723D01*
X282644Y174293D01*
X282670Y174270D01*
X282673Y174235D01*
X282888Y173813D01*
X282914Y173790D01*
X282918Y173755D01*
X283150Y173342D01*
X283177Y173321D01*
X283183Y173286D01*
X283430Y172882D01*
X283458Y172862D01*
X283465Y172827D01*
X283728Y172434D01*
X283757Y172414D01*
X283765Y172381D01*
X284044Y171997D01*
X284074Y171979D01*
X284083Y171945D01*
X284376Y171573D01*
X284407Y171556D01*
X284417Y171523D01*
X284725Y171163D01*
X284756Y171147D01*
X284768Y171115D01*
X285090Y170767D01*
X285121Y170752D01*
X285135Y170720D01*
X285470Y170385D01*
X285502Y170371D01*
X285516Y170340D01*
X285864Y170018D01*
X285897Y170006D01*
X285913Y169975D01*
X286273Y169667D01*
X286306Y169657D01*
X286323Y169627D01*
X286695Y169333D01*
X286729Y169324D01*
X286747Y169294D01*
X287130Y169015D01*
X287164Y169007D01*
X287183Y168978D01*
X287577Y168715D01*
X287612Y168708D01*
X287632Y168680D01*
X288036Y168433D01*
X288070Y168427D01*
X288092Y168400D01*
X288505Y168168D01*
X288540Y168164D01*
X288563Y168138D01*
X288985Y167923D01*
X289019Y167920D01*
X289043Y167894D01*
X289473Y167696D01*
X289508Y167695D01*
X289533Y167670D01*
X289970Y167489D01*
X290005D01*
X290031Y167465D01*
X290475Y167301D01*
X290510Y167302D01*
X290536Y167280D01*
X290987Y167134D01*
X291022Y167136D01*
X291049Y167115D01*
X291505Y166986D01*
X291540Y166990D01*
X291568Y166970D01*
X292029Y166859D01*
X292063Y166864D01*
X292092Y166845D01*
X292557Y166753D01*
X292591Y166759D01*
X292620Y166741D01*
X293088Y166667D01*
X293122Y166675D01*
X293153Y166658D01*
X293623Y166603D01*
X293657Y166612D01*
X293688Y166596D01*
X294160Y166559D01*
X294193Y166570D01*
X294225Y166555D01*
X294698Y166537D01*
X294731Y166549D01*
X294763Y166535D01*
X295237D01*
X295269Y166549D01*
X295302Y166537D01*
X295775Y166555D01*
X295807Y166570D01*
X295840Y166559D01*
X296312Y166596D01*
X296343Y166612D01*
X296376Y166603D01*
X296847Y166658D01*
X296877Y166675D01*
X296911Y166667D01*
X297379Y166741D01*
X297409Y166759D01*
X297443Y166753D01*
X297908Y166845D01*
X297937Y166864D01*
X297971Y166859D01*
X298432Y166970D01*
X298460Y166990D01*
X298495Y166986D01*
X298951Y167115D01*
X298978Y167136D01*
X299013Y167134D01*
X299463Y167280D01*
X299490Y167302D01*
X299524Y167301D01*
X299969Y167465D01*
X299995Y167489D01*
X300029D01*
X300467Y167670D01*
X300492Y167695D01*
X300527Y167696D01*
X300957Y167894D01*
X300980Y167920D01*
X301015Y167923D01*
X301437Y168138D01*
X301460Y168164D01*
X301494Y168168D01*
X301908Y168400D01*
X301929Y168427D01*
X301964Y168433D01*
X302368Y168680D01*
X302388Y168708D01*
X302422Y168715D01*
X302816Y168978D01*
X302836Y169007D01*
X302869Y169015D01*
X303253Y169294D01*
X303271Y169324D01*
X303305Y169333D01*
X303677Y169627D01*
X303694Y169657D01*
X303727Y169667D01*
X304087Y169975D01*
X304103Y170006D01*
X304135Y170018D01*
X304483Y170340D01*
X304498Y170371D01*
X304530Y170385D01*
X304865Y170720D01*
X304878Y170752D01*
X304910Y170767D01*
X305232Y171115D01*
X305244Y171147D01*
X305275Y171163D01*
X305582Y171523D01*
X305593Y171556D01*
X305623Y171573D01*
X305917Y171945D01*
X305926Y171979D01*
X305956Y171997D01*
X306234Y172381D01*
X306243Y172414D01*
X306271Y172434D01*
X306535Y172827D01*
X306542Y172862D01*
X306570Y172882D01*
X306817Y173286D01*
X306823Y173321D01*
X306850Y173342D01*
X307082Y173755D01*
X307086Y173790D01*
X307112Y173813D01*
X307327Y174235D01*
X307330Y174270D01*
X307355Y174293D01*
X307554Y174723D01*
X307555Y174758D01*
X307580Y174783D01*
X307761Y175221D01*
Y175255D01*
X307785Y175281D01*
X307949Y175725D01*
X307947Y175760D01*
X307970Y175787D01*
X308116Y176237D01*
X308114Y176272D01*
X308135Y176299D01*
X308264Y176755D01*
X308260Y176790D01*
X308280Y176818D01*
X308391Y177279D01*
X308385Y177313D01*
X308405Y177342D01*
X308497Y177807D01*
X308490Y177841D01*
X308509Y177871D01*
X308583Y178339D01*
X310662Y179492D01*
X311237Y179496D01*
X314669Y176064D01*
Y163357D01*
X309875D01*
Y163357D01*
X309113D01*
Y163357D01*
X294635D01*
Y160331D01*
X243330D01*
X242930Y160930D01*
X241586Y161828D01*
X240000Y162144D01*
X238414Y161828D01*
X237070Y160930D01*
X236670Y160331D01*
X183400D01*
X182508Y160153D01*
X181752Y159648D01*
X136195Y114091D01*
X57760D01*
X56868Y113913D01*
X56112Y113408D01*
X-29565Y27731D01*
X-92976D01*
Y31524D01*
X-102524D01*
Y19476D01*
X-92976D01*
Y23069D01*
X-78531D01*
Y2331D01*
X-133726D01*
Y10424D01*
X-171074D01*
Y2331D01*
X-172720D01*
X-173612Y2153D01*
X-174368Y1648D01*
X-179448Y-3432D01*
X-179953Y-4188D01*
X-180131Y-5080D01*
Y-17514D01*
X-181686D01*
Y-25955D01*
Y-33286D01*
X-180131D01*
Y-57360D01*
X-181971Y-58122D01*
X-183616Y-59384D01*
X-184878Y-61029D01*
X-185671Y-62944D01*
X-185942Y-65000D01*
X-185671Y-67056D01*
X-185138Y-68342D01*
X-191648Y-74852D01*
X-192153Y-75608D01*
X-192331Y-76500D01*
Y-118476D01*
X-201524D01*
Y-141524D01*
X-178476D01*
Y-118476D01*
X-187669D01*
Y-77465D01*
X-182034Y-71830D01*
X-181971Y-71878D01*
X-180056Y-72671D01*
X-178000Y-72942D01*
X-175944Y-72671D01*
X-174029Y-71878D01*
X-172384Y-70616D01*
X-171122Y-68971D01*
X-170329Y-67056D01*
X-170058Y-65000D01*
X-170329Y-62944D01*
X-171122Y-61029D01*
X-172384Y-59384D01*
X-174029Y-58122D01*
X-175469Y-57526D01*
Y-33286D01*
X-173914D01*
Y-25955D01*
Y-17514D01*
X-175469D01*
Y-6045D01*
X-173614Y-4190D01*
X-171074Y-5242D01*
Y-10424D01*
X-133726D01*
Y-2331D01*
X-103931D01*
Y-6376D01*
X-108874D01*
Y-20924D01*
X-94326D01*
Y-6376D01*
X-99269D01*
Y-2331D01*
X-78531D01*
Y-6376D01*
X-83474D01*
Y-20924D01*
X-68926D01*
Y-6376D01*
X-73869D01*
Y0D01*
Y23069D01*
X-28600D01*
X-27708Y23247D01*
X-26952Y23752D01*
X58725Y109429D01*
X137160D01*
X138052Y109607D01*
X138808Y110112D01*
X184365Y155669D01*
X236670D01*
X237070Y155070D01*
X238414Y154172D01*
X240000Y153856D01*
X241586Y154172D01*
X241868Y154360D01*
X244346Y153661D01*
X244973Y151269D01*
X241485Y147781D01*
X196250D01*
X195358Y147603D01*
X194602Y147098D01*
X75235Y27731D01*
X57744D01*
Y31424D01*
X48196D01*
Y19376D01*
X57744D01*
Y23069D01*
X73869D01*
Y13286D01*
X36355D01*
X35463Y13108D01*
X34707Y12603D01*
X24435Y2331D01*
X18674D01*
Y10424D01*
X-18674D01*
Y2331D01*
X-20320D01*
X-21212Y2153D01*
X-21968Y1648D01*
X-27048Y-3432D01*
X-27553Y-4188D01*
X-27731Y-5080D01*
Y-17514D01*
X-29286D01*
Y-25955D01*
Y-33286D01*
X-27731D01*
Y-57401D01*
X-29471Y-58122D01*
X-31116Y-59384D01*
X-32378Y-61029D01*
X-33171Y-62944D01*
X-33442Y-65000D01*
X-33171Y-67056D01*
X-32378Y-68971D01*
X-31691Y-69866D01*
X-32153Y-70559D01*
X-32331Y-71451D01*
Y-118476D01*
X-41524D01*
Y-141524D01*
X-18476D01*
Y-118476D01*
X-27669D01*
Y-75218D01*
X-25500Y-72942D01*
X-23444Y-72671D01*
X-21529Y-71878D01*
X-19884Y-70616D01*
X-18622Y-68971D01*
X-17829Y-67056D01*
X-17558Y-65000D01*
X-17829Y-62944D01*
X-18622Y-61029D01*
X-19884Y-59384D01*
X-21529Y-58122D01*
X-23069Y-57484D01*
Y-33286D01*
X-21514D01*
Y-25955D01*
Y-17514D01*
X-23069D01*
Y-6045D01*
X-21214Y-4190D01*
X-18674Y-5242D01*
Y-10424D01*
X18674D01*
Y-2331D01*
X25400D01*
X26292Y-2153D01*
X27048Y-1648D01*
X37320Y8624D01*
X48469D01*
Y3784D01*
X43526D01*
Y-10764D01*
X58074D01*
Y3784D01*
X53131D01*
Y8624D01*
X73869D01*
Y3784D01*
X68926D01*
Y-10764D01*
X83474D01*
Y3784D01*
X78531D01*
Y10955D01*
Y24435D01*
X197215Y143119D01*
X242450D01*
X243342Y143297D01*
X244098Y143802D01*
X249000Y148704D01*
X253902Y143802D01*
X254658Y143297D01*
X255550Y143119D01*
X294635D01*
Y140243D01*
X294635D01*
Y137957D01*
X294635D01*
Y135081D01*
X255215D01*
X253003Y137293D01*
X253144Y138000D01*
X252828Y139586D01*
X251930Y140930D01*
X250586Y141828D01*
X249000Y142144D01*
X247414Y141828D01*
X246070Y140930D01*
X245172Y139586D01*
X244856Y138000D01*
X244997Y137293D01*
X242785Y135081D01*
X219110D01*
X218218Y134903D01*
X217462Y134398D01*
X211712Y128648D01*
X211207Y127892D01*
X211029Y127000D01*
Y100870D01*
X209040Y99540D01*
X208489Y99540D01*
X202770D01*
Y89500D01*
Y79460D01*
X208489D01*
X209040Y79460D01*
X211029Y78130D01*
Y27731D01*
X207234D01*
Y31424D01*
X197686D01*
Y19376D01*
X207234D01*
Y23069D01*
X211029D01*
Y12491D01*
X193040D01*
X192148Y12313D01*
X191392Y11808D01*
X181915Y2331D01*
X171074D01*
Y10424D01*
X133726D01*
Y2331D01*
X132080D01*
X131188Y2153D01*
X130432Y1648D01*
X125352Y-3432D01*
X124847Y-4188D01*
X124669Y-5080D01*
Y-17514D01*
X123114D01*
Y-25955D01*
Y-33286D01*
X124669D01*
Y-51500D01*
X124847Y-52392D01*
X125352Y-53148D01*
X127300Y-55096D01*
X126990Y-57724D01*
X126029Y-58122D01*
X124384Y-59384D01*
X123122Y-61029D01*
X122329Y-62944D01*
X122058Y-65000D01*
X122329Y-67056D01*
X123122Y-68971D01*
X124384Y-70616D01*
X126029Y-71878D01*
X127669Y-72557D01*
Y-118476D01*
X118476D01*
Y-141524D01*
X141524D01*
Y-118476D01*
X132331D01*
Y-72557D01*
X133971Y-71878D01*
X135616Y-70616D01*
X136878Y-68971D01*
X137671Y-67056D01*
X137942Y-65000D01*
X137671Y-62944D01*
X136878Y-61029D01*
X135616Y-59384D01*
X133971Y-58122D01*
X132331Y-57443D01*
Y-54500D01*
X132153Y-53608D01*
X131648Y-52852D01*
X129331Y-50535D01*
Y-33286D01*
X130886D01*
Y-25955D01*
Y-17514D01*
X129331D01*
Y-6045D01*
X131186Y-4190D01*
X133726Y-5242D01*
Y-10424D01*
X171074D01*
Y-2331D01*
X182880D01*
X183772Y-2153D01*
X184528Y-1648D01*
X194006Y7829D01*
X200869D01*
Y-1296D01*
X195926D01*
Y-15844D01*
X210474D01*
Y-1296D01*
X205531D01*
Y7829D01*
X222555D01*
X226269Y4115D01*
Y-1296D01*
X221326D01*
Y-15844D01*
X235874D01*
Y-1296D01*
X230931D01*
Y5080D01*
X230753Y5972D01*
X230248Y6728D01*
X225168Y11808D01*
X224412Y12313D01*
X223520Y12491D01*
X215691D01*
Y25400D01*
Y126035D01*
X220075Y130419D01*
X243750D01*
X244642Y130597D01*
X245398Y131102D01*
X248293Y133997D01*
X249000Y133856D01*
X249707Y133997D01*
X252602Y131102D01*
X253358Y130597D01*
X254250Y130419D01*
X294635D01*
Y127543D01*
X294635D01*
Y125257D01*
X294635D01*
Y119460D01*
X293055D01*
X292163Y119282D01*
X291407Y118777D01*
X290479Y117849D01*
X289000Y118144D01*
X287414Y117828D01*
X286070Y116930D01*
X285172Y115586D01*
X284856Y114000D01*
X285172Y112414D01*
X286070Y111070D01*
X287414Y110172D01*
X289000Y109856D01*
X290586Y110172D01*
X291930Y111070D01*
X292095Y111317D01*
X294635Y110546D01*
Y102143D01*
X294635D01*
Y99857D01*
X294635D01*
Y89443D01*
X294635D01*
Y87157D01*
X294635D01*
Y76743D01*
X294635D01*
Y74457D01*
X294635D01*
Y64297D01*
X294635Y64043D01*
Y61757D01*
X294635Y61503D01*
Y51597D01*
X294635Y51343D01*
Y49057D01*
X292385Y48103D01*
X285705D01*
X285500Y48144D01*
X283914Y47828D01*
X282570Y46930D01*
X281672Y45586D01*
X281356Y44000D01*
X281672Y42414D01*
X282570Y41070D01*
X283914Y40172D01*
X285500Y39856D01*
X285705Y39897D01*
X294635D01*
Y38643D01*
X308859D01*
Y37627D01*
X315844D01*
Y43850D01*
X318384D01*
Y37627D01*
X325369D01*
Y37994D01*
X327730Y39429D01*
Y44500D01*
X330270D01*
Y39573D01*
X330982Y39715D01*
X331129Y39813D01*
X333669Y38455D01*
Y27465D01*
X288970Y-17233D01*
X288465Y-17989D01*
X288288Y-18881D01*
Y-31674D01*
X286754D01*
Y-39446D01*
X288359D01*
Y-48083D01*
X285819Y-49310D01*
X285625Y-49180D01*
X284250Y-48907D01*
X282875Y-49180D01*
X281709Y-49959D01*
X280931Y-51125D01*
X280657Y-52500D01*
Y-58000D01*
X280691Y-58170D01*
X279141Y-60498D01*
X278803Y-60710D01*
X275520D01*
Y-65250D01*
X274250D01*
Y-66520D01*
X266960D01*
Y-69759D01*
X259386D01*
Y-68114D01*
X257831D01*
Y-43410D01*
X257653Y-42518D01*
X257148Y-41762D01*
X251251Y-35865D01*
Y32955D01*
X283793Y65497D01*
X284500Y65356D01*
X286086Y65672D01*
X287430Y66570D01*
X288328Y67914D01*
X288644Y69500D01*
X288328Y71086D01*
X287430Y72430D01*
X286086Y73328D01*
X284500Y73644D01*
X282914Y73328D01*
X281570Y72430D01*
X280672Y71086D01*
X280356Y69500D01*
X280497Y68793D01*
X247272Y35568D01*
X246767Y34812D01*
X246589Y33920D01*
Y-36830D01*
X246767Y-37722D01*
X247272Y-38478D01*
X253169Y-44375D01*
Y-64893D01*
X252359Y-67098D01*
X248748D01*
Y-72000D01*
Y-76902D01*
X252359D01*
Y-75886D01*
X259386D01*
Y-74421D01*
X266765D01*
X268176Y-76866D01*
X268163Y-76961D01*
X267907Y-78250D01*
X268181Y-79625D01*
X268959Y-80791D01*
Y-82209D01*
X268181Y-83375D01*
X267907Y-84750D01*
X268181Y-86125D01*
X268959Y-87291D01*
X270125Y-88069D01*
X271500Y-88343D01*
X277000D01*
X278375Y-88069D01*
X278438Y-88028D01*
X279177Y-88027D01*
X280973Y-89823D01*
X280972Y-90562D01*
X280931Y-90625D01*
X280657Y-92000D01*
Y-97500D01*
X280931Y-98875D01*
X281709Y-100041D01*
X281919Y-100181D01*
Y-109785D01*
X276352Y-115352D01*
X275847Y-116108D01*
X275669Y-117000D01*
Y-181000D01*
X275847Y-181892D01*
X276352Y-182648D01*
X325222Y-231518D01*
X325978Y-232023D01*
X326870Y-232201D01*
X340476D01*
Y-234024D01*
X352169D01*
Y-242250D01*
X352347Y-243142D01*
X352476Y-243335D01*
Y-251024D01*
X362024D01*
Y-238976D01*
X356831D01*
Y-234024D01*
X359524D01*
Y-225976D01*
X340476D01*
Y-227539D01*
X327836D01*
X280331Y-180035D01*
Y-117965D01*
X284256Y-114041D01*
X287062Y-114826D01*
X287222Y-115482D01*
X285852Y-116852D01*
X285347Y-117608D01*
X285169Y-118500D01*
Y-120114D01*
X283114D01*
X283114Y-128843D01*
X283114Y-131383D01*
Y-137886D01*
X285169D01*
Y-139000D01*
X285347Y-139892D01*
X285852Y-140648D01*
X289669Y-144465D01*
Y-156500D01*
X289847Y-157392D01*
X290352Y-158148D01*
X305852Y-173648D01*
X306608Y-174153D01*
X307500Y-174331D01*
X331351D01*
Y-182669D01*
X328474D01*
X328074Y-182070D01*
X326729Y-181172D01*
X325144Y-180856D01*
X323558Y-181172D01*
X322214Y-182070D01*
X321315Y-183414D01*
X321000Y-185000D01*
X321315Y-186586D01*
X322214Y-187930D01*
X323558Y-188828D01*
X325144Y-189144D01*
X326729Y-188828D01*
X328074Y-187930D01*
X328474Y-187331D01*
X329269D01*
X331351Y-188524D01*
Y-190976D01*
X331351Y-191064D01*
Y-215024D01*
X352811D01*
X354399Y-215024D01*
X355351Y-217170D01*
Y-222524D01*
X376459D01*
X376459Y-355000D01*
X376459Y-355001D01*
X376459Y-355001D01*
X376459Y-355601D01*
Y-357601D01*
X375699Y-361529D01*
X374206Y-365241D01*
X372034Y-368602D01*
X369263Y-371488D01*
X365994Y-373796D01*
X362346Y-375439D01*
X358452Y-376360D01*
X356454Y-376442D01*
X356381Y-376459D01*
X-357654D01*
X-361684Y-375658D01*
X-365481Y-374085D01*
X-368897Y-371803D01*
X-371803Y-368897D01*
X-374085Y-365481D01*
X-375658Y-361684D01*
X-376459Y-357654D01*
X-376460Y-355500D01*
X-376459Y355600D01*
Y357654D01*
X-375658Y361684D01*
X-374085Y365481D01*
X-371803Y368897D01*
X-368897Y371803D01*
X-365481Y374085D01*
X-361684Y375658D01*
X-357666Y376457D01*
X-355498Y376447D01*
X-355486Y376449D01*
X-355474Y376447D01*
X355600Y376459D01*
X357654D01*
X361684Y375658D01*
D02*
G37*
G36*
X365669Y-81243D02*
Y-108080D01*
X365580Y-108123D01*
X363040Y-106531D01*
Y-103770D01*
X357250D01*
X351460D01*
X351460Y-107409D01*
X348920Y-108748D01*
X347831Y-108003D01*
Y-106500D01*
X347653Y-105608D01*
X347524Y-105414D01*
Y-96476D01*
X341056D01*
X339144Y-94000D01*
X338828Y-92414D01*
X337930Y-91070D01*
X336586Y-90172D01*
X336318Y-90119D01*
X334964Y-89768D01*
X334024Y-87461D01*
Y-82476D01*
X334373Y-81690D01*
X335286Y-81415D01*
X337302Y-81201D01*
X338240Y-81828D01*
X339826Y-82144D01*
X341412Y-81828D01*
X342756Y-80930D01*
X343654Y-79586D01*
X343970Y-78000D01*
X343725Y-76771D01*
X344096Y-75810D01*
X345250Y-74231D01*
X358657D01*
X365669Y-81243D01*
D02*
G37*
%LPC*%
G36*
X-355600Y372204D02*
X-358839Y371885D01*
X-361954Y370940D01*
X-364825Y369406D01*
X-367341Y367341D01*
X-369406Y364825D01*
X-370940Y361954D01*
X-371885Y358839D01*
X-372204Y355600D01*
X-371885Y352361D01*
X-370940Y349246D01*
X-369406Y346375D01*
X-367341Y343859D01*
X-364825Y341794D01*
X-361954Y340260D01*
X-358839Y339315D01*
X-355600Y338996D01*
X-352361Y339315D01*
X-349246Y340260D01*
X-346375Y341794D01*
X-343859Y343859D01*
X-341794Y346375D01*
X-340260Y349246D01*
X-339315Y352361D01*
X-338996Y355600D01*
X-339315Y358839D01*
X-340260Y361954D01*
X-341794Y364825D01*
X-343859Y367341D01*
X-346375Y369406D01*
X-349246Y370940D01*
X-352361Y371885D01*
X-355600Y372204D01*
D02*
G37*
G36*
X224124Y337474D02*
X209576D01*
Y332531D01*
X201450D01*
X201050Y333130D01*
X199706Y334028D01*
X198120Y334344D01*
X196534Y334028D01*
X195190Y333130D01*
X194292Y331786D01*
X193976Y330200D01*
X194292Y328614D01*
X195190Y327270D01*
X196534Y326372D01*
X198120Y326056D01*
X199706Y326372D01*
X201050Y327270D01*
X201450Y327869D01*
X209576D01*
Y322926D01*
X224124D01*
Y337474D01*
D02*
G37*
G36*
X355600Y346804D02*
X352361Y346485D01*
X349246Y345540D01*
X346375Y344006D01*
X343859Y341941D01*
X341794Y339425D01*
X340260Y336554D01*
X339315Y333439D01*
X338996Y330200D01*
X339315Y326961D01*
X340260Y323846D01*
X341794Y320975D01*
X343859Y318459D01*
X346375Y316394D01*
X349246Y314860D01*
X352361Y313915D01*
X355600Y313596D01*
X358839Y313915D01*
X361954Y314860D01*
X364825Y316394D01*
X367341Y318459D01*
X369406Y320975D01*
X370940Y323846D01*
X371885Y326961D01*
X372204Y330200D01*
X371885Y333439D01*
X370940Y336554D01*
X369406Y339425D01*
X367341Y341941D01*
X364825Y344006D01*
X361954Y345540D01*
X358839Y346485D01*
X355600Y346804D01*
D02*
G37*
G36*
X247624Y337474D02*
X233076D01*
Y322926D01*
X247624D01*
Y327351D01*
X262980D01*
X275029Y315302D01*
X274726Y314572D01*
X273568Y309747D01*
X273403Y307649D01*
X237724D01*
Y309424D01*
X219476D01*
Y307131D01*
X206530D01*
X206130Y307730D01*
X204786Y308628D01*
X203200Y308944D01*
X201614Y308628D01*
X200270Y307730D01*
X199372Y306386D01*
X199056Y304800D01*
X199372Y303214D01*
X200270Y301870D01*
X201614Y300972D01*
X203200Y300656D01*
X204786Y300972D01*
X206130Y301870D01*
X206530Y302469D01*
X219476D01*
Y300176D01*
X237724D01*
Y301951D01*
X273403D01*
X273568Y299853D01*
X274726Y295028D01*
X276625Y290444D01*
X279218Y286213D01*
X282440Y282440D01*
X286213Y279218D01*
X290444Y276625D01*
X295028Y274726D01*
X299853Y273568D01*
X304800Y273179D01*
X309747Y273568D01*
X314572Y274726D01*
X319156Y276625D01*
X323387Y279218D01*
X327160Y282440D01*
X330382Y286213D01*
X332975Y290444D01*
X334874Y295028D01*
X336032Y299853D01*
X336422Y304800D01*
X336032Y309747D01*
X334874Y314572D01*
X332975Y319156D01*
X330382Y323387D01*
X327160Y327160D01*
X323387Y330382D01*
X319156Y332975D01*
X314572Y334874D01*
X309747Y336032D01*
X304800Y336422D01*
X299853Y336032D01*
X295028Y334874D01*
X290444Y332975D01*
X286213Y330382D01*
X282440Y327160D01*
X279218Y323387D01*
X278688Y322522D01*
X276165Y322223D01*
X266174Y332214D01*
X265250Y332832D01*
X264160Y333049D01*
X264160Y333049D01*
X247624D01*
Y337474D01*
D02*
G37*
G36*
X-304800Y336422D02*
X-309747Y336032D01*
X-314572Y334874D01*
X-319156Y332975D01*
X-323387Y330382D01*
X-327160Y327160D01*
X-330382Y323387D01*
X-332975Y319156D01*
X-334874Y314572D01*
X-336032Y309747D01*
X-336422Y304800D01*
X-336032Y299853D01*
X-334874Y295028D01*
X-332975Y290444D01*
X-330382Y286213D01*
X-327160Y282440D01*
X-323387Y279218D01*
X-319156Y276625D01*
X-314572Y274726D01*
X-309747Y273568D01*
X-304800Y273179D01*
X-299853Y273568D01*
X-295028Y274726D01*
X-290444Y276625D01*
X-286213Y279218D01*
X-282440Y282440D01*
X-279218Y286213D01*
X-276625Y290444D01*
X-274726Y295028D01*
X-273568Y299853D01*
X-273179Y304800D01*
X-273568Y309747D01*
X-274726Y314572D01*
X-276625Y319156D01*
X-279218Y323387D01*
X-282440Y327160D01*
X-286213Y330382D01*
X-290444Y332975D01*
X-295028Y334874D01*
X-299853Y336032D01*
X-304800Y336422D01*
D02*
G37*
G36*
X-37460Y232540D02*
X-48730D01*
Y221270D01*
X-37460D01*
Y232540D01*
D02*
G37*
G36*
X-51270D02*
X-62540D01*
Y221270D01*
X-51270D01*
Y232540D01*
D02*
G37*
G36*
X-98476Y231524D02*
X-121524D01*
Y208476D01*
X-98476D01*
Y218169D01*
X-95330D01*
X-94930Y217570D01*
X-93586Y216672D01*
X-92000Y216356D01*
X-90414Y216672D01*
X-89070Y217570D01*
X-88172Y218914D01*
X-87856Y220500D01*
X-88172Y222086D01*
X-89070Y223430D01*
X-90414Y224328D01*
X-92000Y224644D01*
X-93586Y224328D01*
X-94930Y223430D01*
X-95330Y222831D01*
X-98476D01*
Y231524D01*
D02*
G37*
G36*
X-37460Y218730D02*
X-48730D01*
Y207460D01*
X-37460D01*
Y218730D01*
D02*
G37*
G36*
X-51270D02*
X-62540D01*
Y207460D01*
X-51270D01*
Y218730D01*
D02*
G37*
G36*
X251524Y209224D02*
X241976D01*
Y205531D01*
X231930D01*
X231530Y206130D01*
X230186Y207028D01*
X228600Y207344D01*
X227014Y207028D01*
X225670Y206130D01*
X224772Y204786D01*
X224456Y203200D01*
X224772Y201614D01*
X225670Y200270D01*
X227014Y199372D01*
X228600Y199056D01*
X230186Y199372D01*
X231530Y200270D01*
X231930Y200869D01*
X241976D01*
Y197176D01*
X251524D01*
Y209224D01*
D02*
G37*
G36*
X345562Y192000D02*
X343507Y191729D01*
X341591Y190936D01*
X339946Y189674D01*
X338684Y188029D01*
X337891Y186113D01*
X337620Y184058D01*
X337891Y182003D01*
X338684Y180087D01*
X339946Y178442D01*
X341591Y177180D01*
X343507Y176387D01*
X345562Y176116D01*
X347617Y176387D01*
X349533Y177180D01*
X351178Y178442D01*
X352440Y180087D01*
X353233Y182003D01*
X353504Y184058D01*
X353233Y186113D01*
X352440Y188029D01*
X351178Y189674D01*
X349533Y190936D01*
X347617Y191729D01*
X345562Y192000D01*
D02*
G37*
G36*
X-308500Y175144D02*
X-310086Y174828D01*
X-311430Y173930D01*
X-312328Y172586D01*
X-312644Y171000D01*
X-312328Y169414D01*
X-311430Y168070D01*
X-310086Y167172D01*
X-308500Y166856D01*
X-306914Y167172D01*
X-305570Y168070D01*
X-304672Y169414D01*
X-304356Y171000D01*
X-304672Y172586D01*
X-305570Y173930D01*
X-306914Y174828D01*
X-308500Y175144D01*
D02*
G37*
G36*
X-339500Y174644D02*
X-341086Y174328D01*
X-342430Y173430D01*
X-343328Y172086D01*
X-343644Y170500D01*
X-343328Y168914D01*
X-342430Y167570D01*
X-341086Y166672D01*
X-339500Y166356D01*
X-337914Y166672D01*
X-336570Y167570D01*
X-335672Y168914D01*
X-335356Y170500D01*
X-335672Y172086D01*
X-336570Y173430D01*
X-337914Y174328D01*
X-339500Y174644D01*
D02*
G37*
G36*
X-275500Y174144D02*
X-277086Y173828D01*
X-278430Y172930D01*
X-279328Y171586D01*
X-279644Y170000D01*
X-279328Y168414D01*
X-278430Y167070D01*
X-277086Y166172D01*
X-275500Y165856D01*
X-273914Y166172D01*
X-272570Y167070D01*
X-271672Y168414D01*
X-271356Y170000D01*
X-271672Y171586D01*
X-272570Y172930D01*
X-273914Y173828D01*
X-275500Y174144D01*
D02*
G37*
G36*
X-208500Y174144D02*
X-210086Y173828D01*
X-211430Y172930D01*
X-212328Y171586D01*
X-212644Y170000D01*
X-212328Y168414D01*
X-211430Y167070D01*
X-210086Y166172D01*
X-208500Y165856D01*
X-206914Y166172D01*
X-205570Y167070D01*
X-204672Y168414D01*
X-204356Y170000D01*
X-204672Y171586D01*
X-205570Y172930D01*
X-206914Y173828D01*
X-208500Y174144D01*
D02*
G37*
G36*
X208500Y173644D02*
X206914Y173328D01*
X205570Y172430D01*
X204672Y171086D01*
X204356Y169500D01*
X204672Y167914D01*
X205570Y166570D01*
X206914Y165672D01*
X208500Y165356D01*
X210086Y165672D01*
X211430Y166570D01*
X212328Y167914D01*
X212644Y169500D01*
X212328Y171086D01*
X211430Y172430D01*
X210086Y173328D01*
X208500Y173644D01*
D02*
G37*
G36*
X111500D02*
X109914Y173328D01*
X108570Y172430D01*
X107672Y171086D01*
X107356Y169500D01*
X107672Y167914D01*
X108570Y166570D01*
X109914Y165672D01*
X111500Y165356D01*
X113086Y165672D01*
X114430Y166570D01*
X115328Y167914D01*
X115644Y169500D01*
X115328Y171086D01*
X114430Y172430D01*
X113086Y173328D01*
X111500Y173644D01*
D02*
G37*
G36*
X-239500D02*
X-241086Y173328D01*
X-242430Y172430D01*
X-243328Y171086D01*
X-243644Y169500D01*
X-243328Y167914D01*
X-242430Y166570D01*
X-241086Y165672D01*
X-239500Y165356D01*
X-237914Y165672D01*
X-236570Y166570D01*
X-235672Y167914D01*
X-235356Y169500D01*
X-235672Y171086D01*
X-236570Y172430D01*
X-237914Y173328D01*
X-239500Y173644D01*
D02*
G37*
G36*
X254500Y173144D02*
X252914Y172828D01*
X251570Y171930D01*
X250672Y170586D01*
X250356Y169000D01*
X250672Y167414D01*
X251570Y166070D01*
X252914Y165172D01*
X254500Y164856D01*
X256086Y165172D01*
X257430Y166070D01*
X258328Y167414D01*
X258644Y169000D01*
X258328Y170586D01*
X257430Y171930D01*
X256086Y172828D01*
X254500Y173144D01*
D02*
G37*
G36*
X155500D02*
X153914Y172828D01*
X152570Y171930D01*
X151672Y170586D01*
X151356Y169000D01*
X151672Y167414D01*
X152570Y166070D01*
X153914Y165172D01*
X155500Y164856D01*
X157086Y165172D01*
X158430Y166070D01*
X159328Y167414D01*
X159644Y169000D01*
X159328Y170586D01*
X158430Y171930D01*
X157086Y172828D01*
X155500Y173144D01*
D02*
G37*
G36*
X-103500D02*
X-105086Y172828D01*
X-106430Y171930D01*
X-107328Y170586D01*
X-107644Y169000D01*
X-107328Y167414D01*
X-106430Y166070D01*
X-105086Y165172D01*
X-103500Y164856D01*
X-101914Y165172D01*
X-100570Y166070D01*
X-99672Y167414D01*
X-99356Y169000D01*
X-99672Y170586D01*
X-100570Y171930D01*
X-101914Y172828D01*
X-103500Y173144D01*
D02*
G37*
G36*
X-139500D02*
X-141086Y172828D01*
X-142430Y171930D01*
X-143328Y170586D01*
X-143644Y169000D01*
X-143328Y167414D01*
X-142430Y166070D01*
X-141086Y165172D01*
X-139500Y164856D01*
X-137914Y165172D01*
X-136570Y166070D01*
X-135672Y167414D01*
X-135356Y169000D01*
X-135672Y170586D01*
X-136570Y171930D01*
X-137914Y172828D01*
X-139500Y173144D01*
D02*
G37*
G36*
X-175500D02*
X-177086Y172828D01*
X-178430Y171930D01*
X-179328Y170586D01*
X-179644Y169000D01*
X-179328Y167414D01*
X-178430Y166070D01*
X-177086Y165172D01*
X-175500Y164856D01*
X-173914Y165172D01*
X-172570Y166070D01*
X-171672Y167414D01*
X-171356Y169000D01*
X-171672Y170586D01*
X-172570Y171930D01*
X-173914Y172828D01*
X-175500Y173144D01*
D02*
G37*
G36*
X62500Y172644D02*
X60914Y172328D01*
X59570Y171430D01*
X58672Y170086D01*
X58356Y168500D01*
X58672Y166914D01*
X59570Y165570D01*
X60914Y164672D01*
X62500Y164356D01*
X64086Y164672D01*
X65430Y165570D01*
X66328Y166914D01*
X66644Y168500D01*
X66328Y170086D01*
X65430Y171430D01*
X64086Y172328D01*
X62500Y172644D01*
D02*
G37*
G36*
X-64000D02*
X-65586Y172328D01*
X-66930Y171430D01*
X-67828Y170086D01*
X-68144Y168500D01*
X-67828Y166914D01*
X-66930Y165570D01*
X-65586Y164672D01*
X-64000Y164356D01*
X-62414Y164672D01*
X-61070Y165570D01*
X-60172Y166914D01*
X-59856Y168500D01*
X-60172Y170086D01*
X-61070Y171430D01*
X-62414Y172328D01*
X-64000Y172644D01*
D02*
G37*
G36*
X20000Y172144D02*
X18414Y171828D01*
X17070Y170930D01*
X16172Y169586D01*
X15856Y168000D01*
X16172Y166414D01*
X17070Y165070D01*
X18414Y164172D01*
X20000Y163856D01*
X21586Y164172D01*
X22930Y165070D01*
X23828Y166414D01*
X24144Y168000D01*
X23828Y169586D01*
X22930Y170930D01*
X21586Y171828D01*
X20000Y172144D01*
D02*
G37*
G36*
X-25000D02*
X-26586Y171828D01*
X-27930Y170930D01*
X-28828Y169586D01*
X-29144Y168000D01*
X-28828Y166414D01*
X-27930Y165070D01*
X-26586Y164172D01*
X-25000Y163856D01*
X-23414Y164172D01*
X-22070Y165070D01*
X-21172Y166414D01*
X-20856Y168000D01*
X-21172Y169586D01*
X-22070Y170930D01*
X-23414Y171828D01*
X-25000Y172144D01*
D02*
G37*
G36*
X121524Y231524D02*
X98476D01*
Y208476D01*
X121524D01*
Y217669D01*
X124535D01*
X127669Y214535D01*
Y164524D01*
X123976D01*
Y156120D01*
X123976Y154976D01*
X122014Y153580D01*
X120420D01*
Y139332D01*
X112671D01*
X111793Y140006D01*
X109939Y140774D01*
X107950Y141036D01*
X105961Y140774D01*
X104107Y140006D01*
X103229Y139332D01*
X100342D01*
Y140792D01*
X84789D01*
Y137236D01*
X81014D01*
Y135681D01*
X77165D01*
X74331Y138515D01*
Y199670D01*
X74930Y200070D01*
X75828Y201414D01*
X76144Y203000D01*
X75828Y204586D01*
X74930Y205930D01*
X74331Y206330D01*
Y216000D01*
X74153Y216892D01*
X73648Y217648D01*
X69648Y221648D01*
X68892Y222153D01*
X68000Y222331D01*
X61524D01*
Y231524D01*
X38476D01*
Y208476D01*
X61524D01*
Y217669D01*
X67035D01*
X69669Y215035D01*
Y206330D01*
X69070Y205930D01*
X68172Y204586D01*
X67856Y203000D01*
X68172Y201414D01*
X69070Y200070D01*
X69669Y199670D01*
Y137550D01*
X69847Y136658D01*
X70352Y135902D01*
X74552Y131702D01*
X75308Y131197D01*
X76200Y131019D01*
X81014D01*
Y129464D01*
X84789D01*
Y125908D01*
X100342D01*
Y127368D01*
X103229D01*
X104107Y126694D01*
X105961Y125926D01*
X107950Y125664D01*
X109939Y125926D01*
X111793Y126694D01*
X112671Y127368D01*
X125350D01*
X127639Y127823D01*
X129580Y129120D01*
X134230Y133770D01*
X135527Y135711D01*
X135767Y136920D01*
X139580D01*
Y153580D01*
X137986D01*
X136024Y154976D01*
X136024Y156120D01*
Y164524D01*
X132331D01*
Y215500D01*
X132153Y216392D01*
X131648Y217148D01*
X127148Y221648D01*
X126392Y222153D01*
X125500Y222331D01*
X121524D01*
Y231524D01*
D02*
G37*
G36*
X-364000Y146144D02*
X-365586Y145828D01*
X-366930Y144930D01*
X-367828Y143586D01*
X-368144Y142000D01*
X-367828Y140414D01*
X-366930Y139070D01*
X-365586Y138172D01*
X-364000Y137856D01*
X-362414Y138172D01*
X-361070Y139070D01*
X-360172Y140414D01*
X-359856Y142000D01*
X-360172Y143586D01*
X-361070Y144930D01*
X-362414Y145828D01*
X-364000Y146144D01*
D02*
G37*
G36*
X-307460Y125540D02*
X-317430D01*
Y115570D01*
X-307460D01*
Y125540D01*
D02*
G37*
G36*
X-229000Y158898D02*
X-328500D01*
X-330948Y158411D01*
X-333024Y157024D01*
X-344524Y145524D01*
X-345911Y143448D01*
X-346398Y141000D01*
Y73500D01*
X-345911Y71052D01*
X-344524Y68976D01*
X-334524Y58976D01*
X-332448Y57589D01*
X-331052Y57311D01*
X-330737Y56551D01*
X-328528Y53672D01*
X-326777Y52328D01*
X-326715Y52208D01*
Y49392D01*
X-326777Y49272D01*
X-328528Y47928D01*
X-330737Y45049D01*
X-332125Y41697D01*
X-332599Y38100D01*
X-332125Y34503D01*
X-330737Y31151D01*
X-328528Y28272D01*
X-326777Y26928D01*
X-326715Y26808D01*
Y23992D01*
X-326777Y23872D01*
X-328528Y22528D01*
X-330737Y19649D01*
X-332125Y16297D01*
X-332599Y12700D01*
X-332125Y9103D01*
X-330737Y5751D01*
X-328528Y2872D01*
X-325649Y663D01*
X-322721Y-550D01*
X-322433Y-1872D01*
X-322597Y-3248D01*
X-323856Y-3769D01*
X-325992Y-5408D01*
X-327631Y-7544D01*
X-328661Y-10031D01*
X-329012Y-12700D01*
X-328661Y-15369D01*
X-327631Y-17856D01*
X-325992Y-19992D01*
X-323856Y-21631D01*
X-322597Y-22152D01*
X-322433Y-23528D01*
X-322721Y-24850D01*
X-325649Y-26063D01*
X-328528Y-28272D01*
X-330737Y-31151D01*
X-332125Y-34503D01*
X-332599Y-38100D01*
X-332125Y-41697D01*
X-330737Y-45049D01*
X-328528Y-47928D01*
X-326777Y-49272D01*
X-326715Y-49392D01*
Y-52208D01*
X-326777Y-52328D01*
X-328528Y-53672D01*
X-330737Y-56551D01*
X-331739Y-58971D01*
X-331854Y-59071D01*
X-334117Y-59846D01*
X-334678Y-59830D01*
X-334914Y-59672D01*
X-336500Y-59356D01*
X-338086Y-59672D01*
X-339430Y-60570D01*
X-340328Y-61914D01*
X-340644Y-63500D01*
X-340328Y-65086D01*
X-339430Y-66430D01*
X-338086Y-67328D01*
X-336500Y-67644D01*
X-334914Y-67328D01*
X-333560Y-69452D01*
X-333473Y-69812D01*
X-342230Y-78570D01*
X-343527Y-80511D01*
X-343982Y-82800D01*
Y-180000D01*
X-343527Y-182289D01*
X-342230Y-184230D01*
X-329730Y-196730D01*
X-327789Y-198027D01*
X-325500Y-198482D01*
X-320942D01*
Y-199942D01*
X-306101D01*
Y-197402D01*
X-300598D01*
Y-193770D01*
X-305478D01*
Y-191230D01*
X-300598D01*
Y-187598D01*
X-306101D01*
Y-185058D01*
X-320942D01*
Y-185406D01*
X-323482Y-186057D01*
X-332018Y-177522D01*
Y-85278D01*
X-330307Y-83567D01*
X-328153Y-85006D01*
X-328661Y-86231D01*
X-329012Y-88900D01*
X-328661Y-91569D01*
X-327631Y-94056D01*
X-325992Y-96192D01*
X-323856Y-97831D01*
X-321369Y-98861D01*
X-318700Y-99212D01*
X-316031Y-98861D01*
X-313544Y-97831D01*
X-311408Y-96192D01*
X-309769Y-94056D01*
X-308739Y-91569D01*
X-308388Y-88900D01*
X-308739Y-86231D01*
X-309769Y-83744D01*
X-311408Y-81608D01*
X-313544Y-79969D01*
X-314803Y-79448D01*
X-314967Y-78071D01*
X-314679Y-76750D01*
X-311751Y-75537D01*
X-308872Y-73328D01*
X-306663Y-70449D01*
X-305450Y-67521D01*
X-304128Y-67233D01*
X-302752Y-67397D01*
X-302231Y-68656D01*
X-300592Y-70792D01*
X-298456Y-72431D01*
X-295969Y-73461D01*
X-293300Y-73812D01*
X-290631Y-73461D01*
X-288144Y-72431D01*
X-286008Y-70792D01*
X-284369Y-68656D01*
X-283339Y-66169D01*
X-282988Y-63500D01*
X-283339Y-60831D01*
X-284369Y-58344D01*
X-286008Y-56208D01*
X-288144Y-54569D01*
X-290631Y-53539D01*
X-293300Y-53188D01*
X-295969Y-53539D01*
X-298456Y-54569D01*
X-300592Y-56208D01*
X-302231Y-58344D01*
X-302752Y-59603D01*
X-304128Y-59767D01*
X-305450Y-59479D01*
X-306663Y-56551D01*
X-308872Y-53672D01*
X-310623Y-52328D01*
X-310685Y-52208D01*
Y-49392D01*
X-310623Y-49272D01*
X-308872Y-47928D01*
X-306663Y-45049D01*
X-305450Y-42121D01*
X-304128Y-41833D01*
X-302752Y-41997D01*
X-302231Y-43256D01*
X-300592Y-45392D01*
X-298456Y-47031D01*
X-295969Y-48061D01*
X-293300Y-48412D01*
X-290631Y-48061D01*
X-288144Y-47031D01*
X-286008Y-45392D01*
X-284369Y-43256D01*
X-283339Y-40769D01*
X-282988Y-38100D01*
X-283339Y-35431D01*
X-284369Y-32944D01*
X-286008Y-30808D01*
X-288144Y-29169D01*
X-290631Y-28139D01*
X-293300Y-27788D01*
X-295969Y-28139D01*
X-298456Y-29169D01*
X-300592Y-30808D01*
X-302231Y-32944D01*
X-302752Y-34203D01*
X-304128Y-34367D01*
X-305450Y-34079D01*
X-306663Y-31151D01*
X-308872Y-28272D01*
X-311751Y-26063D01*
X-314679Y-24850D01*
X-314967Y-23528D01*
X-314803Y-22152D01*
X-313544Y-21631D01*
X-311408Y-19992D01*
X-309769Y-17856D01*
X-308739Y-15369D01*
X-308388Y-12700D01*
X-308739Y-10031D01*
X-309769Y-7544D01*
X-311408Y-5408D01*
X-313544Y-3769D01*
X-314803Y-3248D01*
X-314967Y-1872D01*
X-314679Y-550D01*
X-311751Y663D01*
X-308872Y2872D01*
X-306663Y5751D01*
X-305450Y8679D01*
X-304128Y8967D01*
X-302752Y8803D01*
X-302231Y7544D01*
X-300592Y5408D01*
X-298456Y3769D01*
X-295969Y2739D01*
X-293300Y2388D01*
X-290631Y2739D01*
X-288144Y3769D01*
X-286008Y5408D01*
X-284369Y7544D01*
X-283339Y10031D01*
X-282988Y12700D01*
X-283339Y15369D01*
X-284369Y17856D01*
X-286008Y19992D01*
X-288144Y21631D01*
X-290631Y22661D01*
X-293300Y23012D01*
X-295969Y22661D01*
X-298456Y21631D01*
X-300592Y19992D01*
X-302231Y17856D01*
X-302752Y16597D01*
X-304128Y16433D01*
X-305450Y16721D01*
X-306663Y19649D01*
X-308872Y22528D01*
X-310623Y23872D01*
X-310685Y23992D01*
Y26808D01*
X-310623Y26928D01*
X-308872Y28272D01*
X-306663Y31151D01*
X-305450Y34079D01*
X-304128Y34367D01*
X-302752Y34203D01*
X-302231Y32944D01*
X-300592Y30808D01*
X-298456Y29169D01*
X-295969Y28139D01*
X-293300Y27788D01*
X-290631Y28139D01*
X-288144Y29169D01*
X-286008Y30808D01*
X-284369Y32944D01*
X-283339Y35431D01*
X-282988Y38100D01*
X-283339Y40769D01*
X-284369Y43256D01*
X-286008Y45392D01*
X-288144Y47031D01*
X-290631Y48061D01*
X-293300Y48412D01*
X-295969Y48061D01*
X-298456Y47031D01*
X-300592Y45392D01*
X-302231Y43256D01*
X-302752Y41997D01*
X-304128Y41833D01*
X-305450Y42121D01*
X-306663Y45049D01*
X-308872Y47928D01*
X-310623Y49272D01*
X-310685Y49392D01*
Y52208D01*
X-310623Y52328D01*
X-308872Y53672D01*
X-306663Y56551D01*
X-305450Y59479D01*
X-304128Y59767D01*
X-302752Y59603D01*
X-302231Y58344D01*
X-300592Y56208D01*
X-298456Y54569D01*
X-295969Y53539D01*
X-293300Y53188D01*
X-290631Y53539D01*
X-288144Y54569D01*
X-286008Y56208D01*
X-284369Y58344D01*
X-283339Y60831D01*
X-282988Y63500D01*
X-283339Y66169D01*
X-284369Y68656D01*
X-286008Y70792D01*
X-288144Y72431D01*
X-290631Y73461D01*
X-293300Y73812D01*
X-295969Y73461D01*
X-298456Y72431D01*
X-300592Y70792D01*
X-302231Y68656D01*
X-302752Y67397D01*
X-304128Y67233D01*
X-305450Y67521D01*
X-306663Y70449D01*
X-308872Y73328D01*
X-310623Y74672D01*
X-310685Y74792D01*
Y77608D01*
X-310623Y77728D01*
X-308872Y79072D01*
X-306663Y81951D01*
X-305450Y84879D01*
X-304128Y85167D01*
X-302752Y85003D01*
X-302231Y83744D01*
X-300592Y81608D01*
X-298456Y79969D01*
X-295969Y78939D01*
X-293300Y78588D01*
X-290631Y78939D01*
X-288144Y79969D01*
X-286008Y81608D01*
X-284369Y83744D01*
X-283339Y86231D01*
X-282988Y88900D01*
X-283339Y91569D01*
X-284369Y94056D01*
X-286008Y96192D01*
X-288144Y97831D01*
X-290631Y98861D01*
X-293300Y99212D01*
X-295969Y98861D01*
X-298456Y97831D01*
X-300592Y96192D01*
X-302231Y94056D01*
X-302752Y92797D01*
X-304128Y92633D01*
X-305450Y92921D01*
X-306663Y95849D01*
X-308872Y98728D01*
X-311207Y100520D01*
X-310646Y102899D01*
X-310555Y103060D01*
X-307460D01*
Y113030D01*
X-318700D01*
Y114300D01*
X-319970D01*
Y125540D01*
X-327102D01*
Y135350D01*
X-322850Y139602D01*
X-250809D01*
X-249942Y137421D01*
X-249942D01*
Y122579D01*
X-247402D01*
Y117076D01*
X-243770D01*
Y121957D01*
X-241230D01*
Y117076D01*
X-237598D01*
Y120927D01*
X-235718Y121669D01*
X-233686Y120000D01*
X-233424Y118011D01*
X-232656Y116157D01*
X-231435Y114565D01*
X-229843Y113344D01*
X-227989Y112576D01*
X-226000Y112314D01*
X-224011Y112576D01*
X-222157Y113344D01*
X-220565Y114565D01*
X-219344Y116157D01*
X-218576Y118011D01*
X-218314Y120000D01*
X-218576Y121989D01*
X-219344Y123843D01*
X-219602Y124179D01*
Y149500D01*
X-220089Y151948D01*
X-221476Y154024D01*
X-224476Y157024D01*
X-226552Y158411D01*
X-229000Y158898D01*
D02*
G37*
G36*
X-293300Y124612D02*
X-295969Y124261D01*
X-298456Y123231D01*
X-300592Y121592D01*
X-302231Y119456D01*
X-303261Y116969D01*
X-303612Y114300D01*
X-303261Y111631D01*
X-302231Y109144D01*
X-300592Y107008D01*
X-298456Y105369D01*
X-295969Y104339D01*
X-293300Y103988D01*
X-290631Y104339D01*
X-288144Y105369D01*
X-286008Y107008D01*
X-284369Y109144D01*
X-283339Y111631D01*
X-282988Y114300D01*
X-283339Y116969D01*
X-284369Y119456D01*
X-286008Y121592D01*
X-288144Y123231D01*
X-290631Y124261D01*
X-293300Y124612D01*
D02*
G37*
G36*
X-364500Y110644D02*
X-366086Y110328D01*
X-367430Y109430D01*
X-368328Y108086D01*
X-368644Y106500D01*
X-368328Y104914D01*
X-367430Y103570D01*
X-366086Y102672D01*
X-364500Y102356D01*
X-362914Y102672D01*
X-361570Y103570D01*
X-360672Y104914D01*
X-360356Y106500D01*
X-360672Y108086D01*
X-361570Y109430D01*
X-362914Y110328D01*
X-364500Y110644D01*
D02*
G37*
G36*
X-104460Y101040D02*
X-110730D01*
Y92270D01*
X-104460D01*
Y101040D01*
D02*
G37*
G36*
X-113270D02*
X-119540D01*
Y92270D01*
X-113270D01*
Y101040D01*
D02*
G37*
G36*
X68040Y100040D02*
X61770D01*
Y91270D01*
X68040D01*
Y100040D01*
D02*
G37*
G36*
X59230D02*
X52960D01*
Y91270D01*
X59230D01*
Y100040D01*
D02*
G37*
G36*
X200230Y99540D02*
X193960D01*
Y90770D01*
X200230D01*
Y99540D01*
D02*
G37*
G36*
X-104460Y89730D02*
X-110730D01*
Y80960D01*
X-104460D01*
Y89730D01*
D02*
G37*
G36*
X-113270D02*
X-119540D01*
Y80960D01*
X-113270D01*
Y89730D01*
D02*
G37*
G36*
X68040Y88730D02*
X61770D01*
Y79960D01*
X68040D01*
Y88730D01*
D02*
G37*
G36*
X59230D02*
X52960D01*
Y79960D01*
X59230D01*
Y88730D01*
D02*
G37*
G36*
X200230Y88230D02*
X193960D01*
Y79460D01*
X200230D01*
Y88230D01*
D02*
G37*
G36*
X-211000Y115186D02*
X-212989Y114924D01*
X-214843Y114156D01*
X-216435Y112935D01*
X-217656Y111343D01*
X-218424Y109489D01*
X-218677Y107570D01*
X-218699Y107462D01*
X-219468Y105235D01*
X-220771Y104891D01*
X-221086Y104828D01*
X-222430Y103930D01*
X-223328Y102586D01*
X-223644Y101000D01*
X-223328Y99414D01*
X-222430Y98070D01*
X-221086Y97172D01*
X-220771Y97109D01*
X-219977Y96899D01*
X-218964Y94671D01*
X-220040Y92536D01*
X-221086Y92328D01*
X-222430Y91430D01*
X-223328Y90086D01*
X-223644Y88500D01*
X-223328Y86914D01*
X-222430Y85570D01*
X-221086Y84672D01*
X-220771Y84609D01*
X-219468Y84265D01*
X-218699Y82038D01*
X-218677Y81930D01*
X-218424Y80011D01*
X-217656Y78157D01*
X-216435Y76565D01*
X-214843Y75344D01*
X-212989Y74576D01*
X-211000Y74314D01*
X-209011Y74576D01*
X-207157Y75344D01*
X-205565Y76565D01*
X-204344Y78157D01*
X-203576Y80011D01*
X-203314Y82000D01*
X-203576Y83989D01*
X-204344Y85843D01*
X-205565Y87435D01*
Y89065D01*
X-204344Y90657D01*
X-203576Y92511D01*
X-203314Y94500D01*
X-203576Y96489D01*
X-204344Y98343D01*
X-205565Y99935D01*
X-205048Y102739D01*
X-204344Y103657D01*
X-203576Y105511D01*
X-203314Y107500D01*
X-203576Y109489D01*
X-204344Y111343D01*
X-205565Y112935D01*
X-207157Y114156D01*
X-209011Y114924D01*
X-211000Y115186D01*
D02*
G37*
G36*
X-364500Y78144D02*
X-366086Y77828D01*
X-367430Y76930D01*
X-368328Y75586D01*
X-368644Y74000D01*
X-368328Y72414D01*
X-367430Y71070D01*
X-366086Y70172D01*
X-364500Y69856D01*
X-362914Y70172D01*
X-361570Y71070D01*
X-360672Y72414D01*
X-360356Y74000D01*
X-360672Y75586D01*
X-361570Y76930D01*
X-362914Y77828D01*
X-364500Y78144D01*
D02*
G37*
G36*
X-238500Y68144D02*
X-240086Y67828D01*
X-241430Y66930D01*
X-242328Y65586D01*
X-242644Y64000D01*
X-242328Y62414D01*
X-241430Y61070D01*
X-240086Y60172D01*
X-238500Y59856D01*
X-236914Y60172D01*
X-235570Y61070D01*
X-234672Y62414D01*
X-234356Y64000D01*
X-234672Y65586D01*
X-235570Y66930D01*
X-236914Y67828D01*
X-238500Y68144D01*
D02*
G37*
G36*
X178500Y67644D02*
X176914Y67328D01*
X175570Y66430D01*
X174672Y65086D01*
X174356Y63500D01*
X174672Y61914D01*
X175570Y60570D01*
X176914Y59672D01*
X178500Y59356D01*
X180086Y59672D01*
X181430Y60570D01*
X182328Y61914D01*
X182644Y63500D01*
X182328Y65086D01*
X181430Y66430D01*
X180086Y67328D01*
X178500Y67644D01*
D02*
G37*
G36*
X-269500D02*
X-271086Y67328D01*
X-272430Y66430D01*
X-273328Y65086D01*
X-273644Y63500D01*
X-273328Y61914D01*
X-272430Y60570D01*
X-271086Y59672D01*
X-269500Y59356D01*
X-267914Y59672D01*
X-266570Y60570D01*
X-265672Y61914D01*
X-265356Y63500D01*
X-265672Y65086D01*
X-266570Y66430D01*
X-267914Y67328D01*
X-269500Y67644D01*
D02*
G37*
G36*
X224500Y67144D02*
X222914Y66828D01*
X221570Y65930D01*
X220672Y64586D01*
X220356Y63000D01*
X220672Y61414D01*
X221570Y60070D01*
X222914Y59172D01*
X224500Y58856D01*
X226086Y59172D01*
X227430Y60070D01*
X228328Y61414D01*
X228644Y63000D01*
X228328Y64586D01*
X227430Y65930D01*
X226086Y66828D01*
X224500Y67144D01*
D02*
G37*
G36*
X129500D02*
X127914Y66828D01*
X126570Y65930D01*
X125672Y64586D01*
X125356Y63000D01*
X125672Y61414D01*
X126570Y60070D01*
X127914Y59172D01*
X129500Y58856D01*
X131086Y59172D01*
X132430Y60070D01*
X133328Y61414D01*
X133644Y63000D01*
X133328Y64586D01*
X132430Y65930D01*
X131086Y66828D01*
X129500Y67144D01*
D02*
G37*
G36*
X-133500D02*
X-135086Y66828D01*
X-136430Y65930D01*
X-137328Y64586D01*
X-137644Y63000D01*
X-137328Y61414D01*
X-136430Y60070D01*
X-135086Y59172D01*
X-133500Y58856D01*
X-131914Y59172D01*
X-130570Y60070D01*
X-129672Y61414D01*
X-129356Y63000D01*
X-129672Y64586D01*
X-130570Y65930D01*
X-131914Y66828D01*
X-133500Y67144D01*
D02*
G37*
G36*
X-169500D02*
X-171086Y66828D01*
X-172430Y65930D01*
X-173328Y64586D01*
X-173644Y63000D01*
X-173328Y61414D01*
X-172430Y60070D01*
X-171086Y59172D01*
X-169500Y58856D01*
X-167914Y59172D01*
X-166570Y60070D01*
X-165672Y61414D01*
X-165356Y63000D01*
X-165672Y64586D01*
X-166570Y65930D01*
X-167914Y66828D01*
X-169500Y67144D01*
D02*
G37*
G36*
X-205500D02*
X-207086Y66828D01*
X-208430Y65930D01*
X-209328Y64586D01*
X-209644Y63000D01*
X-209328Y61414D01*
X-208430Y60070D01*
X-207086Y59172D01*
X-205500Y58856D01*
X-203914Y59172D01*
X-202570Y60070D01*
X-201672Y61414D01*
X-201356Y63000D01*
X-201672Y64586D01*
X-202570Y65930D01*
X-203914Y66828D01*
X-205500Y67144D01*
D02*
G37*
G36*
X87000Y66644D02*
X85414Y66328D01*
X84070Y65430D01*
X83172Y64086D01*
X82856Y62500D01*
X83172Y60914D01*
X84070Y59570D01*
X85414Y58672D01*
X87000Y58356D01*
X88586Y58672D01*
X89930Y59570D01*
X90828Y60914D01*
X91144Y62500D01*
X90828Y64086D01*
X89930Y65430D01*
X88586Y66328D01*
X87000Y66644D01*
D02*
G37*
G36*
X32500D02*
X30914Y66328D01*
X29570Y65430D01*
X28672Y64086D01*
X28356Y62500D01*
X28672Y60914D01*
X29570Y59570D01*
X30914Y58672D01*
X32500Y58356D01*
X34086Y58672D01*
X35430Y59570D01*
X36328Y60914D01*
X36644Y62500D01*
X36328Y64086D01*
X35430Y65430D01*
X34086Y66328D01*
X32500Y66644D01*
D02*
G37*
G36*
X-91000D02*
X-92586Y66328D01*
X-93930Y65430D01*
X-94828Y64086D01*
X-95144Y62500D01*
X-94828Y60914D01*
X-93930Y59570D01*
X-92586Y58672D01*
X-91000Y58356D01*
X-89414Y58672D01*
X-88070Y59570D01*
X-87172Y60914D01*
X-86856Y62500D01*
X-87172Y64086D01*
X-88070Y65430D01*
X-89414Y66328D01*
X-91000Y66644D01*
D02*
G37*
G36*
X-10000Y66144D02*
X-11586Y65828D01*
X-12930Y64930D01*
X-13828Y63586D01*
X-14144Y62000D01*
X-13828Y60414D01*
X-12930Y59070D01*
X-11586Y58172D01*
X-10000Y57856D01*
X-8414Y58172D01*
X-7070Y59070D01*
X-6172Y60414D01*
X-5856Y62000D01*
X-6172Y63586D01*
X-7070Y64930D01*
X-8414Y65828D01*
X-10000Y66144D01*
D02*
G37*
G36*
X-55000D02*
X-56586Y65828D01*
X-57930Y64930D01*
X-58828Y63586D01*
X-59144Y62000D01*
X-58828Y60414D01*
X-57930Y59070D01*
X-56586Y58172D01*
X-55000Y57856D01*
X-53414Y58172D01*
X-52070Y59070D01*
X-51172Y60414D01*
X-50856Y62000D01*
X-51172Y63586D01*
X-52070Y64930D01*
X-53414Y65828D01*
X-55000Y66144D01*
D02*
G37*
G36*
X153670Y45567D02*
Y41910D01*
X157327D01*
X157185Y42622D01*
X156062Y44303D01*
X154382Y45425D01*
X153670Y45567D01*
D02*
G37*
G36*
X151130D02*
X150418Y45425D01*
X148737Y44303D01*
X147615Y42622D01*
X147473Y41910D01*
X151130D01*
Y45567D01*
D02*
G37*
G36*
X-364500Y44144D02*
X-366086Y43828D01*
X-367430Y42930D01*
X-368328Y41586D01*
X-368644Y40000D01*
X-368328Y38414D01*
X-367430Y37070D01*
X-366086Y36172D01*
X-364500Y35856D01*
X-362914Y36172D01*
X-361570Y37070D01*
X-360672Y38414D01*
X-360356Y40000D01*
X-360672Y41586D01*
X-361570Y42930D01*
X-362914Y43828D01*
X-364500Y44144D01*
D02*
G37*
G36*
X157327Y39370D02*
X153670D01*
Y35713D01*
X154382Y35855D01*
X156062Y36978D01*
X157185Y38658D01*
X157327Y39370D01*
D02*
G37*
G36*
X151130D02*
X147473D01*
X147615Y38658D01*
X148737Y36978D01*
X150418Y35855D01*
X151130Y35713D01*
Y39370D01*
D02*
G37*
G36*
X295237Y35464D02*
X294763D01*
X294731Y35451D01*
X294698Y35463D01*
X294225Y35445D01*
X294193Y35430D01*
X294160Y35441D01*
X293688Y35404D01*
X293657Y35388D01*
X293623Y35397D01*
X293153Y35342D01*
X293122Y35325D01*
X293088Y35333D01*
X292620Y35259D01*
X292591Y35240D01*
X292557Y35247D01*
X292092Y35155D01*
X292063Y35136D01*
X292029Y35141D01*
X291568Y35030D01*
X291540Y35010D01*
X291505Y35014D01*
X291049Y34885D01*
X291022Y34864D01*
X290987Y34866D01*
X290536Y34720D01*
X290510Y34697D01*
X290475Y34699D01*
X290031Y34535D01*
X290005Y34511D01*
X289970D01*
X289533Y34330D01*
X289508Y34305D01*
X289473Y34304D01*
X289043Y34106D01*
X289019Y34080D01*
X288985Y34077D01*
X288563Y33862D01*
X288540Y33836D01*
X288505Y33832D01*
X288092Y33600D01*
X288070Y33573D01*
X288036Y33567D01*
X287632Y33320D01*
X287612Y33292D01*
X287577Y33285D01*
X287183Y33022D01*
X287164Y32993D01*
X287130Y32985D01*
X286747Y32706D01*
X286729Y32676D01*
X286695Y32667D01*
X286323Y32373D01*
X286306Y32343D01*
X286273Y32332D01*
X285913Y32025D01*
X285897Y31994D01*
X285864Y31982D01*
X285516Y31660D01*
X285502Y31628D01*
X285470Y31615D01*
X285135Y31280D01*
X285121Y31248D01*
X285090Y31233D01*
X284768Y30885D01*
X284756Y30853D01*
X284725Y30837D01*
X284417Y30477D01*
X284407Y30444D01*
X284376Y30427D01*
X284083Y30055D01*
X284074Y30021D01*
X284044Y30003D01*
X283765Y29620D01*
X283757Y29586D01*
X283728Y29566D01*
X283465Y29172D01*
X283458Y29138D01*
X283430Y29118D01*
X283183Y28714D01*
X283177Y28679D01*
X283150Y28658D01*
X282918Y28245D01*
X282914Y28210D01*
X282888Y28187D01*
X282673Y27765D01*
X282670Y27731D01*
X282644Y27707D01*
X282446Y27277D01*
X282444Y27242D01*
X282420Y27217D01*
X282239Y26779D01*
Y26745D01*
X282215Y26719D01*
X282051Y26274D01*
X282052Y26240D01*
X282030Y26213D01*
X281883Y25763D01*
X281886Y25728D01*
X281864Y25701D01*
X281736Y25245D01*
X281740Y25210D01*
X281720Y25182D01*
X281609Y24721D01*
X281614Y24687D01*
X281595Y24658D01*
X281503Y24193D01*
X281509Y24159D01*
X281491Y24130D01*
X281417Y23661D01*
X281425Y23628D01*
X281408Y23597D01*
X281353Y23127D01*
X281362Y23093D01*
X281346Y23062D01*
X281309Y22590D01*
X281320Y22557D01*
X281305Y22525D01*
X281287Y22052D01*
X281299Y22019D01*
X281285Y21987D01*
Y21513D01*
X281299Y21481D01*
X281287Y21448D01*
X281305Y20975D01*
X281320Y20943D01*
X281309Y20910D01*
X281346Y20438D01*
X281362Y20407D01*
X281353Y20373D01*
X281408Y19903D01*
X281425Y19872D01*
X281417Y19839D01*
X281491Y19370D01*
X281509Y19341D01*
X281503Y19307D01*
X281595Y18842D01*
X281614Y18813D01*
X281609Y18779D01*
X281720Y18318D01*
X281740Y18290D01*
X281736Y18255D01*
X281864Y17799D01*
X281886Y17772D01*
X281883Y17737D01*
X282030Y17287D01*
X282052Y17260D01*
X282051Y17225D01*
X282215Y16781D01*
X282239Y16755D01*
Y16720D01*
X282420Y16283D01*
X282444Y16258D01*
X282446Y16223D01*
X282644Y15793D01*
X282670Y15769D01*
X282673Y15735D01*
X282888Y15313D01*
X282914Y15290D01*
X282918Y15255D01*
X283150Y14842D01*
X283177Y14820D01*
X283183Y14786D01*
X283430Y14382D01*
X283458Y14362D01*
X283465Y14327D01*
X283728Y13934D01*
X283757Y13914D01*
X283765Y13880D01*
X284044Y13497D01*
X284074Y13479D01*
X284083Y13445D01*
X284376Y13073D01*
X284407Y13056D01*
X284417Y13023D01*
X284725Y12663D01*
X284756Y12647D01*
X284768Y12615D01*
X285090Y12266D01*
X285121Y12252D01*
X285135Y12220D01*
X285470Y11885D01*
X285502Y11872D01*
X285516Y11840D01*
X285864Y11518D01*
X285897Y11506D01*
X285913Y11475D01*
X286273Y11167D01*
X286306Y11157D01*
X286323Y11126D01*
X286695Y10833D01*
X286729Y10824D01*
X286747Y10794D01*
X287130Y10515D01*
X287164Y10507D01*
X287183Y10478D01*
X287577Y10215D01*
X287612Y10208D01*
X287632Y10180D01*
X288036Y9933D01*
X288070Y9927D01*
X288092Y9900D01*
X288505Y9668D01*
X288540Y9664D01*
X288563Y9638D01*
X288985Y9423D01*
X289019Y9420D01*
X289043Y9394D01*
X289473Y9196D01*
X289508Y9195D01*
X289533Y9170D01*
X289970Y8989D01*
X290005D01*
X290031Y8965D01*
X290475Y8801D01*
X290510Y8802D01*
X290536Y8780D01*
X290987Y8633D01*
X291022Y8636D01*
X291049Y8615D01*
X291505Y8486D01*
X291540Y8490D01*
X291568Y8470D01*
X292029Y8359D01*
X292063Y8364D01*
X292092Y8345D01*
X292557Y8253D01*
X292591Y8260D01*
X292620Y8241D01*
X293088Y8167D01*
X293122Y8175D01*
X293153Y8158D01*
X293623Y8103D01*
X293657Y8112D01*
X293688Y8096D01*
X294160Y8059D01*
X294193Y8070D01*
X294225Y8055D01*
X294698Y8037D01*
X294731Y8049D01*
X294763Y8035D01*
X295237D01*
X295269Y8049D01*
X295302Y8037D01*
X295775Y8055D01*
X295807Y8070D01*
X295840Y8059D01*
X296312Y8096D01*
X296343Y8112D01*
X296376Y8103D01*
X296847Y8158D01*
X296877Y8175D01*
X296911Y8167D01*
X297379Y8241D01*
X297409Y8260D01*
X297443Y8253D01*
X297908Y8345D01*
X297937Y8364D01*
X297971Y8359D01*
X298432Y8470D01*
X298460Y8490D01*
X298495Y8486D01*
X298951Y8615D01*
X298978Y8636D01*
X299013Y8633D01*
X299463Y8780D01*
X299490Y8802D01*
X299524Y8801D01*
X299969Y8965D01*
X299995Y8989D01*
X300029D01*
X300467Y9170D01*
X300492Y9195D01*
X300527Y9196D01*
X300957Y9394D01*
X300980Y9420D01*
X301015Y9423D01*
X301437Y9638D01*
X301460Y9664D01*
X301494Y9668D01*
X301908Y9900D01*
X301929Y9927D01*
X301964Y9933D01*
X302368Y10180D01*
X302388Y10208D01*
X302422Y10215D01*
X302816Y10478D01*
X302836Y10507D01*
X302869Y10515D01*
X303253Y10794D01*
X303271Y10824D01*
X303305Y10833D01*
X303677Y11126D01*
X303694Y11157D01*
X303727Y11167D01*
X304087Y11475D01*
X304103Y11506D01*
X304135Y11518D01*
X304483Y11840D01*
X304498Y11872D01*
X304530Y11885D01*
X304865Y12220D01*
X304878Y12252D01*
X304910Y12266D01*
X305232Y12615D01*
X305244Y12647D01*
X305275Y12663D01*
X305582Y13023D01*
X305593Y13056D01*
X305623Y13073D01*
X305917Y13445D01*
X305926Y13479D01*
X305956Y13497D01*
X306234Y13880D01*
X306243Y13914D01*
X306271Y13934D01*
X306535Y14327D01*
X306542Y14362D01*
X306570Y14382D01*
X306817Y14786D01*
X306823Y14820D01*
X306850Y14842D01*
X307082Y15255D01*
X307086Y15290D01*
X307112Y15313D01*
X307327Y15735D01*
X307330Y15769D01*
X307355Y15793D01*
X307554Y16223D01*
X307555Y16258D01*
X307580Y16283D01*
X307761Y16720D01*
Y16755D01*
X307785Y16781D01*
X307949Y17225D01*
X307947Y17260D01*
X307970Y17287D01*
X308116Y17737D01*
X308114Y17772D01*
X308135Y17799D01*
X308264Y18255D01*
X308260Y18290D01*
X308280Y18318D01*
X308391Y18779D01*
X308385Y18813D01*
X308405Y18842D01*
X308497Y19307D01*
X308490Y19341D01*
X308509Y19370D01*
X308583Y19839D01*
X308575Y19872D01*
X308592Y19903D01*
X308647Y20373D01*
X308638Y20407D01*
X308654Y20438D01*
X308691Y20910D01*
X308680Y20943D01*
X308695Y20975D01*
X308713Y21448D01*
X308701Y21481D01*
X308715Y21513D01*
Y21987D01*
X308701Y22019D01*
X308713Y22052D01*
X308695Y22525D01*
X308680Y22557D01*
X308691Y22590D01*
X308654Y23062D01*
X308638Y23093D01*
X308647Y23127D01*
X308592Y23597D01*
X308575Y23628D01*
X308583Y23661D01*
X308509Y24130D01*
X308490Y24159D01*
X308497Y24193D01*
X308405Y24658D01*
X308385Y24687D01*
X308391Y24721D01*
X308280Y25182D01*
X308260Y25210D01*
X308264Y25245D01*
X308135Y25701D01*
X308114Y25728D01*
X308116Y25763D01*
X307970Y26213D01*
X307947Y26240D01*
X307949Y26274D01*
X307785Y26719D01*
X307761Y26745D01*
Y26779D01*
X307580Y27217D01*
X307555Y27242D01*
X307554Y27277D01*
X307355Y27707D01*
X307330Y27731D01*
X307327Y27765D01*
X307112Y28187D01*
X307086Y28210D01*
X307082Y28245D01*
X306850Y28658D01*
X306823Y28679D01*
X306817Y28714D01*
X306570Y29118D01*
X306542Y29138D01*
X306535Y29172D01*
X306271Y29566D01*
X306243Y29586D01*
X306234Y29619D01*
X305956Y30003D01*
X305926Y30021D01*
X305917Y30055D01*
X305623Y30427D01*
X305593Y30444D01*
X305582Y30477D01*
X305275Y30837D01*
X305244Y30853D01*
X305232Y30885D01*
X304910Y31233D01*
X304878Y31248D01*
X304865Y31280D01*
X304530Y31615D01*
X304498Y31628D01*
X304483Y31660D01*
X304135Y31982D01*
X304103Y31994D01*
X304087Y32025D01*
X303727Y32332D01*
X303694Y32343D01*
X303677Y32373D01*
X303305Y32667D01*
X303271Y32676D01*
X303253Y32706D01*
X302869Y32985D01*
X302836Y32993D01*
X302816Y33022D01*
X302422Y33285D01*
X302388Y33292D01*
X302368Y33320D01*
X301964Y33567D01*
X301929Y33573D01*
X301908Y33600D01*
X301494Y33832D01*
X301460Y33836D01*
X301437Y33862D01*
X301015Y34077D01*
X300980Y34080D01*
X300957Y34106D01*
X300527Y34304D01*
X300492Y34305D01*
X300467Y34330D01*
X300029Y34511D01*
X299995D01*
X299969Y34535D01*
X299524Y34699D01*
X299490Y34697D01*
X299463Y34720D01*
X299013Y34866D01*
X298978Y34864D01*
X298951Y34885D01*
X298495Y35014D01*
X298460Y35010D01*
X298432Y35030D01*
X297971Y35141D01*
X297937Y35136D01*
X297908Y35155D01*
X297443Y35247D01*
X297409Y35240D01*
X297379Y35259D01*
X296911Y35333D01*
X296877Y35325D01*
X296847Y35342D01*
X296376Y35397D01*
X296343Y35388D01*
X296312Y35404D01*
X295840Y35441D01*
X295807Y35430D01*
X295775Y35445D01*
X295302Y35463D01*
X295269Y35451D01*
X295237Y35464D01*
D02*
G37*
G36*
X-105476Y74024D02*
X-118524D01*
Y55976D01*
X-114331D01*
Y31524D01*
X-117024D01*
Y19476D01*
X-107476D01*
Y31524D01*
X-109669D01*
Y55976D01*
X-105476D01*
Y74024D01*
D02*
G37*
G36*
X208024Y72524D02*
X194976D01*
Y54476D01*
X199169D01*
Y50065D01*
X186312Y37208D01*
X185807Y36452D01*
X185629Y35560D01*
Y31424D01*
X183186D01*
Y19376D01*
X192734D01*
Y31424D01*
X190291D01*
Y34595D01*
X203148Y47452D01*
X203653Y48208D01*
X203831Y49100D01*
Y54476D01*
X208024D01*
Y72524D01*
D02*
G37*
G36*
X67024Y73024D02*
X53976D01*
Y54976D01*
X58169D01*
Y46465D01*
X54675Y42971D01*
X40255D01*
X39364Y42793D01*
X38607Y42288D01*
X37715Y41395D01*
X37209Y40639D01*
X37032Y39747D01*
Y39465D01*
X36822Y39255D01*
X36317Y38499D01*
X36139Y37607D01*
Y31424D01*
X33696D01*
Y19376D01*
X43244D01*
Y31424D01*
X40801D01*
Y36642D01*
X41011Y36852D01*
X41516Y37608D01*
X41656Y38309D01*
X55640D01*
X56532Y38487D01*
X57288Y38992D01*
X62148Y43852D01*
X62653Y44608D01*
X62831Y45500D01*
Y54976D01*
X67024D01*
Y73024D01*
D02*
G37*
G36*
X345562Y25884D02*
X343507Y25613D01*
X341591Y24820D01*
X339946Y23558D01*
X338684Y21913D01*
X337891Y19998D01*
X337620Y17942D01*
X337891Y15886D01*
X338684Y13971D01*
X339946Y12326D01*
X341591Y11064D01*
X343507Y10271D01*
X345562Y10000D01*
X347617Y10271D01*
X349533Y11064D01*
X351178Y12326D01*
X352440Y13971D01*
X353233Y15886D01*
X353504Y17942D01*
X353233Y19998D01*
X352440Y21913D01*
X351178Y23558D01*
X349533Y24820D01*
X347617Y25613D01*
X345562Y25884D01*
D02*
G37*
G36*
X-364500Y12144D02*
X-366086Y11828D01*
X-367430Y10930D01*
X-368328Y9586D01*
X-368644Y8000D01*
X-368328Y6414D01*
X-367430Y5070D01*
X-366086Y4172D01*
X-364500Y3856D01*
X-362914Y4172D01*
X-361570Y5070D01*
X-360672Y6414D01*
X-360356Y8000D01*
X-360672Y9586D01*
X-361570Y10930D01*
X-362914Y11828D01*
X-364500Y12144D01*
D02*
G37*
G36*
X-293300Y-2388D02*
X-295969Y-2739D01*
X-298456Y-3769D01*
X-300592Y-5408D01*
X-302231Y-7544D01*
X-303261Y-10031D01*
X-303612Y-12700D01*
X-303261Y-15369D01*
X-302231Y-17856D01*
X-300592Y-19992D01*
X-298456Y-21631D01*
X-295969Y-22661D01*
X-293300Y-23012D01*
X-290631Y-22661D01*
X-288144Y-21631D01*
X-286008Y-19992D01*
X-284369Y-17856D01*
X-283339Y-15369D01*
X-282988Y-12700D01*
X-283339Y-10031D01*
X-284369Y-7544D01*
X-286008Y-5408D01*
X-288144Y-3769D01*
X-290631Y-2739D01*
X-293300Y-2388D01*
D02*
G37*
G36*
X265230Y-20573D02*
X264518Y-20715D01*
X262838Y-21837D01*
X261715Y-23518D01*
X261573Y-24230D01*
X265230D01*
Y-20573D01*
D02*
G37*
G36*
X84490Y-18700D02*
X77470D01*
Y-25720D01*
X84490D01*
Y-18700D01*
D02*
G37*
G36*
X74930D02*
X67910D01*
Y-25720D01*
X74930D01*
Y-18700D01*
D02*
G37*
G36*
X265230Y-26770D02*
X261573D01*
X261715Y-27482D01*
X262838Y-29162D01*
X264518Y-30285D01*
X265230Y-30427D01*
Y-26770D01*
D02*
G37*
G36*
X236890Y-23780D02*
X229870D01*
Y-30800D01*
X236890D01*
Y-23780D01*
D02*
G37*
G36*
X227330D02*
X220310D01*
Y-30800D01*
X227330D01*
Y-23780D01*
D02*
G37*
G36*
X-364500Y-23356D02*
X-366086Y-23672D01*
X-367430Y-24570D01*
X-368328Y-25914D01*
X-368644Y-27500D01*
X-368328Y-29086D01*
X-367430Y-30430D01*
X-366086Y-31328D01*
X-364500Y-31644D01*
X-362914Y-31328D01*
X-361570Y-30430D01*
X-360672Y-29086D01*
X-360356Y-27500D01*
X-360672Y-25914D01*
X-361570Y-24570D01*
X-362914Y-23672D01*
X-364500Y-23356D01*
D02*
G37*
G36*
X299932Y-30658D02*
Y-34290D01*
X303542D01*
Y-30658D01*
X299932D01*
D02*
G37*
G36*
X-67910Y-28860D02*
X-74930D01*
Y-35880D01*
X-67910D01*
Y-28860D01*
D02*
G37*
G36*
X-77470D02*
X-84490D01*
Y-35880D01*
X-77470D01*
Y-28860D01*
D02*
G37*
G36*
X267770Y-20573D02*
Y-25500D01*
Y-30427D01*
X268482Y-30285D01*
X270163Y-29162D01*
X270180Y-29136D01*
X273201Y-28696D01*
X273627Y-29032D01*
X273797Y-31935D01*
X273062Y-32670D01*
X272556Y-33426D01*
X272534Y-33539D01*
X271040Y-35460D01*
X267770D01*
Y-40500D01*
Y-45540D01*
X271040D01*
Y-44524D01*
X278024D01*
Y-36476D01*
X278024D01*
X278281Y-34043D01*
X278648Y-33676D01*
X279153Y-32919D01*
X279331Y-32028D01*
Y-28830D01*
X279930Y-28430D01*
X280828Y-27086D01*
X281144Y-25500D01*
X280828Y-23914D01*
X279930Y-22570D01*
X278586Y-21672D01*
X277000Y-21356D01*
X275414Y-21672D01*
X274070Y-22570D01*
X273772Y-23016D01*
X272937Y-23184D01*
X270977Y-23027D01*
X270950Y-23016D01*
X270163Y-21837D01*
X268482Y-20715D01*
X267770Y-20573D01*
D02*
G37*
G36*
X265230Y-35460D02*
X261960D01*
Y-39230D01*
X265230D01*
Y-35460D01*
D02*
G37*
G36*
X84490Y-28260D02*
X67910D01*
Y-35280D01*
X70849D01*
X70858Y-35289D01*
X71975Y-37820D01*
X71415Y-38658D01*
X71273Y-39370D01*
X81127D01*
X80985Y-38658D01*
X80425Y-37820D01*
X81542Y-35289D01*
X81551Y-35280D01*
X84490D01*
Y-28260D01*
D02*
G37*
G36*
X303542Y-36830D02*
X299932D01*
Y-40462D01*
X303542D01*
Y-36830D01*
D02*
G37*
G36*
X236890Y-33340D02*
X220310D01*
Y-40360D01*
X223249D01*
X223258Y-40368D01*
X224375Y-42900D01*
X223815Y-43738D01*
X223673Y-44450D01*
X233527D01*
X233385Y-43738D01*
X232825Y-42900D01*
X233942Y-40368D01*
X233951Y-40360D01*
X236890D01*
Y-33340D01*
D02*
G37*
G36*
X265230Y-41770D02*
X261960D01*
Y-45540D01*
X265230D01*
Y-41770D01*
D02*
G37*
G36*
X81127Y-41910D02*
X77470D01*
Y-45567D01*
X78182Y-45425D01*
X79862Y-44303D01*
X80985Y-42622D01*
X81127Y-41910D01*
D02*
G37*
G36*
X74930D02*
X71273D01*
X71415Y-42622D01*
X72537Y-44303D01*
X74218Y-45425D01*
X74930Y-45567D01*
Y-41910D01*
D02*
G37*
G36*
X-354000Y-40356D02*
X-355586Y-40672D01*
X-356930Y-41570D01*
X-357828Y-42914D01*
X-358144Y-44500D01*
X-357828Y-46086D01*
X-356930Y-47430D01*
X-355586Y-48328D01*
X-354000Y-48644D01*
X-352414Y-48328D01*
X-351070Y-47430D01*
X-350172Y-46086D01*
X-349856Y-44500D01*
X-350172Y-42914D01*
X-351070Y-41570D01*
X-352414Y-40672D01*
X-354000Y-40356D01*
D02*
G37*
G36*
X-67910Y-38420D02*
X-84490D01*
Y-45440D01*
X-81551D01*
X-81542Y-45448D01*
X-80425Y-47980D01*
X-80985Y-48818D01*
X-81127Y-49530D01*
X-71273D01*
X-71415Y-48818D01*
X-71975Y-47980D01*
X-70858Y-45448D01*
X-70849Y-45440D01*
X-67910D01*
Y-38420D01*
D02*
G37*
G36*
X233527Y-46990D02*
X229870D01*
Y-50647D01*
X230582Y-50505D01*
X232262Y-49383D01*
X233385Y-47702D01*
X233527Y-46990D01*
D02*
G37*
G36*
X227330D02*
X223673D01*
X223815Y-47702D01*
X224937Y-49383D01*
X226618Y-50505D01*
X227330Y-50647D01*
Y-46990D01*
D02*
G37*
G36*
X-71273Y-52070D02*
X-74930D01*
Y-55727D01*
X-74218Y-55585D01*
X-72537Y-54462D01*
X-71415Y-52782D01*
X-71273Y-52070D01*
D02*
G37*
G36*
X-77470D02*
X-81127D01*
X-80985Y-52782D01*
X-79862Y-54462D01*
X-78182Y-55585D01*
X-77470Y-55727D01*
Y-52070D01*
D02*
G37*
G36*
X272980Y-60710D02*
X266960D01*
Y-63980D01*
X272980D01*
Y-60710D01*
D02*
G37*
G36*
X246208Y-67098D02*
X242598D01*
Y-70730D01*
X246208D01*
Y-67098D01*
D02*
G37*
G36*
Y-73270D02*
X242598D01*
Y-76902D01*
X246208D01*
Y-73270D01*
D02*
G37*
G36*
X-293300Y-78588D02*
X-295969Y-78939D01*
X-298456Y-79969D01*
X-300592Y-81608D01*
X-302231Y-83744D01*
X-303261Y-86231D01*
X-303612Y-88900D01*
X-303261Y-91569D01*
X-302231Y-94056D01*
X-300592Y-96192D01*
X-298456Y-97831D01*
X-295969Y-98861D01*
X-293300Y-99212D01*
X-290631Y-98861D01*
X-288144Y-97831D01*
X-286008Y-96192D01*
X-284369Y-94056D01*
X-283339Y-91569D01*
X-282988Y-88900D01*
X-283339Y-86231D01*
X-284369Y-83744D01*
X-286008Y-81608D01*
X-288144Y-79969D01*
X-290631Y-78939D01*
X-293300Y-78588D01*
D02*
G37*
G36*
Y-103988D02*
X-295969Y-104339D01*
X-298456Y-105369D01*
X-300592Y-107008D01*
X-302231Y-109144D01*
X-303261Y-111631D01*
X-303612Y-114300D01*
X-303261Y-116969D01*
X-302231Y-119456D01*
X-300592Y-121592D01*
X-298456Y-123231D01*
X-295969Y-124261D01*
X-293300Y-124612D01*
X-290631Y-124261D01*
X-288144Y-123231D01*
X-286008Y-121592D01*
X-284369Y-119456D01*
X-283339Y-116969D01*
X-282988Y-114300D01*
X-283339Y-111631D01*
X-284369Y-109144D01*
X-286008Y-107008D01*
X-288144Y-105369D01*
X-290631Y-104339D01*
X-293300Y-103988D01*
D02*
G37*
G36*
X-318700D02*
X-321369Y-104339D01*
X-323856Y-105369D01*
X-325992Y-107008D01*
X-327631Y-109144D01*
X-328661Y-111631D01*
X-329012Y-114300D01*
X-328661Y-116969D01*
X-327631Y-119456D01*
X-325992Y-121592D01*
X-323856Y-123231D01*
X-321369Y-124261D01*
X-318700Y-124612D01*
X-316031Y-124261D01*
X-313544Y-123231D01*
X-311408Y-121592D01*
X-309769Y-119456D01*
X-308739Y-116969D01*
X-308388Y-114300D01*
X-308739Y-111631D01*
X-309769Y-109144D01*
X-311408Y-107008D01*
X-313544Y-105369D01*
X-316031Y-104339D01*
X-318700Y-103988D01*
D02*
G37*
G36*
X58074Y-19716D02*
X43526D01*
Y-34264D01*
X48469D01*
Y-124734D01*
X45535Y-127669D01*
X41524D01*
Y-118476D01*
X18476D01*
Y-141524D01*
X41524D01*
Y-132331D01*
X46500D01*
X47392Y-132153D01*
X48148Y-131648D01*
X52448Y-127348D01*
X52953Y-126592D01*
X53131Y-125700D01*
Y-34264D01*
X58074D01*
Y-19716D01*
D02*
G37*
G36*
X-94326Y-29876D02*
X-108874D01*
Y-44424D01*
X-103931D01*
Y-123135D01*
X-108465Y-127669D01*
X-118476D01*
Y-118476D01*
X-141524D01*
Y-141524D01*
X-118476D01*
Y-132331D01*
X-107500D01*
X-106608Y-132153D01*
X-105852Y-131648D01*
X-99952Y-125748D01*
X-99447Y-124992D01*
X-99269Y-124100D01*
Y-44424D01*
X-94326D01*
Y-29876D01*
D02*
G37*
G36*
X210474Y-24796D02*
X195926D01*
Y-39344D01*
X200869D01*
Y-47335D01*
X188352Y-59852D01*
X187847Y-60608D01*
X187669Y-61500D01*
Y-118476D01*
X178476D01*
Y-141524D01*
X201524D01*
Y-118476D01*
X192331D01*
Y-62465D01*
X204848Y-49948D01*
X205353Y-49192D01*
X205531Y-48300D01*
Y-39344D01*
X210474D01*
Y-24796D01*
D02*
G37*
G36*
X-309000Y-226432D02*
X-311131Y-226856D01*
X-312937Y-228063D01*
X-314144Y-229869D01*
X-314568Y-232000D01*
X-314144Y-234131D01*
X-312937Y-235937D01*
X-311131Y-237144D01*
X-309000Y-237568D01*
X-306869Y-237144D01*
X-305063Y-235937D01*
X-303856Y-234131D01*
X-303432Y-232000D01*
X-303856Y-229869D01*
X-305063Y-228063D01*
X-306869Y-226856D01*
X-309000Y-226432D01*
D02*
G37*
G36*
X348540Y-237960D02*
X344020D01*
Y-243730D01*
X348540D01*
Y-237960D01*
D02*
G37*
G36*
X341480D02*
X336960D01*
Y-243730D01*
X341480D01*
Y-237960D01*
D02*
G37*
G36*
X348540Y-246270D02*
X344020D01*
Y-252040D01*
X348540D01*
Y-246270D01*
D02*
G37*
G36*
X341480D02*
X336960D01*
Y-252040D01*
X341480D01*
Y-246270D01*
D02*
G37*
G36*
X18674Y-268576D02*
X-18674D01*
Y-276669D01*
X-24943D01*
X-25622Y-275029D01*
X-26884Y-273384D01*
X-28529Y-272122D01*
X-30445Y-271329D01*
X-32500Y-271058D01*
X-34555Y-271329D01*
X-36471Y-272122D01*
X-38116Y-273384D01*
X-39378Y-275029D01*
X-40171Y-276945D01*
X-40442Y-279000D01*
X-40171Y-281056D01*
X-39378Y-282971D01*
X-38116Y-284616D01*
X-36471Y-285878D01*
X-34555Y-286671D01*
X-32500Y-286942D01*
X-30445Y-286671D01*
X-28529Y-285878D01*
X-26884Y-284616D01*
X-25622Y-282971D01*
X-24943Y-281331D01*
X-18674D01*
Y-289424D01*
X18674D01*
Y-268576D01*
D02*
G37*
G36*
X304800Y-273179D02*
X299853Y-273568D01*
X295028Y-274726D01*
X290444Y-276625D01*
X286213Y-279218D01*
X282440Y-282440D01*
X279218Y-286213D01*
X276625Y-290444D01*
X274726Y-295028D01*
X273568Y-299853D01*
X273179Y-304800D01*
X273568Y-309747D01*
X274726Y-314572D01*
X276625Y-319156D01*
X279218Y-323387D01*
X282440Y-327160D01*
X286213Y-330382D01*
X290444Y-332975D01*
X295028Y-334874D01*
X299853Y-336032D01*
X304800Y-336422D01*
X309747Y-336032D01*
X314572Y-334874D01*
X319156Y-332975D01*
X323387Y-330382D01*
X327160Y-327160D01*
X330382Y-323387D01*
X332975Y-319156D01*
X334874Y-314572D01*
X336032Y-309747D01*
X336422Y-304800D01*
X336032Y-299853D01*
X334874Y-295028D01*
X332975Y-290444D01*
X330382Y-286213D01*
X327160Y-282440D01*
X323387Y-279218D01*
X319156Y-276625D01*
X314572Y-274726D01*
X309747Y-273568D01*
X304800Y-273179D01*
D02*
G37*
G36*
X-304800D02*
X-309747Y-273568D01*
X-314572Y-274726D01*
X-319156Y-276625D01*
X-323387Y-279218D01*
X-327160Y-282440D01*
X-330382Y-286213D01*
X-332975Y-290444D01*
X-334874Y-295028D01*
X-336032Y-299853D01*
X-336422Y-304800D01*
X-336032Y-309747D01*
X-334874Y-314572D01*
X-332975Y-319156D01*
X-330382Y-323387D01*
X-327160Y-327160D01*
X-323387Y-330382D01*
X-319156Y-332975D01*
X-314572Y-334874D01*
X-309747Y-336032D01*
X-304800Y-336422D01*
X-299853Y-336032D01*
X-295028Y-334874D01*
X-290444Y-332975D01*
X-286213Y-330382D01*
X-282440Y-327160D01*
X-279218Y-323387D01*
X-276625Y-319156D01*
X-274726Y-314572D01*
X-273568Y-309747D01*
X-273179Y-304800D01*
X-273568Y-299853D01*
X-274726Y-295028D01*
X-276625Y-290444D01*
X-279218Y-286213D01*
X-282440Y-282440D01*
X-286213Y-279218D01*
X-290444Y-276625D01*
X-295028Y-274726D01*
X-299853Y-273568D01*
X-304800Y-273179D01*
D02*
G37*
G36*
X-355600Y-338996D02*
X-358839Y-339315D01*
X-361954Y-340260D01*
X-364825Y-341794D01*
X-367341Y-343859D01*
X-369406Y-346375D01*
X-370940Y-349246D01*
X-371885Y-352361D01*
X-372204Y-355600D01*
X-371885Y-358839D01*
X-370940Y-361954D01*
X-369406Y-364825D01*
X-367341Y-367341D01*
X-364825Y-369406D01*
X-361954Y-370940D01*
X-358839Y-371885D01*
X-355600Y-372204D01*
X-352361Y-371885D01*
X-349246Y-370940D01*
X-346375Y-369406D01*
X-343859Y-367341D01*
X-341794Y-364825D01*
X-340260Y-361954D01*
X-339315Y-358839D01*
X-338996Y-355600D01*
X-339315Y-352361D01*
X-340260Y-349246D01*
X-341794Y-346375D01*
X-343859Y-343859D01*
X-346375Y-341794D01*
X-349246Y-340260D01*
X-352361Y-339315D01*
X-355600Y-338996D01*
D02*
G37*
G36*
X355770Y-86073D02*
Y-89730D01*
X359427D01*
X359285Y-89018D01*
X358162Y-87338D01*
X356482Y-86215D01*
X355770Y-86073D01*
D02*
G37*
G36*
X353230D02*
X352518Y-86215D01*
X350838Y-87338D01*
X349715Y-89018D01*
X349573Y-89730D01*
X353230D01*
Y-86073D01*
D02*
G37*
G36*
X359427Y-92270D02*
X349573D01*
X349715Y-92982D01*
X350838Y-94663D01*
X350939Y-94730D01*
X351460Y-95460D01*
Y-101230D01*
X357250D01*
X363040D01*
Y-95460D01*
X360684D01*
X359286Y-92984D01*
X359298Y-92920D01*
X359427Y-92270D01*
D02*
G37*
%LPD*%
D11*
X-51199Y167241D02*
Y192641D01*
X-50800Y193040D01*
X-101600Y116840D02*
X-51199Y167241D01*
X-101600Y89200D02*
Y116840D01*
X299720Y304800D02*
X304800Y309880D01*
X233100Y304800D02*
X289560D01*
X299720D01*
X264160Y330200D02*
X289560Y304800D01*
X240350Y330200D02*
X264160D01*
D19*
X301874Y158150D02*
D03*
X317114D02*
D03*
X301874Y145450D02*
D03*
X317114D02*
D03*
X301874Y132750D02*
D03*
X317114D02*
D03*
X301874Y120050D02*
D03*
X317114D02*
D03*
X301874Y107350D02*
D03*
X317114D02*
D03*
X301874Y94650D02*
D03*
X317114D02*
D03*
X301874Y81950D02*
D03*
X317114D02*
D03*
X301874Y69250D02*
D03*
X317114D02*
D03*
X301874Y56550D02*
D03*
X317114D02*
D03*
X301874Y43850D02*
D03*
X317114D02*
D03*
D20*
X76200Y-3490D02*
D03*
Y-26990D02*
D03*
X50800Y-3490D02*
D03*
Y-26990D02*
D03*
X228600Y-32070D02*
D03*
Y-8570D02*
D03*
X-101600Y-37150D02*
D03*
Y-13650D02*
D03*
X203200Y-8570D02*
D03*
Y-32070D02*
D03*
X-76200Y-13650D02*
D03*
Y-37150D02*
D03*
D21*
X342750Y-245000D02*
D03*
X357250D02*
D03*
X-97750Y25500D02*
D03*
X-112250D02*
D03*
X202460Y25400D02*
D03*
X187960D02*
D03*
X38470D02*
D03*
X52970D02*
D03*
X246750Y203200D02*
D03*
X261250D02*
D03*
X357250Y-102500D02*
D03*
X342750D02*
D03*
D22*
X60500Y64000D02*
D03*
Y90000D02*
D03*
X201500Y63500D02*
D03*
Y89500D02*
D03*
X-112000Y65000D02*
D03*
Y91000D02*
D03*
D23*
X0Y0D02*
D03*
Y-279000D02*
D03*
X152400Y0D02*
D03*
X-152400D02*
D03*
D24*
X366375Y-180500D02*
D03*
Y-163500D02*
D03*
D25*
Y-213000D02*
D03*
Y-131000D02*
D03*
D26*
X342875Y-203000D02*
D03*
Y-141000D02*
D03*
D27*
X339625Y-185000D02*
D03*
Y-178500D02*
D03*
Y-172000D02*
D03*
Y-165500D02*
D03*
Y-159000D02*
D03*
D28*
X274250Y-65250D02*
D03*
D29*
Y-71750D02*
D03*
Y-78250D02*
D03*
Y-84750D02*
D03*
X313750D02*
D03*
Y-78250D02*
D03*
Y-71750D02*
D03*
Y-65250D02*
D03*
D30*
X284250Y-94750D02*
D03*
X290750D02*
D03*
X297250D02*
D03*
X303750D02*
D03*
Y-55250D02*
D03*
X297250D02*
D03*
X290750D02*
D03*
X284250D02*
D03*
D31*
X294000Y-75000D02*
D03*
D32*
X331000Y-104000D02*
D03*
X323000D02*
D03*
X274500Y-40500D02*
D03*
X266500D02*
D03*
D33*
X-242500Y121957D02*
D03*
Y130000D02*
D03*
D34*
X287500Y-133521D02*
D03*
Y-124479D02*
D03*
X300500Y-133521D02*
D03*
Y-124479D02*
D03*
D35*
X-25400Y-21734D02*
D03*
Y-29066D02*
D03*
X127000Y-21734D02*
D03*
Y-29066D02*
D03*
X254000Y245834D02*
D03*
Y253166D02*
D03*
X-177800Y-21734D02*
D03*
Y-29066D02*
D03*
D36*
X-190000Y-130000D02*
D03*
X-130000D02*
D03*
X130000D02*
D03*
X190000D02*
D03*
X-30000D02*
D03*
X30000D02*
D03*
X-110000Y220000D02*
D03*
X-50000D02*
D03*
X50000D02*
D03*
X110000D02*
D03*
D37*
X345500Y-230000D02*
D03*
X354500D02*
D03*
Y-114000D02*
D03*
X345500D02*
D03*
D38*
X233100Y304800D02*
D03*
X224100D02*
D03*
D39*
X92566Y133350D02*
D03*
X85234D02*
D03*
D40*
X216850Y330200D02*
D03*
X240350D02*
D03*
D41*
X130000Y159750D02*
D03*
Y145250D02*
D03*
D42*
X330000Y-86000D02*
D03*
Y-78000D02*
D03*
D43*
X298661Y-35560D02*
D03*
X290618D02*
D03*
X255522Y-72000D02*
D03*
X247479D02*
D03*
X-313521Y-192500D02*
D03*
X-305478D02*
D03*
D60*
X-293300Y-114300D02*
D03*
Y-88900D02*
D03*
Y-63500D02*
D03*
Y-38100D02*
D03*
Y-12700D02*
D03*
Y12700D02*
D03*
Y38100D02*
D03*
Y63500D02*
D03*
Y88900D02*
D03*
Y114300D02*
D03*
X-318700Y-114300D02*
D03*
Y-88900D02*
D03*
Y-63500D02*
D03*
Y-38100D02*
D03*
Y-12700D02*
D03*
Y12700D02*
D03*
Y38100D02*
D03*
Y63500D02*
D03*
Y88900D02*
D03*
D61*
Y114300D02*
D03*
D62*
X295000Y180250D02*
D03*
Y21750D02*
D03*
D64*
X360069Y-72347D02*
X360069Y-72346D01*
X297250Y-115250D02*
X300500Y-118500D01*
X297250Y-115250D02*
Y-94750D01*
X300500Y-124479D02*
Y-118500D01*
X287500Y-124479D02*
Y-118500D01*
X290750Y-115250D02*
Y-94750D01*
X287500Y-118500D02*
X290750Y-115250D01*
X298953Y117129D02*
X301874Y120050D01*
X289926Y114000D02*
X293055Y117129D01*
X298953D01*
X289000Y114000D02*
X289926D01*
X295500Y-154500D02*
X306500Y-165500D01*
X339625D01*
X307500Y-172000D02*
X339625D01*
X292000Y-156500D02*
X307500Y-172000D01*
X292000Y-156500D02*
Y-143500D01*
X295500Y-144000D02*
X300607Y-138893D01*
X295500Y-154500D02*
Y-144000D01*
X287500Y-139000D02*
X292000Y-143500D01*
X354500Y-100607D02*
Y-91000D01*
X355393Y-101500D02*
X359750D01*
X354500Y-100607D02*
X355393Y-101500D01*
X342750Y-103750D02*
Y-102500D01*
X345500Y-114000D02*
Y-106500D01*
X342750Y-103750D02*
X345500Y-106500D01*
X354500Y-242250D02*
X357250Y-245000D01*
X354500Y-242250D02*
Y-230000D01*
X203200Y89200D02*
Y106680D01*
X249000Y152000D02*
Y153000D01*
X242450Y145450D02*
X249000Y152000D01*
Y138000D02*
X254250Y132750D01*
X243750D02*
X249000Y138000D01*
X219110Y132750D02*
X243750D01*
X254250D02*
X301874D01*
X240000Y158000D02*
X302032D01*
X183400D02*
X240000D01*
X137160Y111760D02*
X183400Y158000D01*
X249000Y152000D02*
X255550Y145450D01*
X196250D02*
X242450D01*
X255550D02*
X301874D01*
X213360Y127000D02*
X219110Y132750D01*
X213360Y25400D02*
Y127000D01*
X248920Y-36830D02*
Y33920D01*
X284500Y69500D01*
X317000Y158228D02*
X317228Y158000D01*
X328500D01*
X336000Y26500D02*
Y49500D01*
X290618Y-18881D02*
X336000Y26500D01*
X290618Y-35560D02*
Y-18881D01*
X329000Y56500D02*
X336000Y49500D01*
X248920Y-36830D02*
X255500Y-43410D01*
Y-72090D02*
Y-43410D01*
Y-72090D02*
X274190D01*
X330830Y-104580D02*
X331000Y-104750D01*
Y-111500D02*
Y-104750D01*
X365169Y-114000D02*
X368000Y-111169D01*
X354702Y-114000D02*
X365169D01*
X-30000Y-71451D02*
X-25500Y-66951D01*
X-30000Y-130000D02*
Y-71451D01*
X-25500Y-66951D02*
Y-65000D01*
X-112000Y26716D02*
Y63537D01*
Y26716D02*
X-110600Y25315D01*
X130000Y-130000D02*
Y-54500D01*
X127000Y-51500D02*
X130000Y-54500D01*
X127000Y-51500D02*
Y-29066D01*
X254000Y233680D02*
X261250Y226430D01*
Y203200D02*
Y226430D01*
Y203200D02*
X290830D01*
X317000Y158228D02*
Y177030D01*
X290830Y203200D02*
X317000Y177030D01*
X110000Y220000D02*
X125500D01*
X130000Y159750D02*
Y215500D01*
X125500Y220000D02*
X130000Y215500D01*
X72000Y203000D02*
Y216000D01*
X68000Y220000D02*
X72000Y216000D01*
Y137550D02*
Y203000D01*
X50000Y220000D02*
X68000D01*
X-109500Y220500D02*
X-92000D01*
X-110000Y220000D02*
X-109500Y220500D01*
X-110000Y220000D02*
X-107000Y223000D01*
X-107500Y-130000D02*
X-101600Y-124100D01*
X-130000Y-130000D02*
X-107500D01*
X30000D02*
X46500D01*
X50800Y-125700D01*
X130000Y-130000D02*
X130000Y-130000D01*
X317114Y44450D02*
X317164Y44500D01*
X329000D01*
X317114Y57150D02*
X317764Y56500D01*
X329000D01*
X317114Y69850D02*
X317964Y69000D01*
X329000D01*
X76200Y25400D02*
X196250Y145450D01*
X322250Y-159250D02*
X339375D01*
X339625Y-159000D01*
X322000Y-159500D02*
X322250Y-159250D01*
X187960Y35560D02*
X201500Y49100D01*
Y63500D01*
X187960Y25400D02*
Y35560D01*
X60500Y45500D02*
Y64000D01*
X40255Y40640D02*
X55640D01*
X60500Y45500D01*
X39363Y38500D02*
Y39747D01*
X38470Y37607D02*
X39363Y38500D01*
Y39747D02*
X40255Y40640D01*
X38470Y25400D02*
Y37607D01*
X57760Y111760D02*
X137160D01*
X-76200Y25400D02*
X-28600D01*
X57760Y111760D01*
X203200Y-48300D02*
Y-32070D01*
X190000Y-130000D02*
Y-61500D01*
X203200Y-48300D01*
X-190000Y-76500D02*
X-178000Y-64500D01*
X-190000Y-130000D02*
Y-76500D01*
X72000Y137550D02*
X76200Y133350D01*
X-177800Y-64500D02*
Y-29900D01*
X-101600Y-124100D02*
Y-37150D01*
X-1000Y-279000D02*
X-500Y-279500D01*
X-32500Y-279000D02*
X-1000D01*
X277000Y-32028D02*
Y-25500D01*
X274710Y-34318D02*
X277000Y-32028D01*
X334763Y-183762D02*
X336001Y-185000D01*
Y-178500D02*
X339625D01*
X336001Y-185000D02*
X337382D01*
X339625D01*
X325144D02*
X337382D01*
X334763Y-183762D02*
Y-179738D01*
X336001Y-178500D01*
X300607Y-138893D02*
Y-134415D01*
X368000Y-111169D02*
Y-80278D01*
X360069Y-72347D02*
X368000Y-80278D01*
X313900Y-71900D02*
X359622D01*
X360069Y-72346D01*
X278000Y-181000D02*
Y-117000D01*
X284250Y-110750D02*
Y-94750D01*
X278000Y-117000D02*
X284250Y-110750D01*
X278000Y-181000D02*
X326870Y-229870D01*
X347290D01*
X287500Y-139000D02*
Y-133521D01*
X325144Y-185000D02*
X325144Y-185000D01*
X323000Y-104000D02*
Y-87071D01*
X321019Y-85090D02*
X323000Y-87071D01*
X313750Y-71750D02*
X313900Y-71900D01*
X331078Y-91618D02*
X331655D01*
X330000Y-90540D02*
X331078Y-91618D01*
X334038Y-94000D02*
X335000D01*
X331655Y-91618D02*
X334038Y-94000D01*
X330000Y-90540D02*
Y-86000D01*
X335000Y-94000D02*
X335680Y-93320D01*
X314000Y-78000D02*
X339826D01*
X274710Y-39380D02*
Y-34318D01*
X313750Y-78250D02*
X314000Y-78000D01*
X304800Y-104140D02*
X321120D01*
X313690Y-85090D02*
X321019D01*
X303690Y-103030D02*
X304800Y-104140D01*
X303690Y-103030D02*
Y-95090D01*
X293940Y-75340D02*
X303690Y-65590D01*
Y-55590D01*
X290690Y-78590D02*
X293940Y-75340D01*
X274190Y-78590D02*
X290690D01*
X290618Y-35560D02*
X290690Y-35631D01*
Y-55590D02*
Y-35631D01*
X76200Y133350D02*
X84400D01*
X254000Y254000D02*
Y269240D01*
X198120Y330200D02*
X216850D01*
X203200Y304800D02*
X224100D01*
X-76200Y-50800D02*
Y-37150D01*
X-25400Y-64500D02*
Y-29900D01*
X76200Y-40640D02*
Y-26990D01*
X228600Y-45720D02*
Y-32070D01*
X152400Y40640D02*
Y76200D01*
X187960Y111760D02*
X198120D01*
X152400Y76200D02*
X187960Y111760D01*
X198120D02*
X203200Y106680D01*
X-101600Y0D02*
X-76200D01*
X-152400D02*
X-101600D01*
Y-13650D02*
Y0D01*
X-94350Y25400D02*
X-76200D01*
Y0D02*
Y25400D01*
Y-13650D02*
Y0D01*
X-172720D02*
X-152400D01*
X-177800Y-20900D02*
Y-5080D01*
X-172720Y0D01*
X50800Y-125700D02*
Y-26990D01*
Y10955D02*
X76200D01*
X36355D02*
X50800D01*
Y-3490D02*
Y10955D01*
X52970Y25400D02*
X76200D01*
Y10955D02*
Y25400D01*
Y-3490D02*
Y10955D01*
X25400Y0D02*
X36355Y10955D01*
X0Y0D02*
X25400D01*
X-25400Y-5080D02*
X-20320Y0D01*
X0D01*
X-25400Y-20900D02*
Y-5080D01*
X127000D02*
X132080Y0D01*
X152400D01*
X127000Y-20900D02*
Y-5080D01*
X213360Y10160D02*
Y25400D01*
X202460D02*
X213360D01*
Y10160D02*
X223520D01*
X203200D02*
X213360D01*
X193040D02*
X203200D01*
Y-8570D02*
Y10160D01*
X152400Y0D02*
X182880D01*
X193040Y10160D01*
X223520D02*
X228600Y5080D01*
Y-8570D02*
Y5080D01*
Y203200D02*
X246750D01*
X254000Y233680D02*
Y245000D01*
D65*
X-355600Y-355600D02*
D03*
X355600Y330200D02*
D03*
X-355600Y355600D02*
D03*
D66*
X-330400Y88900D02*
X-318700D01*
X-333500Y92000D02*
X-330400Y88900D01*
X-333500Y92000D02*
Y138000D01*
X325369Y133000D02*
X327869Y130500D01*
X317464Y133000D02*
X325369D01*
X327869Y130500D02*
X328500D01*
X317114Y120650D02*
X317764Y120000D01*
X317114Y107950D02*
X317564Y107500D01*
X328500D01*
X317264Y94500D02*
X328500D01*
X317164Y82000D02*
X328500D01*
X-226000Y120000D02*
Y149500D01*
X317764Y120000D02*
X328500D01*
X317114Y145450D02*
X317164Y145500D01*
X328500D01*
X-325500Y146000D02*
X-234000D01*
X-333500Y138000D02*
X-325500Y146000D01*
X-328500Y152500D02*
X-229000D01*
X-340000Y141000D02*
X-328500Y152500D01*
X-340000Y73500D02*
Y141000D01*
X-229000Y152500D02*
X-226000Y149500D01*
X-330000Y63500D02*
X-318700D01*
X-340000Y73500D02*
X-330000Y63500D01*
D67*
X285500Y44000D02*
X300039D01*
D68*
X107950Y133350D02*
X125350D01*
X93400D02*
X107950D01*
X125350D02*
X130000Y138000D01*
Y145250D01*
X-234000Y138478D02*
Y145500D01*
X-242500Y130000D02*
X-242479D01*
X-234000Y138478D01*
X-319200Y-64000D02*
X-318000D01*
X-338000Y-82800D02*
X-319200Y-64000D01*
X-338000Y-180000D02*
Y-82800D01*
X-325500Y-192500D02*
X-313521D01*
X-338000Y-180000D02*
X-325500Y-192500D01*
D69*
X-309000Y-232000D02*
D03*
D70*
X345562Y17942D02*
D03*
X368168D02*
D03*
X345562Y184058D02*
D03*
X368168D02*
D03*
X130000Y-65000D02*
D03*
X-25500D02*
D03*
X-178000D02*
D03*
X-32500Y-279000D02*
D03*
D71*
X304800Y-304800D02*
D03*
Y304800D02*
D03*
X-304800D02*
D03*
Y-304800D02*
D03*
D72*
X289000Y114000D02*
D03*
X354500Y-91000D02*
D03*
X-219500Y101000D02*
D03*
Y88500D02*
D03*
X249000Y153000D02*
D03*
Y138000D02*
D03*
X240000Y158000D02*
D03*
X328500Y130500D02*
D03*
Y158000D02*
D03*
X284500Y69500D02*
D03*
X285500Y44000D02*
D03*
X254500Y169000D02*
D03*
X-211000Y82000D02*
D03*
Y94500D02*
D03*
Y107500D02*
D03*
X331000Y-111500D02*
D03*
X-92000Y220500D02*
D03*
X-226000Y120000D02*
D03*
X329000Y44500D02*
D03*
Y56500D02*
D03*
Y69000D02*
D03*
X328500Y82000D02*
D03*
Y94500D02*
D03*
Y107500D02*
D03*
Y120000D02*
D03*
Y145500D02*
D03*
X322000Y-159500D02*
D03*
X72000Y203000D02*
D03*
X-364500Y-27500D02*
D03*
Y8000D02*
D03*
Y40000D02*
D03*
X-354000Y-44500D02*
D03*
X-336500Y-63500D02*
D03*
X-364500Y74000D02*
D03*
Y106500D02*
D03*
X-364000Y142000D02*
D03*
X-339500Y170500D02*
D03*
X-308500Y171000D02*
D03*
X-275500Y170000D02*
D03*
X87000Y62500D02*
D03*
X-269500Y63500D02*
D03*
X-238500Y64000D02*
D03*
X-205500Y63000D02*
D03*
X-169500D02*
D03*
X-133500D02*
D03*
X-91000Y62500D02*
D03*
X-55000Y62000D02*
D03*
X-10000D02*
D03*
X32500Y62500D02*
D03*
X129500Y63000D02*
D03*
X178500Y63500D02*
D03*
X224500Y63000D02*
D03*
X-234000Y146000D02*
D03*
X277000Y-25500D02*
D03*
X337500Y57000D02*
D03*
Y70000D02*
D03*
Y83000D02*
D03*
Y95000D02*
D03*
Y108000D02*
D03*
Y121000D02*
D03*
X337500Y133500D02*
D03*
X337500Y146000D02*
D03*
X208500Y169500D02*
D03*
X155500Y169000D02*
D03*
X111500Y169500D02*
D03*
X62500Y168500D02*
D03*
X20000Y168000D02*
D03*
X-25000D02*
D03*
X-64000Y168500D02*
D03*
X-103500Y169000D02*
D03*
X-139500D02*
D03*
X-175500D02*
D03*
X-208500Y170000D02*
D03*
X-239500Y169500D02*
D03*
X339826Y-78000D02*
D03*
X335000Y-94000D02*
D03*
X325144Y-185000D02*
D03*
X293940Y-75340D02*
D03*
X266500Y-25500D02*
D03*
X254000Y269240D02*
D03*
X198120Y330200D02*
D03*
X203200Y304800D02*
D03*
X-76200Y-50800D02*
D03*
X76200Y-40640D02*
D03*
X228600Y-45720D02*
D03*
X152400Y40640D02*
D03*
X228600Y203200D02*
D03*
X107950Y133350D02*
D03*
M02*
