G04*
G04 #@! TF.GenerationSoftware,Altium Limited,Altium Designer,24.1.2 (44)*
G04*
G04 Layer_Color=32896*
%FSLAX44Y44*%
%MOMM*%
G71*
G04*
G04 #@! TF.SameCoordinates,4D670051-7F49-4B36-91F3-1F1B1C4DC3BF*
G04*
G04*
G04 #@! TF.FilePolarity,Positive*
G04*
G01*
G75*
%ADD11C,0.2540*%
%ADD15C,0.1778*%
%ADD16C,0.1270*%
%ADD64C,0.1524*%
G36*
X254047Y43030D02*
X254171Y43019D01*
X254287Y43001D01*
X254396Y42975D01*
X254498Y42946D01*
X254592Y42913D01*
X254676Y42881D01*
X254756Y42848D01*
X254825Y42812D01*
X254886Y42779D01*
X254937Y42746D01*
X254981Y42717D01*
X255014Y42695D01*
X255039Y42674D01*
X255054Y42663D01*
X255057Y42659D01*
X255133Y42587D01*
X255199Y42507D01*
X255261Y42423D01*
X255311Y42336D01*
X255359Y42245D01*
X255399Y42154D01*
X255431Y42067D01*
X255460Y41980D01*
X255482Y41900D01*
X255500Y41824D01*
X255515Y41755D01*
X255526Y41697D01*
X255537Y41649D01*
X255540Y41613D01*
Y41599D01*
X255544Y41588D01*
Y41584D01*
Y41580D01*
X254908Y41515D01*
X254905Y41602D01*
X254897Y41682D01*
X254883Y41758D01*
X254868Y41831D01*
X254846Y41896D01*
X254825Y41955D01*
X254799Y42013D01*
X254774Y42060D01*
X254752Y42104D01*
X254727Y42143D01*
X254705Y42176D01*
X254683Y42205D01*
X254669Y42223D01*
X254654Y42242D01*
X254647Y42249D01*
X254643Y42252D01*
X254592Y42300D01*
X254534Y42340D01*
X254476Y42376D01*
X254418Y42409D01*
X254356Y42434D01*
X254298Y42456D01*
X254240Y42474D01*
X254185Y42488D01*
X254131Y42499D01*
X254084Y42507D01*
X254040Y42514D01*
X254000Y42517D01*
X253971Y42521D01*
X253928D01*
X253851Y42517D01*
X253779Y42510D01*
X253710Y42499D01*
X253644Y42481D01*
X253586Y42463D01*
X253528Y42441D01*
X253477Y42420D01*
X253430Y42394D01*
X253390Y42372D01*
X253354Y42347D01*
X253321Y42325D01*
X253296Y42307D01*
X253274Y42289D01*
X253259Y42278D01*
X253252Y42271D01*
X253248Y42267D01*
X253201Y42220D01*
X253161Y42169D01*
X253125Y42118D01*
X253096Y42063D01*
X253070Y42013D01*
X253049Y41962D01*
X253030Y41911D01*
X253016Y41864D01*
X253005Y41820D01*
X252998Y41780D01*
X252990Y41744D01*
X252987Y41711D01*
X252983Y41686D01*
Y41668D01*
Y41653D01*
Y41649D01*
X252987Y41584D01*
X252994Y41519D01*
X253009Y41453D01*
X253027Y41388D01*
X253074Y41261D01*
X253103Y41203D01*
X253129Y41148D01*
X253154Y41097D01*
X253183Y41050D01*
X253205Y41010D01*
X253227Y40974D01*
X253248Y40948D01*
X253263Y40927D01*
X253270Y40912D01*
X253274Y40908D01*
X253332Y40832D01*
X253405Y40749D01*
X253481Y40665D01*
X253568Y40578D01*
X253655Y40487D01*
X253750Y40400D01*
X253840Y40313D01*
X253935Y40229D01*
X254022Y40149D01*
X254105Y40077D01*
X254178Y40008D01*
X254247Y39953D01*
X254302Y39906D01*
X254324Y39888D01*
X254342Y39870D01*
X254356Y39859D01*
X254367Y39848D01*
X254374Y39844D01*
X254378Y39841D01*
X254472Y39761D01*
X254563Y39684D01*
X254647Y39612D01*
X254727Y39543D01*
X254799Y39474D01*
X254865Y39412D01*
X254923Y39354D01*
X254977Y39299D01*
X255028Y39252D01*
X255068Y39209D01*
X255104Y39172D01*
X255133Y39140D01*
X255155Y39114D01*
X255170Y39096D01*
X255181Y39085D01*
X255184Y39081D01*
X255282Y38958D01*
X255366Y38838D01*
X255435Y38726D01*
X255468Y38675D01*
X255493Y38624D01*
X255515Y38580D01*
X255537Y38540D01*
X255555Y38504D01*
X255566Y38471D01*
X255577Y38446D01*
X255584Y38428D01*
X255591Y38417D01*
Y38413D01*
X255616Y38337D01*
X255635Y38261D01*
X255646Y38188D01*
X255653Y38126D01*
X255657Y38068D01*
X255660Y38046D01*
Y38024D01*
Y38010D01*
Y37999D01*
Y37992D01*
Y37988D01*
X252340D01*
Y38580D01*
X254803D01*
X254763Y38642D01*
X254719Y38704D01*
X254676Y38758D01*
X254636Y38809D01*
X254599Y38849D01*
X254571Y38882D01*
X254552Y38904D01*
X254545Y38911D01*
X254512Y38947D01*
X254469Y38987D01*
X254422Y39031D01*
X254367Y39081D01*
X254309Y39132D01*
X254251Y39187D01*
X254127Y39292D01*
X254069Y39343D01*
X254015Y39390D01*
X253967Y39434D01*
X253920Y39470D01*
X253884Y39503D01*
X253859Y39525D01*
X253840Y39543D01*
X253833Y39546D01*
X253713Y39648D01*
X253601Y39746D01*
X253499Y39837D01*
X253405Y39920D01*
X253317Y40000D01*
X253241Y40073D01*
X253168Y40139D01*
X253107Y40197D01*
X253052Y40251D01*
X253009Y40298D01*
X252969Y40338D01*
X252936Y40371D01*
X252910Y40396D01*
X252896Y40415D01*
X252885Y40425D01*
X252882Y40429D01*
X252831Y40491D01*
X252780Y40549D01*
X252736Y40607D01*
X252696Y40662D01*
X252624Y40767D01*
X252595Y40814D01*
X252569Y40858D01*
X252544Y40898D01*
X252526Y40934D01*
X252507Y40967D01*
X252496Y40992D01*
X252486Y41014D01*
X252478Y41028D01*
X252471Y41039D01*
Y41043D01*
X252431Y41152D01*
X252398Y41257D01*
X252377Y41359D01*
X252362Y41450D01*
X252358Y41490D01*
X252355Y41526D01*
X252351Y41555D01*
X252348Y41584D01*
Y41606D01*
Y41620D01*
Y41631D01*
Y41635D01*
X252351Y41744D01*
X252366Y41849D01*
X252388Y41947D01*
X252413Y42042D01*
X252446Y42129D01*
X252482Y42212D01*
X252522Y42289D01*
X252558Y42358D01*
X252598Y42420D01*
X252638Y42474D01*
X252675Y42521D01*
X252707Y42558D01*
X252733Y42590D01*
X252754Y42612D01*
X252769Y42627D01*
X252773Y42630D01*
X252856Y42703D01*
X252943Y42765D01*
X253034Y42815D01*
X253129Y42863D01*
X253223Y42903D01*
X253321Y42935D01*
X253412Y42961D01*
X253503Y42983D01*
X253586Y43001D01*
X253666Y43011D01*
X253735Y43022D01*
X253797Y43026D01*
X253848Y43030D01*
X253884Y43033D01*
X253917D01*
X254047Y43030D01*
D02*
G37*
G36*
X259127Y171300D02*
X259251Y171289D01*
X259367Y171271D01*
X259476Y171245D01*
X259578Y171216D01*
X259672Y171183D01*
X259756Y171151D01*
X259836Y171118D01*
X259905Y171082D01*
X259967Y171049D01*
X260017Y171016D01*
X260061Y170987D01*
X260094Y170965D01*
X260119Y170944D01*
X260133Y170933D01*
X260137Y170929D01*
X260213Y170857D01*
X260279Y170777D01*
X260341Y170693D01*
X260391Y170606D01*
X260439Y170515D01*
X260479Y170424D01*
X260511Y170337D01*
X260540Y170250D01*
X260562Y170170D01*
X260580Y170094D01*
X260595Y170025D01*
X260606Y169967D01*
X260617Y169919D01*
X260620Y169883D01*
Y169869D01*
X260624Y169858D01*
Y169854D01*
Y169850D01*
X259988Y169785D01*
X259985Y169872D01*
X259977Y169952D01*
X259963Y170028D01*
X259948Y170101D01*
X259926Y170166D01*
X259905Y170225D01*
X259879Y170283D01*
X259854Y170330D01*
X259832Y170373D01*
X259807Y170413D01*
X259785Y170446D01*
X259763Y170475D01*
X259748Y170493D01*
X259734Y170511D01*
X259727Y170519D01*
X259723Y170522D01*
X259672Y170570D01*
X259614Y170610D01*
X259556Y170646D01*
X259498Y170679D01*
X259436Y170704D01*
X259378Y170726D01*
X259320Y170744D01*
X259265Y170758D01*
X259211Y170769D01*
X259164Y170777D01*
X259120Y170784D01*
X259080Y170788D01*
X259051Y170791D01*
X259008D01*
X258931Y170788D01*
X258859Y170780D01*
X258790Y170769D01*
X258724Y170751D01*
X258666Y170733D01*
X258608Y170711D01*
X258557Y170690D01*
X258510Y170664D01*
X258470Y170642D01*
X258434Y170617D01*
X258401Y170595D01*
X258376Y170577D01*
X258354Y170559D01*
X258339Y170548D01*
X258332Y170541D01*
X258328Y170537D01*
X258281Y170490D01*
X258241Y170439D01*
X258205Y170388D01*
X258176Y170333D01*
X258150Y170283D01*
X258129Y170232D01*
X258110Y170181D01*
X258096Y170134D01*
X258085Y170090D01*
X258078Y170050D01*
X258071Y170014D01*
X258067Y169981D01*
X258063Y169956D01*
Y169938D01*
Y169923D01*
Y169919D01*
X258067Y169854D01*
X258074Y169789D01*
X258089Y169723D01*
X258107Y169658D01*
X258154Y169531D01*
X258183Y169473D01*
X258209Y169418D01*
X258234Y169367D01*
X258263Y169320D01*
X258285Y169280D01*
X258307Y169244D01*
X258328Y169218D01*
X258343Y169197D01*
X258350Y169182D01*
X258354Y169179D01*
X258412Y169102D01*
X258484Y169019D01*
X258561Y168935D01*
X258648Y168848D01*
X258735Y168757D01*
X258830Y168670D01*
X258920Y168583D01*
X259015Y168499D01*
X259102Y168419D01*
X259186Y168347D01*
X259258Y168278D01*
X259327Y168223D01*
X259382Y168176D01*
X259403Y168158D01*
X259422Y168140D01*
X259436Y168129D01*
X259447Y168118D01*
X259454Y168114D01*
X259458Y168111D01*
X259552Y168031D01*
X259643Y167954D01*
X259727Y167882D01*
X259807Y167813D01*
X259879Y167744D01*
X259945Y167682D01*
X260003Y167624D01*
X260057Y167569D01*
X260108Y167522D01*
X260148Y167479D01*
X260184Y167442D01*
X260213Y167410D01*
X260235Y167384D01*
X260250Y167366D01*
X260261Y167355D01*
X260264Y167351D01*
X260362Y167228D01*
X260446Y167108D01*
X260515Y166996D01*
X260548Y166945D01*
X260573Y166894D01*
X260595Y166850D01*
X260617Y166810D01*
X260635Y166774D01*
X260646Y166741D01*
X260657Y166716D01*
X260664Y166698D01*
X260671Y166687D01*
Y166683D01*
X260697Y166607D01*
X260715Y166531D01*
X260726Y166458D01*
X260733Y166396D01*
X260737Y166338D01*
X260740Y166316D01*
Y166294D01*
Y166280D01*
Y166269D01*
Y166262D01*
Y166258D01*
X257420D01*
Y166850D01*
X259883D01*
X259843Y166912D01*
X259799Y166974D01*
X259756Y167028D01*
X259716Y167079D01*
X259680Y167119D01*
X259650Y167152D01*
X259632Y167174D01*
X259625Y167181D01*
X259592Y167217D01*
X259549Y167257D01*
X259501Y167301D01*
X259447Y167351D01*
X259389Y167402D01*
X259331Y167457D01*
X259207Y167562D01*
X259149Y167613D01*
X259095Y167660D01*
X259048Y167704D01*
X259000Y167740D01*
X258964Y167773D01*
X258939Y167795D01*
X258920Y167813D01*
X258913Y167816D01*
X258793Y167918D01*
X258681Y168016D01*
X258579Y168107D01*
X258484Y168190D01*
X258397Y168270D01*
X258321Y168343D01*
X258248Y168409D01*
X258187Y168467D01*
X258132Y168521D01*
X258089Y168568D01*
X258049Y168608D01*
X258016Y168641D01*
X257990Y168666D01*
X257976Y168685D01*
X257965Y168695D01*
X257962Y168699D01*
X257911Y168761D01*
X257860Y168819D01*
X257816Y168877D01*
X257776Y168932D01*
X257704Y169037D01*
X257675Y169084D01*
X257649Y169128D01*
X257624Y169168D01*
X257605Y169204D01*
X257587Y169237D01*
X257577Y169262D01*
X257566Y169284D01*
X257558Y169298D01*
X257551Y169309D01*
Y169313D01*
X257511Y169422D01*
X257478Y169527D01*
X257457Y169629D01*
X257442Y169720D01*
X257438Y169760D01*
X257435Y169796D01*
X257431Y169825D01*
X257428Y169854D01*
Y169876D01*
Y169890D01*
Y169901D01*
Y169905D01*
X257431Y170014D01*
X257446Y170119D01*
X257467Y170217D01*
X257493Y170312D01*
X257526Y170399D01*
X257562Y170482D01*
X257602Y170559D01*
X257638Y170628D01*
X257678Y170690D01*
X257718Y170744D01*
X257754Y170791D01*
X257787Y170828D01*
X257813Y170860D01*
X257834Y170882D01*
X257849Y170896D01*
X257852Y170900D01*
X257936Y170973D01*
X258023Y171035D01*
X258114Y171085D01*
X258209Y171133D01*
X258303Y171173D01*
X258401Y171205D01*
X258492Y171231D01*
X258583Y171252D01*
X258666Y171271D01*
X258746Y171282D01*
X258815Y171292D01*
X258877Y171296D01*
X258928Y171300D01*
X258964Y171303D01*
X258997D01*
X259127Y171300D01*
D02*
G37*
G36*
X255223D02*
X255317Y171292D01*
X255408Y171278D01*
X255495Y171256D01*
X255575Y171234D01*
X255651Y171209D01*
X255720Y171183D01*
X255782Y171158D01*
X255840Y171129D01*
X255888Y171103D01*
X255931Y171078D01*
X255967Y171056D01*
X255996Y171038D01*
X256015Y171024D01*
X256029Y171013D01*
X256033Y171009D01*
X256098Y170951D01*
X256160Y170889D01*
X256218Y170824D01*
X256273Y170755D01*
X256320Y170686D01*
X256363Y170613D01*
X256407Y170544D01*
X256440Y170479D01*
X256472Y170417D01*
X256501Y170359D01*
X256523Y170305D01*
X256545Y170261D01*
X256560Y170221D01*
X256570Y170196D01*
X256574Y170177D01*
X256578Y170170D01*
X256610Y170065D01*
X256636Y169952D01*
X256661Y169836D01*
X256683Y169716D01*
X256716Y169476D01*
X256726Y169360D01*
X256737Y169247D01*
X256745Y169142D01*
X256748Y169044D01*
X256752Y168957D01*
X256756Y168884D01*
Y168852D01*
X256759Y168822D01*
Y168797D01*
Y168775D01*
Y168757D01*
Y168746D01*
Y168739D01*
Y168735D01*
Y168605D01*
X256752Y168477D01*
X256748Y168358D01*
X256737Y168241D01*
X256726Y168129D01*
X256712Y168020D01*
X256698Y167918D01*
X256683Y167820D01*
X256665Y167722D01*
X256643Y167635D01*
X256625Y167548D01*
X256603Y167468D01*
X256581Y167388D01*
X256560Y167315D01*
X256534Y167246D01*
X256512Y167181D01*
X256490Y167123D01*
X256465Y167064D01*
X256443Y167014D01*
X256421Y166963D01*
X256400Y166919D01*
X256381Y166879D01*
X256360Y166843D01*
X256341Y166810D01*
X256327Y166781D01*
X256313Y166759D01*
X256298Y166738D01*
X256287Y166719D01*
X256276Y166709D01*
X256269Y166698D01*
X256265Y166694D01*
Y166690D01*
X256185Y166600D01*
X256098Y166520D01*
X256007Y166451D01*
X255913Y166393D01*
X255815Y166342D01*
X255720Y166302D01*
X255630Y166266D01*
X255539Y166240D01*
X255452Y166218D01*
X255375Y166204D01*
X255303Y166189D01*
X255241Y166182D01*
X255190Y166178D01*
X255154Y166175D01*
X255121D01*
X255019Y166178D01*
X254925Y166189D01*
X254834Y166204D01*
X254747Y166222D01*
X254667Y166244D01*
X254594Y166269D01*
X254525Y166294D01*
X254460Y166324D01*
X254406Y166349D01*
X254355Y166374D01*
X254315Y166400D01*
X254278Y166422D01*
X254249Y166443D01*
X254231Y166458D01*
X254217Y166465D01*
X254213Y166469D01*
X254148Y166527D01*
X254086Y166589D01*
X254028Y166654D01*
X253973Y166723D01*
X253926Y166796D01*
X253883Y166865D01*
X253839Y166934D01*
X253803Y166999D01*
X253774Y167061D01*
X253745Y167119D01*
X253723Y167174D01*
X253701Y167217D01*
X253686Y167257D01*
X253675Y167283D01*
X253672Y167301D01*
X253668Y167308D01*
X253636Y167413D01*
X253606Y167526D01*
X253581Y167642D01*
X253559Y167762D01*
X253527Y167998D01*
X253516Y168114D01*
X253505Y168227D01*
X253498Y168332D01*
X253494Y168427D01*
X253490Y168514D01*
X253487Y168590D01*
Y168623D01*
X253483Y168652D01*
Y168677D01*
Y168695D01*
Y168714D01*
Y168724D01*
Y168732D01*
Y168735D01*
Y168873D01*
X253487Y169000D01*
X253494Y169124D01*
X253501Y169237D01*
X253508Y169342D01*
X253519Y169440D01*
X253530Y169531D01*
X253541Y169611D01*
X253552Y169683D01*
X253563Y169745D01*
X253574Y169800D01*
X253581Y169843D01*
X253588Y169879D01*
X253596Y169901D01*
X253599Y169919D01*
Y169923D01*
X253621Y170003D01*
X253646Y170083D01*
X253668Y170156D01*
X253694Y170225D01*
X253723Y170290D01*
X253748Y170352D01*
X253774Y170410D01*
X253799Y170461D01*
X253821Y170508D01*
X253843Y170548D01*
X253861Y170584D01*
X253879Y170613D01*
X253893Y170635D01*
X253904Y170653D01*
X253908Y170664D01*
X253912Y170668D01*
X253988Y170777D01*
X254071Y170871D01*
X254155Y170955D01*
X254235Y171020D01*
X254271Y171049D01*
X254307Y171071D01*
X254336Y171093D01*
X254362Y171111D01*
X254384Y171122D01*
X254398Y171133D01*
X254409Y171140D01*
X254413D01*
X254471Y171169D01*
X254529Y171194D01*
X254653Y171234D01*
X254772Y171263D01*
X254881Y171282D01*
X254932Y171289D01*
X254976Y171296D01*
X255019Y171300D01*
X255052D01*
X255081Y171303D01*
X255121D01*
X255223Y171300D01*
D02*
G37*
G36*
X291077Y194102D02*
X291113Y194040D01*
X291197Y193920D01*
X291288Y193807D01*
X291335Y193753D01*
X291379Y193702D01*
X291422Y193658D01*
X291462Y193615D01*
X291499Y193578D01*
X291531Y193546D01*
X291557Y193520D01*
X291575Y193502D01*
X291589Y193491D01*
X291593Y193488D01*
X291742Y193364D01*
X291898Y193252D01*
X292051Y193150D01*
X292123Y193106D01*
X292192Y193063D01*
X292254Y193026D01*
X292312Y192994D01*
X292367Y192965D01*
X292410Y192943D01*
X292446Y192925D01*
X292476Y192910D01*
X292490Y192903D01*
X292497Y192899D01*
Y192304D01*
X292388Y192347D01*
X292276Y192398D01*
X292167Y192449D01*
X292065Y192500D01*
X292022Y192525D01*
X291978Y192547D01*
X291942Y192569D01*
X291913Y192587D01*
X291887Y192598D01*
X291865Y192609D01*
X291854Y192616D01*
X291851Y192620D01*
X291720Y192700D01*
X291662Y192740D01*
X291604Y192776D01*
X291553Y192816D01*
X291506Y192848D01*
X291462Y192885D01*
X291419Y192914D01*
X291386Y192943D01*
X291353Y192968D01*
X291324Y192994D01*
X291302Y193012D01*
X291284Y193026D01*
X291273Y193037D01*
X291266Y193045D01*
X291262Y193048D01*
Y189118D01*
X290645D01*
Y194163D01*
X291045D01*
X291077Y194102D01*
D02*
G37*
G36*
X287608Y194160D02*
X287728Y194142D01*
X287841Y194120D01*
X287946Y194091D01*
X288048Y194054D01*
X288142Y194014D01*
X288226Y193974D01*
X288306Y193931D01*
X288375Y193887D01*
X288437Y193844D01*
X288491Y193804D01*
X288535Y193767D01*
X288567Y193738D01*
X288593Y193717D01*
X288611Y193698D01*
X288615Y193695D01*
X288694Y193604D01*
X288764Y193510D01*
X288822Y193408D01*
X288876Y193306D01*
X288920Y193204D01*
X288956Y193103D01*
X288985Y193001D01*
X289007Y192907D01*
X289029Y192816D01*
X289039Y192732D01*
X289050Y192656D01*
X289058Y192591D01*
X289061Y192536D01*
Y192514D01*
X289065Y192496D01*
Y192482D01*
Y192471D01*
Y192467D01*
Y192463D01*
X289061Y192329D01*
X289047Y192202D01*
X289025Y192078D01*
X289000Y191966D01*
X288967Y191861D01*
X288931Y191762D01*
X288891Y191672D01*
X288851Y191592D01*
X288811Y191519D01*
X288771Y191454D01*
X288734Y191399D01*
X288702Y191356D01*
X288676Y191319D01*
X288654Y191294D01*
X288640Y191276D01*
X288636Y191272D01*
X288553Y191192D01*
X288466Y191123D01*
X288379Y191065D01*
X288288Y191011D01*
X288200Y190967D01*
X288113Y190931D01*
X288026Y190902D01*
X287946Y190880D01*
X287870Y190858D01*
X287801Y190847D01*
X287736Y190836D01*
X287685Y190829D01*
X287641Y190825D01*
X287608Y190822D01*
X287579D01*
X287510Y190825D01*
X287441Y190829D01*
X287314Y190851D01*
X287194Y190880D01*
X287143Y190894D01*
X287093Y190912D01*
X287045Y190931D01*
X287006Y190945D01*
X286973Y190960D01*
X286940Y190974D01*
X286918Y190985D01*
X286900Y190996D01*
X286889Y191000D01*
X286886Y191003D01*
X286769Y191076D01*
X286671Y191156D01*
X286624Y191196D01*
X286584Y191236D01*
X286544Y191272D01*
X286511Y191312D01*
X286479Y191345D01*
X286453Y191377D01*
X286432Y191406D01*
X286410Y191432D01*
X286395Y191454D01*
X286384Y191468D01*
X286381Y191479D01*
X286377Y191483D01*
Y191454D01*
Y191428D01*
Y191406D01*
Y191388D01*
Y191377D01*
Y191367D01*
Y191363D01*
Y191359D01*
X286381Y191218D01*
X286392Y191080D01*
X286406Y190952D01*
X286417Y190891D01*
X286424Y190836D01*
X286432Y190785D01*
X286443Y190742D01*
X286450Y190702D01*
X286457Y190669D01*
X286464Y190640D01*
X286468Y190622D01*
X286472Y190607D01*
Y190604D01*
X286490Y190538D01*
X286508Y190473D01*
X286526Y190415D01*
X286544Y190357D01*
X286566Y190306D01*
X286584Y190259D01*
X286602Y190215D01*
X286621Y190175D01*
X286635Y190139D01*
X286653Y190106D01*
X286664Y190081D01*
X286679Y190059D01*
X286686Y190041D01*
X286693Y190030D01*
X286700Y190023D01*
Y190019D01*
X286755Y189943D01*
X286813Y189874D01*
X286871Y189812D01*
X286926Y189765D01*
X286973Y189725D01*
X287013Y189696D01*
X287027Y189685D01*
X287038Y189678D01*
X287045Y189670D01*
X287049D01*
X287133Y189627D01*
X287216Y189598D01*
X287303Y189576D01*
X287380Y189558D01*
X287449Y189550D01*
X287478Y189547D01*
X287503D01*
X287521Y189543D01*
X287550D01*
X287612Y189547D01*
X287670Y189550D01*
X287775Y189572D01*
X287866Y189601D01*
X287910Y189619D01*
X287946Y189638D01*
X287979Y189652D01*
X288012Y189670D01*
X288037Y189685D01*
X288055Y189699D01*
X288073Y189710D01*
X288084Y189721D01*
X288092Y189725D01*
X288095Y189728D01*
X288135Y189765D01*
X288168Y189808D01*
X288230Y189903D01*
X288280Y190004D01*
X288320Y190106D01*
X288335Y190150D01*
X288349Y190197D01*
X288360Y190237D01*
X288368Y190270D01*
X288375Y190299D01*
X288379Y190320D01*
X288382Y190335D01*
Y190339D01*
X288974Y190284D01*
X288956Y190175D01*
X288934Y190074D01*
X288905Y189979D01*
X288872Y189888D01*
X288840Y189805D01*
X288800Y189732D01*
X288764Y189663D01*
X288724Y189601D01*
X288687Y189543D01*
X288651Y189496D01*
X288615Y189456D01*
X288585Y189423D01*
X288564Y189394D01*
X288542Y189376D01*
X288531Y189365D01*
X288527Y189361D01*
X288455Y189303D01*
X288379Y189253D01*
X288299Y189209D01*
X288219Y189173D01*
X288139Y189140D01*
X288059Y189115D01*
X287979Y189093D01*
X287903Y189075D01*
X287834Y189064D01*
X287768Y189053D01*
X287710Y189046D01*
X287659Y189038D01*
X287619D01*
X287587Y189035D01*
X287561D01*
X287460Y189038D01*
X287362Y189049D01*
X287267Y189064D01*
X287176Y189082D01*
X287089Y189104D01*
X287013Y189129D01*
X286936Y189154D01*
X286871Y189184D01*
X286809Y189213D01*
X286755Y189238D01*
X286708Y189263D01*
X286668Y189285D01*
X286635Y189303D01*
X286613Y189322D01*
X286599Y189329D01*
X286595Y189333D01*
X286519Y189391D01*
X286450Y189456D01*
X286384Y189525D01*
X286323Y189594D01*
X286268Y189667D01*
X286214Y189739D01*
X286170Y189808D01*
X286126Y189877D01*
X286090Y189943D01*
X286057Y190004D01*
X286032Y190059D01*
X286010Y190106D01*
X285992Y190146D01*
X285981Y190175D01*
X285974Y190193D01*
X285970Y190201D01*
X285934Y190313D01*
X285901Y190429D01*
X285872Y190553D01*
X285847Y190680D01*
X285829Y190807D01*
X285811Y190938D01*
X285796Y191061D01*
X285785Y191181D01*
X285778Y191294D01*
X285770Y191399D01*
X285767Y191494D01*
X285763Y191534D01*
Y191574D01*
Y191610D01*
X285760Y191643D01*
Y191668D01*
Y191690D01*
Y191708D01*
Y191723D01*
Y191730D01*
Y191733D01*
X285763Y191901D01*
X285770Y192060D01*
X285778Y192206D01*
X285792Y192344D01*
X285811Y192471D01*
X285829Y192583D01*
X285847Y192689D01*
X285865Y192783D01*
X285887Y192867D01*
X285905Y192939D01*
X285923Y193001D01*
X285941Y193052D01*
X285956Y193092D01*
X285963Y193121D01*
X285970Y193135D01*
X285974Y193143D01*
X286014Y193234D01*
X286061Y193317D01*
X286108Y193393D01*
X286159Y193466D01*
X286210Y193535D01*
X286261Y193597D01*
X286312Y193655D01*
X286363Y193706D01*
X286410Y193749D01*
X286450Y193789D01*
X286490Y193822D01*
X286526Y193851D01*
X286551Y193869D01*
X286573Y193887D01*
X286588Y193895D01*
X286591Y193898D01*
X286668Y193945D01*
X286744Y193985D01*
X286824Y194022D01*
X286900Y194051D01*
X286976Y194076D01*
X287053Y194098D01*
X287122Y194116D01*
X287191Y194131D01*
X287253Y194142D01*
X287307Y194149D01*
X287358Y194156D01*
X287401Y194160D01*
X287438Y194163D01*
X287485D01*
X287608Y194160D01*
D02*
G37*
G36*
X295568Y210808D02*
X295808Y210786D01*
X296033Y210751D01*
X296244Y210702D01*
X296441Y210646D01*
X296624Y210583D01*
X296786Y210519D01*
X296940Y210456D01*
X297074Y210385D01*
X297194Y210322D01*
X297292Y210259D01*
X297376Y210203D01*
X297440Y210160D01*
X297489Y210118D01*
X297517Y210097D01*
X297524Y210090D01*
X297672Y209949D01*
X297799Y209794D01*
X297918Y209633D01*
X298017Y209464D01*
X298108Y209288D01*
X298186Y209112D01*
X298249Y208943D01*
X298305Y208774D01*
X298347Y208619D01*
X298383Y208472D01*
X298411Y208338D01*
X298432Y208225D01*
X298453Y208134D01*
X298460Y208064D01*
Y208036D01*
X298467Y208014D01*
Y208007D01*
Y208000D01*
X297236Y207874D01*
X297229Y208043D01*
X297215Y208197D01*
X297187Y208345D01*
X297158Y208486D01*
X297116Y208612D01*
X297074Y208725D01*
X297025Y208838D01*
X296975Y208929D01*
X296933Y209014D01*
X296884Y209091D01*
X296842Y209154D01*
X296800Y209210D01*
X296772Y209246D01*
X296743Y209281D01*
X296729Y209295D01*
X296722Y209302D01*
X296624Y209393D01*
X296511Y209471D01*
X296399Y209541D01*
X296286Y209604D01*
X296166Y209654D01*
X296054Y209696D01*
X295941Y209731D01*
X295836Y209759D01*
X295730Y209780D01*
X295639Y209794D01*
X295554Y209809D01*
X295477Y209816D01*
X295421Y209823D01*
X295336D01*
X295188Y209816D01*
X295048Y209802D01*
X294914Y209780D01*
X294787Y209745D01*
X294675Y209710D01*
X294562Y209668D01*
X294464Y209626D01*
X294372Y209576D01*
X294295Y209534D01*
X294224Y209485D01*
X294161Y209443D01*
X294112Y209408D01*
X294070Y209372D01*
X294042Y209351D01*
X294028Y209337D01*
X294021Y209330D01*
X293929Y209239D01*
X293852Y209140D01*
X293781Y209042D01*
X293725Y208936D01*
X293676Y208838D01*
X293633Y208739D01*
X293598Y208641D01*
X293570Y208549D01*
X293549Y208465D01*
X293535Y208387D01*
X293521Y208317D01*
X293514Y208254D01*
X293507Y208204D01*
Y208169D01*
Y208141D01*
Y208134D01*
X293514Y208007D01*
X293528Y207881D01*
X293556Y207754D01*
X293591Y207627D01*
X293683Y207381D01*
X293739Y207269D01*
X293788Y207163D01*
X293838Y207065D01*
X293894Y206973D01*
X293936Y206896D01*
X293978Y206825D01*
X294021Y206776D01*
X294049Y206734D01*
X294063Y206706D01*
X294070Y206699D01*
X294182Y206551D01*
X294323Y206389D01*
X294471Y206227D01*
X294640Y206058D01*
X294809Y205882D01*
X294991Y205714D01*
X295167Y205545D01*
X295350Y205383D01*
X295519Y205228D01*
X295681Y205088D01*
X295822Y204954D01*
X295955Y204848D01*
X296061Y204757D01*
X296103Y204722D01*
X296138Y204687D01*
X296166Y204665D01*
X296187Y204644D01*
X296202Y204637D01*
X296209Y204630D01*
X296392Y204475D01*
X296567Y204328D01*
X296729Y204187D01*
X296884Y204053D01*
X297025Y203920D01*
X297151Y203800D01*
X297264Y203687D01*
X297369Y203582D01*
X297468Y203490D01*
X297545Y203406D01*
X297616Y203336D01*
X297672Y203272D01*
X297714Y203223D01*
X297742Y203188D01*
X297764Y203167D01*
X297771Y203160D01*
X297960Y202920D01*
X298122Y202688D01*
X298256Y202470D01*
X298319Y202372D01*
X298369Y202273D01*
X298411Y202189D01*
X298453Y202111D01*
X298488Y202041D01*
X298509Y201978D01*
X298530Y201928D01*
X298545Y201893D01*
X298559Y201872D01*
Y201865D01*
X298608Y201717D01*
X298643Y201570D01*
X298664Y201429D01*
X298678Y201309D01*
X298685Y201197D01*
X298692Y201154D01*
Y201112D01*
Y201084D01*
Y201063D01*
Y201049D01*
Y201042D01*
X292262D01*
Y202189D01*
X297032D01*
X296954Y202308D01*
X296870Y202428D01*
X296786Y202533D01*
X296708Y202632D01*
X296638Y202709D01*
X296581Y202773D01*
X296546Y202815D01*
X296532Y202829D01*
X296469Y202899D01*
X296385Y202977D01*
X296293Y203061D01*
X296187Y203160D01*
X296075Y203258D01*
X295962Y203364D01*
X295723Y203568D01*
X295611Y203666D01*
X295505Y203758D01*
X295414Y203842D01*
X295322Y203913D01*
X295252Y203976D01*
X295203Y204018D01*
X295167Y204053D01*
X295153Y204060D01*
X294921Y204257D01*
X294703Y204447D01*
X294506Y204623D01*
X294323Y204785D01*
X294154Y204940D01*
X294006Y205081D01*
X293866Y205207D01*
X293746Y205320D01*
X293640Y205425D01*
X293556Y205517D01*
X293479Y205594D01*
X293415Y205657D01*
X293366Y205707D01*
X293338Y205742D01*
X293317Y205763D01*
X293310Y205770D01*
X293211Y205890D01*
X293113Y206002D01*
X293028Y206115D01*
X292951Y206220D01*
X292810Y206424D01*
X292754Y206516D01*
X292705Y206600D01*
X292656Y206678D01*
X292620Y206748D01*
X292585Y206811D01*
X292564Y206861D01*
X292543Y206903D01*
X292529Y206931D01*
X292515Y206952D01*
Y206959D01*
X292437Y207170D01*
X292374Y207374D01*
X292332Y207571D01*
X292304Y207747D01*
X292297Y207824D01*
X292290Y207895D01*
X292283Y207951D01*
X292276Y208007D01*
Y208050D01*
Y208078D01*
Y208099D01*
Y208106D01*
X292283Y208317D01*
X292311Y208521D01*
X292353Y208711D01*
X292402Y208894D01*
X292466Y209063D01*
X292536Y209224D01*
X292613Y209372D01*
X292684Y209506D01*
X292761Y209626D01*
X292838Y209731D01*
X292909Y209823D01*
X292972Y209893D01*
X293021Y209956D01*
X293064Y209998D01*
X293092Y210027D01*
X293099Y210034D01*
X293261Y210174D01*
X293430Y210294D01*
X293605Y210392D01*
X293788Y210484D01*
X293971Y210561D01*
X294161Y210625D01*
X294337Y210674D01*
X294513Y210716D01*
X294675Y210751D01*
X294830Y210772D01*
X294963Y210793D01*
X295083Y210801D01*
X295181Y210808D01*
X295252Y210815D01*
X295315D01*
X295568Y210808D01*
D02*
G37*
G36*
X303357Y208247D02*
X303526Y208232D01*
X303681Y208211D01*
X303835Y208183D01*
X303976Y208141D01*
X304110Y208106D01*
X304237Y208064D01*
X304349Y208021D01*
X304455Y207972D01*
X304546Y207930D01*
X304623Y207895D01*
X304687Y207860D01*
X304743Y207824D01*
X304778Y207803D01*
X304806Y207789D01*
X304813Y207782D01*
X304940Y207691D01*
X305060Y207592D01*
X305172Y207487D01*
X305271Y207381D01*
X305369Y207269D01*
X305454Y207163D01*
X305531Y207057D01*
X305608Y206952D01*
X305672Y206854D01*
X305721Y206762D01*
X305770Y206678D01*
X305805Y206607D01*
X305841Y206551D01*
X305862Y206502D01*
X305869Y206474D01*
X305876Y206467D01*
X305939Y206305D01*
X305995Y206143D01*
X306045Y205981D01*
X306080Y205819D01*
X306150Y205503D01*
X306171Y205355D01*
X306192Y205214D01*
X306206Y205088D01*
X306213Y204968D01*
X306220Y204862D01*
X306228Y204771D01*
X306235Y204701D01*
Y204644D01*
Y204616D01*
Y204602D01*
X306228Y204335D01*
X306199Y204074D01*
X306164Y203828D01*
X306108Y203596D01*
X306052Y203371D01*
X305981Y203167D01*
X305911Y202970D01*
X305834Y202801D01*
X305763Y202639D01*
X305693Y202498D01*
X305623Y202379D01*
X305566Y202280D01*
X305510Y202196D01*
X305475Y202139D01*
X305447Y202104D01*
X305440Y202090D01*
X305285Y201907D01*
X305116Y201745D01*
X304933Y201605D01*
X304750Y201485D01*
X304567Y201380D01*
X304377Y201295D01*
X304194Y201232D01*
X304018Y201176D01*
X303850Y201133D01*
X303688Y201098D01*
X303547Y201077D01*
X303427Y201056D01*
X303329Y201049D01*
X303251Y201042D01*
X303188D01*
X302977Y201056D01*
X302766Y201084D01*
X302576Y201126D01*
X302393Y201190D01*
X302217Y201253D01*
X302055Y201330D01*
X301908Y201415D01*
X301774Y201506D01*
X301654Y201591D01*
X301549Y201675D01*
X301457Y201752D01*
X301380Y201823D01*
X301317Y201879D01*
X301274Y201921D01*
X301246Y201957D01*
X301239Y201964D01*
Y201752D01*
Y201563D01*
X301246Y201394D01*
Y201239D01*
X301253Y201098D01*
X301260Y200972D01*
X301267Y200859D01*
X301281Y200767D01*
X301289Y200683D01*
X301296Y200613D01*
X301303Y200556D01*
X301310Y200514D01*
X301317Y200479D01*
Y200458D01*
X301324Y200444D01*
Y200437D01*
X301394Y200226D01*
X301486Y200043D01*
X301591Y199888D01*
X301689Y199754D01*
X301739Y199698D01*
X301788Y199649D01*
X301823Y199607D01*
X301865Y199578D01*
X301894Y199550D01*
X301915Y199529D01*
X301929Y199522D01*
X301936Y199515D01*
X302027Y199459D01*
X302119Y199403D01*
X302323Y199318D01*
X302541Y199262D01*
X302745Y199220D01*
X302843Y199206D01*
X302928Y199198D01*
X303012Y199184D01*
X303083D01*
X303139Y199177D01*
X303216D01*
X303357Y199184D01*
X303491Y199191D01*
X303617Y199206D01*
X303730Y199234D01*
X303842Y199255D01*
X303941Y199283D01*
X304032Y199318D01*
X304117Y199346D01*
X304187Y199382D01*
X304251Y199410D01*
X304307Y199438D01*
X304349Y199466D01*
X304384Y199487D01*
X304412Y199501D01*
X304426Y199508D01*
X304433Y199515D01*
X304546Y199621D01*
X304638Y199740D01*
X304708Y199867D01*
X304757Y199994D01*
X304792Y200106D01*
X304806Y200155D01*
X304820Y200205D01*
X304827Y200240D01*
Y200268D01*
X304834Y200282D01*
Y200289D01*
X305995Y200465D01*
X305988Y200261D01*
X305974Y200064D01*
X305939Y199881D01*
X305890Y199719D01*
X305834Y199564D01*
X305770Y199424D01*
X305707Y199297D01*
X305630Y199184D01*
X305559Y199086D01*
X305496Y198995D01*
X305425Y198924D01*
X305369Y198861D01*
X305320Y198819D01*
X305285Y198783D01*
X305257Y198762D01*
X305250Y198755D01*
X305095Y198657D01*
X304940Y198565D01*
X304771Y198488D01*
X304602Y198425D01*
X304433Y198368D01*
X304258Y198326D01*
X304096Y198284D01*
X303934Y198256D01*
X303786Y198235D01*
X303645Y198214D01*
X303526Y198207D01*
X303420Y198192D01*
X303329D01*
X303265Y198185D01*
X303209D01*
X303012Y198192D01*
X302829Y198200D01*
X302646Y198221D01*
X302484Y198249D01*
X302323Y198277D01*
X302175Y198312D01*
X302041Y198347D01*
X301915Y198389D01*
X301809Y198425D01*
X301711Y198460D01*
X301619Y198495D01*
X301549Y198523D01*
X301493Y198551D01*
X301457Y198572D01*
X301429Y198579D01*
X301422Y198586D01*
X301289Y198664D01*
X301169Y198748D01*
X301056Y198840D01*
X300951Y198924D01*
X300852Y199016D01*
X300768Y199107D01*
X300690Y199198D01*
X300620Y199283D01*
X300557Y199360D01*
X300508Y199438D01*
X300458Y199508D01*
X300423Y199564D01*
X300395Y199614D01*
X300374Y199649D01*
X300367Y199670D01*
X300360Y199677D01*
X300303Y199818D01*
X300247Y199972D01*
X300205Y200148D01*
X300163Y200331D01*
X300135Y200521D01*
X300106Y200711D01*
X300085Y200908D01*
X300064Y201091D01*
X300050Y201274D01*
X300036Y201443D01*
X300029Y201598D01*
Y201731D01*
X300022Y201844D01*
Y201886D01*
Y201928D01*
Y201957D01*
Y201978D01*
Y201992D01*
Y201999D01*
Y208099D01*
X301127D01*
Y207248D01*
X301281Y207423D01*
X301450Y207578D01*
X301619Y207712D01*
X301788Y207831D01*
X301964Y207930D01*
X302133Y208007D01*
X302302Y208078D01*
X302463Y208127D01*
X302611Y208169D01*
X302752Y208197D01*
X302871Y208225D01*
X302977Y208239D01*
X303069Y208247D01*
X303132Y208254D01*
X303188D01*
X303357Y208247D01*
D02*
G37*
G36*
X315437D02*
X315578Y208218D01*
X315705Y208176D01*
X315824Y208134D01*
X315916Y208085D01*
X315986Y208050D01*
X316014Y208029D01*
X316035Y208021D01*
X316042Y208007D01*
X316050D01*
X316113Y207958D01*
X316183Y207895D01*
X316247Y207824D01*
X316310Y207754D01*
X316437Y207585D01*
X316556Y207423D01*
X316655Y207269D01*
X316697Y207198D01*
X316732Y207135D01*
X316760Y207086D01*
X316781Y207050D01*
X316795Y207022D01*
X316802Y207015D01*
Y208099D01*
X317879D01*
Y201042D01*
X316683D01*
Y204729D01*
X316676Y205010D01*
X316655Y205270D01*
X316633Y205390D01*
X316619Y205503D01*
X316605Y205608D01*
X316584Y205714D01*
X316563Y205798D01*
X316549Y205882D01*
X316528Y205953D01*
X316514Y206009D01*
X316507Y206058D01*
X316493Y206094D01*
X316486Y206115D01*
Y206122D01*
X316430Y206269D01*
X316359Y206403D01*
X316289Y206516D01*
X316211Y206607D01*
X316148Y206678D01*
X316092Y206734D01*
X316057Y206762D01*
X316042Y206776D01*
X315923Y206854D01*
X315803Y206917D01*
X315684Y206959D01*
X315578Y206987D01*
X315487Y207001D01*
X315409Y207015D01*
X315346D01*
X315184Y207001D01*
X315022Y206973D01*
X314875Y206938D01*
X314748Y206889D01*
X314635Y206839D01*
X314586Y206818D01*
X314551Y206804D01*
X314516Y206783D01*
X314495Y206776D01*
X314481Y206762D01*
X314473D01*
X314051Y207867D01*
X314171Y207937D01*
X314284Y207993D01*
X314396Y208050D01*
X314509Y208092D01*
X314713Y208162D01*
X314811Y208183D01*
X314903Y208204D01*
X314987Y208218D01*
X315058Y208232D01*
X315121Y208239D01*
X315177Y208247D01*
X315219Y208254D01*
X315283D01*
X315437Y208247D01*
D02*
G37*
G36*
X310723D02*
X310956Y208218D01*
X311174Y208183D01*
X311378Y208134D01*
X311575Y208071D01*
X311758Y208007D01*
X311927Y207930D01*
X312081Y207860D01*
X312222Y207789D01*
X312342Y207712D01*
X312447Y207649D01*
X312539Y207592D01*
X312609Y207536D01*
X312658Y207501D01*
X312686Y207473D01*
X312701Y207466D01*
X312890Y207276D01*
X313059Y207072D01*
X313200Y206846D01*
X313327Y206614D01*
X313432Y206375D01*
X313517Y206136D01*
X313594Y205897D01*
X313650Y205664D01*
X313693Y205439D01*
X313728Y205235D01*
X313749Y205052D01*
X313763Y204968D01*
X313770Y204890D01*
Y204820D01*
X313777Y204757D01*
Y204701D01*
X313784Y204651D01*
Y204616D01*
Y204588D01*
Y204574D01*
Y204567D01*
X313777Y204243D01*
X313742Y203934D01*
X313700Y203652D01*
X313643Y203385D01*
X313573Y203139D01*
X313496Y202913D01*
X313411Y202709D01*
X313327Y202526D01*
X313242Y202365D01*
X313165Y202224D01*
X313088Y202104D01*
X313017Y202006D01*
X312961Y201928D01*
X312919Y201872D01*
X312883Y201844D01*
X312876Y201830D01*
X312701Y201661D01*
X312511Y201520D01*
X312313Y201394D01*
X312117Y201288D01*
X311919Y201197D01*
X311716Y201119D01*
X311525Y201056D01*
X311336Y201007D01*
X311160Y200965D01*
X310998Y200936D01*
X310857Y200915D01*
X310730Y200901D01*
X310625Y200894D01*
X310583D01*
X310548Y200887D01*
X310484D01*
X310308Y200894D01*
X310147Y200908D01*
X309985Y200929D01*
X309823Y200958D01*
X309675Y200986D01*
X309534Y201021D01*
X309408Y201063D01*
X309281Y201105D01*
X309176Y201140D01*
X309077Y201183D01*
X308993Y201218D01*
X308915Y201253D01*
X308859Y201274D01*
X308817Y201295D01*
X308789Y201309D01*
X308782Y201316D01*
X308641Y201401D01*
X308507Y201492D01*
X308381Y201591D01*
X308268Y201689D01*
X308162Y201788D01*
X308064Y201886D01*
X307973Y201985D01*
X307895Y202083D01*
X307825Y202175D01*
X307761Y202259D01*
X307712Y202330D01*
X307670Y202400D01*
X307635Y202449D01*
X307614Y202491D01*
X307600Y202519D01*
X307593Y202526D01*
X307522Y202681D01*
X307452Y202843D01*
X307403Y203012D01*
X307353Y203188D01*
X307311Y203371D01*
X307276Y203547D01*
X307248Y203723D01*
X307227Y203891D01*
X307213Y204046D01*
X307199Y204194D01*
X307192Y204328D01*
X307185Y204440D01*
X307177Y204532D01*
Y204609D01*
Y204630D01*
Y204651D01*
Y204658D01*
Y204665D01*
X307185Y204975D01*
X307220Y205263D01*
X307262Y205531D01*
X307325Y205784D01*
X307395Y206023D01*
X307473Y206234D01*
X307557Y206431D01*
X307642Y206614D01*
X307726Y206769D01*
X307811Y206910D01*
X307888Y207022D01*
X307958Y207121D01*
X308022Y207198D01*
X308064Y207255D01*
X308092Y207283D01*
X308106Y207297D01*
X308282Y207466D01*
X308472Y207613D01*
X308669Y207740D01*
X308866Y207853D01*
X309063Y207944D01*
X309260Y208021D01*
X309457Y208085D01*
X309640Y208134D01*
X309816Y208176D01*
X309978Y208204D01*
X310118Y208225D01*
X310245Y208239D01*
X310343Y208247D01*
X310386Y208254D01*
X310484D01*
X310723Y208247D01*
D02*
G37*
G36*
X328672Y204067D02*
Y203913D01*
X328679Y203772D01*
X328686Y203645D01*
X328693Y203526D01*
X328700Y203413D01*
X328714Y203314D01*
X328728Y203223D01*
X328735Y203146D01*
X328749Y203075D01*
X328763Y203012D01*
X328777Y202963D01*
X328784Y202920D01*
X328791Y202892D01*
X328798Y202871D01*
X328806Y202857D01*
Y202850D01*
X328862Y202716D01*
X328939Y202597D01*
X329016Y202491D01*
X329101Y202407D01*
X329171Y202337D01*
X329235Y202287D01*
X329277Y202259D01*
X329284Y202245D01*
X329291D01*
X329425Y202175D01*
X329572Y202118D01*
X329713Y202083D01*
X329840Y202055D01*
X329952Y202041D01*
X330001Y202034D01*
X330044D01*
X330079Y202027D01*
X330128D01*
X330248Y202034D01*
X330360Y202048D01*
X330466Y202062D01*
X330571Y202090D01*
X330663Y202118D01*
X330747Y202154D01*
X330825Y202196D01*
X330895Y202231D01*
X330958Y202266D01*
X331008Y202308D01*
X331057Y202344D01*
X331092Y202372D01*
X331120Y202400D01*
X331148Y202421D01*
X331155Y202428D01*
X331162Y202435D01*
X331226Y202519D01*
X331289Y202618D01*
X331338Y202731D01*
X331388Y202843D01*
X331458Y203096D01*
X331507Y203350D01*
X331528Y203476D01*
X331542Y203589D01*
X331557Y203687D01*
X331563Y203779D01*
X331571Y203856D01*
X331578Y203913D01*
Y203948D01*
Y203962D01*
X332738Y203800D01*
Y203540D01*
X332717Y203293D01*
X332689Y203061D01*
X332647Y202850D01*
X332598Y202653D01*
X332548Y202470D01*
X332485Y202308D01*
X332422Y202161D01*
X332366Y202034D01*
X332302Y201921D01*
X332246Y201830D01*
X332197Y201752D01*
X332155Y201689D01*
X332119Y201647D01*
X332098Y201619D01*
X332091Y201612D01*
X331958Y201485D01*
X331810Y201373D01*
X331655Y201274D01*
X331493Y201190D01*
X331331Y201119D01*
X331170Y201056D01*
X331008Y201014D01*
X330853Y200972D01*
X330705Y200943D01*
X330564Y200922D01*
X330438Y200901D01*
X330332Y200894D01*
X330241Y200887D01*
X330177Y200880D01*
X330121D01*
X329959Y200887D01*
X329812Y200894D01*
X329664Y200915D01*
X329523Y200936D01*
X329397Y200965D01*
X329270Y200993D01*
X329157Y201021D01*
X329052Y201056D01*
X328953Y201091D01*
X328869Y201119D01*
X328798Y201147D01*
X328735Y201176D01*
X328686Y201197D01*
X328651Y201218D01*
X328630Y201225D01*
X328623Y201232D01*
X328503Y201302D01*
X328397Y201380D01*
X328299Y201457D01*
X328207Y201542D01*
X328123Y201626D01*
X328046Y201710D01*
X327975Y201795D01*
X327912Y201872D01*
X327863Y201950D01*
X327813Y202020D01*
X327771Y202083D01*
X327743Y202139D01*
X327715Y202189D01*
X327701Y202224D01*
X327687Y202245D01*
Y202252D01*
X327631Y202386D01*
X327588Y202526D01*
X327546Y202674D01*
X327511Y202829D01*
X327455Y203146D01*
X327440Y203300D01*
X327419Y203448D01*
X327412Y203589D01*
X327398Y203723D01*
X327391Y203842D01*
Y203941D01*
X327384Y204025D01*
Y204088D01*
Y204131D01*
Y204145D01*
Y210779D01*
X328672D01*
Y204067D01*
D02*
G37*
G36*
X322551Y208239D02*
X322776Y208211D01*
X322881Y208190D01*
X322980Y208169D01*
X323071Y208141D01*
X323149Y208120D01*
X323226Y208092D01*
X323289Y208064D01*
X323346Y208043D01*
X323395Y208021D01*
X323430Y208007D01*
X323458Y207993D01*
X323472Y207979D01*
X323479D01*
X323655Y207867D01*
X323817Y207740D01*
X323965Y207606D01*
X324091Y207480D01*
X324197Y207360D01*
X324239Y207311D01*
X324274Y207269D01*
X324310Y207226D01*
X324331Y207198D01*
X324338Y207184D01*
X324345Y207177D01*
Y208099D01*
X325435D01*
Y198340D01*
X324239D01*
Y201774D01*
X324120Y201633D01*
X323993Y201513D01*
X323859Y201401D01*
X323740Y201309D01*
X323627Y201232D01*
X323585Y201204D01*
X323543Y201183D01*
X323507Y201161D01*
X323486Y201147D01*
X323472Y201133D01*
X323465D01*
X323282Y201049D01*
X323092Y200993D01*
X322916Y200950D01*
X322748Y200915D01*
X322670Y200908D01*
X322600Y200901D01*
X322544Y200894D01*
X322487D01*
X322445Y200887D01*
X322389D01*
X322234Y200894D01*
X322086Y200908D01*
X321939Y200929D01*
X321798Y200958D01*
X321664Y200993D01*
X321538Y201035D01*
X321418Y201070D01*
X321305Y201119D01*
X321200Y201161D01*
X321108Y201197D01*
X321031Y201239D01*
X320961Y201274D01*
X320904Y201302D01*
X320869Y201323D01*
X320841Y201337D01*
X320834Y201345D01*
X320700Y201436D01*
X320574Y201534D01*
X320454Y201640D01*
X320348Y201745D01*
X320243Y201858D01*
X320151Y201971D01*
X320067Y202076D01*
X319997Y202182D01*
X319926Y202280D01*
X319870Y202379D01*
X319821Y202456D01*
X319778Y202533D01*
X319750Y202590D01*
X319729Y202639D01*
X319715Y202667D01*
X319708Y202674D01*
X319638Y202836D01*
X319575Y203005D01*
X319525Y203174D01*
X319483Y203343D01*
X319413Y203673D01*
X319384Y203828D01*
X319363Y203976D01*
X319349Y204109D01*
X319335Y204236D01*
X319328Y204349D01*
X319321Y204440D01*
X319314Y204518D01*
Y204574D01*
Y204609D01*
Y204623D01*
X319321Y204813D01*
X319328Y204989D01*
X319349Y205165D01*
X319370Y205334D01*
X319399Y205496D01*
X319427Y205650D01*
X319455Y205791D01*
X319490Y205925D01*
X319525Y206044D01*
X319553Y206157D01*
X319582Y206248D01*
X319610Y206326D01*
X319631Y206389D01*
X319652Y206438D01*
X319659Y206467D01*
X319666Y206474D01*
X319736Y206628D01*
X319814Y206769D01*
X319891Y206910D01*
X319975Y207036D01*
X320067Y207149D01*
X320151Y207262D01*
X320236Y207360D01*
X320320Y207444D01*
X320405Y207522D01*
X320475Y207592D01*
X320538Y207649D01*
X320602Y207698D01*
X320651Y207733D01*
X320686Y207761D01*
X320707Y207775D01*
X320714Y207782D01*
X320848Y207867D01*
X320982Y207937D01*
X321115Y208000D01*
X321256Y208057D01*
X321390Y208099D01*
X321523Y208141D01*
X321650Y208169D01*
X321770Y208197D01*
X321882Y208211D01*
X321981Y208225D01*
X322072Y208239D01*
X322150Y208247D01*
X322220Y208254D01*
X322304D01*
X322551Y208239D01*
D02*
G37*
%LPC*%
G36*
X255147Y170791D02*
X255128D01*
X255049Y170788D01*
X254972Y170773D01*
X254903Y170755D01*
X254834Y170726D01*
X254769Y170697D01*
X254711Y170660D01*
X254656Y170624D01*
X254605Y170588D01*
X254562Y170548D01*
X254522Y170511D01*
X254489Y170475D01*
X254460Y170446D01*
X254438Y170417D01*
X254424Y170399D01*
X254413Y170384D01*
X254409Y170381D01*
X254384Y170341D01*
X254358Y170294D01*
X254336Y170246D01*
X254315Y170192D01*
X254275Y170079D01*
X254242Y169952D01*
X254213Y169818D01*
X254188Y169680D01*
X254170Y169542D01*
X254155Y169407D01*
X254144Y169273D01*
X254133Y169149D01*
X254126Y169037D01*
Y168982D01*
X254122Y168935D01*
Y168892D01*
X254119Y168852D01*
Y168819D01*
Y168790D01*
Y168768D01*
Y168750D01*
Y168739D01*
Y168735D01*
Y168623D01*
X254122Y168514D01*
X254126Y168409D01*
X254130Y168310D01*
X254137Y168216D01*
X254144Y168125D01*
X254155Y168038D01*
X254162Y167958D01*
X254173Y167878D01*
X254188Y167806D01*
X254198Y167736D01*
X254209Y167671D01*
X254224Y167609D01*
X254238Y167555D01*
X254249Y167500D01*
X254264Y167450D01*
X254289Y167359D01*
X254318Y167286D01*
X254340Y167224D01*
X254362Y167174D01*
X254384Y167137D01*
X254398Y167112D01*
X254406Y167094D01*
X254409Y167090D01*
X254464Y167017D01*
X254522Y166956D01*
X254583Y166901D01*
X254642Y166854D01*
X254703Y166814D01*
X254762Y166781D01*
X254820Y166756D01*
X254874Y166734D01*
X254925Y166716D01*
X254972Y166705D01*
X255016Y166694D01*
X255052Y166690D01*
X255081Y166687D01*
X255103Y166683D01*
X255121D01*
X255197Y166687D01*
X255274Y166701D01*
X255346Y166719D01*
X255412Y166749D01*
X255477Y166778D01*
X255535Y166810D01*
X255590Y166850D01*
X255637Y166887D01*
X255684Y166923D01*
X255720Y166963D01*
X255757Y166996D01*
X255786Y167028D01*
X255808Y167054D01*
X255822Y167072D01*
X255833Y167086D01*
X255837Y167090D01*
X255862Y167130D01*
X255888Y167177D01*
X255909Y167224D01*
X255931Y167279D01*
X255971Y167391D01*
X256004Y167519D01*
X256029Y167653D01*
X256055Y167791D01*
X256073Y167929D01*
X256087Y168067D01*
X256098Y168198D01*
X256109Y168321D01*
X256116Y168438D01*
Y168488D01*
X256120Y168536D01*
Y168579D01*
Y168619D01*
X256124Y168652D01*
Y168681D01*
Y168706D01*
Y168721D01*
Y168732D01*
Y168735D01*
Y168848D01*
X256120Y168957D01*
X256116Y169062D01*
X256109Y169164D01*
X256102Y169258D01*
X256094Y169349D01*
X256084Y169436D01*
X256073Y169520D01*
X256062Y169600D01*
X256051Y169676D01*
X256036Y169749D01*
X256022Y169814D01*
X256011Y169879D01*
X255996Y169938D01*
X255982Y169996D01*
X255964Y170047D01*
X255935Y170141D01*
X255906Y170221D01*
X255880Y170286D01*
X255858Y170341D01*
X255837Y170381D01*
X255822Y170410D01*
X255811Y170428D01*
X255808Y170432D01*
X255757Y170493D01*
X255706Y170551D01*
X255651Y170599D01*
X255593Y170639D01*
X255539Y170675D01*
X255481Y170704D01*
X255426Y170726D01*
X255372Y170748D01*
X255321Y170762D01*
X255277Y170773D01*
X255234Y170780D01*
X255197Y170784D01*
X255168Y170788D01*
X255147Y170791D01*
D02*
G37*
G36*
X287427Y193651D02*
X287409D01*
X287336Y193647D01*
X287267Y193637D01*
X287198Y193622D01*
X287136Y193604D01*
X287075Y193578D01*
X287020Y193553D01*
X286969Y193524D01*
X286922Y193495D01*
X286878Y193466D01*
X286838Y193437D01*
X286806Y193411D01*
X286780Y193386D01*
X286758Y193368D01*
X286744Y193353D01*
X286733Y193342D01*
X286729Y193339D01*
X286679Y193277D01*
X286635Y193212D01*
X286599Y193146D01*
X286566Y193077D01*
X286537Y193005D01*
X286515Y192936D01*
X286497Y192867D01*
X286483Y192801D01*
X286472Y192740D01*
X286461Y192681D01*
X286453Y192631D01*
X286450Y192583D01*
X286446Y192547D01*
Y192518D01*
Y192503D01*
Y192496D01*
X286450Y192398D01*
X286457Y192307D01*
X286472Y192224D01*
X286490Y192144D01*
X286511Y192068D01*
X286533Y191999D01*
X286559Y191937D01*
X286584Y191882D01*
X286610Y191831D01*
X286635Y191788D01*
X286657Y191751D01*
X286679Y191719D01*
X286697Y191697D01*
X286711Y191679D01*
X286719Y191668D01*
X286722Y191664D01*
X286777Y191614D01*
X286831Y191566D01*
X286889Y191526D01*
X286947Y191494D01*
X287009Y191465D01*
X287067Y191439D01*
X287122Y191421D01*
X287176Y191403D01*
X287231Y191392D01*
X287278Y191381D01*
X287318Y191377D01*
X287354Y191370D01*
X287387D01*
X287409Y191367D01*
X287427D01*
X287507Y191370D01*
X287579Y191381D01*
X287652Y191396D01*
X287721Y191414D01*
X287783Y191436D01*
X287841Y191461D01*
X287895Y191486D01*
X287946Y191515D01*
X287990Y191544D01*
X288030Y191570D01*
X288062Y191595D01*
X288092Y191617D01*
X288113Y191635D01*
X288128Y191653D01*
X288139Y191661D01*
X288142Y191664D01*
X288193Y191723D01*
X288237Y191784D01*
X288277Y191850D01*
X288309Y191915D01*
X288335Y191980D01*
X288360Y192046D01*
X288379Y192108D01*
X288393Y192169D01*
X288404Y192224D01*
X288415Y192278D01*
X288422Y192325D01*
X288426Y192365D01*
Y192398D01*
X288429Y192423D01*
Y192442D01*
Y192445D01*
X288426Y192543D01*
X288415Y192638D01*
X288400Y192725D01*
X288382Y192805D01*
X288360Y192885D01*
X288335Y192954D01*
X288306Y193019D01*
X288277Y193081D01*
X288251Y193132D01*
X288222Y193179D01*
X288197Y193219D01*
X288175Y193252D01*
X288157Y193281D01*
X288142Y193299D01*
X288132Y193310D01*
X288128Y193313D01*
X288070Y193372D01*
X288008Y193426D01*
X287950Y193470D01*
X287888Y193510D01*
X287826Y193542D01*
X287765Y193568D01*
X287710Y193589D01*
X287652Y193608D01*
X287601Y193622D01*
X287554Y193633D01*
X287514Y193640D01*
X287478Y193647D01*
X287449D01*
X287427Y193651D01*
D02*
G37*
G36*
X303132Y207262D02*
X303097D01*
X302949Y207255D01*
X302808Y207233D01*
X302668Y207198D01*
X302541Y207156D01*
X302421Y207107D01*
X302302Y207050D01*
X302196Y206994D01*
X302105Y206931D01*
X302020Y206868D01*
X301943Y206811D01*
X301872Y206755D01*
X301816Y206706D01*
X301774Y206663D01*
X301746Y206628D01*
X301725Y206607D01*
X301718Y206600D01*
X301619Y206474D01*
X301528Y206326D01*
X301450Y206178D01*
X301387Y206023D01*
X301331Y205861D01*
X301281Y205700D01*
X301246Y205538D01*
X301211Y205383D01*
X301190Y205235D01*
X301169Y205095D01*
X301155Y204975D01*
X301148Y204862D01*
Y204778D01*
X301141Y204708D01*
Y204665D01*
Y204658D01*
Y204651D01*
X301148Y204405D01*
X301162Y204180D01*
X301190Y203969D01*
X301225Y203772D01*
X301267Y203596D01*
X301317Y203427D01*
X301366Y203286D01*
X301415Y203153D01*
X301471Y203040D01*
X301521Y202942D01*
X301570Y202857D01*
X301612Y202787D01*
X301647Y202738D01*
X301675Y202695D01*
X301689Y202674D01*
X301696Y202667D01*
X301802Y202555D01*
X301915Y202456D01*
X302027Y202372D01*
X302147Y202301D01*
X302259Y202238D01*
X302379Y202189D01*
X302484Y202146D01*
X302597Y202111D01*
X302696Y202090D01*
X302787Y202069D01*
X302864Y202055D01*
X302935Y202041D01*
X302998D01*
X303040Y202034D01*
X303076D01*
X303230Y202041D01*
X303371Y202062D01*
X303512Y202090D01*
X303638Y202132D01*
X303765Y202182D01*
X303878Y202238D01*
X303983Y202294D01*
X304075Y202351D01*
X304159Y202407D01*
X304237Y202470D01*
X304300Y202519D01*
X304356Y202569D01*
X304398Y202611D01*
X304426Y202639D01*
X304447Y202660D01*
X304455Y202667D01*
X304553Y202794D01*
X304638Y202942D01*
X304708Y203089D01*
X304771Y203251D01*
X304827Y203420D01*
X304870Y203589D01*
X304905Y203758D01*
X304933Y203920D01*
X304954Y204074D01*
X304975Y204222D01*
X304989Y204356D01*
X304996Y204468D01*
Y204560D01*
X305003Y204630D01*
Y204658D01*
Y204679D01*
Y204687D01*
Y204694D01*
X304996Y204926D01*
X304982Y205144D01*
X304954Y205341D01*
X304919Y205531D01*
X304877Y205707D01*
X304827Y205861D01*
X304778Y206002D01*
X304722Y206129D01*
X304673Y206241D01*
X304623Y206340D01*
X304574Y206424D01*
X304532Y206495D01*
X304497Y206544D01*
X304469Y206586D01*
X304455Y206607D01*
X304447Y206614D01*
X304342Y206727D01*
X304229Y206825D01*
X304117Y206917D01*
X304004Y206987D01*
X303885Y207050D01*
X303779Y207107D01*
X303667Y207149D01*
X303561Y207184D01*
X303470Y207205D01*
X303378Y207226D01*
X303301Y207241D01*
X303230Y207255D01*
X303174D01*
X303132Y207262D01*
D02*
G37*
G36*
X310527D02*
X310484D01*
X310322Y207255D01*
X310168Y207233D01*
X310020Y207198D01*
X309879Y207156D01*
X309746Y207107D01*
X309626Y207050D01*
X309513Y206987D01*
X309415Y206924D01*
X309323Y206861D01*
X309239Y206797D01*
X309168Y206741D01*
X309112Y206692D01*
X309070Y206649D01*
X309035Y206614D01*
X309014Y206593D01*
X309007Y206586D01*
X308901Y206452D01*
X308810Y206305D01*
X308732Y206150D01*
X308662Y205995D01*
X308606Y205826D01*
X308556Y205664D01*
X308514Y205503D01*
X308486Y205348D01*
X308458Y205193D01*
X308437Y205059D01*
X308430Y204933D01*
X308416Y204820D01*
Y204736D01*
X308409Y204665D01*
Y204623D01*
Y204616D01*
Y204609D01*
X308416Y204356D01*
X308437Y204124D01*
X308465Y203906D01*
X308500Y203701D01*
X308542Y203519D01*
X308599Y203350D01*
X308648Y203195D01*
X308704Y203061D01*
X308761Y202942D01*
X308810Y202836D01*
X308859Y202745D01*
X308908Y202674D01*
X308943Y202618D01*
X308972Y202583D01*
X308993Y202555D01*
X309000Y202548D01*
X309112Y202428D01*
X309232Y202322D01*
X309359Y202238D01*
X309478Y202161D01*
X309605Y202090D01*
X309731Y202034D01*
X309851Y201992D01*
X309964Y201957D01*
X310069Y201928D01*
X310168Y201907D01*
X310259Y201893D01*
X310336Y201886D01*
X310400Y201879D01*
X310442Y201872D01*
X310484D01*
X310646Y201879D01*
X310801Y201900D01*
X310956Y201936D01*
X311096Y201978D01*
X311223Y202027D01*
X311350Y202083D01*
X311462Y202146D01*
X311561Y202210D01*
X311652Y202266D01*
X311737Y202330D01*
X311807Y202386D01*
X311863Y202435D01*
X311905Y202477D01*
X311941Y202512D01*
X311962Y202533D01*
X311969Y202540D01*
X312074Y202674D01*
X312159Y202822D01*
X312236Y202977D01*
X312306Y203146D01*
X312363Y203307D01*
X312412Y203476D01*
X312447Y203645D01*
X312482Y203807D01*
X312504Y203962D01*
X312525Y204102D01*
X312532Y204236D01*
X312546Y204349D01*
Y204440D01*
X312553Y204511D01*
Y204532D01*
Y204553D01*
Y204560D01*
Y204567D01*
X312546Y204813D01*
X312525Y205038D01*
X312496Y205256D01*
X312461Y205453D01*
X312419Y205636D01*
X312370Y205798D01*
X312313Y205946D01*
X312257Y206087D01*
X312208Y206199D01*
X312152Y206305D01*
X312103Y206389D01*
X312060Y206460D01*
X312025Y206516D01*
X311997Y206558D01*
X311976Y206579D01*
X311969Y206586D01*
X311856Y206706D01*
X311737Y206811D01*
X311610Y206903D01*
X311490Y206980D01*
X311364Y207043D01*
X311237Y207100D01*
X311117Y207142D01*
X311005Y207177D01*
X310899Y207205D01*
X310801Y207226D01*
X310709Y207241D01*
X310632Y207255D01*
X310569D01*
X310527Y207262D01*
D02*
G37*
G36*
X322459Y207318D02*
X322424D01*
X322283Y207311D01*
X322150Y207290D01*
X322016Y207255D01*
X321896Y207212D01*
X321777Y207163D01*
X321671Y207107D01*
X321566Y207043D01*
X321474Y206980D01*
X321390Y206917D01*
X321319Y206854D01*
X321256Y206797D01*
X321200Y206748D01*
X321157Y206706D01*
X321129Y206671D01*
X321108Y206649D01*
X321101Y206642D01*
X321003Y206509D01*
X320918Y206361D01*
X320841Y206206D01*
X320778Y206044D01*
X320728Y205882D01*
X320679Y205714D01*
X320644Y205545D01*
X320616Y205383D01*
X320595Y205235D01*
X320574Y205088D01*
X320560Y204961D01*
X320552Y204848D01*
X320545Y204757D01*
Y204687D01*
Y204665D01*
Y204644D01*
Y204637D01*
Y204630D01*
X320552Y204377D01*
X320566Y204138D01*
X320595Y203913D01*
X320637Y203708D01*
X320679Y203519D01*
X320728Y203350D01*
X320778Y203195D01*
X320827Y203054D01*
X320883Y202934D01*
X320932Y202829D01*
X320982Y202738D01*
X321024Y202667D01*
X321059Y202611D01*
X321087Y202576D01*
X321108Y202548D01*
X321115Y202540D01*
X321221Y202421D01*
X321333Y202322D01*
X321446Y202231D01*
X321566Y202154D01*
X321678Y202090D01*
X321791Y202034D01*
X321903Y201992D01*
X322002Y201957D01*
X322100Y201928D01*
X322192Y201907D01*
X322269Y201893D01*
X322340Y201886D01*
X322396Y201879D01*
X322438Y201872D01*
X322473D01*
X322614Y201879D01*
X322755Y201900D01*
X322888Y201936D01*
X323008Y201971D01*
X323128Y202020D01*
X323240Y202076D01*
X323339Y202132D01*
X323430Y202196D01*
X323515Y202259D01*
X323585Y202315D01*
X323648Y202372D01*
X323704Y202421D01*
X323747Y202463D01*
X323775Y202491D01*
X323796Y202512D01*
X323803Y202519D01*
X323901Y202646D01*
X323986Y202794D01*
X324056Y202949D01*
X324120Y203110D01*
X324176Y203272D01*
X324218Y203441D01*
X324253Y203610D01*
X324281Y203772D01*
X324303Y203920D01*
X324324Y204067D01*
X324338Y204194D01*
X324345Y204307D01*
Y204405D01*
X324352Y204475D01*
Y204496D01*
Y204518D01*
Y204525D01*
Y204532D01*
X324345Y204778D01*
X324324Y205010D01*
X324296Y205228D01*
X324260Y205425D01*
X324218Y205615D01*
X324169Y205784D01*
X324113Y205939D01*
X324056Y206073D01*
X324007Y206199D01*
X323951Y206305D01*
X323901Y206396D01*
X323859Y206467D01*
X323824Y206523D01*
X323796Y206565D01*
X323775Y206593D01*
X323768Y206600D01*
X323655Y206727D01*
X323543Y206839D01*
X323430Y206931D01*
X323311Y207015D01*
X323198Y207086D01*
X323085Y207142D01*
X322980Y207191D01*
X322874Y207226D01*
X322783Y207255D01*
X322698Y207283D01*
X322621Y207297D01*
X322551Y207304D01*
X322494Y207311D01*
X322459Y207318D01*
D02*
G37*
%LPD*%
D11*
X231647Y210960D02*
X246882D01*
X239264D01*
Y200803D01*
X231647D01*
X246882D01*
Y193186D02*
Y188107D01*
X244342Y185568D01*
X239264D01*
X236725Y188107D01*
Y193186D01*
X239264Y195725D01*
X244342D01*
X246882Y193186D01*
Y180490D02*
Y175411D01*
Y177951D01*
X231647D01*
Y180490D01*
Y167794D02*
X246882D01*
Y160176D01*
X244342Y157637D01*
X241803D01*
X239264D01*
X236725Y160176D01*
Y167794D01*
X246882Y144941D02*
Y150020D01*
X244342Y152559D01*
X239264D01*
X236725Y150020D01*
Y144941D01*
X239264Y142402D01*
X241803D01*
Y152559D01*
X236725Y137324D02*
X246882D01*
X241803D01*
X239264Y134785D01*
X236725Y132246D01*
Y129706D01*
X234186Y119550D02*
X236725D01*
Y122089D01*
Y117010D01*
Y119550D01*
X244342D01*
X246882Y117010D01*
Y106854D02*
Y101775D01*
X244342Y99236D01*
X239264D01*
X236725Y101775D01*
Y106854D01*
X239264Y109393D01*
X244342D01*
X246882Y106854D01*
Y94158D02*
X236725D01*
Y86540D01*
X239264Y84001D01*
X246882D01*
X231647Y63688D02*
X246882D01*
Y56070D01*
X244342Y53531D01*
X234186D01*
X231647Y56070D01*
Y63688D01*
X246882Y40835D02*
Y45913D01*
X244342Y48453D01*
X239264D01*
X236725Y45913D01*
Y40835D01*
X239264Y38296D01*
X241803D01*
Y48453D01*
X231647Y33217D02*
X246882D01*
Y25600D01*
X244342Y23061D01*
X241803D01*
X239264D01*
X236725Y25600D01*
Y33217D01*
Y17982D02*
X244342D01*
X246882Y15443D01*
Y7826D01*
X236725D01*
X251960Y-2331D02*
Y-4870D01*
X249421Y-7409D01*
X236725D01*
Y208D01*
X239264Y2747D01*
X244342D01*
X246882Y208D01*
Y-7409D01*
D15*
X-203200Y177800D02*
X101600Y50800D01*
X-203200D02*
X101600D01*
X-203200D02*
X101600Y177800D01*
X-203200D02*
X101600D01*
X-203200Y50800D02*
Y177800D01*
X101600Y50800D02*
Y177800D01*
X-347248Y328809D02*
X-342169D01*
Y325000D01*
X-344709D01*
X-342169D01*
Y321191D01*
X-349787Y328809D02*
X-352326D01*
X-351056D01*
Y321191D01*
X-349787D01*
X-352326D01*
X-356135Y328809D02*
Y321191D01*
X-359944D01*
X-361213Y322461D01*
Y327539D01*
X-359944Y328809D01*
X-356135D01*
X-368831D02*
X-366292Y327539D01*
X-363752Y325000D01*
Y322461D01*
X-365022Y321191D01*
X-367561D01*
X-368831Y322461D01*
Y323730D01*
X-367561Y325000D01*
X-363752D01*
X-347300Y-326167D02*
X-342222D01*
Y-329975D01*
X-344761D01*
X-342222D01*
Y-333784D01*
X-349840Y-326167D02*
X-352379D01*
X-351109D01*
Y-333784D01*
X-349840D01*
X-352379D01*
X-356188Y-326167D02*
Y-333784D01*
X-359996D01*
X-361266Y-332514D01*
Y-327436D01*
X-359996Y-326167D01*
X-356188D01*
X-363805Y-327436D02*
X-365075Y-326167D01*
X-367614D01*
X-368884Y-327436D01*
Y-328706D01*
X-367614Y-329975D01*
X-366344D01*
X-367614D01*
X-368884Y-331245D01*
Y-332514D01*
X-367614Y-333784D01*
X-365075D01*
X-363805Y-332514D01*
X361359Y359633D02*
X366438D01*
Y355825D01*
X363899D01*
X366438D01*
Y352016D01*
X358820Y359633D02*
X356281D01*
X357551D01*
Y352016D01*
X358820D01*
X356281D01*
X352472Y359633D02*
Y352016D01*
X348664D01*
X347394Y353285D01*
Y358364D01*
X348664Y359633D01*
X352472D01*
X344855Y352016D02*
X342316D01*
X343585D01*
Y359633D01*
X344855Y358364D01*
D16*
X-203200Y50800D02*
X101600D01*
D64*
X359000Y178250D02*
X359000Y23750D01*
X335121Y178250D02*
X359000Y178250D01*
X316000Y27028D02*
Y174972D01*
Y27028D02*
Y174972D01*
X350520Y178250D02*
X359000D01*
X359000Y169770D01*
X350520Y178250D02*
X359000Y169770D01*
X271000Y164246D02*
X271000Y174972D01*
X335121Y23750D02*
X359000Y23750D01*
X359000Y32230D02*
X359000Y23750D01*
X350520Y23750D02*
X359000Y23750D01*
X350520Y23750D02*
X359000Y32230D01*
X271000Y27028D02*
Y37754D01*
X273632Y4968D02*
X275650Y8500D01*
X277668Y4968D01*
M02*
