G04*
G04 #@! TF.GenerationSoftware,Altium Limited,Altium Designer,24.1.2 (44)*
G04*
G04 Layer_Color=128*
%FSLAX44Y44*%
%MOMM*%
G71*
G04*
G04 #@! TF.SameCoordinates,2E5B26B1-033E-4B1C-A529-2162076C627E*
G04*
G04*
G04 #@! TF.FilePolarity,Positive*
G04*
G01*
G75*
%ADD29R,0.7000X0.6000*%
%ADD97R,3.8100X4.2418*%
%ADD98R,1.0000X0.8000*%
%ADD99O,1.4000X0.4500*%
%ADD100O,0.6000X1.4500*%
%ADD101R,0.6250X0.8300*%
%ADD102R,2.3000X2.5000*%
%ADD103R,1.4500X1.2000*%
%ADD104R,0.8500X0.7000*%
%ADD105R,3.6500X1.6000*%
%ADD106R,0.7500X0.8500*%
%ADD107R,3.1500X2.4500*%
%ADD108R,0.7000X0.9000*%
%ADD109R,1.6000X3.3000*%
%ADD110R,1.6000X1.2000*%
%ADD111R,1.8000X3.4000*%
%ADD112R,0.8048X0.2492*%
%ADD113R,1.3000X1.8000*%
%ADD114R,1.4000X1.3000*%
%ADD115R,0.9000X0.8000*%
%ADD116R,0.8000X0.9000*%
%ADD117R,0.6000X0.7000*%
%ADD118R,0.9000X0.7000*%
%ADD119R,0.8500X0.7500*%
G36*
X1055000Y741039D02*
X1055000Y741040D01*
X1053344Y740674D01*
X1050138Y739573D01*
X1047135Y738000D01*
X1044405Y735992D01*
X1042008Y733595D01*
X1040000Y730864D01*
X1038428Y727862D01*
X1037326Y724656D01*
X1036960Y723000D01*
Y723000D01*
X1022871D01*
X1022871Y723000D01*
X1023096Y725035D01*
X1024001Y729028D01*
X1025348Y732894D01*
X1027121Y736585D01*
X1029296Y740053D01*
X1031848Y743255D01*
X1034743Y746150D01*
X1037945Y748702D01*
X1041413Y750878D01*
X1045103Y752651D01*
X1048969Y753998D01*
X1052962Y754903D01*
X1054997Y755129D01*
X1055000D01*
Y741039D01*
D02*
G37*
G36*
X1065035Y754904D02*
X1069028Y753999D01*
X1072894Y752652D01*
X1076585Y750879D01*
X1080053Y748703D01*
X1083255Y746152D01*
X1086150Y743257D01*
X1088702Y740055D01*
X1090878Y736587D01*
X1092651Y732897D01*
X1093998Y729031D01*
X1094903Y725038D01*
X1095129Y723003D01*
Y723000D01*
X1081039D01*
X1081040Y723000D01*
X1080674Y724656D01*
X1079573Y727862D01*
X1078000Y730864D01*
X1075992Y733595D01*
X1073595Y735992D01*
X1070864Y738000D01*
X1067862Y739573D01*
X1064656Y740674D01*
X1063000Y741040D01*
X1063000Y741040D01*
X1063000D01*
Y755129D01*
X1063000D01*
X1065035Y754904D01*
D02*
G37*
G36*
X1095129Y715000D02*
X1094904Y712965D01*
X1093999Y708972D01*
X1092652Y705106D01*
X1090879Y701415D01*
X1088703Y697947D01*
X1086152Y694745D01*
X1083257Y691850D01*
X1080055Y689298D01*
X1076587Y687122D01*
X1072897Y685349D01*
X1069031Y684001D01*
X1065038Y683097D01*
X1063003Y682871D01*
X1063000Y682871D01*
Y696961D01*
X1063000Y696960D01*
X1064656Y697326D01*
X1067862Y698428D01*
X1070864Y700000D01*
X1073595Y702008D01*
X1075992Y704405D01*
X1078000Y707135D01*
X1079573Y710138D01*
X1080674Y713344D01*
X1081040Y715000D01*
X1081040D01*
Y715000D01*
X1095129D01*
Y715000D01*
D02*
G37*
G36*
X1036960Y715000D02*
X1037326Y713344D01*
X1038428Y710138D01*
X1040000Y707135D01*
X1042008Y704405D01*
X1044405Y702008D01*
X1047135Y700000D01*
X1050138Y698428D01*
X1053344Y697326D01*
X1055000Y696960D01*
X1055000D01*
Y682871D01*
X1055000Y682871D01*
X1052965Y683096D01*
X1048972Y684001D01*
X1045106Y685348D01*
X1041415Y687121D01*
X1037947Y689297D01*
X1034745Y691848D01*
X1031850Y694743D01*
X1029298Y697945D01*
X1027122Y701413D01*
X1025349Y705103D01*
X1024001Y708969D01*
X1023096Y712962D01*
X1022871Y714997D01*
X1022871Y715000D01*
X1036961D01*
X1036960Y715000D01*
D02*
G37*
G36*
X603630Y418830D02*
X587630D01*
Y433830D01*
X603630D01*
Y418830D01*
D02*
G37*
G36*
Y401830D02*
X587630D01*
Y416830D01*
X603630D01*
Y401830D01*
D02*
G37*
G36*
X1055000Y63039D02*
X1055000Y63040D01*
X1053344Y62674D01*
X1050138Y61572D01*
X1047135Y60000D01*
X1044405Y57992D01*
X1042008Y55595D01*
X1040000Y52864D01*
X1038428Y49862D01*
X1037326Y46656D01*
X1036960Y45000D01*
Y45000D01*
X1022871D01*
X1022871Y45000D01*
X1023096Y47035D01*
X1024001Y51028D01*
X1025348Y54894D01*
X1027121Y58585D01*
X1029296Y62053D01*
X1031848Y65255D01*
X1034743Y68150D01*
X1037945Y70702D01*
X1041413Y72878D01*
X1045103Y74651D01*
X1048969Y75999D01*
X1052962Y76903D01*
X1054997Y77129D01*
X1055000D01*
Y63039D01*
D02*
G37*
G36*
X37000D02*
X37000Y63040D01*
X35344Y62674D01*
X32138Y61572D01*
X29135Y60000D01*
X26405Y57992D01*
X24008Y55595D01*
X22000Y52864D01*
X20427Y49862D01*
X19326Y46656D01*
X18960Y45000D01*
Y45000D01*
X4871D01*
X4871Y45000D01*
X5096Y47035D01*
X6001Y51028D01*
X7348Y54894D01*
X9121Y58585D01*
X11296Y62053D01*
X13848Y65255D01*
X16743Y68150D01*
X19945Y70702D01*
X23413Y72878D01*
X27103Y74651D01*
X30969Y75999D01*
X34962Y76903D01*
X36997Y77129D01*
X37000D01*
Y63039D01*
D02*
G37*
G36*
X1065035Y76904D02*
X1069028Y75999D01*
X1072894Y74652D01*
X1076585Y72879D01*
X1080053Y70703D01*
X1083255Y68152D01*
X1086150Y65257D01*
X1088702Y62055D01*
X1090878Y58587D01*
X1092651Y54897D01*
X1093998Y51031D01*
X1094903Y47038D01*
X1095129Y45003D01*
Y45000D01*
X1081039D01*
X1081040Y45000D01*
X1080674Y46656D01*
X1079573Y49862D01*
X1078000Y52864D01*
X1075992Y55595D01*
X1073595Y57992D01*
X1070864Y60000D01*
X1067862Y61572D01*
X1064656Y62674D01*
X1063000Y63040D01*
X1063000Y63040D01*
X1063000D01*
Y77129D01*
X1063000D01*
X1065035Y76904D01*
D02*
G37*
G36*
X47035D02*
X51028Y75999D01*
X54894Y74652D01*
X58585Y72879D01*
X62053Y70703D01*
X65255Y68152D01*
X68150Y65257D01*
X70702Y62055D01*
X72878Y58587D01*
X74651Y54897D01*
X75999Y51031D01*
X76903Y47038D01*
X77129Y45003D01*
Y45000D01*
X63039D01*
X63040Y45000D01*
X62674Y46656D01*
X61572Y49862D01*
X60000Y52864D01*
X57992Y55595D01*
X55595Y57992D01*
X52864Y60000D01*
X49862Y61572D01*
X46656Y62674D01*
X45000Y63040D01*
X45000Y63040D01*
X45000D01*
Y77129D01*
X45000D01*
X47035Y76904D01*
D02*
G37*
G36*
X1095129Y37000D02*
X1094904Y34965D01*
X1093999Y30972D01*
X1092652Y27106D01*
X1090879Y23415D01*
X1088703Y19947D01*
X1086152Y16745D01*
X1083257Y13850D01*
X1080055Y11298D01*
X1076587Y9122D01*
X1072897Y7349D01*
X1069031Y6001D01*
X1065038Y5096D01*
X1063003Y4871D01*
X1063000Y4871D01*
Y18961D01*
X1063000Y18960D01*
X1064656Y19326D01*
X1067862Y20427D01*
X1070864Y22000D01*
X1073595Y24008D01*
X1075992Y26405D01*
X1078000Y29135D01*
X1079573Y32138D01*
X1080674Y35344D01*
X1081040Y37000D01*
X1081040D01*
Y37000D01*
X1095129D01*
Y37000D01*
D02*
G37*
G36*
X77129D02*
X76904Y34965D01*
X75999Y30972D01*
X74652Y27106D01*
X72879Y23415D01*
X70703Y19947D01*
X68152Y16745D01*
X65257Y13850D01*
X62055Y11298D01*
X58587Y9122D01*
X54897Y7349D01*
X51031Y6001D01*
X47038Y5096D01*
X45003Y4871D01*
X45000Y4871D01*
Y18961D01*
X45000Y18960D01*
X46656Y19326D01*
X49862Y20427D01*
X52864Y22000D01*
X55595Y24008D01*
X57992Y26405D01*
X60000Y29135D01*
X61572Y32138D01*
X62674Y35344D01*
X63040Y37000D01*
X63040D01*
Y37000D01*
X77129D01*
Y37000D01*
D02*
G37*
G36*
X1036960Y37000D02*
X1037326Y35344D01*
X1038428Y32138D01*
X1040000Y29135D01*
X1042008Y26405D01*
X1044405Y24008D01*
X1047135Y22000D01*
X1050138Y20427D01*
X1053344Y19326D01*
X1055000Y18960D01*
X1055000D01*
Y4871D01*
X1055000Y4871D01*
X1052965Y5096D01*
X1048972Y6001D01*
X1045106Y7348D01*
X1041415Y9121D01*
X1037947Y11296D01*
X1034745Y13848D01*
X1031850Y16743D01*
X1029298Y19945D01*
X1027122Y23413D01*
X1025349Y27103D01*
X1024001Y30969D01*
X1023096Y34962D01*
X1022871Y36997D01*
X1022871Y37000D01*
X1036961D01*
X1036960Y37000D01*
D02*
G37*
G36*
X18960D02*
X19326Y35344D01*
X20427Y32138D01*
X22000Y29135D01*
X24008Y26405D01*
X26405Y24008D01*
X29135Y22000D01*
X32138Y20427D01*
X35344Y19326D01*
X37000Y18960D01*
X37000D01*
Y4871D01*
X37000Y4871D01*
X34965Y5096D01*
X30972Y6001D01*
X27106Y7348D01*
X23415Y9121D01*
X19947Y11296D01*
X16745Y13848D01*
X13850Y16743D01*
X11298Y19945D01*
X9122Y23413D01*
X7349Y27103D01*
X6001Y30969D01*
X5096Y34962D01*
X4871Y36997D01*
X4871Y37000D01*
X18961D01*
X18960Y37000D01*
D02*
G37*
D29*
X564570Y82550D02*
D03*
X555570D02*
D03*
X800260Y237490D02*
D03*
X820260Y227990D02*
D03*
Y246990D02*
D03*
X414600Y168910D02*
D03*
X423600D02*
D03*
X666060Y113030D02*
D03*
X675060D02*
D03*
X666060Y87630D02*
D03*
X675060D02*
D03*
X675060Y100330D02*
D03*
X666060D02*
D03*
X643200Y74930D02*
D03*
X652200D02*
D03*
X555570Y107950D02*
D03*
X564570D02*
D03*
X561920Y24130D02*
D03*
X570920D02*
D03*
X555570Y95250D02*
D03*
X564570D02*
D03*
X555570Y69850D02*
D03*
X564570D02*
D03*
D97*
X934720Y311023D02*
D03*
Y374777D02*
D03*
X535940Y332867D02*
D03*
Y269113D02*
D03*
D98*
X379730Y653930D02*
D03*
Y638930D02*
D03*
X269240Y627260D02*
D03*
Y612260D02*
D03*
X297180Y593210D02*
D03*
Y608210D02*
D03*
X486410Y638930D02*
D03*
Y653930D02*
D03*
D99*
X645450Y112620D02*
D03*
Y106120D02*
D03*
Y99620D02*
D03*
Y93120D02*
D03*
X586450Y112620D02*
D03*
Y106120D02*
D03*
Y99620D02*
D03*
Y93120D02*
D03*
D100*
X496570Y539060D02*
D03*
X509270D02*
D03*
X521970D02*
D03*
X534670D02*
D03*
X496570Y484560D02*
D03*
X509270D02*
D03*
X521970D02*
D03*
X534670D02*
D03*
X496570Y438730D02*
D03*
X509270D02*
D03*
X521970D02*
D03*
X534670D02*
D03*
X496570Y384230D02*
D03*
X509270D02*
D03*
X521970D02*
D03*
X534670D02*
D03*
D101*
X757885Y199390D02*
D03*
X735635D02*
D03*
D102*
X328930Y409120D02*
D03*
Y452120D02*
D03*
D103*
X914400Y422030D02*
D03*
Y439030D02*
D03*
X594360Y303140D02*
D03*
Y286140D02*
D03*
D104*
X914400Y454760D02*
D03*
Y467260D02*
D03*
X594360Y331370D02*
D03*
Y318870D02*
D03*
D105*
X1031240Y111680D02*
D03*
Y175180D02*
D03*
D106*
X740760Y217170D02*
D03*
X752760D02*
D03*
X662020Y433070D02*
D03*
X674020D02*
D03*
X662020Y387350D02*
D03*
X674020D02*
D03*
X662020Y417830D02*
D03*
X674020D02*
D03*
X662020Y402590D02*
D03*
X674020D02*
D03*
X662020Y448310D02*
D03*
X674020D02*
D03*
X761080Y267970D02*
D03*
X773080D02*
D03*
X761080Y284480D02*
D03*
X773080D02*
D03*
D107*
X801370Y388100D02*
D03*
Y450100D02*
D03*
D108*
X767230Y234340D02*
D03*
X754230D02*
D03*
X760730Y253340D02*
D03*
X623570Y19710D02*
D03*
X630070Y38710D02*
D03*
X617070D02*
D03*
D109*
X644910Y236220D02*
D03*
D110*
X708910Y213220D02*
D03*
Y236220D02*
D03*
Y259220D02*
D03*
D111*
X595630Y417830D02*
D03*
D112*
X610154Y402830D02*
D03*
Y407830D02*
D03*
Y412830D02*
D03*
Y417830D02*
D03*
Y422830D02*
D03*
Y427830D02*
D03*
Y432830D02*
D03*
X581106D02*
D03*
Y427830D02*
D03*
Y422830D02*
D03*
Y417830D02*
D03*
Y412830D02*
D03*
Y407830D02*
D03*
Y402830D02*
D03*
D113*
X812060Y203200D02*
D03*
X783060D02*
D03*
D114*
X459740Y193930D02*
D03*
Y209930D02*
D03*
D115*
X628650Y65940D02*
D03*
Y53440D02*
D03*
X704850Y87730D02*
D03*
Y100230D02*
D03*
X659130Y35460D02*
D03*
Y22960D02*
D03*
X538480Y107850D02*
D03*
Y95350D02*
D03*
X600710Y38000D02*
D03*
Y25500D02*
D03*
X468630Y83720D02*
D03*
Y71220D02*
D03*
D116*
X553820Y121920D02*
D03*
X566320D02*
D03*
D117*
X469240Y158910D02*
D03*
X450240D02*
D03*
X459740Y178910D02*
D03*
X798830Y285590D02*
D03*
X789330Y265590D02*
D03*
X808330D02*
D03*
X497840Y58260D02*
D03*
X488340Y38260D02*
D03*
X507340D02*
D03*
X553110Y56990D02*
D03*
X572110D02*
D03*
X562610Y36990D02*
D03*
X445770Y53180D02*
D03*
X436270Y33180D02*
D03*
X455270D02*
D03*
X635000Y445190D02*
D03*
Y436190D02*
D03*
X477520Y206430D02*
D03*
Y197430D02*
D03*
X720090Y86940D02*
D03*
Y95940D02*
D03*
X497840Y80700D02*
D03*
Y71700D02*
D03*
X689610Y95940D02*
D03*
Y86940D02*
D03*
X643890Y24710D02*
D03*
Y33710D02*
D03*
X523240Y97100D02*
D03*
Y106100D02*
D03*
X453390Y72970D02*
D03*
Y81970D02*
D03*
X585470Y24710D02*
D03*
Y33710D02*
D03*
X483870Y72970D02*
D03*
Y81970D02*
D03*
X613410Y55190D02*
D03*
Y64190D02*
D03*
X599440Y64190D02*
D03*
Y55190D02*
D03*
D118*
X489610Y101600D02*
D03*
X508610Y95100D02*
D03*
Y108100D02*
D03*
X662280Y55880D02*
D03*
X643280Y62380D02*
D03*
Y49380D02*
D03*
D119*
X737870Y246030D02*
D03*
Y234030D02*
D03*
X521970Y47340D02*
D03*
Y59340D02*
D03*
M02*
