G04*
G04 #@! TF.GenerationSoftware,Altium Limited,Altium Designer,24.1.2 (44)*
G04*
G04 Layer_Color=8421504*
%FSLAX44Y44*%
%MOMM*%
G71*
G04*
G04 #@! TF.SameCoordinates,2E5B26B1-033E-4B1C-A529-2162076C627E*
G04*
G04*
G04 #@! TF.FilePolarity,Positive*
G04*
G01*
G75*
%ADD17R,0.7460X1.2940*%
%ADD18R,0.5080X0.7660*%
%ADD19R,0.5620X1.0720*%
%ADD20R,0.5620X1.0720*%
%ADD21R,1.0720X0.5620*%
%ADD22R,1.0720X0.5620*%
%ADD23R,0.7660X0.5080*%
%ADD24R,1.2940X0.7460*%
%ADD25R,4.6100X3.2500*%
%ADD26R,4.2418X3.8100*%
%ADD27R,0.8000X0.8000*%
%ADD28R,6.0000X2.6000*%
%ADD29R,0.7000X0.6000*%
D17*
X428978Y95473D02*
D03*
X439438D02*
D03*
X449885Y95460D02*
D03*
X418505D02*
D03*
X428978Y79033D02*
D03*
X439438D02*
D03*
X449885Y79020D02*
D03*
X418505D02*
D03*
X354855Y79242D02*
D03*
X386235D02*
D03*
X375775D02*
D03*
X365315D02*
D03*
X354855Y95682D02*
D03*
X386235D02*
D03*
X375775D02*
D03*
X365315D02*
D03*
X375774Y148891D02*
D03*
X365314D02*
D03*
X354855Y148892D02*
D03*
X386235D02*
D03*
X375774Y165331D02*
D03*
X365314D02*
D03*
X354855Y165332D02*
D03*
X386235D02*
D03*
X449898Y165331D02*
D03*
X418520D02*
D03*
X428965Y165345D02*
D03*
X439425D02*
D03*
X449898Y148893D02*
D03*
X418520D02*
D03*
X428965Y148906D02*
D03*
X439425D02*
D03*
D18*
X427845Y108633D02*
D03*
X440545D02*
D03*
X453245D02*
D03*
X415145D02*
D03*
X351508Y108842D02*
D03*
X389608D02*
D03*
X376908D02*
D03*
X364208D02*
D03*
X376896Y135745D02*
D03*
X364196D02*
D03*
X351496D02*
D03*
X389596D02*
D03*
X453245Y135731D02*
D03*
X415145D02*
D03*
X427845D02*
D03*
X440545D02*
D03*
D19*
X427845Y54232D02*
D03*
X364195Y54440D02*
D03*
X376895Y190133D02*
D03*
X440545Y190133D02*
D03*
D20*
X440545Y54233D02*
D03*
X453245D02*
D03*
X415145D02*
D03*
X351508Y54442D02*
D03*
X389608D02*
D03*
X376908D02*
D03*
X364196Y190145D02*
D03*
X351496D02*
D03*
X389596D02*
D03*
X453245Y190131D02*
D03*
X415145D02*
D03*
X427845D02*
D03*
D21*
X553700Y69050D02*
D03*
Y30950D02*
D03*
Y43650D02*
D03*
D22*
X553698Y56350D02*
D03*
D23*
X608100Y69050D02*
D03*
Y30950D02*
D03*
Y43650D02*
D03*
Y56350D02*
D03*
D24*
X578500Y65690D02*
D03*
Y34310D02*
D03*
X578500Y44770D02*
D03*
Y55230D02*
D03*
X594940Y65690D02*
D03*
Y34310D02*
D03*
X594940Y44770D02*
D03*
Y55230D02*
D03*
D25*
X57150Y102330D02*
D03*
Y199930D02*
D03*
D26*
X711327Y49530D02*
D03*
X647573D02*
D03*
D27*
X1047500Y660000D02*
D03*
X1032500D02*
D03*
X185700Y585000D02*
D03*
X170700D02*
D03*
X1032500Y540000D02*
D03*
X1047500D02*
D03*
X1032500Y570000D02*
D03*
X1047500D02*
D03*
X1032500Y600000D02*
D03*
X1047500D02*
D03*
X1032500Y630000D02*
D03*
X1047500D02*
D03*
D28*
X276620Y179000D02*
D03*
X156620D02*
D03*
X691840Y149860D02*
D03*
X811840D02*
D03*
X621340D02*
D03*
X501340D02*
D03*
D29*
X253047Y585000D02*
D03*
X244047D02*
D03*
M02*
