G04*
G04 #@! TF.GenerationSoftware,Altium Limited,Altium Designer,24.1.2 (44)*
G04*
G04 Layer_Color=65535*
%FSLAX44Y44*%
%MOMM*%
G71*
G04*
G04 #@! TF.SameCoordinates,2E5B26B1-033E-4B1C-A529-2162076C627E*
G04*
G04*
G04 #@! TF.FilePolarity,Positive*
G04*
G01*
G75*
%ADD10C,0.3000*%
%ADD11C,0.2500*%
%ADD12C,0.2000*%
%ADD13C,0.1270*%
%ADD14C,0.1524*%
%ADD15C,0.2540*%
%ADD16C,0.1778*%
D10*
X409262Y41000D02*
G03*
X409262Y41000I-762J0D01*
G01*
X352257Y39828D02*
G03*
X352257Y39828I-762J0D01*
G01*
X390357Y204745D02*
G03*
X390357Y204745I-762J0D01*
G01*
X539848Y69050D02*
G03*
X539848Y69050I-762J0D01*
G01*
X454007Y204745D02*
G03*
X454007Y204745I-762J0D01*
G01*
X1059640Y202740D02*
X1075635D01*
Y194743D01*
X1072969Y192077D01*
X1067637D01*
X1064972Y194743D01*
Y202740D01*
Y197408D02*
X1059640Y192077D01*
X1070303Y186745D02*
X1062306D01*
X1059640Y184079D01*
Y176082D01*
X1070303D01*
X1059640Y170750D02*
Y162753D01*
X1062306Y160087D01*
X1064972Y162753D01*
Y168085D01*
X1067637Y170750D01*
X1070303Y168085D01*
Y160087D01*
D11*
X1059160Y654050D02*
G03*
X1059160Y654050I-1250J0D01*
G01*
X161450Y585000D02*
G03*
X161450Y585000I-1250J0D01*
G01*
X1059160Y533400D02*
G03*
X1059160Y533400I-1250J0D01*
G01*
Y563880D02*
G03*
X1059160Y563880I-1250J0D01*
G01*
Y593090D02*
G03*
X1059160Y593090I-1250J0D01*
G01*
Y623570D02*
G03*
X1059160Y623570I-1250J0D01*
G01*
D12*
X35650Y151130D02*
X78650D01*
X630800Y72330D02*
Y74680D01*
Y24380D02*
Y26730D01*
Y24380D02*
X728100D01*
Y72330D02*
Y74680D01*
Y24380D02*
Y26730D01*
X630800Y74680D02*
X728100D01*
X960002Y248000D02*
X969998D01*
Y243002D01*
X968332Y241336D01*
X965000D01*
X963334Y243002D01*
Y248000D01*
X960002Y238003D02*
Y234671D01*
Y236337D01*
X969998D01*
X968332Y238003D01*
X990002Y248000D02*
X999998D01*
Y243002D01*
X998332Y241336D01*
X995000D01*
X993334Y243002D01*
Y248000D01*
X990002Y231339D02*
Y238003D01*
X996666Y231339D01*
X998332D01*
X999998Y233005D01*
Y236337D01*
X998332Y238003D01*
X1020002Y248000D02*
X1029998D01*
Y243002D01*
X1028332Y241336D01*
X1025000D01*
X1023334Y243002D01*
Y248000D01*
X1028332Y238003D02*
X1029998Y236337D01*
Y233005D01*
X1028332Y231339D01*
X1026666D01*
X1025000Y233005D01*
Y234671D01*
Y233005D01*
X1023334Y231339D01*
X1021668D01*
X1020002Y233005D01*
Y236337D01*
X1021668Y238003D01*
X1067339Y535002D02*
Y544998D01*
X1072337D01*
X1074003Y543332D01*
Y540000D01*
X1072337Y538334D01*
X1067339D01*
X1084000Y535002D02*
X1077336D01*
X1084000Y541666D01*
Y543332D01*
X1082334Y544998D01*
X1079002D01*
X1077336Y543332D01*
X1070671Y565002D02*
Y574998D01*
X1075669D01*
X1077336Y573332D01*
Y570000D01*
X1075669Y568334D01*
X1070671D01*
X1080668Y565002D02*
X1084000D01*
X1082334D01*
Y574998D01*
X1080668Y573332D01*
X1074003Y604998D02*
X1067339D01*
Y600000D01*
X1070671D01*
X1067339D01*
Y595002D01*
X1084000D02*
X1077336D01*
X1084000Y601666D01*
Y603332D01*
X1082334Y604998D01*
X1079002D01*
X1077336Y603332D01*
X1077336Y634998D02*
X1070671D01*
Y630000D01*
X1074003D01*
X1070671D01*
Y625002D01*
X1080668D02*
X1084000D01*
X1082334D01*
Y634998D01*
X1080668Y633332D01*
X1067339Y664998D02*
Y658334D01*
X1070671Y655002D01*
X1074003Y658334D01*
Y664998D01*
X1077336D02*
Y655002D01*
X1082334D01*
X1084000Y656668D01*
Y663332D01*
X1082334Y664998D01*
X1077336D01*
D13*
X936082Y131600D02*
X938100D01*
X907600Y-15000D02*
Y131600D01*
X913518D01*
X969540Y128500D02*
X984780Y122150D01*
Y134850D01*
X969540Y128500D02*
X984780Y134850D01*
X961500Y131600D02*
X967000D01*
Y-15000D02*
Y131600D01*
X907600Y-15000D02*
X967000D01*
X1110000Y440500D02*
Y499900D01*
X963400D02*
X1110000D01*
X963400Y494400D02*
Y499900D01*
X960150Y517680D02*
X966500Y502440D01*
X960150Y517680D02*
X972850D01*
X966500Y502440D02*
X972850Y517680D01*
X963400Y440500D02*
Y446418D01*
Y440500D02*
X1110000D01*
X963400Y468982D02*
Y471000D01*
D14*
X530300Y654826D02*
Y776401D01*
X589700D01*
Y654826D02*
Y776401D01*
X585000Y654826D02*
X589700D01*
X530300D02*
X535000D01*
X1037700Y186900D02*
Y237700D01*
X1012300D02*
X1037700D01*
X1012300Y186900D02*
Y237700D01*
Y186900D02*
X1037700D01*
X1007700D02*
Y237700D01*
X982300D02*
X1007700D01*
X982300Y186900D02*
Y237700D01*
Y186900D02*
X1007700D01*
X977700D02*
Y237700D01*
X952300D02*
X977700D01*
X952300Y186900D02*
Y237700D01*
Y186900D02*
X977700D01*
X397000Y630000D02*
X483000D01*
Y777000D01*
X82500Y98500D02*
X100000D01*
X82500Y3500D02*
X237500D01*
X82500D02*
Y98500D01*
X237500Y3500D02*
Y98500D01*
X212500D02*
X237500D01*
X150156D02*
X180000D01*
X298500Y384000D02*
Y407500D01*
Y319156D02*
Y349000D01*
X203500Y252500D02*
Y407500D01*
X298500D01*
X203500Y252500D02*
X298500D01*
Y269000D01*
X1132500Y272500D02*
Y427500D01*
X1042500Y272500D02*
X1132500D01*
X1042500Y427500D02*
X1132500D01*
X1042500Y272500D02*
Y427500D01*
X407425Y48763D02*
Y112303D01*
X460965Y48763D02*
Y112303D01*
X915000Y147500D02*
X1005000D01*
X915000D02*
Y182500D01*
X1005000D01*
Y147500D02*
Y182500D01*
X970000Y165000D02*
X975000D01*
X945000D02*
X950000D01*
X970000Y160000D02*
Y170000D01*
X950000D02*
X970000D01*
X950000Y160000D02*
Y170000D01*
Y160000D02*
X970000D01*
X950000Y155000D02*
X970000Y175000D01*
X975000D01*
X738390Y19530D02*
Y79530D01*
Y19530D02*
X898390D01*
X738390Y79530D02*
X898390D01*
X803390Y39530D02*
X808390D01*
X828390Y59530D01*
X808390Y54530D02*
X828390D01*
Y44530D02*
Y54530D01*
X808390Y44530D02*
X828390D01*
X808390D02*
Y54530D01*
X828390Y49530D02*
X833390D01*
X803390D02*
X808390D01*
X898390Y19530D02*
Y79530D01*
X263200Y690315D02*
Y699685D01*
Y644250D02*
Y669685D01*
X140800Y644250D02*
X263200D01*
X140800D02*
Y745750D01*
X263200D01*
Y720315D02*
Y745750D01*
X223650Y626470D02*
X230000Y641710D01*
X223650Y626470D02*
X236350D01*
X230000Y641710D02*
X236350Y626470D01*
X397000Y630000D02*
Y777000D01*
X483000D01*
X295000Y430260D02*
X301350Y415020D01*
X288650D02*
X301350D01*
X288650D02*
X295000Y430260D01*
X298100Y561282D02*
Y567200D01*
X166200D02*
X298100D01*
X166200Y432800D02*
Y567200D01*
Y432800D02*
X298100D01*
Y438300D01*
Y461700D02*
Y463718D01*
Y486282D02*
Y488718D01*
Y511282D02*
Y513718D01*
Y536282D02*
Y538718D01*
X790301Y654826D02*
X795001D01*
X845000D02*
X849700D01*
Y776401D01*
X790301D02*
X849700D01*
X790301Y654826D02*
Y776401D01*
X870301Y654826D02*
Y776401D01*
X929700D01*
Y654826D02*
Y776401D01*
X925000Y654826D02*
X929700D01*
X870301D02*
X875001D01*
X1031500Y651500D02*
X1048500D01*
X1031500Y668500D02*
X1048500D01*
X310000Y220000D02*
X930000D01*
X310000D02*
Y620000D01*
X930000D01*
Y220000D02*
Y620000D01*
X154120Y116500D02*
X263495D01*
X154120Y241500D02*
X263495D01*
Y116500D02*
X279120Y132125D01*
X263495Y241500D02*
X279120Y225875D01*
X154120Y116500D02*
Y163000D01*
Y195000D02*
Y241500D01*
X279120Y132125D02*
Y163000D01*
Y195000D02*
Y225875D01*
X630300Y654826D02*
X635000D01*
X685000D02*
X689700D01*
Y776401D01*
X630300D02*
X689700D01*
X630300Y654826D02*
Y776401D01*
X710301Y654826D02*
X715000D01*
X765000D02*
X769700D01*
Y776401D01*
X710301D02*
X769700D01*
X710301Y654826D02*
Y776401D01*
X704965Y212360D02*
X814340D01*
X704965Y87360D02*
X814340D01*
X689340Y196735D02*
X704965Y212360D01*
X689340Y102985D02*
X704965Y87360D01*
X814340Y165860D02*
Y212360D01*
Y87360D02*
Y133860D01*
X689340Y165860D02*
Y196735D01*
Y102985D02*
Y133860D01*
X498840Y87360D02*
X608215D01*
X498840Y212360D02*
X608215D01*
Y87360D02*
X623840Y102985D01*
X608215Y212360D02*
X623840Y196735D01*
X498840Y87360D02*
Y133860D01*
Y165860D02*
Y212360D01*
X623840Y102985D02*
Y133860D01*
Y165860D02*
Y196735D01*
X169700Y576500D02*
X186700D01*
X169700Y593500D02*
X186700D01*
X1031500Y548500D02*
X1048500D01*
X1031500Y531500D02*
X1048500D01*
X1031500Y578500D02*
X1048500D01*
X1031500Y561500D02*
X1048500D01*
X1031500Y608500D02*
X1048500D01*
X1031500Y591500D02*
X1048500D01*
X1031500Y638500D02*
X1048500D01*
X1031500Y621500D02*
X1048500D01*
X397315Y48972D02*
Y112512D01*
X343775Y48972D02*
Y112512D01*
X397315Y132061D02*
Y195601D01*
X343775Y132061D02*
Y195601D01*
X548230Y23230D02*
X611770D01*
X548230Y76770D02*
X611770D01*
X407425Y132061D02*
Y195601D01*
X460965Y132061D02*
Y195601D01*
X238386Y580000D02*
Y581190D01*
Y580000D02*
X258706D01*
Y581190D01*
Y588810D02*
Y590000D01*
X238386D02*
X258706D01*
X238386Y588810D02*
Y590000D01*
X248547Y579920D02*
Y590080D01*
X282000Y630000D02*
X368000D01*
Y777000D01*
X282000D02*
X368000D01*
X282000Y630000D02*
Y777000D01*
X500000Y590000D02*
X500000D01*
D15*
X934720Y741683D02*
Y751840D01*
X944877Y741683D01*
X947416D01*
X949955Y744222D01*
Y749301D01*
X947416Y751840D01*
X934720Y728987D02*
X949955D01*
X942338Y736605D01*
Y726448D01*
X949955Y721370D02*
X939798D01*
X934720Y716292D01*
X939798Y711213D01*
X949955D01*
Y683282D02*
Y688361D01*
X947416Y690900D01*
X937259D01*
X934720Y688361D01*
Y683282D01*
X937259Y680743D01*
X947416D01*
X949955Y683282D01*
Y675665D02*
X937259D01*
X934720Y673125D01*
Y668047D01*
X937259Y665508D01*
X949955D01*
Y660430D02*
Y650273D01*
Y655351D01*
X934720D01*
X501646Y741683D02*
X504185Y744222D01*
Y749301D01*
X501646Y751840D01*
X499107D01*
X496568Y749301D01*
Y744222D01*
X494028Y741683D01*
X491489D01*
X488950Y744222D01*
Y749301D01*
X491489Y751840D01*
X504185Y736605D02*
Y726448D01*
Y731527D01*
X488950D01*
X504185Y713752D02*
Y718831D01*
X501646Y721370D01*
X491489D01*
X488950Y718831D01*
Y713752D01*
X491489Y711213D01*
X501646D01*
X504185Y713752D01*
Y690900D02*
X488950D01*
Y683282D01*
X491489Y680743D01*
X494028D01*
X496568Y683282D01*
Y690900D01*
Y683282D01*
X499107Y680743D01*
X501646D01*
X504185Y683282D01*
Y690900D01*
Y675665D02*
X491489D01*
X488950Y673125D01*
Y668047D01*
X491489Y665508D01*
X504185D01*
Y660430D02*
Y650273D01*
Y655351D01*
X488950D01*
X610865Y751840D02*
X595630D01*
Y744222D01*
X598169Y741683D01*
X600708D01*
X603247Y744222D01*
Y751840D01*
Y744222D01*
X605787Y741683D01*
X608326D01*
X610865Y744222D01*
Y751840D01*
X595630Y736605D02*
X605787D01*
X610865Y731527D01*
X605787Y726448D01*
X595630D01*
X603247D01*
Y736605D01*
X610865Y721370D02*
Y711213D01*
Y716292D01*
X595630D01*
X610865Y690900D02*
X595630D01*
Y683282D01*
X598169Y680743D01*
X608326D01*
X610865Y683282D01*
Y690900D01*
X608326Y665508D02*
X610865Y668047D01*
Y673126D01*
X608326Y675665D01*
X598169D01*
X595630Y673126D01*
Y668047D01*
X598169Y665508D01*
X1002103Y122750D02*
X1004436Y125082D01*
Y129747D01*
X1002103Y132080D01*
X999770D01*
X997438Y129747D01*
Y125082D01*
X995105Y122750D01*
X992773D01*
X990440Y125082D01*
Y129747D01*
X992773Y132080D01*
X990440Y118084D02*
X1004436D01*
Y111087D01*
X1002103Y108754D01*
X997438D01*
X995105Y111087D01*
Y118084D01*
X990440Y104089D02*
X999770D01*
X1004436Y99424D01*
X999770Y94759D01*
X990440D01*
X997438D01*
Y104089D01*
X990440Y90094D02*
X1004436D01*
Y83096D01*
X1002103Y80763D01*
X997438D01*
X995105Y83096D01*
Y90094D01*
Y85428D02*
X990440Y80763D01*
X1004436Y66768D02*
Y76098D01*
X990440D01*
Y66768D01*
X997438Y76098D02*
Y71433D01*
X1002103Y38777D02*
X1004436Y41109D01*
Y45775D01*
X1002103Y48107D01*
X999770D01*
X997438Y45775D01*
Y41109D01*
X995105Y38777D01*
X992773D01*
X990440Y41109D01*
Y45775D01*
X992773Y48107D01*
X1004436Y34112D02*
Y24781D01*
Y29446D01*
X990440D01*
X1004436Y13118D02*
Y17784D01*
X1002103Y20116D01*
X992773D01*
X990440Y17784D01*
Y13118D01*
X992773Y10786D01*
X1002103D01*
X1004436Y13118D01*
X22861Y537213D02*
X25400Y539753D01*
Y544831D01*
X22861Y547370D01*
X20322D01*
X17782Y544831D01*
Y539753D01*
X15243Y537213D01*
X12704D01*
X10165Y539753D01*
Y544831D01*
X12704Y547370D01*
X25400Y532135D02*
Y521978D01*
Y527057D01*
X10165D01*
X25400Y509282D02*
Y514361D01*
X22861Y516900D01*
X12704D01*
X10165Y514361D01*
Y509282D01*
X12704Y506743D01*
X22861D01*
X25400Y509282D01*
Y478812D02*
Y483890D01*
X22861Y486430D01*
X12704D01*
X10165Y483890D01*
Y478812D01*
X12704Y476273D01*
X22861D01*
X25400Y478812D01*
Y471195D02*
X12704D01*
X10165Y468656D01*
Y463577D01*
X12704Y461038D01*
X25400D01*
Y455960D02*
Y445803D01*
Y450881D01*
X10165D01*
X113035Y370843D02*
X128270D01*
X120653Y378460D01*
Y368303D01*
X125731Y363225D02*
X128270Y360686D01*
Y355607D01*
X125731Y353068D01*
X123192D01*
X120653Y355607D01*
X118113Y353068D01*
X115574D01*
X113035Y355607D01*
Y360686D01*
X115574Y363225D01*
X118113D01*
X120653Y360686D01*
X123192Y363225D01*
X125731D01*
X120653Y360686D02*
Y355607D01*
X128270Y347990D02*
X118113D01*
X113035Y342911D01*
X118113Y337833D01*
X128270D01*
Y309902D02*
Y314981D01*
X125731Y317520D01*
X115574D01*
X113035Y314981D01*
Y309902D01*
X115574Y307363D01*
X125731D01*
X128270Y309902D01*
Y302285D02*
X115574D01*
X113035Y299746D01*
Y294667D01*
X115574Y292128D01*
X128270D01*
Y287050D02*
Y276893D01*
Y281971D01*
X113035D01*
X388615Y751822D02*
X373380D01*
X378458Y746744D01*
X373380Y741665D01*
X388615D01*
X386076Y726430D02*
X388615Y728969D01*
Y734048D01*
X386076Y736587D01*
X383537D01*
X380998Y734048D01*
Y728969D01*
X378458Y726430D01*
X375919D01*
X373380Y728969D01*
Y734048D01*
X375919Y736587D01*
X388615Y721352D02*
Y711195D01*
Y716273D01*
X373380D01*
X388615Y698499D02*
Y703577D01*
X386076Y706117D01*
X375919D01*
X373380Y703577D01*
Y698499D01*
X375919Y695960D01*
X386076D01*
X388615Y698499D01*
X11435Y745490D02*
X26670D01*
X11435Y735333D01*
X26670D01*
Y730255D02*
X13974D01*
X11435Y727716D01*
Y722637D01*
X13974Y720098D01*
X26670D01*
X24131Y704863D02*
X26670Y707402D01*
Y712481D01*
X24131Y715020D01*
X13974D01*
X11435Y712481D01*
Y707402D01*
X13974Y704863D01*
X11435Y674393D02*
Y684550D01*
X21592Y674393D01*
X24131D01*
X26670Y676932D01*
Y682010D01*
X24131Y684550D01*
X11435Y661697D02*
X26670D01*
X19052Y669315D01*
Y659158D01*
X26670Y654080D02*
X16513D01*
X11435Y649001D01*
X16513Y643923D01*
X26670D01*
X257775Y96333D02*
X242540D01*
Y88715D01*
X245079Y86176D01*
X247618D01*
X250158Y88715D01*
Y96333D01*
Y88715D01*
X252697Y86176D01*
X255236D01*
X257775Y88715D01*
Y96333D01*
X242540Y81098D02*
X252697D01*
X257775Y76020D01*
X252697Y70941D01*
X242540D01*
X250158D01*
Y81098D01*
X257775Y65863D02*
Y55706D01*
Y60784D01*
X242540D01*
X257775Y35393D02*
Y30314D01*
Y32853D01*
X242540D01*
Y35393D01*
Y30314D01*
Y22697D02*
X257775D01*
X242540Y12540D01*
X257775D01*
X757296Y63884D02*
Y74041D01*
X749678D01*
Y68963D01*
Y74041D01*
X742061D01*
Y48649D02*
Y58806D01*
X752218Y48649D01*
X754757D01*
X757296Y51188D01*
Y56267D01*
X754757Y58806D01*
X109218Y146050D02*
Y156207D01*
X101600D01*
Y151128D01*
Y156207D01*
X93982D01*
Y140972D02*
Y135893D01*
Y138432D01*
X109218D01*
X106678Y140972D01*
D16*
X846480Y83432D02*
Y93428D01*
X851479D01*
X853145Y91762D01*
Y88430D01*
X851479Y86764D01*
X846480D01*
X849813D02*
X853145Y83432D01*
X856477Y93428D02*
X863142D01*
X859809D01*
Y83432D01*
X873138D02*
X866474D01*
X873138Y90096D01*
Y91762D01*
X871472Y93428D01*
X868140D01*
X866474Y91762D01*
X876471D02*
X878137Y93428D01*
X881469D01*
X883135Y91762D01*
Y85098D01*
X881469Y83432D01*
X878137D01*
X876471Y85098D01*
Y91762D01*
X886467Y83432D02*
X889800D01*
X888133D01*
Y93428D01*
X886467Y91762D01*
X466568Y96753D02*
X473232D01*
X474898Y98419D01*
Y101751D01*
X473232Y103417D01*
X466568D01*
X464902Y101751D01*
Y98419D01*
X468234Y100085D02*
X464902Y96753D01*
Y98419D02*
X466568Y96753D01*
X464902Y86756D02*
Y93421D01*
X471566Y86756D01*
X473232D01*
X474898Y88422D01*
Y91755D01*
X473232Y93421D01*
Y83424D02*
X474898Y81758D01*
Y78425D01*
X473232Y76759D01*
X466568D01*
X464902Y78425D01*
Y81758D01*
X466568Y83424D01*
X473232D01*
X466568Y73427D02*
X464902Y71761D01*
Y68429D01*
X466568Y66763D01*
X473232D01*
X474898Y68429D01*
Y71761D01*
X473232Y73427D01*
X471566D01*
X469900Y71761D01*
Y66763D01*
X958325Y535193D02*
X954992D01*
X956658D01*
Y526862D01*
X954992Y525196D01*
X953326D01*
X951660Y526862D01*
X961657Y525196D02*
X964989D01*
X963323D01*
Y535193D01*
X961657Y533527D01*
X974986Y525196D02*
Y535193D01*
X969987Y530194D01*
X976652D01*
X134998Y736666D02*
Y739998D01*
Y738332D01*
X126668D01*
X125002Y739998D01*
Y741665D01*
X126668Y743331D01*
X125002Y728335D02*
X134998D01*
X130000Y733334D01*
Y726669D01*
X982738Y106161D02*
Y109494D01*
Y107828D01*
X974408D01*
X972742Y109494D01*
Y111160D01*
X974408Y112826D01*
X972742Y102829D02*
Y99497D01*
Y101163D01*
X982738D01*
X981072Y102829D01*
Y94499D02*
X982738Y92832D01*
Y89500D01*
X981072Y87834D01*
X979406D01*
X977740Y89500D01*
Y91166D01*
Y89500D01*
X976074Y87834D01*
X974408D01*
X972742Y89500D01*
Y92832D01*
X974408Y94499D01*
X142759Y577768D02*
X139426D01*
X141092D01*
Y569438D01*
X139426Y567772D01*
X137760D01*
X136094Y569438D01*
X146091Y567772D02*
X149423D01*
X147757D01*
Y577768D01*
X146091Y576102D01*
X161086Y567772D02*
X154421D01*
X161086Y574436D01*
Y576102D01*
X159420Y577768D01*
X156088D01*
X154421Y576102D01*
X498755Y636188D02*
X495423D01*
X497089D01*
Y627858D01*
X495423Y626192D01*
X493756D01*
X492090Y627858D01*
X502087Y626192D02*
X505419D01*
X503753D01*
Y636188D01*
X502087Y634522D01*
X510418Y626192D02*
X513750D01*
X512084D01*
Y636188D01*
X510418Y634522D01*
X270725Y617138D02*
X267392D01*
X269058D01*
Y608808D01*
X267392Y607142D01*
X265726D01*
X264060Y608808D01*
X274057Y607142D02*
X277389D01*
X275723D01*
Y617138D01*
X274057Y615472D01*
X282388D02*
X284054Y617138D01*
X287386D01*
X289052Y615472D01*
Y608808D01*
X287386Y607142D01*
X284054D01*
X282388Y608808D01*
Y615472D01*
X935454Y582498D02*
Y574168D01*
X937120Y572502D01*
X940452D01*
X942119Y574168D01*
Y582498D01*
X945451Y572502D02*
X948783D01*
X947117D01*
Y582498D01*
X945451Y580832D01*
X953781D02*
X955447Y582498D01*
X958780D01*
X960446Y580832D01*
Y574168D01*
X958780Y572502D01*
X955447D01*
X953781Y574168D01*
Y580832D01*
X963778Y572502D02*
X967110D01*
X965444D01*
Y582498D01*
X963778Y580832D01*
X916100Y190170D02*
Y200167D01*
X921098D01*
X922765Y198501D01*
Y195168D01*
X921098Y193502D01*
X916100D01*
X919432D02*
X922765Y190170D01*
X926097Y200167D02*
X932761D01*
X929429D01*
Y190170D01*
X936094D02*
X939426D01*
X937760D01*
Y200167D01*
X936094Y198501D01*
X264718Y580002D02*
Y589998D01*
X269716D01*
X271383Y588332D01*
Y585000D01*
X269716Y583334D01*
X264718D01*
X268050D02*
X271383Y580002D01*
X274715D02*
X278047D01*
X276381D01*
Y589998D01*
X274715Y588332D01*
X283045D02*
X284711Y589998D01*
X288044D01*
X289710Y588332D01*
Y581668D01*
X288044Y580002D01*
X284711D01*
X283045Y581668D01*
Y588332D01*
X293042D02*
X294708Y589998D01*
X298041D01*
X299707Y588332D01*
Y586666D01*
X298041Y585000D01*
X299707Y583334D01*
Y581668D01*
X298041Y580002D01*
X294708D01*
X293042Y581668D01*
Y583334D01*
X294708Y585000D01*
X293042Y586666D01*
Y588332D01*
X294708Y585000D02*
X298041D01*
X413787Y204948D02*
Y211612D01*
X412121Y213278D01*
X408789D01*
X407123Y211612D01*
Y204948D01*
X408789Y203282D01*
X412121D01*
X410455Y206614D02*
X413787Y203282D01*
X412121D02*
X413787Y204948D01*
X423784Y203282D02*
X417119D01*
X423784Y209946D01*
Y211612D01*
X422118Y213278D01*
X418786D01*
X417119Y211612D01*
X427116D02*
X428782Y213278D01*
X432114D01*
X433781Y211612D01*
Y204948D01*
X432114Y203282D01*
X428782D01*
X427116Y204948D01*
Y211612D01*
X443777Y213278D02*
X437113D01*
Y208280D01*
X440445Y209946D01*
X442111D01*
X443777Y208280D01*
Y204948D01*
X442111Y203282D01*
X438779D01*
X437113Y204948D01*
X575077Y10638D02*
Y17302D01*
X573411Y18968D01*
X570079D01*
X568413Y17302D01*
Y10638D01*
X570079Y8972D01*
X573411D01*
X571745Y12304D02*
X575077Y8972D01*
X573411D02*
X575077Y10638D01*
X585074Y8972D02*
X578409D01*
X585074Y15636D01*
Y17302D01*
X583408Y18968D01*
X580075D01*
X578409Y17302D01*
X588406D02*
X590072Y18968D01*
X593405D01*
X595071Y17302D01*
Y10638D01*
X593405Y8972D01*
X590072D01*
X588406Y10638D01*
Y17302D01*
X598403D02*
X600069Y18968D01*
X603401D01*
X605067Y17302D01*
Y15636D01*
X603401Y13970D01*
X601735D01*
X603401D01*
X605067Y12304D01*
Y10638D01*
X603401Y8972D01*
X600069D01*
X598403Y10638D01*
X350502Y205374D02*
Y212039D01*
X348836Y213705D01*
X345503D01*
X343837Y212039D01*
Y205374D01*
X345503Y203708D01*
X348836D01*
X347169Y207040D02*
X350502Y203708D01*
X348836D02*
X350502Y205374D01*
X360499Y203708D02*
X353834D01*
X360499Y210373D01*
Y212039D01*
X358832Y213705D01*
X355500D01*
X353834Y212039D01*
X363831D02*
X365497Y213705D01*
X368829D01*
X370495Y212039D01*
Y205374D01*
X368829Y203708D01*
X365497D01*
X363831Y205374D01*
Y212039D01*
X380492Y203708D02*
X373828D01*
X380492Y210373D01*
Y212039D01*
X378826Y213705D01*
X375494D01*
X373828Y212039D01*
X331104Y91936D02*
X337769D01*
X339435Y93602D01*
Y96934D01*
X337769Y98601D01*
X331104D01*
X329438Y96934D01*
Y93602D01*
X332770Y95268D02*
X329438Y91936D01*
Y93602D02*
X331104Y91936D01*
X329438Y81939D02*
Y88604D01*
X336102Y81939D01*
X337769D01*
X339435Y83605D01*
Y86938D01*
X337769Y88604D01*
Y78607D02*
X339435Y76941D01*
Y73609D01*
X337769Y71943D01*
X331104D01*
X329438Y73609D01*
Y76941D01*
X331104Y78607D01*
X337769D01*
X329438Y68610D02*
Y65278D01*
Y66944D01*
X339435D01*
X337769Y68610D01*
X888334Y639998D02*
X885002D01*
X886668D01*
Y631668D01*
X885002Y630002D01*
X883335D01*
X881669Y631668D01*
X891666D02*
X893332Y630002D01*
X896665D01*
X898331Y631668D01*
Y638332D01*
X896665Y639998D01*
X893332D01*
X891666Y638332D01*
Y636666D01*
X893332Y635000D01*
X898331D01*
X195006Y589998D02*
Y580002D01*
X200004D01*
X201670Y581668D01*
Y588332D01*
X200004Y589998D01*
X195006D01*
X205002Y580002D02*
X208335D01*
X206669D01*
Y589998D01*
X205002Y588332D01*
X213333D02*
X214999Y589998D01*
X218331D01*
X219998Y588332D01*
Y581668D01*
X218331Y580002D01*
X214999D01*
X213333Y581668D01*
Y588332D01*
X229994Y580002D02*
X223330D01*
X229994Y586666D01*
Y588332D01*
X228328Y589998D01*
X224996D01*
X223330Y588332D01*
X118710Y210342D02*
X117044Y212008D01*
X113712D01*
X112046Y210342D01*
Y203678D01*
X113712Y202012D01*
X117044D01*
X118710Y203678D01*
X122043Y202012D02*
X125375D01*
X123709D01*
Y212008D01*
X122043Y210342D01*
X130373D02*
X132039Y212008D01*
X135371D01*
X137038Y210342D01*
Y203678D01*
X135371Y202012D01*
X132039D01*
X130373Y203678D01*
Y210342D01*
X140370D02*
X142036Y212008D01*
X145368D01*
X147034Y210342D01*
Y208676D01*
X145368Y207010D01*
X143702D01*
X145368D01*
X147034Y205344D01*
Y203678D01*
X145368Y202012D01*
X142036D01*
X140370Y203678D01*
X499710Y75722D02*
X498044Y77388D01*
X494712D01*
X493046Y75722D01*
Y69058D01*
X494712Y67392D01*
X498044D01*
X499710Y69058D01*
X503042Y67392D02*
X506375D01*
X504709D01*
Y77388D01*
X503042Y75722D01*
X511373D02*
X513039Y77388D01*
X516371D01*
X518038Y75722D01*
Y69058D01*
X516371Y67392D01*
X513039D01*
X511373Y69058D01*
Y75722D01*
X528034Y67392D02*
X521370D01*
X528034Y74056D01*
Y75722D01*
X526368Y77388D01*
X523036D01*
X521370Y75722D01*
X847066Y192422D02*
X845400Y194088D01*
X842068D01*
X840402Y192422D01*
Y185758D01*
X842068Y184092D01*
X845400D01*
X847066Y185758D01*
X850398Y184092D02*
X853731D01*
X852065D01*
Y194088D01*
X850398Y192422D01*
X858729D02*
X860395Y194088D01*
X863727D01*
X865394Y192422D01*
Y185758D01*
X863727Y184092D01*
X860395D01*
X858729Y185758D01*
Y192422D01*
X868726Y184092D02*
X872058D01*
X870392D01*
Y194088D01*
X868726Y192422D01*
X1008334Y414998D02*
X1005002D01*
X1006668D01*
Y406668D01*
X1005002Y405002D01*
X1003335D01*
X1001669Y406668D01*
X1018331Y414998D02*
X1011666D01*
Y410000D01*
X1014998Y411666D01*
X1016665D01*
X1018331Y410000D01*
Y406668D01*
X1016665Y405002D01*
X1013332D01*
X1011666Y406668D01*
X254135Y423326D02*
X250803D01*
X252469D01*
Y414995D01*
X250803Y413329D01*
X249137D01*
X247470Y414995D01*
X264132Y413329D02*
X257467D01*
X264132Y419994D01*
Y421660D01*
X262465Y423326D01*
X259133D01*
X257467Y421660D01*
X99060Y118028D02*
X95728D01*
X97394D01*
Y109698D01*
X95728Y108032D01*
X94062D01*
X92395Y109698D01*
X102392Y108032D02*
X105724D01*
X104058D01*
Y118028D01*
X102392Y116362D01*
X808334Y639998D02*
X805002D01*
X806668D01*
Y631668D01*
X805002Y630002D01*
X803335D01*
X801669Y631668D01*
X811666Y638332D02*
X813332Y639998D01*
X816665D01*
X818331Y638332D01*
Y636666D01*
X816665Y635000D01*
X818331Y633334D01*
Y631668D01*
X816665Y630002D01*
X813332D01*
X811666Y631668D01*
Y633334D01*
X813332Y635000D01*
X811666Y636666D01*
Y638332D01*
X813332Y635000D02*
X816665D01*
X728334Y639998D02*
X725002D01*
X726668D01*
Y631668D01*
X725002Y630002D01*
X723335D01*
X721669Y631668D01*
X731666Y639998D02*
X738331D01*
Y638332D01*
X731666Y631668D01*
Y630002D01*
X571104Y642538D02*
X567772D01*
X569438D01*
Y634208D01*
X567772Y632542D01*
X566105D01*
X564439Y634208D01*
X574436Y640872D02*
X576102Y642538D01*
X579435D01*
X581101Y640872D01*
Y639206D01*
X579435Y637540D01*
X577768D01*
X579435D01*
X581101Y635874D01*
Y634208D01*
X579435Y632542D01*
X576102D01*
X574436Y634208D01*
X648334Y639998D02*
X645002D01*
X646668D01*
Y631668D01*
X645002Y630002D01*
X643335D01*
X641669Y631668D01*
X658331Y639998D02*
X654998Y638332D01*
X651666Y635000D01*
Y631668D01*
X653332Y630002D01*
X656665D01*
X658331Y631668D01*
Y633334D01*
X656665Y635000D01*
X651666D01*
M02*
