G04*
G04 #@! TF.GenerationSoftware,Altium Limited,Altium Designer,24.1.2 (44)*
G04*
G04 Layer_Color=8388736*
%FSLAX44Y44*%
%MOMM*%
G71*
G04*
G04 #@! TF.SameCoordinates,2E5B26B1-033E-4B1C-A529-2162076C627E*
G04*
G04*
G04 #@! TF.FilePolarity,Negative*
G04*
G01*
G75*
%ADD26R,4.2418X3.8100*%
%ADD27R,0.8000X0.8000*%
%ADD30R,4.8132X3.4532*%
%ADD31R,0.9132X1.5752*%
%ADD32R,6.2032X2.8032*%
%ADD33R,1.5752X0.9132*%
%ADD34R,0.9032X0.8032*%
%ADD35R,4.7232X4.0532*%
%ADD36R,4.0532X4.7232*%
%ADD37C,1.7524*%
%ADD38C,1.8524*%
%ADD39R,1.8524X1.8524*%
%ADD40C,0.2032*%
%ADD41R,1.7270X2.8270*%
%ADD42R,2.8270X1.7270*%
%ADD43C,2.0032*%
%ADD44C,1.9032*%
%ADD45C,1.7032*%
%ADD46R,1.7032X1.7032*%
%ADD47R,1.8524X1.8524*%
%ADD48R,4.1270X4.1270*%
%ADD49C,4.1270*%
%ADD50R,4.1270X4.1270*%
%ADD51C,1.9270*%
%ADD52C,3.3270*%
%ADD53R,3.3270X3.3270*%
%ADD54C,1.8032*%
%ADD55C,3.1524*%
%ADD56C,1.6724*%
%ADD57R,1.6724X1.6724*%
%ADD58C,1.2032*%
%ADD59O,4.2032X4.0032*%
%ADD60C,2.8032*%
%ADD61C,3.2032*%
%ADD62C,1.4732*%
%ADD63C,0.6032*%
D26*
X711327Y49530D02*
D03*
X647573D02*
D03*
D27*
X1047500Y660000D02*
D03*
X1032500D02*
D03*
X185700Y585000D02*
D03*
X170700D02*
D03*
X1032500Y540000D02*
D03*
X1047500D02*
D03*
X1032500Y570000D02*
D03*
X1047500D02*
D03*
X1032500Y600000D02*
D03*
X1047500D02*
D03*
X1032500Y630000D02*
D03*
X1047500D02*
D03*
D30*
X57150Y102330D02*
D03*
Y199930D02*
D03*
D31*
X415145Y108635D02*
D03*
X440545D02*
D03*
X453245D02*
D03*
Y54395D02*
D03*
X440545D02*
D03*
X427845D02*
D03*
X415145D02*
D03*
X427845Y108635D02*
D03*
X364195Y108843D02*
D03*
X351495Y54604D02*
D03*
X364195D02*
D03*
X376895D02*
D03*
X389595D02*
D03*
Y108843D02*
D03*
X376895D02*
D03*
X351495D02*
D03*
X389595Y135730D02*
D03*
X364195D02*
D03*
X351495D02*
D03*
Y189970D02*
D03*
X364195D02*
D03*
X376895D02*
D03*
X389595D02*
D03*
X376895Y135730D02*
D03*
X440545D02*
D03*
X453245Y189970D02*
D03*
X440545D02*
D03*
X427845D02*
D03*
X415145D02*
D03*
Y135730D02*
D03*
X427845D02*
D03*
X453245D02*
D03*
D32*
X276620Y179000D02*
D03*
X156620D02*
D03*
X691840Y149860D02*
D03*
X811840D02*
D03*
X621340D02*
D03*
X501340D02*
D03*
D33*
X608101Y56350D02*
D03*
X553861Y69050D02*
D03*
Y56350D02*
D03*
Y43650D02*
D03*
Y30950D02*
D03*
X608101D02*
D03*
Y43650D02*
D03*
Y69050D02*
D03*
D34*
X253047Y585000D02*
D03*
X244047D02*
D03*
D35*
X434208Y88443D02*
D03*
X370545Y88652D02*
D03*
X370544Y155921D02*
D03*
X434195Y155935D02*
D03*
D36*
X587910Y50000D02*
D03*
D37*
X924800Y31700D02*
D03*
X949800D02*
D03*
X1063300Y482700D02*
D03*
Y457700D02*
D03*
X198200Y450000D02*
D03*
Y550000D02*
D03*
D38*
X924800Y103500D02*
D03*
X949800D02*
D03*
X924800Y128500D02*
D03*
X966500Y457700D02*
D03*
X991500Y482700D02*
D03*
Y457700D02*
D03*
X295000Y475000D02*
D03*
Y500000D02*
D03*
Y525000D02*
D03*
Y550000D02*
D03*
X270000Y450000D02*
D03*
Y475000D02*
D03*
Y500000D02*
D03*
Y525000D02*
D03*
Y550000D02*
D03*
D39*
X949800Y128500D02*
D03*
D40*
X383999Y550999D02*
D03*
X1059000Y41000D02*
D03*
Y719000D02*
D03*
X41000Y41000D02*
D03*
X384000Y551000D02*
D03*
X856000Y289000D02*
D03*
D41*
X92500Y20000D02*
D03*
X227500D02*
D03*
D42*
X220000Y262500D02*
D03*
Y397500D02*
D03*
D43*
X547500Y658000D02*
D03*
X572500D02*
D03*
X855890Y49530D02*
D03*
X780890D02*
D03*
X832500Y658000D02*
D03*
X807500D02*
D03*
X887500D02*
D03*
X912500D02*
D03*
X672500D02*
D03*
X647500D02*
D03*
X752500D02*
D03*
X727500D02*
D03*
D44*
X547500Y729800D02*
D03*
X572500D02*
D03*
X832500D02*
D03*
X807500D02*
D03*
X887500D02*
D03*
X912500D02*
D03*
X672500D02*
D03*
X647500D02*
D03*
X752500D02*
D03*
X727500D02*
D03*
D45*
X1025000Y199600D02*
D03*
X995000D02*
D03*
X965000D02*
D03*
D46*
X1025000Y225000D02*
D03*
X995000D02*
D03*
X965000D02*
D03*
D47*
X966500Y482700D02*
D03*
X295000Y450000D02*
D03*
D48*
X124000Y80000D02*
D03*
D49*
X196000D02*
D03*
X280000Y366000D02*
D03*
D50*
Y294000D02*
D03*
D51*
X1100000Y405000D02*
D03*
Y295000D02*
D03*
D52*
X1000000Y325000D02*
D03*
D53*
Y375000D02*
D03*
D54*
X935000Y165000D02*
D03*
X985000D02*
D03*
X465000Y658200D02*
D03*
X440000D02*
D03*
X415000D02*
D03*
X465000Y633200D02*
D03*
X440000D02*
D03*
X415000D02*
D03*
X300000D02*
D03*
X325000D02*
D03*
X350000D02*
D03*
X300000Y658200D02*
D03*
X325000D02*
D03*
X350000D02*
D03*
D55*
X186800Y695000D02*
D03*
D56*
X260000Y710000D02*
D03*
Y680000D02*
D03*
X230000Y710000D02*
D03*
D57*
Y680000D02*
D03*
D58*
X415000Y730000D02*
D03*
X465000D02*
D03*
X350000D02*
D03*
X300000D02*
D03*
D59*
X874000Y343800D02*
D03*
Y496200D02*
D03*
D60*
Y381900D02*
D03*
Y420000D02*
D03*
Y458100D02*
D03*
X366000Y420000D02*
D03*
D61*
Y496200D02*
D03*
Y343800D02*
D03*
D62*
X96520Y199390D02*
D03*
X547370Y635000D02*
D03*
X590550Y593090D02*
D03*
X95250Y182880D02*
D03*
Y215900D02*
D03*
X73660Y132080D02*
D03*
X91440Y166370D02*
D03*
X55880Y133350D02*
D03*
X38100D02*
D03*
X19050D02*
D03*
X55880Y166370D02*
D03*
X38100D02*
D03*
X19050D02*
D03*
X74930D02*
D03*
X367030Y35560D02*
D03*
Y19050D02*
D03*
X383540Y35560D02*
D03*
Y19050D02*
D03*
X400050Y35560D02*
D03*
Y19050D02*
D03*
X416560Y35560D02*
D03*
Y19050D02*
D03*
X538480Y462280D02*
D03*
X515620Y558800D02*
D03*
X791210Y326390D02*
D03*
X812800D02*
D03*
X791210Y345440D02*
D03*
X812800D02*
D03*
X791210Y511810D02*
D03*
X812800D02*
D03*
X791210Y492760D02*
D03*
X812800D02*
D03*
X19050Y182880D02*
D03*
Y199390D02*
D03*
Y215900D02*
D03*
Y116840D02*
D03*
X515620Y218440D02*
D03*
X683514Y368300D02*
D03*
X615690Y539310D02*
D03*
X595690D02*
D03*
X615690Y558850D02*
D03*
X595690D02*
D03*
X675380Y539310D02*
D03*
X635380D02*
D03*
X655380D02*
D03*
X675380Y558850D02*
D03*
X655380D02*
D03*
X635380D02*
D03*
X694750D02*
D03*
X714750D02*
D03*
X694750Y539310D02*
D03*
X714750D02*
D03*
Y499940D02*
D03*
X694750D02*
D03*
X714750Y519480D02*
D03*
X694750D02*
D03*
X635380D02*
D03*
X655380D02*
D03*
X675380D02*
D03*
X655380Y499940D02*
D03*
X635380D02*
D03*
X675380D02*
D03*
X595690Y519480D02*
D03*
X615690D02*
D03*
X595690Y499940D02*
D03*
X615690D02*
D03*
X812326Y365213D02*
D03*
X791210Y365215D02*
D03*
X689610Y196850D02*
D03*
X706120D02*
D03*
X670590Y174000D02*
D03*
X691590D02*
D03*
X713590D02*
D03*
X713740Y127000D02*
D03*
X692150D02*
D03*
X670560D02*
D03*
X599440Y173990D02*
D03*
X619760D02*
D03*
X641350D02*
D03*
Y127000D02*
D03*
X619760D02*
D03*
X599440D02*
D03*
X790000Y125000D02*
D03*
X811000D02*
D03*
X833000D02*
D03*
Y174000D02*
D03*
X811000D02*
D03*
X790000D02*
D03*
X485140Y173990D02*
D03*
X506730D02*
D03*
X528320D02*
D03*
Y124460D02*
D03*
X506730D02*
D03*
X483870D02*
D03*
X916000Y278000D02*
D03*
X936000D02*
D03*
X956000D02*
D03*
X936000Y261000D02*
D03*
X916000D02*
D03*
X956000D02*
D03*
X477520Y575310D02*
D03*
X496570D02*
D03*
X515620D02*
D03*
X496570Y558800D02*
D03*
X477520D02*
D03*
X312123Y274000D02*
D03*
Y294000D02*
D03*
Y314000D02*
D03*
X329123Y294000D02*
D03*
Y274000D02*
D03*
Y314000D02*
D03*
X497840Y218440D02*
D03*
X533400D02*
D03*
X497840Y234950D02*
D03*
X533400D02*
D03*
X515620D02*
D03*
X19050Y100330D02*
D03*
X209550Y161290D02*
D03*
X193040Y156210D02*
D03*
X176530D02*
D03*
X196850Y172720D02*
D03*
X209550Y184150D02*
D03*
X323850Y204470D02*
D03*
Y173990D02*
D03*
X317500Y158750D02*
D03*
Y189230D02*
D03*
X306070Y204470D02*
D03*
X278130Y115570D02*
D03*
Y132080D02*
D03*
X261620Y115570D02*
D03*
Y132080D02*
D03*
X278130Y52070D02*
D03*
Y68580D02*
D03*
X261620Y52070D02*
D03*
Y68580D02*
D03*
X812800Y473710D02*
D03*
X791210D02*
D03*
D63*
X924560Y454660D02*
D03*
X613410Y85090D02*
D03*
X402590Y76200D02*
D03*
Y85090D02*
D03*
Y93980D02*
D03*
X652780Y387350D02*
D03*
Y402590D02*
D03*
Y417830D02*
D03*
Y448310D02*
D03*
Y433070D02*
D03*
X405130Y168910D02*
D03*
X342900Y142240D02*
D03*
X544830Y82550D02*
D03*
X462280Y54610D02*
D03*
X398780D02*
D03*
X537210Y48260D02*
D03*
X509270Y85090D02*
D03*
X537210D02*
D03*
X463550Y167640D02*
D03*
X483870Y59690D02*
D03*
X464820Y33020D02*
D03*
X632460Y92710D02*
D03*
X566420Y133350D02*
D03*
X553720D02*
D03*
X834390Y194310D02*
D03*
X825500D02*
D03*
X593090Y440690D02*
D03*
X600710D02*
D03*
X594360Y394970D02*
D03*
X601980D02*
D03*
X914400Y476130D02*
D03*
X594360Y340360D02*
D03*
X1056640Y660400D02*
D03*
Y629920D02*
D03*
X1056707Y600000D02*
D03*
X1056640Y570230D02*
D03*
Y539750D02*
D03*
X689610Y105410D02*
D03*
X455930Y123190D02*
D03*
X447040D02*
D03*
X438150D02*
D03*
X402590Y102870D02*
D03*
Y140970D02*
D03*
X393700Y123190D02*
D03*
X369570D02*
D03*
X619760Y428498D02*
D03*
X720190Y110390D02*
D03*
X704950D02*
D03*
X260350Y585470D02*
D03*
X994410Y254000D02*
D03*
X825500Y201930D02*
D03*
X834390D02*
D03*
X544000Y31000D02*
D03*
X384810Y123190D02*
D03*
X411480D02*
D03*
X402590Y113030D02*
D03*
Y132080D02*
D03*
X429260Y123190D02*
D03*
X377190D02*
D03*
X402590D02*
D03*
M02*
