G04*
G04 #@! TF.GenerationSoftware,Altium Limited,Altium Designer,24.1.2 (44)*
G04*
G04 Layer_Physical_Order=1*
G04 Layer_Color=255*
%FSLAX44Y44*%
%MOMM*%
G71*
G04*
G04 #@! TF.SameCoordinates,2E5B26B1-033E-4B1C-A529-2162076C627E*
G04*
G04*
G04 #@! TF.FilePolarity,Positive*
G04*
G01*
G75*
%ADD11C,0.2500*%
%ADD15C,0.2540*%
%ADD25R,4.6100X3.2500*%
%ADD26R,4.2418X3.8100*%
%ADD27R,0.8000X0.8000*%
%ADD28R,6.0000X2.6000*%
%ADD29R,0.7000X0.6000*%
%ADD64R,0.7100X1.3720*%
%ADD65R,1.3720X0.7100*%
%ADD66C,0.1500*%
%ADD67C,1.0000*%
%ADD68C,0.3500*%
%ADD69C,0.5000*%
%ADD70R,4.5200X3.8500*%
%ADD71R,3.8500X4.5200*%
%ADD72C,1.6000*%
%ADD73C,1.7000*%
%ADD74R,1.7000X1.7000*%
%ADD75R,1.6000X2.7000*%
%ADD76R,2.7000X1.6000*%
%ADD77C,1.8000*%
%ADD78C,1.5000*%
%ADD79R,1.5000X1.5000*%
%ADD80R,1.7000X1.7000*%
%ADD81R,4.0000X4.0000*%
%ADD82C,4.0000*%
%ADD83R,4.0000X4.0000*%
%ADD84C,3.2000*%
%ADD85R,3.2000X3.2000*%
%ADD86C,3.0000*%
%ADD87C,1.5200*%
%ADD88R,1.5200X1.5200*%
%ADD89C,1.0000*%
%ADD90O,4.0000X3.8000*%
%ADD91C,2.6000*%
%ADD92C,1.2700*%
%ADD93C,0.4000*%
G36*
X1003300Y748030D02*
Y590550D01*
X984250Y571500D01*
X765810D01*
X723900Y529590D01*
Y499110D01*
X717550Y492760D01*
X567690D01*
X558800Y501650D01*
Y577850D01*
X537210Y599440D01*
X162560D01*
X152400Y609600D01*
Y744220D01*
X162560Y754380D01*
X996950D01*
X1003300Y748030D01*
D02*
G37*
G36*
X908050Y519430D02*
X908050Y444500D01*
X901700Y438150D01*
X788670D01*
X774700Y452120D01*
Y508000D01*
X792480Y525780D01*
X901700D01*
X908050Y519430D01*
D02*
G37*
G36*
Y394970D02*
Y323850D01*
X901700Y317500D01*
X787400D01*
X774700Y330200D01*
Y389890D01*
X786130Y401320D01*
X901700D01*
X908050Y394970D01*
D02*
G37*
G36*
X539750Y571500D02*
Y508000D01*
X521970Y490220D01*
Y448310D01*
X629920Y340360D01*
X739140D01*
X781050Y298450D01*
X837080D01*
X837786Y297394D01*
X836730Y294846D01*
X835960Y290974D01*
Y287026D01*
X836730Y283155D01*
X838241Y279508D01*
X840434Y276225D01*
X843225Y273434D01*
X846507Y271241D01*
X850155Y269730D01*
X854026Y268960D01*
X857974D01*
X861845Y269730D01*
X865492Y271241D01*
X868775Y273434D01*
X871566Y276225D01*
X873759Y279508D01*
X875270Y283155D01*
X876040Y287026D01*
Y290974D01*
X875270Y294846D01*
X874214Y297394D01*
X874920Y298450D01*
X965200D01*
X971550Y292100D01*
Y254000D01*
X960120Y242570D01*
X951230Y242570D01*
X913130Y204470D01*
X859790Y204470D01*
X849630Y214630D01*
X610870D01*
X486410Y339090D01*
Y371853D01*
X450850Y408212D01*
Y558800D01*
X476250Y584200D01*
X527050D01*
X539750Y571500D01*
D02*
G37*
G36*
X330200Y326390D02*
X341630Y314960D01*
X341630Y229870D01*
X335280Y223520D01*
X264160D01*
X242570Y201930D01*
X128270Y201930D01*
X118110Y191770D01*
X118110Y158750D01*
X111760Y152400D01*
X15240D01*
X10000Y157640D01*
X10000Y219710D01*
X15080Y224790D01*
X106680D01*
X119380Y237490D01*
Y316230D01*
X129540Y326390D01*
X330200Y326390D01*
D02*
G37*
G36*
X440690Y443230D02*
Y402590D01*
X476250Y367030D01*
Y195580D01*
X463550Y182880D01*
X424180D01*
X424180Y199390D01*
X420370Y203200D01*
X408940D01*
X405130Y199390D01*
Y189050D01*
X398960Y182880D01*
X360680D01*
X360680Y200660D01*
X351790Y209550D01*
Y320040D01*
X335280Y336550D01*
X251460D01*
X242570Y345440D01*
Y424180D01*
X251460Y433070D01*
X309880D01*
X326390Y449580D01*
X434340D01*
X440690Y443230D01*
D02*
G37*
G36*
X735590Y175000D02*
Y124000D01*
X729590Y118000D01*
X594470D01*
X589280Y123190D01*
Y176530D01*
X593750Y181000D01*
X657000Y181000D01*
X657000Y181000D01*
X729590Y181000D01*
X735590Y175000D01*
D02*
G37*
G36*
X331470Y207010D02*
X331470Y157480D01*
X325120Y151130D01*
X248920D01*
X245110Y154940D01*
Y189230D01*
X269240Y213360D01*
X325120D01*
X331470Y207010D01*
D02*
G37*
G36*
X217170Y187960D02*
X217170Y152400D01*
X213360Y148590D01*
X134620Y148590D01*
X127620Y155590D01*
Y191770D01*
X213360D01*
X217170Y187960D01*
D02*
G37*
G36*
X842010Y175260D02*
Y124460D01*
X835550Y118000D01*
X776000D01*
X770000Y124000D01*
Y175000D01*
X776000Y181000D01*
X836270D01*
X842010Y175260D01*
D02*
G37*
G36*
X541020D02*
Y123190D01*
X535830Y118000D01*
X472550D01*
X468630Y121920D01*
Y176530D01*
X473100Y181000D01*
X535280D01*
X541020Y175260D01*
D02*
G37*
G36*
X863600Y186690D02*
X863600Y102870D01*
X845820Y85090D01*
X617950D01*
Y85993D01*
X617259Y87662D01*
X615982Y88939D01*
X614313Y89630D01*
X612507D01*
X610838Y88939D01*
X609561Y87662D01*
X608870Y85993D01*
Y85090D01*
X568960D01*
X560000Y74930D01*
Y40000D01*
X543560D01*
X539750Y35560D01*
Y32603D01*
X539460Y31903D01*
Y30097D01*
X539750Y29397D01*
Y12700D01*
X533400Y6350D01*
X251460D01*
X243840Y13970D01*
Y35560D01*
X242570Y36830D01*
X238760Y40640D01*
X181610D01*
X168910Y53340D01*
Y134620D01*
X175290Y141000D01*
X333980Y141000D01*
X339090Y135890D01*
X339090Y67310D01*
X345440Y60960D01*
X377190D01*
X377547Y60603D01*
X381000D01*
Y46990D01*
X383540Y44450D01*
X397510D01*
X403860Y50800D01*
Y57150D01*
X406400Y59690D01*
X411480D01*
Y60130D01*
X418480D01*
Y59690D01*
X424480D01*
Y60130D01*
X430480D01*
Y59690D01*
X430530D01*
X437480Y59690D01*
Y60130D01*
X444500D01*
Y57150D01*
D01*
Y46990D01*
X447040Y44450D01*
X459740D01*
X464820Y49530D01*
Y50748D01*
X464852Y50761D01*
X466129Y52038D01*
X466820Y53707D01*
Y55513D01*
X466129Y57182D01*
X464852Y58459D01*
X464820Y58472D01*
X464820Y104140D01*
X469900Y109220D01*
X560000Y109220D01*
X700521D01*
X701101Y107818D01*
X702378Y106541D01*
X704047Y105850D01*
X705853D01*
X707522Y106541D01*
X708799Y107818D01*
X709379Y109220D01*
X715761D01*
X716341Y107818D01*
X717618Y106541D01*
X719287Y105850D01*
X721093D01*
X722762Y106541D01*
X724039Y107818D01*
X724619Y109220D01*
X839470D01*
X848360Y118110D01*
Y180340D01*
X840740Y187960D01*
X820420D01*
X817880Y190500D01*
Y201930D01*
X820420Y204470D01*
X845820D01*
X863600Y186690D01*
D02*
G37*
G36*
X458470Y69850D02*
X347950D01*
Y162560D01*
X458470D01*
Y69850D01*
D02*
G37*
G36*
X129540Y138430D02*
X152400D01*
X158750Y132080D01*
X158750Y50800D01*
X158750D01*
X152400Y44450D01*
X77470Y44450D01*
X50800Y71120D01*
X21590D01*
X10000Y82710D01*
X10000Y135730D01*
X15240Y140970D01*
X127000Y140970D01*
X129540Y138430D01*
D02*
G37*
G36*
X800000Y75182D02*
Y24818D01*
X795000Y20000D01*
X694000D01*
Y80000D01*
X795000Y80000D01*
X800000Y75182D01*
D02*
G37*
G36*
X669818D02*
Y24818D01*
X665000Y20000D01*
X574000D01*
X569000Y25000D01*
Y75000D01*
X574000Y80000D01*
X665000D01*
X669818Y75182D01*
D02*
G37*
%LPC*%
G36*
X466388Y740540D02*
X463612D01*
X460932Y739822D01*
X458528Y738434D01*
X456566Y736472D01*
X455178Y734068D01*
X454460Y731388D01*
Y728612D01*
X455178Y725932D01*
X456566Y723528D01*
X458528Y721566D01*
X460932Y720178D01*
X463612Y719460D01*
X466388D01*
X469068Y720178D01*
X471472Y721566D01*
X473434Y723528D01*
X474822Y725932D01*
X475540Y728612D01*
Y731388D01*
X474822Y734068D01*
X473434Y736472D01*
X471472Y738434D01*
X469068Y739822D01*
X466388Y740540D01*
D02*
G37*
G36*
X351388D02*
X348612D01*
X345932Y739822D01*
X343528Y738434D01*
X341566Y736472D01*
X340178Y734068D01*
X339460Y731388D01*
Y728612D01*
X340178Y725932D01*
X341566Y723528D01*
X343528Y721566D01*
X345932Y720178D01*
X348612Y719460D01*
X351388D01*
X354068Y720178D01*
X356472Y721566D01*
X358434Y723528D01*
X359822Y725932D01*
X360540Y728612D01*
Y731388D01*
X359822Y734068D01*
X358434Y736472D01*
X356472Y738434D01*
X354068Y739822D01*
X351388Y740540D01*
D02*
G37*
G36*
X415750Y740631D02*
X414250D01*
X411498Y740269D01*
X408935Y739207D01*
X406733Y737517D01*
X405043Y735315D01*
X403981Y732751D01*
X403619Y730000D01*
X403981Y727249D01*
X405043Y724685D01*
X406733Y722483D01*
X408935Y720793D01*
X411498Y719731D01*
X414250Y719369D01*
X415750D01*
X418502Y719731D01*
X421065Y720793D01*
X423267Y722483D01*
X424957Y724685D01*
X426019Y727249D01*
X426381Y730000D01*
X426019Y732751D01*
X424957Y735315D01*
X423267Y737517D01*
X421065Y739207D01*
X418502Y740269D01*
X415750Y740631D01*
D02*
G37*
G36*
X300750D02*
X299250D01*
X296499Y740269D01*
X293934Y739207D01*
X291733Y737517D01*
X290043Y735315D01*
X288981Y732751D01*
X288619Y730000D01*
X288981Y727249D01*
X290043Y724685D01*
X291733Y722483D01*
X293934Y720793D01*
X296499Y719731D01*
X299250Y719369D01*
X300750D01*
X303501Y719731D01*
X306066Y720793D01*
X308267Y722483D01*
X309957Y724685D01*
X311019Y727249D01*
X311381Y730000D01*
X311019Y732751D01*
X309957Y735315D01*
X308267Y737517D01*
X306066Y739207D01*
X303501Y740269D01*
X300750Y740631D01*
D02*
G37*
G36*
X913953Y740840D02*
X911047D01*
X908239Y740088D01*
X905721Y738634D01*
X903666Y736579D01*
X902212Y734061D01*
X901460Y731253D01*
Y728346D01*
X902212Y725539D01*
X903666Y723021D01*
X905721Y720966D01*
X908239Y719512D01*
X911047Y718760D01*
X913953D01*
X916761Y719512D01*
X919279Y720966D01*
X921334Y723021D01*
X922788Y725539D01*
X923540Y728346D01*
Y731253D01*
X922788Y734061D01*
X921334Y736579D01*
X919279Y738634D01*
X916761Y740088D01*
X913953Y740840D01*
D02*
G37*
G36*
X888953D02*
X886047D01*
X883239Y740088D01*
X880721Y738634D01*
X878666Y736579D01*
X877212Y734061D01*
X876460Y731253D01*
Y728346D01*
X877212Y725539D01*
X878666Y723021D01*
X880721Y720966D01*
X883239Y719512D01*
X886047Y718760D01*
X888953D01*
X891761Y719512D01*
X894279Y720966D01*
X896334Y723021D01*
X897788Y725539D01*
X898540Y728346D01*
Y731253D01*
X897788Y734061D01*
X896334Y736579D01*
X894279Y738634D01*
X891761Y740088D01*
X888953Y740840D01*
D02*
G37*
G36*
X833953D02*
X831047D01*
X828239Y740088D01*
X825721Y738634D01*
X823666Y736579D01*
X822212Y734061D01*
X821460Y731253D01*
Y728346D01*
X822212Y725539D01*
X823666Y723021D01*
X825721Y720966D01*
X828239Y719512D01*
X831047Y718760D01*
X833953D01*
X836761Y719512D01*
X839279Y720966D01*
X841334Y723021D01*
X842788Y725539D01*
X843540Y728346D01*
Y731253D01*
X842788Y734061D01*
X841334Y736579D01*
X839279Y738634D01*
X836761Y740088D01*
X833953Y740840D01*
D02*
G37*
G36*
X808953D02*
X806047D01*
X803239Y740088D01*
X800721Y738634D01*
X798666Y736579D01*
X797212Y734061D01*
X796460Y731253D01*
Y728346D01*
X797212Y725539D01*
X798666Y723021D01*
X800721Y720966D01*
X803239Y719512D01*
X806047Y718760D01*
X808953D01*
X811761Y719512D01*
X814279Y720966D01*
X816334Y723021D01*
X817788Y725539D01*
X818540Y728346D01*
Y731253D01*
X817788Y734061D01*
X816334Y736579D01*
X814279Y738634D01*
X811761Y740088D01*
X808953Y740840D01*
D02*
G37*
G36*
X753953D02*
X751047D01*
X748239Y740088D01*
X745721Y738634D01*
X743666Y736579D01*
X742212Y734061D01*
X741460Y731253D01*
Y728346D01*
X742212Y725539D01*
X743666Y723021D01*
X745721Y720966D01*
X748239Y719512D01*
X751047Y718760D01*
X753953D01*
X756761Y719512D01*
X759279Y720966D01*
X761334Y723021D01*
X762788Y725539D01*
X763540Y728346D01*
Y731253D01*
X762788Y734061D01*
X761334Y736579D01*
X759279Y738634D01*
X756761Y740088D01*
X753953Y740840D01*
D02*
G37*
G36*
X728953D02*
X726047D01*
X723239Y740088D01*
X720721Y738634D01*
X718666Y736579D01*
X717212Y734061D01*
X716460Y731253D01*
Y728346D01*
X717212Y725539D01*
X718666Y723021D01*
X720721Y720966D01*
X723239Y719512D01*
X726047Y718760D01*
X728953D01*
X731761Y719512D01*
X734279Y720966D01*
X736334Y723021D01*
X737788Y725539D01*
X738540Y728346D01*
Y731253D01*
X737788Y734061D01*
X736334Y736579D01*
X734279Y738634D01*
X731761Y740088D01*
X728953Y740840D01*
D02*
G37*
G36*
X673953D02*
X671047D01*
X668239Y740088D01*
X665721Y738634D01*
X663666Y736579D01*
X662212Y734061D01*
X661460Y731253D01*
Y728346D01*
X662212Y725539D01*
X663666Y723021D01*
X665721Y720966D01*
X668239Y719512D01*
X671047Y718760D01*
X673953D01*
X676761Y719512D01*
X679279Y720966D01*
X681334Y723021D01*
X682788Y725539D01*
X683540Y728346D01*
Y731253D01*
X682788Y734061D01*
X681334Y736579D01*
X679279Y738634D01*
X676761Y740088D01*
X673953Y740840D01*
D02*
G37*
G36*
X648953D02*
X646047D01*
X643239Y740088D01*
X640721Y738634D01*
X638666Y736579D01*
X637212Y734061D01*
X636460Y731253D01*
Y728346D01*
X637212Y725539D01*
X638666Y723021D01*
X640721Y720966D01*
X643239Y719512D01*
X646047Y718760D01*
X648953D01*
X651761Y719512D01*
X654279Y720966D01*
X656334Y723021D01*
X657788Y725539D01*
X658540Y728346D01*
Y731253D01*
X657788Y734061D01*
X656334Y736579D01*
X654279Y738634D01*
X651761Y740088D01*
X648953Y740840D01*
D02*
G37*
G36*
X573953D02*
X571046D01*
X568239Y740088D01*
X565721Y738634D01*
X563666Y736579D01*
X562212Y734061D01*
X561460Y731253D01*
Y728346D01*
X562212Y725539D01*
X563666Y723021D01*
X565721Y720966D01*
X568239Y719512D01*
X571046Y718760D01*
X573953D01*
X576761Y719512D01*
X579279Y720966D01*
X581334Y723021D01*
X582788Y725539D01*
X583540Y728346D01*
Y731253D01*
X582788Y734061D01*
X581334Y736579D01*
X579279Y738634D01*
X576761Y740088D01*
X573953Y740840D01*
D02*
G37*
G36*
X548953D02*
X546046D01*
X543239Y740088D01*
X540721Y738634D01*
X538666Y736579D01*
X537212Y734061D01*
X536460Y731253D01*
Y728346D01*
X537212Y725539D01*
X538666Y723021D01*
X540721Y720966D01*
X543239Y719512D01*
X546046Y718760D01*
X548953D01*
X551761Y719512D01*
X554279Y720966D01*
X556334Y723021D01*
X557788Y725539D01*
X558540Y728346D01*
Y731253D01*
X557788Y734061D01*
X556334Y736579D01*
X554279Y738634D01*
X551761Y740088D01*
X548953Y740840D01*
D02*
G37*
G36*
X231335Y720140D02*
X228665D01*
X226086Y719449D01*
X223774Y718114D01*
X221886Y716226D01*
X220551Y713914D01*
X219860Y711335D01*
Y708665D01*
X220551Y706086D01*
X221886Y703774D01*
X223774Y701886D01*
X226086Y700551D01*
X228665Y699860D01*
X231335D01*
X233914Y700551D01*
X236226Y701886D01*
X238114Y703774D01*
X239449Y706086D01*
X240140Y708665D01*
Y711335D01*
X239449Y713914D01*
X238114Y716226D01*
X236226Y718114D01*
X233914Y719449D01*
X231335Y720140D01*
D02*
G37*
G36*
X188528Y712540D02*
X185072D01*
X181684Y711866D01*
X178492Y710544D01*
X175619Y708624D01*
X173176Y706181D01*
X171256Y703308D01*
X169934Y700116D01*
X169260Y696728D01*
Y693272D01*
X169934Y689884D01*
X171256Y686692D01*
X173176Y683819D01*
X175619Y681376D01*
X178492Y679456D01*
X181684Y678134D01*
X185072Y677460D01*
X188528D01*
X191916Y678134D01*
X195108Y679456D01*
X197981Y681376D01*
X200424Y683819D01*
X202344Y686692D01*
X203666Y689884D01*
X204340Y693272D01*
Y696728D01*
X203666Y700116D01*
X202344Y703308D01*
X200424Y706181D01*
X197981Y708624D01*
X195108Y710544D01*
X191916Y711866D01*
X188528Y712540D01*
D02*
G37*
G36*
X240140Y690140D02*
X219860D01*
Y669860D01*
X240140D01*
Y690140D01*
D02*
G37*
G36*
X912358Y672000D02*
X910657D01*
X907096Y671046D01*
X903904Y669203D01*
X901297Y666596D01*
X899454Y663404D01*
X899359Y663048D01*
X898002Y662890D01*
X896734Y665086D01*
X894586Y667234D01*
X891954Y668754D01*
X889019Y669540D01*
X885981D01*
X883046Y668754D01*
X880414Y667234D01*
X878266Y665086D01*
X876747Y662454D01*
X875960Y659519D01*
Y656481D01*
X876747Y653546D01*
X878266Y650914D01*
X880414Y648766D01*
X883046Y647246D01*
X885981Y646460D01*
X889019D01*
X891954Y647246D01*
X894586Y648766D01*
X896734Y650914D01*
X898002Y653110D01*
X899359Y652952D01*
X899454Y652596D01*
X901297Y649404D01*
X903904Y646797D01*
X907096Y644954D01*
X910657Y644000D01*
X912358D01*
X905429Y650929D01*
X912500Y658000D01*
X905429Y665071D01*
X912358Y672000D01*
D02*
G37*
G36*
X832358D02*
X830657D01*
X827096Y671046D01*
X823904Y669203D01*
X821297Y666596D01*
X819454Y663404D01*
X819359Y663048D01*
X818002Y662890D01*
X816734Y665086D01*
X814586Y667234D01*
X811954Y668754D01*
X809019Y669540D01*
X805981D01*
X803046Y668754D01*
X800414Y667234D01*
X798266Y665086D01*
X796747Y662454D01*
X795960Y659519D01*
Y656481D01*
X796747Y653546D01*
X798266Y650914D01*
X800414Y648766D01*
X803046Y647246D01*
X805981Y646460D01*
X809019D01*
X811954Y647246D01*
X814586Y648766D01*
X816734Y650914D01*
X818002Y653110D01*
X819359Y652952D01*
X819454Y652596D01*
X821297Y649404D01*
X823904Y646797D01*
X827096Y644954D01*
X830657Y644000D01*
X832358D01*
X825429Y650929D01*
X832500Y658000D01*
X825429Y665071D01*
X832358Y672000D01*
D02*
G37*
G36*
X752358D02*
X750657D01*
X747096Y671046D01*
X743904Y669203D01*
X741297Y666596D01*
X739454Y663404D01*
X739359Y663048D01*
X738002Y662890D01*
X736734Y665086D01*
X734586Y667234D01*
X731954Y668754D01*
X729019Y669540D01*
X725981D01*
X723046Y668754D01*
X720414Y667234D01*
X718266Y665086D01*
X716746Y662454D01*
X715960Y659519D01*
Y656481D01*
X716746Y653546D01*
X718266Y650914D01*
X720414Y648766D01*
X723046Y647246D01*
X725981Y646460D01*
X729019D01*
X731954Y647246D01*
X734586Y648766D01*
X736734Y650914D01*
X738002Y653110D01*
X739359Y652952D01*
X739454Y652596D01*
X741297Y649404D01*
X743904Y646797D01*
X747096Y644954D01*
X750657Y644000D01*
X752358D01*
X745429Y650929D01*
X752500Y658000D01*
X745429Y665071D01*
X752358Y672000D01*
D02*
G37*
G36*
X672358D02*
X670657D01*
X667096Y671046D01*
X663904Y669203D01*
X661297Y666596D01*
X659454Y663404D01*
X659359Y663048D01*
X658002Y662890D01*
X656734Y665086D01*
X654586Y667234D01*
X651954Y668754D01*
X649019Y669540D01*
X645981D01*
X643046Y668754D01*
X640414Y667234D01*
X638266Y665086D01*
X636746Y662454D01*
X635960Y659519D01*
Y656481D01*
X636746Y653546D01*
X638266Y650914D01*
X640414Y648766D01*
X643046Y647246D01*
X645981Y646460D01*
X649019D01*
X651954Y647246D01*
X654586Y648766D01*
X656734Y650914D01*
X658002Y653110D01*
X659359Y652952D01*
X659454Y652596D01*
X661297Y649404D01*
X663904Y646797D01*
X667096Y644954D01*
X670657Y644000D01*
X672358D01*
X665429Y650929D01*
X672500Y658000D01*
X665429Y665071D01*
X672358Y672000D01*
D02*
G37*
G36*
X441388Y668740D02*
X438612D01*
X435932Y668022D01*
X433528Y666634D01*
X431566Y664672D01*
X430178Y662268D01*
X429460Y659588D01*
Y656812D01*
X430178Y654132D01*
X431566Y651728D01*
X433528Y649766D01*
X435932Y648378D01*
X438612Y647660D01*
X441388D01*
X444068Y648378D01*
X446472Y649766D01*
X448434Y651728D01*
X449822Y654132D01*
X450540Y656812D01*
Y659588D01*
X449822Y662268D01*
X448434Y664672D01*
X446472Y666634D01*
X444068Y668022D01*
X441388Y668740D01*
D02*
G37*
G36*
X416388D02*
X413612D01*
X410932Y668022D01*
X408528Y666634D01*
X406566Y664672D01*
X405178Y662268D01*
X404460Y659588D01*
Y656812D01*
X405178Y654132D01*
X406566Y651728D01*
X408528Y649766D01*
X410932Y648378D01*
X413612Y647660D01*
X416388D01*
X419068Y648378D01*
X421472Y649766D01*
X423434Y651728D01*
X424822Y654132D01*
X425540Y656812D01*
Y659588D01*
X424822Y662268D01*
X423434Y664672D01*
X421472Y666634D01*
X419068Y668022D01*
X416388Y668740D01*
D02*
G37*
G36*
X326388D02*
X323612D01*
X320932Y668022D01*
X318528Y666634D01*
X316566Y664672D01*
X315178Y662268D01*
X314460Y659588D01*
Y656812D01*
X315178Y654132D01*
X316566Y651728D01*
X318528Y649766D01*
X320932Y648378D01*
X323612Y647660D01*
X326388D01*
X329068Y648378D01*
X331472Y649766D01*
X333434Y651728D01*
X334822Y654132D01*
X335540Y656812D01*
Y659588D01*
X334822Y662268D01*
X333434Y664672D01*
X331472Y666634D01*
X329068Y668022D01*
X326388Y668740D01*
D02*
G37*
G36*
X301388D02*
X298612D01*
X295932Y668022D01*
X293528Y666634D01*
X291566Y664672D01*
X290178Y662268D01*
X289460Y659588D01*
Y656812D01*
X290178Y654132D01*
X291566Y651728D01*
X293528Y649766D01*
X295932Y648378D01*
X298612Y647660D01*
X301388D01*
X304068Y648378D01*
X306472Y649766D01*
X308434Y651728D01*
X309822Y654132D01*
X310540Y656812D01*
Y659588D01*
X309822Y662268D01*
X308434Y664672D01*
X306472Y666634D01*
X304068Y668022D01*
X301388Y668740D01*
D02*
G37*
G36*
X574019Y669540D02*
X570981D01*
X568046Y668754D01*
X565414Y667234D01*
X563266Y665086D01*
X561746Y662454D01*
X560960Y659519D01*
Y656481D01*
X561746Y653546D01*
X563266Y650914D01*
X565414Y648766D01*
X568046Y647246D01*
X570981Y646460D01*
X574019D01*
X576954Y647246D01*
X579586Y648766D01*
X581734Y650914D01*
X583254Y653546D01*
X584040Y656481D01*
Y659519D01*
X583254Y662454D01*
X581734Y665086D01*
X579586Y667234D01*
X576954Y668754D01*
X574019Y669540D01*
D02*
G37*
G36*
X549019D02*
X545981D01*
X543046Y668754D01*
X540414Y667234D01*
X538266Y665086D01*
X536746Y662454D01*
X535960Y659519D01*
Y656481D01*
X536746Y653546D01*
X538266Y650914D01*
X540414Y648766D01*
X543046Y647246D01*
X545981Y646460D01*
X549019D01*
X551954Y647246D01*
X554586Y648766D01*
X556734Y650914D01*
X558254Y653546D01*
X559040Y656481D01*
Y659519D01*
X558254Y662454D01*
X556734Y665086D01*
X554586Y667234D01*
X551954Y668754D01*
X549019Y669540D01*
D02*
G37*
G36*
X466388Y643740D02*
X463612D01*
X460932Y643022D01*
X458528Y641634D01*
X456566Y639672D01*
X455178Y637268D01*
X454460Y634588D01*
Y631812D01*
X455178Y629132D01*
X456566Y626728D01*
X458528Y624766D01*
X460932Y623378D01*
X463612Y622660D01*
X466388D01*
X469068Y623378D01*
X471472Y624766D01*
X473434Y626728D01*
X474822Y629132D01*
X475540Y631812D01*
Y634588D01*
X474822Y637268D01*
X473434Y639672D01*
X471472Y641634D01*
X469068Y643022D01*
X466388Y643740D01*
D02*
G37*
G36*
X441388D02*
X438612D01*
X435932Y643022D01*
X433528Y641634D01*
X431566Y639672D01*
X430178Y637268D01*
X429460Y634588D01*
Y631812D01*
X430178Y629132D01*
X431566Y626728D01*
X433528Y624766D01*
X435932Y623378D01*
X438612Y622660D01*
X441388D01*
X444068Y623378D01*
X446472Y624766D01*
X448434Y626728D01*
X449822Y629132D01*
X450540Y631812D01*
Y634588D01*
X449822Y637268D01*
X448434Y639672D01*
X446472Y641634D01*
X444068Y643022D01*
X441388Y643740D01*
D02*
G37*
G36*
X416388D02*
X413612D01*
X410932Y643022D01*
X408528Y641634D01*
X406566Y639672D01*
X405178Y637268D01*
X404460Y634588D01*
Y631812D01*
X405178Y629132D01*
X406566Y626728D01*
X408528Y624766D01*
X410932Y623378D01*
X413612Y622660D01*
X416388D01*
X419068Y623378D01*
X421472Y624766D01*
X423434Y626728D01*
X424822Y629132D01*
X425540Y631812D01*
Y634588D01*
X424822Y637268D01*
X423434Y639672D01*
X421472Y641634D01*
X419068Y643022D01*
X416388Y643740D01*
D02*
G37*
G36*
X351388D02*
X348612D01*
X345932Y643022D01*
X343528Y641634D01*
X341566Y639672D01*
X340178Y637268D01*
X339460Y634588D01*
Y631812D01*
X340178Y629132D01*
X341566Y626728D01*
X343528Y624766D01*
X345932Y623378D01*
X348612Y622660D01*
X351388D01*
X354068Y623378D01*
X356472Y624766D01*
X358434Y626728D01*
X359822Y629132D01*
X360540Y631812D01*
Y634588D01*
X359822Y637268D01*
X358434Y639672D01*
X356472Y641634D01*
X354068Y643022D01*
X351388Y643740D01*
D02*
G37*
G36*
X326388D02*
X323612D01*
X320932Y643022D01*
X318528Y641634D01*
X316566Y639672D01*
X315178Y637268D01*
X314460Y634588D01*
Y631812D01*
X315178Y629132D01*
X316566Y626728D01*
X318528Y624766D01*
X320932Y623378D01*
X323612Y622660D01*
X326388D01*
X329068Y623378D01*
X331472Y624766D01*
X333434Y626728D01*
X334822Y629132D01*
X335540Y631812D01*
Y634588D01*
X334822Y637268D01*
X333434Y639672D01*
X331472Y641634D01*
X329068Y643022D01*
X326388Y643740D01*
D02*
G37*
G36*
X301388D02*
X298612D01*
X295932Y643022D01*
X293528Y641634D01*
X291566Y639672D01*
X290178Y637268D01*
X289460Y634588D01*
Y631812D01*
X290178Y629132D01*
X291566Y626728D01*
X293528Y624766D01*
X295932Y623378D01*
X298612Y622660D01*
X301388D01*
X304068Y623378D01*
X306472Y624766D01*
X308434Y626728D01*
X309822Y629132D01*
X310540Y631812D01*
Y634588D01*
X309822Y637268D01*
X308434Y639672D01*
X306472Y641634D01*
X304068Y643022D01*
X301388Y643740D01*
D02*
G37*
G36*
X548540Y643890D02*
X546200D01*
X543939Y643284D01*
X541911Y642114D01*
X540256Y640459D01*
X539086Y638431D01*
X538480Y636170D01*
Y633830D01*
X539086Y631569D01*
X540256Y629541D01*
X541911Y627886D01*
X543939Y626716D01*
X546200Y626110D01*
X548540D01*
X549944Y626486D01*
X581768Y594663D01*
X581660Y594260D01*
Y591920D01*
X582266Y589659D01*
X583436Y587631D01*
X585091Y585976D01*
X587119Y584806D01*
X589380Y584200D01*
X591720D01*
X593981Y584806D01*
X596009Y585976D01*
X597664Y587631D01*
X598834Y589659D01*
X599440Y591920D01*
Y594260D01*
X598834Y596521D01*
X597664Y598549D01*
X596009Y600204D01*
X593981Y601374D01*
X591720Y601980D01*
X589380D01*
X587119Y601374D01*
X586400Y600960D01*
X555683Y631677D01*
X556260Y633830D01*
Y636170D01*
X555654Y638431D01*
X554484Y640459D01*
X552829Y642114D01*
X550801Y643284D01*
X548540Y643890D01*
D02*
G37*
G36*
X595263Y344900D02*
X593457D01*
X591788Y344209D01*
X590511Y342932D01*
X589820Y341263D01*
Y339457D01*
X590511Y337788D01*
X591788Y336511D01*
X593457Y335820D01*
X595263D01*
X596932Y336511D01*
X598209Y337788D01*
X598900Y339457D01*
Y341263D01*
X598209Y342932D01*
X596932Y344209D01*
X595263Y344900D01*
D02*
G37*
G36*
X290858Y319000D02*
X269142D01*
X280000Y308142D01*
X290858Y319000D01*
D02*
G37*
G36*
X255000Y304858D02*
Y283142D01*
X265858Y294000D01*
X255000Y304858D01*
D02*
G37*
G36*
X305000Y304858D02*
X294142Y294000D01*
X305000Y283142D01*
Y304858D01*
D02*
G37*
G36*
X280000Y279858D02*
X269142Y269000D01*
X290858D01*
X280000Y279858D01*
D02*
G37*
G36*
X236040Y273040D02*
X203960D01*
Y251960D01*
X236040D01*
Y273040D01*
D02*
G37*
G36*
X367531Y435540D02*
X364469D01*
X361467Y434943D01*
X358639Y433771D01*
X356094Y432071D01*
X353929Y429906D01*
X352229Y427361D01*
X351057Y424533D01*
X350460Y421531D01*
Y418469D01*
X351057Y415467D01*
X352229Y412639D01*
X353929Y410094D01*
X356094Y407929D01*
X358639Y406229D01*
X361467Y405057D01*
X364469Y404460D01*
X367531D01*
X370533Y405057D01*
X373361Y406229D01*
X375906Y407929D01*
X378071Y410094D01*
X379771Y412639D01*
X380943Y415467D01*
X381540Y418469D01*
Y421531D01*
X380943Y424533D01*
X379771Y427361D01*
X378071Y429906D01*
X375906Y432071D01*
X373361Y433771D01*
X370533Y434943D01*
X367531Y435540D01*
D02*
G37*
G36*
X282462Y391000D02*
X277538D01*
X272708Y390039D01*
X270866Y389276D01*
X280000Y380142D01*
X289134Y389276D01*
X287292Y390039D01*
X282462Y391000D01*
D02*
G37*
G36*
X256724Y375134D02*
X255961Y373292D01*
X255000Y368462D01*
Y363538D01*
X255961Y358708D01*
X256724Y356866D01*
X265858Y366000D01*
X256724Y375134D01*
D02*
G37*
G36*
X303276Y375134D02*
X294142Y366000D01*
X303276Y356866D01*
X304039Y358708D01*
X305000Y363538D01*
Y368462D01*
X304039Y373292D01*
X303276Y375134D01*
D02*
G37*
G36*
X280000Y351858D02*
X270866Y342724D01*
X272708Y341961D01*
X277538Y341000D01*
X282462D01*
X287292Y341961D01*
X289134Y342724D01*
X280000Y351858D01*
D02*
G37*
G36*
X198462Y105000D02*
X193538D01*
X188708Y104039D01*
X186866Y103276D01*
X196000Y94142D01*
X205134Y103276D01*
X203292Y104039D01*
X198462Y105000D01*
D02*
G37*
G36*
X538113Y89630D02*
X536307D01*
X534638Y88939D01*
X533361Y87662D01*
X532670Y85993D01*
Y84187D01*
X533361Y82518D01*
X534638Y81241D01*
X536307Y80550D01*
X538113D01*
X539782Y81241D01*
X541059Y82518D01*
X541750Y84187D01*
Y85993D01*
X541059Y87662D01*
X539782Y88939D01*
X538113Y89630D01*
D02*
G37*
G36*
X510173D02*
X508367D01*
X506698Y88939D01*
X505421Y87662D01*
X504730Y85993D01*
Y84187D01*
X505421Y82518D01*
X506698Y81241D01*
X508367Y80550D01*
X510173D01*
X511842Y81241D01*
X513119Y82518D01*
X513810Y84187D01*
Y85993D01*
X513119Y87662D01*
X511842Y88939D01*
X510173Y89630D01*
D02*
G37*
G36*
X219276Y89134D02*
X210142Y80000D01*
X219276Y70866D01*
X220039Y72708D01*
X221000Y77538D01*
Y82462D01*
X220039Y87292D01*
X219276Y89134D01*
D02*
G37*
G36*
X172724Y89134D02*
X171961Y87292D01*
X171000Y82462D01*
Y77538D01*
X171961Y72708D01*
X172724Y70866D01*
X181858Y80000D01*
X172724Y89134D01*
D02*
G37*
G36*
X196000Y65858D02*
X186866Y56724D01*
X188708Y55961D01*
X193538Y55000D01*
X198462D01*
X203292Y55961D01*
X205134Y56724D01*
X196000Y65858D01*
D02*
G37*
G36*
X72390Y138484D02*
X70911Y138190D01*
X69658Y137352D01*
X68820Y136099D01*
X68526Y134620D01*
Y133350D01*
X68820Y131871D01*
X69658Y130618D01*
X70928Y129348D01*
X72181Y128510D01*
X73660Y128216D01*
X75139Y128510D01*
X76392Y129348D01*
X77230Y130601D01*
X77524Y132080D01*
X77230Y133559D01*
X76392Y134812D01*
X76172Y135033D01*
X75960Y136099D01*
X75122Y137352D01*
X73869Y138190D01*
X72390Y138484D01*
D02*
G37*
G36*
X134858Y105000D02*
X113142D01*
X124000Y94142D01*
X134858Y105000D01*
D02*
G37*
G36*
X99000Y90858D02*
Y69142D01*
X109858Y80000D01*
X99000Y90858D01*
D02*
G37*
G36*
X149000Y90858D02*
X138142Y80000D01*
X149000Y69142D01*
Y90858D01*
D02*
G37*
G36*
X124000Y65858D02*
X113142Y55000D01*
X134858D01*
X124000Y65858D01*
D02*
G37*
%LPD*%
D11*
X780890Y49530D02*
X781050D01*
X588805Y593090D02*
X590550D01*
X547370Y634525D02*
Y635000D01*
Y634525D02*
X588805Y593090D01*
X72390Y133350D02*
X73660Y132080D01*
X72390Y133350D02*
Y134620D01*
X405130Y168910D02*
Y176530D01*
X415145Y186545D01*
X342900Y142240D02*
Y177800D01*
X351495Y186395D01*
X454340Y54610D02*
X462280D01*
X391601D02*
X398780D01*
X453390Y53660D02*
X454340Y54610D01*
X389890Y52899D02*
X391601Y54610D01*
X415145Y186545D02*
Y189970D01*
X351495Y186395D02*
Y189970D01*
X1047900Y660400D02*
X1056640D01*
X1047900Y629920D02*
X1056640D01*
X1047650Y600000D02*
X1056707D01*
X1056410Y570000D02*
X1056640Y570230D01*
X1047650Y570000D02*
X1056410D01*
X1056390Y540000D02*
X1056640Y539750D01*
X1047650Y540000D02*
X1056390D01*
X994410Y220590D02*
Y254000D01*
X1047500Y660000D02*
X1047900Y660400D01*
X994410Y220590D02*
X995000Y220000D01*
X544000Y31000D02*
X544050Y30950D01*
X553861D01*
D15*
X653090Y448000D02*
X684728D01*
X652780Y448310D02*
X653090Y448000D01*
X684728D02*
X732290Y495562D01*
Y524010D01*
X773430Y565150D01*
X989330D01*
X1016000Y643500D02*
X1032500Y660000D01*
X989330Y565150D02*
X1016000Y591820D01*
Y643500D01*
D25*
X57150Y102330D02*
D03*
Y199930D02*
D03*
D26*
X711327Y49530D02*
D03*
X647573D02*
D03*
D27*
X1047500Y660000D02*
D03*
X1032500D02*
D03*
X185700Y585000D02*
D03*
X170700D02*
D03*
X1032500Y540000D02*
D03*
X1047500D02*
D03*
X1032500Y570000D02*
D03*
X1047500D02*
D03*
X1032500Y600000D02*
D03*
X1047500D02*
D03*
X1032500Y630000D02*
D03*
X1047500D02*
D03*
D28*
X276620Y179000D02*
D03*
X156620D02*
D03*
X691840Y149860D02*
D03*
X811840D02*
D03*
X621340D02*
D03*
X501340D02*
D03*
D29*
X253047Y585000D02*
D03*
X244047D02*
D03*
D64*
X415145Y108635D02*
D03*
X440545D02*
D03*
X453245D02*
D03*
Y54395D02*
D03*
X440545D02*
D03*
X427845D02*
D03*
X415145D02*
D03*
X427845Y108635D02*
D03*
X364195Y108843D02*
D03*
X351495Y54604D02*
D03*
X364195D02*
D03*
X376895D02*
D03*
X389595D02*
D03*
Y108843D02*
D03*
X376895D02*
D03*
X351495D02*
D03*
X389595Y135730D02*
D03*
X364195D02*
D03*
X351495D02*
D03*
Y189970D02*
D03*
X364195D02*
D03*
X376895D02*
D03*
X389595D02*
D03*
X376895Y135730D02*
D03*
X440545D02*
D03*
X453245Y189970D02*
D03*
X440545D02*
D03*
X427845D02*
D03*
X415145D02*
D03*
Y135730D02*
D03*
X427845D02*
D03*
X453245D02*
D03*
D65*
X608101Y56350D02*
D03*
X553861Y69050D02*
D03*
Y56350D02*
D03*
Y43650D02*
D03*
Y30950D02*
D03*
X608101D02*
D03*
Y43650D02*
D03*
Y69050D02*
D03*
D66*
X905256Y533654D02*
X924560Y514350D01*
Y454660D02*
Y514350D01*
X652780Y387350D02*
X754380Y488950D01*
Y515620D01*
X646430Y408940D02*
X652780Y402590D01*
X646430Y408940D02*
Y419100D01*
X652780Y417830D02*
X654050Y416560D01*
X674338D01*
X641350Y387350D02*
Y421640D01*
X652780Y433070D01*
X790956Y533654D02*
X905256D01*
X641350Y387350D02*
X647700Y381000D01*
X656590D01*
X646430Y419100D02*
X651510Y424180D01*
X672338D01*
X674338Y416560D02*
X748016Y490238D01*
X760730Y485140D02*
Y511810D01*
X656590Y381000D02*
X760730Y485140D01*
X659130Y377190D02*
X676910Y394970D01*
X644398Y377190D02*
X659130D01*
X676910Y394970D02*
X679450D01*
X767842Y483362D02*
Y510540D01*
X679450Y394970D02*
X767842Y483362D01*
X748016Y490238D02*
Y519416D01*
X672338Y424180D02*
X740878Y492719D01*
Y521167D01*
X636270Y385318D02*
X644398Y377190D01*
X767842Y510540D02*
X790956Y533654D01*
X636270Y385318D02*
Y411988D01*
X619760Y428498D02*
X636270Y411988D01*
X760730Y511810D02*
X788920Y540000D01*
X754380Y515620D02*
X784860Y546100D01*
X748016Y519416D02*
X781050Y552450D01*
X740878Y521167D02*
X778510Y558800D01*
X781050Y552450D02*
X998220D01*
X778510Y558800D02*
X994410D01*
X788920Y540000D02*
X1032500D01*
X784860Y546100D02*
X1002030D01*
X1032500Y586730D02*
Y600000D01*
X998220Y552450D02*
X1032500Y586730D01*
X1023620Y588010D02*
Y621120D01*
X994410Y558800D02*
X1023620Y588010D01*
Y621120D02*
X1032500Y630000D01*
X1025930Y570000D02*
X1032500D01*
X1002030Y546100D02*
X1025930Y570000D01*
D67*
X607060Y416560D02*
X621030Y402590D01*
X584200Y416560D02*
X607060D01*
X621030Y377190D02*
Y402590D01*
X538480Y462280D02*
X584200Y416560D01*
X675894Y360680D02*
X683514Y368300D01*
X637540Y360680D02*
X675894D01*
X621030Y377190D02*
X637540Y360680D01*
D68*
X170180Y585520D02*
Y603545D01*
D69*
X253047Y585000D02*
X259880D01*
X260350Y585470D01*
X185700Y585000D02*
X244047D01*
D70*
X434208Y88443D02*
D03*
X370545Y88652D02*
D03*
X370544Y155921D02*
D03*
X434195Y155935D02*
D03*
D71*
X587910Y50000D02*
D03*
D72*
X924800Y31700D02*
D03*
X949800D02*
D03*
X1063300Y482700D02*
D03*
Y457700D02*
D03*
X935000Y165000D02*
D03*
X985000D02*
D03*
X465000Y658200D02*
D03*
X440000D02*
D03*
X415000D02*
D03*
X465000Y633200D02*
D03*
X440000D02*
D03*
X415000D02*
D03*
X198200Y450000D02*
D03*
Y550000D02*
D03*
X300000Y633200D02*
D03*
X325000D02*
D03*
X350000D02*
D03*
X300000Y658200D02*
D03*
X325000D02*
D03*
X350000D02*
D03*
D73*
X924800Y103500D02*
D03*
X949800D02*
D03*
X924800Y128500D02*
D03*
X547500Y729800D02*
D03*
X572500D02*
D03*
X966500Y457700D02*
D03*
X991500Y482700D02*
D03*
Y457700D02*
D03*
X295000Y475000D02*
D03*
Y500000D02*
D03*
Y525000D02*
D03*
Y550000D02*
D03*
X270000Y450000D02*
D03*
Y475000D02*
D03*
Y500000D02*
D03*
Y525000D02*
D03*
Y550000D02*
D03*
X832500Y729800D02*
D03*
X807500D02*
D03*
X887500D02*
D03*
X912500D02*
D03*
X672500D02*
D03*
X647500D02*
D03*
X752500D02*
D03*
X727500D02*
D03*
D74*
X949800Y128500D02*
D03*
D75*
X92500Y20000D02*
D03*
X227500D02*
D03*
D76*
X220000Y262500D02*
D03*
Y397500D02*
D03*
D77*
X547500Y658000D02*
D03*
X572500D02*
D03*
X1100000Y405000D02*
D03*
Y295000D02*
D03*
X855890Y49530D02*
D03*
X780890D02*
D03*
X832500Y658000D02*
D03*
X807500D02*
D03*
X887500D02*
D03*
X912500D02*
D03*
X672500D02*
D03*
X647500D02*
D03*
X752500D02*
D03*
X727500D02*
D03*
D78*
X1025000Y199600D02*
D03*
X995000D02*
D03*
X965000D02*
D03*
D79*
X1025000Y225000D02*
D03*
X995000D02*
D03*
X965000D02*
D03*
D80*
X966500Y482700D02*
D03*
X295000Y450000D02*
D03*
D81*
X124000Y80000D02*
D03*
D82*
X196000D02*
D03*
X280000Y366000D02*
D03*
D83*
Y294000D02*
D03*
D84*
X1000000Y325000D02*
D03*
D85*
Y375000D02*
D03*
D86*
X186800Y695000D02*
D03*
X366000Y496200D02*
D03*
Y343800D02*
D03*
D87*
X260000Y710000D02*
D03*
Y680000D02*
D03*
X230000Y710000D02*
D03*
D88*
Y680000D02*
D03*
D89*
X415000Y730000D02*
D03*
X465000D02*
D03*
X350000D02*
D03*
X300000D02*
D03*
D90*
X874000Y343800D02*
D03*
Y496200D02*
D03*
D91*
Y381900D02*
D03*
Y420000D02*
D03*
Y458100D02*
D03*
X366000Y420000D02*
D03*
D92*
X96520Y199390D02*
D03*
X547370Y635000D02*
D03*
X590550Y593090D02*
D03*
X95250Y182880D02*
D03*
Y215900D02*
D03*
X73660Y132080D02*
D03*
X91440Y166370D02*
D03*
X55880Y133350D02*
D03*
X38100D02*
D03*
X19050D02*
D03*
X55880Y166370D02*
D03*
X38100D02*
D03*
X19050D02*
D03*
X74930D02*
D03*
X367030Y35560D02*
D03*
Y19050D02*
D03*
X383540Y35560D02*
D03*
Y19050D02*
D03*
X400050Y35560D02*
D03*
Y19050D02*
D03*
X416560Y35560D02*
D03*
Y19050D02*
D03*
X538480Y462280D02*
D03*
X515620Y558800D02*
D03*
X791210Y326390D02*
D03*
X812800D02*
D03*
X791210Y345440D02*
D03*
X812800D02*
D03*
X791210Y511810D02*
D03*
X812800D02*
D03*
X791210Y492760D02*
D03*
X812800D02*
D03*
X19050Y182880D02*
D03*
Y199390D02*
D03*
Y215900D02*
D03*
Y116840D02*
D03*
X515620Y218440D02*
D03*
X683514Y368300D02*
D03*
X615690Y539310D02*
D03*
X595690D02*
D03*
X615690Y558850D02*
D03*
X595690D02*
D03*
X675380Y539310D02*
D03*
X635380D02*
D03*
X655380D02*
D03*
X675380Y558850D02*
D03*
X655380D02*
D03*
X635380D02*
D03*
X694750D02*
D03*
X714750D02*
D03*
X694750Y539310D02*
D03*
X714750D02*
D03*
Y499940D02*
D03*
X694750D02*
D03*
X714750Y519480D02*
D03*
X694750D02*
D03*
X635380D02*
D03*
X655380D02*
D03*
X675380D02*
D03*
X655380Y499940D02*
D03*
X635380D02*
D03*
X675380D02*
D03*
X595690Y519480D02*
D03*
X615690D02*
D03*
X595690Y499940D02*
D03*
X615690D02*
D03*
X812326Y365213D02*
D03*
X791210Y365215D02*
D03*
X689610Y196850D02*
D03*
X706120D02*
D03*
X670590Y174000D02*
D03*
X691590D02*
D03*
X713590D02*
D03*
X713740Y127000D02*
D03*
X692150D02*
D03*
X670560D02*
D03*
X599440Y173990D02*
D03*
X619760D02*
D03*
X641350D02*
D03*
Y127000D02*
D03*
X619760D02*
D03*
X599440D02*
D03*
X790000Y125000D02*
D03*
X811000D02*
D03*
X833000D02*
D03*
Y174000D02*
D03*
X811000D02*
D03*
X790000D02*
D03*
X485140Y173990D02*
D03*
X506730D02*
D03*
X528320D02*
D03*
Y124460D02*
D03*
X506730D02*
D03*
X483870D02*
D03*
X916000Y278000D02*
D03*
X936000D02*
D03*
X956000D02*
D03*
X936000Y261000D02*
D03*
X916000D02*
D03*
X956000D02*
D03*
X477520Y575310D02*
D03*
X496570D02*
D03*
X515620D02*
D03*
X496570Y558800D02*
D03*
X477520D02*
D03*
X312123Y274000D02*
D03*
Y294000D02*
D03*
Y314000D02*
D03*
X329123Y294000D02*
D03*
Y274000D02*
D03*
Y314000D02*
D03*
X497840Y218440D02*
D03*
X533400D02*
D03*
X497840Y234950D02*
D03*
X533400D02*
D03*
X515620D02*
D03*
X19050Y100330D02*
D03*
X209550Y161290D02*
D03*
X193040Y156210D02*
D03*
X176530D02*
D03*
X196850Y172720D02*
D03*
X209550Y184150D02*
D03*
X323850Y204470D02*
D03*
Y173990D02*
D03*
X317500Y158750D02*
D03*
Y189230D02*
D03*
X306070Y204470D02*
D03*
X278130Y115570D02*
D03*
Y132080D02*
D03*
X261620Y115570D02*
D03*
Y132080D02*
D03*
X278130Y52070D02*
D03*
Y68580D02*
D03*
X261620Y52070D02*
D03*
Y68580D02*
D03*
X812800Y473710D02*
D03*
X791210D02*
D03*
D93*
X924560Y454660D02*
D03*
X613410Y85090D02*
D03*
X402590Y76200D02*
D03*
Y85090D02*
D03*
Y93980D02*
D03*
X652780Y387350D02*
D03*
Y402590D02*
D03*
Y417830D02*
D03*
Y448310D02*
D03*
Y433070D02*
D03*
X405130Y168910D02*
D03*
X342900Y142240D02*
D03*
X544830Y82550D02*
D03*
X462280Y54610D02*
D03*
X398780D02*
D03*
X537210Y48260D02*
D03*
X509270Y85090D02*
D03*
X537210D02*
D03*
X463550Y167640D02*
D03*
X483870Y59690D02*
D03*
X464820Y33020D02*
D03*
X632460Y92710D02*
D03*
X566420Y133350D02*
D03*
X553720D02*
D03*
X834390Y194310D02*
D03*
X825500D02*
D03*
X593090Y440690D02*
D03*
X600710D02*
D03*
X594360Y394970D02*
D03*
X601980D02*
D03*
X914400Y476130D02*
D03*
X594360Y340360D02*
D03*
X1056640Y660400D02*
D03*
Y629920D02*
D03*
X1056707Y600000D02*
D03*
X1056640Y570230D02*
D03*
Y539750D02*
D03*
X689610Y105410D02*
D03*
X455930Y123190D02*
D03*
X447040D02*
D03*
X438150D02*
D03*
X402590Y102870D02*
D03*
Y140970D02*
D03*
X393700Y123190D02*
D03*
X369570D02*
D03*
X619760Y428498D02*
D03*
X720190Y110390D02*
D03*
X704950D02*
D03*
X260350Y585470D02*
D03*
X994410Y254000D02*
D03*
X825500Y201930D02*
D03*
X834390D02*
D03*
X544000Y31000D02*
D03*
X384810Y123190D02*
D03*
X411480D02*
D03*
X402590Y113030D02*
D03*
Y132080D02*
D03*
X429260Y123190D02*
D03*
X377190D02*
D03*
X402590D02*
D03*
M02*
