G04*
G04 #@! TF.GenerationSoftware,Altium Limited,Altium Designer,24.1.2 (44)*
G04*
G04 Layer_Physical_Order=2*
G04 Layer_Color=36540*
%FSLAX44Y44*%
%MOMM*%
G71*
G04*
G04 #@! TF.SameCoordinates,2E5B26B1-033E-4B1C-A529-2162076C627E*
G04*
G04*
G04 #@! TF.FilePolarity,Positive*
G04*
G01*
G75*
%ADD72C,1.6000*%
%ADD73C,1.7000*%
%ADD74R,1.7000X1.7000*%
%ADD75R,1.6000X2.7000*%
%ADD76R,2.7000X1.6000*%
%ADD77C,1.8000*%
%ADD78C,1.5000*%
%ADD79R,1.5000X1.5000*%
%ADD80R,1.7000X1.7000*%
%ADD82C,4.0000*%
%ADD84C,3.2000*%
%ADD85R,3.2000X3.2000*%
%ADD86C,3.0000*%
%ADD87C,1.5200*%
%ADD88R,1.5200X1.5200*%
%ADD89C,1.0000*%
%ADD90O,4.0000X3.8000*%
%ADD91C,2.6000*%
%ADD92C,1.2700*%
%ADD93C,0.4000*%
%ADD94C,2.0000*%
%ADD95C,7.4000*%
%ADD96C,4.0000*%
G36*
X685800Y622300D02*
X469741D01*
X469400Y623570D01*
X471472Y624766D01*
X473434Y626728D01*
X474822Y629132D01*
X475540Y631812D01*
Y634588D01*
X474822Y637268D01*
X473434Y639672D01*
X471472Y641634D01*
X469068Y643022D01*
X466388Y643740D01*
X463612D01*
X460932Y643022D01*
X458528Y641634D01*
X456566Y639672D01*
X455178Y637268D01*
X454460Y634588D01*
Y631812D01*
X455178Y629132D01*
X456566Y626728D01*
X458528Y624766D01*
X460600Y623570D01*
X460259Y622300D01*
X444741D01*
X444400Y623570D01*
X446472Y624766D01*
X448434Y626728D01*
X449822Y629132D01*
X450540Y631812D01*
Y634588D01*
X449822Y637268D01*
X448434Y639672D01*
X446472Y641634D01*
X444068Y643022D01*
X441388Y643740D01*
X438612D01*
X435932Y643022D01*
X433528Y641634D01*
X431566Y639672D01*
X430178Y637268D01*
X429460Y634588D01*
Y631812D01*
X430178Y629132D01*
X431566Y626728D01*
X433528Y624766D01*
X435600Y623570D01*
X435259Y622300D01*
X419741D01*
X419400Y623570D01*
X421472Y624766D01*
X423434Y626728D01*
X424822Y629132D01*
X425540Y631812D01*
Y634588D01*
X424822Y637268D01*
X423434Y639672D01*
X421472Y641634D01*
X419068Y643022D01*
X416388Y643740D01*
X413612D01*
X410932Y643022D01*
X408528Y641634D01*
X406566Y639672D01*
X405178Y637268D01*
X404460Y634588D01*
Y631812D01*
X405178Y629132D01*
X406566Y626728D01*
X408528Y624766D01*
X410600Y623570D01*
X410259Y622300D01*
X354741D01*
X354400Y623570D01*
X356472Y624766D01*
X358434Y626728D01*
X359822Y629132D01*
X360540Y631812D01*
Y634588D01*
X359822Y637268D01*
X358434Y639672D01*
X356472Y641634D01*
X354068Y643022D01*
X351388Y643740D01*
X348612D01*
X345932Y643022D01*
X343528Y641634D01*
X341566Y639672D01*
X340178Y637268D01*
X339460Y634588D01*
Y631812D01*
X340178Y629132D01*
X341566Y626728D01*
X343528Y624766D01*
X345600Y623570D01*
X345259Y622300D01*
X329741D01*
X329400Y623570D01*
X331472Y624766D01*
X333434Y626728D01*
X334822Y629132D01*
X335540Y631812D01*
Y634588D01*
X334822Y637268D01*
X333434Y639672D01*
X331472Y641634D01*
X329068Y643022D01*
X326388Y643740D01*
X323612D01*
X320932Y643022D01*
X318528Y641634D01*
X316566Y639672D01*
X315178Y637268D01*
X314460Y634588D01*
Y631812D01*
X315178Y629132D01*
X316566Y626728D01*
X318528Y624766D01*
X320600Y623570D01*
X320259Y622300D01*
X304741D01*
X304400Y623570D01*
X306472Y624766D01*
X308434Y626728D01*
X309822Y629132D01*
X310540Y631812D01*
Y634588D01*
X309822Y637268D01*
X308434Y639672D01*
X306472Y641634D01*
X304068Y643022D01*
X301388Y643740D01*
X298612D01*
X295932Y643022D01*
X293528Y641634D01*
X291566Y639672D01*
X290178Y637268D01*
X289460Y634588D01*
Y631812D01*
X290178Y629132D01*
X291566Y626728D01*
X293528Y624766D01*
X295600Y623570D01*
X295259Y622300D01*
X179070D01*
X179070Y213360D01*
X162560Y196850D01*
Y148590D01*
X171450Y139700D01*
X287020D01*
Y107950D01*
X399672D01*
X399970Y106889D01*
X399980Y106680D01*
X398741Y105442D01*
X398050Y103773D01*
Y101967D01*
X398741Y100298D01*
X399889Y99150D01*
X399960Y98425D01*
X399889Y97700D01*
X398741Y96552D01*
X398050Y94883D01*
Y93077D01*
X398741Y91408D01*
X399889Y90260D01*
X399960Y89535D01*
X399889Y88810D01*
X398741Y87662D01*
X398050Y85993D01*
Y84187D01*
X398741Y82518D01*
X399889Y81370D01*
X399960Y80645D01*
X399889Y79920D01*
X398741Y78772D01*
X398050Y77103D01*
Y75297D01*
X398741Y73628D01*
X400018Y72351D01*
X401687Y71660D01*
X403493D01*
X405162Y72351D01*
X406439Y73628D01*
X407130Y75297D01*
Y77103D01*
X406439Y78772D01*
X405291Y79920D01*
X405220Y80645D01*
X405291Y81370D01*
X406439Y82518D01*
X407130Y84187D01*
Y85993D01*
X406439Y87662D01*
X405291Y88810D01*
X405220Y89535D01*
X405291Y90260D01*
X406439Y91408D01*
X407130Y93077D01*
Y94883D01*
X406439Y96552D01*
X405291Y97700D01*
X405220Y98425D01*
X405291Y99150D01*
X406439Y100298D01*
X407130Y101967D01*
Y103773D01*
X406439Y105442D01*
X405201Y106680D01*
X405210Y106889D01*
X405508Y107950D01*
X547370D01*
Y146050D01*
X579120D01*
Y107950D01*
X685800D01*
Y6350D01*
X238040D01*
Y36040D01*
X216960D01*
Y6350D01*
X103040D01*
Y36040D01*
X88900D01*
Y156804D01*
X89908Y157577D01*
X90270Y157480D01*
X92610D01*
X94871Y158086D01*
X96899Y159256D01*
X98554Y160911D01*
X99724Y162939D01*
X100330Y165200D01*
Y167540D01*
X99724Y169801D01*
X98554Y171829D01*
X97435Y172947D01*
X97815Y174364D01*
X98681Y174596D01*
X100709Y175766D01*
X102364Y177421D01*
X103534Y179449D01*
X104140Y181710D01*
Y184050D01*
X103534Y186311D01*
X102364Y188339D01*
X100709Y189994D01*
X100637Y190035D01*
Y191502D01*
X101979Y192276D01*
X103634Y193931D01*
X104804Y195959D01*
X105410Y198220D01*
Y200560D01*
X104804Y202821D01*
X103634Y204849D01*
X101979Y206504D01*
X100637Y207278D01*
Y208745D01*
X100709Y208786D01*
X102364Y210441D01*
X103534Y212469D01*
X104140Y214730D01*
Y217070D01*
X103534Y219331D01*
X102364Y221359D01*
X100709Y223014D01*
X98681Y224184D01*
X96420Y224790D01*
X94080D01*
X91819Y224184D01*
X90170Y223232D01*
X88900Y223780D01*
Y228600D01*
X107950D01*
X116840Y237490D01*
Y422910D01*
X107950Y431800D01*
X10160D01*
X6350Y435610D01*
Y748030D01*
X12700Y754380D01*
X685800D01*
Y622300D01*
D02*
G37*
G36*
X920750Y288290D02*
X1090549D01*
X1090766Y287914D01*
X1092200Y286480D01*
Y12700D01*
X1085850Y6350D01*
X692150D01*
Y101548D01*
X692182Y101561D01*
X693459Y102838D01*
X694150Y104507D01*
Y106313D01*
X693459Y107982D01*
X692182Y109259D01*
X692150Y109272D01*
Y114300D01*
X585470D01*
Y152400D01*
X541020D01*
X541020Y114300D01*
X473710D01*
Y323850D01*
X615950D01*
Y406400D01*
X648510D01*
X648996Y405227D01*
X648931Y405162D01*
X648240Y403493D01*
Y401687D01*
X648931Y400018D01*
X650208Y398741D01*
X651877Y398050D01*
X653683D01*
X655352Y398741D01*
X656629Y400018D01*
X657320Y401687D01*
Y403493D01*
X656629Y405162D01*
X656564Y405227D01*
X657050Y406400D01*
X866383D01*
X866639Y406229D01*
X869467Y405057D01*
X872469Y404460D01*
X875531D01*
X878533Y405057D01*
X881361Y406229D01*
X881617Y406400D01*
X920750D01*
Y288290D01*
D02*
G37*
G36*
X1093470Y749300D02*
Y414555D01*
X1092914Y414234D01*
X1090766Y412086D01*
X1089247Y409454D01*
X1088460Y406519D01*
Y403481D01*
X1089247Y400546D01*
X1090766Y397914D01*
X1092914Y395766D01*
X1093470Y395445D01*
Y304555D01*
X1092914Y304234D01*
X1090766Y302086D01*
X1089247Y299454D01*
X1088460Y296519D01*
Y294640D01*
X927100D01*
Y412750D01*
X888960D01*
X888255Y413806D01*
X888943Y415467D01*
X889540Y418469D01*
Y421531D01*
X888943Y424533D01*
X887771Y427361D01*
X886071Y429906D01*
X883906Y432071D01*
X881361Y433771D01*
X878533Y434943D01*
X875531Y435540D01*
X872469D01*
X869467Y434943D01*
X866639Y433771D01*
X864094Y432071D01*
X861929Y429906D01*
X860229Y427361D01*
X859057Y424533D01*
X858460Y421531D01*
Y418469D01*
X859057Y415467D01*
X859745Y413806D01*
X859040Y412750D01*
X655698D01*
X655400Y413811D01*
X655390Y414020D01*
X656629Y415258D01*
X657320Y416927D01*
Y418733D01*
X656629Y420402D01*
X655352Y421679D01*
X653683Y422370D01*
X651877D01*
X650208Y421679D01*
X648931Y420402D01*
X648240Y418733D01*
Y416927D01*
X648931Y415258D01*
X650170Y414020D01*
X650160Y413811D01*
X649862Y412750D01*
X609600D01*
Y330200D01*
X467360D01*
Y114300D01*
X406978D01*
X406439Y115602D01*
X405162Y116879D01*
X403722Y117475D01*
X403718Y117496D01*
Y118724D01*
X403722Y118745D01*
X405162Y119341D01*
X406310Y120489D01*
X407035Y120560D01*
X407760Y120489D01*
X408908Y119341D01*
X410577Y118650D01*
X412383D01*
X414052Y119341D01*
X415329Y120618D01*
X416020Y122287D01*
Y124093D01*
X415329Y125762D01*
X414052Y127039D01*
X412383Y127730D01*
X410577D01*
X408908Y127039D01*
X407760Y125891D01*
X407035Y125820D01*
X406310Y125891D01*
X405291Y126910D01*
X405220Y127635D01*
X405291Y128360D01*
X406439Y129508D01*
X407130Y131177D01*
Y132983D01*
X406439Y134652D01*
X405291Y135800D01*
X405220Y136525D01*
X405291Y137250D01*
X406439Y138398D01*
X407130Y140067D01*
Y141873D01*
X406439Y143542D01*
X405162Y144819D01*
X403493Y145510D01*
X401687D01*
X400018Y144819D01*
X398741Y143542D01*
X398050Y141873D01*
Y140067D01*
X398741Y138398D01*
X399889Y137250D01*
X399960Y136525D01*
X399889Y135800D01*
X398741Y134652D01*
X398050Y132983D01*
Y131177D01*
X398741Y129508D01*
X399889Y128360D01*
X399960Y127635D01*
X399889Y126910D01*
X398870Y125891D01*
X398145Y125820D01*
X397420Y125891D01*
X396272Y127039D01*
X394603Y127730D01*
X392797D01*
X391128Y127039D01*
X389980Y125891D01*
X389255Y125820D01*
X388530Y125891D01*
X387382Y127039D01*
X385713Y127730D01*
X383907D01*
X382238Y127039D01*
X381000Y125801D01*
X379762Y127039D01*
X378093Y127730D01*
X376287D01*
X374618Y127039D01*
X373380Y125801D01*
X372142Y127039D01*
X370473Y127730D01*
X368667D01*
X366998Y127039D01*
X365721Y125762D01*
X365030Y124093D01*
Y122287D01*
X365721Y120618D01*
X366998Y119341D01*
X368667Y118650D01*
X370473D01*
X372142Y119341D01*
X373380Y120580D01*
X374618Y119341D01*
X376287Y118650D01*
X378093D01*
X379762Y119341D01*
X381000Y120580D01*
X382238Y119341D01*
X383907Y118650D01*
X385713D01*
X387382Y119341D01*
X388530Y120489D01*
X389255Y120560D01*
X389980Y120489D01*
X391128Y119341D01*
X392797Y118650D01*
X394603D01*
X396272Y119341D01*
X397420Y120489D01*
X398145Y120560D01*
X398870Y120489D01*
X400018Y119341D01*
X401458Y118745D01*
X401462Y118724D01*
Y117496D01*
X401458Y117475D01*
X400018Y116879D01*
X398741Y115602D01*
X398202Y114300D01*
X293370D01*
Y146050D01*
X175260D01*
X168910Y152400D01*
X168910Y193040D01*
X185420Y209550D01*
Y615950D01*
X692150D01*
Y754380D01*
X1088390D01*
X1093470Y749300D01*
D02*
G37*
%LPC*%
G36*
X466388Y740540D02*
X463612D01*
X460932Y739822D01*
X458528Y738434D01*
X456566Y736472D01*
X455178Y734068D01*
X454460Y731388D01*
Y728612D01*
X455178Y725932D01*
X456566Y723528D01*
X458528Y721566D01*
X460932Y720178D01*
X463612Y719460D01*
X466388D01*
X469068Y720178D01*
X471472Y721566D01*
X473434Y723528D01*
X474822Y725932D01*
X475540Y728612D01*
Y731388D01*
X474822Y734068D01*
X473434Y736472D01*
X471472Y738434D01*
X469068Y739822D01*
X466388Y740540D01*
D02*
G37*
G36*
X351388D02*
X348612D01*
X345932Y739822D01*
X343528Y738434D01*
X341566Y736472D01*
X340178Y734068D01*
X339460Y731388D01*
Y728612D01*
X340178Y725932D01*
X341566Y723528D01*
X343528Y721566D01*
X345932Y720178D01*
X348612Y719460D01*
X351388D01*
X354068Y720178D01*
X356472Y721566D01*
X358434Y723528D01*
X359822Y725932D01*
X360540Y728612D01*
Y731388D01*
X359822Y734068D01*
X358434Y736472D01*
X356472Y738434D01*
X354068Y739822D01*
X351388Y740540D01*
D02*
G37*
G36*
X415750Y740631D02*
X414250D01*
X411498Y740269D01*
X408935Y739207D01*
X406733Y737517D01*
X405043Y735315D01*
X403981Y732751D01*
X403619Y730000D01*
X403981Y727249D01*
X405043Y724685D01*
X406733Y722483D01*
X408935Y720793D01*
X411498Y719731D01*
X414250Y719369D01*
X415750D01*
X418502Y719731D01*
X421065Y720793D01*
X423267Y722483D01*
X424957Y724685D01*
X426019Y727249D01*
X426381Y730000D01*
X426019Y732751D01*
X424957Y735315D01*
X423267Y737517D01*
X421065Y739207D01*
X418502Y740269D01*
X415750Y740631D01*
D02*
G37*
G36*
X300750D02*
X299250D01*
X296499Y740269D01*
X293934Y739207D01*
X291733Y737517D01*
X290043Y735315D01*
X288981Y732751D01*
X288619Y730000D01*
X288981Y727249D01*
X290043Y724685D01*
X291733Y722483D01*
X293934Y720793D01*
X296499Y719731D01*
X299250Y719369D01*
X300750D01*
X303501Y719731D01*
X306066Y720793D01*
X308267Y722483D01*
X309957Y724685D01*
X311019Y727249D01*
X311381Y730000D01*
X311019Y732751D01*
X309957Y735315D01*
X308267Y737517D01*
X306066Y739207D01*
X303501Y740269D01*
X300750Y740631D01*
D02*
G37*
G36*
X673953Y740840D02*
X671047D01*
X668239Y740088D01*
X665721Y738634D01*
X663666Y736579D01*
X662212Y734061D01*
X661460Y731253D01*
Y728346D01*
X662212Y725539D01*
X663666Y723021D01*
X665721Y720966D01*
X668239Y719512D01*
X671047Y718760D01*
X673953D01*
X676761Y719512D01*
X679279Y720966D01*
X681334Y723021D01*
X682788Y725539D01*
X683540Y728346D01*
Y731253D01*
X682788Y734061D01*
X681334Y736579D01*
X679279Y738634D01*
X676761Y740088D01*
X673953Y740840D01*
D02*
G37*
G36*
X648953D02*
X646047D01*
X643239Y740088D01*
X640721Y738634D01*
X638666Y736579D01*
X637212Y734061D01*
X636460Y731253D01*
Y728346D01*
X637212Y725539D01*
X638666Y723021D01*
X640721Y720966D01*
X643239Y719512D01*
X646047Y718760D01*
X648953D01*
X651761Y719512D01*
X654279Y720966D01*
X656334Y723021D01*
X657788Y725539D01*
X658540Y728346D01*
Y731253D01*
X657788Y734061D01*
X656334Y736579D01*
X654279Y738634D01*
X651761Y740088D01*
X648953Y740840D01*
D02*
G37*
G36*
X573953D02*
X571046D01*
X568239Y740088D01*
X565721Y738634D01*
X563666Y736579D01*
X562212Y734061D01*
X561460Y731253D01*
Y728346D01*
X562212Y725539D01*
X563666Y723021D01*
X565721Y720966D01*
X568239Y719512D01*
X571046Y718760D01*
X573953D01*
X576761Y719512D01*
X579279Y720966D01*
X581334Y723021D01*
X582788Y725539D01*
X583540Y728346D01*
Y731253D01*
X582788Y734061D01*
X581334Y736579D01*
X579279Y738634D01*
X576761Y740088D01*
X573953Y740840D01*
D02*
G37*
G36*
X548953D02*
X546046D01*
X543239Y740088D01*
X540721Y738634D01*
X538666Y736579D01*
X537212Y734061D01*
X536460Y731253D01*
Y728346D01*
X537212Y725539D01*
X538666Y723021D01*
X540721Y720966D01*
X543239Y719512D01*
X546046Y718760D01*
X548953D01*
X551761Y719512D01*
X554279Y720966D01*
X556334Y723021D01*
X557788Y725539D01*
X558540Y728346D01*
Y731253D01*
X557788Y734061D01*
X556334Y736579D01*
X554279Y738634D01*
X551761Y740088D01*
X548953Y740840D01*
D02*
G37*
G36*
X261335Y720140D02*
X258665D01*
X256086Y719449D01*
X253774Y718114D01*
X251886Y716226D01*
X250551Y713914D01*
X249860Y711335D01*
Y708665D01*
X250551Y706086D01*
X251886Y703774D01*
X253774Y701886D01*
X256086Y700551D01*
X258665Y699860D01*
X261335D01*
X263914Y700551D01*
X266226Y701886D01*
X268114Y703774D01*
X269449Y706086D01*
X270140Y708665D01*
Y711335D01*
X269449Y713914D01*
X268114Y716226D01*
X266226Y718114D01*
X263914Y719449D01*
X261335Y720140D01*
D02*
G37*
G36*
X231335D02*
X228665D01*
X226086Y719449D01*
X223774Y718114D01*
X221886Y716226D01*
X220551Y713914D01*
X219860Y711335D01*
Y708665D01*
X220551Y706086D01*
X221886Y703774D01*
X223774Y701886D01*
X226086Y700551D01*
X228665Y699860D01*
X231335D01*
X233914Y700551D01*
X236226Y701886D01*
X238114Y703774D01*
X239449Y706086D01*
X240140Y708665D01*
Y711335D01*
X239449Y713914D01*
X238114Y716226D01*
X236226Y718114D01*
X233914Y719449D01*
X231335Y720140D01*
D02*
G37*
G36*
X188528Y712540D02*
X185072D01*
X181684Y711866D01*
X178492Y710544D01*
X175619Y708624D01*
X173176Y706181D01*
X171256Y703308D01*
X169934Y700116D01*
X169260Y696728D01*
Y693272D01*
X169934Y689884D01*
X171256Y686692D01*
X173176Y683819D01*
X175619Y681376D01*
X178492Y679456D01*
X181684Y678134D01*
X185072Y677460D01*
X188528D01*
X191916Y678134D01*
X195108Y679456D01*
X197981Y681376D01*
X200424Y683819D01*
X202344Y686692D01*
X203666Y689884D01*
X204340Y693272D01*
Y696728D01*
X203666Y700116D01*
X202344Y703308D01*
X200424Y706181D01*
X197981Y708624D01*
X195108Y710544D01*
X191916Y711866D01*
X188528Y712540D01*
D02*
G37*
G36*
X261335Y690140D02*
X258665D01*
X256086Y689449D01*
X253774Y688114D01*
X251886Y686226D01*
X250551Y683914D01*
X249860Y681335D01*
Y678665D01*
X250551Y676086D01*
X251886Y673774D01*
X253774Y671886D01*
X256086Y670551D01*
X258665Y669860D01*
X261335D01*
X263914Y670551D01*
X266226Y671886D01*
X268114Y673774D01*
X269449Y676086D01*
X270140Y678665D01*
Y681335D01*
X269449Y683914D01*
X268114Y686226D01*
X266226Y688114D01*
X263914Y689449D01*
X261335Y690140D01*
D02*
G37*
G36*
X240140D02*
X219860D01*
Y669860D01*
X240140D01*
Y690140D01*
D02*
G37*
G36*
X572358Y672000D02*
X570657D01*
X567096Y671046D01*
X563904Y669203D01*
X561297Y666596D01*
X559454Y663404D01*
X559359Y663048D01*
X558002Y662890D01*
X556734Y665086D01*
X554586Y667234D01*
X551954Y668754D01*
X549019Y669540D01*
X545981D01*
X543046Y668754D01*
X540414Y667234D01*
X538266Y665086D01*
X536746Y662454D01*
X535960Y659519D01*
Y656481D01*
X536746Y653546D01*
X538266Y650914D01*
X540414Y648766D01*
X543046Y647246D01*
X545981Y646460D01*
X549019D01*
X551954Y647246D01*
X554586Y648766D01*
X556734Y650914D01*
X558002Y653110D01*
X559359Y652952D01*
X559454Y652596D01*
X561297Y649404D01*
X563904Y646797D01*
X567096Y644954D01*
X570657Y644000D01*
X572358D01*
X565429Y650929D01*
X572500Y658000D01*
X565429Y665071D01*
X572358Y672000D01*
D02*
G37*
G36*
X466388Y668740D02*
X463612D01*
X460932Y668022D01*
X458528Y666634D01*
X456566Y664672D01*
X455178Y662268D01*
X454460Y659588D01*
Y656812D01*
X455178Y654132D01*
X456566Y651728D01*
X458528Y649766D01*
X460932Y648378D01*
X463612Y647660D01*
X466388D01*
X469068Y648378D01*
X471472Y649766D01*
X473434Y651728D01*
X474822Y654132D01*
X475540Y656812D01*
Y659588D01*
X474822Y662268D01*
X473434Y664672D01*
X471472Y666634D01*
X469068Y668022D01*
X466388Y668740D01*
D02*
G37*
G36*
X441388D02*
X438612D01*
X435932Y668022D01*
X433528Y666634D01*
X431566Y664672D01*
X430178Y662268D01*
X429460Y659588D01*
Y656812D01*
X430178Y654132D01*
X431566Y651728D01*
X433528Y649766D01*
X435932Y648378D01*
X438612Y647660D01*
X441388D01*
X444068Y648378D01*
X446472Y649766D01*
X448434Y651728D01*
X449822Y654132D01*
X450540Y656812D01*
Y659588D01*
X449822Y662268D01*
X448434Y664672D01*
X446472Y666634D01*
X444068Y668022D01*
X441388Y668740D01*
D02*
G37*
G36*
X416388D02*
X413612D01*
X410932Y668022D01*
X408528Y666634D01*
X406566Y664672D01*
X405178Y662268D01*
X404460Y659588D01*
Y656812D01*
X405178Y654132D01*
X406566Y651728D01*
X408528Y649766D01*
X410932Y648378D01*
X413612Y647660D01*
X416388D01*
X419068Y648378D01*
X421472Y649766D01*
X423434Y651728D01*
X424822Y654132D01*
X425540Y656812D01*
Y659588D01*
X424822Y662268D01*
X423434Y664672D01*
X421472Y666634D01*
X419068Y668022D01*
X416388Y668740D01*
D02*
G37*
G36*
X351388D02*
X348612D01*
X345932Y668022D01*
X343528Y666634D01*
X341566Y664672D01*
X340178Y662268D01*
X339460Y659588D01*
Y656812D01*
X340178Y654132D01*
X341566Y651728D01*
X343528Y649766D01*
X345932Y648378D01*
X348612Y647660D01*
X351388D01*
X354068Y648378D01*
X356472Y649766D01*
X358434Y651728D01*
X359822Y654132D01*
X360540Y656812D01*
Y659588D01*
X359822Y662268D01*
X358434Y664672D01*
X356472Y666634D01*
X354068Y668022D01*
X351388Y668740D01*
D02*
G37*
G36*
X326388D02*
X323612D01*
X320932Y668022D01*
X318528Y666634D01*
X316566Y664672D01*
X315178Y662268D01*
X314460Y659588D01*
Y656812D01*
X315178Y654132D01*
X316566Y651728D01*
X318528Y649766D01*
X320932Y648378D01*
X323612Y647660D01*
X326388D01*
X329068Y648378D01*
X331472Y649766D01*
X333434Y651728D01*
X334822Y654132D01*
X335540Y656812D01*
Y659588D01*
X334822Y662268D01*
X333434Y664672D01*
X331472Y666634D01*
X329068Y668022D01*
X326388Y668740D01*
D02*
G37*
G36*
X301388D02*
X298612D01*
X295932Y668022D01*
X293528Y666634D01*
X291566Y664672D01*
X290178Y662268D01*
X289460Y659588D01*
Y656812D01*
X290178Y654132D01*
X291566Y651728D01*
X293528Y649766D01*
X295932Y648378D01*
X298612Y647660D01*
X301388D01*
X304068Y648378D01*
X306472Y649766D01*
X308434Y651728D01*
X309822Y654132D01*
X310540Y656812D01*
Y659588D01*
X309822Y662268D01*
X308434Y664672D01*
X306472Y666634D01*
X304068Y668022D01*
X301388Y668740D01*
D02*
G37*
G36*
X674019Y669540D02*
X670981D01*
X668046Y668754D01*
X665414Y667234D01*
X663266Y665086D01*
X661747Y662454D01*
X660960Y659519D01*
Y656481D01*
X661747Y653546D01*
X663266Y650914D01*
X665414Y648766D01*
X668046Y647246D01*
X670981Y646460D01*
X674019D01*
X676954Y647246D01*
X679586Y648766D01*
X681734Y650914D01*
X683253Y653546D01*
X684040Y656481D01*
Y659519D01*
X683253Y662454D01*
X681734Y665086D01*
X679586Y667234D01*
X676954Y668754D01*
X674019Y669540D01*
D02*
G37*
G36*
X649019D02*
X645981D01*
X643046Y668754D01*
X640414Y667234D01*
X638266Y665086D01*
X636746Y662454D01*
X635960Y659519D01*
Y656481D01*
X636746Y653546D01*
X638266Y650914D01*
X640414Y648766D01*
X643046Y647246D01*
X645981Y646460D01*
X649019D01*
X651954Y647246D01*
X654586Y648766D01*
X656734Y650914D01*
X658253Y653546D01*
X659040Y656481D01*
Y659519D01*
X658253Y662454D01*
X656734Y665086D01*
X654586Y667234D01*
X651954Y668754D01*
X649019Y669540D01*
D02*
G37*
G36*
X548540Y643890D02*
X546200D01*
X543939Y643284D01*
X541911Y642114D01*
X540256Y640459D01*
X539086Y638431D01*
X538480Y636170D01*
Y633830D01*
X539086Y631569D01*
X540256Y629541D01*
X541911Y627886D01*
X543939Y626716D01*
X546200Y626110D01*
X548540D01*
X550801Y626716D01*
X552829Y627886D01*
X554484Y629541D01*
X555654Y631569D01*
X556260Y633830D01*
Y636170D01*
X555654Y638431D01*
X554484Y640459D01*
X552829Y642114D01*
X550801Y643284D01*
X548540Y643890D01*
D02*
G37*
G36*
X567323Y137890D02*
X565517D01*
X563848Y137199D01*
X562571Y135922D01*
X561880Y134253D01*
Y132447D01*
X562571Y130778D01*
X563848Y129501D01*
X565517Y128810D01*
X567323D01*
X568992Y129501D01*
X570269Y130778D01*
X570960Y132447D01*
Y134253D01*
X570269Y135922D01*
X568992Y137199D01*
X567323Y137890D01*
D02*
G37*
G36*
X198462Y105000D02*
X193538D01*
X188708Y104039D01*
X186866Y103276D01*
X196000Y94142D01*
X205134Y103276D01*
X203292Y104039D01*
X198462Y105000D01*
D02*
G37*
G36*
X614313Y89630D02*
X612507D01*
X610838Y88939D01*
X609561Y87662D01*
X608870Y85993D01*
Y84187D01*
X609561Y82518D01*
X610838Y81241D01*
X612507Y80550D01*
X614313D01*
X615982Y81241D01*
X617259Y82518D01*
X617950Y84187D01*
Y85993D01*
X617259Y87662D01*
X615982Y88939D01*
X614313Y89630D01*
D02*
G37*
G36*
X538113D02*
X536307D01*
X534638Y88939D01*
X533361Y87662D01*
X532670Y85993D01*
Y84187D01*
X533361Y82518D01*
X534638Y81241D01*
X536307Y80550D01*
X538113D01*
X539782Y81241D01*
X541059Y82518D01*
X541750Y84187D01*
Y85993D01*
X541059Y87662D01*
X539782Y88939D01*
X538113Y89630D01*
D02*
G37*
G36*
X510173D02*
X508367D01*
X506698Y88939D01*
X505421Y87662D01*
X504730Y85993D01*
Y84187D01*
X505421Y82518D01*
X506698Y81241D01*
X508367Y80550D01*
X510173D01*
X511842Y81241D01*
X513119Y82518D01*
X513810Y84187D01*
Y85993D01*
X513119Y87662D01*
X511842Y88939D01*
X510173Y89630D01*
D02*
G37*
G36*
X219276Y89134D02*
X210142Y80000D01*
X219276Y70866D01*
X220039Y72708D01*
X221000Y77538D01*
Y82462D01*
X220039Y87292D01*
X219276Y89134D01*
D02*
G37*
G36*
X172724Y89134D02*
X171961Y87292D01*
X171000Y82462D01*
Y77538D01*
X171961Y72708D01*
X172724Y70866D01*
X181858Y80000D01*
X172724Y89134D01*
D02*
G37*
G36*
X126220Y102540D02*
X121780D01*
X117425Y101674D01*
X113323Y99975D01*
X109632Y97508D01*
X106492Y94368D01*
X104025Y90677D01*
X102326Y86575D01*
X101460Y82220D01*
Y77780D01*
X102326Y73425D01*
X104025Y69323D01*
X106492Y65632D01*
X109632Y62492D01*
X113323Y60025D01*
X117425Y58326D01*
X121780Y57460D01*
X126220D01*
X130575Y58326D01*
X134677Y60025D01*
X138368Y62492D01*
X141508Y65632D01*
X143975Y69323D01*
X145674Y73425D01*
X146540Y77780D01*
Y82220D01*
X145674Y86575D01*
X143975Y90677D01*
X141508Y94368D01*
X138368Y97508D01*
X134677Y99975D01*
X130575Y101674D01*
X126220Y102540D01*
D02*
G37*
G36*
X196000Y65858D02*
X186866Y56724D01*
X188708Y55961D01*
X193538Y55000D01*
X198462D01*
X203292Y55961D01*
X205134Y56724D01*
X196000Y65858D01*
D02*
G37*
G36*
X463183Y59150D02*
X461377D01*
X459708Y58459D01*
X458431Y57182D01*
X457740Y55513D01*
Y53707D01*
X458431Y52038D01*
X459708Y50761D01*
X461377Y50070D01*
X463183D01*
X464852Y50761D01*
X466129Y52038D01*
X466820Y53707D01*
Y55513D01*
X466129Y57182D01*
X464852Y58459D01*
X463183Y59150D01*
D02*
G37*
G36*
X399683D02*
X397877D01*
X396208Y58459D01*
X394931Y57182D01*
X394240Y55513D01*
Y53707D01*
X394931Y52038D01*
X396208Y50761D01*
X397877Y50070D01*
X399683D01*
X401352Y50761D01*
X402629Y52038D01*
X403320Y53707D01*
Y55513D01*
X402629Y57182D01*
X401352Y58459D01*
X399683Y59150D01*
D02*
G37*
G36*
X544903Y35540D02*
X543097D01*
X541428Y34849D01*
X540151Y33572D01*
X539460Y31903D01*
Y30097D01*
X540151Y28428D01*
X541428Y27151D01*
X543097Y26460D01*
X544903D01*
X546572Y27151D01*
X547849Y28428D01*
X548540Y30097D01*
Y31903D01*
X547849Y33572D01*
X546572Y34849D01*
X544903Y35540D01*
D02*
G37*
G36*
X653683Y391890D02*
X651877D01*
X650208Y391199D01*
X648931Y389922D01*
X648240Y388253D01*
Y386447D01*
X648931Y384778D01*
X650208Y383501D01*
X651877Y382810D01*
X653683D01*
X655352Y383501D01*
X656629Y384778D01*
X657320Y386447D01*
Y388253D01*
X656629Y389922D01*
X655352Y391199D01*
X653683Y391890D01*
D02*
G37*
G36*
X684684Y377190D02*
X682344D01*
X680083Y376584D01*
X678055Y375414D01*
X676400Y373759D01*
X675230Y371731D01*
X674624Y369470D01*
Y367130D01*
X675230Y364869D01*
X676400Y362841D01*
X678055Y361186D01*
X680083Y360016D01*
X682344Y359410D01*
X684684D01*
X686945Y360016D01*
X688973Y361186D01*
X690628Y362841D01*
X691798Y364869D01*
X692404Y367130D01*
Y369470D01*
X691798Y371731D01*
X690628Y373759D01*
X688973Y375414D01*
X686945Y376584D01*
X684684Y377190D01*
D02*
G37*
G36*
X857974Y309040D02*
X854026D01*
X850155Y308270D01*
X846507Y306759D01*
X843225Y304566D01*
X840434Y301775D01*
X838241Y298493D01*
X836730Y294846D01*
X835960Y290974D01*
Y287026D01*
X836730Y283155D01*
X838241Y279508D01*
X840434Y276225D01*
X843225Y273434D01*
X846507Y271241D01*
X850155Y269730D01*
X854026Y268960D01*
X857974D01*
X861845Y269730D01*
X865492Y271241D01*
X868775Y273434D01*
X871566Y276225D01*
X873759Y279508D01*
X875270Y283155D01*
X876040Y287026D01*
Y290974D01*
X875270Y294846D01*
X873759Y298493D01*
X871566Y301775D01*
X868775Y304566D01*
X865492Y306759D01*
X861845Y308270D01*
X857974Y309040D01*
D02*
G37*
G36*
X957170Y286890D02*
X954830D01*
X952569Y286284D01*
X950541Y285114D01*
X948886Y283459D01*
X947716Y281431D01*
X947110Y279170D01*
Y276830D01*
X947716Y274569D01*
X948886Y272541D01*
X950541Y270886D01*
X951672Y270233D01*
Y268767D01*
X950541Y268114D01*
X948886Y266459D01*
X947716Y264431D01*
X947110Y262170D01*
Y259830D01*
X947716Y257569D01*
X948886Y255541D01*
X950541Y253886D01*
X952569Y252716D01*
X954830Y252110D01*
X957170D01*
X959431Y252716D01*
X961459Y253886D01*
X963114Y255541D01*
X964284Y257569D01*
X964890Y259830D01*
Y262170D01*
X964284Y264431D01*
X963114Y266459D01*
X961459Y268114D01*
X960328Y268767D01*
Y270233D01*
X961459Y270886D01*
X963114Y272541D01*
X964284Y274569D01*
X964890Y276830D01*
Y279170D01*
X964284Y281431D01*
X963114Y283459D01*
X961459Y285114D01*
X959431Y286284D01*
X957170Y286890D01*
D02*
G37*
G36*
X937170D02*
X934830D01*
X932569Y286284D01*
X930541Y285114D01*
X928886Y283459D01*
X927716Y281431D01*
X927110Y279170D01*
Y276830D01*
X927716Y274569D01*
X928886Y272541D01*
X930541Y270886D01*
X931672Y270233D01*
Y268767D01*
X930541Y268114D01*
X928886Y266459D01*
X927716Y264431D01*
X927110Y262170D01*
Y259830D01*
X927716Y257569D01*
X928886Y255541D01*
X930541Y253886D01*
X932569Y252716D01*
X934830Y252110D01*
X937170D01*
X939431Y252716D01*
X941459Y253886D01*
X943114Y255541D01*
X944284Y257569D01*
X944890Y259830D01*
Y262170D01*
X944284Y264431D01*
X943114Y266459D01*
X941459Y268114D01*
X940328Y268767D01*
Y270233D01*
X941459Y270886D01*
X943114Y272541D01*
X944284Y274569D01*
X944890Y276830D01*
Y279170D01*
X944284Y281431D01*
X943114Y283459D01*
X941459Y285114D01*
X939431Y286284D01*
X937170Y286890D01*
D02*
G37*
G36*
X917170D02*
X914830D01*
X912569Y286284D01*
X910541Y285114D01*
X908886Y283459D01*
X907716Y281431D01*
X907110Y279170D01*
Y276830D01*
X907716Y274569D01*
X908886Y272541D01*
X910541Y270886D01*
X911672Y270233D01*
Y268767D01*
X910541Y268114D01*
X908886Y266459D01*
X907716Y264431D01*
X907110Y262170D01*
Y259830D01*
X907716Y257569D01*
X908886Y255541D01*
X910541Y253886D01*
X912569Y252716D01*
X914830Y252110D01*
X917170D01*
X919431Y252716D01*
X921459Y253886D01*
X923114Y255541D01*
X924284Y257569D01*
X924890Y259830D01*
Y262170D01*
X924284Y264431D01*
X923114Y266459D01*
X921459Y268114D01*
X920328Y268767D01*
Y270233D01*
X921459Y270886D01*
X923114Y272541D01*
X924284Y274569D01*
X924890Y276830D01*
Y279170D01*
X924284Y281431D01*
X923114Y283459D01*
X921459Y285114D01*
X919431Y286284D01*
X917170Y286890D01*
D02*
G37*
G36*
X995313Y258540D02*
X993507D01*
X991838Y257849D01*
X990561Y256572D01*
X989870Y254903D01*
Y253097D01*
X990561Y251428D01*
X991838Y250151D01*
X993507Y249460D01*
X995313D01*
X996982Y250151D01*
X998259Y251428D01*
X998950Y253097D01*
Y254903D01*
X998259Y256572D01*
X996982Y257849D01*
X995313Y258540D01*
D02*
G37*
G36*
X534570Y243840D02*
X532230D01*
X529969Y243234D01*
X527941Y242064D01*
X526286Y240409D01*
X525186Y238503D01*
X524510Y238400D01*
X523834Y238503D01*
X522734Y240409D01*
X521079Y242064D01*
X519051Y243234D01*
X516790Y243840D01*
X514450D01*
X512189Y243234D01*
X510161Y242064D01*
X508506Y240409D01*
X507406Y238503D01*
X506730Y238400D01*
X506054Y238503D01*
X504954Y240409D01*
X503299Y242064D01*
X501271Y243234D01*
X499010Y243840D01*
X496670D01*
X494409Y243234D01*
X492381Y242064D01*
X490726Y240409D01*
X489556Y238381D01*
X488950Y236120D01*
Y233780D01*
X489556Y231519D01*
X490726Y229491D01*
X492381Y227836D01*
X493258Y227330D01*
Y226060D01*
X492381Y225554D01*
X490726Y223899D01*
X489556Y221871D01*
X488950Y219610D01*
Y217270D01*
X489556Y215009D01*
X490726Y212981D01*
X492381Y211326D01*
X494409Y210156D01*
X496670Y209550D01*
X499010D01*
X501271Y210156D01*
X503299Y211326D01*
X504954Y212981D01*
X506054Y214887D01*
X506730Y214990D01*
X507406Y214887D01*
X508506Y212981D01*
X510161Y211326D01*
X512189Y210156D01*
X514450Y209550D01*
X516790D01*
X519051Y210156D01*
X521079Y211326D01*
X522734Y212981D01*
X523834Y214887D01*
X524510Y214990D01*
X525186Y214887D01*
X526286Y212981D01*
X527941Y211326D01*
X529969Y210156D01*
X532230Y209550D01*
X534570D01*
X536831Y210156D01*
X538859Y211326D01*
X540514Y212981D01*
X541684Y215009D01*
X542290Y217270D01*
Y219610D01*
X541684Y221871D01*
X540514Y223899D01*
X538859Y225554D01*
X537982Y226060D01*
Y227330D01*
X538859Y227836D01*
X540514Y229491D01*
X541684Y231519D01*
X542290Y233780D01*
Y236120D01*
X541684Y238381D01*
X540514Y240409D01*
X538859Y242064D01*
X536831Y243234D01*
X534570Y243840D01*
D02*
G37*
G36*
X1035040Y235040D02*
X1014960D01*
Y214960D01*
X1035040D01*
Y235040D01*
D02*
G37*
G36*
X1005040D02*
X984960D01*
Y214960D01*
X1005040D01*
Y235040D01*
D02*
G37*
G36*
X975040D02*
X954960D01*
Y214960D01*
X975040D01*
Y235040D01*
D02*
G37*
G36*
X835293Y206470D02*
X833487D01*
X831818Y205779D01*
X830670Y204631D01*
X829945Y204560D01*
X829220Y204631D01*
X828072Y205779D01*
X826403Y206470D01*
X824597D01*
X822928Y205779D01*
X821651Y204502D01*
X820960Y202833D01*
Y201027D01*
X821651Y199358D01*
X822889Y198120D01*
X821651Y196882D01*
X820960Y195213D01*
Y193407D01*
X821651Y191738D01*
X822928Y190461D01*
X824597Y189770D01*
X826403D01*
X828072Y190461D01*
X829220Y191609D01*
X829945Y191680D01*
X830670Y191609D01*
X831818Y190461D01*
X833487Y189770D01*
X835293D01*
X836962Y190461D01*
X838239Y191738D01*
X838930Y193407D01*
Y195213D01*
X838239Y196882D01*
X837001Y198120D01*
X838239Y199358D01*
X838930Y201027D01*
Y202833D01*
X838239Y204502D01*
X836962Y205779D01*
X835293Y206470D01*
D02*
G37*
G36*
X707290Y205740D02*
X704950D01*
X702689Y205134D01*
X700661Y203964D01*
X699006Y202309D01*
X698500Y201432D01*
X697230D01*
X696724Y202309D01*
X695069Y203964D01*
X693041Y205134D01*
X690780Y205740D01*
X688440D01*
X686179Y205134D01*
X684151Y203964D01*
X682496Y202309D01*
X681326Y200281D01*
X680720Y198020D01*
Y195680D01*
X681326Y193419D01*
X682496Y191391D01*
X684151Y189736D01*
X686179Y188566D01*
X688440Y187960D01*
X690780D01*
X693041Y188566D01*
X695069Y189736D01*
X696724Y191391D01*
X697230Y192268D01*
X698500D01*
X699006Y191391D01*
X700661Y189736D01*
X702689Y188566D01*
X704950Y187960D01*
X707290D01*
X709551Y188566D01*
X711579Y189736D01*
X713234Y191391D01*
X714404Y193419D01*
X715010Y195680D01*
Y198020D01*
X714404Y200281D01*
X713234Y202309D01*
X711579Y203964D01*
X709551Y205134D01*
X707290Y205740D01*
D02*
G37*
G36*
X1026322Y209640D02*
X1023678D01*
X1021125Y208956D01*
X1018835Y207634D01*
X1016966Y205765D01*
X1015644Y203475D01*
X1014960Y200922D01*
Y198278D01*
X1015644Y195725D01*
X1016966Y193435D01*
X1018835Y191566D01*
X1021125Y190244D01*
X1023678Y189560D01*
X1026322D01*
X1028875Y190244D01*
X1031165Y191566D01*
X1033034Y193435D01*
X1034356Y195725D01*
X1035040Y198278D01*
Y200922D01*
X1034356Y203475D01*
X1033034Y205765D01*
X1031165Y207634D01*
X1028875Y208956D01*
X1026322Y209640D01*
D02*
G37*
G36*
X996322D02*
X993678D01*
X991125Y208956D01*
X988835Y207634D01*
X986966Y205765D01*
X985644Y203475D01*
X984960Y200922D01*
Y198278D01*
X985644Y195725D01*
X986966Y193435D01*
X988835Y191566D01*
X991125Y190244D01*
X993678Y189560D01*
X996322D01*
X998875Y190244D01*
X1001165Y191566D01*
X1003034Y193435D01*
X1004356Y195725D01*
X1005040Y198278D01*
Y200922D01*
X1004356Y203475D01*
X1003034Y205765D01*
X1001165Y207634D01*
X998875Y208956D01*
X996322Y209640D01*
D02*
G37*
G36*
X966322D02*
X963678D01*
X961125Y208956D01*
X958835Y207634D01*
X956966Y205765D01*
X955644Y203475D01*
X954960Y200922D01*
Y198278D01*
X955644Y195725D01*
X956966Y193435D01*
X958835Y191566D01*
X961125Y190244D01*
X963678Y189560D01*
X966322D01*
X968875Y190244D01*
X971165Y191566D01*
X973034Y193435D01*
X974356Y195725D01*
X975040Y198278D01*
Y200922D01*
X974356Y203475D01*
X973034Y205765D01*
X971165Y207634D01*
X968875Y208956D01*
X966322Y209640D01*
D02*
G37*
G36*
X714761Y182890D02*
X712420D01*
X710159Y182284D01*
X708131Y181114D01*
X706476Y179459D01*
X705306Y177431D01*
X704700Y175170D01*
Y172830D01*
X705306Y170569D01*
X706476Y168541D01*
X708131Y166886D01*
X710159Y165716D01*
X712420Y165110D01*
X714761D01*
X717021Y165716D01*
X719049Y166886D01*
X720704Y168541D01*
X721874Y170569D01*
X722480Y172830D01*
Y175170D01*
X721874Y177431D01*
X720704Y179459D01*
X719049Y181114D01*
X717021Y182284D01*
X714761Y182890D01*
D02*
G37*
G36*
X692760D02*
X690420D01*
X688159Y182284D01*
X686132Y181114D01*
X684476Y179459D01*
X683306Y177431D01*
X682700Y175170D01*
Y172830D01*
X683306Y170569D01*
X684476Y168541D01*
X686132Y166886D01*
X688159Y165716D01*
X690420Y165110D01*
X692760D01*
X695022Y165716D01*
X697049Y166886D01*
X698704Y168541D01*
X699874Y170569D01*
X700480Y172830D01*
Y175170D01*
X699874Y177431D01*
X698704Y179459D01*
X697049Y181114D01*
X695022Y182284D01*
X692760Y182890D01*
D02*
G37*
G36*
X671760D02*
X669420D01*
X667159Y182284D01*
X665132Y181114D01*
X663476Y179459D01*
X662306Y177431D01*
X661700Y175170D01*
Y172830D01*
X662306Y170569D01*
X663476Y168541D01*
X665132Y166886D01*
X667159Y165716D01*
X669420Y165110D01*
X671760D01*
X674022Y165716D01*
X676049Y166886D01*
X677704Y168541D01*
X678874Y170569D01*
X679480Y172830D01*
Y175170D01*
X678874Y177431D01*
X677704Y179459D01*
X676049Y181114D01*
X674022Y182284D01*
X671760Y182890D01*
D02*
G37*
G36*
X642520Y182880D02*
X640180D01*
X637919Y182274D01*
X635891Y181104D01*
X634236Y179449D01*
X633066Y177421D01*
X632460Y175160D01*
Y172820D01*
X633066Y170559D01*
X634236Y168531D01*
X635891Y166876D01*
X637919Y165706D01*
X640180Y165100D01*
X642520D01*
X644781Y165706D01*
X646809Y166876D01*
X648464Y168531D01*
X649634Y170559D01*
X650240Y172820D01*
Y175160D01*
X649634Y177421D01*
X648464Y179449D01*
X646809Y181104D01*
X644781Y182274D01*
X642520Y182880D01*
D02*
G37*
G36*
X620930D02*
X618590D01*
X616329Y182274D01*
X614301Y181104D01*
X612646Y179449D01*
X611476Y177421D01*
X610870Y175160D01*
Y172820D01*
X611476Y170559D01*
X612646Y168531D01*
X614301Y166876D01*
X616329Y165706D01*
X618590Y165100D01*
X620930D01*
X623191Y165706D01*
X625219Y166876D01*
X626874Y168531D01*
X628044Y170559D01*
X628650Y172820D01*
Y175160D01*
X628044Y177421D01*
X626874Y179449D01*
X625219Y181104D01*
X623191Y182274D01*
X620930Y182880D01*
D02*
G37*
G36*
X600610D02*
X598270D01*
X596009Y182274D01*
X593981Y181104D01*
X592326Y179449D01*
X591156Y177421D01*
X590550Y175160D01*
Y172820D01*
X591156Y170559D01*
X592326Y168531D01*
X593981Y166876D01*
X596009Y165706D01*
X598270Y165100D01*
X600610D01*
X602871Y165706D01*
X604899Y166876D01*
X606554Y168531D01*
X607724Y170559D01*
X608330Y172820D01*
Y175160D01*
X607724Y177421D01*
X606554Y179449D01*
X604899Y181104D01*
X602871Y182274D01*
X600610Y182880D01*
D02*
G37*
G36*
X986388Y175540D02*
X983612D01*
X980932Y174822D01*
X978528Y173434D01*
X976566Y171472D01*
X975178Y169068D01*
X974460Y166388D01*
Y163612D01*
X975178Y160932D01*
X976566Y158528D01*
X978528Y156566D01*
X980932Y155178D01*
X983612Y154460D01*
X986388D01*
X989068Y155178D01*
X991472Y156566D01*
X993434Y158528D01*
X994822Y160932D01*
X995540Y163612D01*
Y166388D01*
X994822Y169068D01*
X993434Y171472D01*
X991472Y173434D01*
X989068Y174822D01*
X986388Y175540D01*
D02*
G37*
G36*
X936388D02*
X933612D01*
X930932Y174822D01*
X928528Y173434D01*
X926566Y171472D01*
X925178Y169068D01*
X924460Y166388D01*
Y163612D01*
X925178Y160932D01*
X926566Y158528D01*
X928528Y156566D01*
X930932Y155178D01*
X933612Y154460D01*
X936388D01*
X939068Y155178D01*
X941472Y156566D01*
X943434Y158528D01*
X944822Y160932D01*
X945540Y163612D01*
Y166388D01*
X944822Y169068D01*
X943434Y171472D01*
X941472Y173434D01*
X939068Y174822D01*
X936388Y175540D01*
D02*
G37*
G36*
X714910Y135890D02*
X712570D01*
X710309Y135284D01*
X708281Y134114D01*
X706626Y132459D01*
X705456Y130431D01*
X704850Y128170D01*
Y125830D01*
X705456Y123569D01*
X706626Y121541D01*
X708281Y119886D01*
X710309Y118716D01*
X712570Y118110D01*
X714910D01*
X717171Y118716D01*
X719199Y119886D01*
X720854Y121541D01*
X722024Y123569D01*
X722630Y125830D01*
Y128170D01*
X722024Y130431D01*
X720854Y132459D01*
X719199Y134114D01*
X717171Y135284D01*
X714910Y135890D01*
D02*
G37*
G36*
X693320D02*
X690980D01*
X688719Y135284D01*
X686691Y134114D01*
X685036Y132459D01*
X683866Y130431D01*
X683260Y128170D01*
Y125830D01*
X683866Y123569D01*
X685036Y121541D01*
X686691Y119886D01*
X688719Y118716D01*
X690980Y118110D01*
X693320D01*
X695581Y118716D01*
X697609Y119886D01*
X699264Y121541D01*
X700434Y123569D01*
X701040Y125830D01*
Y128170D01*
X700434Y130431D01*
X699264Y132459D01*
X697609Y134114D01*
X695581Y135284D01*
X693320Y135890D01*
D02*
G37*
G36*
X671730D02*
X669390D01*
X667129Y135284D01*
X665101Y134114D01*
X663446Y132459D01*
X662276Y130431D01*
X661670Y128170D01*
Y125830D01*
X662276Y123569D01*
X663446Y121541D01*
X665101Y119886D01*
X667129Y118716D01*
X669390Y118110D01*
X671730D01*
X673991Y118716D01*
X676019Y119886D01*
X677674Y121541D01*
X678844Y123569D01*
X679450Y125830D01*
Y128170D01*
X678844Y130431D01*
X677674Y132459D01*
X676019Y134114D01*
X673991Y135284D01*
X671730Y135890D01*
D02*
G37*
G36*
X642520D02*
X640180D01*
X637919Y135284D01*
X635891Y134114D01*
X634236Y132459D01*
X633066Y130431D01*
X632460Y128170D01*
Y125830D01*
X633066Y123569D01*
X634236Y121541D01*
X635891Y119886D01*
X637919Y118716D01*
X640180Y118110D01*
X642520D01*
X644781Y118716D01*
X646809Y119886D01*
X648464Y121541D01*
X649634Y123569D01*
X650240Y125830D01*
Y128170D01*
X649634Y130431D01*
X648464Y132459D01*
X646809Y134114D01*
X644781Y135284D01*
X642520Y135890D01*
D02*
G37*
G36*
X620930D02*
X618590D01*
X616329Y135284D01*
X614301Y134114D01*
X612646Y132459D01*
X611476Y130431D01*
X610870Y128170D01*
Y125830D01*
X611476Y123569D01*
X612646Y121541D01*
X614301Y119886D01*
X616329Y118716D01*
X618590Y118110D01*
X620930D01*
X623191Y118716D01*
X625219Y119886D01*
X626874Y121541D01*
X628044Y123569D01*
X628650Y125830D01*
Y128170D01*
X628044Y130431D01*
X626874Y132459D01*
X625219Y134114D01*
X623191Y135284D01*
X620930Y135890D01*
D02*
G37*
G36*
X600610D02*
X598270D01*
X596009Y135284D01*
X593981Y134114D01*
X592326Y132459D01*
X591156Y130431D01*
X590550Y128170D01*
Y125830D01*
X591156Y123569D01*
X592326Y121541D01*
X593981Y119886D01*
X596009Y118716D01*
X598270Y118110D01*
X600610D01*
X602871Y118716D01*
X604899Y119886D01*
X606554Y121541D01*
X607724Y123569D01*
X608330Y125830D01*
Y128170D01*
X607724Y130431D01*
X606554Y132459D01*
X604899Y134114D01*
X602871Y135284D01*
X600610Y135890D01*
D02*
G37*
G36*
X960840Y139540D02*
X938760D01*
Y117460D01*
X960840D01*
Y139540D01*
D02*
G37*
G36*
X926253D02*
X923347D01*
X920539Y138788D01*
X918021Y137334D01*
X915966Y135279D01*
X914512Y132761D01*
X913760Y129953D01*
Y127047D01*
X914512Y124239D01*
X915966Y121721D01*
X918021Y119666D01*
X920539Y118212D01*
X923347Y117460D01*
X926253D01*
X929061Y118212D01*
X931579Y119666D01*
X933634Y121721D01*
X935088Y124239D01*
X935840Y127047D01*
Y129953D01*
X935088Y132761D01*
X933634Y135279D01*
X931579Y137334D01*
X929061Y138788D01*
X926253Y139540D01*
D02*
G37*
G36*
X721093Y114930D02*
X719287D01*
X717618Y114239D01*
X716341Y112962D01*
X715650Y111293D01*
Y109487D01*
X716341Y107818D01*
X717618Y106541D01*
X719287Y105850D01*
X721093D01*
X722762Y106541D01*
X724039Y107818D01*
X724730Y109487D01*
Y111293D01*
X724039Y112962D01*
X722762Y114239D01*
X721093Y114930D01*
D02*
G37*
G36*
X705853D02*
X704047D01*
X702378Y114239D01*
X701101Y112962D01*
X700410Y111293D01*
Y109487D01*
X701101Y107818D01*
X702378Y106541D01*
X704047Y105850D01*
X705853D01*
X707522Y106541D01*
X708799Y107818D01*
X709490Y109487D01*
Y111293D01*
X708799Y112962D01*
X707522Y114239D01*
X705853Y114930D01*
D02*
G37*
G36*
X951253Y114540D02*
X948347D01*
X945539Y113788D01*
X943021Y112334D01*
X940966Y110279D01*
X939512Y107761D01*
X938760Y104953D01*
Y102047D01*
X939512Y99239D01*
X940966Y96721D01*
X943021Y94666D01*
X945539Y93212D01*
X948347Y92460D01*
X951253D01*
X954061Y93212D01*
X956579Y94666D01*
X958634Y96721D01*
X960088Y99239D01*
X960840Y102047D01*
Y104953D01*
X960088Y107761D01*
X958634Y110279D01*
X956579Y112334D01*
X954061Y113788D01*
X951253Y114540D01*
D02*
G37*
G36*
X926253D02*
X923347D01*
X920539Y113788D01*
X918021Y112334D01*
X915966Y110279D01*
X914512Y107761D01*
X913760Y104953D01*
Y102047D01*
X914512Y99239D01*
X915966Y96721D01*
X918021Y94666D01*
X920539Y93212D01*
X923347Y92460D01*
X926253D01*
X929061Y93212D01*
X931579Y94666D01*
X933634Y96721D01*
X935088Y99239D01*
X935840Y102047D01*
Y104953D01*
X935088Y107761D01*
X933634Y110279D01*
X931579Y112334D01*
X929061Y113788D01*
X926253Y114540D01*
D02*
G37*
G36*
X857409Y61070D02*
X854371D01*
X851436Y60283D01*
X848804Y58764D01*
X846656Y56616D01*
X845136Y53984D01*
X844350Y51049D01*
Y48011D01*
X845136Y45076D01*
X846656Y42444D01*
X848804Y40296D01*
X851436Y38777D01*
X854371Y37990D01*
X857409D01*
X860344Y38777D01*
X862976Y40296D01*
X865124Y42444D01*
X866644Y45076D01*
X867430Y48011D01*
Y51049D01*
X866644Y53984D01*
X865124Y56616D01*
X862976Y58764D01*
X860344Y60283D01*
X857409Y61070D01*
D02*
G37*
G36*
X782409D02*
X779371D01*
X776436Y60283D01*
X773804Y58764D01*
X771656Y56616D01*
X770136Y53984D01*
X769350Y51049D01*
Y48011D01*
X770136Y45076D01*
X771656Y42444D01*
X773804Y40296D01*
X776436Y38777D01*
X779371Y37990D01*
X782409D01*
X785344Y38777D01*
X787976Y40296D01*
X790124Y42444D01*
X791644Y45076D01*
X792430Y48011D01*
Y51049D01*
X791644Y53984D01*
X790124Y56616D01*
X787976Y58764D01*
X785344Y60283D01*
X782409Y61070D01*
D02*
G37*
G36*
X951188Y42240D02*
X948412D01*
X945732Y41522D01*
X943328Y40134D01*
X941366Y38172D01*
X939978Y35768D01*
X939260Y33088D01*
Y30312D01*
X939978Y27632D01*
X941366Y25228D01*
X943328Y23266D01*
X945732Y21878D01*
X948412Y21160D01*
X951188D01*
X953868Y21878D01*
X956272Y23266D01*
X958234Y25228D01*
X959622Y27632D01*
X960340Y30312D01*
Y33088D01*
X959622Y35768D01*
X958234Y38172D01*
X956272Y40134D01*
X953868Y41522D01*
X951188Y42240D01*
D02*
G37*
G36*
X926188D02*
X923412D01*
X920732Y41522D01*
X918328Y40134D01*
X916366Y38172D01*
X914978Y35768D01*
X914260Y33088D01*
Y30312D01*
X914978Y27632D01*
X916366Y25228D01*
X918328Y23266D01*
X920732Y21878D01*
X923412Y21160D01*
X926188D01*
X928868Y21878D01*
X931272Y23266D01*
X933234Y25228D01*
X934622Y27632D01*
X935340Y30312D01*
Y33088D01*
X934622Y35768D01*
X933234Y38172D01*
X931272Y40134D01*
X928868Y41522D01*
X926188Y42240D01*
D02*
G37*
G36*
X1061417Y65540D02*
X1056583D01*
X1051842Y64597D01*
X1047376Y62747D01*
X1043357Y60061D01*
X1039939Y56643D01*
X1037253Y52624D01*
X1035403Y48158D01*
X1034460Y43417D01*
Y38583D01*
X1035403Y33842D01*
X1037253Y29376D01*
X1039939Y25357D01*
X1043357Y21939D01*
X1047376Y19253D01*
X1051842Y17403D01*
X1056583Y16460D01*
X1061417D01*
X1066158Y17403D01*
X1070624Y19253D01*
X1074643Y21939D01*
X1078061Y25357D01*
X1080747Y29376D01*
X1082597Y33842D01*
X1083540Y38583D01*
Y43417D01*
X1082597Y48158D01*
X1080747Y52624D01*
X1078061Y56643D01*
X1074643Y60061D01*
X1070624Y62747D01*
X1066158Y64597D01*
X1061417Y65540D01*
D02*
G37*
G36*
X913953Y740840D02*
X911047D01*
X908239Y740088D01*
X905721Y738634D01*
X903666Y736579D01*
X902212Y734061D01*
X901460Y731253D01*
Y728346D01*
X902212Y725539D01*
X903666Y723021D01*
X905721Y720966D01*
X908239Y719512D01*
X911047Y718760D01*
X913953D01*
X916761Y719512D01*
X919279Y720966D01*
X921334Y723021D01*
X922788Y725539D01*
X923540Y728346D01*
Y731253D01*
X922788Y734061D01*
X921334Y736579D01*
X919279Y738634D01*
X916761Y740088D01*
X913953Y740840D01*
D02*
G37*
G36*
X888953D02*
X886047D01*
X883239Y740088D01*
X880721Y738634D01*
X878666Y736579D01*
X877212Y734061D01*
X876460Y731253D01*
Y728346D01*
X877212Y725539D01*
X878666Y723021D01*
X880721Y720966D01*
X883239Y719512D01*
X886047Y718760D01*
X888953D01*
X891761Y719512D01*
X894279Y720966D01*
X896334Y723021D01*
X897788Y725539D01*
X898540Y728346D01*
Y731253D01*
X897788Y734061D01*
X896334Y736579D01*
X894279Y738634D01*
X891761Y740088D01*
X888953Y740840D01*
D02*
G37*
G36*
X833953D02*
X831047D01*
X828239Y740088D01*
X825721Y738634D01*
X823666Y736579D01*
X822212Y734061D01*
X821460Y731253D01*
Y728346D01*
X822212Y725539D01*
X823666Y723021D01*
X825721Y720966D01*
X828239Y719512D01*
X831047Y718760D01*
X833953D01*
X836761Y719512D01*
X839279Y720966D01*
X841334Y723021D01*
X842788Y725539D01*
X843540Y728346D01*
Y731253D01*
X842788Y734061D01*
X841334Y736579D01*
X839279Y738634D01*
X836761Y740088D01*
X833953Y740840D01*
D02*
G37*
G36*
X808953D02*
X806047D01*
X803239Y740088D01*
X800721Y738634D01*
X798666Y736579D01*
X797212Y734061D01*
X796460Y731253D01*
Y728346D01*
X797212Y725539D01*
X798666Y723021D01*
X800721Y720966D01*
X803239Y719512D01*
X806047Y718760D01*
X808953D01*
X811761Y719512D01*
X814279Y720966D01*
X816334Y723021D01*
X817788Y725539D01*
X818540Y728346D01*
Y731253D01*
X817788Y734061D01*
X816334Y736579D01*
X814279Y738634D01*
X811761Y740088D01*
X808953Y740840D01*
D02*
G37*
G36*
X753953D02*
X751047D01*
X748239Y740088D01*
X745721Y738634D01*
X743666Y736579D01*
X742212Y734061D01*
X741460Y731253D01*
Y728346D01*
X742212Y725539D01*
X743666Y723021D01*
X745721Y720966D01*
X748239Y719512D01*
X751047Y718760D01*
X753953D01*
X756761Y719512D01*
X759279Y720966D01*
X761334Y723021D01*
X762788Y725539D01*
X763540Y728346D01*
Y731253D01*
X762788Y734061D01*
X761334Y736579D01*
X759279Y738634D01*
X756761Y740088D01*
X753953Y740840D01*
D02*
G37*
G36*
X728953D02*
X726047D01*
X723239Y740088D01*
X720721Y738634D01*
X718666Y736579D01*
X717212Y734061D01*
X716460Y731253D01*
Y728346D01*
X717212Y725539D01*
X718666Y723021D01*
X720721Y720966D01*
X723239Y719512D01*
X726047Y718760D01*
X728953D01*
X731761Y719512D01*
X734279Y720966D01*
X736334Y723021D01*
X737788Y725539D01*
X738540Y728346D01*
Y731253D01*
X737788Y734061D01*
X736334Y736579D01*
X734279Y738634D01*
X731761Y740088D01*
X728953Y740840D01*
D02*
G37*
G36*
X1061417Y743540D02*
X1056583D01*
X1051842Y742597D01*
X1047376Y740747D01*
X1043357Y738062D01*
X1039939Y734643D01*
X1037253Y730624D01*
X1035403Y726158D01*
X1034460Y721417D01*
Y716583D01*
X1035403Y711842D01*
X1037253Y707376D01*
X1039939Y703357D01*
X1043357Y699939D01*
X1047376Y697253D01*
X1051842Y695403D01*
X1056583Y694460D01*
X1061417D01*
X1066158Y695403D01*
X1070624Y697253D01*
X1074643Y699939D01*
X1078061Y703357D01*
X1080747Y707376D01*
X1082597Y711842D01*
X1083540Y716583D01*
Y721417D01*
X1082597Y726158D01*
X1080747Y730624D01*
X1078061Y734643D01*
X1074643Y738062D01*
X1070624Y740747D01*
X1066158Y742597D01*
X1061417Y743540D01*
D02*
G37*
G36*
X914019Y669540D02*
X910981D01*
X908046Y668754D01*
X905414Y667234D01*
X903266Y665086D01*
X901747Y662454D01*
X900960Y659519D01*
Y656481D01*
X901747Y653546D01*
X903266Y650914D01*
X905414Y648766D01*
X908046Y647246D01*
X910981Y646460D01*
X914019D01*
X916954Y647246D01*
X919586Y648766D01*
X921734Y650914D01*
X923254Y653546D01*
X924040Y656481D01*
Y659519D01*
X923254Y662454D01*
X921734Y665086D01*
X919586Y667234D01*
X916954Y668754D01*
X914019Y669540D01*
D02*
G37*
G36*
X889019D02*
X885981D01*
X883046Y668754D01*
X880414Y667234D01*
X878266Y665086D01*
X876747Y662454D01*
X875960Y659519D01*
Y656481D01*
X876747Y653546D01*
X878266Y650914D01*
X880414Y648766D01*
X883046Y647246D01*
X885981Y646460D01*
X889019D01*
X891954Y647246D01*
X894586Y648766D01*
X896734Y650914D01*
X898254Y653546D01*
X899040Y656481D01*
Y659519D01*
X898254Y662454D01*
X896734Y665086D01*
X894586Y667234D01*
X891954Y668754D01*
X889019Y669540D01*
D02*
G37*
G36*
X834019D02*
X830981D01*
X828046Y668754D01*
X825414Y667234D01*
X823266Y665086D01*
X821747Y662454D01*
X820960Y659519D01*
Y656481D01*
X821747Y653546D01*
X823266Y650914D01*
X825414Y648766D01*
X828046Y647246D01*
X830981Y646460D01*
X834019D01*
X836954Y647246D01*
X839586Y648766D01*
X841734Y650914D01*
X843254Y653546D01*
X844040Y656481D01*
Y659519D01*
X843254Y662454D01*
X841734Y665086D01*
X839586Y667234D01*
X836954Y668754D01*
X834019Y669540D01*
D02*
G37*
G36*
X809019D02*
X805981D01*
X803046Y668754D01*
X800414Y667234D01*
X798266Y665086D01*
X796747Y662454D01*
X795960Y659519D01*
Y656481D01*
X796747Y653546D01*
X798266Y650914D01*
X800414Y648766D01*
X803046Y647246D01*
X805981Y646460D01*
X809019D01*
X811954Y647246D01*
X814586Y648766D01*
X816734Y650914D01*
X818254Y653546D01*
X819040Y656481D01*
Y659519D01*
X818254Y662454D01*
X816734Y665086D01*
X814586Y667234D01*
X811954Y668754D01*
X809019Y669540D01*
D02*
G37*
G36*
X754019D02*
X750981D01*
X748046Y668754D01*
X745414Y667234D01*
X743266Y665086D01*
X741746Y662454D01*
X740960Y659519D01*
Y656481D01*
X741746Y653546D01*
X743266Y650914D01*
X745414Y648766D01*
X748046Y647246D01*
X750981Y646460D01*
X754019D01*
X756954Y647246D01*
X759586Y648766D01*
X761734Y650914D01*
X763253Y653546D01*
X764040Y656481D01*
Y659519D01*
X763253Y662454D01*
X761734Y665086D01*
X759586Y667234D01*
X756954Y668754D01*
X754019Y669540D01*
D02*
G37*
G36*
X729019D02*
X725981D01*
X723046Y668754D01*
X720414Y667234D01*
X718266Y665086D01*
X716746Y662454D01*
X715960Y659519D01*
Y656481D01*
X716746Y653546D01*
X718266Y650914D01*
X720414Y648766D01*
X723046Y647246D01*
X725981Y646460D01*
X729019D01*
X731954Y647246D01*
X734586Y648766D01*
X736734Y650914D01*
X738253Y653546D01*
X739040Y656481D01*
Y659519D01*
X738253Y662454D01*
X736734Y665086D01*
X734586Y667234D01*
X731954Y668754D01*
X729019Y669540D01*
D02*
G37*
G36*
X591720Y601980D02*
X589380D01*
X587119Y601374D01*
X585091Y600204D01*
X583436Y598549D01*
X582266Y596521D01*
X581660Y594260D01*
Y591920D01*
X582266Y589659D01*
X583436Y587631D01*
X585091Y585976D01*
X587119Y584806D01*
X589380Y584200D01*
X591720D01*
X593981Y584806D01*
X596009Y585976D01*
X597664Y587631D01*
X598834Y589659D01*
X599440Y591920D01*
Y594260D01*
X598834Y596521D01*
X597664Y598549D01*
X596009Y600204D01*
X593981Y601374D01*
X591720Y601980D01*
D02*
G37*
G36*
X261253Y590010D02*
X259447D01*
X257778Y589319D01*
X256501Y588042D01*
X255810Y586373D01*
Y584567D01*
X256501Y582898D01*
X257778Y581621D01*
X259447Y580930D01*
X261253D01*
X262922Y581621D01*
X264199Y582898D01*
X264890Y584567D01*
Y586373D01*
X264199Y588042D01*
X262922Y589319D01*
X261253Y590010D01*
D02*
G37*
G36*
X715920Y567740D02*
X713580D01*
X711319Y567134D01*
X709291Y565964D01*
X707636Y564309D01*
X706466Y562281D01*
X705860Y560020D01*
Y557680D01*
X706466Y555419D01*
X707636Y553391D01*
X709291Y551736D01*
X711319Y550566D01*
X713580Y549960D01*
X715920D01*
X718181Y550566D01*
X720209Y551736D01*
X721864Y553391D01*
X723034Y555419D01*
X723640Y557680D01*
Y560020D01*
X723034Y562281D01*
X721864Y564309D01*
X720209Y565964D01*
X718181Y567134D01*
X715920Y567740D01*
D02*
G37*
G36*
X695920D02*
X693580D01*
X691319Y567134D01*
X689291Y565964D01*
X687636Y564309D01*
X686466Y562281D01*
X685860Y560020D01*
Y557680D01*
X686466Y555419D01*
X687636Y553391D01*
X689291Y551736D01*
X691319Y550566D01*
X693580Y549960D01*
X695920D01*
X698181Y550566D01*
X700209Y551736D01*
X701864Y553391D01*
X703034Y555419D01*
X703640Y557680D01*
Y560020D01*
X703034Y562281D01*
X701864Y564309D01*
X700209Y565964D01*
X698181Y567134D01*
X695920Y567740D01*
D02*
G37*
G36*
X676550D02*
X674210D01*
X671949Y567134D01*
X669921Y565964D01*
X668266Y564309D01*
X667096Y562281D01*
X666490Y560020D01*
Y557680D01*
X667096Y555419D01*
X668266Y553391D01*
X669921Y551736D01*
X671949Y550566D01*
X674210Y549960D01*
X676550D01*
X678811Y550566D01*
X680839Y551736D01*
X682494Y553391D01*
X683664Y555419D01*
X684270Y557680D01*
Y560020D01*
X683664Y562281D01*
X682494Y564309D01*
X680839Y565964D01*
X678811Y567134D01*
X676550Y567740D01*
D02*
G37*
G36*
X656550D02*
X654210D01*
X651949Y567134D01*
X649921Y565964D01*
X648266Y564309D01*
X647096Y562281D01*
X646490Y560020D01*
Y557680D01*
X647096Y555419D01*
X648266Y553391D01*
X649921Y551736D01*
X651949Y550566D01*
X654210Y549960D01*
X656550D01*
X658811Y550566D01*
X660839Y551736D01*
X662494Y553391D01*
X663664Y555419D01*
X664270Y557680D01*
Y560020D01*
X663664Y562281D01*
X662494Y564309D01*
X660839Y565964D01*
X658811Y567134D01*
X656550Y567740D01*
D02*
G37*
G36*
X636550D02*
X634210D01*
X631949Y567134D01*
X629921Y565964D01*
X628266Y564309D01*
X627096Y562281D01*
X626490Y560020D01*
Y557680D01*
X627096Y555419D01*
X628266Y553391D01*
X629921Y551736D01*
X631949Y550566D01*
X634210Y549960D01*
X636550D01*
X638811Y550566D01*
X640839Y551736D01*
X642494Y553391D01*
X643664Y555419D01*
X644270Y557680D01*
Y560020D01*
X643664Y562281D01*
X642494Y564309D01*
X640839Y565964D01*
X638811Y567134D01*
X636550Y567740D01*
D02*
G37*
G36*
X616860D02*
X614520D01*
X612259Y567134D01*
X610231Y565964D01*
X608576Y564309D01*
X607406Y562281D01*
X606800Y560020D01*
Y557680D01*
X607406Y555419D01*
X608576Y553391D01*
X610231Y551736D01*
X612259Y550566D01*
X614520Y549960D01*
X616860D01*
X619121Y550566D01*
X621149Y551736D01*
X622804Y553391D01*
X623974Y555419D01*
X624580Y557680D01*
Y560020D01*
X623974Y562281D01*
X622804Y564309D01*
X621149Y565964D01*
X619121Y567134D01*
X616860Y567740D01*
D02*
G37*
G36*
X596860D02*
X594520D01*
X592259Y567134D01*
X590231Y565964D01*
X588576Y564309D01*
X587406Y562281D01*
X586800Y560020D01*
Y557680D01*
X587406Y555419D01*
X588576Y553391D01*
X590231Y551736D01*
X592259Y550566D01*
X594520Y549960D01*
X596860D01*
X599121Y550566D01*
X601149Y551736D01*
X602804Y553391D01*
X603974Y555419D01*
X604580Y557680D01*
Y560020D01*
X603974Y562281D01*
X602804Y564309D01*
X601149Y565964D01*
X599121Y567134D01*
X596860Y567740D01*
D02*
G37*
G36*
X516790Y584200D02*
X514450D01*
X512189Y583594D01*
X510161Y582424D01*
X508506Y580769D01*
X507336Y578741D01*
X506730Y576480D01*
Y574140D01*
X507336Y571879D01*
X508506Y569851D01*
X510161Y568196D01*
X511038Y567690D01*
Y566420D01*
X510161Y565914D01*
X508506Y564259D01*
X507336Y562231D01*
X506730Y559970D01*
Y557630D01*
X507336Y555369D01*
X508506Y553341D01*
X510161Y551686D01*
X512189Y550516D01*
X514450Y549910D01*
X516790D01*
X519051Y550516D01*
X521079Y551686D01*
X522734Y553341D01*
X523904Y555369D01*
X524510Y557630D01*
Y559970D01*
X523904Y562231D01*
X522734Y564259D01*
X521079Y565914D01*
X520202Y566420D01*
Y567690D01*
X521079Y568196D01*
X522734Y569851D01*
X523904Y571879D01*
X524510Y574140D01*
Y576480D01*
X523904Y578741D01*
X522734Y580769D01*
X521079Y582424D01*
X519051Y583594D01*
X516790Y584200D01*
D02*
G37*
G36*
X497740D02*
X495400D01*
X493139Y583594D01*
X491111Y582424D01*
X489456Y580769D01*
X488286Y578741D01*
X487680Y576480D01*
Y574140D01*
X488286Y571879D01*
X489456Y569851D01*
X491111Y568196D01*
X491988Y567690D01*
Y566420D01*
X491111Y565914D01*
X489456Y564259D01*
X488286Y562231D01*
X487680Y559970D01*
Y557630D01*
X488286Y555369D01*
X489456Y553341D01*
X491111Y551686D01*
X493139Y550516D01*
X495400Y549910D01*
X497740D01*
X500001Y550516D01*
X502029Y551686D01*
X503684Y553341D01*
X504854Y555369D01*
X505460Y557630D01*
Y559970D01*
X504854Y562231D01*
X503684Y564259D01*
X502029Y565914D01*
X501152Y566420D01*
Y567690D01*
X502029Y568196D01*
X503684Y569851D01*
X504854Y571879D01*
X505460Y574140D01*
Y576480D01*
X504854Y578741D01*
X503684Y580769D01*
X502029Y582424D01*
X500001Y583594D01*
X497740Y584200D01*
D02*
G37*
G36*
X478690D02*
X476350D01*
X474089Y583594D01*
X472061Y582424D01*
X470406Y580769D01*
X469236Y578741D01*
X468630Y576480D01*
Y574140D01*
X469236Y571879D01*
X470406Y569851D01*
X472061Y568196D01*
X472938Y567690D01*
Y566420D01*
X472061Y565914D01*
X470406Y564259D01*
X469236Y562231D01*
X468630Y559970D01*
Y557630D01*
X469236Y555369D01*
X470406Y553341D01*
X472061Y551686D01*
X474089Y550516D01*
X476350Y549910D01*
X478690D01*
X480951Y550516D01*
X482979Y551686D01*
X484634Y553341D01*
X485804Y555369D01*
X486410Y557630D01*
Y559970D01*
X485804Y562231D01*
X484634Y564259D01*
X482979Y565914D01*
X482102Y566420D01*
Y567690D01*
X482979Y568196D01*
X484634Y569851D01*
X485804Y571879D01*
X486410Y574140D01*
Y576480D01*
X485804Y578741D01*
X484634Y580769D01*
X482979Y582424D01*
X480951Y583594D01*
X478690Y584200D01*
D02*
G37*
G36*
X199588Y560540D02*
X196812D01*
X194132Y559822D01*
X191728Y558434D01*
X189766Y556471D01*
X188378Y554068D01*
X187660Y551387D01*
Y548612D01*
X188378Y545932D01*
X189766Y543528D01*
X191728Y541566D01*
X194132Y540178D01*
X196812Y539460D01*
X199588D01*
X202268Y540178D01*
X204672Y541566D01*
X206634Y543528D01*
X208022Y545932D01*
X208740Y548612D01*
Y551387D01*
X208022Y554068D01*
X206634Y556471D01*
X204672Y558434D01*
X202268Y559822D01*
X199588Y560540D01*
D02*
G37*
G36*
X296453Y561040D02*
X293547D01*
X290739Y560288D01*
X288221Y558834D01*
X286166Y556779D01*
X284712Y554261D01*
X283960Y551453D01*
Y548547D01*
X284712Y545739D01*
X286166Y543221D01*
X288221Y541166D01*
X290739Y539712D01*
X293547Y538960D01*
X296453D01*
X299261Y539712D01*
X301779Y541166D01*
X303834Y543221D01*
X305288Y545739D01*
X306040Y548547D01*
Y551453D01*
X305288Y554261D01*
X303834Y556779D01*
X301779Y558834D01*
X299261Y560288D01*
X296453Y561040D01*
D02*
G37*
G36*
X271453D02*
X268547D01*
X265739Y560288D01*
X263221Y558834D01*
X261166Y556779D01*
X259712Y554261D01*
X258960Y551453D01*
Y548547D01*
X259712Y545739D01*
X261166Y543221D01*
X263221Y541166D01*
X265739Y539712D01*
X268547Y538960D01*
X271453D01*
X274261Y539712D01*
X276779Y541166D01*
X278834Y543221D01*
X280288Y545739D01*
X281040Y548547D01*
Y551453D01*
X280288Y554261D01*
X278834Y556779D01*
X276779Y558834D01*
X274261Y560288D01*
X271453Y561040D01*
D02*
G37*
G36*
X715920Y548200D02*
X713580D01*
X711319Y547594D01*
X709291Y546424D01*
X707636Y544769D01*
X706466Y542741D01*
X705860Y540480D01*
Y538140D01*
X706466Y535879D01*
X707636Y533851D01*
X709291Y532196D01*
X711319Y531026D01*
X713580Y530420D01*
X715920D01*
X718181Y531026D01*
X720209Y532196D01*
X721864Y533851D01*
X723034Y535879D01*
X723640Y538140D01*
Y540480D01*
X723034Y542741D01*
X721864Y544769D01*
X720209Y546424D01*
X718181Y547594D01*
X715920Y548200D01*
D02*
G37*
G36*
X695920D02*
X693580D01*
X691319Y547594D01*
X689291Y546424D01*
X687636Y544769D01*
X686466Y542741D01*
X685860Y540480D01*
Y538140D01*
X686466Y535879D01*
X687636Y533851D01*
X689291Y532196D01*
X691319Y531026D01*
X693580Y530420D01*
X695920D01*
X698181Y531026D01*
X700209Y532196D01*
X701864Y533851D01*
X703034Y535879D01*
X703640Y538140D01*
Y540480D01*
X703034Y542741D01*
X701864Y544769D01*
X700209Y546424D01*
X698181Y547594D01*
X695920Y548200D01*
D02*
G37*
G36*
X676550D02*
X674210D01*
X671949Y547594D01*
X669921Y546424D01*
X668266Y544769D01*
X667096Y542741D01*
X666490Y540480D01*
Y538140D01*
X667096Y535879D01*
X668266Y533851D01*
X669921Y532196D01*
X671949Y531026D01*
X674210Y530420D01*
X676550D01*
X678811Y531026D01*
X680839Y532196D01*
X682494Y533851D01*
X683664Y535879D01*
X684270Y538140D01*
Y540480D01*
X683664Y542741D01*
X682494Y544769D01*
X680839Y546424D01*
X678811Y547594D01*
X676550Y548200D01*
D02*
G37*
G36*
X656550D02*
X654210D01*
X651949Y547594D01*
X649921Y546424D01*
X648266Y544769D01*
X647096Y542741D01*
X646490Y540480D01*
Y538140D01*
X647096Y535879D01*
X648266Y533851D01*
X649921Y532196D01*
X651949Y531026D01*
X654210Y530420D01*
X656550D01*
X658811Y531026D01*
X660839Y532196D01*
X662494Y533851D01*
X663664Y535879D01*
X664270Y538140D01*
Y540480D01*
X663664Y542741D01*
X662494Y544769D01*
X660839Y546424D01*
X658811Y547594D01*
X656550Y548200D01*
D02*
G37*
G36*
X636550D02*
X634210D01*
X631949Y547594D01*
X629921Y546424D01*
X628266Y544769D01*
X627096Y542741D01*
X626490Y540480D01*
Y538140D01*
X627096Y535879D01*
X628266Y533851D01*
X629921Y532196D01*
X631949Y531026D01*
X634210Y530420D01*
X636550D01*
X638811Y531026D01*
X640839Y532196D01*
X642494Y533851D01*
X643664Y535879D01*
X644270Y538140D01*
Y540480D01*
X643664Y542741D01*
X642494Y544769D01*
X640839Y546424D01*
X638811Y547594D01*
X636550Y548200D01*
D02*
G37*
G36*
X616860D02*
X614520D01*
X612259Y547594D01*
X610231Y546424D01*
X608576Y544769D01*
X607406Y542741D01*
X606800Y540480D01*
Y538140D01*
X607406Y535879D01*
X608576Y533851D01*
X610231Y532196D01*
X612259Y531026D01*
X614520Y530420D01*
X616860D01*
X619121Y531026D01*
X621149Y532196D01*
X622804Y533851D01*
X623974Y535879D01*
X624580Y538140D01*
Y540480D01*
X623974Y542741D01*
X622804Y544769D01*
X621149Y546424D01*
X619121Y547594D01*
X616860Y548200D01*
D02*
G37*
G36*
X596860D02*
X594520D01*
X592259Y547594D01*
X590231Y546424D01*
X588576Y544769D01*
X587406Y542741D01*
X586800Y540480D01*
Y538140D01*
X587406Y535879D01*
X588576Y533851D01*
X590231Y532196D01*
X592259Y531026D01*
X594520Y530420D01*
X596860D01*
X599121Y531026D01*
X601149Y532196D01*
X602804Y533851D01*
X603974Y535879D01*
X604580Y538140D01*
Y540480D01*
X603974Y542741D01*
X602804Y544769D01*
X601149Y546424D01*
X599121Y547594D01*
X596860Y548200D01*
D02*
G37*
G36*
X296453Y536040D02*
X293547D01*
X290739Y535288D01*
X288221Y533834D01*
X286166Y531779D01*
X284712Y529261D01*
X283960Y526453D01*
Y523547D01*
X284712Y520739D01*
X286166Y518221D01*
X288221Y516166D01*
X290739Y514712D01*
X293547Y513960D01*
X296453D01*
X299261Y514712D01*
X301779Y516166D01*
X303834Y518221D01*
X305288Y520739D01*
X306040Y523547D01*
Y526453D01*
X305288Y529261D01*
X303834Y531779D01*
X301779Y533834D01*
X299261Y535288D01*
X296453Y536040D01*
D02*
G37*
G36*
X271453D02*
X268547D01*
X265739Y535288D01*
X263221Y533834D01*
X261166Y531779D01*
X259712Y529261D01*
X258960Y526453D01*
Y523547D01*
X259712Y520739D01*
X261166Y518221D01*
X263221Y516166D01*
X265739Y514712D01*
X268547Y513960D01*
X271453D01*
X274261Y514712D01*
X276779Y516166D01*
X278834Y518221D01*
X280288Y520739D01*
X281040Y523547D01*
Y526453D01*
X280288Y529261D01*
X278834Y531779D01*
X276779Y533834D01*
X274261Y535288D01*
X271453Y536040D01*
D02*
G37*
G36*
X387111Y590539D02*
X380887D01*
X374740Y589566D01*
X368821Y587642D01*
X363276Y584817D01*
X358241Y581159D01*
X353840Y576758D01*
X350182Y571723D01*
X347356Y566177D01*
X345433Y560258D01*
X344459Y554111D01*
Y547887D01*
X345433Y541740D01*
X347356Y535821D01*
X350182Y530276D01*
X353840Y525241D01*
X358241Y520840D01*
X363276Y517182D01*
X367538Y515010D01*
X367233Y513740D01*
X364272D01*
X360884Y513066D01*
X357692Y511744D01*
X354819Y509824D01*
X352376Y507381D01*
X350456Y504508D01*
X349134Y501316D01*
X348460Y497928D01*
Y494473D01*
X349134Y491084D01*
X350456Y487892D01*
X352376Y485019D01*
X354819Y482576D01*
X357692Y480656D01*
X360884Y479334D01*
X364272Y478660D01*
X367728D01*
X371116Y479334D01*
X374308Y480656D01*
X377181Y482576D01*
X379624Y485019D01*
X381544Y487892D01*
X382866Y491084D01*
X383540Y494473D01*
Y497928D01*
X382866Y501316D01*
X381544Y504508D01*
X379624Y507381D01*
X377181Y509824D01*
X375345Y511051D01*
X375819Y512262D01*
X380887Y511459D01*
X387111D01*
X393258Y512433D01*
X399177Y514356D01*
X404723Y517182D01*
X409758Y520840D01*
X414159Y525241D01*
X417817Y530276D01*
X420642Y535821D01*
X422566Y541740D01*
X423539Y547887D01*
Y554111D01*
X422566Y560258D01*
X420642Y566177D01*
X417817Y571723D01*
X414159Y576758D01*
X409758Y581159D01*
X404723Y584817D01*
X399177Y587642D01*
X393258Y589566D01*
X387111Y590539D01*
D02*
G37*
G36*
X715920Y528370D02*
X713580D01*
X711319Y527764D01*
X709291Y526594D01*
X707636Y524939D01*
X706466Y522911D01*
X705860Y520650D01*
Y518310D01*
X706466Y516049D01*
X707636Y514021D01*
X709291Y512366D01*
X711319Y511196D01*
X713580Y510590D01*
X715920D01*
X718181Y511196D01*
X720209Y512366D01*
X721864Y514021D01*
X723034Y516049D01*
X723640Y518310D01*
Y520650D01*
X723034Y522911D01*
X721864Y524939D01*
X720209Y526594D01*
X718181Y527764D01*
X715920Y528370D01*
D02*
G37*
G36*
X695920D02*
X693580D01*
X691319Y527764D01*
X689291Y526594D01*
X687636Y524939D01*
X686466Y522911D01*
X685860Y520650D01*
Y518310D01*
X686466Y516049D01*
X687636Y514021D01*
X689291Y512366D01*
X691319Y511196D01*
X693580Y510590D01*
X695920D01*
X698181Y511196D01*
X700209Y512366D01*
X701864Y514021D01*
X703034Y516049D01*
X703640Y518310D01*
Y520650D01*
X703034Y522911D01*
X701864Y524939D01*
X700209Y526594D01*
X698181Y527764D01*
X695920Y528370D01*
D02*
G37*
G36*
X676550D02*
X674210D01*
X671949Y527764D01*
X669921Y526594D01*
X668266Y524939D01*
X667096Y522911D01*
X666490Y520650D01*
Y518310D01*
X667096Y516049D01*
X668266Y514021D01*
X669921Y512366D01*
X671949Y511196D01*
X674210Y510590D01*
X676550D01*
X678811Y511196D01*
X680839Y512366D01*
X682494Y514021D01*
X683664Y516049D01*
X684270Y518310D01*
Y520650D01*
X683664Y522911D01*
X682494Y524939D01*
X680839Y526594D01*
X678811Y527764D01*
X676550Y528370D01*
D02*
G37*
G36*
X656550D02*
X654210D01*
X651949Y527764D01*
X649921Y526594D01*
X648266Y524939D01*
X647096Y522911D01*
X646490Y520650D01*
Y518310D01*
X647096Y516049D01*
X648266Y514021D01*
X649921Y512366D01*
X651949Y511196D01*
X654210Y510590D01*
X656550D01*
X658811Y511196D01*
X660839Y512366D01*
X662494Y514021D01*
X663664Y516049D01*
X664270Y518310D01*
Y520650D01*
X663664Y522911D01*
X662494Y524939D01*
X660839Y526594D01*
X658811Y527764D01*
X656550Y528370D01*
D02*
G37*
G36*
X636550D02*
X634210D01*
X631949Y527764D01*
X629921Y526594D01*
X628266Y524939D01*
X627096Y522911D01*
X626490Y520650D01*
Y518310D01*
X627096Y516049D01*
X628266Y514021D01*
X629921Y512366D01*
X631949Y511196D01*
X634210Y510590D01*
X636550D01*
X638811Y511196D01*
X640839Y512366D01*
X642494Y514021D01*
X643664Y516049D01*
X644270Y518310D01*
Y520650D01*
X643664Y522911D01*
X642494Y524939D01*
X640839Y526594D01*
X638811Y527764D01*
X636550Y528370D01*
D02*
G37*
G36*
X616860D02*
X614520D01*
X612259Y527764D01*
X610231Y526594D01*
X608576Y524939D01*
X607406Y522911D01*
X606800Y520650D01*
Y518310D01*
X607406Y516049D01*
X608576Y514021D01*
X610231Y512366D01*
X612259Y511196D01*
X614520Y510590D01*
X616860D01*
X619121Y511196D01*
X621149Y512366D01*
X622804Y514021D01*
X623974Y516049D01*
X624580Y518310D01*
Y520650D01*
X623974Y522911D01*
X622804Y524939D01*
X621149Y526594D01*
X619121Y527764D01*
X616860Y528370D01*
D02*
G37*
G36*
X596860D02*
X594520D01*
X592259Y527764D01*
X590231Y526594D01*
X588576Y524939D01*
X587406Y522911D01*
X586800Y520650D01*
Y518310D01*
X587406Y516049D01*
X588576Y514021D01*
X590231Y512366D01*
X592259Y511196D01*
X594520Y510590D01*
X596860D01*
X599121Y511196D01*
X601149Y512366D01*
X602804Y514021D01*
X603974Y516049D01*
X604580Y518310D01*
Y520650D01*
X603974Y522911D01*
X602804Y524939D01*
X601149Y526594D01*
X599121Y527764D01*
X596860Y528370D01*
D02*
G37*
G36*
X813970Y520700D02*
X811630D01*
X809369Y520094D01*
X807341Y518924D01*
X805686Y517269D01*
X804516Y515241D01*
X803910Y512980D01*
Y510640D01*
X804516Y508379D01*
X805686Y506351D01*
X807341Y504696D01*
X809369Y503526D01*
X811630Y502920D01*
X813970D01*
X816231Y503526D01*
X818259Y504696D01*
X819914Y506351D01*
X821084Y508379D01*
X821690Y510640D01*
Y512980D01*
X821084Y515241D01*
X819914Y517269D01*
X818259Y518924D01*
X816231Y520094D01*
X813970Y520700D01*
D02*
G37*
G36*
X792380D02*
X790040D01*
X787779Y520094D01*
X785751Y518924D01*
X784096Y517269D01*
X782926Y515241D01*
X782320Y512980D01*
Y510640D01*
X782926Y508379D01*
X784096Y506351D01*
X785751Y504696D01*
X787779Y503526D01*
X790040Y502920D01*
X792380D01*
X794641Y503526D01*
X796669Y504696D01*
X798324Y506351D01*
X799494Y508379D01*
X800100Y510640D01*
Y512980D01*
X799494Y515241D01*
X798324Y517269D01*
X796669Y518924D01*
X794641Y520094D01*
X792380Y520700D01*
D02*
G37*
G36*
X715920Y508830D02*
X713580D01*
X711319Y508224D01*
X709291Y507054D01*
X707636Y505399D01*
X706466Y503371D01*
X705860Y501110D01*
Y498770D01*
X706466Y496509D01*
X707636Y494481D01*
X709291Y492826D01*
X711319Y491656D01*
X713580Y491050D01*
X715920D01*
X718181Y491656D01*
X720209Y492826D01*
X721864Y494481D01*
X723034Y496509D01*
X723640Y498770D01*
Y501110D01*
X723034Y503371D01*
X721864Y505399D01*
X720209Y507054D01*
X718181Y508224D01*
X715920Y508830D01*
D02*
G37*
G36*
X695920D02*
X693580D01*
X691319Y508224D01*
X689291Y507054D01*
X687636Y505399D01*
X686466Y503371D01*
X685860Y501110D01*
Y498770D01*
X686466Y496509D01*
X687636Y494481D01*
X689291Y492826D01*
X691319Y491656D01*
X693580Y491050D01*
X695920D01*
X698181Y491656D01*
X700209Y492826D01*
X701864Y494481D01*
X703034Y496509D01*
X703640Y498770D01*
Y501110D01*
X703034Y503371D01*
X701864Y505399D01*
X700209Y507054D01*
X698181Y508224D01*
X695920Y508830D01*
D02*
G37*
G36*
X676550D02*
X674210D01*
X671949Y508224D01*
X669921Y507054D01*
X668266Y505399D01*
X667096Y503371D01*
X666490Y501110D01*
Y498770D01*
X667096Y496509D01*
X668266Y494481D01*
X669921Y492826D01*
X671949Y491656D01*
X674210Y491050D01*
X676550D01*
X678811Y491656D01*
X680839Y492826D01*
X682494Y494481D01*
X683664Y496509D01*
X684270Y498770D01*
Y501110D01*
X683664Y503371D01*
X682494Y505399D01*
X680839Y507054D01*
X678811Y508224D01*
X676550Y508830D01*
D02*
G37*
G36*
X656550D02*
X654210D01*
X651949Y508224D01*
X649921Y507054D01*
X648266Y505399D01*
X647096Y503371D01*
X646490Y501110D01*
Y498770D01*
X647096Y496509D01*
X648266Y494481D01*
X649921Y492826D01*
X651949Y491656D01*
X654210Y491050D01*
X656550D01*
X658811Y491656D01*
X660839Y492826D01*
X662494Y494481D01*
X663664Y496509D01*
X664270Y498770D01*
Y501110D01*
X663664Y503371D01*
X662494Y505399D01*
X660839Y507054D01*
X658811Y508224D01*
X656550Y508830D01*
D02*
G37*
G36*
X636550D02*
X634210D01*
X631949Y508224D01*
X629921Y507054D01*
X628266Y505399D01*
X627096Y503371D01*
X626490Y501110D01*
Y498770D01*
X627096Y496509D01*
X628266Y494481D01*
X629921Y492826D01*
X631949Y491656D01*
X634210Y491050D01*
X636550D01*
X638811Y491656D01*
X640839Y492826D01*
X642494Y494481D01*
X643664Y496509D01*
X644270Y498770D01*
Y501110D01*
X643664Y503371D01*
X642494Y505399D01*
X640839Y507054D01*
X638811Y508224D01*
X636550Y508830D01*
D02*
G37*
G36*
X616860D02*
X614520D01*
X612259Y508224D01*
X610231Y507054D01*
X608576Y505399D01*
X607406Y503371D01*
X606800Y501110D01*
Y498770D01*
X607406Y496509D01*
X608576Y494481D01*
X610231Y492826D01*
X612259Y491656D01*
X614520Y491050D01*
X616860D01*
X619121Y491656D01*
X621149Y492826D01*
X622804Y494481D01*
X623974Y496509D01*
X624580Y498770D01*
Y501110D01*
X623974Y503371D01*
X622804Y505399D01*
X621149Y507054D01*
X619121Y508224D01*
X616860Y508830D01*
D02*
G37*
G36*
X596860D02*
X594520D01*
X592259Y508224D01*
X590231Y507054D01*
X588576Y505399D01*
X587406Y503371D01*
X586800Y501110D01*
Y498770D01*
X587406Y496509D01*
X588576Y494481D01*
X590231Y492826D01*
X592259Y491656D01*
X594520Y491050D01*
X596860D01*
X599121Y491656D01*
X601149Y492826D01*
X602804Y494481D01*
X603974Y496509D01*
X604580Y498770D01*
Y501110D01*
X603974Y503371D01*
X602804Y505399D01*
X601149Y507054D01*
X599121Y508224D01*
X596860Y508830D01*
D02*
G37*
G36*
X296453Y511040D02*
X293547D01*
X290739Y510288D01*
X288221Y508834D01*
X286166Y506779D01*
X284712Y504261D01*
X283960Y501453D01*
Y498547D01*
X284712Y495739D01*
X286166Y493221D01*
X288221Y491166D01*
X290739Y489712D01*
X293547Y488960D01*
X296453D01*
X299261Y489712D01*
X301779Y491166D01*
X303834Y493221D01*
X305288Y495739D01*
X306040Y498547D01*
Y501453D01*
X305288Y504261D01*
X303834Y506779D01*
X301779Y508834D01*
X299261Y510288D01*
X296453Y511040D01*
D02*
G37*
G36*
X271453D02*
X268547D01*
X265739Y510288D01*
X263221Y508834D01*
X261166Y506779D01*
X259712Y504261D01*
X258960Y501453D01*
Y498547D01*
X259712Y495739D01*
X261166Y493221D01*
X263221Y491166D01*
X265739Y489712D01*
X268547Y488960D01*
X271453D01*
X274261Y489712D01*
X276779Y491166D01*
X278834Y493221D01*
X280288Y495739D01*
X281040Y498547D01*
Y501453D01*
X280288Y504261D01*
X278834Y506779D01*
X276779Y508834D01*
X274261Y510288D01*
X271453Y511040D01*
D02*
G37*
G36*
X813970Y501650D02*
X811630D01*
X809369Y501044D01*
X807341Y499874D01*
X805686Y498219D01*
X804516Y496191D01*
X803910Y493930D01*
Y491590D01*
X804516Y489329D01*
X805686Y487301D01*
X807341Y485646D01*
X809369Y484476D01*
X811630Y483870D01*
X813970D01*
X816231Y484476D01*
X818259Y485646D01*
X819914Y487301D01*
X821084Y489329D01*
X821690Y491590D01*
Y493930D01*
X821084Y496191D01*
X819914Y498219D01*
X818259Y499874D01*
X816231Y501044D01*
X813970Y501650D01*
D02*
G37*
G36*
X792380D02*
X790040D01*
X787779Y501044D01*
X785751Y499874D01*
X784096Y498219D01*
X782926Y496191D01*
X782320Y493930D01*
Y491590D01*
X782926Y489329D01*
X784096Y487301D01*
X785751Y485646D01*
X787779Y484476D01*
X790040Y483870D01*
X792380D01*
X794641Y484476D01*
X796669Y485646D01*
X798324Y487301D01*
X799494Y489329D01*
X800100Y491590D01*
Y493930D01*
X799494Y496191D01*
X798324Y498219D01*
X796669Y499874D01*
X794641Y501044D01*
X792380Y501650D01*
D02*
G37*
G36*
X1064688Y493240D02*
X1061912D01*
X1059232Y492522D01*
X1056828Y491134D01*
X1054866Y489172D01*
X1053478Y486768D01*
X1052760Y484088D01*
Y481312D01*
X1053478Y478632D01*
X1054866Y476228D01*
X1056828Y474266D01*
X1059232Y472878D01*
X1061912Y472160D01*
X1064688D01*
X1067368Y472878D01*
X1069772Y474266D01*
X1071734Y476228D01*
X1073122Y478632D01*
X1073840Y481312D01*
Y484088D01*
X1073122Y486768D01*
X1071734Y489172D01*
X1069772Y491134D01*
X1067368Y492522D01*
X1064688Y493240D01*
D02*
G37*
G36*
X992953Y493740D02*
X990047D01*
X987239Y492988D01*
X984721Y491534D01*
X982666Y489479D01*
X981212Y486961D01*
X980460Y484153D01*
Y481247D01*
X981212Y478439D01*
X982666Y475921D01*
X984721Y473866D01*
X987239Y472412D01*
X990047Y471660D01*
X992953D01*
X995761Y472412D01*
X998279Y473866D01*
X1000334Y475921D01*
X1001788Y478439D01*
X1002540Y481247D01*
Y484153D01*
X1001788Y486961D01*
X1000334Y489479D01*
X998279Y491534D01*
X995761Y492988D01*
X992953Y493740D01*
D02*
G37*
G36*
X977540D02*
X955460D01*
Y471660D01*
X977540D01*
Y493740D01*
D02*
G37*
G36*
X813970Y482600D02*
X811630D01*
X809369Y481994D01*
X807341Y480824D01*
X805686Y479169D01*
X804516Y477141D01*
X803910Y474880D01*
Y472540D01*
X804516Y470279D01*
X805686Y468251D01*
X807341Y466596D01*
X809369Y465426D01*
X811630Y464820D01*
X813970D01*
X816231Y465426D01*
X818259Y466596D01*
X819914Y468251D01*
X821084Y470279D01*
X821690Y472540D01*
Y474880D01*
X821084Y477141D01*
X819914Y479169D01*
X818259Y480824D01*
X816231Y481994D01*
X813970Y482600D01*
D02*
G37*
G36*
X792380D02*
X790040D01*
X787779Y481994D01*
X785751Y480824D01*
X784096Y479169D01*
X782926Y477141D01*
X782320Y474880D01*
Y472540D01*
X782926Y470279D01*
X784096Y468251D01*
X785751Y466596D01*
X787779Y465426D01*
X790040Y464820D01*
X792380D01*
X794641Y465426D01*
X796669Y466596D01*
X798324Y468251D01*
X799494Y470279D01*
X800100Y472540D01*
Y474880D01*
X799494Y477141D01*
X798324Y479169D01*
X796669Y480824D01*
X794641Y481994D01*
X792380Y482600D01*
D02*
G37*
G36*
X296453Y486040D02*
X293547D01*
X290739Y485288D01*
X288221Y483834D01*
X286166Y481779D01*
X284712Y479261D01*
X283960Y476453D01*
Y473547D01*
X284712Y470739D01*
X286166Y468221D01*
X288221Y466166D01*
X290739Y464712D01*
X293547Y463960D01*
X296453D01*
X299261Y464712D01*
X301779Y466166D01*
X303834Y468221D01*
X305288Y470739D01*
X306040Y473547D01*
Y476453D01*
X305288Y479261D01*
X303834Y481779D01*
X301779Y483834D01*
X299261Y485288D01*
X296453Y486040D01*
D02*
G37*
G36*
X271453D02*
X268547D01*
X265739Y485288D01*
X263221Y483834D01*
X261166Y481779D01*
X259712Y479261D01*
X258960Y476453D01*
Y473547D01*
X259712Y470739D01*
X261166Y468221D01*
X263221Y466166D01*
X265739Y464712D01*
X268547Y463960D01*
X271453D01*
X274261Y464712D01*
X276779Y466166D01*
X278834Y468221D01*
X280288Y470739D01*
X281040Y473547D01*
Y476453D01*
X280288Y479261D01*
X278834Y481779D01*
X276779Y483834D01*
X274261Y485288D01*
X271453Y486040D01*
D02*
G37*
G36*
X539650Y471170D02*
X537310D01*
X535049Y470564D01*
X533021Y469394D01*
X531366Y467739D01*
X530196Y465711D01*
X529590Y463450D01*
Y461110D01*
X530196Y458849D01*
X531366Y456821D01*
X533021Y455166D01*
X535049Y453996D01*
X537310Y453390D01*
X539650D01*
X541911Y453996D01*
X543939Y455166D01*
X545594Y456821D01*
X546764Y458849D01*
X547370Y461110D01*
Y463450D01*
X546764Y465711D01*
X545594Y467739D01*
X543939Y469394D01*
X541911Y470564D01*
X539650Y471170D01*
D02*
G37*
G36*
X925463Y459200D02*
X923657D01*
X921988Y458509D01*
X920711Y457232D01*
X920020Y455563D01*
Y453757D01*
X920711Y452088D01*
X921988Y450811D01*
X923657Y450120D01*
X925463D01*
X927132Y450811D01*
X928409Y452088D01*
X929100Y453757D01*
Y455563D01*
X928409Y457232D01*
X927132Y458509D01*
X925463Y459200D01*
D02*
G37*
G36*
X1064688Y468240D02*
X1061912D01*
X1059232Y467522D01*
X1056828Y466134D01*
X1054866Y464172D01*
X1053478Y461768D01*
X1052760Y459088D01*
Y456312D01*
X1053478Y453632D01*
X1054866Y451228D01*
X1056828Y449266D01*
X1059232Y447878D01*
X1061912Y447160D01*
X1064688D01*
X1067368Y447878D01*
X1069772Y449266D01*
X1071734Y451228D01*
X1073122Y453632D01*
X1073840Y456312D01*
Y459088D01*
X1073122Y461768D01*
X1071734Y464172D01*
X1069772Y466134D01*
X1067368Y467522D01*
X1064688Y468240D01*
D02*
G37*
G36*
X992953Y468740D02*
X990047D01*
X987239Y467988D01*
X984721Y466534D01*
X982666Y464479D01*
X981212Y461961D01*
X980460Y459153D01*
Y456247D01*
X981212Y453439D01*
X982666Y450921D01*
X984721Y448866D01*
X987239Y447412D01*
X990047Y446660D01*
X992953D01*
X995761Y447412D01*
X998279Y448866D01*
X1000334Y450921D01*
X1001788Y453439D01*
X1002540Y456247D01*
Y459153D01*
X1001788Y461961D01*
X1000334Y464479D01*
X998279Y466534D01*
X995761Y467988D01*
X992953Y468740D01*
D02*
G37*
G36*
X967953D02*
X965047D01*
X962239Y467988D01*
X959721Y466534D01*
X957666Y464479D01*
X956212Y461961D01*
X955460Y459153D01*
Y456247D01*
X956212Y453439D01*
X957666Y450921D01*
X959721Y448866D01*
X962239Y447412D01*
X965047Y446660D01*
X967953D01*
X970761Y447412D01*
X973279Y448866D01*
X975334Y450921D01*
X976788Y453439D01*
X977540Y456247D01*
Y459153D01*
X976788Y461961D01*
X975334Y464479D01*
X973279Y466534D01*
X970761Y467988D01*
X967953Y468740D01*
D02*
G37*
G36*
X653683Y452850D02*
X651877D01*
X650208Y452159D01*
X648931Y450882D01*
X648240Y449213D01*
Y447407D01*
X648931Y445738D01*
X650208Y444461D01*
X651877Y443770D01*
X653683D01*
X655352Y444461D01*
X656629Y445738D01*
X657320Y447407D01*
Y449213D01*
X656629Y450882D01*
X655352Y452159D01*
X653683Y452850D01*
D02*
G37*
G36*
X875000Y517844D02*
X873000D01*
X868777Y517428D01*
X864717Y516197D01*
X860975Y514197D01*
X857695Y511505D01*
X855004Y508225D01*
X853003Y504483D01*
X851772Y500423D01*
X851356Y496200D01*
X851772Y491977D01*
X853003Y487917D01*
X855004Y484175D01*
X857695Y480895D01*
X860975Y478204D01*
X864717Y476203D01*
X868777Y474972D01*
X871370Y474716D01*
X871433Y473434D01*
X869467Y473043D01*
X866639Y471871D01*
X864094Y470171D01*
X861929Y468006D01*
X860229Y465461D01*
X859057Y462633D01*
X858460Y459631D01*
Y456569D01*
X859057Y453567D01*
X860229Y450739D01*
X861929Y448194D01*
X864094Y446029D01*
X866639Y444329D01*
X869467Y443157D01*
X872469Y442560D01*
X875531D01*
X878533Y443157D01*
X881361Y444329D01*
X883906Y446029D01*
X886071Y448194D01*
X887771Y450739D01*
X888943Y453567D01*
X889540Y456569D01*
Y459631D01*
X888943Y462633D01*
X887771Y465461D01*
X886071Y468006D01*
X883906Y470171D01*
X881361Y471871D01*
X878533Y473043D01*
X876566Y473434D01*
X876629Y474716D01*
X879223Y474972D01*
X883283Y476203D01*
X887025Y478204D01*
X890305Y480895D01*
X892997Y484175D01*
X894997Y487917D01*
X896228Y491977D01*
X896644Y496200D01*
X896228Y500423D01*
X894997Y504483D01*
X892997Y508225D01*
X890305Y511505D01*
X887025Y514197D01*
X883283Y516197D01*
X879223Y517428D01*
X875000Y517844D01*
D02*
G37*
G36*
X199588Y460540D02*
X196812D01*
X194132Y459822D01*
X191728Y458434D01*
X189766Y456472D01*
X188378Y454068D01*
X187660Y451388D01*
Y448612D01*
X188378Y445932D01*
X189766Y443528D01*
X191728Y441566D01*
X194132Y440178D01*
X196812Y439460D01*
X199588D01*
X202268Y440178D01*
X204672Y441566D01*
X206634Y443528D01*
X208022Y445932D01*
X208740Y448612D01*
Y451388D01*
X208022Y454068D01*
X206634Y456472D01*
X204672Y458434D01*
X202268Y459822D01*
X199588Y460540D01*
D02*
G37*
G36*
X306040Y461040D02*
X283960D01*
Y438960D01*
X306040D01*
Y461040D01*
D02*
G37*
G36*
X271453D02*
X268547D01*
X265739Y460288D01*
X263221Y458834D01*
X261166Y456779D01*
X259712Y454261D01*
X258960Y451453D01*
Y448547D01*
X259712Y445739D01*
X261166Y443221D01*
X263221Y441166D01*
X265739Y439712D01*
X268547Y438960D01*
X271453D01*
X274261Y439712D01*
X276779Y441166D01*
X278834Y443221D01*
X280288Y445739D01*
X281040Y448547D01*
Y451453D01*
X280288Y454261D01*
X278834Y456779D01*
X276779Y458834D01*
X274261Y460288D01*
X271453Y461040D01*
D02*
G37*
G36*
X653683Y437610D02*
X651877D01*
X650208Y436919D01*
X648931Y435642D01*
X648240Y433973D01*
Y432167D01*
X648931Y430498D01*
X650208Y429221D01*
X651877Y428530D01*
X653683D01*
X655352Y429221D01*
X656629Y430498D01*
X657320Y432167D01*
Y433973D01*
X656629Y435642D01*
X655352Y436919D01*
X653683Y437610D01*
D02*
G37*
G36*
X620663Y433038D02*
X618857D01*
X617188Y432347D01*
X615911Y431070D01*
X615220Y429401D01*
Y427595D01*
X615911Y425926D01*
X617188Y424649D01*
X618857Y423958D01*
X620663D01*
X622332Y424649D01*
X623609Y425926D01*
X624300Y427595D01*
Y429401D01*
X623609Y431070D01*
X622332Y432347D01*
X620663Y433038D01*
D02*
G37*
G36*
X367531Y435540D02*
X364469D01*
X361467Y434943D01*
X358639Y433771D01*
X356094Y432071D01*
X353929Y429906D01*
X352229Y427361D01*
X351057Y424533D01*
X350460Y421531D01*
Y418469D01*
X351057Y415467D01*
X352229Y412639D01*
X353929Y410094D01*
X356094Y407929D01*
X358639Y406229D01*
X361467Y405057D01*
X364469Y404460D01*
X367531D01*
X370533Y405057D01*
X373361Y406229D01*
X375906Y407929D01*
X378071Y410094D01*
X379771Y412639D01*
X380943Y415467D01*
X381540Y418469D01*
Y421531D01*
X380943Y424533D01*
X379771Y427361D01*
X378071Y429906D01*
X375906Y432071D01*
X373361Y433771D01*
X370533Y434943D01*
X367531Y435540D01*
D02*
G37*
G36*
X236040Y408040D02*
X203960D01*
Y386960D01*
X236040D01*
Y408040D01*
D02*
G37*
G36*
X282462Y391000D02*
X277538D01*
X272708Y390039D01*
X270866Y389276D01*
X280000Y380142D01*
X289134Y389276D01*
X287292Y390039D01*
X282462Y391000D01*
D02*
G37*
G36*
X256724Y375134D02*
X255961Y373292D01*
X255000Y368462D01*
Y363538D01*
X255961Y358708D01*
X256724Y356866D01*
X265858Y366000D01*
X256724Y375134D01*
D02*
G37*
G36*
X303276Y375134D02*
X294142Y366000D01*
X303276Y356866D01*
X304039Y358708D01*
X305000Y363538D01*
Y368462D01*
X304039Y373292D01*
X303276Y375134D01*
D02*
G37*
G36*
X1018540Y393540D02*
X981460D01*
Y356460D01*
X1018540D01*
Y393540D01*
D02*
G37*
G36*
X280000Y351858D02*
X270866Y342724D01*
X272708Y341961D01*
X277538Y341000D01*
X282462D01*
X287292Y341961D01*
X289134Y342724D01*
X280000Y351858D01*
D02*
G37*
G36*
X1002068Y346000D02*
X997932D01*
X993937Y345205D01*
X1000000Y339142D01*
X1006063Y345205D01*
X1002068Y346000D01*
D02*
G37*
G36*
X1020205Y331063D02*
X1014142Y325000D01*
X1020205Y318937D01*
X1021000Y322932D01*
Y327068D01*
X1020205Y331063D01*
D02*
G37*
G36*
X979795Y331063D02*
X979000Y327068D01*
Y322932D01*
X979795Y318937D01*
X985858Y325000D01*
X979795Y331063D01*
D02*
G37*
G36*
X330293Y322890D02*
X327953D01*
X325692Y322284D01*
X323664Y321114D01*
X322009Y319459D01*
X321356Y318328D01*
X319890D01*
X319237Y319459D01*
X317582Y321114D01*
X315554Y322284D01*
X313293Y322890D01*
X310953D01*
X308692Y322284D01*
X306664Y321114D01*
X305009Y319459D01*
X303839Y317431D01*
X303233Y315170D01*
Y312830D01*
X303839Y310569D01*
X305009Y308541D01*
X306664Y306886D01*
X308692Y305716D01*
X310953Y305110D01*
X313293D01*
X315554Y305716D01*
X317582Y306886D01*
X319237Y308541D01*
X319890Y309672D01*
X321356D01*
X322009Y308541D01*
X323664Y306886D01*
X325692Y305716D01*
X327953Y305110D01*
X330293D01*
X332554Y305716D01*
X334582Y306886D01*
X336237Y308541D01*
X337407Y310569D01*
X338013Y312830D01*
Y315170D01*
X337407Y317431D01*
X336237Y319459D01*
X334582Y321114D01*
X332554Y322284D01*
X330293Y322890D01*
D02*
G37*
G36*
X1000000Y310858D02*
X993937Y304795D01*
X997932Y304000D01*
X1002068D01*
X1006063Y304795D01*
X1000000Y310858D01*
D02*
G37*
G36*
X282220Y316540D02*
X277780D01*
X273425Y315674D01*
X269323Y313975D01*
X265632Y311508D01*
X262492Y308368D01*
X260025Y304677D01*
X258326Y300575D01*
X257460Y296220D01*
Y291780D01*
X258326Y287425D01*
X260025Y283323D01*
X262492Y279632D01*
X265632Y276492D01*
X269323Y274025D01*
X273425Y272326D01*
X277780Y271460D01*
X282220D01*
X286575Y272326D01*
X290677Y274025D01*
X294368Y276492D01*
X297508Y279632D01*
X299975Y283323D01*
X301674Y287425D01*
X302395Y291051D01*
X303698Y291093D01*
X303839Y290569D01*
X305009Y288541D01*
X306664Y286886D01*
X308692Y285716D01*
X310953Y285110D01*
X313293D01*
X315554Y285716D01*
X317582Y286886D01*
X319237Y288541D01*
X319890Y289672D01*
X321356D01*
X322009Y288541D01*
X323664Y286886D01*
X325692Y285716D01*
X327953Y285110D01*
X330293D01*
X332554Y285716D01*
X334582Y286886D01*
X336237Y288541D01*
X337407Y290569D01*
X338013Y292830D01*
Y295170D01*
X337407Y297431D01*
X336237Y299459D01*
X334582Y301114D01*
X332554Y302284D01*
X330293Y302890D01*
X327953D01*
X325692Y302284D01*
X323664Y301114D01*
X322009Y299459D01*
X321356Y298328D01*
X319890D01*
X319237Y299459D01*
X317582Y301114D01*
X315554Y302284D01*
X313293Y302890D01*
X310953D01*
X308692Y302284D01*
X306664Y301114D01*
X305009Y299459D01*
X303839Y297431D01*
X303698Y296907D01*
X302395Y296949D01*
X301674Y300575D01*
X299975Y304677D01*
X297508Y308368D01*
X294368Y311508D01*
X290677Y313975D01*
X286575Y315674D01*
X282220Y316540D01*
D02*
G37*
G36*
X330293Y282890D02*
X327953D01*
X325692Y282284D01*
X323664Y281114D01*
X322009Y279459D01*
X321356Y278328D01*
X319890D01*
X319237Y279459D01*
X317582Y281114D01*
X315554Y282284D01*
X313293Y282890D01*
X310953D01*
X308692Y282284D01*
X306664Y281114D01*
X305009Y279459D01*
X303839Y277431D01*
X303233Y275170D01*
Y272830D01*
X303839Y270569D01*
X305009Y268541D01*
X306664Y266886D01*
X308692Y265716D01*
X310953Y265110D01*
X313293D01*
X315554Y265716D01*
X317582Y266886D01*
X319237Y268541D01*
X319890Y269672D01*
X321356D01*
X322009Y268541D01*
X323664Y266886D01*
X325692Y265716D01*
X327953Y265110D01*
X330293D01*
X332554Y265716D01*
X334582Y266886D01*
X336237Y268541D01*
X337407Y270569D01*
X338013Y272830D01*
Y275170D01*
X337407Y277431D01*
X336237Y279459D01*
X334582Y281114D01*
X332554Y282284D01*
X330293Y282890D01*
D02*
G37*
G36*
X236040Y273040D02*
X203960D01*
Y251960D01*
X236040D01*
Y273040D01*
D02*
G37*
G36*
X325020Y213360D02*
X322680D01*
X320419Y212754D01*
X318391Y211584D01*
X316736Y209929D01*
X315636Y208023D01*
X314960Y207920D01*
X314284Y208023D01*
X313184Y209929D01*
X311529Y211584D01*
X309501Y212754D01*
X307240Y213360D01*
X304900D01*
X302639Y212754D01*
X300611Y211584D01*
X298956Y209929D01*
X297786Y207901D01*
X297180Y205640D01*
Y203300D01*
X297786Y201039D01*
X298956Y199011D01*
X300611Y197356D01*
X302639Y196186D01*
X304900Y195580D01*
X307240D01*
X309501Y196186D01*
X310887Y196986D01*
X310888Y196986D01*
X311668Y195970D01*
X311659Y195961D01*
X310386Y194689D01*
X309216Y192661D01*
X308610Y190400D01*
Y188060D01*
X309216Y185799D01*
X310386Y183771D01*
X312041Y182116D01*
X314069Y180946D01*
X315937Y180445D01*
X316178Y180145D01*
X316454Y179501D01*
X316518Y179070D01*
X315566Y177421D01*
X314960Y175160D01*
Y172820D01*
X315566Y170559D01*
X316518Y168910D01*
X316454Y168479D01*
X316178Y167835D01*
X315937Y167535D01*
X314069Y167034D01*
X312041Y165864D01*
X310386Y164209D01*
X309216Y162181D01*
X308610Y159920D01*
Y157580D01*
X309216Y155319D01*
X310386Y153291D01*
X312041Y151636D01*
X314069Y150466D01*
X316330Y149860D01*
X318670D01*
X320931Y150466D01*
X322959Y151636D01*
X324614Y153291D01*
X325784Y155319D01*
X326390Y157580D01*
Y159920D01*
X325784Y162181D01*
X324832Y163830D01*
X324896Y164261D01*
X325172Y164905D01*
X325413Y165205D01*
X327281Y165706D01*
X329309Y166876D01*
X330964Y168531D01*
X332134Y170559D01*
X332740Y172820D01*
Y175160D01*
X332134Y177421D01*
X330964Y179449D01*
X329309Y181104D01*
X327281Y182274D01*
X325413Y182775D01*
X325172Y183075D01*
X324896Y183718D01*
X324832Y184150D01*
X325784Y185799D01*
X326390Y188060D01*
Y190400D01*
X325784Y192661D01*
X324832Y194310D01*
X324896Y194741D01*
X325172Y195385D01*
X325413Y195685D01*
X327281Y196186D01*
X329309Y197356D01*
X330964Y199011D01*
X332134Y201039D01*
X332740Y203300D01*
Y205640D01*
X332134Y207901D01*
X330964Y209929D01*
X329309Y211584D01*
X327281Y212754D01*
X325020Y213360D01*
D02*
G37*
G36*
X406033Y173450D02*
X404227D01*
X402558Y172759D01*
X401281Y171482D01*
X400590Y169813D01*
Y168007D01*
X401281Y166338D01*
X402558Y165061D01*
X404227Y164370D01*
X406033D01*
X407702Y165061D01*
X408979Y166338D01*
X409670Y168007D01*
Y169813D01*
X408979Y171482D01*
X407702Y172759D01*
X406033Y173450D01*
D02*
G37*
G36*
X343803Y146780D02*
X341997D01*
X340328Y146089D01*
X339051Y144812D01*
X338360Y143143D01*
Y141337D01*
X339051Y139668D01*
X340328Y138391D01*
X341997Y137700D01*
X343803D01*
X345472Y138391D01*
X346749Y139668D01*
X347440Y141337D01*
Y143143D01*
X346749Y144812D01*
X345472Y146089D01*
X343803Y146780D01*
D02*
G37*
G36*
X456833Y127730D02*
X455027D01*
X453358Y127039D01*
X452210Y125891D01*
X451485Y125820D01*
X450760Y125891D01*
X449612Y127039D01*
X447943Y127730D01*
X446137D01*
X444468Y127039D01*
X443320Y125891D01*
X442595Y125820D01*
X441870Y125891D01*
X440722Y127039D01*
X439053Y127730D01*
X437247D01*
X435578Y127039D01*
X434430Y125891D01*
X433705Y125820D01*
X432980Y125891D01*
X431832Y127039D01*
X430163Y127730D01*
X428357D01*
X426688Y127039D01*
X425411Y125762D01*
X424720Y124093D01*
Y122287D01*
X425411Y120618D01*
X426688Y119341D01*
X428357Y118650D01*
X430163D01*
X431832Y119341D01*
X432980Y120489D01*
X433705Y120560D01*
X434430Y120489D01*
X435578Y119341D01*
X437247Y118650D01*
X439053D01*
X440722Y119341D01*
X441870Y120489D01*
X442595Y120560D01*
X443320Y120489D01*
X444468Y119341D01*
X446137Y118650D01*
X447943D01*
X449612Y119341D01*
X450760Y120489D01*
X451485Y120560D01*
X452210Y120489D01*
X453358Y119341D01*
X455027Y118650D01*
X456833D01*
X458502Y119341D01*
X459779Y120618D01*
X460470Y122287D01*
Y124093D01*
X459779Y125762D01*
X458502Y127039D01*
X456833Y127730D01*
D02*
G37*
%LPD*%
D72*
X924800Y31700D02*
D03*
X949800D02*
D03*
X1063300Y482700D02*
D03*
Y457700D02*
D03*
X935000Y165000D02*
D03*
X985000D02*
D03*
X465000Y658200D02*
D03*
X440000D02*
D03*
X415000D02*
D03*
X465000Y633200D02*
D03*
X440000D02*
D03*
X415000D02*
D03*
X198200Y450000D02*
D03*
Y550000D02*
D03*
X300000Y633200D02*
D03*
X325000D02*
D03*
X350000D02*
D03*
X300000Y658200D02*
D03*
X325000D02*
D03*
X350000D02*
D03*
D73*
X924800Y103500D02*
D03*
X949800D02*
D03*
X924800Y128500D02*
D03*
X547500Y729800D02*
D03*
X572500D02*
D03*
X966500Y457700D02*
D03*
X991500Y482700D02*
D03*
Y457700D02*
D03*
X295000Y475000D02*
D03*
Y500000D02*
D03*
Y525000D02*
D03*
Y550000D02*
D03*
X270000Y450000D02*
D03*
Y475000D02*
D03*
Y500000D02*
D03*
Y525000D02*
D03*
Y550000D02*
D03*
X832500Y729800D02*
D03*
X807500D02*
D03*
X887500D02*
D03*
X912500D02*
D03*
X672500D02*
D03*
X647500D02*
D03*
X752500D02*
D03*
X727500D02*
D03*
D74*
X949800Y128500D02*
D03*
D75*
X92500Y20000D02*
D03*
X227500D02*
D03*
D76*
X220000Y262500D02*
D03*
Y397500D02*
D03*
D77*
X547500Y658000D02*
D03*
X572500D02*
D03*
X1100000Y405000D02*
D03*
Y295000D02*
D03*
X855890Y49530D02*
D03*
X780890D02*
D03*
X832500Y658000D02*
D03*
X807500D02*
D03*
X887500D02*
D03*
X912500D02*
D03*
X672500D02*
D03*
X647500D02*
D03*
X752500D02*
D03*
X727500D02*
D03*
D78*
X1025000Y199600D02*
D03*
X995000D02*
D03*
X965000D02*
D03*
D79*
X1025000Y225000D02*
D03*
X995000D02*
D03*
X965000D02*
D03*
D80*
X966500Y482700D02*
D03*
X295000Y450000D02*
D03*
D82*
X196000Y80000D02*
D03*
X280000Y366000D02*
D03*
D84*
X1000000Y325000D02*
D03*
D85*
Y375000D02*
D03*
D86*
X186800Y695000D02*
D03*
X366000Y496200D02*
D03*
Y343800D02*
D03*
D87*
X260000Y710000D02*
D03*
Y680000D02*
D03*
X230000Y710000D02*
D03*
D88*
Y680000D02*
D03*
D89*
X415000Y730000D02*
D03*
X465000D02*
D03*
X350000D02*
D03*
X300000D02*
D03*
D90*
X874000Y343800D02*
D03*
Y496200D02*
D03*
D91*
Y381900D02*
D03*
Y420000D02*
D03*
Y458100D02*
D03*
X366000Y420000D02*
D03*
D92*
X96520Y199390D02*
D03*
X547370Y635000D02*
D03*
X590550Y593090D02*
D03*
X95250Y182880D02*
D03*
Y215900D02*
D03*
X73660Y132080D02*
D03*
X91440Y166370D02*
D03*
X55880Y133350D02*
D03*
X38100D02*
D03*
X19050D02*
D03*
X55880Y166370D02*
D03*
X38100D02*
D03*
X19050D02*
D03*
X74930D02*
D03*
X367030Y35560D02*
D03*
Y19050D02*
D03*
X383540Y35560D02*
D03*
Y19050D02*
D03*
X400050Y35560D02*
D03*
Y19050D02*
D03*
X416560Y35560D02*
D03*
Y19050D02*
D03*
X538480Y462280D02*
D03*
X515620Y558800D02*
D03*
X791210Y326390D02*
D03*
X812800D02*
D03*
X791210Y345440D02*
D03*
X812800D02*
D03*
X791210Y511810D02*
D03*
X812800D02*
D03*
X791210Y492760D02*
D03*
X812800D02*
D03*
X19050Y182880D02*
D03*
Y199390D02*
D03*
Y215900D02*
D03*
Y116840D02*
D03*
X515620Y218440D02*
D03*
X683514Y368300D02*
D03*
X615690Y539310D02*
D03*
X595690D02*
D03*
X615690Y558850D02*
D03*
X595690D02*
D03*
X675380Y539310D02*
D03*
X635380D02*
D03*
X655380D02*
D03*
X675380Y558850D02*
D03*
X655380D02*
D03*
X635380D02*
D03*
X694750D02*
D03*
X714750D02*
D03*
X694750Y539310D02*
D03*
X714750D02*
D03*
Y499940D02*
D03*
X694750D02*
D03*
X714750Y519480D02*
D03*
X694750D02*
D03*
X635380D02*
D03*
X655380D02*
D03*
X675380D02*
D03*
X655380Y499940D02*
D03*
X635380D02*
D03*
X675380D02*
D03*
X595690Y519480D02*
D03*
X615690D02*
D03*
X595690Y499940D02*
D03*
X615690D02*
D03*
X812326Y365213D02*
D03*
X791210Y365215D02*
D03*
X689610Y196850D02*
D03*
X706120D02*
D03*
X670590Y174000D02*
D03*
X691590D02*
D03*
X713590D02*
D03*
X713740Y127000D02*
D03*
X692150D02*
D03*
X670560D02*
D03*
X599440Y173990D02*
D03*
X619760D02*
D03*
X641350D02*
D03*
Y127000D02*
D03*
X619760D02*
D03*
X599440D02*
D03*
X790000Y125000D02*
D03*
X811000D02*
D03*
X833000D02*
D03*
Y174000D02*
D03*
X811000D02*
D03*
X790000D02*
D03*
X485140Y173990D02*
D03*
X506730D02*
D03*
X528320D02*
D03*
Y124460D02*
D03*
X506730D02*
D03*
X483870D02*
D03*
X916000Y278000D02*
D03*
X936000D02*
D03*
X956000D02*
D03*
X936000Y261000D02*
D03*
X916000D02*
D03*
X956000D02*
D03*
X477520Y575310D02*
D03*
X496570D02*
D03*
X515620D02*
D03*
X496570Y558800D02*
D03*
X477520D02*
D03*
X312123Y274000D02*
D03*
Y294000D02*
D03*
Y314000D02*
D03*
X329123Y294000D02*
D03*
Y274000D02*
D03*
Y314000D02*
D03*
X497840Y218440D02*
D03*
X533400D02*
D03*
X497840Y234950D02*
D03*
X533400D02*
D03*
X515620D02*
D03*
X19050Y100330D02*
D03*
X209550Y161290D02*
D03*
X193040Y156210D02*
D03*
X176530D02*
D03*
X196850Y172720D02*
D03*
X209550Y184150D02*
D03*
X323850Y204470D02*
D03*
Y173990D02*
D03*
X317500Y158750D02*
D03*
Y189230D02*
D03*
X306070Y204470D02*
D03*
X278130Y115570D02*
D03*
Y132080D02*
D03*
X261620Y115570D02*
D03*
Y132080D02*
D03*
X278130Y52070D02*
D03*
Y68580D02*
D03*
X261620Y52070D02*
D03*
Y68580D02*
D03*
X812800Y473710D02*
D03*
X791210D02*
D03*
D93*
X924560Y454660D02*
D03*
X613410Y85090D02*
D03*
X402590Y76200D02*
D03*
Y85090D02*
D03*
Y93980D02*
D03*
X652780Y387350D02*
D03*
Y402590D02*
D03*
Y417830D02*
D03*
Y448310D02*
D03*
Y433070D02*
D03*
X405130Y168910D02*
D03*
X342900Y142240D02*
D03*
X544830Y82550D02*
D03*
X462280Y54610D02*
D03*
X398780D02*
D03*
X537210Y48260D02*
D03*
X509270Y85090D02*
D03*
X537210D02*
D03*
X463550Y167640D02*
D03*
X483870Y59690D02*
D03*
X464820Y33020D02*
D03*
X632460Y92710D02*
D03*
X566420Y133350D02*
D03*
X553720D02*
D03*
X834390Y194310D02*
D03*
X825500D02*
D03*
X593090Y440690D02*
D03*
X600710D02*
D03*
X594360Y394970D02*
D03*
X601980D02*
D03*
X914400Y476130D02*
D03*
X594360Y340360D02*
D03*
X1056640Y660400D02*
D03*
Y629920D02*
D03*
X1056707Y600000D02*
D03*
X1056640Y570230D02*
D03*
Y539750D02*
D03*
X689610Y105410D02*
D03*
X455930Y123190D02*
D03*
X447040D02*
D03*
X438150D02*
D03*
X402590Y102870D02*
D03*
Y140970D02*
D03*
X393700Y123190D02*
D03*
X369570D02*
D03*
X619760Y428498D02*
D03*
X720190Y110390D02*
D03*
X704950D02*
D03*
X260350Y585470D02*
D03*
X994410Y254000D02*
D03*
X825500Y201930D02*
D03*
X834390D02*
D03*
X544000Y31000D02*
D03*
X384810Y123190D02*
D03*
X411480D02*
D03*
X402590Y113030D02*
D03*
Y132080D02*
D03*
X429260Y123190D02*
D03*
X377190D02*
D03*
X402590D02*
D03*
D94*
X992260Y332740D02*
X1000000Y325000D01*
X974373Y332740D02*
X992260D01*
X1000000Y325000D02*
X1007740Y332740D01*
X1023304D01*
D95*
X383999Y550999D02*
D03*
D96*
X124000Y80000D02*
D03*
X280000Y294000D02*
D03*
M02*
