M48
;Layer_Color=9474304
;FILE_FORMAT=4:4
METRIC,LZ
;TYPE=PLATED
T01F00S00C0.1524
T02F00S00C0.2032
T03F00S00C0.2540
T04F00S00C0.8382
T05F00S00C1.0160
T06F00S00C1.2000
T07F00S00C3.3000
;TYPE=NON_PLATED
T08F00S00C0.7100
T09F00S00C0.7500
T10F00S00C0.8000
T11F00S00C1.6000
%
T01
X-0021069Y00120523
Y00133146
X-0021719
X-0022369
Y00126646
X-0021719
Y00139646
X-0022369
Y00146146
X-0023019
Y00152646
X-0022369Y00152646
X-0021719
Y00146146
X-0023019Y00139646
X-0023669
X-0024319Y00139646
X-0024319Y00133146
Y00126646
X-0024969
Y00133146
Y00139646
X-0026269Y00139646
X-0026919
X-0027569
X-0028219
X-0028869
Y00133146
Y00126646
X-0028219
Y00133146
X-0027569
Y00126646
X-0026919
Y00133146
X-0026269
Y00126646
X-0023669Y00126646
Y00133146
X-0023019
Y00126646
X-0029519Y00126646
X-0030169
Y00133146
X-0029519
Y00139646
X-0030169
Y00146146
X-0029519
Y00152646
X-0030169
X-0028869
X-0028869Y00146146
X-0028869Y00159146
X-0029519
X-0030169
X-0030169Y00172146
X-0029519
X-0028869
Y00178646
X-0029519
Y00185146
Y00191646
X-0030169
Y00185146
Y00178646
Y00198146
Y00204646
Y00211146
X-0029519
X-0028869
X-0028219
X-0027569
X-0026919
Y00204646
X-0027569
Y00198146
X-0028219Y00198146
X-0028219Y00204646
X-0028869
X-0029519
Y00198146
X-0028869
X-0028869Y00191646
X-0028869Y00185146
X-0026919Y00198146
X-0025619
X-0024969
Y00204646
X-0024319
X-0024319Y00198146
X-0023669
Y00204646
X-0023019
Y00211146
X-0023669
X-0024319
X-0024969
X-0025619
Y00204646
X-0022369
X-0021719
Y00198146
X-0022369
Y00191646
Y00185146
X-0023019
X-0023019Y00191646
Y00198146
Y00178646
X-0022369
X-0021719
Y00185146
Y00191646
Y00211146
X-0022369
Y00165646
X-0021719
Y00159146
X-0022369
X-0023019
Y00165646
X-00227775Y00315001
X-00235275
Y00322501
X-00242775
X-00250275
Y00315001
X-00242775
Y00330001
Y00337501
X-00250275
Y00330001
X-00235275
Y00337501
X-00227775
Y00330001
Y00322501
X-00220207Y00330069
X-00227775Y00352501
X-00235275
Y00360001
X-00242775
X-00250275
Y00352501
X-00242775
Y00367501
X-00250275
Y00375001
X-00242775
Y00382501
X-00250275
X-00235275
Y00375001
Y00367501
X-00227775
X-00220275
X-00227775Y00375001
Y00382501
Y00360001
X-00212775
X-00205275
Y00352501
X-00197775
Y00360001
Y00367501
X-00205275Y00367501
X-00212775
X-00212775Y00375001
X-00205275
X-00197775
X-00190275
Y00367501
Y00360001
Y00352501
X-00182775
X-00182775Y00360001
X-00182775Y00367501
X-00182775Y00375001
X-00182775Y00382501
X-00190275
X-00197775
X-00205275
X-00212775
X-00212775Y00352501
Y00337501
Y00330001
X-00205275
Y00337501
X-00197775
X-00197843Y00344933
X-00197775Y00330001
X-00190275
Y00337501
X-00182775Y00337501
Y00330001
Y00322501
Y00315001
X-00190275Y00315001
X-00197775Y00315001
Y00322501
X-00190275Y00322501
X-00205275
Y00315001
X-00212775
Y00322501
T02
X-0028219Y00159146
Y00165646
X-0027569
X-0026919
X-0026269
Y00172146
X-0026919
Y00178646
X-0027569
Y00172146
X-0027569Y00159146
X-0025619Y00165646
Y00172146
Y00178646
X-0026269
X-0024969
Y00172146
Y00165646
X-0024319Y00159146
X-00310651Y00214274
X-00242775Y00390001
X-0005207Y0036576
Y0031115
X-000254Y0031242
X-0001524
X0001143Y0031115
X0000889Y0036449
T03
X-00373952Y-00374476
X-00378819Y-0036318
X-00386793Y-00361197
X-00388344Y-0034413
X-0039497Y-0033782
X-0040513Y-0033655
X-00411047Y-00333335
X-00416919Y-0032508
X-0042243Y-00318787
X-00426444Y-0030603
X-00433298Y-0030385
X-00435969Y-0028698
X-00443638Y-00288543
X-00445494Y-0026793
X-00453438Y-00272885
X-00462685Y-00256894
X-00471369Y-0024059
X-00435969Y-0024888
X-00416919
X-00397869
X-00378819
X-00359769
X-0034163Y-0024511
X-0033147Y-0025273
X-00331194Y-0026793
X-0033147Y-0027559
X-00340719Y-0028698
X-0034925Y-0028067
X-00350244Y-0026793
X-00369294
X-0036703Y-0027559
X-00359769Y-0028698
X-0036322Y-0030861
X-0036449Y-0032131
X-00369294Y-0034413
X-0036703Y-0035814
X-0034925Y-0035179
X-00350244Y-0034413
X-00331194
X-0033147Y-0035687
X-00331194Y-0038223
X-00350244
X-00360655Y-00387298
X-00346919Y-00399649
X-00340719Y-0040128
X-0033276Y-00411513
X-00312144Y-0038223
X-003048Y-0033528
X-0029464Y-0033655
X-00293094Y-0034413
X-0028829Y-0032131
X-0028575Y-0030734
X-0027686
X-0026797Y-0031623
X-0025908Y-0032512
X-0025527Y-0033782
X-0024892Y-0033147
X-00235944Y-0038223
X-0021717Y-0037465
X-00245469Y-0040128
X-00235944Y-0042033
X-00245469Y-0043938
X-00264519
X-0027225Y-00453819
X-00254994Y-0045843
X-00235944
X-0023993Y-00471705
X-00226419Y-0043938
X-00216894Y-0026793
X-00226419Y-0024888
X-00283569
X-0029464Y-0029464
X-003048Y-0029591
X-00302619Y-0028698
X-0033353Y-0031544
X-0038862
X-0040894Y-0031496
X-0040513Y-0029464
X-0039497Y-0029337
X-00397869Y-0028698
X-00416919
X-00388344Y-0026793
X-00399163Y-00347478
X-00178794Y-0034413
X-00188319Y-0036318
X-00197844Y-0038223
X-00159744Y-0030603
X-00150219Y-0028698
X-00159744Y-0026793
X-00140694
X-00150219Y-0024888
X-00131169
X-00140694Y-0022983
X-00159744
X-00150219Y-0021078
X-00131169
X-00112119
X-00121644Y-0022983
Y-0019173
X-00140694
X-00159744
X-00150219Y-0017268
X-00131169
X-00112119
X-00093069
X-00102594Y-0019173
Y-0015363
X-00121644
X-00140694
X-00159744
X-00150219Y-0013458
X-00131169
X-00140694Y-0011553
X-00159744
X-00150219Y-0009648
X-00175202Y-00049472
X-00195834Y-0005207
Y-00023487
X-0019243Y-0000315
X-00175356Y-00014812
X-00178562Y00047614
X-00177038Y0005791
X-00157798Y0008871
X-00168402Y0010414
X-0016383Y0011684
X-00192151Y00112649
X-0021082Y0010922
X-002032Y0009652
X-002039Y0008636
X-00210774Y00041107
X-0020584Y0003312
X-00210058Y0002354
X-002032Y00144824
X-00177649Y0015621
X-0012065Y0014478
X-00228346Y0010924
X-0023876Y0010414
X-00241935Y00086995
X-0025121
X-0026289Y0009017
Y0007366
X-0027686Y000635
X-0028448
X-002921
X-00302619Y0005592
X-0031496Y0005588
X-0032258Y0005842
X-003302
X-0033147Y0006604
X-0033655Y0008001
X-0034163Y0008509
X-00350613Y00090077
X-0036657Y000859
X-0036449Y0009652
Y0010922
Y0012192
X-0035687Y0012065
X-0035814Y0013462
X-0036449
Y0014732
X-0037338Y001524
Y001397
Y00127
Y001143
Y001016
X-0038481Y0009144
X-0038989Y0008255
X-003937Y0007747
X-0038989Y0006985
Y0005715
Y0004445
X-00388344Y0003687
X-0040005Y0003556
X-0041021
X-0041148Y000508
X-0041402Y00059063
Y0007133
Y00083598
X-0042037Y0009398
Y0010033
X-0039624Y00108132
Y001204
X-00399288Y00127
X-0039624Y00132667
Y00144934
Y00157201
X-0035052Y0015621
X-00350056Y00149396
X-00345928Y00144083
X-0034163Y0013843
X-0033528Y0013716
X-003429Y0013081
X-0033909Y0011811
X-00338762Y0009906
X-0032766Y0010033
X-0031496
X-0030226Y001016
Y0009017
X-00310282Y00118872
X-0031242Y00128143
X-0032258Y00127635
X-00314325Y00151658
X-0034036Y0015494
X-0035052Y0006858
X-00359769Y0005592
X-0036068Y0004826
X-00369294Y0003687
X-0037973Y0004318
X-0038021Y0005286
X-00399288Y00051308
Y000889
X-0045974Y00087542
X-0046736Y00082716
X-00467594Y00095043
X-004572Y0010541
X-0045212Y0011938
X-00452234Y00131479
X-0045212Y00144052
Y0015748
X-0048006Y0015113
Y0013843
Y0012573
Y0011303
X-0048768Y0010033
X-00493119Y0009402
X-0048768Y0008763
X-00483594Y0007497
X-00502644
X-0051054Y0008763
X-00512169Y0009402
X-0051054Y0010033
X-00519565Y00100616
X-0052276Y00082423
X-00525318Y00064128
X-00527236Y00045756
X-00528512Y00027328
X-00529144Y00008866
X-00529131Y-00009606
X-00528473Y-00028067
X-00527172Y-00046493
X-00525228Y-00064863
X-00512169Y-0005838
X-00493119
X-00502644Y-0007743
X-00483594
X-00464544
X-00445494
X-00455019Y-0009648
X-00474069
X-00493119
X-0049957Y-0009698
X-00512169Y-0009648
X-00519424Y-00101343
X-00522645Y-00083153
X-00515571Y-00119409
X-00512169Y-0013458
X-0048133Y-001397
Y-0014605
Y-001524
X-0048895Y-0015494
X-0049911Y-0016002
X-00500265Y-00172646
X-00493119Y-0017268
X-00493935Y-0019
X-00483594Y-0019173
X-00487003Y-00207123
X-00474069Y-0021078
X-00479478Y-00223993
X-00464544Y-0022983
X-00445494
X-00426444
X-00407394
X-00388344
X-00369294
X-0036068Y-0022733
X-00371995Y-0022098
X-00366915Y-002159
X-00369294Y-0019173
X-00388344
X-00407394
X-00426444
X-00445494
X-00464544
X-00474069Y-0017268
X-00455019
X-00435969
X-00416919
X-00397869
X-0037084Y-0017272
X-0037592Y-0017907
X-0036322Y-0016891
X-00369294Y-0015363
X-00388344
X-00397869Y-0013458
X-00388344Y-0011553
X-00397869Y-0009648
X-00378819
X-00359769
X-0037084Y-0008001
Y-0007366
X-00350244Y-0007743
X-00340719Y-0005838
X-0033311Y-000381
X-00331109Y-00029849
X-003429Y-0001905
X-0034925Y-0003683
X-00369294Y-0003933
X-00388344
X-00407394
X-0040767Y-000508
X-0041402
X-0042037
X-004064Y-0007366
Y-0008001
X-0041656Y-0001524
X-00421132Y0
X-00407394Y-0000123
X-0041148Y0001397
X-00426444Y0003687
X-00445494
X-00483594
X-00502644
X-00512169Y0001782
X-00493119
X-0046863Y0001778
X-00474069Y0005592
X-00493119
X-0050292Y0011303
Y0012573
Y0013843
Y0015113
X-00512169Y0013212
X-00515737Y00118688
X-00493119Y0013212
X-00505729Y00000001
X-00505461Y-00015239
X-00502644Y-0003933
X-00483594
X-0047625Y-0002286
X-0046228Y-0002667
Y-0003429
Y-0004191
X-0045212Y-0002286
X-00435969Y-0002028
X-0036449Y0
X-0036576Y000127
X-0035814Y0002794
X-00350244Y0003687
X-00342127Y00033517
X-0033655Y00026162
X-0032258Y0002921
X-0032385Y00017272
X-0030607Y00017018
X-0030099Y0001397
X-0030607Y0004318
X-0027813
X-0025654Y0004826
X-0024638Y0005334
X-0023876Y0006731
X-0022352Y0006096
X-0023368Y0003937
Y0000381
X-0023495Y-000254
Y-00031115
Y-0003683
Y-0005715
X-0023749Y-0007239
Y-0008509
X-0026162
X-00264519Y-0009648
X-0026289Y-0012065
X-0028575Y-0012446
Y-0013208
Y-001397
Y-0014732
X-0030607Y-0017399
X-0029718Y-0018288
X-0028829Y-0019177
X-002794Y-0020066
X-0027051Y-0020955
X-00254994Y-0022983
X-00235944
X-00216894
X-00226419Y-0021078
X-00235944Y-0019173
X-00216894
X-0023622Y-0014859
Y-0012446
X-0028575Y-0008763
Y-0008001
Y-0007239
Y-0006477
X-0026289Y-000635
Y-0001143
X-00263298Y0
X-0025908Y0001778
X-0028575Y-0000508
Y-000127
Y-0002032
Y-0002794
X-0027894Y00117021
X-00262509Y00115318
X-0025273Y00111498
X-00350244Y-0011553
X-00359769Y-0013458
X-00340719
X-00350244Y-0015363
X-0035052Y-0023622
X-00397869Y-0021078
X-00435969
X-00455019
X-00474069Y-0013458
X-0048006Y0016383
X-00479421Y0017653
X-00483594Y0018927
X-004942Y00189309
X-0049657Y0017145
X-0050292Y0016383
X-004572Y00167386
Y0017653
X-00464544Y0018927
X-00445494
X-00435873Y00175891
X-00435969Y0020832
X-00445494Y0022737
X-00464544
X-00479791Y00223322
X-00487292Y00206441
X-00471705Y0023993
X-00453819Y0027225
X-00416919Y0024642
X-00397869
X-00378819
X-0040894Y0023368
X-0041402Y002286
X-00426444Y0022737
X-00404876Y0022098
X-00397869Y0020832
X-0038735Y0019431
X-0038227Y0019939
X-0037592Y0020447
X-00374142Y00188584
Y0018034
X-0039624Y0018161
X-0039116Y0017145
X-0039624Y001651
X-0036703Y0016002
X-0034544Y0017907
X-0034036Y0017526
X-0033386Y00172409
X-00327914Y0017018
X-00316738Y00169291
X-0032131Y0019431
X-0032893
X-00335788Y00204041
X-0033401Y0020955
X-0033369Y0024797
X-0031623Y0024003
Y0026162
X-0031496Y0028067
X-0032258Y0027813
X-0032893Y0028321
X-00343408Y002838
X-0034798Y0028829
X-0033528Y0029337
X-0034036Y0029972
X-0032639Y003048
X-003048Y0028321
X-0028321Y0027432
X-00284118Y00255889
X-00255417Y00238653
X-00256159Y00231264
Y0022479
X-00246996Y00226932
X-00247034Y00220568
X-0022479Y0022352
X-0022098Y00228854
X-002286
X-0023368Y0029718
X-00240134Y00297227
X-00254994Y0030357
X-00274044
X-00284655Y00318231
X-0026289Y0031877
X-00271955Y00330931
Y00339821
X-00271915Y00348751
X-00271955Y00357601
X-0027178Y0036449
X-0026289
Y00381
Y0038989
X-00264519Y0039882
X-002413Y0040513
X-0023495Y0041021
X-0023241Y0040005
X-0024765Y0041275
Y0042799
X-0023495Y0044069
X-0022225Y0043561
X-00226419Y0047502
X-00256894Y00462685
X-0026951Y0045493
X-00288543Y00443638
X-00283569Y0043692
X-0030385Y00433298
X-00318787Y0042243
X-0031242Y0041148
X-00333335Y00411047
X-00340719Y0039882
X-00347478Y00399163
X-0033782Y0038608
X-00361197Y00386793
X-00369294Y0037977
X-00374475Y00373952
X-00378819Y0036072
X-00387298Y00360655
X-00388344Y0034167
X-00399649Y00346919
X-00411512Y0033276
X-00416919Y0032262
X-00397869
X-00378819
X-00359769Y0036072
X-00350148Y00372863
X-0033655Y0035687
X-00295148Y00349896
X-00298482Y00334042
X-0028829Y0037084
Y0037973
Y0038862
X-00324508Y00398105
X-002159Y0029591
X-00201229Y00303286
X-00178794Y0030357
X-00174058Y00322061
X-00174282Y00344876
X-0016637Y0034036
X-00161036Y0035687
X-00149098Y00348662
X-0013335Y0032766
X-00133096Y0031616
X-00133366Y00309816
X-0013462Y0030353
X-0010668Y0030607
X-001016Y00300266
Y00293916
X-001016Y0032385
X-00102594Y0034167
X-00103378Y003683
X-0010541Y0039243
X-0010414Y0040132
X-0014351Y0039878
X-0015367Y0040513
X-0015651Y0041081
X-0014859Y0041656
X-0014224Y0042164
X-0014478Y0044069
X-00150219Y0043692
X-0016129Y0043561
Y0042672
X-00176705Y00417291
X-00186865Y00423641
X-0019685Y0042037
X-0020066Y0043561
X-0021082Y0044323
X-00210762Y00450792
X-0018288Y0045847
Y0046482
X-00178308Y0044196
X-0018034Y0039878
X-00205275Y00400515
X-0017225Y00369217
X-0016383Y0028575
X-0016891Y0027813
X-0017653Y00273812
X-0018669
X-00195577
X-0014859Y0027432
X-0015748Y002286
X-001524Y0022225
X-0013716Y0022352
X-0013335Y0021336
X-0014097
X-00136398Y0020574
X-00131636Y00201539
X-0014605Y0019685
X-00148351Y00190932
X-00148336Y001778
X-00153924Y0016764
X-00163141Y00182191
X-0016764Y0018669
X-00173077Y00192278
X-0018161Y0019685
X-0017966Y00184284
X-00173602Y00177412
X-00177026Y00170336
X-00173938Y00161362
X-00186953Y00178645
X-00195095Y00173963
X-0019177Y0019177
X-0018669Y0020955
X-002032Y0020574
X-0020571Y0021716
X-00197844Y0022737
X-00178794
X-0016256Y0020828
X-00124Y0021544
X-0012192Y001905
Y0018161
X-0009652Y0017145
X-000889
X-0008382Y0017653
X-0008001Y001651
X-0008509Y0016002
X-0009271
X-00054969Y0017022
X-0005207Y0019812
X-0004572Y0021336
X-0005207Y00251955
X-00074019Y0024642
X-0008382Y0022606
X-0009271Y0022733
Y0021971
Y0021209
X-00102594Y0022737
X-000254Y0024765
X-00016869Y0024642
X-0000762Y0024765
X0001905Y0024638
X0001905Y00253905
X0002354Y0025849
X0001143Y0025908
X0003556Y0026416
X00049806Y0026547
X00040281Y0024642
X0003751Y0028253
X0003302Y0028702
X0003937Y0029718
X00049806Y0030357
X00068856
X000889Y0029591
X00078381Y0028452
X00059331
X00040281Y0032262
X00021231
X00002181
X-00016869
X-00035919
X-00054969
X-0006858Y0031877
X-00068615Y00312374
X-0007366Y00303756
Y00297406
X-0007239Y0032512
X-00064494Y0034167
X-00045444
X-00079502Y0036195
Y0037211
X-0008128Y0037846
X-0007493Y0038227
X-000381Y00399288
X-00025146Y0039878
X-000127
X0Y00399137
X00012446Y00399034
X00026924Y0039878
X000381Y0037719
X00053735Y00373657
X0006604Y0036957
X00078734Y00367975
X0007493Y0034036
X0008001Y0033274
X00030756Y0034167
X00011706
X0000762Y0034925
X00063754Y00399542
X0009906Y0041021
X0010541
Y0041656
X0009906
X0011584Y0041129
X00116078Y00402082
X0014986Y004064
Y0041275
Y004191
X00154581Y0043692
X0011049Y0044831
X00112524Y00455166
X0011176Y0047244
X0011459Y00479552
X0010287Y0047879
X00097431Y0047502
X000889Y0047752
Y0047117
Y0046482
X000762Y0047117
X000635Y0046609
X000508Y0048641
X0004445Y0050165
X00036558
X0005715
X00066548Y00503936
X0008636Y0050673
X0008763Y00513592
X0008059Y0051435
X00094234Y00517906
X00110236Y00511048
X00127762Y0047879
X001397
X0015494Y0049911
X0016129
Y0050546
X0015494
X0016764Y0050292
X0007747Y0049149
X0002667Y0048895
X00024344Y00481838
X0002413Y0046863
X000127Y0046609
X000381Y0047625
X-00012758Y00480118
X-00008832Y00485082
X-00005545Y00500845
X-00000103Y00500743
X0000716Y0050246
X0000701Y00514453
X0001391Y0052445
X0004281Y00527153
X-000254Y005207
X-000381Y0051054
X-000508Y0049437
X-000635
X-000762
X-000889
X-00098234Y0050419
X-001143
Y0051054
Y0049784
X-00124206Y00494919
X-00131169Y0051312
X-00137329Y0051109
X-00155082Y00505986
X-00172646Y00500265
X-00101343Y00519424
X-000889Y0047337
X-000762
X-000635
X-000508
X-00121644Y0045597
X0014478Y0038989
X00135531Y0028452
X00154581
X00173631
X00164106Y0026547
X00145056
X00126006
X00106956
X00097431Y0024642
X0007747Y0023749
X00079317Y0022606
X0008636Y0022098
X0007493Y0020828
X00067887Y0021463
X0005461
X00056457Y002032
X0006223Y0019685
X00049806Y0018927
X00012767Y00198053
X0006604Y0022606
X00135531Y0024642
X00154581
X00173631
X00192681
X00211731
X00202206Y0026547
X00183156
X00192681Y0028452
X00211731
X00230781
X00249831
X00268881
X00287931
X00306981
X00326031
X00345081
X00364131
X00383181
X00373656Y0026547
X00354606
X00335556
X00316506
X00297456
X00278406
X00259356
X00240306
X00221256
X00249831Y0024642
X00287931
X00306981
X00326031
X00345081
X00383181
X00373656Y0030357
X00354606
X00335556
X00383181Y0032262
Y0036072
X00373952Y00374475
X00316506Y0037977
X0033276Y00411512
X00249831Y0039882
X00240306Y0037977
X00259356
X00240306Y0041787
X0022733Y0041402
X0021717Y004191
X0019431Y0041656
X00183706Y0041102
X0019939Y0046609
X0021082Y0047117
X00206441Y00487292
X00189309Y004942
X00223322Y00479791
X0023993Y00471705
X00256246Y00463044
X0025654Y0045593
X0027225Y00453819
X00249831Y0032262
T04
X-00511967Y00051196
X-00490132Y00045345
X-00468973Y00211652
X-00447138Y00205801
T05
X-0042418Y-0027178
X-0010033Y0019558
T06
X00123631Y0032262
Y0034762
X00148631
Y0032262
X00173631
Y0034762
X00198631
Y0032262
X00223631
Y0034762
X00263331
Y0032262
X00288331
X00313331
X00338331
Y0034762
X00313331
X00288331
X00363331
Y0032262
T07
X-002868Y-004096
X-004096Y002868
X002868Y004096
T08
X-00283782Y-0025849
X-00274801Y-0026747
X-00265821Y-00276451
Y-0025849
X-00256841Y-0026747
Y-00285431
X-00247861Y-00294411
X-0023888Y-00285431
Y-00303391
X-002299Y-00312372
X-0022092Y-00321352
Y-00303391
X-002299Y-00294411
X-00247861Y-00276451
X-00274801Y-0024951
X-00292762
X-00301742Y-0024053
X-00283782
X-0021194Y-00312372
X-00292762Y-00231549
X-00310722
X-00319703Y-00222569
X-00310722Y-00213589
X-00328683
Y-00195628
X-00337663Y-00186648
Y-00204609
X-00346643Y-00195628
X-00319703Y-00204609
X-00301742Y-00222569
X-000889Y0042545
Y0043815
X-000762
X-000635
X-000508
X-000381
X-000254
X-000127
X0
X000127
X000254
X000381
X000508
X000635
Y0042545
X000508
X000381
X000254
X000127
X0
X-000127
X-000254
X-000381
X-000508
X-000635
X-000762
X000762
X000889
Y0043815
X000762
T09
X-0022092Y-00312372
X-00337663Y-00195628
X-0008255Y004318
X0008255
T10
X-00381Y0000004
X-0035052Y0
T11
X00123631Y0025082
X00223631
X00263331
X00363331
M30
