G04*
G04 #@! TF.GenerationSoftware,Altium Limited,Altium Designer,24.1.2 (44)*
G04*
G04 Layer_Color=8421504*
%FSLAX44Y44*%
%MOMM*%
G71*
G04*
G04 #@! TF.SameCoordinates,E650615F-92BB-4AA2-81C1-946A8B7DB211*
G04*
G04*
G04 #@! TF.FilePolarity,Positive*
G04*
G01*
G75*
%ADD19R,0.5220X0.7250*%
%ADD20R,0.5000X0.5000*%
%ADD21R,0.2600X0.3200*%
%ADD22R,0.3500X0.4000*%
%ADD23C,0.3000*%
%ADD24R,0.5080X0.5588*%
%ADD25R,0.2500X0.3000*%
%ADD26R,0.3000X0.2500*%
%ADD27R,0.3600X0.2500*%
%ADD28R,0.4000X0.3500*%
%ADD29R,1.5000X5.4000*%
%ADD30R,0.3200X0.2600*%
%ADD31R,0.3500X0.1905*%
%ADD32R,0.6100X0.2700*%
%ADD33R,1.2500X1.3500*%
%ADD34C,0.3818*%
%ADD35R,0.7620X1.2700*%
%ADD36R,0.2800X0.5300*%
%ADD37R,0.5300X0.2800*%
%ADD38R,0.7400X1.6750*%
G04:AMPARAMS|DCode=39|XSize=1.143mm|YSize=0.7366mm|CornerRadius=0mm|HoleSize=0mm|Usage=FLASHONLY|Rotation=165.000|XOffset=0mm|YOffset=0mm|HoleType=Round|Shape=Rectangle|*
%AMROTATEDRECTD39*
4,1,4,0.6474,0.2078,0.4567,-0.5037,-0.6474,-0.2078,-0.4567,0.5037,0.6474,0.2078,0.0*
%
%ADD39ROTATEDRECTD39*%

%ADD40R,0.9500X0.9000*%
%ADD41R,0.9000X0.8000*%
%ADD42O,0.6000X1.4500*%
%ADD43O,1.4500X0.6000*%
%ADD44R,0.5588X0.5080*%
%ADD45R,1.1430X1.2700*%
%ADD46R,1.2700X1.1430*%
G04:AMPARAMS|DCode=47|XSize=0.2mm|YSize=0.35mm|CornerRadius=0mm|HoleSize=0mm|Usage=FLASHONLY|Rotation=135.000|XOffset=0mm|YOffset=0mm|HoleType=Round|Shape=Rectangle|*
%AMROTATEDRECTD47*
4,1,4,0.1945,0.0530,-0.0530,-0.1945,-0.1945,-0.0530,0.0530,0.1945,0.1945,0.0530,0.0*
%
%ADD47ROTATEDRECTD47*%

G04:AMPARAMS|DCode=48|XSize=0.28mm|YSize=0.75mm|CornerRadius=0.0504mm|HoleSize=0mm|Usage=FLASHONLY|Rotation=90.000|XOffset=0mm|YOffset=0mm|HoleType=Round|Shape=RoundedRectangle|*
%AMROUNDEDRECTD48*
21,1,0.2800,0.6492,0,0,90.0*
21,1,0.1792,0.7500,0,0,90.0*
1,1,0.1008,0.3246,0.0896*
1,1,0.1008,0.3246,-0.0896*
1,1,0.1008,-0.3246,-0.0896*
1,1,0.1008,-0.3246,0.0896*
%
%ADD48ROUNDEDRECTD48*%
%ADD49R,0.2000X0.3500*%
%ADD50R,0.8000X0.4000*%
%ADD51R,0.4682X0.4725*%
%ADD52R,1.6000X3.2000*%
%ADD53R,0.6500X0.9000*%
%ADD54R,0.7600X1.6700*%
G04:AMPARAMS|DCode=55|XSize=0.7mm|YSize=0.5mm|CornerRadius=0mm|HoleSize=0mm|Usage=FLASHONLY|Rotation=315.000|XOffset=0mm|YOffset=0mm|HoleType=Round|Shape=Rectangle|*
%AMROTATEDRECTD55*
4,1,4,-0.4243,0.0707,-0.0707,0.4243,0.4243,-0.0707,0.0707,-0.4243,-0.4243,0.0707,0.0*
%
%ADD55ROTATEDRECTD55*%

G04:AMPARAMS|DCode=56|XSize=3.43mm|YSize=1.78mm|CornerRadius=0mm|HoleSize=0mm|Usage=FLASHONLY|Rotation=135.000|XOffset=0mm|YOffset=0mm|HoleType=Round|Shape=Rectangle|*
%AMROTATEDRECTD56*
4,1,4,1.8420,-0.5834,0.5834,-1.8420,-1.8420,0.5834,-0.5834,1.8420,1.8420,-0.5834,0.0*
%
%ADD56ROTATEDRECTD56*%

%ADD57R,2.6670X2.5400*%
G04:AMPARAMS|DCode=58|XSize=0.28mm|YSize=0.85mm|CornerRadius=0.0504mm|HoleSize=0mm|Usage=FLASHONLY|Rotation=90.000|XOffset=0mm|YOffset=0mm|HoleType=Round|Shape=RoundedRectangle|*
%AMROUNDEDRECTD58*
21,1,0.2800,0.7492,0,0,90.0*
21,1,0.1792,0.8500,0,0,90.0*
1,1,0.1008,0.3746,0.0896*
1,1,0.1008,0.3746,-0.0896*
1,1,0.1008,-0.3746,-0.0896*
1,1,0.1008,-0.3746,0.0896*
%
%ADD58ROUNDEDRECTD58*%
%ADD59R,0.3500X0.6000*%
%ADD60R,0.3500X1.2500*%
%ADD61O,0.3500X1.2500*%
%ADD62O,1.2500X0.3500*%
%ADD63R,1.2500X0.3500*%
G36*
X184160Y490200D02*
X184160Y481350D01*
X177160D01*
X174010Y485150D01*
X163810D01*
X160660Y481350D01*
X153660D01*
Y490200D01*
X156210Y492750D01*
X181610D01*
X184160Y490200D01*
D02*
G37*
G36*
X184160Y462300D02*
X181610Y459750D01*
X156210D01*
X153660Y462300D01*
X153660Y471150D01*
X160660D01*
X163810Y467350D01*
X174010D01*
X177230Y471150D01*
X184160D01*
Y462300D01*
D02*
G37*
G36*
X-456313Y222591D02*
X-462690Y198792D01*
X-484771Y204709D01*
X-478394Y228507D01*
X-456313Y222591D01*
D02*
G37*
G36*
X-428834Y215228D02*
X-435211Y191429D01*
X-459009Y197806D01*
X-452633Y221605D01*
X-428834Y215228D01*
D02*
G37*
G36*
X-266940Y98346D02*
X-266940Y89496D01*
X-273940D01*
X-277090Y93296D01*
X-287290D01*
X-290510Y89496D01*
X-297440D01*
Y98346D01*
X-294890Y100896D01*
X-269490D01*
X-266940Y98346D01*
D02*
G37*
G36*
X-266940Y70446D02*
X-269490Y67896D01*
X-294890D01*
X-297440Y70446D01*
X-297440Y79296D01*
X-290440D01*
X-287290Y75496D01*
X-277090D01*
X-273940Y79296D01*
X-266940D01*
Y70446D01*
D02*
G37*
G36*
X-500096Y59191D02*
X-506473Y35392D01*
X-528554Y41309D01*
X-522177Y65107D01*
X-500096Y59191D01*
D02*
G37*
G36*
X-472617Y51828D02*
X-478994Y28029D01*
X-502792Y34406D01*
X-496415Y58205D01*
X-472617Y51828D01*
D02*
G37*
G36*
X-379641Y8161D02*
X-377071Y7276D01*
X-376000Y6440D01*
X-376000Y6440D01*
X-376000Y6440D01*
X-376000D01*
X-378153Y4300D01*
X-378809Y4672D01*
X-380248Y5108D01*
X-381752D01*
X-383191Y4672D01*
X-383847Y4300D01*
X-383847Y4300D01*
X-386000Y6440D01*
X-384929Y7276D01*
X-382359Y8161D01*
X-379641Y8161D01*
D02*
G37*
G36*
X-385270Y2887D02*
Y2887D01*
X-385642Y2231D01*
X-386078Y792D01*
Y-712D01*
X-385642Y-2151D01*
X-385270Y-2807D01*
X-387410Y-4960D01*
Y-4960D01*
X-388246Y-3889D01*
X-389131Y-1319D01*
X-389131Y1399D01*
X-388246Y3969D01*
X-387410Y5040D01*
X-385270Y2887D01*
D02*
G37*
G36*
X-374600Y5040D02*
X-373764Y3969D01*
X-372879Y1399D01*
X-372879Y-1319D01*
X-373764Y-3889D01*
X-374600Y-4960D01*
X-376740Y-2807D01*
X-376740Y-2807D01*
X-376369Y-2151D01*
X-375932Y-712D01*
Y792D01*
X-376368Y2231D01*
X-376740Y2887D01*
X-374600Y5040D01*
X-374600Y5040D01*
D02*
G37*
G36*
X-383191Y-4591D02*
X-381752Y-5028D01*
X-380248D01*
X-378809Y-4591D01*
X-378153Y-4220D01*
X-376000Y-6360D01*
X-376000Y-6360D01*
X-377071Y-7196D01*
X-379641Y-8080D01*
X-382359Y-8080D01*
X-384929Y-7196D01*
X-386000Y-6360D01*
X-383847Y-4220D01*
X-383191Y-4591D01*
D02*
G37*
D19*
X-393520Y8415D02*
D03*
Y-8335D02*
D03*
X-401740Y8415D02*
D03*
Y-8335D02*
D03*
D20*
X-282190Y71696D02*
D03*
X168910Y488950D02*
D03*
Y463550D02*
D03*
X-282190Y97096D02*
D03*
D21*
X-198280Y209550D02*
D03*
X-321150D02*
D03*
X-192880D02*
D03*
X-326550D02*
D03*
X219870Y408940D02*
D03*
X214470D02*
D03*
X97122Y506984D02*
D03*
X102522D02*
D03*
X-217010Y109220D02*
D03*
X-222410D02*
D03*
D22*
X-322120Y143510D02*
D03*
X-321440Y201396D02*
D03*
X-198580Y201930D02*
D03*
X-322120Y134620D02*
D03*
X220170Y400050D02*
D03*
X-278690Y110396D02*
D03*
X-328120Y143510D02*
D03*
X-327440Y201396D02*
D03*
X-192580Y201930D02*
D03*
X-328120Y134620D02*
D03*
X-130000Y223520D02*
D03*
X-323040Y-31750D02*
D03*
Y-40640D02*
D03*
X138890Y490220D02*
D03*
X138498Y499205D02*
D03*
X-277495Y318231D02*
D03*
X-168450Y435610D02*
D03*
X-215090D02*
D03*
X-372570Y43180D02*
D03*
X144890Y490220D02*
D03*
X144498Y499205D02*
D03*
X-124000Y223520D02*
D03*
X-317040Y-31750D02*
D03*
Y-40640D02*
D03*
X-271495Y318231D02*
D03*
X-174450Y435610D02*
D03*
X-209090D02*
D03*
X-366570Y43180D02*
D03*
X-395180Y-315440D02*
D03*
X-401180D02*
D03*
X30024Y526459D02*
D03*
X36024D02*
D03*
X-361140Y-280670D02*
D03*
X-355140D02*
D03*
X-362410Y-351790D02*
D03*
X-356410D02*
D03*
X-337360D02*
D03*
X-343360D02*
D03*
X-337360Y-280670D02*
D03*
X-343360D02*
D03*
X-240595Y109514D02*
D03*
X-234595D02*
D03*
X-272690Y110396D02*
D03*
X97076Y500634D02*
D03*
X103076D02*
D03*
X214170Y400050D02*
D03*
D23*
X-304940Y136396D02*
D03*
Y142896D02*
D03*
Y201396D02*
D03*
Y207896D02*
D03*
X-265940Y129896D02*
D03*
X-213940Y201396D02*
D03*
Y207896D02*
D03*
X-304940Y123396D02*
D03*
Y214396D02*
D03*
X-291940Y129896D02*
D03*
X-285440Y155896D02*
D03*
Y181896D02*
D03*
X-278940Y123396D02*
D03*
X-272440Y129896D02*
D03*
Y155896D02*
D03*
Y162396D02*
D03*
Y168896D02*
D03*
Y175396D02*
D03*
Y181896D02*
D03*
Y194896D02*
D03*
X-265940Y155896D02*
D03*
Y162396D02*
D03*
Y168896D02*
D03*
Y175396D02*
D03*
Y181896D02*
D03*
X-259440Y155896D02*
D03*
Y162396D02*
D03*
Y168896D02*
D03*
Y175396D02*
D03*
Y181896D02*
D03*
X-252940Y155896D02*
D03*
Y162396D02*
D03*
Y168896D02*
D03*
Y175396D02*
D03*
Y181896D02*
D03*
Y207896D02*
D03*
X-246440Y129896D02*
D03*
Y155896D02*
D03*
Y162396D02*
D03*
Y168896D02*
D03*
Y175396D02*
D03*
Y181896D02*
D03*
Y194896D02*
D03*
X-233440Y155896D02*
D03*
Y181896D02*
D03*
X-213940Y123396D02*
D03*
Y214396D02*
D03*
X-285440Y149396D02*
D03*
Y188396D02*
D03*
X-278940Y129896D02*
D03*
Y142896D02*
D03*
Y194896D02*
D03*
X-272440Y201396D02*
D03*
X-265940Y142896D02*
D03*
X-259440Y194896D02*
D03*
X-246440Y142896D02*
D03*
X-239940Y194896D02*
D03*
X-233440Y149396D02*
D03*
Y175396D02*
D03*
X-213940Y194896D02*
D03*
Y188396D02*
D03*
Y181896D02*
D03*
Y175396D02*
D03*
Y168896D02*
D03*
Y162396D02*
D03*
Y155896D02*
D03*
Y149396D02*
D03*
Y142896D02*
D03*
Y136396D02*
D03*
Y129896D02*
D03*
X-220440Y214396D02*
D03*
Y207896D02*
D03*
Y201396D02*
D03*
Y194896D02*
D03*
Y188396D02*
D03*
Y181896D02*
D03*
Y175396D02*
D03*
Y168896D02*
D03*
Y162396D02*
D03*
Y155896D02*
D03*
Y149396D02*
D03*
Y142896D02*
D03*
Y136396D02*
D03*
Y129896D02*
D03*
Y123396D02*
D03*
X-226940Y214396D02*
D03*
Y207896D02*
D03*
Y201396D02*
D03*
Y194896D02*
D03*
Y188396D02*
D03*
Y181896D02*
D03*
Y175396D02*
D03*
Y168896D02*
D03*
Y162396D02*
D03*
Y155896D02*
D03*
Y149396D02*
D03*
Y142896D02*
D03*
Y136396D02*
D03*
Y129896D02*
D03*
Y123396D02*
D03*
X-233440Y214396D02*
D03*
Y207896D02*
D03*
Y201396D02*
D03*
Y194896D02*
D03*
Y188396D02*
D03*
Y168896D02*
D03*
Y162396D02*
D03*
Y142896D02*
D03*
Y136396D02*
D03*
Y129896D02*
D03*
Y123396D02*
D03*
X-239940Y214396D02*
D03*
Y207896D02*
D03*
Y201396D02*
D03*
Y142896D02*
D03*
Y136396D02*
D03*
Y129896D02*
D03*
Y123396D02*
D03*
X-246440Y214396D02*
D03*
Y207896D02*
D03*
Y201396D02*
D03*
Y136396D02*
D03*
Y123396D02*
D03*
X-252940Y214396D02*
D03*
Y201396D02*
D03*
Y194896D02*
D03*
Y142896D02*
D03*
Y136396D02*
D03*
Y129896D02*
D03*
Y123396D02*
D03*
X-259440Y214396D02*
D03*
Y207896D02*
D03*
Y201396D02*
D03*
Y142896D02*
D03*
Y136396D02*
D03*
Y129896D02*
D03*
Y123396D02*
D03*
X-265940Y214396D02*
D03*
Y207896D02*
D03*
Y201396D02*
D03*
Y194896D02*
D03*
Y136396D02*
D03*
Y123396D02*
D03*
X-272440Y214396D02*
D03*
Y207896D02*
D03*
Y142896D02*
D03*
Y136396D02*
D03*
Y123396D02*
D03*
X-278940Y214396D02*
D03*
Y207896D02*
D03*
Y201396D02*
D03*
Y136396D02*
D03*
X-285440Y214396D02*
D03*
Y207896D02*
D03*
Y201396D02*
D03*
Y194896D02*
D03*
Y175396D02*
D03*
Y168896D02*
D03*
Y162396D02*
D03*
Y142896D02*
D03*
Y136396D02*
D03*
Y129896D02*
D03*
Y123396D02*
D03*
X-291940Y214396D02*
D03*
Y207896D02*
D03*
Y201396D02*
D03*
Y194896D02*
D03*
Y188396D02*
D03*
Y181896D02*
D03*
Y175396D02*
D03*
Y168896D02*
D03*
Y162396D02*
D03*
Y155896D02*
D03*
Y149396D02*
D03*
Y142896D02*
D03*
Y136396D02*
D03*
Y123396D02*
D03*
X-298440Y214396D02*
D03*
Y207896D02*
D03*
Y201396D02*
D03*
Y194896D02*
D03*
Y188396D02*
D03*
Y181896D02*
D03*
Y175396D02*
D03*
Y168896D02*
D03*
Y162396D02*
D03*
Y155896D02*
D03*
Y149396D02*
D03*
Y142896D02*
D03*
Y136396D02*
D03*
Y129896D02*
D03*
Y123396D02*
D03*
X-304940Y194896D02*
D03*
Y188396D02*
D03*
Y181896D02*
D03*
Y175396D02*
D03*
Y168896D02*
D03*
Y162396D02*
D03*
Y155896D02*
D03*
Y149396D02*
D03*
Y129896D02*
D03*
D24*
X-314690Y82820D02*
D03*
Y72972D02*
D03*
X-327690Y82820D02*
D03*
X-499110Y-152146D02*
D03*
X-476250Y-32004D02*
D03*
X-314690Y92472D02*
D03*
Y63320D02*
D03*
X-327690Y92472D02*
D03*
X-251460Y94234D02*
D03*
X-452120Y-32004D02*
D03*
X110490Y440436D02*
D03*
X-186865Y415767D02*
D03*
Y281655D02*
D03*
X-199390Y-42926D02*
D03*
X246380Y459486D02*
D03*
X-199390Y-33274D02*
D03*
X125730Y458724D02*
D03*
Y468376D02*
D03*
X-438150Y-39116D02*
D03*
Y-29464D02*
D03*
X246380Y449834D02*
D03*
X-186865Y291307D02*
D03*
Y406115D02*
D03*
X110490Y430784D02*
D03*
X137419Y469516D02*
D03*
Y459864D02*
D03*
X-452120Y-41656D02*
D03*
X-251460Y103886D02*
D03*
X-425450Y-29464D02*
D03*
Y-39116D02*
D03*
X-476250Y-41656D02*
D03*
X-499110Y-142494D02*
D03*
D25*
X-499570Y-102870D02*
D03*
X204930Y471170D02*
D03*
X-202390Y449580D02*
D03*
X-366570Y80010D02*
D03*
X198930Y481330D02*
D03*
X-499570Y-115570D02*
D03*
X-202390Y467360D02*
D03*
Y458470D02*
D03*
X-137970Y337820D02*
D03*
X-401780Y-19050D02*
D03*
X-395780D02*
D03*
X-366570Y68580D02*
D03*
X-372570D02*
D03*
Y80010D02*
D03*
X-488114Y0D02*
D03*
X-494114D02*
D03*
X-488490Y-15240D02*
D03*
X-494490D02*
D03*
X-372920Y-280670D02*
D03*
X-378920D02*
D03*
X69390Y513080D02*
D03*
X75390D02*
D03*
X-372920Y-351790D02*
D03*
X-378920D02*
D03*
X-326850D02*
D03*
X-320850D02*
D03*
X-325580Y-280670D02*
D03*
X-319580D02*
D03*
X-143970Y337820D02*
D03*
X-196390Y449580D02*
D03*
Y458470D02*
D03*
Y467360D02*
D03*
X204930Y481330D02*
D03*
X198930Y471170D02*
D03*
X97076Y494030D02*
D03*
X103076D02*
D03*
X198930Y406400D02*
D03*
X204930D02*
D03*
X-493570Y-115570D02*
D03*
X-489760Y-130810D02*
D03*
X-495760D02*
D03*
X-493570Y-102870D02*
D03*
D26*
X115570Y467820D02*
D03*
X-50800Y488140D02*
D03*
X-63500D02*
D03*
X-76200D02*
D03*
X-88900D02*
D03*
X-242570Y441150D02*
D03*
X-350520Y74470D02*
D03*
X-364490Y-5890D02*
D03*
X-3150Y524450D02*
D03*
Y518450D02*
D03*
X-364490Y-11890D02*
D03*
Y22400D02*
D03*
Y28400D02*
D03*
X-350520Y80470D02*
D03*
X-405800Y-299740D02*
D03*
Y-305740D02*
D03*
X-405130Y-330660D02*
D03*
Y-324660D02*
D03*
X-294640Y-328120D02*
D03*
Y-322120D02*
D03*
Y-301800D02*
D03*
Y-307800D02*
D03*
X-242570Y435150D02*
D03*
X105410Y467820D02*
D03*
Y461820D02*
D03*
X115570D02*
D03*
X-88900Y482140D02*
D03*
X-76200D02*
D03*
X-63500D02*
D03*
X-50800D02*
D03*
X7010Y518450D02*
D03*
Y524450D02*
D03*
D27*
X-395850Y44450D02*
D03*
X-379340Y101600D02*
D03*
Y114300D02*
D03*
Y127000D02*
D03*
Y139700D02*
D03*
Y152400D02*
D03*
X-395850Y82550D02*
D03*
Y69850D02*
D03*
Y57150D02*
D03*
X-404250D02*
D03*
Y69850D02*
D03*
Y82550D02*
D03*
X-387740Y152400D02*
D03*
Y139700D02*
D03*
Y127000D02*
D03*
Y114300D02*
D03*
Y101600D02*
D03*
X-404250Y44450D02*
D03*
D28*
X-316230Y253190D02*
D03*
X-254000Y439880D02*
D03*
X-176705Y410941D02*
D03*
Y286021D02*
D03*
X-410210Y28400D02*
D03*
X-400050D02*
D03*
X-189230Y-33480D02*
D03*
X-217170Y-38560D02*
D03*
X-180340Y-33480D02*
D03*
X-208280Y-38560D02*
D03*
X-488950Y-147780D02*
D03*
X-316230Y247190D02*
D03*
X-410210Y22400D02*
D03*
X-400050D02*
D03*
X-180340Y-27480D02*
D03*
X-208280Y-32560D02*
D03*
X-488950Y-141780D02*
D03*
X-217170Y-32560D02*
D03*
X-189230Y-27480D02*
D03*
X-395640Y-305740D02*
D03*
Y-299740D02*
D03*
X77470Y497380D02*
D03*
Y503380D02*
D03*
X-394970Y-324660D02*
D03*
Y-330660D02*
D03*
X-304800Y-322120D02*
D03*
Y-328120D02*
D03*
Y-309070D02*
D03*
Y-303070D02*
D03*
X-176705Y292021D02*
D03*
Y404941D02*
D03*
X-254000Y433880D02*
D03*
X-242570Y79200D02*
D03*
Y73200D02*
D03*
D29*
X-249090Y-17780D02*
D03*
Y-77470D02*
D03*
Y-137160D02*
D03*
X-302090Y-17780D02*
D03*
Y-77470D02*
D03*
Y-137160D02*
D03*
D30*
X-196850Y412910D02*
D03*
Y407510D02*
D03*
X-251460Y78900D02*
D03*
Y73500D02*
D03*
D31*
X-372820Y52860D02*
D03*
Y56360D02*
D03*
D32*
X-145520Y447160D02*
D03*
Y452160D02*
D03*
Y457160D02*
D03*
Y462160D02*
D03*
X-174520Y447160D02*
D03*
Y452160D02*
D03*
Y457160D02*
D03*
Y462160D02*
D03*
D33*
X-160020Y454660D02*
D03*
D34*
X-194025Y311251D02*
D03*
X-201525Y318751D02*
D03*
X-216525D02*
D03*
X-231525D02*
D03*
X-246525D02*
D03*
X-179025Y326251D02*
D03*
X-209025Y341251D02*
D03*
X-231525D02*
D03*
X-239025D02*
D03*
X-179025Y348751D02*
D03*
X-209025D02*
D03*
X-231525D02*
D03*
X-209025Y356251D02*
D03*
X-231525D02*
D03*
X-179025Y371251D02*
D03*
X-216525D02*
D03*
X-224025D02*
D03*
X-231525Y378751D02*
D03*
X-239025D02*
D03*
Y386251D02*
D03*
X-254025Y318751D02*
D03*
X-246525Y341251D02*
D03*
X-254025D02*
D03*
X-239025Y348751D02*
D03*
X-246525D02*
D03*
X-254025D02*
D03*
X-239025Y356251D02*
D03*
X-246525D02*
D03*
X-216525Y363751D02*
D03*
Y348751D02*
D03*
X-224025D02*
D03*
X-216525Y356251D02*
D03*
X-224025D02*
D03*
X-254025D02*
D03*
Y386251D02*
D03*
X-246525D02*
D03*
X-231525D02*
D03*
X-224025D02*
D03*
X-216525D02*
D03*
X-209025D02*
D03*
X-201525D02*
D03*
X-194025D02*
D03*
X-186525D02*
D03*
X-179025D02*
D03*
X-254025Y378751D02*
D03*
X-246525D02*
D03*
X-224025D02*
D03*
X-216525D02*
D03*
X-209025D02*
D03*
X-201525D02*
D03*
X-194025D02*
D03*
X-186525D02*
D03*
X-179025D02*
D03*
X-254025Y371251D02*
D03*
X-246525D02*
D03*
X-239025D02*
D03*
X-231525D02*
D03*
X-209025D02*
D03*
X-201525D02*
D03*
X-194025D02*
D03*
X-186525D02*
D03*
X-254025Y363751D02*
D03*
X-246525D02*
D03*
X-239025D02*
D03*
X-231525D02*
D03*
X-224025D02*
D03*
X-209025D02*
D03*
X-201525D02*
D03*
X-194025D02*
D03*
X-186525D02*
D03*
X-179025D02*
D03*
X-201525Y356251D02*
D03*
X-194025D02*
D03*
X-186525D02*
D03*
X-179025D02*
D03*
X-201525Y348751D02*
D03*
X-194025D02*
D03*
X-186525D02*
D03*
X-224025Y341251D02*
D03*
X-216525D02*
D03*
X-201525D02*
D03*
X-194025D02*
D03*
X-186525D02*
D03*
X-179025D02*
D03*
X-254025Y333751D02*
D03*
X-246525D02*
D03*
X-239025D02*
D03*
X-231525D02*
D03*
X-224025D02*
D03*
X-216525D02*
D03*
X-209025D02*
D03*
X-201525D02*
D03*
X-194025D02*
D03*
X-186525D02*
D03*
X-179025D02*
D03*
X-254025Y326251D02*
D03*
X-246525D02*
D03*
X-239025D02*
D03*
X-231525D02*
D03*
X-224025D02*
D03*
X-216525D02*
D03*
X-209025D02*
D03*
X-201525D02*
D03*
X-194025D02*
D03*
X-186525D02*
D03*
X-239025Y318751D02*
D03*
X-224025D02*
D03*
X-209025D02*
D03*
X-194025D02*
D03*
X-186525D02*
D03*
X-179025D02*
D03*
X-254025Y311251D02*
D03*
X-246525D02*
D03*
X-239025D02*
D03*
X-231525D02*
D03*
X-224025D02*
D03*
X-216525D02*
D03*
X-209025D02*
D03*
X-201525D02*
D03*
X-186525D02*
D03*
X-179025D02*
D03*
D35*
X-471170Y-146050D02*
D03*
D36*
X-214440Y-14740D02*
D03*
X-210140D02*
D03*
X-205840D02*
D03*
X-197240D02*
D03*
X-192940D02*
D03*
X-184340D02*
D03*
Y9660D02*
D03*
X-188640D02*
D03*
X-192940D02*
D03*
X-197240D02*
D03*
X-201540D02*
D03*
X-205840D02*
D03*
X-210140D02*
D03*
X-214440D02*
D03*
X-188640Y-14740D02*
D03*
X-201540D02*
D03*
D37*
X-214090Y3910D02*
D03*
Y-390D02*
D03*
Y-4690D02*
D03*
Y-8990D02*
D03*
X-184690Y-4690D02*
D03*
Y3910D02*
D03*
Y-390D02*
D03*
Y-8990D02*
D03*
D38*
X53340Y318125D02*
D03*
X66040D02*
D03*
X91440D02*
D03*
Y354975D02*
D03*
X78740Y318125D02*
D03*
Y354975D02*
D03*
X66040D02*
D03*
X53340D02*
D03*
D39*
X-411644Y169468D02*
D03*
X-431366Y95865D02*
D03*
X-426365Y173413D02*
D03*
X-441227Y59063D02*
D03*
X-455948Y63008D02*
D03*
X-437940Y71330D02*
D03*
X-452660Y75275D02*
D03*
X-434653Y83598D02*
D03*
X-449374Y87542D02*
D03*
X-446087Y99809D02*
D03*
X-428079Y108132D02*
D03*
X-442799Y112077D02*
D03*
X-424792Y120400D02*
D03*
X-439512Y124344D02*
D03*
X-421505Y132667D02*
D03*
X-436226Y136611D02*
D03*
X-418218Y144934D02*
D03*
X-432938Y148878D02*
D03*
X-414931Y157201D02*
D03*
X-429651Y161146D02*
D03*
D40*
X205740Y422400D02*
D03*
Y453900D02*
D03*
D41*
X-224670Y410560D02*
D03*
X-209670Y422560D02*
D03*
X-224670D02*
D03*
X-209670Y410560D02*
D03*
D42*
X-450850Y-113610D02*
D03*
X-476250D02*
D03*
X-463550D02*
D03*
X-438150D02*
D03*
X-476250Y-59110D02*
D03*
X-463550D02*
D03*
X-450850D02*
D03*
X-438150D02*
D03*
D43*
X180920Y430530D02*
D03*
Y405130D02*
D03*
Y417830D02*
D03*
Y443230D02*
D03*
X126420Y405130D02*
D03*
Y417830D02*
D03*
Y430530D02*
D03*
Y443230D02*
D03*
D44*
X-348234Y243840D02*
D03*
X-236474Y-349250D02*
D03*
X-296926Y43180D02*
D03*
X-287274D02*
D03*
X-269494Y388620D02*
D03*
X-279146D02*
D03*
X-269494Y379730D02*
D03*
X-279146D02*
D03*
X-269494Y370840D02*
D03*
X-279146D02*
D03*
X-246126Y-349250D02*
D03*
X-357886Y243840D02*
D03*
D45*
X-335915Y262890D02*
D03*
X-230505Y-367030D02*
D03*
X-249555D02*
D03*
X-354965Y262890D02*
D03*
D46*
X229870Y455295D02*
D03*
Y436245D02*
D03*
D47*
X58420Y210820D02*
D03*
X81280Y233680D02*
D03*
X84108Y230852D02*
D03*
X61248Y207992D02*
D03*
X69850Y222250D02*
D03*
X72678Y219422D02*
D03*
D48*
X124030Y502412D02*
D03*
Y492412D02*
D03*
Y497412D02*
D03*
X112530Y492412D02*
D03*
Y497412D02*
D03*
D49*
X-511079Y-15239D02*
D03*
X-511011Y1D02*
D03*
X-515011D02*
D03*
X-515079Y-15239D02*
D03*
D50*
X-211710Y95820D02*
D03*
X-227710Y87820D02*
D03*
Y95820D02*
D03*
Y79820D02*
D03*
Y71820D02*
D03*
X-211710Y87820D02*
D03*
Y79820D02*
D03*
Y71820D02*
D03*
D51*
X-97422Y493192D02*
D03*
X-105465D02*
D03*
D52*
X-327610Y-101600D02*
D03*
X-416610D02*
D03*
D53*
X-126630Y410210D02*
D03*
X-112130D02*
D03*
X-126630Y426720D02*
D03*
X-112130D02*
D03*
D54*
X-64770Y295170D02*
D03*
X-52070D02*
D03*
X-39370D02*
D03*
X-26670D02*
D03*
X-13970D02*
D03*
X-1270D02*
D03*
X11430D02*
D03*
X24130D02*
D03*
X-64770Y380470D02*
D03*
X-52070D02*
D03*
X-39370D02*
D03*
X-26670D02*
D03*
X-13970D02*
D03*
X-1270D02*
D03*
X11430D02*
D03*
X24130D02*
D03*
Y271250D02*
D03*
X11430D02*
D03*
X-1270D02*
D03*
X-13970D02*
D03*
X-26670D02*
D03*
X-39370D02*
D03*
X-52070D02*
D03*
X-64770D02*
D03*
X24130Y185950D02*
D03*
X11430D02*
D03*
X-1270D02*
D03*
X-13970D02*
D03*
X-26670D02*
D03*
X-39370D02*
D03*
X-52070D02*
D03*
X-64770D02*
D03*
D55*
X-316872Y405772D02*
D03*
X-310508Y399408D02*
D03*
X-329572Y393072D02*
D03*
X-323208Y386708D02*
D03*
X-342272Y380372D02*
D03*
X-335908Y374008D02*
D03*
X-354972Y367672D02*
D03*
X-348608Y361308D02*
D03*
D56*
X-365760Y341630D02*
D03*
X-289560Y416560D02*
D03*
D57*
X-447675Y-146050D02*
D03*
D58*
X113030Y502412D02*
D03*
D59*
X-366320Y54610D02*
D03*
D60*
X55810Y514000D02*
D03*
D61*
X49310D02*
D03*
X42810D02*
D03*
X36310D02*
D03*
X29810D02*
D03*
X23310D02*
D03*
X16810D02*
D03*
X55810Y457500D02*
D03*
X49310D02*
D03*
X42810D02*
D03*
X36310D02*
D03*
X29810D02*
D03*
X23310D02*
D03*
X16810D02*
D03*
D62*
X-321670Y-334940D02*
D03*
Y-328440D02*
D03*
Y-321940D02*
D03*
Y-315440D02*
D03*
Y-308940D02*
D03*
Y-302440D02*
D03*
Y-295940D02*
D03*
X-378170Y-334940D02*
D03*
Y-328440D02*
D03*
Y-321940D02*
D03*
Y-315440D02*
D03*
Y-308940D02*
D03*
Y-302440D02*
D03*
D63*
Y-295940D02*
D03*
M02*
