G04*
G04 #@! TF.GenerationSoftware,Altium Limited,Altium Designer,24.1.2 (44)*
G04*
G04 Layer_Physical_Order=3*
G04 Layer_Color=36540*
%FSLAX44Y44*%
%MOMM*%
G71*
G04*
G04 #@! TF.SameCoordinates,E650615F-92BB-4AA2-81C1-946A8B7DB211*
G04*
G04*
G04 #@! TF.FilePolarity,Positive*
G04*
G01*
G75*
%ADD11C,0.1524*%
%ADD17C,0.2540*%
%ADD98C,0.8000*%
%ADD99C,1.9050*%
%ADD100C,1.9000*%
%ADD105C,0.3048*%
%ADD106C,0.5080*%
%ADD107C,0.3556*%
%ADD108C,0.4064*%
%ADD113C,0.1270*%
%ADD114C,0.2032*%
%ADD118C,0.2286*%
%ADD121C,0.7620*%
%ADD123C,1.2700*%
%ADD124C,6.5000*%
%ADD154C,0.1016*%
G36*
X-302778Y184079D02*
X-302844Y184137D01*
X-302920Y184189D01*
X-303007Y184235D01*
X-303105Y184274D01*
X-303214Y184308D01*
X-303334Y184335D01*
X-303465Y184356D01*
X-303607Y184372D01*
X-303924Y184384D01*
Y185908D01*
X-303760Y185911D01*
X-303465Y185935D01*
X-303334Y185957D01*
X-303214Y185984D01*
X-303105Y186018D01*
X-303007Y186057D01*
X-302920Y186103D01*
X-302844Y186155D01*
X-302778Y186213D01*
Y184079D01*
D02*
G37*
G36*
X-178076Y182270D02*
X-178248Y182066D01*
X-178401Y181860D01*
X-178533Y181651D01*
X-178645Y181439D01*
X-178736Y181224D01*
X-178807Y181007D01*
X-178858Y180786D01*
X-178888Y180563D01*
X-178899Y180337D01*
X-180422D01*
X-180433Y180563D01*
X-180463Y180786D01*
X-180514Y181007D01*
X-180585Y181224D01*
X-180676Y181439D01*
X-180788Y181651D01*
X-180920Y181860D01*
X-181073Y182066D01*
X-181245Y182270D01*
X-181439Y182470D01*
X-177882D01*
X-178076Y182270D01*
D02*
G37*
G36*
X-302778Y177579D02*
X-302844Y177637D01*
X-302920Y177689D01*
X-303007Y177735D01*
X-303105Y177774D01*
X-303214Y177808D01*
X-303334Y177835D01*
X-303465Y177857D01*
X-303607Y177872D01*
X-303924Y177884D01*
Y179408D01*
X-303760Y179411D01*
X-303465Y179435D01*
X-303334Y179457D01*
X-303214Y179484D01*
X-303105Y179518D01*
X-303007Y179557D01*
X-302920Y179603D01*
X-302844Y179655D01*
X-302778Y179713D01*
Y177579D01*
D02*
G37*
G36*
X-336784Y176796D02*
X-336940Y176630D01*
X-337085Y176455D01*
X-337220Y176270D01*
X-337346Y176074D01*
X-337461Y175869D01*
X-337565Y175654D01*
X-337660Y175429D01*
X-337745Y175194D01*
X-337884Y174694D01*
X-339566Y177673D01*
X-339343Y177610D01*
X-339128Y177570D01*
X-338919Y177554D01*
X-338717Y177560D01*
X-338522Y177590D01*
X-338334Y177642D01*
X-338152Y177718D01*
X-337978Y177817D01*
X-337811Y177939D01*
X-337651Y178085D01*
X-336784Y176796D01*
D02*
G37*
G36*
X-288705Y177122D02*
X-288859Y177118D01*
X-289007Y177105D01*
X-289150Y177080D01*
X-289287Y177046D01*
X-289419Y177001D01*
X-289545Y176947D01*
X-289665Y176881D01*
X-289780Y176806D01*
X-289889Y176720D01*
X-289993Y176624D01*
X-290712Y177342D01*
X-290616Y177446D01*
X-290530Y177556D01*
X-290455Y177671D01*
X-290389Y177791D01*
X-290334Y177917D01*
X-290290Y178049D01*
X-290255Y178186D01*
X-290231Y178329D01*
X-290217Y178477D01*
X-290214Y178631D01*
X-288705Y177122D01*
D02*
G37*
G36*
X-186978Y176105D02*
X-187256Y176099D01*
X-187522Y176078D01*
X-187776Y176040D01*
X-188017Y175985D01*
X-188246Y175914D01*
X-188463Y175827D01*
X-188667Y175724D01*
X-188858Y175604D01*
X-189038Y175467D01*
X-189205Y175315D01*
X-190282Y176392D01*
X-190130Y176560D01*
X-189993Y176739D01*
X-189874Y176931D01*
X-189770Y177135D01*
X-189683Y177351D01*
X-189612Y177580D01*
X-189558Y177821D01*
X-189520Y178075D01*
X-189498Y178341D01*
X-189492Y178619D01*
X-186978Y176105D01*
D02*
G37*
G36*
X-330284Y173945D02*
X-330427Y173792D01*
X-330563Y173623D01*
X-330692Y173440D01*
X-330815Y173243D01*
X-330930Y173031D01*
X-331141Y172564D01*
X-331236Y172308D01*
X-331406Y171753D01*
X-333155Y174849D01*
X-332908Y174789D01*
X-332668Y174753D01*
X-332437Y174741D01*
X-332214Y174753D01*
X-331999Y174790D01*
X-331792Y174852D01*
X-331593Y174937D01*
X-331402Y175047D01*
X-331219Y175181D01*
X-331045Y175340D01*
X-330284Y173945D01*
D02*
G37*
G36*
X-310590Y175793D02*
X-310539Y175788D01*
X-310348Y175779D01*
X-309058Y175768D01*
Y174752D01*
X-310611Y174721D01*
Y175799D01*
X-310590Y175793D01*
D02*
G37*
G36*
X-302859Y171169D02*
X-302941Y171258D01*
X-303030Y171338D01*
X-303128Y171411D01*
X-303233Y171476D01*
X-303347Y171532D01*
X-303468Y171581D01*
X-303597Y171622D01*
X-303734Y171654D01*
X-303880Y171679D01*
X-304033Y171695D01*
X-303932Y172961D01*
X-303778Y172953D01*
X-303631Y172955D01*
X-303490Y172965D01*
X-303356Y172985D01*
X-303229Y173014D01*
X-303108Y173052D01*
X-302994Y173099D01*
X-302886Y173155D01*
X-302785Y173221D01*
X-302690Y173296D01*
X-302859Y171169D01*
D02*
G37*
G36*
X-288705Y170622D02*
X-288792Y170617D01*
X-288883Y170600D01*
X-288977Y170570D01*
X-289074Y170529D01*
X-289175Y170475D01*
X-289279Y170410D01*
X-289387Y170332D01*
X-289498Y170243D01*
X-289731Y170027D01*
X-290809Y171105D01*
X-290695Y171223D01*
X-290504Y171449D01*
X-290426Y171556D01*
X-290361Y171661D01*
X-290307Y171762D01*
X-290266Y171859D01*
X-290236Y171953D01*
X-290219Y172044D01*
X-290214Y172131D01*
X-288705Y170622D01*
D02*
G37*
G36*
X-193306Y172128D02*
X-193602Y171678D01*
X-193723Y171454D01*
X-193825Y171230D01*
X-193908Y171007D01*
X-193973Y170785D01*
X-194019Y170563D01*
X-194047Y170342D01*
X-194056Y170121D01*
X-195580Y169946D01*
X-195591Y170176D01*
X-195623Y170400D01*
X-195678Y170618D01*
X-195754Y170830D01*
X-195851Y171035D01*
X-195970Y171234D01*
X-196112Y171426D01*
X-196274Y171612D01*
X-196459Y171792D01*
X-196665Y171966D01*
X-193130Y172354D01*
X-193306Y172128D01*
D02*
G37*
G36*
X-325877Y171741D02*
X-325434Y171375D01*
X-325215Y171227D01*
X-324997Y171101D01*
X-324781Y170998D01*
X-324566Y170918D01*
X-324353Y170861D01*
X-324141Y170826D01*
X-323931Y170815D01*
Y169545D01*
X-324141Y169534D01*
X-324353Y169499D01*
X-324566Y169442D01*
X-324781Y169362D01*
X-324997Y169259D01*
X-325215Y169133D01*
X-325434Y168985D01*
X-325655Y168813D01*
X-325877Y168619D01*
X-326100Y168402D01*
Y171958D01*
X-325877Y171741D01*
D02*
G37*
G36*
X-177051Y167796D02*
X-177330Y167791D01*
X-177596Y167769D01*
X-177849Y167731D01*
X-178090Y167677D01*
X-178319Y167606D01*
X-178536Y167519D01*
X-178740Y167415D01*
X-178932Y167295D01*
X-179111Y167159D01*
X-179278Y167006D01*
X-180356Y168084D01*
X-180203Y168251D01*
X-180067Y168430D01*
X-179947Y168622D01*
X-179843Y168826D01*
X-179756Y169043D01*
X-179685Y169272D01*
X-179631Y169513D01*
X-179593Y169766D01*
X-179571Y170032D01*
X-179566Y170311D01*
X-177051Y167796D01*
D02*
G37*
G36*
X-396265Y162560D02*
X-396544Y162555D01*
X-396810Y162533D01*
X-397063Y162495D01*
X-397304Y162441D01*
X-397533Y162370D01*
X-397750Y162283D01*
X-397954Y162179D01*
X-398146Y162059D01*
X-398325Y161923D01*
X-398492Y161770D01*
X-399570Y162848D01*
X-399417Y163015D01*
X-399281Y163194D01*
X-399161Y163386D01*
X-399057Y163590D01*
X-398970Y163807D01*
X-398899Y164035D01*
X-398845Y164277D01*
X-398807Y164530D01*
X-398785Y164796D01*
X-398780Y165075D01*
X-396265Y162560D01*
D02*
G37*
G36*
X-296113Y161151D02*
X-295887Y160959D01*
X-295779Y160882D01*
X-295675Y160816D01*
X-295574Y160763D01*
X-295477Y160722D01*
X-295383Y160692D01*
X-295292Y160675D01*
X-295205Y160670D01*
X-296714Y159161D01*
X-296719Y159248D01*
X-296736Y159339D01*
X-296766Y159433D01*
X-296807Y159530D01*
X-296860Y159631D01*
X-296926Y159735D01*
X-297003Y159843D01*
X-297093Y159954D01*
X-297309Y160187D01*
X-296231Y161264D01*
X-296113Y161151D01*
D02*
G37*
G36*
X-302778Y158079D02*
X-302843Y158137D01*
X-302920Y158189D01*
X-303007Y158235D01*
X-303105Y158274D01*
X-303214Y158308D01*
X-303334Y158335D01*
X-303465Y158357D01*
X-303607Y158372D01*
X-303924Y158384D01*
Y159908D01*
X-303760Y159911D01*
X-303465Y159935D01*
X-303334Y159957D01*
X-303214Y159984D01*
X-303105Y160018D01*
X-303007Y160057D01*
X-302920Y160103D01*
X-302843Y160155D01*
X-302778Y160213D01*
Y158079D01*
D02*
G37*
G36*
X-222162Y158977D02*
X-222149Y158829D01*
X-222125Y158686D01*
X-222090Y158549D01*
X-222045Y158417D01*
X-221991Y158291D01*
X-221925Y158171D01*
X-221850Y158056D01*
X-221764Y157947D01*
X-221668Y157843D01*
X-222387Y157124D01*
X-222491Y157220D01*
X-222600Y157306D01*
X-222715Y157381D01*
X-222835Y157446D01*
X-222962Y157501D01*
X-223093Y157546D01*
X-223230Y157580D01*
X-223373Y157605D01*
X-223521Y157618D01*
X-223675Y157622D01*
X-222166Y159131D01*
X-222162Y158977D01*
D02*
G37*
G36*
X-333639Y158022D02*
X-333587Y158017D01*
X-333396Y158011D01*
X-332106Y158020D01*
X-332090Y157004D01*
X-333643Y156949D01*
X-333660Y158027D01*
X-333639Y158022D01*
D02*
G37*
G36*
X-197866Y154432D02*
X-198628Y153670D01*
X-198639Y153689D01*
X-198671Y153728D01*
X-198800Y153870D01*
X-199704Y154790D01*
X-198986Y155508D01*
X-197866Y154432D01*
D02*
G37*
G36*
X-175735Y154531D02*
X-175727Y154513D01*
X-175710Y154486D01*
X-175683Y154452D01*
X-175603Y154359D01*
X-175332Y154078D01*
X-176410Y153000D01*
X-177110Y153728D01*
X-175733Y154542D01*
X-175735Y154531D01*
D02*
G37*
G36*
X-338062Y156081D02*
X-337891Y155869D01*
X-337714Y155681D01*
X-337530Y155518D01*
X-337340Y155380D01*
X-337144Y155267D01*
X-336942Y155180D01*
X-336734Y155117D01*
X-336520Y155079D01*
X-336299Y155067D01*
X-336568Y153797D01*
X-336762Y153787D01*
X-336965Y153758D01*
X-337179Y153710D01*
X-337401Y153643D01*
X-337634Y153556D01*
X-337876Y153451D01*
X-338388Y153181D01*
X-338658Y153018D01*
X-338938Y152835D01*
X-338227Y156319D01*
X-338062Y156081D01*
D02*
G37*
G36*
X-296389Y154572D02*
X-296280Y154486D01*
X-296165Y154410D01*
X-296045Y154345D01*
X-295919Y154290D01*
X-295787Y154246D01*
X-295650Y154211D01*
X-295507Y154187D01*
X-295359Y154173D01*
X-295205Y154170D01*
X-296714Y152661D01*
X-296717Y152815D01*
X-296731Y152963D01*
X-296755Y153106D01*
X-296790Y153243D01*
X-296834Y153374D01*
X-296889Y153500D01*
X-296954Y153621D01*
X-297030Y153736D01*
X-297116Y153845D01*
X-297212Y153949D01*
X-296493Y154668D01*
X-296389Y154572D01*
D02*
G37*
G36*
X-302778Y151579D02*
X-302889Y151685D01*
X-303004Y151780D01*
X-303122Y151864D01*
X-303243Y151937D01*
X-303368Y151998D01*
X-303496Y152049D01*
X-303627Y152088D01*
X-303762Y152116D01*
X-303900Y152132D01*
X-304041Y152138D01*
Y153154D01*
X-303900Y153160D01*
X-303762Y153176D01*
X-303627Y153204D01*
X-303496Y153243D01*
X-303368Y153294D01*
X-303243Y153355D01*
X-303122Y153428D01*
X-303004Y153512D01*
X-302889Y153607D01*
X-302778Y153713D01*
Y151579D01*
D02*
G37*
G36*
X-352215Y152531D02*
X-352035Y152395D01*
X-351843Y152277D01*
X-351639Y152176D01*
X-351423Y152092D01*
X-351195Y152025D01*
X-350955Y151976D01*
X-350703Y151945D01*
X-350439Y151931D01*
X-350163Y151934D01*
X-352595Y149340D01*
X-352609Y149620D01*
X-352639Y149888D01*
X-352683Y150143D01*
X-352743Y150385D01*
X-352818Y150615D01*
X-352909Y150831D01*
X-353015Y151035D01*
X-353136Y151227D01*
X-353273Y151405D01*
X-353424Y151571D01*
X-352383Y152685D01*
X-352215Y152531D01*
D02*
G37*
G36*
X-311878Y150938D02*
X-311882Y150823D01*
X-311869Y150706D01*
X-311841Y150587D01*
X-311796Y150466D01*
X-311736Y150343D01*
X-311659Y150218D01*
X-311567Y150091D01*
X-311458Y149962D01*
X-311334Y149830D01*
X-312052Y149112D01*
X-312167Y149218D01*
X-312279Y149307D01*
X-312390Y149380D01*
X-312500Y149436D01*
X-312609Y149475D01*
X-312716Y149497D01*
X-312821Y149502D01*
X-312926Y149490D01*
X-313028Y149462D01*
X-313130Y149417D01*
X-311859Y151050D01*
X-311878Y150938D01*
D02*
G37*
G36*
X-119878Y148501D02*
X-119847Y148278D01*
X-119797Y148057D01*
X-119725Y147840D01*
X-119634Y147625D01*
X-119522Y147413D01*
X-119390Y147204D01*
X-119238Y146998D01*
X-119065Y146795D01*
X-118872Y146594D01*
X-122428D01*
X-122235Y146795D01*
X-122062Y146998D01*
X-121910Y147204D01*
X-121778Y147413D01*
X-121666Y147625D01*
X-121575Y147840D01*
X-121503Y148057D01*
X-121453Y148278D01*
X-121422Y148501D01*
X-121412Y148727D01*
X-119888D01*
X-119878Y148501D01*
D02*
G37*
G36*
X-342455Y146005D02*
X-342604Y145844D01*
X-342741Y145669D01*
X-342865Y145480D01*
X-342979Y145277D01*
X-343080Y145061D01*
X-343169Y144831D01*
X-343246Y144587D01*
X-343312Y144330D01*
X-343365Y144059D01*
X-343407Y143774D01*
X-345569Y146597D01*
X-345303Y146569D01*
X-345047Y146561D01*
X-344802Y146573D01*
X-344568Y146606D01*
X-344344Y146659D01*
X-344131Y146733D01*
X-343928Y146827D01*
X-343736Y146942D01*
X-343554Y147078D01*
X-343382Y147233D01*
X-342455Y146005D01*
D02*
G37*
G36*
X-296389Y148072D02*
X-296280Y147986D01*
X-296165Y147910D01*
X-296045Y147845D01*
X-295919Y147790D01*
X-295787Y147746D01*
X-295650Y147711D01*
X-295507Y147687D01*
X-295359Y147673D01*
X-295205Y147670D01*
X-296714Y146161D01*
X-296717Y146315D01*
X-296731Y146463D01*
X-296755Y146606D01*
X-296790Y146743D01*
X-296834Y146874D01*
X-296889Y147000D01*
X-296954Y147121D01*
X-297030Y147236D01*
X-297116Y147345D01*
X-297212Y147449D01*
X-296493Y148168D01*
X-296389Y148072D01*
D02*
G37*
G36*
X-216013Y147131D02*
X-215918Y147057D01*
X-215815Y146993D01*
X-215705Y146936D01*
X-215587Y146889D01*
X-215462Y146850D01*
X-215330Y146820D01*
X-215191Y146798D01*
X-215044Y146785D01*
X-214890Y146781D01*
Y145511D01*
X-215044Y145507D01*
X-215191Y145494D01*
X-215330Y145472D01*
X-215462Y145442D01*
X-215587Y145403D01*
X-215705Y145356D01*
X-215815Y145299D01*
X-215918Y145235D01*
X-216013Y145161D01*
X-216102Y145079D01*
Y147213D01*
X-216013Y147131D01*
D02*
G37*
G36*
X-302778Y145079D02*
X-302843Y145137D01*
X-302920Y145189D01*
X-303007Y145235D01*
X-303105Y145274D01*
X-303214Y145308D01*
X-303334Y145335D01*
X-303465Y145357D01*
X-303607Y145372D01*
X-303924Y145384D01*
Y146908D01*
X-303760Y146911D01*
X-303465Y146935D01*
X-303334Y146957D01*
X-303214Y146984D01*
X-303105Y147018D01*
X-303007Y147057D01*
X-302920Y147103D01*
X-302843Y147155D01*
X-302778Y147213D01*
Y145079D01*
D02*
G37*
G36*
X-205674Y144250D02*
X-205742Y144489D01*
X-205828Y144704D01*
X-205932Y144893D01*
X-206054Y145057D01*
X-206194Y145196D01*
X-206353Y145309D01*
X-206530Y145397D01*
X-206725Y145461D01*
X-206938Y145498D01*
X-207169Y145511D01*
X-206343Y146781D01*
X-206160Y146786D01*
X-205757Y146823D01*
X-205536Y146856D01*
X-204801Y147010D01*
X-204250Y147160D01*
X-203955Y147249D01*
X-205674Y144250D01*
D02*
G37*
G36*
X-361937Y147096D02*
X-361907Y146828D01*
X-361863Y146573D01*
X-361803Y146331D01*
X-361727Y146101D01*
X-361637Y145885D01*
X-361531Y145681D01*
X-361410Y145489D01*
X-361273Y145311D01*
X-361122Y145145D01*
X-362163Y144031D01*
X-362331Y144184D01*
X-362511Y144320D01*
X-362703Y144439D01*
X-362907Y144540D01*
X-363123Y144624D01*
X-363351Y144691D01*
X-363591Y144740D01*
X-363843Y144771D01*
X-364107Y144785D01*
X-364383Y144782D01*
X-361951Y147376D01*
X-361937Y147096D01*
D02*
G37*
G36*
X-338113Y140215D02*
X-338241Y140074D01*
X-338364Y139912D01*
X-338481Y139729D01*
X-338593Y139525D01*
X-338700Y139301D01*
X-338897Y138789D01*
X-338988Y138502D01*
X-339154Y137865D01*
X-341016Y140894D01*
X-340736Y140835D01*
X-340469Y140798D01*
X-340215Y140785D01*
X-339973Y140794D01*
X-339744Y140827D01*
X-339528Y140882D01*
X-339324Y140961D01*
X-339133Y141063D01*
X-338954Y141187D01*
X-338788Y141335D01*
X-338113Y140215D01*
D02*
G37*
G36*
X-303151Y141394D02*
X-303038Y141302D01*
X-302924Y141225D01*
X-302812Y141163D01*
X-302699Y141115D01*
X-302587Y141083D01*
X-302475Y141065D01*
X-302364Y141062D01*
X-302253Y141074D01*
X-302142Y141101D01*
X-303154Y139223D01*
X-303188Y139328D01*
X-303230Y139433D01*
X-303281Y139539D01*
X-303339Y139645D01*
X-303406Y139753D01*
X-303563Y139969D01*
X-303654Y140079D01*
X-303860Y140300D01*
X-303265Y141501D01*
X-303151Y141394D01*
D02*
G37*
G36*
X-262705Y138122D02*
X-262859Y138118D01*
X-263007Y138105D01*
X-263150Y138081D01*
X-263287Y138046D01*
X-263418Y138001D01*
X-263545Y137947D01*
X-263665Y137881D01*
X-263780Y137806D01*
X-263889Y137720D01*
X-263993Y137624D01*
X-264712Y138343D01*
X-264616Y138447D01*
X-264530Y138556D01*
X-264454Y138671D01*
X-264389Y138791D01*
X-264334Y138917D01*
X-264290Y139049D01*
X-264255Y139186D01*
X-264231Y139329D01*
X-264217Y139477D01*
X-264214Y139631D01*
X-262705Y138122D01*
D02*
G37*
G36*
X-295205D02*
X-295359Y138118D01*
X-295507Y138105D01*
X-295650Y138081D01*
X-295787Y138046D01*
X-295919Y138001D01*
X-296045Y137947D01*
X-296165Y137881D01*
X-296280Y137806D01*
X-296389Y137720D01*
X-296493Y137624D01*
X-297212Y138343D01*
X-297116Y138447D01*
X-297030Y138556D01*
X-296954Y138671D01*
X-296889Y138791D01*
X-296834Y138917D01*
X-296790Y139049D01*
X-296755Y139186D01*
X-296731Y139329D01*
X-296717Y139477D01*
X-296714Y139631D01*
X-295205Y138122D01*
D02*
G37*
G36*
X-249705Y138122D02*
X-249826Y138118D01*
X-249945Y138102D01*
X-250064Y138075D01*
X-250181Y138037D01*
X-250298Y137987D01*
X-250414Y137927D01*
X-250529Y137854D01*
X-250642Y137771D01*
X-250755Y137677D01*
X-250867Y137571D01*
X-251765Y138469D01*
X-251659Y138581D01*
X-251565Y138694D01*
X-251481Y138807D01*
X-251409Y138922D01*
X-251349Y139038D01*
X-251299Y139155D01*
X-251261Y139272D01*
X-251234Y139391D01*
X-251218Y139510D01*
X-251214Y139631D01*
X-249705Y138122D01*
D02*
G37*
G36*
X-215116Y134326D02*
X-215229Y134208D01*
X-215418Y133982D01*
X-215492Y133873D01*
X-215555Y133768D01*
X-215604Y133666D01*
X-215640Y133568D01*
X-215664Y133472D01*
X-215675Y133380D01*
X-215673Y133291D01*
X-217305Y134666D01*
X-217222Y134677D01*
X-217136Y134701D01*
X-217045Y134735D01*
X-216951Y134781D01*
X-216852Y134839D01*
X-216750Y134908D01*
X-216643Y134988D01*
X-216419Y135183D01*
X-216301Y135297D01*
X-215116Y134326D01*
D02*
G37*
G36*
X-230205Y131622D02*
X-230359Y131618D01*
X-230507Y131605D01*
X-230650Y131580D01*
X-230787Y131546D01*
X-230919Y131502D01*
X-231045Y131447D01*
X-231165Y131381D01*
X-231280Y131306D01*
X-231389Y131220D01*
X-231493Y131124D01*
X-232212Y131843D01*
X-232116Y131946D01*
X-232030Y132056D01*
X-231955Y132171D01*
X-231889Y132291D01*
X-231834Y132417D01*
X-231790Y132549D01*
X-231755Y132686D01*
X-231731Y132829D01*
X-231717Y132977D01*
X-231714Y133131D01*
X-230205Y131622D01*
D02*
G37*
G36*
X-248162Y132977D02*
X-248149Y132829D01*
X-248125Y132686D01*
X-248090Y132549D01*
X-248046Y132417D01*
X-247991Y132291D01*
X-247925Y132171D01*
X-247850Y132056D01*
X-247764Y131946D01*
X-247668Y131843D01*
X-248387Y131124D01*
X-248491Y131220D01*
X-248600Y131306D01*
X-248715Y131381D01*
X-248835Y131447D01*
X-248962Y131502D01*
X-249093Y131546D01*
X-249230Y131580D01*
X-249373Y131605D01*
X-249521Y131618D01*
X-249675Y131622D01*
X-248166Y133131D01*
X-248162Y132977D01*
D02*
G37*
G36*
X-282205Y131622D02*
X-282359Y131618D01*
X-282507Y131605D01*
X-282650Y131580D01*
X-282787Y131546D01*
X-282918Y131501D01*
X-283044Y131447D01*
X-283165Y131381D01*
X-283280Y131306D01*
X-283389Y131220D01*
X-283493Y131124D01*
X-284212Y131842D01*
X-284116Y131946D01*
X-284030Y132056D01*
X-283955Y132171D01*
X-283889Y132291D01*
X-283834Y132417D01*
X-283790Y132549D01*
X-283755Y132686D01*
X-283731Y132829D01*
X-283717Y132977D01*
X-283714Y133131D01*
X-282205Y131622D01*
D02*
G37*
G36*
X-288705D02*
X-288859Y131618D01*
X-289007Y131605D01*
X-289150Y131580D01*
X-289287Y131546D01*
X-289418Y131501D01*
X-289545Y131447D01*
X-289665Y131381D01*
X-289780Y131306D01*
X-289889Y131220D01*
X-289993Y131124D01*
X-290712Y131842D01*
X-290616Y131946D01*
X-290530Y132056D01*
X-290455Y132171D01*
X-290389Y132291D01*
X-290334Y132417D01*
X-290290Y132549D01*
X-290255Y132686D01*
X-290231Y132829D01*
X-290217Y132977D01*
X-290214Y133131D01*
X-288705Y131622D01*
D02*
G37*
G36*
X-295205D02*
X-295359Y131618D01*
X-295507Y131605D01*
X-295650Y131580D01*
X-295787Y131546D01*
X-295919Y131501D01*
X-296045Y131447D01*
X-296165Y131381D01*
X-296280Y131306D01*
X-296389Y131220D01*
X-296493Y131124D01*
X-297212Y131842D01*
X-297116Y131946D01*
X-297030Y132056D01*
X-296954Y132171D01*
X-296889Y132291D01*
X-296834Y132417D01*
X-296790Y132549D01*
X-296755Y132686D01*
X-296731Y132829D01*
X-296717Y132977D01*
X-296714Y133131D01*
X-295205Y131622D01*
D02*
G37*
G36*
X-261162Y133010D02*
X-261146Y132891D01*
X-261119Y132772D01*
X-261081Y132654D01*
X-261031Y132538D01*
X-260970Y132422D01*
X-260898Y132307D01*
X-260815Y132193D01*
X-260721Y132081D01*
X-260615Y131969D01*
X-261513Y131071D01*
X-261625Y131177D01*
X-261738Y131271D01*
X-261851Y131354D01*
X-261966Y131426D01*
X-262082Y131487D01*
X-262199Y131537D01*
X-262316Y131575D01*
X-262435Y131602D01*
X-262554Y131618D01*
X-262675Y131622D01*
X-261166Y133131D01*
X-261162Y133010D01*
D02*
G37*
G36*
X-362152Y133569D02*
X-362197Y133335D01*
X-362215Y133109D01*
X-362208Y132891D01*
X-362176Y132679D01*
X-362119Y132475D01*
X-362035Y132277D01*
X-361927Y132087D01*
X-361793Y131904D01*
X-361634Y131729D01*
X-363084Y131024D01*
X-363235Y131164D01*
X-363400Y131300D01*
X-363580Y131430D01*
X-363775Y131555D01*
X-364208Y131790D01*
X-364448Y131900D01*
X-364969Y132103D01*
X-365253Y132197D01*
X-362083Y133809D01*
X-362152Y133569D01*
D02*
G37*
G36*
X-209681Y131992D02*
X-209733Y131916D01*
X-209779Y131829D01*
X-209818Y131731D01*
X-209852Y131622D01*
X-209879Y131502D01*
X-209900Y131371D01*
X-209916Y131229D01*
X-209928Y130912D01*
X-211452D01*
X-211455Y131076D01*
X-211479Y131371D01*
X-211501Y131502D01*
X-211528Y131622D01*
X-211562Y131731D01*
X-211601Y131829D01*
X-211647Y131916D01*
X-211699Y131992D01*
X-211757Y132058D01*
X-209623D01*
X-209681Y131992D01*
D02*
G37*
G36*
X-307837Y132061D02*
X-307805Y132022D01*
X-307676Y131880D01*
X-306772Y130960D01*
X-307490Y130241D01*
X-308610Y131318D01*
X-307848Y132080D01*
X-307837Y132061D01*
D02*
G37*
G36*
X-340863Y132371D02*
X-340420Y132005D01*
X-340201Y131856D01*
X-339983Y131731D01*
X-339767Y131628D01*
X-339552Y131548D01*
X-339339Y131491D01*
X-339127Y131456D01*
X-338917Y131445D01*
Y130175D01*
X-339127Y130164D01*
X-339339Y130129D01*
X-339552Y130072D01*
X-339767Y129992D01*
X-339983Y129889D01*
X-340201Y129763D01*
X-340420Y129615D01*
X-340641Y129444D01*
X-340863Y129249D01*
X-341086Y129032D01*
Y132588D01*
X-340863Y132371D01*
D02*
G37*
G36*
X-268133Y125539D02*
X-268141Y125503D01*
X-268149Y125450D01*
X-268161Y125292D01*
X-268174Y124769D01*
X-268174Y124596D01*
X-270206D01*
X-270257Y125558D01*
X-268123D01*
X-268133Y125539D01*
D02*
G37*
G36*
X-301705Y125122D02*
X-301792Y125117D01*
X-301883Y125100D01*
X-301977Y125070D01*
X-302074Y125029D01*
X-302175Y124975D01*
X-302279Y124910D01*
X-302387Y124832D01*
X-302498Y124743D01*
X-302731Y124527D01*
X-303809Y125605D01*
X-303695Y125723D01*
X-303503Y125949D01*
X-303426Y126056D01*
X-303360Y126161D01*
X-303307Y126262D01*
X-303266Y126359D01*
X-303236Y126453D01*
X-303219Y126544D01*
X-303214Y126631D01*
X-301705Y125122D01*
D02*
G37*
G36*
X-229205Y125469D02*
X-229279Y125374D01*
X-229343Y125271D01*
X-229400Y125161D01*
X-229447Y125043D01*
X-229486Y124918D01*
X-229516Y124786D01*
X-229538Y124647D01*
X-229551Y124500D01*
X-229555Y124346D01*
X-230825D01*
X-230829Y124500D01*
X-230842Y124647D01*
X-230864Y124786D01*
X-230894Y124918D01*
X-230933Y125043D01*
X-230980Y125161D01*
X-231036Y125271D01*
X-231101Y125374D01*
X-231175Y125469D01*
X-231257Y125558D01*
X-229123D01*
X-229205Y125469D01*
D02*
G37*
G36*
X-398446Y124604D02*
X-398517Y124569D01*
X-398582Y124518D01*
X-398638Y124451D01*
X-398687Y124367D01*
X-398729Y124267D01*
X-398763Y124150D01*
X-398789Y124017D01*
X-398808Y123868D01*
X-398819Y123702D01*
X-398823Y123520D01*
X-400347D01*
X-400350Y123739D01*
X-400398Y124283D01*
X-400426Y124427D01*
X-400461Y124552D01*
X-400502Y124658D01*
X-400550Y124746D01*
X-400604Y124815D01*
X-400664Y124865D01*
X-398446Y124604D01*
D02*
G37*
G36*
X-291401Y117538D02*
X-292480D01*
X-292474Y117559D01*
X-292468Y117610D01*
X-292460Y117802D01*
X-292449Y119092D01*
X-291432D01*
X-291401Y117538D01*
D02*
G37*
G36*
X-284976Y116343D02*
X-286054D01*
X-286048Y116365D01*
X-286043Y116416D01*
X-286034Y116607D01*
X-286023Y117897D01*
X-285007D01*
X-284976Y116343D01*
D02*
G37*
G36*
X-252345Y115318D02*
X-252309Y115105D01*
X-252248Y114893D01*
X-252164Y114685D01*
X-252055Y114479D01*
X-251922Y114275D01*
X-251765Y114074D01*
X-251584Y113875D01*
X-251378Y113679D01*
X-251148Y113486D01*
X-254686Y113119D01*
X-254485Y113372D01*
X-254146Y113861D01*
X-254008Y114097D01*
X-253892Y114327D01*
X-253796Y114553D01*
X-253722Y114772D01*
X-253669Y114986D01*
X-253638Y115195D01*
X-253627Y115398D01*
X-252357Y115534D01*
X-252345Y115318D01*
D02*
G37*
G36*
X-162245Y114825D02*
X-162418Y114622D01*
X-162570Y114416D01*
X-162702Y114207D01*
X-162814Y113995D01*
X-162905Y113780D01*
X-162977Y113563D01*
X-163027Y113342D01*
X-163058Y113119D01*
X-163068Y112893D01*
X-164592D01*
X-164602Y113119D01*
X-164633Y113342D01*
X-164683Y113563D01*
X-164755Y113780D01*
X-164846Y113995D01*
X-164958Y114207D01*
X-165090Y114416D01*
X-165242Y114622D01*
X-165415Y114825D01*
X-165608Y115026D01*
X-162052D01*
X-162245Y114825D01*
D02*
G37*
G36*
X-260825Y113416D02*
X-261025Y113228D01*
X-261204Y113035D01*
X-261361Y112838D01*
X-261498Y112637D01*
X-261613Y112431D01*
X-261708Y112220D01*
X-261781Y112005D01*
X-261834Y111786D01*
X-261865Y111562D01*
X-261876Y111334D01*
X-263400Y111415D01*
X-263410Y111639D01*
X-263439Y111861D01*
X-263488Y112083D01*
X-263556Y112303D01*
X-263644Y112521D01*
X-263752Y112739D01*
X-263879Y112955D01*
X-264025Y113170D01*
X-264191Y113384D01*
X-264377Y113597D01*
X-260825Y113416D01*
D02*
G37*
G36*
X-189764Y111741D02*
X-189854Y111270D01*
X-189921Y110721D01*
X-189981Y109749D01*
X-189992Y109004D01*
X-191516Y108666D01*
X-191527Y108909D01*
X-191561Y109132D01*
X-191617Y109334D01*
X-191696Y109514D01*
X-191797Y109674D01*
X-191920Y109812D01*
X-192066Y109930D01*
X-192234Y110026D01*
X-192425Y110102D01*
X-192638Y110156D01*
X-189710Y111947D01*
X-189764Y111741D01*
D02*
G37*
G36*
X-362476Y110805D02*
X-362272Y110632D01*
X-362066Y110480D01*
X-361857Y110348D01*
X-361645Y110236D01*
X-361430Y110145D01*
X-361213Y110073D01*
X-360992Y110023D01*
X-360769Y109992D01*
X-360543Y109982D01*
Y108458D01*
X-360769Y108448D01*
X-360992Y108417D01*
X-361213Y108367D01*
X-361430Y108295D01*
X-361645Y108204D01*
X-361857Y108092D01*
X-362066Y107960D01*
X-362272Y107808D01*
X-362476Y107635D01*
X-362676Y107442D01*
Y110998D01*
X-362476Y110805D01*
D02*
G37*
G36*
X-166298Y102678D02*
X-166527Y102168D01*
X-166620Y101922D01*
X-166763Y101450D01*
X-166814Y101224D01*
X-166849Y101004D01*
X-166871Y100791D01*
X-166878Y100584D01*
X-168402Y100076D01*
X-168414Y100312D01*
X-168448Y100536D01*
X-168506Y100748D01*
X-168586Y100947D01*
X-168690Y101133D01*
X-168817Y101307D01*
X-168966Y101468D01*
X-169139Y101617D01*
X-169335Y101753D01*
X-169554Y101876D01*
X-166162Y102943D01*
X-166298Y102678D01*
D02*
G37*
G36*
X-304074Y99822D02*
X-304275Y100015D01*
X-304478Y100188D01*
X-304684Y100340D01*
X-304893Y100472D01*
X-305105Y100584D01*
X-305320Y100675D01*
X-305537Y100747D01*
X-305758Y100797D01*
X-305981Y100828D01*
X-306207Y100838D01*
Y102362D01*
X-305981Y102372D01*
X-305758Y102403D01*
X-305537Y102453D01*
X-305320Y102525D01*
X-305105Y102616D01*
X-304893Y102728D01*
X-304684Y102860D01*
X-304478Y103012D01*
X-304275Y103185D01*
X-304074Y103378D01*
Y99822D01*
D02*
G37*
G36*
X-336225Y99417D02*
X-336044Y98890D01*
X-335943Y98649D01*
X-335720Y98210D01*
X-335598Y98013D01*
X-335469Y97829D01*
X-335332Y97661D01*
X-335189Y97507D01*
X-335957Y96120D01*
X-336132Y96278D01*
X-336315Y96412D01*
X-336506Y96522D01*
X-336705Y96608D01*
X-336912Y96670D01*
X-337127Y96707D01*
X-337351Y96721D01*
X-337583Y96710D01*
X-337823Y96675D01*
X-338071Y96616D01*
X-336304Y99701D01*
X-336225Y99417D01*
D02*
G37*
G36*
X-362476Y98105D02*
X-362272Y97932D01*
X-362066Y97780D01*
X-361857Y97648D01*
X-361645Y97536D01*
X-361430Y97445D01*
X-361213Y97373D01*
X-360992Y97323D01*
X-360769Y97292D01*
X-360543Y97282D01*
Y95758D01*
X-360769Y95748D01*
X-360992Y95717D01*
X-361213Y95667D01*
X-361430Y95595D01*
X-361645Y95504D01*
X-361857Y95392D01*
X-362066Y95260D01*
X-362272Y95108D01*
X-362476Y94935D01*
X-362676Y94742D01*
Y98298D01*
X-362476Y98105D01*
D02*
G37*
G36*
X-384038Y95161D02*
X-384007Y94938D01*
X-383957Y94717D01*
X-383885Y94500D01*
X-383794Y94285D01*
X-383682Y94073D01*
X-383550Y93864D01*
X-383398Y93658D01*
X-383225Y93455D01*
X-383032Y93254D01*
X-386588D01*
X-386395Y93455D01*
X-386222Y93658D01*
X-386070Y93864D01*
X-385938Y94073D01*
X-385826Y94285D01*
X-385735Y94500D01*
X-385663Y94717D01*
X-385613Y94938D01*
X-385582Y95161D01*
X-385572Y95387D01*
X-384048D01*
X-384038Y95161D01*
D02*
G37*
G36*
X-262244Y93943D02*
X-262209Y93731D01*
X-262152Y93518D01*
X-262072Y93303D01*
X-261969Y93087D01*
X-261843Y92869D01*
X-261695Y92650D01*
X-261523Y92429D01*
X-261329Y92207D01*
X-261112Y91984D01*
X-264668D01*
X-264451Y92207D01*
X-264085Y92650D01*
X-263937Y92869D01*
X-263811Y93087D01*
X-263708Y93303D01*
X-263628Y93518D01*
X-263571Y93731D01*
X-263536Y93943D01*
X-263525Y94153D01*
X-262255D01*
X-262244Y93943D01*
D02*
G37*
G36*
X-349758Y93993D02*
X-349748Y93768D01*
X-349719Y93546D01*
X-349669Y93325D01*
X-349600Y93105D01*
X-349511Y92888D01*
X-349402Y92672D01*
X-349274Y92457D01*
X-349126Y92245D01*
X-348957Y92034D01*
X-348770Y91825D01*
X-352323Y91955D01*
X-352126Y92147D01*
X-351949Y92342D01*
X-351792Y92542D01*
X-351657Y92746D01*
X-351542Y92953D01*
X-351449Y93165D01*
X-351376Y93380D01*
X-351324Y93600D01*
X-351292Y93824D01*
X-351282Y94051D01*
X-349758Y93993D01*
D02*
G37*
G36*
X-467619Y92503D02*
X-467898Y92498D01*
X-468164Y92476D01*
X-468417Y92438D01*
X-468658Y92383D01*
X-468887Y92312D01*
X-469104Y92225D01*
X-469308Y92122D01*
X-469500Y92002D01*
X-469679Y91866D01*
X-469846Y91713D01*
X-470924Y92790D01*
X-470771Y92957D01*
X-470635Y93137D01*
X-470515Y93329D01*
X-470411Y93533D01*
X-470324Y93749D01*
X-470253Y93978D01*
X-470199Y94219D01*
X-470161Y94473D01*
X-470139Y94739D01*
X-470134Y95017D01*
X-467619Y92503D01*
D02*
G37*
G36*
X-304074Y88392D02*
X-304275Y88585D01*
X-304478Y88758D01*
X-304684Y88910D01*
X-304893Y89042D01*
X-305105Y89154D01*
X-305320Y89245D01*
X-305537Y89317D01*
X-305758Y89367D01*
X-305981Y89398D01*
X-306207Y89408D01*
Y90932D01*
X-305981Y90942D01*
X-305758Y90973D01*
X-305537Y91023D01*
X-305320Y91095D01*
X-305105Y91186D01*
X-304893Y91298D01*
X-304684Y91430D01*
X-304478Y91582D01*
X-304275Y91755D01*
X-304074Y91948D01*
Y88392D01*
D02*
G37*
G36*
X-413248Y87319D02*
X-413217Y87095D01*
X-413167Y86875D01*
X-413095Y86657D01*
X-413004Y86443D01*
X-412892Y86231D01*
X-412760Y86022D01*
X-412608Y85816D01*
X-412435Y85612D01*
X-412242Y85412D01*
X-415798D01*
X-415605Y85612D01*
X-415432Y85816D01*
X-415280Y86022D01*
X-415148Y86231D01*
X-415036Y86443D01*
X-414945Y86657D01*
X-414873Y86875D01*
X-414823Y87095D01*
X-414792Y87319D01*
X-414782Y87545D01*
X-413258D01*
X-413248Y87319D01*
D02*
G37*
G36*
X-397727Y86863D02*
X-398093Y86420D01*
X-398242Y86201D01*
X-398367Y85983D01*
X-398470Y85767D01*
X-398550Y85553D01*
X-398607Y85339D01*
X-398642Y85127D01*
X-398653Y84917D01*
X-399923D01*
X-399934Y85127D01*
X-399969Y85339D01*
X-400026Y85553D01*
X-400106Y85767D01*
X-400209Y85983D01*
X-400335Y86201D01*
X-400483Y86420D01*
X-400654Y86641D01*
X-400849Y86863D01*
X-401066Y87086D01*
X-397510D01*
X-397727Y86863D01*
D02*
G37*
G36*
X-340038Y83111D02*
X-340243Y82934D01*
X-340426Y82752D01*
X-340588Y82564D01*
X-340728Y82369D01*
X-340847Y82169D01*
X-340944Y81963D01*
X-341019Y81751D01*
X-341073Y81532D01*
X-341106Y81308D01*
X-341116Y81079D01*
X-342640Y81236D01*
X-342650Y81457D01*
X-342678Y81678D01*
X-342725Y81900D01*
X-342790Y82122D01*
X-342874Y82344D01*
X-342977Y82566D01*
X-343099Y82789D01*
X-343240Y83012D01*
X-343399Y83235D01*
X-343577Y83459D01*
X-340038Y83111D01*
D02*
G37*
G36*
X-414045Y81058D02*
X-414324Y81053D01*
X-414590Y81031D01*
X-414843Y80993D01*
X-415084Y80938D01*
X-415313Y80867D01*
X-415530Y80780D01*
X-415734Y80677D01*
X-415926Y80557D01*
X-416105Y80421D01*
X-416272Y80268D01*
X-417350Y81346D01*
X-417197Y81512D01*
X-417061Y81692D01*
X-416941Y81884D01*
X-416837Y82088D01*
X-416750Y82304D01*
X-416679Y82533D01*
X-416625Y82774D01*
X-416587Y83028D01*
X-416565Y83294D01*
X-416560Y83572D01*
X-414045Y81058D01*
D02*
G37*
G36*
X-393942Y81282D02*
X-393908Y81059D01*
X-393850Y80851D01*
X-393769Y80659D01*
X-393665Y80484D01*
X-393537Y80324D01*
X-393387Y80180D01*
X-393213Y80052D01*
X-393016Y79940D01*
X-392796Y79844D01*
X-396052Y78429D01*
X-395943Y78706D01*
X-395685Y79486D01*
X-395621Y79728D01*
X-395530Y80186D01*
X-395501Y80402D01*
X-395478Y80808D01*
X-393954Y81521D01*
X-393942Y81282D01*
D02*
G37*
G36*
X-334965Y77996D02*
X-335138Y77792D01*
X-335290Y77586D01*
X-335422Y77377D01*
X-335534Y77165D01*
X-335625Y76950D01*
X-335697Y76733D01*
X-335747Y76512D01*
X-335778Y76289D01*
X-335788Y76063D01*
X-337312D01*
X-337322Y76289D01*
X-337353Y76512D01*
X-337403Y76733D01*
X-337475Y76950D01*
X-337566Y77165D01*
X-337678Y77377D01*
X-337810Y77586D01*
X-337962Y77792D01*
X-338135Y77996D01*
X-338328Y78196D01*
X-334772D01*
X-334965Y77996D01*
D02*
G37*
G36*
X-265489Y76439D02*
X-265301Y76289D01*
X-265113Y76165D01*
X-264925Y76067D01*
X-264738Y75995D01*
X-264552Y75949D01*
X-264366Y75929D01*
X-264181Y75936D01*
X-263996Y75968D01*
X-263812Y76027D01*
X-265275Y72786D01*
X-265345Y72961D01*
X-265426Y73136D01*
X-265625Y73489D01*
X-265741Y73667D01*
X-266010Y74024D01*
X-266162Y74203D01*
X-266502Y74565D01*
X-265678Y76615D01*
X-265489Y76439D01*
D02*
G37*
G36*
X-410690Y73583D02*
X-410843Y73416D01*
X-410979Y73236D01*
X-411099Y73044D01*
X-411203Y72840D01*
X-411290Y72624D01*
X-411361Y72395D01*
X-411415Y72154D01*
X-411453Y71900D01*
X-411475Y71634D01*
X-411480Y71356D01*
X-413995Y73870D01*
X-413716Y73876D01*
X-413450Y73897D01*
X-413197Y73935D01*
X-412956Y73990D01*
X-412727Y74061D01*
X-412510Y74148D01*
X-412306Y74251D01*
X-412114Y74371D01*
X-411935Y74507D01*
X-411768Y74660D01*
X-410690Y73583D01*
D02*
G37*
G36*
Y61315D02*
X-410843Y61148D01*
X-410979Y60969D01*
X-411099Y60777D01*
X-411203Y60573D01*
X-411290Y60356D01*
X-411361Y60128D01*
X-411415Y59886D01*
X-411453Y59633D01*
X-411475Y59367D01*
X-411480Y59089D01*
X-413995Y61603D01*
X-413716Y61608D01*
X-413450Y61630D01*
X-413197Y61668D01*
X-412956Y61723D01*
X-412727Y61793D01*
X-412510Y61881D01*
X-412306Y61984D01*
X-412114Y62104D01*
X-411935Y62240D01*
X-411768Y62393D01*
X-410690Y61315D01*
D02*
G37*
G36*
X-414437Y56558D02*
X-414582Y56572D01*
X-414730Y56566D01*
X-414881Y56540D01*
X-415035Y56495D01*
X-415192Y56430D01*
X-415352Y56346D01*
X-415514Y56241D01*
X-415680Y56117D01*
X-415849Y55974D01*
X-416021Y55810D01*
X-417099Y56888D01*
X-416946Y57049D01*
X-416813Y57209D01*
X-416701Y57366D01*
X-416608Y57521D01*
X-416535Y57674D01*
X-416483Y57825D01*
X-416450Y57973D01*
X-416438Y58119D01*
X-416446Y58263D01*
X-416473Y58405D01*
X-414437Y56558D01*
D02*
G37*
G36*
X-245734Y57113D02*
X-245699Y56901D01*
X-245642Y56687D01*
X-245562Y56473D01*
X-245459Y56256D01*
X-245333Y56039D01*
X-245185Y55820D01*
X-245014Y55599D01*
X-244819Y55377D01*
X-244602Y55154D01*
X-248158D01*
X-247941Y55377D01*
X-247575Y55820D01*
X-247426Y56039D01*
X-247301Y56256D01*
X-247198Y56473D01*
X-247118Y56687D01*
X-247061Y56901D01*
X-247026Y57113D01*
X-247015Y57323D01*
X-245745D01*
X-245734Y57113D01*
D02*
G37*
G36*
X-320995Y56406D02*
X-321168Y56202D01*
X-321320Y55996D01*
X-321452Y55787D01*
X-321564Y55575D01*
X-321655Y55360D01*
X-321727Y55143D01*
X-321777Y54922D01*
X-321808Y54699D01*
X-321818Y54473D01*
X-323342D01*
X-323352Y54699D01*
X-323383Y54922D01*
X-323433Y55143D01*
X-323505Y55360D01*
X-323596Y55575D01*
X-323708Y55787D01*
X-323840Y55996D01*
X-323992Y56202D01*
X-324165Y56406D01*
X-324358Y56606D01*
X-320802D01*
X-320995Y56406D01*
D02*
G37*
G36*
X-328615D02*
X-328788Y56202D01*
X-328940Y55996D01*
X-329072Y55787D01*
X-329184Y55575D01*
X-329275Y55360D01*
X-329347Y55143D01*
X-329397Y54922D01*
X-329428Y54699D01*
X-329438Y54473D01*
X-330962D01*
X-330972Y54699D01*
X-331003Y54922D01*
X-331053Y55143D01*
X-331125Y55360D01*
X-331216Y55575D01*
X-331328Y55787D01*
X-331460Y55996D01*
X-331612Y56202D01*
X-331785Y56406D01*
X-331978Y56606D01*
X-328422D01*
X-328615Y56406D01*
D02*
G37*
G36*
X-174658Y56958D02*
X-174694Y56718D01*
X-174706Y56487D01*
X-174694Y56264D01*
X-174657Y56049D01*
X-174596Y55842D01*
X-174510Y55643D01*
X-174400Y55452D01*
X-174266Y55269D01*
X-174108Y55095D01*
X-175502Y54334D01*
X-175656Y54477D01*
X-175824Y54613D01*
X-176007Y54742D01*
X-176204Y54865D01*
X-176416Y54980D01*
X-176883Y55191D01*
X-177139Y55286D01*
X-177694Y55456D01*
X-174598Y57205D01*
X-174658Y56958D01*
D02*
G37*
G36*
X-398642Y55081D02*
X-398607Y54869D01*
X-398550Y54655D01*
X-398470Y54441D01*
X-398367Y54225D01*
X-398242Y54007D01*
X-398093Y53788D01*
X-397921Y53567D01*
X-397727Y53345D01*
X-397510Y53122D01*
X-401066D01*
X-400849Y53345D01*
X-400483Y53788D01*
X-400335Y54007D01*
X-400209Y54225D01*
X-400106Y54441D01*
X-400026Y54655D01*
X-399969Y54869D01*
X-399934Y55081D01*
X-399923Y55291D01*
X-398653D01*
X-398642Y55081D01*
D02*
G37*
G36*
X-408150Y53052D02*
X-408303Y52885D01*
X-408439Y52706D01*
X-408559Y52514D01*
X-408663Y52310D01*
X-408750Y52093D01*
X-408821Y51865D01*
X-408875Y51623D01*
X-408913Y51370D01*
X-408935Y51104D01*
X-408940Y50825D01*
X-411455Y53340D01*
X-411176Y53345D01*
X-410910Y53367D01*
X-410657Y53405D01*
X-410415Y53459D01*
X-410187Y53530D01*
X-409970Y53617D01*
X-409766Y53721D01*
X-409574Y53841D01*
X-409395Y53977D01*
X-409228Y54130D01*
X-408150Y53052D01*
D02*
G37*
G36*
X-255894Y52033D02*
X-255859Y51821D01*
X-255802Y51607D01*
X-255722Y51393D01*
X-255619Y51177D01*
X-255494Y50959D01*
X-255345Y50740D01*
X-255173Y50519D01*
X-254979Y50297D01*
X-254762Y50074D01*
X-258318D01*
X-258101Y50297D01*
X-257735Y50740D01*
X-257586Y50959D01*
X-257461Y51177D01*
X-257358Y51393D01*
X-257278Y51607D01*
X-257221Y51821D01*
X-257186Y52033D01*
X-257175Y52243D01*
X-255905D01*
X-255894Y52033D01*
D02*
G37*
G36*
X-176977Y45599D02*
X-177150Y45396D01*
X-177302Y45190D01*
X-177434Y44981D01*
X-177546Y44769D01*
X-177637Y44554D01*
X-177709Y44336D01*
X-177759Y44116D01*
X-177790Y43893D01*
X-177800Y43667D01*
X-179324D01*
X-179334Y43893D01*
X-179365Y44116D01*
X-179415Y44336D01*
X-179487Y44554D01*
X-179578Y44769D01*
X-179690Y44981D01*
X-179822Y45190D01*
X-179974Y45396D01*
X-180147Y45599D01*
X-180340Y45800D01*
X-176784D01*
X-176977Y45599D01*
D02*
G37*
G36*
X-233034Y43143D02*
X-232999Y42931D01*
X-232942Y42717D01*
X-232862Y42503D01*
X-232759Y42287D01*
X-232633Y42069D01*
X-232485Y41850D01*
X-232313Y41629D01*
X-232119Y41407D01*
X-231902Y41184D01*
X-235458D01*
X-235241Y41407D01*
X-234875Y41850D01*
X-234727Y42069D01*
X-234601Y42287D01*
X-234498Y42503D01*
X-234418Y42717D01*
X-234361Y42931D01*
X-234326Y43143D01*
X-234315Y43353D01*
X-233045D01*
X-233034Y43143D01*
D02*
G37*
G36*
X-210800Y38567D02*
X-211078Y38561D01*
X-211344Y38540D01*
X-211598Y38502D01*
X-211839Y38447D01*
X-212068Y38376D01*
X-212284Y38289D01*
X-212488Y38186D01*
X-212680Y38066D01*
X-212859Y37929D01*
X-213026Y37777D01*
X-214104Y38854D01*
X-213951Y39021D01*
X-213815Y39201D01*
X-213695Y39392D01*
X-213592Y39597D01*
X-213505Y39813D01*
X-213434Y40042D01*
X-213379Y40283D01*
X-213341Y40537D01*
X-213319Y40803D01*
X-213314Y41081D01*
X-210800Y38567D01*
D02*
G37*
G36*
X-341116Y37371D02*
X-341107Y37150D01*
X-341079Y36929D01*
X-341032Y36707D01*
X-340967Y36485D01*
X-340882Y36263D01*
X-340779Y36040D01*
X-340658Y35818D01*
X-340517Y35595D01*
X-340358Y35371D01*
X-340180Y35148D01*
X-343719Y35496D01*
X-343514Y35672D01*
X-343331Y35855D01*
X-343169Y36043D01*
X-343029Y36237D01*
X-342910Y36438D01*
X-342813Y36644D01*
X-342737Y36856D01*
X-342683Y37074D01*
X-342651Y37298D01*
X-342640Y37528D01*
X-341116Y37371D01*
D02*
G37*
G36*
X-321808Y32931D02*
X-321777Y32708D01*
X-321727Y32487D01*
X-321655Y32270D01*
X-321564Y32055D01*
X-321452Y31843D01*
X-321320Y31634D01*
X-321168Y31428D01*
X-320995Y31225D01*
X-320802Y31024D01*
X-324358D01*
X-324165Y31225D01*
X-323992Y31428D01*
X-323840Y31634D01*
X-323708Y31843D01*
X-323596Y32055D01*
X-323505Y32270D01*
X-323433Y32487D01*
X-323383Y32708D01*
X-323352Y32931D01*
X-323342Y33157D01*
X-321818D01*
X-321808Y32931D01*
D02*
G37*
G36*
X-335778Y29883D02*
X-335747Y29660D01*
X-335697Y29439D01*
X-335625Y29222D01*
X-335534Y29007D01*
X-335422Y28795D01*
X-335290Y28586D01*
X-335138Y28380D01*
X-334965Y28177D01*
X-334772Y27976D01*
X-338328D01*
X-338135Y28177D01*
X-337962Y28380D01*
X-337810Y28586D01*
X-337678Y28795D01*
X-337566Y29007D01*
X-337475Y29222D01*
X-337403Y29439D01*
X-337353Y29660D01*
X-337322Y29883D01*
X-337312Y30109D01*
X-335788D01*
X-335778Y29883D01*
D02*
G37*
G36*
X-258308Y21501D02*
X-258277Y21278D01*
X-258227Y21057D01*
X-258155Y20840D01*
X-258064Y20625D01*
X-257952Y20413D01*
X-257820Y20204D01*
X-257668Y19998D01*
X-257495Y19794D01*
X-257302Y19594D01*
X-260858D01*
X-260665Y19794D01*
X-260492Y19998D01*
X-260340Y20204D01*
X-260208Y20413D01*
X-260096Y20625D01*
X-260005Y20840D01*
X-259933Y21057D01*
X-259883Y21278D01*
X-259852Y21501D01*
X-259842Y21727D01*
X-258318D01*
X-258308Y21501D01*
D02*
G37*
G36*
X-467858D02*
X-467827Y21278D01*
X-467777Y21057D01*
X-467705Y20840D01*
X-467614Y20625D01*
X-467502Y20413D01*
X-467370Y20204D01*
X-467218Y19998D01*
X-467045Y19794D01*
X-466852Y19594D01*
X-470408D01*
X-470215Y19794D01*
X-470042Y19998D01*
X-469890Y20204D01*
X-469758Y20413D01*
X-469646Y20625D01*
X-469555Y20840D01*
X-469483Y21057D01*
X-469433Y21278D01*
X-469402Y21501D01*
X-469392Y21727D01*
X-467868D01*
X-467858Y21501D01*
D02*
G37*
G36*
X-418592Y3338D02*
X-418624Y402D01*
X-421132Y2540D01*
X-420939Y2553D01*
X-420766Y2592D01*
X-420614Y2658D01*
X-420482Y2750D01*
X-420370Y2868D01*
X-420279Y3012D01*
X-420207Y3183D01*
X-420157Y3380D01*
X-420126Y3603D01*
X-420116Y3852D01*
X-418592Y3338D01*
D02*
G37*
G36*
X-415788Y-11519D02*
X-415757Y-11742D01*
X-415707Y-11963D01*
X-415635Y-12180D01*
X-415544Y-12395D01*
X-415432Y-12607D01*
X-415300Y-12816D01*
X-415148Y-13022D01*
X-414975Y-13226D01*
X-414782Y-13426D01*
X-418338D01*
X-418145Y-13226D01*
X-417972Y-13022D01*
X-417820Y-12816D01*
X-417688Y-12607D01*
X-417576Y-12395D01*
X-417485Y-12180D01*
X-417413Y-11963D01*
X-417363Y-11742D01*
X-417332Y-11519D01*
X-417322Y-11293D01*
X-415798D01*
X-415788Y-11519D01*
D02*
G37*
G36*
X-339570Y-16798D02*
X-339723Y-16965D01*
X-339859Y-17144D01*
X-339979Y-17336D01*
X-340083Y-17540D01*
X-340170Y-17757D01*
X-340241Y-17986D01*
X-340295Y-18227D01*
X-340333Y-18480D01*
X-340355Y-18746D01*
X-340360Y-19025D01*
X-342875Y-16510D01*
X-342596Y-16505D01*
X-342330Y-16483D01*
X-342077Y-16445D01*
X-341836Y-16391D01*
X-341607Y-16320D01*
X-341390Y-16233D01*
X-341186Y-16129D01*
X-340994Y-16009D01*
X-340815Y-15873D01*
X-340648Y-15720D01*
X-339570Y-16798D01*
D02*
G37*
G36*
X-304056Y-172405D02*
X-303852Y-172578D01*
X-303646Y-172730D01*
X-303437Y-172862D01*
X-303225Y-172974D01*
X-303010Y-173065D01*
X-302793Y-173137D01*
X-302572Y-173187D01*
X-302349Y-173218D01*
X-302123Y-173228D01*
Y-174752D01*
X-302349Y-174762D01*
X-302572Y-174793D01*
X-302793Y-174843D01*
X-303010Y-174915D01*
X-303225Y-175006D01*
X-303437Y-175118D01*
X-303646Y-175250D01*
X-303852Y-175402D01*
X-304056Y-175575D01*
X-304256Y-175768D01*
Y-172212D01*
X-304056Y-172405D01*
D02*
G37*
G36*
X-295166Y-181295D02*
X-294962Y-181468D01*
X-294756Y-181620D01*
X-294547Y-181752D01*
X-294335Y-181864D01*
X-294120Y-181955D01*
X-293903Y-182027D01*
X-293682Y-182077D01*
X-293459Y-182108D01*
X-293233Y-182118D01*
Y-183642D01*
X-293459Y-183652D01*
X-293682Y-183683D01*
X-293903Y-183733D01*
X-294120Y-183805D01*
X-294335Y-183896D01*
X-294547Y-184008D01*
X-294756Y-184140D01*
X-294962Y-184292D01*
X-295166Y-184465D01*
X-295366Y-184658D01*
Y-181102D01*
X-295166Y-181295D01*
D02*
G37*
G36*
X-284960Y-189518D02*
X-285113Y-189685D01*
X-285249Y-189864D01*
X-285369Y-190056D01*
X-285473Y-190260D01*
X-285560Y-190477D01*
X-285631Y-190706D01*
X-285685Y-190947D01*
X-285723Y-191200D01*
X-285745Y-191466D01*
X-285750Y-191745D01*
X-288265Y-189230D01*
X-287986Y-189225D01*
X-287720Y-189203D01*
X-287467Y-189165D01*
X-287225Y-189111D01*
X-286997Y-189040D01*
X-286780Y-188953D01*
X-286576Y-188849D01*
X-286384Y-188729D01*
X-286205Y-188593D01*
X-286038Y-188440D01*
X-284960Y-189518D01*
D02*
G37*
G36*
X-276070Y-198408D02*
X-276223Y-198575D01*
X-276359Y-198754D01*
X-276479Y-198946D01*
X-276583Y-199150D01*
X-276670Y-199367D01*
X-276741Y-199596D01*
X-276795Y-199837D01*
X-276833Y-200090D01*
X-276855Y-200356D01*
X-276860Y-200635D01*
X-279375Y-198120D01*
X-279096Y-198115D01*
X-278830Y-198093D01*
X-278577Y-198055D01*
X-278335Y-198001D01*
X-278107Y-197930D01*
X-277890Y-197843D01*
X-277686Y-197739D01*
X-277494Y-197619D01*
X-277315Y-197483D01*
X-277148Y-197330D01*
X-276070Y-198408D01*
D02*
G37*
G36*
X-267180Y-207298D02*
X-267333Y-207465D01*
X-267469Y-207644D01*
X-267589Y-207836D01*
X-267693Y-208040D01*
X-267780Y-208257D01*
X-267851Y-208486D01*
X-267905Y-208727D01*
X-267943Y-208980D01*
X-267965Y-209246D01*
X-267970Y-209525D01*
X-270485Y-207010D01*
X-270206Y-207005D01*
X-269940Y-206983D01*
X-269687Y-206945D01*
X-269445Y-206891D01*
X-269217Y-206820D01*
X-269000Y-206733D01*
X-268796Y-206629D01*
X-268604Y-206509D01*
X-268425Y-206373D01*
X-268258Y-206220D01*
X-267180Y-207298D01*
D02*
G37*
G36*
X-359908Y-223609D02*
X-359877Y-223832D01*
X-359827Y-224053D01*
X-359755Y-224270D01*
X-359664Y-224485D01*
X-359552Y-224697D01*
X-359420Y-224906D01*
X-359268Y-225112D01*
X-359095Y-225315D01*
X-358902Y-225516D01*
X-362458D01*
X-362265Y-225315D01*
X-362092Y-225112D01*
X-361940Y-224906D01*
X-361808Y-224697D01*
X-361696Y-224485D01*
X-361605Y-224270D01*
X-361533Y-224053D01*
X-361483Y-223832D01*
X-361452Y-223609D01*
X-361442Y-223383D01*
X-359918D01*
X-359908Y-223609D01*
D02*
G37*
G36*
X-349748Y-232499D02*
X-349717Y-232722D01*
X-349667Y-232943D01*
X-349595Y-233160D01*
X-349504Y-233375D01*
X-349392Y-233587D01*
X-349260Y-233796D01*
X-349108Y-234002D01*
X-348935Y-234205D01*
X-348742Y-234406D01*
X-352298D01*
X-352105Y-234205D01*
X-351932Y-234002D01*
X-351780Y-233796D01*
X-351648Y-233587D01*
X-351536Y-233375D01*
X-351445Y-233160D01*
X-351373Y-232943D01*
X-351323Y-232722D01*
X-351292Y-232499D01*
X-351282Y-232273D01*
X-349758D01*
X-349748Y-232499D01*
D02*
G37*
G36*
X-340858Y-241389D02*
X-340827Y-241612D01*
X-340777Y-241833D01*
X-340705Y-242050D01*
X-340614Y-242265D01*
X-340502Y-242477D01*
X-340370Y-242686D01*
X-340218Y-242892D01*
X-340045Y-243095D01*
X-339852Y-243296D01*
X-343408D01*
X-343215Y-243095D01*
X-343042Y-242892D01*
X-342890Y-242686D01*
X-342758Y-242477D01*
X-342646Y-242265D01*
X-342555Y-242050D01*
X-342483Y-241833D01*
X-342433Y-241612D01*
X-342402Y-241389D01*
X-342392Y-241163D01*
X-340868D01*
X-340858Y-241389D01*
D02*
G37*
G36*
X-329455Y-251145D02*
X-329252Y-251318D01*
X-329046Y-251470D01*
X-328837Y-251602D01*
X-328625Y-251714D01*
X-328410Y-251805D01*
X-328193Y-251877D01*
X-327972Y-251927D01*
X-327749Y-251958D01*
X-327523Y-251968D01*
Y-253492D01*
X-327749Y-253502D01*
X-327972Y-253533D01*
X-328193Y-253583D01*
X-328410Y-253655D01*
X-328625Y-253746D01*
X-328837Y-253858D01*
X-329046Y-253990D01*
X-329252Y-254142D01*
X-329455Y-254315D01*
X-329656Y-254508D01*
Y-250952D01*
X-329455Y-251145D01*
D02*
G37*
G36*
X-329885Y-277605D02*
X-330058Y-277808D01*
X-330210Y-278014D01*
X-330342Y-278223D01*
X-330454Y-278435D01*
X-330545Y-278650D01*
X-330617Y-278867D01*
X-330667Y-279088D01*
X-330698Y-279311D01*
X-330708Y-279537D01*
X-332232D01*
X-332242Y-279311D01*
X-332273Y-279088D01*
X-332323Y-278867D01*
X-332395Y-278650D01*
X-332486Y-278435D01*
X-332598Y-278223D01*
X-332730Y-278014D01*
X-332882Y-277808D01*
X-333055Y-277605D01*
X-333248Y-277404D01*
X-329692D01*
X-329885Y-277605D01*
D02*
G37*
G36*
X-365445D02*
X-365618Y-277808D01*
X-365770Y-278014D01*
X-365902Y-278223D01*
X-366014Y-278435D01*
X-366105Y-278650D01*
X-366177Y-278867D01*
X-366227Y-279088D01*
X-366258Y-279311D01*
X-366268Y-279537D01*
X-367792D01*
X-367802Y-279311D01*
X-367833Y-279088D01*
X-367883Y-278867D01*
X-367955Y-278650D01*
X-368046Y-278435D01*
X-368158Y-278223D01*
X-368290Y-278014D01*
X-368442Y-277808D01*
X-368615Y-277605D01*
X-368808Y-277404D01*
X-365252D01*
X-365445Y-277605D01*
D02*
G37*
G36*
X-275275Y-309354D02*
X-275448Y-309558D01*
X-275600Y-309764D01*
X-275732Y-309973D01*
X-275844Y-310185D01*
X-275935Y-310400D01*
X-276007Y-310617D01*
X-276057Y-310838D01*
X-276088Y-311061D01*
X-276098Y-311287D01*
X-277622D01*
X-277632Y-311061D01*
X-277663Y-310838D01*
X-277713Y-310617D01*
X-277785Y-310400D01*
X-277876Y-310185D01*
X-277988Y-309973D01*
X-278120Y-309764D01*
X-278272Y-309558D01*
X-278445Y-309354D01*
X-278638Y-309154D01*
X-275082D01*
X-275275Y-309354D01*
D02*
G37*
G36*
X-266385Y-318244D02*
X-266558Y-318448D01*
X-266710Y-318654D01*
X-266842Y-318863D01*
X-266954Y-319075D01*
X-267045Y-319290D01*
X-267117Y-319507D01*
X-267167Y-319728D01*
X-267198Y-319951D01*
X-267208Y-320177D01*
X-268732D01*
X-268742Y-319951D01*
X-268773Y-319728D01*
X-268823Y-319507D01*
X-268895Y-319290D01*
X-268986Y-319075D01*
X-269098Y-318863D01*
X-269230Y-318654D01*
X-269382Y-318448D01*
X-269555Y-318244D01*
X-269748Y-318044D01*
X-266192D01*
X-266385Y-318244D01*
D02*
G37*
G36*
X-257495Y-327135D02*
X-257668Y-327338D01*
X-257820Y-327544D01*
X-257952Y-327753D01*
X-258064Y-327965D01*
X-258155Y-328180D01*
X-258227Y-328397D01*
X-258277Y-328618D01*
X-258308Y-328841D01*
X-258318Y-329067D01*
X-259842D01*
X-259852Y-328841D01*
X-259883Y-328618D01*
X-259933Y-328397D01*
X-260005Y-328180D01*
X-260096Y-327965D01*
X-260208Y-327753D01*
X-260340Y-327544D01*
X-260492Y-327338D01*
X-260665Y-327135D01*
X-260858Y-326934D01*
X-257302D01*
X-257495Y-327135D01*
D02*
G37*
G36*
X-328925Y-357174D02*
X-328903Y-357440D01*
X-328865Y-357693D01*
X-328811Y-357934D01*
X-328740Y-358163D01*
X-328653Y-358380D01*
X-328549Y-358584D01*
X-328429Y-358776D01*
X-328293Y-358955D01*
X-328140Y-359122D01*
X-329218Y-360200D01*
X-329385Y-360047D01*
X-329564Y-359911D01*
X-329756Y-359791D01*
X-329960Y-359687D01*
X-330177Y-359600D01*
X-330406Y-359529D01*
X-330647Y-359475D01*
X-330900Y-359437D01*
X-331166Y-359415D01*
X-331445Y-359410D01*
X-328930Y-356895D01*
X-328925Y-357174D01*
D02*
G37*
G36*
X-364485Y-358444D02*
X-364463Y-358710D01*
X-364425Y-358963D01*
X-364371Y-359204D01*
X-364300Y-359433D01*
X-364213Y-359650D01*
X-364109Y-359854D01*
X-363989Y-360046D01*
X-363853Y-360225D01*
X-363700Y-360392D01*
X-364778Y-361470D01*
X-364945Y-361317D01*
X-365124Y-361181D01*
X-365316Y-361061D01*
X-365520Y-360957D01*
X-365737Y-360870D01*
X-365965Y-360799D01*
X-366207Y-360745D01*
X-366460Y-360707D01*
X-366726Y-360685D01*
X-367005Y-360680D01*
X-364490Y-358165D01*
X-364485Y-358444D01*
D02*
G37*
G36*
X55065Y504827D02*
X55244Y504691D01*
X55436Y504571D01*
X55640Y504467D01*
X55857Y504380D01*
X56086Y504309D01*
X56327Y504255D01*
X56580Y504217D01*
X56846Y504195D01*
X57125Y504190D01*
X54610Y501675D01*
X54605Y501954D01*
X54583Y502220D01*
X54545Y502473D01*
X54491Y502715D01*
X54420Y502943D01*
X54333Y503160D01*
X54229Y503364D01*
X54109Y503556D01*
X53973Y503735D01*
X53820Y503902D01*
X54898Y504980D01*
X55065Y504827D01*
D02*
G37*
G36*
X45106Y499196D02*
X44821Y499115D01*
X44295Y498931D01*
X44054Y498829D01*
X43616Y498605D01*
X43419Y498482D01*
X43236Y498353D01*
X43068Y498217D01*
X42914Y498074D01*
X41520Y498835D01*
X41678Y499010D01*
X41812Y499192D01*
X41922Y499383D01*
X42008Y499582D01*
X42069Y499789D01*
X42106Y500004D01*
X42118Y500227D01*
X42106Y500458D01*
X42070Y500698D01*
X42010Y500945D01*
X45106Y499196D01*
D02*
G37*
G36*
X48715Y489587D02*
X48894Y489451D01*
X49086Y489331D01*
X49290Y489227D01*
X49507Y489140D01*
X49735Y489069D01*
X49977Y489015D01*
X50230Y488977D01*
X50496Y488955D01*
X50775Y488950D01*
X48260Y486435D01*
X48255Y486714D01*
X48233Y486980D01*
X48195Y487233D01*
X48141Y487475D01*
X48070Y487703D01*
X47983Y487920D01*
X47879Y488124D01*
X47759Y488316D01*
X47623Y488495D01*
X47470Y488662D01*
X48548Y489740D01*
X48715Y489587D01*
D02*
G37*
G36*
X-78285Y476547D02*
X-78106Y476411D01*
X-77914Y476291D01*
X-77710Y476187D01*
X-77493Y476100D01*
X-77264Y476029D01*
X-77023Y475975D01*
X-76770Y475937D01*
X-76504Y475915D01*
X-76225Y475910D01*
X-78740Y473395D01*
X-78745Y473674D01*
X-78767Y473940D01*
X-78805Y474193D01*
X-78859Y474435D01*
X-78930Y474663D01*
X-79017Y474880D01*
X-79121Y475084D01*
X-79241Y475276D01*
X-79377Y475455D01*
X-79530Y475622D01*
X-78452Y476700D01*
X-78285Y476547D01*
D02*
G37*
G36*
X-91018Y471968D02*
X-91171Y472181D01*
X-91333Y472372D01*
X-91503Y472540D01*
X-91683Y472686D01*
X-91872Y472809D01*
X-92069Y472910D01*
X-92276Y472988D01*
X-92491Y473045D01*
X-92715Y473078D01*
X-92949Y473089D01*
X-92639Y474613D01*
X-92423Y474622D01*
X-92205Y474647D01*
X-91983Y474689D01*
X-91758Y474749D01*
X-91530Y474825D01*
X-91299Y474918D01*
X-91065Y475028D01*
X-90587Y475299D01*
X-90344Y475460D01*
X-91018Y471968D01*
D02*
G37*
G36*
X-50825Y470830D02*
X-51104Y470825D01*
X-51370Y470803D01*
X-51623Y470765D01*
X-51865Y470711D01*
X-52093Y470640D01*
X-52310Y470553D01*
X-52514Y470449D01*
X-52706Y470329D01*
X-52885Y470193D01*
X-53052Y470040D01*
X-54130Y471118D01*
X-53977Y471285D01*
X-53841Y471464D01*
X-53721Y471656D01*
X-53617Y471860D01*
X-53530Y472077D01*
X-53459Y472305D01*
X-53405Y472547D01*
X-53367Y472800D01*
X-53345Y473066D01*
X-53340Y473345D01*
X-50825Y470830D01*
D02*
G37*
G36*
X74386Y469392D02*
X74186Y469585D01*
X73982Y469758D01*
X73776Y469910D01*
X73567Y470042D01*
X73355Y470154D01*
X73140Y470245D01*
X72923Y470317D01*
X72702Y470367D01*
X72479Y470398D01*
X72253Y470408D01*
Y471932D01*
X72479Y471942D01*
X72702Y471973D01*
X72923Y472023D01*
X73140Y472095D01*
X73355Y472186D01*
X73567Y472298D01*
X73776Y472430D01*
X73982Y472582D01*
X74186Y472755D01*
X74386Y472948D01*
Y469392D01*
D02*
G37*
G36*
X61686Y464312D02*
X61486Y464505D01*
X61282Y464678D01*
X61076Y464830D01*
X60867Y464962D01*
X60655Y465074D01*
X60440Y465165D01*
X60223Y465237D01*
X60002Y465287D01*
X59779Y465318D01*
X59553Y465328D01*
Y466852D01*
X59779Y466862D01*
X60002Y466893D01*
X60223Y466943D01*
X60440Y467015D01*
X60655Y467106D01*
X60867Y467218D01*
X61076Y467350D01*
X61282Y467502D01*
X61486Y467675D01*
X61686Y467868D01*
Y464312D01*
D02*
G37*
G36*
X10886D02*
X10685Y464505D01*
X10482Y464678D01*
X10276Y464830D01*
X10067Y464962D01*
X9855Y465074D01*
X9640Y465165D01*
X9423Y465237D01*
X9202Y465287D01*
X8979Y465318D01*
X8753Y465328D01*
Y466852D01*
X8979Y466862D01*
X9202Y466893D01*
X9423Y466943D01*
X9640Y467015D01*
X9855Y467106D01*
X10067Y467218D01*
X10276Y467350D01*
X10482Y467502D01*
X10685Y467675D01*
X10886Y467868D01*
Y464312D01*
D02*
G37*
G36*
X-246329Y425800D02*
X-246473Y425662D01*
X-246600Y425514D01*
X-246710Y425355D01*
X-246803Y425186D01*
X-246880Y425006D01*
X-246939Y424816D01*
X-246981Y424614D01*
X-247006Y424403D01*
X-247015Y424180D01*
X-248285D01*
X-248293Y424403D01*
X-248319Y424614D01*
X-248361Y424816D01*
X-248421Y425006D01*
X-248497Y425186D01*
X-248590Y425355D01*
X-248700Y425514D01*
X-248827Y425662D01*
X-248971Y425800D01*
X-249132Y425927D01*
X-246168D01*
X-246329Y425800D01*
D02*
G37*
G36*
X-157853Y408654D02*
X-158143Y408829D01*
X-158947Y409243D01*
X-159192Y409345D01*
X-159650Y409492D01*
X-159863Y409538D01*
X-160064Y409566D01*
X-160254Y409575D01*
X-160574Y410845D01*
X-160352Y410858D01*
X-160137Y410896D01*
X-159930Y410959D01*
X-159731Y411047D01*
X-159539Y411161D01*
X-159354Y411300D01*
X-159178Y411464D01*
X-159008Y411654D01*
X-158847Y411869D01*
X-158692Y412109D01*
X-157853Y408654D01*
D02*
G37*
G36*
X-155484Y403352D02*
X-155707Y403569D01*
X-156150Y403935D01*
X-156369Y404084D01*
X-156587Y404209D01*
X-156803Y404312D01*
X-157017Y404392D01*
X-157231Y404449D01*
X-157443Y404484D01*
X-157653Y404495D01*
Y405765D01*
X-157443Y405776D01*
X-157231Y405811D01*
X-157017Y405868D01*
X-156803Y405948D01*
X-156587Y406051D01*
X-156369Y406176D01*
X-156150Y406325D01*
X-155929Y406497D01*
X-155707Y406691D01*
X-155484Y406908D01*
Y403352D01*
D02*
G37*
G36*
X-145324Y397002D02*
X-145547Y397219D01*
X-145990Y397585D01*
X-146209Y397733D01*
X-146426Y397859D01*
X-146643Y397962D01*
X-146858Y398042D01*
X-147071Y398099D01*
X-147283Y398134D01*
X-147493Y398145D01*
Y399415D01*
X-147283Y399426D01*
X-147071Y399461D01*
X-146858Y399518D01*
X-146643Y399598D01*
X-146426Y399701D01*
X-146209Y399827D01*
X-145990Y399975D01*
X-145769Y400146D01*
X-145547Y400341D01*
X-145324Y400558D01*
Y397002D01*
D02*
G37*
G36*
X-178303Y400341D02*
X-177860Y399975D01*
X-177641Y399827D01*
X-177423Y399701D01*
X-177207Y399598D01*
X-176992Y399518D01*
X-176779Y399461D01*
X-176567Y399426D01*
X-176357Y399415D01*
Y398145D01*
X-176567Y398134D01*
X-176779Y398099D01*
X-176992Y398042D01*
X-177207Y397962D01*
X-177423Y397859D01*
X-177641Y397733D01*
X-177860Y397585D01*
X-178081Y397413D01*
X-178303Y397219D01*
X-178526Y397002D01*
Y400558D01*
X-178303Y400341D01*
D02*
G37*
G36*
X-203714Y398478D02*
X-204080Y398035D01*
X-204228Y397816D01*
X-204354Y397599D01*
X-204457Y397382D01*
X-204537Y397168D01*
X-204594Y396954D01*
X-204629Y396742D01*
X-204640Y396532D01*
X-205910D01*
X-205921Y396742D01*
X-205956Y396954D01*
X-206013Y397168D01*
X-206093Y397382D01*
X-206196Y397599D01*
X-206322Y397816D01*
X-206470Y398035D01*
X-206642Y398256D01*
X-206836Y398478D01*
X-207053Y398701D01*
X-203497D01*
X-203714Y398478D01*
D02*
G37*
G36*
X63729Y397002D02*
X63450Y396997D01*
X63184Y396975D01*
X62931Y396937D01*
X62689Y396883D01*
X62461Y396812D01*
X62244Y396725D01*
X62040Y396621D01*
X61848Y396501D01*
X61669Y396365D01*
X61502Y396212D01*
X60424Y397290D01*
X60577Y397457D01*
X60713Y397636D01*
X60833Y397828D01*
X60937Y398032D01*
X61024Y398249D01*
X61095Y398478D01*
X61149Y398719D01*
X61187Y398972D01*
X61209Y399238D01*
X61214Y399517D01*
X63729Y397002D01*
D02*
G37*
G36*
X26899Y396240D02*
X26620Y396235D01*
X26354Y396213D01*
X26101Y396175D01*
X25859Y396121D01*
X25631Y396050D01*
X25414Y395963D01*
X25210Y395859D01*
X25018Y395739D01*
X24839Y395603D01*
X24672Y395450D01*
X23594Y396528D01*
X23747Y396695D01*
X23883Y396874D01*
X24003Y397066D01*
X24107Y397270D01*
X24194Y397487D01*
X24265Y397715D01*
X24319Y397957D01*
X24357Y398210D01*
X24379Y398476D01*
X24384Y398755D01*
X26899Y396240D01*
D02*
G37*
G36*
X-12725D02*
X-13004Y396235D01*
X-13270Y396213D01*
X-13523Y396175D01*
X-13764Y396121D01*
X-13993Y396050D01*
X-14210Y395963D01*
X-14414Y395859D01*
X-14606Y395739D01*
X-14785Y395603D01*
X-14952Y395450D01*
X-16030Y396528D01*
X-15877Y396695D01*
X-15741Y396874D01*
X-15621Y397066D01*
X-15517Y397270D01*
X-15430Y397487D01*
X-15359Y397715D01*
X-15305Y397957D01*
X-15267Y398210D01*
X-15245Y398476D01*
X-15240Y398755D01*
X-12725Y396240D01*
D02*
G37*
G36*
X-102080Y394682D02*
X-102233Y394515D01*
X-102369Y394336D01*
X-102489Y394144D01*
X-102593Y393940D01*
X-102680Y393723D01*
X-102751Y393494D01*
X-102805Y393253D01*
X-102843Y393000D01*
X-102865Y392734D01*
X-102870Y392455D01*
X-105385Y394970D01*
X-105106Y394975D01*
X-104840Y394997D01*
X-104587Y395035D01*
X-104346Y395089D01*
X-104117Y395160D01*
X-103900Y395247D01*
X-103696Y395351D01*
X-103504Y395471D01*
X-103325Y395607D01*
X-103158Y395760D01*
X-102080Y394682D01*
D02*
G37*
G36*
X-105435Y389890D02*
X-105714Y389885D01*
X-105980Y389863D01*
X-106233Y389825D01*
X-106475Y389771D01*
X-106703Y389700D01*
X-106920Y389613D01*
X-107124Y389509D01*
X-107316Y389389D01*
X-107495Y389253D01*
X-107662Y389100D01*
X-108740Y390178D01*
X-108587Y390345D01*
X-108451Y390524D01*
X-108331Y390716D01*
X-108227Y390920D01*
X-108140Y391137D01*
X-108069Y391366D01*
X-108015Y391607D01*
X-107977Y391860D01*
X-107955Y392126D01*
X-107950Y392405D01*
X-105435Y389890D01*
D02*
G37*
G36*
X-189636Y384647D02*
X-189623Y384500D01*
X-189601Y384361D01*
X-189571Y384229D01*
X-189532Y384104D01*
X-189485Y383986D01*
X-189428Y383876D01*
X-189364Y383773D01*
X-189290Y383678D01*
X-189208Y383589D01*
X-191342D01*
X-191260Y383678D01*
X-191186Y383773D01*
X-191122Y383876D01*
X-191065Y383986D01*
X-191018Y384104D01*
X-190979Y384229D01*
X-190949Y384361D01*
X-190927Y384500D01*
X-190914Y384647D01*
X-190910Y384801D01*
X-189640D01*
X-189636Y384647D01*
D02*
G37*
G36*
X-197136D02*
X-197123Y384500D01*
X-197101Y384361D01*
X-197071Y384229D01*
X-197032Y384104D01*
X-196985Y383986D01*
X-196928Y383876D01*
X-196864Y383773D01*
X-196790Y383678D01*
X-196708Y383589D01*
X-198842D01*
X-198760Y383678D01*
X-198686Y383773D01*
X-198622Y383876D01*
X-198565Y383986D01*
X-198518Y384104D01*
X-198479Y384229D01*
X-198449Y384361D01*
X-198427Y384500D01*
X-198414Y384647D01*
X-198410Y384801D01*
X-197140D01*
X-197136Y384647D01*
D02*
G37*
G36*
X-204636D02*
X-204623Y384500D01*
X-204601Y384361D01*
X-204571Y384229D01*
X-204532Y384104D01*
X-204485Y383986D01*
X-204428Y383876D01*
X-204364Y383773D01*
X-204290Y383678D01*
X-204208Y383589D01*
X-206342D01*
X-206260Y383678D01*
X-206186Y383773D01*
X-206122Y383876D01*
X-206065Y383986D01*
X-206018Y384104D01*
X-205979Y384229D01*
X-205949Y384361D01*
X-205927Y384500D01*
X-205914Y384647D01*
X-205910Y384801D01*
X-204640D01*
X-204636Y384647D01*
D02*
G37*
G36*
X-75332Y384778D02*
X-77470Y382270D01*
X-77483Y382463D01*
X-77523Y382636D01*
X-77588Y382788D01*
X-77680Y382920D01*
X-77798Y383032D01*
X-77942Y383123D01*
X-78113Y383195D01*
X-78310Y383245D01*
X-78533Y383276D01*
X-78782Y383286D01*
X-78268Y384810D01*
X-75332Y384778D01*
D02*
G37*
G36*
X-81483Y375928D02*
X-81712Y375937D01*
X-81936Y375926D01*
X-82154Y375895D01*
X-82367Y375845D01*
X-82575Y375775D01*
X-82777Y375686D01*
X-82974Y375576D01*
X-83165Y375447D01*
X-83351Y375299D01*
X-83532Y375130D01*
X-84610Y376208D01*
X-84441Y376389D01*
X-84293Y376575D01*
X-84164Y376766D01*
X-84054Y376963D01*
X-83965Y377165D01*
X-83895Y377373D01*
X-83845Y377586D01*
X-83814Y377804D01*
X-83803Y378028D01*
X-83812Y378257D01*
X-81483Y375928D01*
D02*
G37*
G36*
X-191340Y376970D02*
X-191227Y376876D01*
X-191113Y376792D01*
X-190999Y376721D01*
X-190883Y376660D01*
X-190766Y376610D01*
X-190649Y376572D01*
X-190530Y376545D01*
X-190411Y376529D01*
X-190290Y376525D01*
X-191799Y375016D01*
X-191803Y375137D01*
X-191819Y375256D01*
X-191846Y375375D01*
X-191884Y375492D01*
X-191934Y375609D01*
X-191994Y375725D01*
X-192066Y375840D01*
X-192150Y375953D01*
X-192244Y376066D01*
X-192350Y376178D01*
X-191452Y377076D01*
X-191340Y376970D01*
D02*
G37*
G36*
X-198840D02*
X-198727Y376876D01*
X-198613Y376792D01*
X-198499Y376721D01*
X-198383Y376660D01*
X-198266Y376610D01*
X-198149Y376572D01*
X-198030Y376545D01*
X-197911Y376529D01*
X-197790Y376525D01*
X-199299Y375016D01*
X-199303Y375137D01*
X-199319Y375256D01*
X-199346Y375375D01*
X-199384Y375492D01*
X-199434Y375609D01*
X-199494Y375725D01*
X-199566Y375840D01*
X-199650Y375953D01*
X-199744Y376066D01*
X-199850Y376178D01*
X-198952Y377076D01*
X-198840Y376970D01*
D02*
G37*
G36*
X-206340D02*
X-206227Y376876D01*
X-206113Y376792D01*
X-205999Y376721D01*
X-205883Y376660D01*
X-205766Y376610D01*
X-205649Y376572D01*
X-205530Y376545D01*
X-205411Y376529D01*
X-205290Y376525D01*
X-206799Y375016D01*
X-206803Y375137D01*
X-206819Y375256D01*
X-206846Y375375D01*
X-206884Y375492D01*
X-206934Y375609D01*
X-206994Y375725D01*
X-207066Y375840D01*
X-207150Y375953D01*
X-207244Y376066D01*
X-207350Y376178D01*
X-206452Y377076D01*
X-206340Y376970D01*
D02*
G37*
G36*
X-236340D02*
X-236227Y376876D01*
X-236113Y376792D01*
X-235999Y376721D01*
X-235883Y376660D01*
X-235766Y376610D01*
X-235649Y376572D01*
X-235530Y376545D01*
X-235411Y376529D01*
X-235290Y376525D01*
X-236799Y375016D01*
X-236803Y375137D01*
X-236819Y375256D01*
X-236846Y375375D01*
X-236884Y375492D01*
X-236934Y375609D01*
X-236994Y375725D01*
X-237066Y375840D01*
X-237150Y375953D01*
X-237244Y376066D01*
X-237350Y376178D01*
X-236452Y377076D01*
X-236340Y376970D01*
D02*
G37*
G36*
X-77022Y371461D02*
X-77032Y371206D01*
X-77022Y370962D01*
X-76990Y370728D01*
X-76938Y370505D01*
X-76866Y370292D01*
X-76772Y370089D01*
X-76657Y369897D01*
X-76522Y369715D01*
X-76366Y369544D01*
X-77606Y368628D01*
X-77767Y368776D01*
X-77941Y368913D01*
X-78130Y369038D01*
X-78332Y369152D01*
X-78548Y369254D01*
X-78778Y369345D01*
X-79022Y369424D01*
X-79280Y369492D01*
X-79551Y369548D01*
X-79836Y369592D01*
X-76991Y371726D01*
X-77022Y371461D01*
D02*
G37*
G36*
X-188200Y368678D02*
X-188306Y368566D01*
X-188400Y368453D01*
X-188484Y368340D01*
X-188556Y368225D01*
X-188616Y368109D01*
X-188666Y367992D01*
X-188704Y367875D01*
X-188731Y367756D01*
X-188747Y367637D01*
X-188751Y367516D01*
X-190260Y369025D01*
X-190139Y369029D01*
X-190020Y369045D01*
X-189901Y369072D01*
X-189784Y369110D01*
X-189667Y369160D01*
X-189551Y369221D01*
X-189436Y369292D01*
X-189323Y369376D01*
X-189210Y369470D01*
X-189098Y369576D01*
X-188200Y368678D01*
D02*
G37*
G36*
X-260853Y366051D02*
X-260410Y365685D01*
X-260191Y365536D01*
X-259974Y365411D01*
X-259757Y365308D01*
X-259543Y365228D01*
X-259329Y365171D01*
X-259117Y365136D01*
X-258907Y365125D01*
Y363855D01*
X-259117Y363844D01*
X-259329Y363809D01*
X-259543Y363752D01*
X-259757Y363672D01*
X-259974Y363569D01*
X-260191Y363443D01*
X-260257Y363399D01*
X-260242Y363322D01*
X-260177Y363079D01*
X-260096Y362853D01*
X-260001Y362645D01*
X-259891Y362453D01*
X-259765Y362279D01*
X-259624Y362122D01*
X-260522Y361224D01*
X-260679Y361365D01*
X-260853Y361491D01*
X-261045Y361601D01*
X-261253Y361697D01*
X-261479Y361777D01*
X-261722Y361842D01*
X-261982Y361892D01*
X-262259Y361926D01*
X-262553Y361946D01*
X-262865Y361950D01*
X-261076Y363739D01*
Y366268D01*
X-260853Y366051D01*
D02*
G37*
G36*
X-188200Y361178D02*
X-188306Y361066D01*
X-188400Y360953D01*
X-188484Y360840D01*
X-188556Y360725D01*
X-188616Y360609D01*
X-188666Y360492D01*
X-188704Y360375D01*
X-188731Y360256D01*
X-188747Y360137D01*
X-188751Y360016D01*
X-190260Y361525D01*
X-190139Y361529D01*
X-190020Y361545D01*
X-189901Y361572D01*
X-189784Y361610D01*
X-189667Y361660D01*
X-189551Y361721D01*
X-189436Y361792D01*
X-189323Y361876D01*
X-189210Y361970D01*
X-189098Y362076D01*
X-188200Y361178D01*
D02*
G37*
G36*
X-228840Y361970D02*
X-228727Y361876D01*
X-228613Y361792D01*
X-228499Y361721D01*
X-228383Y361660D01*
X-228266Y361610D01*
X-228149Y361572D01*
X-228030Y361545D01*
X-227911Y361529D01*
X-227790Y361525D01*
X-229299Y360016D01*
X-229303Y360137D01*
X-229319Y360256D01*
X-229346Y360375D01*
X-229384Y360492D01*
X-229434Y360609D01*
X-229494Y360725D01*
X-229566Y360840D01*
X-229650Y360953D01*
X-229744Y361066D01*
X-229850Y361178D01*
X-228952Y362076D01*
X-228840Y361970D01*
D02*
G37*
G36*
X-79502Y359410D02*
X-79695Y359397D01*
X-79868Y359357D01*
X-80020Y359292D01*
X-80152Y359200D01*
X-80264Y359082D01*
X-80355Y358938D01*
X-80427Y358767D01*
X-80477Y358570D01*
X-80508Y358347D01*
X-80518Y358098D01*
X-82042Y358612D01*
X-82010Y361548D01*
X-79502Y359410D01*
D02*
G37*
G36*
X-196247Y359865D02*
X-196231Y359746D01*
X-196204Y359627D01*
X-196166Y359510D01*
X-196116Y359393D01*
X-196056Y359277D01*
X-195984Y359162D01*
X-195900Y359049D01*
X-195806Y358936D01*
X-195700Y358824D01*
X-196598Y357926D01*
X-196710Y358032D01*
X-196823Y358126D01*
X-196936Y358209D01*
X-197051Y358282D01*
X-197167Y358342D01*
X-197284Y358392D01*
X-197401Y358430D01*
X-197520Y358457D01*
X-197639Y358473D01*
X-197760Y358477D01*
X-196251Y359986D01*
X-196247Y359865D01*
D02*
G37*
G36*
X-227790Y358477D02*
X-227911Y358473D01*
X-228030Y358457D01*
X-228149Y358430D01*
X-228266Y358392D01*
X-228383Y358342D01*
X-228499Y358282D01*
X-228613Y358209D01*
X-228727Y358126D01*
X-228840Y358032D01*
X-228952Y357926D01*
X-229850Y358824D01*
X-229744Y358936D01*
X-229650Y359049D01*
X-229566Y359162D01*
X-229494Y359277D01*
X-229434Y359393D01*
X-229384Y359510D01*
X-229346Y359627D01*
X-229319Y359746D01*
X-229303Y359865D01*
X-229299Y359986D01*
X-227790Y358477D01*
D02*
G37*
G36*
X-162420Y354740D02*
X-162705Y354919D01*
X-163498Y355344D01*
X-163742Y355447D01*
X-163975Y355532D01*
X-164198Y355598D01*
X-164411Y355645D01*
X-164613Y355674D01*
X-164806Y355683D01*
X-165099Y356953D01*
X-164877Y356966D01*
X-164663Y357003D01*
X-164455Y357066D01*
X-164255Y357154D01*
X-164061Y357268D01*
X-163874Y357406D01*
X-163693Y357570D01*
X-163520Y357758D01*
X-163353Y357972D01*
X-163193Y358211D01*
X-162420Y354740D01*
D02*
G37*
G36*
X-292794Y352096D02*
X-292883Y352004D01*
X-293023Y351837D01*
X-293075Y351762D01*
X-293114Y351693D01*
X-293141Y351629D01*
X-293156Y351572D01*
X-293158Y351520D01*
X-293148Y351473D01*
X-293125Y351432D01*
X-294563Y352368D01*
X-294519Y352366D01*
X-294465Y352378D01*
X-294402Y352405D01*
X-294329Y352446D01*
X-294246Y352501D01*
X-294154Y352571D01*
X-293942Y352754D01*
X-293692Y352994D01*
X-292794Y352096D01*
D02*
G37*
G36*
X-181598Y353486D02*
X-181503Y353412D01*
X-181400Y353348D01*
X-181290Y353292D01*
X-181172Y353244D01*
X-181047Y353205D01*
X-180915Y353175D01*
X-180776Y353153D01*
X-180629Y353140D01*
X-180475Y353136D01*
Y351866D01*
X-180629Y351862D01*
X-180776Y351849D01*
X-180915Y351827D01*
X-181047Y351797D01*
X-181172Y351758D01*
X-181290Y351711D01*
X-181400Y351654D01*
X-181503Y351590D01*
X-181598Y351516D01*
X-181687Y351434D01*
Y353568D01*
X-181598Y353486D01*
D02*
G37*
G36*
X-188747Y352365D02*
X-188731Y352246D01*
X-188704Y352127D01*
X-188666Y352010D01*
X-188616Y351893D01*
X-188556Y351777D01*
X-188484Y351662D01*
X-188400Y351549D01*
X-188306Y351436D01*
X-188200Y351324D01*
X-189098Y350426D01*
X-189210Y350532D01*
X-189323Y350626D01*
X-189436Y350709D01*
X-189551Y350782D01*
X-189667Y350842D01*
X-189784Y350892D01*
X-189901Y350930D01*
X-190020Y350957D01*
X-190139Y350973D01*
X-190260Y350977D01*
X-188751Y352486D01*
X-188747Y352365D01*
D02*
G37*
G36*
X-196247D02*
X-196231Y352246D01*
X-196204Y352127D01*
X-196166Y352010D01*
X-196116Y351893D01*
X-196056Y351777D01*
X-195984Y351662D01*
X-195900Y351549D01*
X-195806Y351436D01*
X-195700Y351324D01*
X-196598Y350426D01*
X-196710Y350532D01*
X-196823Y350626D01*
X-196936Y350709D01*
X-197051Y350782D01*
X-197167Y350842D01*
X-197284Y350892D01*
X-197401Y350930D01*
X-197520Y350957D01*
X-197639Y350973D01*
X-197760Y350977D01*
X-196251Y352486D01*
X-196247Y352365D01*
D02*
G37*
G36*
X306530Y359849D02*
X307231Y359269D01*
X307942Y358758D01*
X308665Y358317D01*
X309399Y357944D01*
X310144Y357641D01*
X310900Y357407D01*
X311668Y357242D01*
X312446Y357146D01*
X313236Y357120D01*
X303832Y347715D01*
X303805Y348505D01*
X303709Y349283D01*
X303544Y350051D01*
X303310Y350807D01*
X303007Y351552D01*
X302634Y352286D01*
X302193Y353009D01*
X301682Y353720D01*
X301102Y354421D01*
X300453Y355110D01*
X305841Y360498D01*
X306530Y359849D01*
D02*
G37*
G36*
X186509Y355110D02*
X185860Y354421D01*
X185280Y353720D01*
X184769Y353009D01*
X184328Y352286D01*
X183955Y351552D01*
X183652Y350807D01*
X183418Y350051D01*
X183253Y349283D01*
X183157Y348505D01*
X183131Y347715D01*
X173726Y357120D01*
X174516Y357146D01*
X175294Y357242D01*
X176062Y357407D01*
X176818Y357641D01*
X177563Y357944D01*
X178297Y358317D01*
X179020Y358758D01*
X179731Y359269D01*
X180432Y359849D01*
X181121Y360498D01*
X186509Y355110D01*
D02*
G37*
G36*
X-151311Y347415D02*
X-151458Y347657D01*
X-151614Y347873D01*
X-151778Y348063D01*
X-151951Y348228D01*
X-152132Y348368D01*
X-152321Y348482D01*
X-152519Y348571D01*
X-152725Y348635D01*
X-152939Y348673D01*
X-153162Y348686D01*
X-152808Y349956D01*
X-152621Y349965D01*
X-152422Y349991D01*
X-152210Y350036D01*
X-151987Y350099D01*
X-151751Y350179D01*
X-151243Y350394D01*
X-150970Y350528D01*
X-150389Y350849D01*
X-151311Y347415D01*
D02*
G37*
G36*
X-168184Y338582D02*
X-168407Y338799D01*
X-168850Y339165D01*
X-169069Y339314D01*
X-169286Y339439D01*
X-169503Y339542D01*
X-169718Y339622D01*
X-169931Y339679D01*
X-170143Y339714D01*
X-170353Y339725D01*
Y340995D01*
X-170143Y341006D01*
X-169931Y341041D01*
X-169718Y341098D01*
X-169503Y341178D01*
X-169286Y341281D01*
X-169069Y341407D01*
X-168850Y341555D01*
X-168629Y341726D01*
X-168407Y341921D01*
X-168184Y342138D01*
Y338582D01*
D02*
G37*
G36*
X-188747Y337365D02*
X-188731Y337246D01*
X-188704Y337127D01*
X-188666Y337010D01*
X-188616Y336893D01*
X-188556Y336777D01*
X-188484Y336662D01*
X-188400Y336549D01*
X-188306Y336436D01*
X-188200Y336324D01*
X-189098Y335426D01*
X-189210Y335532D01*
X-189323Y335626D01*
X-189436Y335709D01*
X-189551Y335782D01*
X-189667Y335842D01*
X-189784Y335892D01*
X-189901Y335930D01*
X-190020Y335957D01*
X-190139Y335973D01*
X-190260Y335977D01*
X-188751Y337486D01*
X-188747Y337365D01*
D02*
G37*
G36*
X-212790Y335977D02*
X-212911Y335973D01*
X-213030Y335957D01*
X-213149Y335930D01*
X-213266Y335892D01*
X-213383Y335842D01*
X-213499Y335782D01*
X-213613Y335709D01*
X-213727Y335626D01*
X-213840Y335532D01*
X-213952Y335426D01*
X-214850Y336324D01*
X-214744Y336436D01*
X-214650Y336549D01*
X-214566Y336662D01*
X-214494Y336777D01*
X-214434Y336893D01*
X-214384Y337010D01*
X-214346Y337127D01*
X-214319Y337246D01*
X-214303Y337365D01*
X-214299Y337486D01*
X-212790Y335977D01*
D02*
G37*
G36*
X-295216Y336410D02*
X-295357Y336253D01*
X-295483Y336078D01*
X-295593Y335887D01*
X-295688Y335679D01*
X-295769Y335453D01*
X-295834Y335210D01*
X-295884Y334950D01*
X-295918Y334673D01*
X-295938Y334379D01*
X-295942Y334067D01*
X-298457Y336582D01*
X-298145Y336586D01*
X-297574Y336640D01*
X-297314Y336690D01*
X-297071Y336755D01*
X-296845Y336835D01*
X-296637Y336931D01*
X-296445Y337041D01*
X-296271Y337167D01*
X-296114Y337308D01*
X-295216Y336410D01*
D02*
G37*
G36*
X-188747Y329865D02*
X-188731Y329746D01*
X-188704Y329627D01*
X-188666Y329510D01*
X-188616Y329393D01*
X-188556Y329277D01*
X-188484Y329162D01*
X-188400Y329049D01*
X-188306Y328936D01*
X-188200Y328824D01*
X-189098Y327926D01*
X-189210Y328032D01*
X-189323Y328126D01*
X-189436Y328209D01*
X-189551Y328282D01*
X-189667Y328342D01*
X-189784Y328392D01*
X-189901Y328430D01*
X-190020Y328457D01*
X-190139Y328473D01*
X-190260Y328477D01*
X-188751Y329986D01*
X-188747Y329865D01*
D02*
G37*
G36*
X-196247D02*
X-196231Y329746D01*
X-196204Y329627D01*
X-196166Y329510D01*
X-196116Y329393D01*
X-196056Y329277D01*
X-195984Y329162D01*
X-195900Y329049D01*
X-195806Y328936D01*
X-195700Y328824D01*
X-196598Y327926D01*
X-196710Y328032D01*
X-196823Y328126D01*
X-196936Y328209D01*
X-197051Y328282D01*
X-197167Y328342D01*
X-197284Y328392D01*
X-197401Y328430D01*
X-197520Y328457D01*
X-197639Y328473D01*
X-197760Y328477D01*
X-196251Y329986D01*
X-196247Y329865D01*
D02*
G37*
G36*
X-227790Y328477D02*
X-227911Y328473D01*
X-228030Y328457D01*
X-228149Y328430D01*
X-228266Y328392D01*
X-228383Y328342D01*
X-228499Y328282D01*
X-228613Y328209D01*
X-228727Y328126D01*
X-228840Y328032D01*
X-228952Y327926D01*
X-229850Y328824D01*
X-229744Y328936D01*
X-229650Y329049D01*
X-229566Y329162D01*
X-229494Y329277D01*
X-229434Y329393D01*
X-229384Y329510D01*
X-229346Y329627D01*
X-229319Y329746D01*
X-229303Y329865D01*
X-229299Y329986D01*
X-227790Y328477D01*
D02*
G37*
G36*
X-212295Y328555D02*
X-212348Y328531D01*
X-212394Y328495D01*
X-212436Y328448D01*
X-212472Y328389D01*
X-212502Y328319D01*
X-212527Y328237D01*
X-212546Y328144D01*
X-212560Y328039D01*
X-212568Y327922D01*
X-212571Y327794D01*
X-213841Y327997D01*
X-213842Y328169D01*
X-213885Y328806D01*
X-213901Y328888D01*
X-213919Y328956D01*
X-213939Y329008D01*
X-213963Y329046D01*
X-212295Y328555D01*
D02*
G37*
G36*
X-188747Y322365D02*
X-188731Y322246D01*
X-188704Y322127D01*
X-188666Y322010D01*
X-188616Y321893D01*
X-188556Y321777D01*
X-188484Y321662D01*
X-188400Y321549D01*
X-188306Y321436D01*
X-188200Y321324D01*
X-189098Y320426D01*
X-189210Y320532D01*
X-189323Y320626D01*
X-189436Y320709D01*
X-189551Y320782D01*
X-189667Y320842D01*
X-189784Y320892D01*
X-189901Y320930D01*
X-190020Y320957D01*
X-190139Y320973D01*
X-190260Y320977D01*
X-188751Y322486D01*
X-188747Y322365D01*
D02*
G37*
G36*
X-203747D02*
X-203731Y322246D01*
X-203704Y322127D01*
X-203666Y322010D01*
X-203616Y321893D01*
X-203556Y321777D01*
X-203484Y321662D01*
X-203400Y321549D01*
X-203306Y321436D01*
X-203200Y321324D01*
X-204098Y320426D01*
X-204210Y320532D01*
X-204323Y320626D01*
X-204436Y320709D01*
X-204551Y320782D01*
X-204667Y320842D01*
X-204784Y320892D01*
X-204901Y320930D01*
X-205020Y320957D01*
X-205139Y320973D01*
X-205260Y320977D01*
X-203751Y322486D01*
X-203747Y322365D01*
D02*
G37*
G36*
X-211247D02*
X-211231Y322246D01*
X-211204Y322127D01*
X-211166Y322010D01*
X-211116Y321893D01*
X-211056Y321777D01*
X-210984Y321662D01*
X-210900Y321549D01*
X-210806Y321436D01*
X-210700Y321324D01*
X-211598Y320426D01*
X-211710Y320532D01*
X-211823Y320626D01*
X-211936Y320709D01*
X-212051Y320782D01*
X-212167Y320842D01*
X-212284Y320892D01*
X-212401Y320930D01*
X-212520Y320957D01*
X-212639Y320973D01*
X-212760Y320977D01*
X-211251Y322486D01*
X-211247Y322365D01*
D02*
G37*
G36*
X-227790Y320977D02*
X-227911Y320973D01*
X-228030Y320957D01*
X-228149Y320930D01*
X-228266Y320892D01*
X-228383Y320842D01*
X-228499Y320782D01*
X-228613Y320709D01*
X-228727Y320626D01*
X-228840Y320532D01*
X-228952Y320426D01*
X-229850Y321324D01*
X-229744Y321436D01*
X-229650Y321549D01*
X-229566Y321662D01*
X-229494Y321777D01*
X-229434Y321893D01*
X-229384Y322010D01*
X-229346Y322127D01*
X-229319Y322246D01*
X-229303Y322365D01*
X-229299Y322486D01*
X-227790Y320977D01*
D02*
G37*
G36*
X-189290Y313824D02*
X-189364Y313729D01*
X-189428Y313626D01*
X-189485Y313516D01*
X-189532Y313398D01*
X-189571Y313273D01*
X-189601Y313141D01*
X-189623Y313002D01*
X-189636Y312855D01*
X-189640Y312701D01*
X-190910D01*
X-190914Y312855D01*
X-190927Y313002D01*
X-190949Y313141D01*
X-190979Y313273D01*
X-191018Y313398D01*
X-191065Y313516D01*
X-191122Y313626D01*
X-191186Y313729D01*
X-191260Y313824D01*
X-191342Y313913D01*
X-189208D01*
X-189290Y313824D01*
D02*
G37*
G36*
X313236Y313120D02*
X312446Y313094D01*
X311668Y312998D01*
X310900Y312833D01*
X310144Y312599D01*
X309399Y312296D01*
X308665Y311923D01*
X307942Y311482D01*
X307231Y310971D01*
X306530Y310391D01*
X305841Y309742D01*
X300453Y315130D01*
X301102Y315819D01*
X301682Y316520D01*
X302193Y317231D01*
X302634Y317954D01*
X303007Y318688D01*
X303310Y319433D01*
X303544Y320189D01*
X303709Y320957D01*
X303805Y321735D01*
X303832Y322525D01*
X313236Y313120D01*
D02*
G37*
G36*
X183157Y321735D02*
X183253Y320957D01*
X183418Y320189D01*
X183652Y319433D01*
X183955Y318688D01*
X184328Y317954D01*
X184769Y317231D01*
X185280Y316520D01*
X185860Y315819D01*
X186509Y315130D01*
X181121Y309742D01*
X180432Y310391D01*
X179731Y310971D01*
X179020Y311482D01*
X178297Y311923D01*
X177563Y312296D01*
X176818Y312599D01*
X176062Y312833D01*
X175294Y312998D01*
X174516Y313094D01*
X173726Y313120D01*
X183131Y322525D01*
X183157Y321735D01*
D02*
G37*
G36*
X-200582Y307059D02*
X-200548Y306847D01*
X-200491Y306634D01*
X-200411Y306419D01*
X-200308Y306203D01*
X-200182Y305985D01*
X-200033Y305766D01*
X-199862Y305546D01*
X-199668Y305324D01*
X-199450Y305100D01*
X-203006D01*
X-202789Y305324D01*
X-202424Y305766D01*
X-202275Y305985D01*
X-202149Y306203D01*
X-202046Y306419D01*
X-201966Y306634D01*
X-201909Y306847D01*
X-201875Y307059D01*
X-201863Y307270D01*
X-200593D01*
X-200582Y307059D01*
D02*
G37*
G36*
X-324353Y306361D02*
X-323910Y305995D01*
X-323691Y305847D01*
X-323474Y305721D01*
X-323257Y305618D01*
X-323042Y305538D01*
X-322829Y305481D01*
X-322617Y305446D01*
X-322407Y305435D01*
Y304165D01*
X-322617Y304154D01*
X-322829Y304119D01*
X-323042Y304062D01*
X-323257Y303982D01*
X-323474Y303879D01*
X-323691Y303754D01*
X-323910Y303605D01*
X-324131Y303433D01*
X-324353Y303239D01*
X-324576Y303022D01*
Y306578D01*
X-324353Y306361D01*
D02*
G37*
G36*
X-239487Y301000D02*
X-239453Y300788D01*
X-239396Y300575D01*
X-239316Y300360D01*
X-239213Y300144D01*
X-239087Y299926D01*
X-238939Y299707D01*
X-238767Y299487D01*
X-238573Y299265D01*
X-238356Y299042D01*
X-241912D01*
X-241694Y299265D01*
X-241329Y299707D01*
X-241180Y299926D01*
X-241054Y300144D01*
X-240951Y300360D01*
X-240871Y300575D01*
X-240814Y300788D01*
X-240780Y301000D01*
X-240769Y301211D01*
X-239499D01*
X-239487Y301000D01*
D02*
G37*
G36*
X-233034Y300953D02*
X-232999Y300741D01*
X-232942Y300527D01*
X-232862Y300313D01*
X-232759Y300096D01*
X-232633Y299879D01*
X-232485Y299660D01*
X-232313Y299439D01*
X-232119Y299217D01*
X-231902Y298994D01*
X-235458D01*
X-235241Y299217D01*
X-234875Y299660D01*
X-234727Y299879D01*
X-234601Y300096D01*
X-234498Y300313D01*
X-234418Y300527D01*
X-234361Y300741D01*
X-234326Y300953D01*
X-234315Y301163D01*
X-233045D01*
X-233034Y300953D01*
D02*
G37*
G36*
X-216352Y299702D02*
X-216314Y299489D01*
X-216250Y299290D01*
X-216160Y299106D01*
X-216045Y298937D01*
X-215903Y298783D01*
X-215737Y298643D01*
X-215544Y298519D01*
X-215326Y298410D01*
X-215083Y298315D01*
X-218273Y296815D01*
X-218152Y297145D01*
X-217865Y298084D01*
X-217795Y298379D01*
X-217693Y298943D01*
X-217661Y299212D01*
X-217635Y299723D01*
X-216365Y299931D01*
X-216352Y299702D01*
D02*
G37*
G36*
X-345943Y289851D02*
X-345500Y289485D01*
X-345281Y289336D01*
X-345064Y289211D01*
X-344847Y289108D01*
X-344632Y289028D01*
X-344419Y288971D01*
X-344207Y288936D01*
X-343997Y288925D01*
Y287655D01*
X-344207Y287644D01*
X-344419Y287609D01*
X-344632Y287552D01*
X-344847Y287472D01*
X-345064Y287369D01*
X-345281Y287243D01*
X-345500Y287095D01*
X-345721Y286924D01*
X-345943Y286729D01*
X-346166Y286512D01*
Y290068D01*
X-345943Y289851D01*
D02*
G37*
G36*
X-161640Y287071D02*
X-161502Y286927D01*
X-161354Y286800D01*
X-161196Y286690D01*
X-161026Y286597D01*
X-160846Y286521D01*
X-160656Y286461D01*
X-160454Y286419D01*
X-160243Y286394D01*
X-160020Y286385D01*
Y285115D01*
X-160243Y285107D01*
X-160454Y285081D01*
X-160656Y285039D01*
X-160846Y284979D01*
X-161026Y284903D01*
X-161196Y284810D01*
X-161354Y284700D01*
X-161502Y284573D01*
X-161640Y284429D01*
X-161767Y284268D01*
Y287232D01*
X-161640Y287071D01*
D02*
G37*
G36*
X-341837Y285831D02*
X-341015Y285433D01*
X-340766Y285336D01*
X-340306Y285194D01*
X-340095Y285150D01*
X-339897Y285124D01*
X-339711Y285115D01*
X-339344Y283845D01*
X-339567Y283832D01*
X-339782Y283794D01*
X-339988Y283731D01*
X-340185Y283641D01*
X-340373Y283527D01*
X-340553Y283387D01*
X-340724Y283221D01*
X-340886Y283031D01*
X-341039Y282814D01*
X-341184Y282572D01*
X-342136Y285999D01*
X-341837Y285831D01*
D02*
G37*
G36*
X-303194Y285213D02*
X-302382Y284806D01*
X-302135Y284706D01*
X-301676Y284562D01*
X-301464Y284516D01*
X-301264Y284489D01*
X-301076Y284480D01*
X-300736Y283210D01*
X-300958Y283197D01*
X-301173Y283159D01*
X-301379Y283096D01*
X-301578Y283007D01*
X-301768Y282893D01*
X-301950Y282754D01*
X-302125Y282589D01*
X-302291Y282398D01*
X-302449Y282183D01*
X-302599Y281942D01*
X-303488Y285385D01*
X-303194Y285213D01*
D02*
G37*
G36*
X-326893Y284771D02*
X-326450Y284405D01*
X-326231Y284256D01*
X-326013Y284131D01*
X-325797Y284028D01*
X-325583Y283948D01*
X-325369Y283891D01*
X-325157Y283856D01*
X-324947Y283845D01*
Y282575D01*
X-325157Y282564D01*
X-325369Y282529D01*
X-325583Y282472D01*
X-325797Y282392D01*
X-326013Y282289D01*
X-326231Y282164D01*
X-326450Y282015D01*
X-326671Y281843D01*
X-326893Y281649D01*
X-327116Y281432D01*
Y284988D01*
X-326893Y284771D01*
D02*
G37*
G36*
X-312923Y282231D02*
X-312480Y281865D01*
X-312261Y281716D01*
X-312043Y281591D01*
X-311827Y281488D01*
X-311612Y281408D01*
X-311399Y281351D01*
X-311187Y281316D01*
X-310977Y281305D01*
Y280035D01*
X-311187Y280024D01*
X-311399Y279989D01*
X-311612Y279932D01*
X-311827Y279852D01*
X-312043Y279749D01*
X-312261Y279624D01*
X-312480Y279475D01*
X-312701Y279303D01*
X-312923Y279109D01*
X-313146Y278892D01*
Y282448D01*
X-312923Y282231D01*
D02*
G37*
G36*
X-167008Y279853D02*
X-166526Y279509D01*
X-166293Y279370D01*
X-166064Y279251D01*
X-165841Y279155D01*
X-165622Y279080D01*
X-165407Y279026D01*
X-165198Y278994D01*
X-164993Y278983D01*
X-164881Y277713D01*
X-165096Y277701D01*
X-165309Y277665D01*
X-165521Y277605D01*
X-165731Y277521D01*
X-165939Y277413D01*
X-166145Y277281D01*
X-166349Y277125D01*
X-166551Y276946D01*
X-166752Y276742D01*
X-166950Y276514D01*
X-167255Y280057D01*
X-167008Y279853D01*
D02*
G37*
G36*
X-320193Y279070D02*
X-320045Y278853D01*
X-319887Y278661D01*
X-319719Y278496D01*
X-319543Y278355D01*
X-319357Y278240D01*
X-319161Y278151D01*
X-318956Y278087D01*
X-318742Y278049D01*
X-318518Y278036D01*
X-318913Y276766D01*
X-319096Y276757D01*
X-319293Y276732D01*
X-319503Y276689D01*
X-319727Y276628D01*
X-319964Y276551D01*
X-320479Y276345D01*
X-320757Y276216D01*
X-321353Y275906D01*
X-320332Y279313D01*
X-320193Y279070D01*
D02*
G37*
G36*
X-281604Y276323D02*
X-280792Y275916D01*
X-280545Y275816D01*
X-280086Y275672D01*
X-279874Y275626D01*
X-279674Y275599D01*
X-279486Y275590D01*
X-279146Y274320D01*
X-279368Y274307D01*
X-279583Y274269D01*
X-279789Y274206D01*
X-279988Y274117D01*
X-280178Y274003D01*
X-280360Y273864D01*
X-280535Y273699D01*
X-280701Y273508D01*
X-280859Y273293D01*
X-281009Y273052D01*
X-281898Y276495D01*
X-281604Y276323D01*
D02*
G37*
G36*
X-280788Y258141D02*
X-280941Y257974D01*
X-281077Y257795D01*
X-281197Y257603D01*
X-281301Y257399D01*
X-281388Y257183D01*
X-281458Y256954D01*
X-281513Y256712D01*
X-281551Y256459D01*
X-281573Y256193D01*
X-281578Y255914D01*
X-284093Y258429D01*
X-283814Y258434D01*
X-283548Y258456D01*
X-283295Y258494D01*
X-283053Y258549D01*
X-282825Y258619D01*
X-282608Y258706D01*
X-282404Y258810D01*
X-282212Y258930D01*
X-282033Y259066D01*
X-281866Y259219D01*
X-280788Y258141D01*
D02*
G37*
G36*
X13063Y257111D02*
X12934Y256945D01*
X12819Y256769D01*
X12720Y256581D01*
X12636Y256383D01*
X12568Y256174D01*
X12515Y255954D01*
X12477Y255723D01*
X12454Y255481D01*
X12446Y255228D01*
X10414D01*
X10406Y255481D01*
X10383Y255723D01*
X10345Y255954D01*
X10292Y256174D01*
X10223Y256383D01*
X10140Y256581D01*
X10041Y256769D01*
X9926Y256945D01*
X9797Y257111D01*
X9652Y257266D01*
X13208D01*
X13063Y257111D01*
D02*
G37*
G36*
X16451Y249159D02*
X16639Y249009D01*
X16827Y248885D01*
X17015Y248787D01*
X17202Y248715D01*
X17388Y248669D01*
X17574Y248649D01*
X17759Y248656D01*
X17944Y248688D01*
X18128Y248747D01*
X16665Y245506D01*
X16595Y245681D01*
X16514Y245856D01*
X16315Y246209D01*
X16199Y246387D01*
X15930Y246744D01*
X15778Y246923D01*
X15438Y247285D01*
X16262Y249335D01*
X16451Y249159D01*
D02*
G37*
G36*
X-253641Y240501D02*
X-253179Y240214D01*
X-252951Y240098D01*
X-252724Y240000D01*
X-252499Y239919D01*
X-252276Y239856D01*
X-252054Y239812D01*
X-251833Y239785D01*
X-251615Y239776D01*
X-251385Y238252D01*
X-251616Y238241D01*
X-251841Y238208D01*
X-252057Y238153D01*
X-252267Y238076D01*
X-252469Y237977D01*
X-252664Y237856D01*
X-252851Y237712D01*
X-253031Y237547D01*
X-253204Y237360D01*
X-253369Y237151D01*
X-253874Y240671D01*
X-253641Y240501D01*
D02*
G37*
G36*
X-252989Y233357D02*
X-253147Y233190D01*
X-253285Y233025D01*
X-253404Y232863D01*
X-253502Y232704D01*
X-253581Y232547D01*
X-253640Y232392D01*
X-253679Y232240D01*
X-253698Y232090D01*
X-253697Y231943D01*
X-253676Y231798D01*
X-255625Y233748D01*
X-255480Y233727D01*
X-255333Y233726D01*
X-255184Y233745D01*
X-255031Y233784D01*
X-254877Y233842D01*
X-254720Y233921D01*
X-254560Y234020D01*
X-254398Y234138D01*
X-254233Y234276D01*
X-254066Y234435D01*
X-252989Y233357D01*
D02*
G37*
G36*
X-407561Y231547D02*
X-407775Y231397D01*
X-407966Y231238D01*
X-408135Y231069D01*
X-408281Y230891D01*
X-408405Y230704D01*
X-408506Y230507D01*
X-408585Y230301D01*
X-408641Y230086D01*
X-408675Y229862D01*
X-408686Y229629D01*
X-410210Y229956D01*
X-410218Y230171D01*
X-410243Y230389D01*
X-410285Y230611D01*
X-410344Y230836D01*
X-410419Y231065D01*
X-410511Y231297D01*
X-410619Y231532D01*
X-410886Y232013D01*
X-411045Y232258D01*
X-407561Y231547D01*
D02*
G37*
G36*
X-412435Y226586D02*
X-412608Y226382D01*
X-412760Y226176D01*
X-412892Y225967D01*
X-413004Y225755D01*
X-413095Y225540D01*
X-413167Y225323D01*
X-413217Y225102D01*
X-413248Y224879D01*
X-413258Y224653D01*
X-414782D01*
X-414792Y224879D01*
X-414823Y225102D01*
X-414873Y225323D01*
X-414945Y225540D01*
X-415036Y225755D01*
X-415148Y225967D01*
X-415280Y226176D01*
X-415432Y226382D01*
X-415605Y226586D01*
X-415798Y226786D01*
X-412242D01*
X-412435Y226586D01*
D02*
G37*
G36*
X64226Y224282D02*
X64094Y224403D01*
X63948Y224511D01*
X63787Y224606D01*
X63611Y224688D01*
X63420Y224758D01*
X63215Y224815D01*
X62995Y224860D01*
X62761Y224892D01*
X62512Y224911D01*
X62248Y224917D01*
Y227203D01*
X62512Y227209D01*
X62995Y227260D01*
X63215Y227305D01*
X63420Y227362D01*
X63611Y227432D01*
X63787Y227514D01*
X63948Y227609D01*
X64094Y227717D01*
X64226Y227838D01*
Y224282D01*
D02*
G37*
G36*
X-81874Y227717D02*
X-81728Y227609D01*
X-81567Y227514D01*
X-81391Y227432D01*
X-81200Y227362D01*
X-80995Y227305D01*
X-80775Y227260D01*
X-80541Y227228D01*
X-80292Y227209D01*
X-80028Y227203D01*
Y224917D01*
X-80292Y224911D01*
X-80775Y224860D01*
X-80995Y224815D01*
X-81200Y224758D01*
X-81391Y224688D01*
X-81567Y224606D01*
X-81728Y224511D01*
X-81874Y224403D01*
X-82006Y224282D01*
Y227838D01*
X-81874Y227717D01*
D02*
G37*
G36*
X-251412Y220219D02*
X-251440Y220208D01*
X-251486Y220177D01*
X-251551Y220127D01*
X-251733Y219965D01*
X-252506Y219216D01*
X-253224Y219934D01*
X-252220Y221028D01*
X-251412Y220219D01*
D02*
G37*
G36*
X-405415Y218498D02*
X-406115Y217770D01*
X-407193Y218848D01*
X-407111Y218930D01*
X-406798Y219283D01*
X-406791Y219301D01*
X-406792Y219312D01*
X-405415Y218498D01*
D02*
G37*
G36*
X-245043Y218937D02*
X-245616Y217788D01*
X-245708Y217549D01*
X-245780Y217329D01*
X-245831Y217129D01*
X-245862Y216947D01*
X-245872Y216785D01*
X-246888Y216508D01*
X-246902Y216717D01*
X-246944Y216921D01*
X-247014Y217119D01*
X-247111Y217312D01*
X-247237Y217500D01*
X-247391Y217682D01*
X-247572Y217859D01*
X-247782Y218030D01*
X-248020Y218197D01*
X-248285Y218357D01*
X-244849Y219273D01*
X-245043Y218937D01*
D02*
G37*
G36*
X-284907Y213836D02*
X-284912Y213785D01*
X-284921Y213594D01*
X-284932Y212304D01*
X-285948D01*
X-285979Y213857D01*
X-284901D01*
X-284907Y213836D01*
D02*
G37*
G36*
X-268425Y213216D02*
X-268400Y212921D01*
X-268379Y212790D01*
X-268352Y212670D01*
X-268318Y212561D01*
X-268279Y212463D01*
X-268233Y212376D01*
X-268181Y212299D01*
X-268123Y212234D01*
X-270257D01*
X-270199Y212299D01*
X-270147Y212376D01*
X-270101Y212463D01*
X-270062Y212561D01*
X-270028Y212670D01*
X-270001Y212790D01*
X-269979Y212921D01*
X-269964Y213063D01*
X-269952Y213380D01*
X-268428D01*
X-268425Y213216D01*
D02*
G37*
G36*
X-274925D02*
X-274900Y212921D01*
X-274879Y212790D01*
X-274852Y212670D01*
X-274818Y212561D01*
X-274779Y212463D01*
X-274733Y212376D01*
X-274681Y212299D01*
X-274623Y212234D01*
X-276757D01*
X-276699Y212299D01*
X-276647Y212376D01*
X-276601Y212463D01*
X-276562Y212561D01*
X-276528Y212670D01*
X-276501Y212790D01*
X-276479Y212921D01*
X-276464Y213063D01*
X-276452Y213380D01*
X-274928D01*
X-274925Y213216D01*
D02*
G37*
G36*
X-281425D02*
X-281401Y212921D01*
X-281379Y212790D01*
X-281352Y212670D01*
X-281318Y212561D01*
X-281279Y212463D01*
X-281233Y212376D01*
X-281181Y212299D01*
X-281123Y212234D01*
X-283257D01*
X-283199Y212299D01*
X-283147Y212376D01*
X-283101Y212463D01*
X-283062Y212561D01*
X-283028Y212670D01*
X-283001Y212790D01*
X-282979Y212921D01*
X-282964Y213063D01*
X-282952Y213380D01*
X-281428D01*
X-281425Y213216D01*
D02*
G37*
G36*
X-287925D02*
X-287901Y212921D01*
X-287879Y212790D01*
X-287852Y212670D01*
X-287818Y212561D01*
X-287779Y212463D01*
X-287733Y212376D01*
X-287681Y212299D01*
X-287623Y212234D01*
X-289757D01*
X-289699Y212299D01*
X-289647Y212376D01*
X-289601Y212463D01*
X-289562Y212561D01*
X-289528Y212670D01*
X-289501Y212790D01*
X-289479Y212921D01*
X-289464Y213063D01*
X-289452Y213380D01*
X-287928D01*
X-287925Y213216D01*
D02*
G37*
G36*
X-294425D02*
X-294401Y212921D01*
X-294379Y212790D01*
X-294352Y212670D01*
X-294318Y212561D01*
X-294279Y212463D01*
X-294233Y212376D01*
X-294181Y212299D01*
X-294123Y212234D01*
X-296257D01*
X-296199Y212299D01*
X-296147Y212376D01*
X-296101Y212463D01*
X-296062Y212561D01*
X-296028Y212670D01*
X-296001Y212790D01*
X-295979Y212921D01*
X-295964Y213063D01*
X-295952Y213380D01*
X-294428D01*
X-294425Y213216D01*
D02*
G37*
G36*
X-300925D02*
X-300900Y212921D01*
X-300879Y212790D01*
X-300852Y212670D01*
X-300818Y212561D01*
X-300779Y212463D01*
X-300733Y212376D01*
X-300681Y212299D01*
X-300623Y212234D01*
X-302757D01*
X-302699Y212299D01*
X-302647Y212376D01*
X-302601Y212463D01*
X-302562Y212561D01*
X-302528Y212670D01*
X-302501Y212790D01*
X-302479Y212921D01*
X-302464Y213063D01*
X-302452Y213380D01*
X-300928D01*
X-300925Y213216D01*
D02*
G37*
G36*
X-90162Y211919D02*
X-90133Y211769D01*
X-90084Y211612D01*
X-90015Y211450D01*
X-89926Y211282D01*
X-89817Y211108D01*
X-89687Y210928D01*
X-89538Y210743D01*
X-89179Y210355D01*
X-90975Y208559D01*
X-91172Y208748D01*
X-91548Y209067D01*
X-91728Y209197D01*
X-91902Y209306D01*
X-92070Y209395D01*
X-92232Y209464D01*
X-92389Y209513D01*
X-92540Y209541D01*
X-92685Y209550D01*
X-90170Y212065D01*
X-90162Y211919D01*
D02*
G37*
G36*
X73116Y206502D02*
X73007Y206598D01*
X72880Y206685D01*
X72735Y206761D01*
X72572Y206827D01*
X72390Y206883D01*
X72189Y206929D01*
X71971Y206964D01*
X71734Y206990D01*
X71206Y207010D01*
Y209550D01*
X71480Y209555D01*
X71971Y209596D01*
X72189Y209631D01*
X72390Y209677D01*
X72572Y209733D01*
X72735Y209799D01*
X72880Y209875D01*
X73007Y209961D01*
X73116Y210058D01*
Y206502D01*
D02*
G37*
G36*
X-162585Y205740D02*
X-162897Y205736D01*
X-163468Y205681D01*
X-163728Y205632D01*
X-163971Y205567D01*
X-164197Y205487D01*
X-164405Y205391D01*
X-164597Y205281D01*
X-164771Y205155D01*
X-164928Y205014D01*
X-165826Y205912D01*
X-165685Y206069D01*
X-165559Y206243D01*
X-165449Y206435D01*
X-165354Y206643D01*
X-165273Y206869D01*
X-165208Y207112D01*
X-165159Y207372D01*
X-165124Y207649D01*
X-165104Y207943D01*
X-165100Y208255D01*
X-162585Y205740D01*
D02*
G37*
G36*
X-228168Y205949D02*
X-228264Y205845D01*
X-228350Y205736D01*
X-228425Y205621D01*
X-228491Y205501D01*
X-228545Y205374D01*
X-228590Y205243D01*
X-228624Y205106D01*
X-228649Y204963D01*
X-228662Y204815D01*
X-228666Y204661D01*
X-230175Y206170D01*
X-230021Y206173D01*
X-229873Y206187D01*
X-229730Y206211D01*
X-229593Y206246D01*
X-229461Y206290D01*
X-229335Y206345D01*
X-229215Y206411D01*
X-229100Y206486D01*
X-228990Y206572D01*
X-228887Y206668D01*
X-228168Y205949D01*
D02*
G37*
G36*
X-247668D02*
X-247764Y205845D01*
X-247850Y205736D01*
X-247925Y205621D01*
X-247991Y205501D01*
X-248046Y205374D01*
X-248090Y205243D01*
X-248125Y205106D01*
X-248149Y204963D01*
X-248162Y204815D01*
X-248166Y204661D01*
X-249675Y206170D01*
X-249521Y206173D01*
X-249373Y206187D01*
X-249230Y206211D01*
X-249093Y206246D01*
X-248962Y206290D01*
X-248835Y206345D01*
X-248715Y206411D01*
X-248600Y206486D01*
X-248491Y206572D01*
X-248387Y206668D01*
X-247668Y205949D01*
D02*
G37*
G36*
X-254168D02*
X-254264Y205845D01*
X-254350Y205736D01*
X-254425Y205621D01*
X-254491Y205501D01*
X-254545Y205374D01*
X-254590Y205243D01*
X-254625Y205106D01*
X-254649Y204963D01*
X-254662Y204815D01*
X-254666Y204661D01*
X-256175Y206170D01*
X-256021Y206173D01*
X-255873Y206187D01*
X-255730Y206211D01*
X-255593Y206246D01*
X-255462Y206290D01*
X-255335Y206345D01*
X-255215Y206411D01*
X-255100Y206486D01*
X-254991Y206572D01*
X-254887Y206668D01*
X-254168Y205949D01*
D02*
G37*
G36*
X-267071Y205687D02*
X-267185Y205569D01*
X-267376Y205343D01*
X-267454Y205235D01*
X-267519Y205131D01*
X-267573Y205030D01*
X-267614Y204933D01*
X-267644Y204839D01*
X-267661Y204748D01*
X-267666Y204661D01*
X-269175Y206170D01*
X-269088Y206175D01*
X-268997Y206192D01*
X-268903Y206222D01*
X-268806Y206263D01*
X-268705Y206316D01*
X-268601Y206382D01*
X-268493Y206460D01*
X-268382Y206549D01*
X-268149Y206765D01*
X-267071Y205687D01*
D02*
G37*
G36*
X-286668Y205949D02*
X-286764Y205845D01*
X-286850Y205736D01*
X-286925Y205621D01*
X-286991Y205501D01*
X-287045Y205374D01*
X-287090Y205243D01*
X-287125Y205106D01*
X-287149Y204963D01*
X-287162Y204815D01*
X-287166Y204661D01*
X-288675Y206170D01*
X-288521Y206173D01*
X-288373Y206187D01*
X-288230Y206211D01*
X-288093Y206246D01*
X-287962Y206290D01*
X-287835Y206345D01*
X-287715Y206411D01*
X-287600Y206486D01*
X-287491Y206572D01*
X-287387Y206668D01*
X-286668Y205949D01*
D02*
G37*
G36*
X-310590Y202463D02*
X-310539Y202458D01*
X-310348Y202449D01*
X-309058Y202438D01*
Y201422D01*
X-310611Y201391D01*
Y202469D01*
X-310590Y202463D01*
D02*
G37*
G36*
X-374335Y202456D02*
X-374508Y202252D01*
X-374660Y202046D01*
X-374792Y201837D01*
X-374904Y201625D01*
X-374995Y201410D01*
X-375067Y201193D01*
X-375117Y200972D01*
X-375148Y200749D01*
X-375158Y200523D01*
X-376682D01*
X-376692Y200749D01*
X-376723Y200972D01*
X-376773Y201193D01*
X-376845Y201410D01*
X-376936Y201625D01*
X-377048Y201837D01*
X-377180Y202046D01*
X-377332Y202252D01*
X-377505Y202456D01*
X-377698Y202656D01*
X-374142D01*
X-374335Y202456D01*
D02*
G37*
G36*
X-267115Y199323D02*
X-267220Y199211D01*
X-267315Y199098D01*
X-267398Y198985D01*
X-267470Y198870D01*
X-267531Y198754D01*
X-267581Y198637D01*
X-267619Y198520D01*
X-267646Y198401D01*
X-267662Y198282D01*
X-267666Y198161D01*
X-269175Y199670D01*
X-269054Y199674D01*
X-268935Y199690D01*
X-268816Y199717D01*
X-268699Y199755D01*
X-268582Y199805D01*
X-268466Y199865D01*
X-268351Y199937D01*
X-268238Y200021D01*
X-268125Y200115D01*
X-268013Y200221D01*
X-267115Y199323D01*
D02*
G37*
G36*
X-296389Y200072D02*
X-296280Y199986D01*
X-296165Y199911D01*
X-296045Y199845D01*
X-295919Y199790D01*
X-295787Y199746D01*
X-295650Y199711D01*
X-295507Y199687D01*
X-295359Y199673D01*
X-295205Y199670D01*
X-296714Y198161D01*
X-296717Y198315D01*
X-296731Y198463D01*
X-296755Y198606D01*
X-296790Y198743D01*
X-296834Y198874D01*
X-296889Y199000D01*
X-296954Y199121D01*
X-297030Y199236D01*
X-297116Y199345D01*
X-297212Y199449D01*
X-296493Y200168D01*
X-296389Y200072D01*
D02*
G37*
G36*
X-380685Y197376D02*
X-380858Y197172D01*
X-381010Y196966D01*
X-381142Y196757D01*
X-381254Y196545D01*
X-381345Y196330D01*
X-381417Y196113D01*
X-381467Y195892D01*
X-381498Y195669D01*
X-381508Y195443D01*
X-383032D01*
X-383042Y195669D01*
X-383073Y195892D01*
X-383123Y196113D01*
X-383195Y196330D01*
X-383286Y196545D01*
X-383398Y196757D01*
X-383530Y196966D01*
X-383682Y197172D01*
X-383855Y197376D01*
X-384048Y197576D01*
X-380492D01*
X-380685Y197376D01*
D02*
G37*
G36*
X-228168Y192949D02*
X-228264Y192845D01*
X-228350Y192736D01*
X-228425Y192621D01*
X-228491Y192500D01*
X-228545Y192374D01*
X-228590Y192243D01*
X-228624Y192106D01*
X-228649Y191963D01*
X-228662Y191815D01*
X-228666Y191661D01*
X-230175Y193170D01*
X-230021Y193173D01*
X-229873Y193187D01*
X-229730Y193211D01*
X-229593Y193246D01*
X-229461Y193290D01*
X-229335Y193345D01*
X-229215Y193410D01*
X-229100Y193486D01*
X-228990Y193572D01*
X-228887Y193668D01*
X-228168Y192949D01*
D02*
G37*
G36*
X-302778Y190579D02*
X-302844Y190637D01*
X-302920Y190689D01*
X-303007Y190735D01*
X-303105Y190774D01*
X-303214Y190808D01*
X-303334Y190835D01*
X-303465Y190856D01*
X-303607Y190872D01*
X-303924Y190884D01*
Y192408D01*
X-303760Y192411D01*
X-303465Y192435D01*
X-303334Y192457D01*
X-303214Y192484D01*
X-303105Y192518D01*
X-303007Y192557D01*
X-302920Y192603D01*
X-302844Y192655D01*
X-302778Y192713D01*
Y190579D01*
D02*
G37*
G36*
X-295205Y190122D02*
X-295359Y190118D01*
X-295507Y190105D01*
X-295650Y190081D01*
X-295787Y190046D01*
X-295919Y190001D01*
X-296045Y189946D01*
X-296165Y189881D01*
X-296280Y189806D01*
X-296389Y189720D01*
X-296493Y189624D01*
X-297212Y190343D01*
X-297116Y190446D01*
X-297030Y190556D01*
X-296954Y190671D01*
X-296889Y190791D01*
X-296834Y190917D01*
X-296790Y191049D01*
X-296755Y191186D01*
X-296731Y191329D01*
X-296717Y191477D01*
X-296714Y191631D01*
X-295205Y190122D01*
D02*
G37*
G36*
X-191795Y189230D02*
X-192074Y189225D01*
X-192340Y189203D01*
X-192593Y189165D01*
X-192834Y189111D01*
X-193063Y189040D01*
X-193280Y188953D01*
X-193484Y188849D01*
X-193676Y188729D01*
X-193855Y188593D01*
X-194022Y188440D01*
X-195100Y189518D01*
X-194947Y189685D01*
X-194811Y189864D01*
X-194691Y190056D01*
X-194587Y190260D01*
X-194500Y190477D01*
X-194429Y190706D01*
X-194375Y190947D01*
X-194337Y191200D01*
X-194315Y191466D01*
X-194310Y191745D01*
X-191795Y189230D01*
D02*
G37*
G36*
X-308050Y188493D02*
X-307999Y188488D01*
X-307808Y188479D01*
X-306518Y188468D01*
Y187452D01*
X-308071Y187421D01*
Y188499D01*
X-308050Y188493D01*
D02*
G37*
D11*
X65868Y504616D02*
Y508172D01*
Y504616D02*
X66548Y503936D01*
X64214Y509826D02*
X65868Y508172D01*
X-105664Y490474D02*
X-94234Y501904D01*
X-28956D01*
X-201254Y490474D02*
X-105664D01*
X77363Y519025D02*
X78440Y517948D01*
Y517462D02*
Y517948D01*
Y517462D02*
X80590Y515312D01*
Y514350D02*
Y515312D01*
X-11835Y519025D02*
X77363D01*
X-28956Y501904D02*
X-11835Y519025D01*
X-86473Y386842D02*
X51054D01*
X63754Y399542D01*
X17780Y389636D02*
X26924Y398780D01*
X-87630Y389636D02*
X17780D01*
X-88787Y392430D02*
X-19050D01*
X-12700Y398780D01*
X-38780Y399968D02*
X-38100Y399288D01*
X-40771Y400050D02*
X-40689Y399968D01*
X-38780D01*
X-97790Y400050D02*
X-40771D01*
X-111760Y386080D02*
X-105410Y392430D01*
X-97790Y400050D01*
X-184912Y97396D02*
Y173828D01*
X-179660Y179080D01*
X-184912Y79107D02*
Y97396D01*
X-187706Y80264D02*
Y97396D01*
Y128889D01*
X-201268Y66702D02*
X-187706Y80264D01*
X-189230Y130413D02*
X-187706Y128889D01*
X-198474Y65545D02*
X-184912Y79107D01*
X-192151Y112068D02*
X-190754Y110671D01*
X-192151Y112068D02*
Y112649D01*
X-323410Y162941D02*
X-322902Y162433D01*
X-334089Y163576D02*
X-333454Y162941D01*
X-334190Y167090D02*
X-332454Y165354D01*
X-334190Y163576D02*
X-334089D01*
X-333454Y162941D02*
X-323410D01*
X-332454Y165354D02*
X-322411D01*
X-321903Y164846D01*
X-334994Y167894D02*
X-334190Y167090D01*
X-334628Y163576D02*
X-334190D01*
X-336152Y165100D02*
X-334628Y163576D01*
X-332898Y172409D02*
X-330174Y175133D01*
X-320644D01*
X-333860Y172409D02*
X-332898D01*
X-314114Y178646D02*
X-301690D01*
X-314002Y175895D02*
X-311277Y175387D01*
X-319473Y175895D02*
X-314002D01*
X-319854Y175514D02*
X-319473Y175895D01*
X-334190Y180717D02*
X-315882Y181483D01*
X-343208Y180340D02*
X-334190Y180717D01*
X-343654Y179894D02*
X-343208Y180340D01*
X-312219Y185146D02*
X-301690D01*
X-320473Y178308D02*
X-314114Y178646D01*
X-344478Y179070D02*
X-343654Y179894D01*
X-320390Y175387D02*
X-319854Y175514D01*
X-320644Y175133D02*
X-320390Y175387D01*
X-311277D02*
X-311150Y175260D01*
X-321262Y177927D02*
X-320854Y177927D01*
X-315882Y181483D02*
X-312219Y185146D01*
X-320854Y177927D02*
X-320473Y178308D01*
X-335811Y167894D02*
X-334994D01*
X-353031Y169164D02*
X-337080D01*
X-335811Y167894D01*
X-334190Y123190D02*
X-312420D01*
X-352944D02*
X-334190D01*
X-357584Y127830D02*
X-352944Y123190D01*
X-312420D02*
X-311912Y123698D01*
X-324612Y132588D02*
X-309118D01*
X-304638Y123698D02*
X-301690Y126646D01*
X-330962Y126238D02*
X-324612Y132588D01*
X-309118D02*
X-308610Y132080D01*
X-311912Y123698D02*
X-304638D01*
X-334190Y105410D02*
X-311150D01*
X-307340Y101600D02*
X-302260D01*
X-311150Y105410D02*
X-307340Y101600D01*
X-262638Y115189D02*
X-262509Y115318D01*
X-262638Y105034D02*
Y115189D01*
X-258445Y70485D02*
Y97396D01*
Y100841D01*
X-262638Y105034D02*
X-258445Y100841D01*
X-261112Y67818D02*
X-258445Y70485D01*
X-189230Y130413D02*
Y167640D01*
X-190500Y175097D02*
X-186953Y178645D01*
X-190500Y168910D02*
X-189230Y167640D01*
X-190500Y168910D02*
Y175097D01*
X-199644Y165354D02*
X-195453Y161163D01*
X-199644Y183896D02*
X-191770Y191770D01*
X-199644Y165354D02*
Y183896D01*
X-251460Y220980D02*
Y231547D01*
X-249581Y233426D01*
X-253527Y233896D02*
X-251680Y235743D01*
X-259568Y245892D02*
X-115775D01*
X-267950Y251480D02*
X-118090D01*
X-250581Y235839D02*
X-248931D01*
X-248550Y236220D01*
X-261495Y233896D02*
Y238861D01*
X-257258Y243098D02*
X-114618D01*
X-255056Y239014D02*
X-114751D01*
X-250676Y235743D02*
X-250581Y235839D01*
X-263124Y248686D02*
X-116933D01*
X-249581Y233426D02*
X-184690D01*
X-256159Y231264D02*
X-253527Y233896D01*
X-251680Y235743D02*
X-250676D01*
X-269190Y242620D02*
X-263124Y248686D01*
X-255417Y238653D02*
X-255056Y239014D01*
X-275690Y243740D02*
X-267950Y251480D01*
X-116933Y248686D02*
X-105156Y260463D01*
X-261495Y238861D02*
X-257258Y243098D01*
X-118090Y251480D02*
X-111760Y257810D01*
X-264289Y241171D02*
X-259568Y245892D01*
X-115775D02*
X-102362Y259305D01*
X-114618Y243098D02*
X-99568Y258148D01*
X-264289Y233896D02*
Y241171D01*
Y209547D02*
Y233896D01*
X-269190Y204646D02*
X-264289Y209547D01*
X-350520Y195580D02*
X-336042D01*
X-334190Y197432D02*
X-329692Y201930D01*
X-336042Y195580D02*
X-334190Y197432D01*
X-329692Y201930D02*
X-311150D01*
X-206248Y-60452D02*
Y-18517D01*
Y-60452D02*
X-199486Y-67214D01*
X-322580Y-252730D02*
X-318770D01*
X-331470D02*
X-322580D01*
X-318770D02*
X-234950Y-336550D01*
X-217311D01*
X-199486Y-318724D01*
Y-67214D01*
X-203200Y-326390D02*
X-196692Y-319882D01*
X-258187Y-342900D02*
X-219710D01*
X-203200Y-326390D01*
X-218553Y-345694D02*
X-200660Y-327801D01*
X-193898Y-321039D01*
X-217395Y-348488D02*
X-191104Y-322196D01*
X-267462Y-348488D02*
X-217395D01*
X-191104Y-322196D02*
Y-8289D01*
X-203200Y-58420D02*
X-196692Y-64928D01*
X-200406Y-56134D02*
X-193898Y-62642D01*
Y-321039D02*
Y-62642D01*
X-196692Y-319882D02*
Y-64928D01*
X-200406Y-56134D02*
Y-20577D01*
X-265553Y-345694D02*
X-218553D01*
X-203200Y-58420D02*
Y-19420D01*
X-199796Y-16016D01*
X-200406Y-20577D02*
X-197002Y-17174D01*
X-209325Y-360172D02*
X-173228Y-324075D01*
X-299071Y-357378D02*
X-210482D01*
X-191104Y-8289D02*
X-187858Y-5044D01*
X-207010Y-365760D02*
X-167640Y-326390D01*
X-208167Y-362966D02*
X-170434Y-325233D01*
X-210482Y-357378D02*
X-176022Y-322918D01*
X-359410Y-365760D02*
X-207010D01*
X-325374Y-362966D02*
X-208167D01*
X-300228Y-360172D02*
X-209325D01*
X-173228Y-324075D02*
Y-65815D01*
X-176022Y-322918D02*
Y-66972D01*
X-167640Y-326390D02*
Y-63500D01*
X-170434Y-325233D02*
Y-64657D01*
X-373380Y167640D02*
X-368184D01*
X-369570Y177800D02*
X-355346Y163576D01*
X-356503Y160782D02*
X-348626D01*
X-344535Y165100D02*
X-336152D01*
X-354189Y166370D02*
X-345805D01*
X-367171Y171450D02*
X-356503Y160782D01*
X-345805Y166370D02*
X-344535Y165100D01*
X-347469Y163576D02*
X-346199Y162306D01*
X-369570Y177800D02*
Y306353D01*
X-366776Y178957D02*
X-354189Y166370D01*
X-350172Y149396D02*
X-350056D01*
X-359730Y158954D02*
Y159186D01*
X-355346Y163576D02*
X-347469D01*
X-347356Y159512D02*
X-338466D01*
X-346199Y162306D02*
X-337309D01*
X-368184Y167640D02*
X-359730Y159186D01*
X-348626Y160782D02*
X-347356Y159512D01*
X-363982Y180115D02*
X-353031Y169164D01*
X-359730Y158954D02*
X-350172Y149396D01*
X-366776Y178957D02*
Y305195D01*
X-352806Y298704D02*
X-295910Y355600D01*
X-301498Y357915D02*
Y394745D01*
X-358394Y301019D02*
X-301498Y357915D01*
X-307340Y360680D02*
Y392854D01*
X-310134Y361837D02*
Y394011D01*
X-372364Y307510D02*
X-315722Y364152D01*
X-355600Y299861D02*
X-298704Y356757D01*
X-315722Y364152D02*
Y396326D01*
X-295910Y355600D02*
Y392430D01*
X-369570Y306353D02*
X-312928Y362995D01*
X-372364Y221996D02*
Y307510D01*
X-298704Y356757D02*
Y393587D01*
X-363982Y304038D02*
X-307340Y360680D01*
X-312928Y362995D02*
Y395168D01*
X-366776Y305195D02*
X-310134Y361837D01*
X-363982Y180115D02*
Y304038D01*
X-358812Y127830D02*
X-357584D01*
X-364490Y133507D02*
X-358812Y127830D01*
X-364490Y133507D02*
Y134620D01*
X-353568Y135012D02*
X-344794Y126238D01*
X-353568Y135012D02*
Y136514D01*
X-364374Y147320D02*
X-353568Y136514D01*
X-344794Y126238D02*
X-334190D01*
X-364490Y147320D02*
X-364374D01*
X-295910Y392430D02*
X-236220Y452120D01*
X-315722Y396326D02*
X-242656Y469392D01*
X-310134Y394011D02*
X-240341Y463804D01*
X-298704Y393587D02*
X-237377Y454914D01*
X-312928Y395168D02*
X-241499Y466598D01*
X-307340Y392854D02*
X-239692Y460502D01*
X-301498Y394745D02*
X-238535Y457708D01*
X-120142Y266726D02*
Y433154D01*
X-117348Y265568D02*
Y431997D01*
X-114554Y264411D02*
Y430840D01*
X-128524Y270198D02*
Y436626D01*
X-122936Y267883D02*
Y434311D01*
X-125730Y269040D02*
Y435469D01*
X-128524Y436626D02*
X-102870Y462280D01*
X-114554Y430840D02*
X-97084Y448310D01*
X-120142Y433154D02*
X-99398Y453898D01*
X-124852Y258064D02*
X-117348Y265568D01*
X-127167Y263652D02*
X-122936Y267883D01*
X-125730Y435469D02*
X-101713Y459486D01*
X-122936Y434311D02*
X-100555Y456692D01*
X-117348Y431997D02*
X-98241Y451104D01*
X-119739Y259226D02*
X-114554Y264411D01*
X-111760Y257810D02*
Y386080D01*
X-129481Y269240D02*
X-128524Y270198D01*
X-126010Y260858D02*
X-120142Y266726D01*
X-128324Y266446D02*
X-125730Y269040D01*
X-75823Y384048D02*
X-74930Y383155D01*
Y382270D02*
Y383155D01*
X-419354Y1368D02*
Y78264D01*
X-421132Y0D02*
X-420722D01*
X-416560Y56349D02*
X-414020Y58889D01*
X-416560Y-15240D02*
Y56349D01*
X-419354Y78264D02*
X-414020Y83598D01*
X-420722Y0D02*
X-419354Y1368D01*
X-342900Y-19050D02*
X-330200Y-6350D01*
Y58420D01*
X-341878Y33765D02*
Y84842D01*
X-341630Y85090D01*
X-342127Y33517D02*
X-341878Y33765D01*
X-336550Y26162D02*
Y80010D01*
X-322580Y29210D02*
Y58420D01*
X-334190Y177546D02*
X-321643D01*
X-321903Y164846D02*
X-315510D01*
X-315368Y164988D01*
X-308610Y160020D02*
X-307736Y159146D01*
X-324283Y160401D02*
X-323902Y160020D01*
X-308610D01*
X-315368Y164988D02*
X-295848D01*
X-322902Y162433D02*
X-314510D01*
X-314369Y162575D02*
X-298619D01*
X-321643Y177546D02*
X-321262Y177927D01*
X-307736Y159146D02*
X-301690D01*
X-314510Y162433D02*
X-314369Y162575D01*
X-336434Y157480D02*
X-334190D01*
X-338466Y159512D02*
X-336434Y157480D01*
X-342100Y147438D02*
X-341381D01*
X-345928Y144083D02*
X-345455D01*
X-342100Y147438D01*
X-341381D02*
X-340738Y148082D01*
X-333925D01*
X-331470Y147320D02*
X-330296Y146146D01*
X-333163Y147320D02*
X-331470D01*
X-330296Y146146D02*
X-301690D01*
X-333925Y148082D02*
X-333163Y147320D01*
X-334190Y126238D02*
X-330962D01*
X-331470Y-300765D02*
X-328958Y-303277D01*
Y-327491D02*
X-307269Y-349179D01*
X-331470Y-300765D02*
Y-275590D01*
X-328958Y-327491D02*
Y-303277D01*
X-20658Y453898D02*
X-1354Y473202D01*
X39397Y464058D02*
X41429Y466090D01*
X36714Y471170D02*
X76200D01*
X15240Y461010D02*
X18288Y464058D01*
X34682Y473202D02*
X36714Y471170D01*
X41429Y466090D02*
X63500D01*
X18288Y464058D02*
X39397D01*
X-1354Y473202D02*
X34682D01*
X-2257Y476250D02*
X38100D01*
X-21815Y456692D02*
X-2257Y476250D01*
X-9745Y509826D02*
X64214D01*
X-8588Y507032D02*
X51768D01*
X57150Y501650D01*
X-31496Y484124D02*
X-8588Y507032D01*
X-20461Y499110D02*
X-9745Y509826D01*
X41038Y497160D02*
X41707Y497829D01*
Y497945D01*
X17592Y496316D02*
X39247D01*
X-4209Y496171D02*
X17446D01*
X44450Y500688D02*
Y501650D01*
X41707Y497945D02*
X44450Y500688D01*
X17446Y496171D02*
X17592Y496316D01*
X40091Y497160D02*
X41038D01*
X-19050Y481330D02*
X-4209Y496171D01*
X39247Y496316D02*
X40091Y497160D01*
X-92340Y484124D02*
X-31496D01*
X-92966Y483498D02*
X-92340Y484124D01*
X-218864Y461010D02*
X-199170Y480704D01*
X-217057Y454914D02*
X-196855Y475116D01*
X-91183Y481330D02*
X-19050D01*
X-215900Y452120D02*
X-195698Y472322D01*
X-200327Y483498D02*
X-92966D01*
X-91809Y480704D02*
X-91183Y481330D01*
X-220021Y463804D02*
X-200327Y483498D01*
X-90106Y473851D02*
X-89625Y473370D01*
X-95245Y475116D02*
X-93980Y473851D01*
X-218215Y457708D02*
X-198013Y477910D01*
X-80772Y477942D02*
X-76200Y473370D01*
X-198013Y477910D02*
X-90652D01*
X-195698Y472322D02*
X-96402D01*
X-92710Y468630D01*
X-93980Y473851D02*
X-90106D01*
X-196855Y475116D02*
X-95245D01*
X-90652Y477910D02*
X-90620Y477942D01*
X-80772D01*
X-199170Y480704D02*
X-91809D01*
X-214630Y-118110D02*
Y37251D01*
X-205486Y6065D02*
Y25434D01*
X-288290Y-191770D02*
X-214630Y-118110D01*
X-270510Y-209550D02*
X-209042Y-148082D01*
X-217424Y-116953D02*
Y40922D01*
X-283351Y-182880D02*
X-217424Y-116953D01*
X-220218Y-115795D02*
Y42080D01*
X-208178Y3373D02*
X-205486Y6065D01*
X-280670Y-161290D02*
X-223012Y-103632D01*
X-214630Y37251D02*
X-210774Y41107D01*
X-228600Y-101317D02*
Y45861D01*
X-281827Y-158496D02*
X-225806Y-102475D01*
X-223012Y43547D02*
X-213360Y53199D01*
X-217424Y40922D02*
X-207772Y50574D01*
X-209042Y-148082D02*
Y-17360D01*
X-279400Y-200660D02*
X-211836Y-133096D01*
X-210412Y30360D02*
X-205486Y25434D01*
X-210412Y30360D02*
Y35014D01*
X-228600Y45861D02*
X-218948Y55513D01*
X-225806Y-102475D02*
Y44704D01*
X-282985Y-155702D02*
X-228600Y-101317D01*
X-209042Y-17360D02*
X-205384Y-13702D01*
X-225806Y44704D02*
X-216154Y54356D01*
X-211836Y-133096D02*
Y-16202D01*
X-223012Y-103632D02*
Y43547D01*
X-278413Y-173990D02*
X-220218Y-115795D01*
Y42080D02*
X-210566Y51732D01*
X-211836Y-16202D02*
X-208178Y-12544D01*
X-206248Y-18517D02*
X-202590Y-14859D01*
X-182722Y-52370D02*
X-170434Y-64657D01*
X-179928Y-51212D02*
Y-12919D01*
Y-51212D02*
X-167640Y-63500D01*
X-182722Y-52370D02*
Y-11761D01*
X-185516Y-53527D02*
Y-10604D01*
X-188310Y-54684D02*
Y-9447D01*
X-185064Y-6201D01*
X-185516Y-10604D02*
X-182270Y-7358D01*
X-197002Y-1256D02*
X-192886Y2860D01*
X-197002Y-17174D02*
Y-1256D01*
X43688Y493522D02*
X50800Y486410D01*
X-208472Y75303D02*
Y97396D01*
X-211266Y76460D02*
Y97396D01*
X-216154Y71572D02*
X-211266Y76460D01*
Y97396D02*
Y98614D01*
X-213360Y70415D02*
X-208472Y75303D01*
X-211266Y98614D02*
X-204343Y105537D01*
X-208472Y97598D02*
X-201930Y104140D01*
X-208472Y97396D02*
Y97598D01*
X0Y486410D02*
X17664D01*
X24776Y493522D01*
X43688D01*
X-163830Y80010D02*
Y116840D01*
X-213360Y53199D02*
Y70415D01*
X-207772Y50574D02*
Y68101D01*
X-204978Y66943D02*
X-190754Y81167D01*
X-210566Y69258D02*
X-197051Y82773D01*
X-210566Y51732D02*
Y69258D01*
X-218948Y72730D02*
X-215900Y75778D01*
X-207723Y37692D02*
X-204978Y40437D01*
Y66943D01*
X-207772Y68101D02*
X-194257Y81615D01*
X-218948Y55513D02*
Y72730D01*
X-216154Y54356D02*
Y71572D01*
X-197051Y82773D02*
Y106115D01*
X-194257Y81615D02*
Y106733D01*
X-215900Y75778D02*
Y97396D01*
X-201268Y6332D02*
Y66702D01*
X-190754Y81167D02*
Y110671D01*
X-198474Y5174D02*
Y65545D01*
X-215900Y121920D02*
X-210690Y127130D01*
X-215900Y97396D02*
Y121920D01*
X-306070Y-173990D02*
X-278413D01*
X-259080Y-332517D02*
Y-325120D01*
X-259842Y-341245D02*
Y-333279D01*
X-259080Y-332517D01*
X-259842Y-341245D02*
X-258187Y-342900D01*
X-367030Y-358140D02*
X-359410Y-365760D01*
X-307269Y-349179D02*
X-299071Y-357378D01*
X-331470Y-356870D02*
X-325374Y-362966D01*
X-367030Y-293370D02*
X-300228Y-360172D01*
X-261112Y46366D02*
Y67818D01*
X-328930Y90170D02*
X-302260D01*
X-167640Y78740D02*
Y104140D01*
X-185928Y60452D02*
X-167640Y78740D01*
X-195680Y63683D02*
X-182118Y77245D01*
X-182221Y154601D02*
X-182118Y154498D01*
Y77245D02*
Y154498D01*
X-182221Y154601D02*
Y165141D01*
X-175871Y79540D02*
Y153539D01*
X-177649Y155317D02*
Y156210D01*
Y155317D02*
X-175871Y153539D01*
X-182221Y165141D02*
X-177026Y170336D01*
X-120650Y144780D02*
Y171450D01*
X-114300Y177800D02*
Y227611D01*
X-120650Y171450D02*
X-114300Y177800D01*
X-92710Y499110D02*
X-20461D01*
X-472440Y90197D02*
X-467594Y95043D01*
X-472440Y78740D02*
Y90197D01*
Y78740D02*
X-468630Y74930D01*
Y17780D02*
Y74930D01*
X-259080Y17780D02*
Y44334D01*
X-261112Y46366D02*
X-259080Y44334D01*
X-317500Y186690D02*
X-312544Y191646D01*
X-339398Y175260D02*
X-337112Y177546D01*
X-358394Y190613D02*
X-351677Y183896D01*
X-350520Y186690D02*
X-317500D01*
X-316882Y183896D02*
X-312817Y187960D01*
X-340360Y175260D02*
X-339398D01*
X-351677Y183896D02*
X-316882D01*
X-337112Y177546D02*
X-334190D01*
Y160401D02*
X-324283D01*
X-355600Y191770D02*
X-350520Y186690D01*
X-295848Y164988D02*
X-288690Y172146D01*
X-298619Y162575D02*
X-295190Y159146D01*
X-337820Y99060D02*
X-328930Y90170D01*
X-345440Y179070D02*
X-344478D01*
X-385064Y175373D02*
Y179324D01*
X-384810Y91440D02*
Y175119D01*
X-392430Y186690D02*
X-385064Y179324D01*
Y175373D02*
X-384810Y175119D01*
X-382270Y176530D02*
Y199390D01*
X-355600Y191770D02*
Y299861D01*
X-382270Y176530D02*
X-373380Y167640D01*
X-378714Y178054D02*
X-372110Y171450D01*
X-358394Y190613D02*
Y301019D01*
X-378714Y192786D02*
X-375920Y195580D01*
X-378714Y178054D02*
Y192786D01*
X-352806Y197866D02*
X-350520Y195580D01*
X-352806Y197866D02*
Y298704D01*
X-375920Y195580D02*
Y204470D01*
X-372110Y171450D02*
X-367171D01*
X-202590Y-14859D02*
Y1058D01*
X-208178Y-12544D02*
Y3373D01*
X-199796Y-16016D02*
Y-99D01*
X-205384Y-13702D02*
Y2216D01*
X-183134Y1922D02*
Y59295D01*
X-185516Y-53527D02*
X-173228Y-65815D01*
X-185928Y765D02*
Y60452D01*
X-188310Y-54684D02*
X-176022Y-66972D01*
X-188722Y-392D02*
Y62738D01*
X-179928Y-12919D02*
X-175768Y-8759D01*
Y17463D01*
X-173990Y19241D01*
Y53899D01*
X-177038Y56947D02*
X-173990Y53899D01*
X-177038Y56947D02*
Y57910D01*
X-182722Y-11761D02*
X-178562Y-7602D01*
Y47614D01*
X-182270Y-7358D02*
Y1058D01*
X-183134Y1922D02*
X-182270Y1058D01*
X-187858Y-5044D02*
Y-1256D01*
X-188722Y-392D02*
X-187858Y-1256D01*
X-192886Y2860D02*
Y62525D01*
X-205384Y2216D02*
X-201268Y6332D01*
X-185928Y765D02*
X-185064Y-99D01*
X-195680Y4017D02*
Y63683D01*
X-199796Y-99D02*
X-195680Y4017D01*
X-185064Y-6201D02*
Y-99D01*
X-202590Y1058D02*
X-198474Y5174D01*
X-183134Y59295D02*
X-164846Y77583D01*
X-188722Y62738D02*
X-173077Y78383D01*
X-350613Y90077D02*
X-350520Y90170D01*
Y96520D01*
X-394716Y78486D02*
X-393700Y77470D01*
X-400812Y96890D02*
X-394716Y90794D01*
X-400812Y96890D02*
Y122293D01*
X-394716Y78486D02*
Y90794D01*
X-400812Y122293D02*
X-399585Y123520D01*
Y126703D01*
X-399288Y127000D01*
X-404876Y220087D02*
Y220980D01*
X-403860Y58420D02*
Y157480D01*
X-406654Y66429D02*
Y218309D01*
X-409448Y75902D02*
Y233172D01*
X-403860Y157480D02*
X-396240Y165100D01*
X-414020Y59063D02*
X-406654Y66429D01*
Y218309D02*
X-404876Y220087D01*
X-414020Y83598D02*
Y228600D01*
X-337309Y162306D02*
X-335404Y160401D01*
X-334190D01*
X-411480Y50800D02*
X-403860Y58420D01*
X-414020Y71330D02*
X-409448Y75902D01*
X-355600Y96520D02*
X-343916Y108204D01*
X-334190D01*
Y110998D02*
X-297942D01*
X-350520Y96520D02*
X-341630Y105410D01*
X-334190Y108204D02*
X-293116D01*
X-341630Y105410D02*
X-334190D01*
X-345073Y110998D02*
X-334190D01*
X-346851Y109220D02*
X-345073Y110998D01*
X-293116Y108204D02*
X-285515Y115805D01*
X-297942Y110998D02*
X-291940Y117000D01*
X-364490Y109220D02*
X-346851D01*
X-194818Y168883D02*
Y173686D01*
X-195095Y173963D02*
X-194818Y173686D01*
X-179660Y179080D02*
Y184284D01*
X-194310Y166370D02*
Y168375D01*
X-194818Y168883D02*
X-194310Y168375D01*
X-184690Y233426D02*
X-112436D01*
X-392430Y186690D02*
Y201930D01*
X-372364Y221996D01*
X-79502Y371602D02*
Y372110D01*
Y371602D02*
X-74930Y367030D01*
Y359410D02*
Y367030D01*
X-78486Y355854D02*
X-74930Y359410D01*
X-81280Y360172D02*
X-79502Y361950D01*
X-84074Y375666D02*
X-81280Y378460D01*
X-85315Y384048D02*
X-75823D01*
X-86868Y382495D02*
X-85315Y384048D01*
X-86868Y286088D02*
Y382495D01*
X-78486Y282616D02*
Y355854D01*
X-88392Y253519D02*
Y272710D01*
X-78486Y282616D01*
X-114300Y227611D02*
X-88392Y253519D01*
X-210690Y127130D02*
Y133146D01*
X-204089Y137160D02*
X-200279Y133350D01*
X-213360Y137160D02*
X-204089D01*
X-217190Y133330D02*
X-213360Y137160D01*
X-217190Y133146D02*
Y133330D01*
X-197866Y122649D02*
Y153670D01*
X-192886Y62525D02*
X-175871Y79540D01*
X-200279Y123649D02*
Y133350D01*
X-204343Y119585D02*
X-200279Y123649D01*
X-204343Y105537D02*
Y119585D01*
X-201930Y118585D02*
X-197866Y122649D01*
X-201930Y104140D02*
Y118585D01*
X-199263Y108327D02*
Y117839D01*
X-196850Y116840D02*
X-193040Y120650D01*
X-199263Y117839D02*
X-195453Y121650D01*
X-196850Y109326D02*
Y116840D01*
X-193040Y120650D02*
Y165100D01*
X-195453Y121650D02*
Y161163D01*
X-210412Y35014D02*
X-207734Y37692D01*
X-207723D01*
X-173077Y78383D02*
Y158692D01*
X-173257Y158872D02*
Y160682D01*
X-173938Y161362D02*
X-173257Y160682D01*
Y158872D02*
X-173077Y158692D01*
X-240341Y463804D02*
X-220021D01*
X-236220Y452120D02*
X-215900D01*
X-241499Y466598D02*
X-221178D01*
X-239692Y460502D02*
X-239268D01*
X-238535Y457708D02*
X-218215D01*
X-237377Y454914D02*
X-217057D01*
X-242656Y469392D02*
X-222336D01*
X-238760Y461010D02*
X-218864D01*
X-239268Y460502D02*
X-238760Y461010D01*
X-222336Y469392D02*
X-201254Y490474D01*
X-221178Y466598D02*
X-200096Y487680D01*
X-104140D01*
X-92710Y499110D01*
X-164846Y78994D02*
X-163830Y80010D01*
X-164846Y77583D02*
Y78994D01*
X-295190Y255234D02*
X-283978Y266446D01*
X-282821Y263652D02*
X-127167D01*
X-285750Y269240D02*
X-129481D01*
X-284118Y255889D02*
X-279149Y260858D01*
X-126010D01*
X-301690Y253300D02*
X-285750Y269240D01*
X-283978Y266446D02*
X-128324D01*
X-288690Y257783D02*
X-282821Y263652D01*
X-95250Y289560D02*
Y385967D01*
X-88787Y392430D01*
X-91186Y273867D02*
X-81280Y283773D01*
Y360172D01*
X-409448Y233172D02*
X-408940Y233680D01*
X-112436Y233426D02*
X-91186Y254676D01*
X-113594Y236220D02*
X-93980Y255833D01*
X-123589Y255270D02*
X-119739Y259120D01*
X-248550Y236220D02*
X-113594D01*
X-282190Y247400D02*
X-274320Y255270D01*
X-285440Y248101D02*
X-275477Y258064D01*
X-119739Y259120D02*
Y259226D01*
X-274320Y255270D02*
X-123589D01*
X-275477Y258064D02*
X-124852D01*
X-114751Y239014D02*
X-96774Y256991D01*
X-91186Y254676D02*
Y273867D01*
X-93980Y275025D02*
X-84074Y284931D01*
Y375666D01*
X-93980Y255833D02*
Y275025D01*
X-96774Y276182D02*
X-86868Y286088D01*
X-96774Y256991D02*
Y276182D01*
X-364490Y96520D02*
X-355600D01*
X-275690Y211146D02*
Y243740D01*
X-89662Y383653D02*
X-86473Y386842D01*
X-92456Y384810D02*
X-87630Y389636D01*
X-92710Y468630D02*
X-55540D01*
X-50800Y473370D01*
X-24130Y462280D02*
X0Y486410D01*
X-102870Y462280D02*
X-24130D01*
X-101713Y459486D02*
X-22973D01*
X1014Y483473D01*
X-100555Y456692D02*
X-21815D01*
X-99398Y453898D02*
X-20658D01*
X-98241Y451104D02*
X-19501D01*
X-4515Y466090D01*
X-97084Y448310D02*
X-18343D01*
X-5644Y461010D01*
X-312817Y187960D02*
X-308610D01*
X-312544Y191646D02*
X-301690D01*
X-99568Y277339D02*
X-89662Y287245D01*
X-99568Y258148D02*
Y277339D01*
X-89662Y287245D02*
Y383653D01*
X-269190Y211146D02*
Y242620D01*
X-102362Y278497D02*
X-92456Y288403D01*
Y384810D01*
X-102362Y259305D02*
Y278497D01*
X-105156Y260463D02*
Y279654D01*
X-95250Y289560D01*
X-199263Y108327D02*
X-197051Y106115D01*
X-194310Y166370D02*
X-193040Y165100D01*
X-196850Y109326D02*
X-194257Y106733D01*
X-332515Y-155702D02*
X-282985D01*
X-361188Y-206785D02*
Y-184375D01*
X-332515Y-155702D01*
X-360680Y-227330D02*
Y-207293D01*
X-361188Y-206785D02*
X-360680Y-207293D01*
X-358394Y-185533D02*
X-331357Y-158496D01*
X-281827D01*
X-350520Y-236220D02*
Y-213501D01*
X-358394Y-205627D02*
Y-185533D01*
Y-205627D02*
X-350520Y-213501D01*
X-330200Y-161290D02*
X-280670D01*
X-355600Y-186690D02*
X-330200Y-161290D01*
X-355600Y-204470D02*
Y-186690D01*
Y-204470D02*
X-341630Y-218440D01*
Y-245110D02*
Y-218440D01*
X-297180Y-182880D02*
X-283351D01*
X-276860Y-339090D02*
Y-307340D01*
Y-339090D02*
X-267462Y-348488D01*
X-267970Y-343277D02*
Y-316230D01*
Y-343277D02*
X-265553Y-345694D01*
X-307269Y-349179D02*
X-307269D01*
X-367030Y-293370D02*
Y-275590D01*
X-5644Y461010D02*
X15240D01*
X-4515Y466090D02*
X12700D01*
X21747Y483473D02*
X23382Y481838D01*
X24344D01*
X1014Y483473D02*
X21747D01*
X-295190Y211146D02*
Y255234D01*
X-301690Y211146D02*
Y253300D01*
X-288690Y211146D02*
Y257783D01*
X-285440Y214396D02*
Y248101D01*
X-282190Y211146D02*
Y247400D01*
D17*
X-92710Y212090D02*
X-88900Y208280D01*
X74930D01*
D98*
X-350520Y0D02*
D03*
X-381000Y40D02*
D03*
D99*
X-100330Y195580D02*
D03*
X-424180Y-271780D02*
D03*
D100*
X123631Y347620D02*
D03*
X263331D02*
D03*
X313331Y322620D02*
D03*
X288331D02*
D03*
X338331D02*
D03*
X263331D02*
D03*
X288331Y347620D02*
D03*
X313331D02*
D03*
X338331D02*
D03*
X363331Y322620D02*
D03*
Y347620D02*
D03*
X173631Y322620D02*
D03*
X148631D02*
D03*
X198631D02*
D03*
X123631D02*
D03*
X148631Y347620D02*
D03*
X173631D02*
D03*
X198631D02*
D03*
X223631Y322620D02*
D03*
Y347620D02*
D03*
D105*
X-269190Y126646D02*
D03*
X-275690D02*
D03*
X-295190D02*
D03*
X-243190Y126646D02*
D03*
X-288690Y185146D02*
D03*
Y152646D02*
D03*
X-230190D02*
D03*
X-243190Y198146D02*
D03*
X-230190Y185146D02*
D03*
X-275690Y198146D02*
D03*
X-249690Y211146D02*
D03*
X-197843Y344933D02*
D03*
X-197775Y315001D02*
D03*
X-220275Y367501D02*
D03*
X-227775Y375001D02*
D03*
X-212775D02*
D03*
X-235275Y382501D02*
D03*
X-242775D02*
D03*
X-235275Y352501D02*
D03*
X-220207Y330069D02*
D03*
X-212775Y315001D02*
D03*
X-235275Y337501D02*
D03*
X-205275Y360001D02*
D03*
Y352501D02*
D03*
X-235275Y360001D02*
D03*
X-250275Y315001D02*
D03*
X-235275D02*
D03*
X-242775Y337501D02*
D03*
X-205275Y337501D02*
D03*
X-210690Y120523D02*
D03*
X-282190Y126646D02*
D03*
X-275690Y204646D02*
D03*
X-288690Y191646D02*
D03*
Y146146D02*
D03*
X-282190Y139646D02*
D03*
X-269190D02*
D03*
X-243190D02*
D03*
X-230190Y146146D02*
D03*
X-236690Y198146D02*
D03*
X-230190Y178646D02*
D03*
X-282190Y198146D02*
D03*
X-256190Y198146D02*
D03*
X-212775Y367501D02*
D03*
X-242775Y352501D02*
D03*
Y360001D02*
D03*
X-250275D02*
D03*
Y352501D02*
D03*
Y337501D02*
D03*
X-227775Y352501D02*
D03*
X-212775D02*
D03*
X-227775Y360001D02*
D03*
X-212775D02*
D03*
X-250275Y367501D02*
D03*
Y375001D02*
D03*
X-223690Y139646D02*
D03*
X-236690Y133146D02*
D03*
X-217190Y159146D02*
D03*
X-210690Y133146D02*
D03*
X-223690Y211146D02*
D03*
X-236690D02*
D03*
X-230190D02*
D03*
X-282190D02*
D03*
X-205275Y322501D02*
D03*
Y315001D02*
D03*
Y330001D02*
D03*
X-227775Y315001D02*
D03*
X-250275Y330001D02*
D03*
X-242775D02*
D03*
X-235275Y322501D02*
D03*
X-242775Y315001D02*
D03*
Y322501D02*
D03*
X-250275D02*
D03*
X-235275Y367501D02*
D03*
X-197775Y352501D02*
D03*
X-190275D02*
D03*
X-182775D02*
D03*
X-197775Y360001D02*
D03*
X-190275D02*
D03*
X-182775D02*
D03*
X-197775Y367501D02*
D03*
X-235275Y330001D02*
D03*
X-227775D02*
D03*
X-212775Y322501D02*
D03*
Y337501D02*
D03*
X-227775Y337501D02*
D03*
X-212775Y330001D02*
D03*
X-227775Y322501D02*
D03*
X-182775Y382501D02*
D03*
X-190275D02*
D03*
X-197775D02*
D03*
X-205275D02*
D03*
X-250275D02*
D03*
X-242775Y375001D02*
D03*
X-235275D02*
D03*
X-242775Y367501D02*
D03*
X-227775D02*
D03*
Y382501D02*
D03*
X-212775Y382501D02*
D03*
X-205275Y367501D02*
D03*
X-190275D02*
D03*
X-182775D02*
D03*
X-205275Y375001D02*
D03*
X-197775D02*
D03*
X-190275D02*
D03*
X-182775D02*
D03*
X-190275Y315001D02*
D03*
X-182775Y315001D02*
D03*
Y322501D02*
D03*
X-197775D02*
D03*
X-190275Y322501D02*
D03*
X-197775Y330001D02*
D03*
X-190275D02*
D03*
X-182775Y330001D02*
D03*
X-197775Y337501D02*
D03*
X-190275D02*
D03*
X-182775Y337501D02*
D03*
X-269190Y198146D02*
D03*
X-236690Y139646D02*
D03*
X-262690Y139646D02*
D03*
X-275690D02*
D03*
X-217190Y152646D02*
D03*
Y165646D02*
D03*
X-223690D02*
D03*
Y159146D02*
D03*
Y152646D02*
D03*
X-230190Y159146D02*
D03*
Y165646D02*
D03*
X-217190Y178646D02*
D03*
X-223690D02*
D03*
Y146146D02*
D03*
X-217190D02*
D03*
Y139646D02*
D03*
X-230190D02*
D03*
X-223690Y133146D02*
D03*
X-217190D02*
D03*
Y126646D02*
D03*
X-223690D02*
D03*
X-230190D02*
D03*
Y133146D02*
D03*
X-236690Y126646D02*
D03*
X-243190Y133146D02*
D03*
X-249690Y139646D02*
D03*
Y133146D02*
D03*
Y126646D02*
D03*
X-288690Y126646D02*
D03*
X-301690D02*
D03*
X-262690D02*
D03*
Y133146D02*
D03*
X-269190D02*
D03*
X-275690D02*
D03*
X-282190D02*
D03*
X-288690D02*
D03*
Y139646D02*
D03*
X-295190Y133146D02*
D03*
X-301690D02*
D03*
X-295190Y139646D02*
D03*
X-301690D02*
D03*
X-295190Y146146D02*
D03*
X-301690D02*
D03*
Y152646D02*
D03*
X-295190D02*
D03*
X-288690Y159146D02*
D03*
X-295190D02*
D03*
X-301690D02*
D03*
X-288690Y211146D02*
D03*
Y178646D02*
D03*
Y172146D02*
D03*
X-295190Y185146D02*
D03*
Y178646D02*
D03*
Y172146D02*
D03*
X-301690Y185146D02*
D03*
Y178646D02*
D03*
Y172146D02*
D03*
X-295190Y191646D02*
D03*
X-301690D02*
D03*
Y198146D02*
D03*
Y204646D02*
D03*
Y211146D02*
D03*
X-295190D02*
D03*
Y204646D02*
D03*
Y198146D02*
D03*
X-288690D02*
D03*
Y204646D02*
D03*
X-282190D02*
D03*
X-275690Y211146D02*
D03*
X-269190D02*
D03*
Y204646D02*
D03*
X-256190Y211146D02*
D03*
X-249690Y198146D02*
D03*
X-256190Y204646D02*
D03*
X-249690D02*
D03*
X-243190Y211146D02*
D03*
Y204646D02*
D03*
X-236690D02*
D03*
X-223690Y185146D02*
D03*
X-217190D02*
D03*
Y191646D02*
D03*
Y198146D02*
D03*
Y204646D02*
D03*
Y211146D02*
D03*
X-223690Y204646D02*
D03*
X-230190D02*
D03*
X-223690Y191646D02*
D03*
Y198146D02*
D03*
X-230190Y198146D02*
D03*
Y191646D02*
D03*
D106*
X-321310Y194310D02*
D03*
X-203200Y205740D02*
D03*
X-262890Y73660D02*
D03*
X-292100Y63500D02*
D03*
X-284480D02*
D03*
X-276860D02*
D03*
X-322580Y127635D02*
D03*
X-284655Y318231D02*
D03*
X-271955Y330931D02*
D03*
Y339821D02*
D03*
X-271915Y348751D02*
D03*
X-176705Y417291D02*
D03*
X-186865Y423641D02*
D03*
X-271955Y357601D02*
D03*
X-373380Y152400D02*
D03*
Y139700D02*
D03*
Y127000D02*
D03*
Y114300D02*
D03*
Y101600D02*
D03*
X-496570Y171450D02*
D03*
X-502920Y163830D02*
D03*
Y151130D02*
D03*
Y138430D02*
D03*
Y125730D02*
D03*
Y113030D02*
D03*
X-510540Y100330D02*
D03*
Y87630D02*
D03*
X-334010Y209550D02*
D03*
X-278940Y117021D02*
D03*
X-314960Y55880D02*
D03*
X-222250Y435610D02*
D03*
X-196850Y420370D02*
D03*
X-234950Y410210D02*
D03*
X-161290Y435610D02*
D03*
X-144780Y440690D02*
D03*
X-389890Y57150D02*
D03*
X-186690Y209550D02*
D03*
X7620Y349250D02*
D03*
X-25400Y247650D02*
D03*
X-7620D02*
D03*
X-25400Y520700D02*
D03*
X-12758Y480118D02*
D03*
X-8832Y485082D02*
D03*
X88900Y464820D02*
D03*
Y471170D02*
D03*
Y477520D02*
D03*
X-176530Y273812D02*
D03*
X-186690D02*
D03*
X-336550Y356870D02*
D03*
X-210820Y443230D02*
D03*
X-335788Y204041D02*
D03*
X-269510Y454930D02*
D03*
X-314960Y100330D02*
D03*
X-366570Y85900D02*
D03*
X-380210Y52860D02*
D03*
X-379730Y43180D02*
D03*
X-335280Y137160D02*
D03*
X-389890Y44450D02*
D03*
Y82550D02*
D03*
Y69850D02*
D03*
X-327660Y100330D02*
D03*
X110490Y448310D02*
D03*
X144780Y389890D02*
D03*
X210820Y471170D02*
D03*
X111760Y472440D02*
D03*
X-488950Y-154940D02*
D03*
X-499110Y-160020D02*
D03*
X-499570Y-96980D02*
D03*
X-452120Y-22860D02*
D03*
X-476250D02*
D03*
X86360Y220980D02*
D03*
X-121920Y190500D02*
D03*
X-410210Y35560D02*
D03*
X-400050D02*
D03*
X-251210Y86995D02*
D03*
X-137160Y223520D02*
D03*
X-316230Y261620D02*
D03*
X-306070Y43180D02*
D03*
X-217170Y-374650D02*
D03*
X-333690Y247970D02*
D03*
X256540Y455930D02*
D03*
X-349250Y-36830D02*
D03*
X26670Y488950D02*
D03*
X-45720Y213360D02*
D03*
X-121920Y181610D02*
D03*
X-172250Y369217D02*
D03*
X-174058Y322061D02*
D03*
X-174282Y344876D02*
D03*
X-333110Y-38100D02*
D03*
X-331109Y-29849D02*
D03*
X-175202Y-49472D02*
D03*
X-234950Y-57150D02*
D03*
X-233680Y3810D02*
D03*
X102870Y478790D02*
D03*
X139700D02*
D03*
X149860Y419100D02*
D03*
Y412750D02*
D03*
Y406400D02*
D03*
X217170Y419100D02*
D03*
X62230Y196850D02*
D03*
X-391160Y171450D02*
D03*
X-396240Y181610D02*
D03*
X-420370Y100330D02*
D03*
Y93980D02*
D03*
X-370840Y-73660D02*
D03*
Y-80010D02*
D03*
X-406400Y-73660D02*
D03*
Y-80010D02*
D03*
X-481330Y-139700D02*
D03*
Y-146050D02*
D03*
Y-152400D02*
D03*
X-236220Y-124460D02*
D03*
Y-148590D02*
D03*
X-262890Y-120650D02*
D03*
X-237490Y-85090D02*
D03*
Y-72390D02*
D03*
X-262890Y-63500D02*
D03*
X-261620Y-85090D02*
D03*
X-262890Y-11430D02*
D03*
X-263298Y0D02*
D03*
X227330Y414020D02*
D03*
X194310Y416560D02*
D03*
X-306070Y17018D02*
D03*
X-300990Y13970D02*
D03*
X-512169Y-134580D02*
D03*
Y-96480D02*
D03*
X-502644Y-77430D02*
D03*
X-512169Y-58380D02*
D03*
X-502644Y-39330D02*
D03*
X-512169Y17820D02*
D03*
X-502644Y36870D02*
D03*
Y74970D02*
D03*
X-512169Y94020D02*
D03*
Y132120D02*
D03*
X-483594Y-191730D02*
D03*
X-493119Y-172680D02*
D03*
Y-96480D02*
D03*
X-483594Y-77430D02*
D03*
X-493119Y-58380D02*
D03*
X-483594Y-39330D02*
D03*
X-493119Y17820D02*
D03*
X-483594Y36870D02*
D03*
X-493119Y55920D02*
D03*
X-483594Y74970D02*
D03*
X-493119Y94020D02*
D03*
Y132120D02*
D03*
X-483594Y189270D02*
D03*
X-464544Y-229830D02*
D03*
X-474069Y-210780D02*
D03*
X-464544Y-191730D02*
D03*
X-474069Y-172680D02*
D03*
Y-134580D02*
D03*
Y-96480D02*
D03*
X-464544Y-77430D02*
D03*
X-474069Y55920D02*
D03*
X-464544Y189270D02*
D03*
Y227370D02*
D03*
X-445494Y-267930D02*
D03*
Y-229830D02*
D03*
X-455019Y-210780D02*
D03*
X-445494Y-191730D02*
D03*
X-455019Y-172680D02*
D03*
Y-96480D02*
D03*
X-445494Y-77430D02*
D03*
Y36870D02*
D03*
Y189270D02*
D03*
Y227370D02*
D03*
X-426444Y-306030D02*
D03*
X-435969Y-286980D02*
D03*
Y-248880D02*
D03*
X-426444Y-229830D02*
D03*
X-435969Y-210780D02*
D03*
X-426444Y-191730D02*
D03*
X-435969Y-172680D02*
D03*
Y-20280D02*
D03*
X-426444Y36870D02*
D03*
X-435969Y208320D02*
D03*
X-426444Y227370D02*
D03*
X-416919Y-325080D02*
D03*
Y-286980D02*
D03*
Y-248880D02*
D03*
X-407394Y-229830D02*
D03*
Y-191730D02*
D03*
X-416919Y-172680D02*
D03*
X-407394Y-39330D02*
D03*
Y-1230D02*
D03*
X-416919Y246420D02*
D03*
Y322620D02*
D03*
X-388344Y-344130D02*
D03*
X-397869Y-286980D02*
D03*
X-388344Y-267930D02*
D03*
X-397869Y-248880D02*
D03*
X-388344Y-229830D02*
D03*
X-397869Y-210780D02*
D03*
X-388344Y-191730D02*
D03*
X-397869Y-172680D02*
D03*
X-388344Y-153630D02*
D03*
X-397869Y-134580D02*
D03*
X-388344Y-115530D02*
D03*
X-397869Y-96480D02*
D03*
X-388344Y-39330D02*
D03*
Y36870D02*
D03*
X-397869Y208320D02*
D03*
Y246420D02*
D03*
Y322620D02*
D03*
X-388344Y341670D02*
D03*
X-378819Y-363180D02*
D03*
X-369294Y-344130D02*
D03*
Y-267930D02*
D03*
X-378819Y-248880D02*
D03*
X-369294Y-229830D02*
D03*
Y-191730D02*
D03*
Y-153630D02*
D03*
X-378819Y-96480D02*
D03*
X-369294Y-39330D02*
D03*
Y36870D02*
D03*
X-378819Y246420D02*
D03*
Y322620D02*
D03*
Y360720D02*
D03*
X-369294Y379770D02*
D03*
X-350244Y-382230D02*
D03*
Y-344130D02*
D03*
X-359769Y-286980D02*
D03*
X-350244Y-267930D02*
D03*
X-359769Y-248880D02*
D03*
X-350244Y-153630D02*
D03*
X-359769Y-134580D02*
D03*
X-350244Y-115530D02*
D03*
X-359769Y-96480D02*
D03*
X-350244Y-77430D02*
D03*
Y36870D02*
D03*
X-359769Y55920D02*
D03*
Y360720D02*
D03*
X-340719Y-401280D02*
D03*
X-331194Y-382230D02*
D03*
Y-344130D02*
D03*
X-340719Y-286980D02*
D03*
X-331194Y-267930D02*
D03*
X-340719Y-134580D02*
D03*
Y-58380D02*
D03*
Y398820D02*
D03*
X-312144Y-382230D02*
D03*
X-293094Y-344130D02*
D03*
X-302619Y-286980D02*
D03*
Y55920D02*
D03*
X-283569Y-248880D02*
D03*
X-274044Y303570D02*
D03*
X-283569Y436920D02*
D03*
X-254994Y-458430D02*
D03*
X-264519Y-439380D02*
D03*
X-254994Y-229830D02*
D03*
X-264519Y-96480D02*
D03*
X-254994Y303570D02*
D03*
X-264519Y398820D02*
D03*
X-235944Y-458430D02*
D03*
X-245469Y-439380D02*
D03*
X-235944Y-420330D02*
D03*
X-245469Y-401280D02*
D03*
X-235944Y-382230D02*
D03*
Y-229830D02*
D03*
Y-191730D02*
D03*
X-226419Y-439380D02*
D03*
X-216894Y-267930D02*
D03*
X-226419Y-248880D02*
D03*
X-216894Y-229830D02*
D03*
X-226419Y-210780D02*
D03*
X-216894Y-191730D02*
D03*
X-226419Y475020D02*
D03*
X-197844Y-382230D02*
D03*
Y227370D02*
D03*
X-178794D02*
D03*
Y303570D02*
D03*
X-159744Y-306030D02*
D03*
Y-267930D02*
D03*
Y-229830D02*
D03*
Y-191730D02*
D03*
Y-153630D02*
D03*
Y-115530D02*
D03*
X-150219Y-286980D02*
D03*
X-140694Y-267930D02*
D03*
X-150219Y-248880D02*
D03*
X-140694Y-229830D02*
D03*
X-150219Y-210780D02*
D03*
X-140694Y-191730D02*
D03*
X-150219Y-172680D02*
D03*
X-140694Y-153630D02*
D03*
X-150219Y-134580D02*
D03*
X-140694Y-115530D02*
D03*
X-150219Y-96480D02*
D03*
Y436920D02*
D03*
X-131169Y-248880D02*
D03*
X-121644Y-229830D02*
D03*
X-131169Y-210780D02*
D03*
X-121644Y-191730D02*
D03*
X-131169Y-172680D02*
D03*
X-121644Y-153630D02*
D03*
X-131169Y-134580D02*
D03*
X-121644Y455970D02*
D03*
X-131169Y513120D02*
D03*
X-112119Y-210780D02*
D03*
X-102594Y-191730D02*
D03*
X-112119Y-172680D02*
D03*
X-102594Y-153630D02*
D03*
Y227370D02*
D03*
Y341670D02*
D03*
X-93069Y-172680D02*
D03*
X-74019Y246420D02*
D03*
X-64494Y341670D02*
D03*
X-54969Y170220D02*
D03*
Y322620D02*
D03*
X-35919D02*
D03*
X-16869Y246420D02*
D03*
Y322620D02*
D03*
X2181D02*
D03*
X11706Y341670D02*
D03*
X21231Y322620D02*
D03*
X30756Y341670D02*
D03*
X49806Y189270D02*
D03*
X40281Y246420D02*
D03*
X49806Y265470D02*
D03*
Y303570D02*
D03*
X40281Y322620D02*
D03*
X59331Y284520D02*
D03*
X68856Y303570D02*
D03*
X78381Y284520D02*
D03*
X97431Y246420D02*
D03*
X106956Y265470D02*
D03*
X97431Y475020D02*
D03*
X126006Y265470D02*
D03*
X135531Y246420D02*
D03*
X145056Y265470D02*
D03*
X135531Y284520D02*
D03*
X154581Y246420D02*
D03*
X164106Y265470D02*
D03*
X154581Y284520D02*
D03*
Y436920D02*
D03*
X173631Y246420D02*
D03*
X183156Y265470D02*
D03*
X173631Y284520D02*
D03*
X192681Y246420D02*
D03*
X202206Y265470D02*
D03*
X192681Y284520D02*
D03*
X211731Y246420D02*
D03*
X221256Y265470D02*
D03*
X211731Y284520D02*
D03*
X240306Y265470D02*
D03*
X230781Y284520D02*
D03*
X240306Y379770D02*
D03*
Y417870D02*
D03*
X249831Y246420D02*
D03*
X259356Y265470D02*
D03*
X249831Y284520D02*
D03*
Y322620D02*
D03*
X259356Y379770D02*
D03*
X249831Y398820D02*
D03*
X278406Y265470D02*
D03*
X268881Y284520D02*
D03*
X287931Y246420D02*
D03*
X297456Y265470D02*
D03*
X287931Y284520D02*
D03*
X306981Y246420D02*
D03*
X316506Y265470D02*
D03*
X306981Y284520D02*
D03*
X316506Y379770D02*
D03*
X326031Y246420D02*
D03*
X335556Y265470D02*
D03*
X326031Y284520D02*
D03*
X335556Y303570D02*
D03*
X345081Y246420D02*
D03*
X354606Y265470D02*
D03*
X345081Y284520D02*
D03*
X354606Y303570D02*
D03*
X373656Y265470D02*
D03*
X364131Y284520D02*
D03*
X373656Y303570D02*
D03*
X383181Y246420D02*
D03*
Y284520D02*
D03*
Y322620D02*
D03*
Y360720D02*
D03*
X-462685Y-256894D02*
D03*
X-453438Y-272885D02*
D03*
X-443638Y-288543D02*
D03*
X-433298Y-303850D02*
D03*
X-422430Y-318787D02*
D03*
X-411047Y-333335D02*
D03*
X-399163Y-347478D02*
D03*
X-386793Y-361197D02*
D03*
X-373952Y-374476D02*
D03*
X-360655Y-387298D02*
D03*
X-346919Y-399649D02*
D03*
X-332760Y-411513D02*
D03*
X-272250Y-453819D02*
D03*
X-239930Y-471705D02*
D03*
X373952Y374475D02*
D03*
X332760Y411512D02*
D03*
X272250Y453819D02*
D03*
X256246Y463044D02*
D03*
X239930Y471705D02*
D03*
X223322Y479791D02*
D03*
X206441Y487292D02*
D03*
X189309Y494200D02*
D03*
X-101343Y519424D02*
D03*
X-137329Y511090D02*
D03*
X-155082Y505986D02*
D03*
X-172646Y500265D02*
D03*
X-256894Y462685D02*
D03*
X-288543Y443638D02*
D03*
X-303850Y433298D02*
D03*
X-318787Y422430D02*
D03*
X-333335Y411047D02*
D03*
X-347478Y399163D02*
D03*
X-361197Y386793D02*
D03*
X-374475Y373952D02*
D03*
X-387298Y360655D02*
D03*
X-399649Y346919D02*
D03*
X-411512Y332760D02*
D03*
X-453819Y272250D02*
D03*
X-471705Y239930D02*
D03*
X-479791Y223322D02*
D03*
X-487292Y206441D02*
D03*
X-494200Y189309D02*
D03*
X-515737Y118688D02*
D03*
X-519565Y100616D02*
D03*
X-522760Y82423D02*
D03*
X-525318Y64128D02*
D03*
X-527236Y45756D02*
D03*
X-528512Y27328D02*
D03*
X-529144Y8866D02*
D03*
X-529131Y-9606D02*
D03*
X-528473Y-28067D02*
D03*
X-527172Y-46493D02*
D03*
X-525228Y-64863D02*
D03*
X-522645Y-83153D02*
D03*
X-519424Y-101343D02*
D03*
X-515571Y-119409D02*
D03*
X-500265Y-172646D02*
D03*
X-493935Y-190000D02*
D03*
X-487003Y-207123D02*
D03*
X-479478Y-223993D02*
D03*
X-471369Y-240590D02*
D03*
X74930Y340360D02*
D03*
X-101600Y323850D02*
D03*
X35560Y264160D02*
D03*
X39370Y297180D02*
D03*
X-72390Y325120D02*
D03*
X-106680Y306070D02*
D03*
X-134620Y303530D02*
D03*
X-188319Y-363180D02*
D03*
X-178794Y-344130D02*
D03*
X-195834Y-52070D02*
D03*
X-310282Y118872D02*
D03*
X-205710Y217160D02*
D03*
X127762Y478790D02*
D03*
X86360Y506730D02*
D03*
X87630Y513592D02*
D03*
X114590Y479552D02*
D03*
X-124206Y494919D02*
D03*
X54610Y214630D02*
D03*
X161290Y505460D02*
D03*
X154940Y499110D02*
D03*
X161290D02*
D03*
X167640Y502920D02*
D03*
X-5545Y500845D02*
D03*
X-103Y500743D02*
D03*
X154940Y505460D02*
D03*
X-76200Y494370D02*
D03*
X-63500D02*
D03*
X-50800D02*
D03*
X-88900D02*
D03*
X-203200Y96520D02*
D03*
X-200660Y435610D02*
D03*
X-178308Y441960D02*
D03*
X-232410Y400050D02*
D03*
X38100Y377190D02*
D03*
X-133350Y327660D02*
D03*
X-234950Y440690D02*
D03*
X-210762Y450792D02*
D03*
X-103378Y368300D02*
D03*
X-505461Y-15239D02*
D03*
X-505729Y1D02*
D03*
X-350520Y68580D02*
D03*
X-192430Y-3150D02*
D03*
X-175356Y-14812D02*
D03*
X-364490Y0D02*
D03*
X77470Y237490D02*
D03*
X-285750Y-5080D02*
D03*
Y-12700D02*
D03*
Y-20320D02*
D03*
Y-27940D02*
D03*
Y-80010D02*
D03*
Y-72390D02*
D03*
Y-64770D02*
D03*
Y-147320D02*
D03*
Y-139700D02*
D03*
Y-132080D02*
D03*
Y-124460D02*
D03*
X-124000Y215440D02*
D03*
X-316230Y240030D02*
D03*
X-278130Y43180D02*
D03*
X-285750Y-87630D02*
D03*
X-457200Y105410D02*
D03*
X-262890Y318770D02*
D03*
X-435873Y175891D02*
D03*
X-323850Y17272D02*
D03*
X-411480Y13970D02*
D03*
X-271780Y364490D02*
D03*
X-195834Y-23487D02*
D03*
X-262890Y364490D02*
D03*
X110236Y511048D02*
D03*
X66548Y503936D02*
D03*
X-114300Y510540D02*
D03*
Y504190D02*
D03*
X-98234D02*
D03*
X-114300Y497840D02*
D03*
X94234Y517906D02*
D03*
X80590Y514350D02*
D03*
X63754Y399542D02*
D03*
X26924Y398780D02*
D03*
X12446Y399034D02*
D03*
X0Y399137D02*
D03*
X-12700Y398780D02*
D03*
X-25146D02*
D03*
X-38100Y399288D02*
D03*
X-238760Y104140D02*
D03*
X-192151Y112649D02*
D03*
X-333860Y172409D02*
D03*
X-327914Y170180D02*
D03*
X116078Y402082D02*
D03*
X-314325Y151658D02*
D03*
X-316738Y169291D02*
D03*
X-312420Y128143D02*
D03*
X-262509Y115318D02*
D03*
X-228346Y109240D02*
D03*
X-191770Y191770D02*
D03*
X-246996Y226932D02*
D03*
X-247034Y220568D02*
D03*
X-256159Y224790D02*
D03*
X-255417Y238653D02*
D03*
X-328930Y194310D02*
D03*
X-350520Y156210D02*
D03*
X-350056Y149396D02*
D03*
X-356870Y120650D02*
D03*
X-358140Y134620D02*
D03*
X-288290Y370840D02*
D03*
Y379730D02*
D03*
Y388620D02*
D03*
X-262890Y389890D02*
D03*
Y381000D02*
D03*
X-133096Y316160D02*
D03*
X-133366Y309816D02*
D03*
X88900Y295910D02*
D03*
X53735Y373657D02*
D03*
X-74930Y382270D02*
D03*
X80010Y332740D02*
D03*
X78734Y367975D02*
D03*
X66040Y369570D02*
D03*
X-45444Y341670D02*
D03*
X-342900Y-19050D02*
D03*
X-365760Y12700D02*
D03*
X-358140Y27940D02*
D03*
X-342127Y33517D02*
D03*
X-336550Y26162D02*
D03*
X-322580Y29210D02*
D03*
X183706Y411020D02*
D03*
X-350148Y372863D02*
D03*
X-333530Y-315440D02*
D03*
X24130Y468630D02*
D03*
X7160Y502460D02*
D03*
X7010Y514453D02*
D03*
X-210058Y23540D02*
D03*
X-38100Y510540D02*
D03*
X50800Y486410D02*
D03*
X-203900Y86360D02*
D03*
X-92710Y227330D02*
D03*
Y219710D02*
D03*
Y212090D02*
D03*
X-73660Y297406D02*
D03*
Y303756D02*
D03*
X-96520Y171450D02*
D03*
X-246380Y53340D02*
D03*
X-375920Y-179070D02*
D03*
X-370840Y-172720D02*
D03*
X-363220Y-168910D02*
D03*
X-83820Y226060D02*
D03*
X105410Y410210D02*
D03*
Y416560D02*
D03*
X42810Y527153D02*
D03*
X44450Y501650D02*
D03*
X57150D02*
D03*
X36558D02*
D03*
X77470Y491490D02*
D03*
X12767Y198053D02*
D03*
X-83820Y176530D02*
D03*
X-88900Y171450D02*
D03*
X-163830Y116840D02*
D03*
X-223520Y60960D02*
D03*
X-306070Y-173990D02*
D03*
X-420370Y-50800D02*
D03*
X-414020D02*
D03*
X-407670D02*
D03*
X-234950Y-36830D02*
D03*
Y-31115D02*
D03*
Y-25400D02*
D03*
X-394970Y-337820D02*
D03*
X-255270D02*
D03*
X-248920Y-331470D02*
D03*
X-371995Y-220980D02*
D03*
X-366915Y-215900D02*
D03*
X-241935Y86995D02*
D03*
X-302260Y90170D02*
D03*
Y101600D02*
D03*
X-256540Y48260D02*
D03*
X-262890Y90170D02*
D03*
X-238760Y67310D02*
D03*
X-462280Y-26670D02*
D03*
Y-34290D02*
D03*
Y-41910D02*
D03*
X-233680Y39370D02*
D03*
X-157798Y88710D02*
D03*
X-168402Y104140D02*
D03*
X-153924Y167640D02*
D03*
X-177026Y170336D02*
D03*
X-173938Y161362D02*
D03*
X-177649Y156210D02*
D03*
X-120650Y144780D02*
D03*
X-92710Y160020D02*
D03*
X-85090D02*
D03*
X-80010Y165100D02*
D03*
X19050Y253905D02*
D03*
X19050Y246380D02*
D03*
X13910Y524450D02*
D03*
X74930Y208280D02*
D03*
X79317Y226060D02*
D03*
X67887Y214630D02*
D03*
X56457Y203200D02*
D03*
X66040Y226060D02*
D03*
X112524Y455166D02*
D03*
X115840Y411290D02*
D03*
X199390Y466090D02*
D03*
X-468630Y17780D02*
D03*
X-259080D02*
D03*
X-252730Y111498D02*
D03*
X-322580Y58420D02*
D03*
X-330200D02*
D03*
X-374142Y180340D02*
D03*
Y188584D02*
D03*
X-331470Y66040D02*
D03*
X-350613Y90077D02*
D03*
X-338762Y99060D02*
D03*
X-341630Y85090D02*
D03*
Y138430D02*
D03*
X-393700Y77470D02*
D03*
X-399288Y127000D02*
D03*
X-396240Y120400D02*
D03*
Y132667D02*
D03*
X-339090Y118110D02*
D03*
X-340360Y154940D02*
D03*
X-345928Y144083D02*
D03*
X-360680Y48260D02*
D03*
X-399288Y51308D02*
D03*
Y88900D02*
D03*
X-414020Y83598D02*
D03*
X-459740Y87542D02*
D03*
X-421132Y0D02*
D03*
X-416560Y-15240D02*
D03*
X-186953Y178645D02*
D03*
X-195095Y173963D02*
D03*
X-163830Y285750D02*
D03*
X-168910Y278130D02*
D03*
X-162560Y208280D02*
D03*
X-163141Y182191D02*
D03*
X-167640Y186690D02*
D03*
X-173602Y177412D02*
D03*
X-179660Y184284D02*
D03*
X-411480Y50800D02*
D03*
X-396240Y144934D02*
D03*
Y165100D02*
D03*
X-364490Y147320D02*
D03*
X-384810Y91440D02*
D03*
X-79502Y372110D02*
D03*
Y361950D02*
D03*
X-104140Y401320D02*
D03*
X-81280Y378460D02*
D03*
X-105410Y392430D02*
D03*
X-203200Y144824D02*
D03*
X-177038Y57910D02*
D03*
X-178562Y47614D02*
D03*
X-336550Y80010D02*
D03*
X-342900Y130810D02*
D03*
X-205840Y33120D02*
D03*
X-210774Y41107D02*
D03*
X-133350Y213360D02*
D03*
X-157480Y228600D02*
D03*
X-142240Y421640D02*
D03*
X-148590Y416560D02*
D03*
X-173077Y192278D02*
D03*
X-247650Y412750D02*
D03*
X-241300Y405130D02*
D03*
X-143510Y398780D02*
D03*
X-180340D02*
D03*
X-205275Y400515D02*
D03*
X-148590Y274320D02*
D03*
X-131636Y201539D02*
D03*
X-136398Y205740D02*
D03*
X-152400Y222250D02*
D03*
X-148351Y190932D02*
D03*
X-148336Y177800D02*
D03*
X-146050Y196850D02*
D03*
X-181610D02*
D03*
X-140970Y213360D02*
D03*
X99060Y410210D02*
D03*
Y416560D02*
D03*
X-326390Y304800D02*
D03*
X-298482Y334042D02*
D03*
X-295148Y349896D02*
D03*
X-340360Y299720D02*
D03*
Y175260D02*
D03*
X-343408Y283800D02*
D03*
X-387350Y194310D02*
D03*
X-347980Y288290D02*
D03*
X-345440Y179070D02*
D03*
X-247650Y427990D02*
D03*
X-324508Y398105D02*
D03*
X-312420Y411480D02*
D03*
X-337820Y386080D02*
D03*
X-283210Y274320D02*
D03*
X-304800Y283210D02*
D03*
X-328930D02*
D03*
X-335280Y293370D02*
D03*
X-314960Y280670D02*
D03*
X-322580Y278130D02*
D03*
X-195577Y273812D02*
D03*
X-201229Y303286D02*
D03*
X-149098Y348662D02*
D03*
X-161036Y356870D02*
D03*
X-166370Y340360D02*
D03*
X-161290Y426720D02*
D03*
X-156510Y410810D02*
D03*
X-153670Y405130D02*
D03*
X-215900Y295910D02*
D03*
X-233680Y297180D02*
D03*
X-240134Y297227D02*
D03*
X-52070Y251955D02*
D03*
X11430Y259080D02*
D03*
X-52070Y198120D02*
D03*
X-404876Y220980D02*
D03*
X-408940Y233680D02*
D03*
X-414020Y228600D02*
D03*
X-220980Y228854D02*
D03*
X-224790Y223520D02*
D03*
X-228600Y228854D02*
D03*
X-256159Y231264D02*
D03*
X-414020Y71330D02*
D03*
Y59063D02*
D03*
X-364490Y96520D02*
D03*
Y109220D02*
D03*
Y121920D02*
D03*
Y134620D02*
D03*
X-375920Y204470D02*
D03*
X-382270Y199390D02*
D03*
X-467360Y82716D02*
D03*
X-467594Y95043D02*
D03*
X-457200Y167386D02*
D03*
Y176530D02*
D03*
X-367030Y160020D02*
D03*
X-182880Y464820D02*
D03*
Y458470D02*
D03*
X37510Y282530D02*
D03*
X33020Y287020D02*
D03*
X23540Y258490D02*
D03*
X-101600Y300266D02*
D03*
Y293916D02*
D03*
X-68580Y318770D02*
D03*
X-68615Y312374D02*
D03*
X-331470Y-252730D02*
D03*
X-210820Y109220D02*
D03*
X-259080Y-325120D02*
D03*
X-267970Y-316230D02*
D03*
X-276860Y-307340D02*
D03*
X-363220Y-308610D02*
D03*
X-364490Y-321310D02*
D03*
X-331470Y-275590D02*
D03*
X-367030D02*
D03*
X-349250Y-280670D02*
D03*
X-405130Y-294640D02*
D03*
X-394970Y-293370D02*
D03*
X-408940Y-314960D02*
D03*
X-388620Y-315440D02*
D03*
X-405130Y-336550D02*
D03*
X-367030Y-358140D02*
D03*
X-331470Y-356870D02*
D03*
X-349250Y-351790D02*
D03*
X-294640Y-336550D02*
D03*
X-304800Y-335280D02*
D03*
X-288290Y-321310D02*
D03*
X-294640Y-294640D02*
D03*
X-304800Y-295910D02*
D03*
X-285750Y-307340D02*
D03*
X-341630Y-245110D02*
D03*
X-350520Y-236220D02*
D03*
X-360680Y-227330D02*
D03*
X-270510Y-209550D02*
D03*
X-279400Y-200660D02*
D03*
X-288290Y-191770D02*
D03*
X-297180Y-182880D02*
D03*
X-396240Y108132D02*
D03*
Y157201D02*
D03*
X-452120Y157480D02*
D03*
Y119380D02*
D03*
X-452234Y131479D02*
D03*
X-452120Y144052D02*
D03*
X-487680Y87630D02*
D03*
Y100330D02*
D03*
X-480060Y113030D02*
D03*
Y125730D02*
D03*
Y138430D02*
D03*
Y151130D02*
D03*
Y163830D02*
D03*
X-479421Y176530D02*
D03*
X63500Y466090D02*
D03*
X12700D02*
D03*
X76200Y471170D02*
D03*
X38100Y476250D02*
D03*
X24344Y481838D02*
D03*
X-88900Y473370D02*
D03*
X-76200D02*
D03*
X-50800D02*
D03*
X-63500D02*
D03*
X-284118Y255889D02*
D03*
D107*
X-262690Y172146D02*
D03*
X-256190D02*
D03*
X-262690Y165646D02*
D03*
X-256190D02*
D03*
X-249690Y165646D02*
D03*
Y172146D02*
D03*
X-269190Y172146D02*
D03*
Y165646D02*
D03*
X-275690D02*
D03*
Y172146D02*
D03*
X-282190Y165646D02*
D03*
X-275690Y159146D02*
D03*
X-282190D02*
D03*
X-243190D02*
D03*
X-275690Y178646D02*
D03*
X-269190D02*
D03*
X-262690D02*
D03*
X-256190D02*
D03*
X-249690D02*
D03*
X-310651Y214274D02*
D03*
X-242775Y390001D02*
D03*
D108*
X-25400Y312420D02*
D03*
X-15240D02*
D03*
X8890Y364490D02*
D03*
X-52070Y311150D02*
D03*
X11430D02*
D03*
X-52070Y365760D02*
D03*
D113*
X-312155Y157491D02*
G03*
X-312419Y157582I-2170J-5832D01*
G01*
X-248749Y356184D02*
X-248165Y355600D01*
X-254584Y356184D02*
X-248749D01*
X-244300D02*
X-231592D01*
X-244884Y355600D02*
X-244300Y356184D01*
X-248165Y355600D02*
X-244884D01*
X-231592Y356184D02*
X-227775Y360001D01*
X-262890Y364490D02*
X-254584Y356184D01*
X-251800Y363818D02*
X-231592D01*
X-262890Y364490D02*
X-252472D01*
X-251800Y363818D01*
X-231592D02*
X-227775Y360001D01*
X-232283Y74310D02*
Y97396D01*
Y106823D01*
X-234950Y106437D02*
X-234442Y105929D01*
X-234950Y106437D02*
Y119380D01*
X-236220Y97396D02*
X-234442Y99174D01*
X-232664Y107204D02*
Y112776D01*
X-233680Y72913D02*
X-232283Y74310D01*
X-233680Y39370D02*
Y72913D01*
X-232664Y107204D02*
X-232283Y106823D01*
X-232664Y112776D02*
X-230190Y115250D01*
X-234442Y99174D02*
Y105929D01*
X-327914Y170180D02*
X-322364D01*
X-314949Y173609D02*
X-312097Y172974D01*
X-319809Y172735D02*
X-318908Y173228D01*
X-312479Y157601D02*
X-312419Y157582D01*
X-318908Y173228D02*
X-318527Y173609D01*
X-314949D01*
X-312097Y172974D02*
X-301690Y172146D01*
X-322364Y170180D02*
X-319809Y172735D01*
X-257048Y108036D02*
X-255651Y106639D01*
X-257048Y108036D02*
Y127504D01*
X-262690Y133146D02*
X-257048Y127504D01*
X-237490Y72390D02*
X-236220Y73660D01*
Y97396D01*
X-261495Y205841D02*
Y233896D01*
X-269190Y198146D02*
X-261495Y205841D01*
X-293243Y352545D02*
Y391325D01*
X-295148Y350640D02*
X-293243Y352545D01*
Y391325D02*
X-260388Y424180D01*
X-283845Y354913D02*
Y397131D01*
X-298482Y334042D02*
X-281305Y351219D01*
Y395605D01*
X-321310Y304800D02*
X-278765Y347345D01*
Y375785D01*
X-277995Y376555D01*
X-293307Y345451D02*
X-283845Y354913D01*
X-277995Y376555D02*
X-276860D01*
X-281305Y395605D02*
X-276860Y400050D01*
X-283845Y397131D02*
X-259336Y421640D01*
X-257810Y419100D02*
X-220326D01*
X-269240Y407670D02*
X-257810Y419100D01*
X-276860Y400050D02*
X-269240Y407670D01*
X-260870Y376555D02*
X-258741Y378684D01*
X-276860Y376555D02*
X-260870D01*
X-258741Y378684D02*
X-238958D01*
X-340360Y154940D02*
X-339852Y154432D01*
X-334190D01*
X-190774Y345500D02*
X-181987D01*
X-176847Y340360D01*
X-149757Y349321D02*
X-149098Y348662D01*
X-176626Y348818D02*
X-176124Y349321D01*
X-186592Y348818D02*
X-176626D01*
X-176124Y349321D02*
X-158750D01*
X-149757D01*
X-190275Y352501D02*
X-186592Y348818D01*
X-176847Y340360D02*
X-166370D01*
X-144725Y350575D02*
X-144653Y350503D01*
X-182775Y352501D02*
X-168501D01*
X-194092Y356318D02*
X-161588D01*
X-148480Y354330D02*
X-144725Y350575D01*
X-168501Y352501D02*
X-168500Y352500D01*
X-161588Y356318D02*
X-161036Y356870D01*
X-144653Y346821D02*
Y350503D01*
X-162877Y352425D02*
X-153035D01*
X-168501Y352501D02*
X-162953D01*
X-162877Y352425D01*
X-197775Y352501D02*
X-190774Y345500D01*
X-172006Y326506D02*
X-165100Y319600D01*
X-179189Y326318D02*
X-179001Y326506D01*
X-186592Y326318D02*
X-179189D01*
X-190275Y330001D02*
X-186592Y326318D01*
X-179001Y326506D02*
X-172006D01*
X-153035Y352425D02*
X-151130Y354330D01*
X-186592Y371184D02*
X-177068D01*
X-174590Y373662D02*
X-160520D01*
X-158750Y371892D02*
X-149334Y362476D01*
X-177068Y371184D02*
X-174590Y373662D01*
X-160520D02*
X-158750Y371892D01*
X-154268Y363818D02*
X-144780Y354330D01*
X-190275Y360001D02*
X-186458Y363818D01*
X-154268D01*
X-246380Y53340D02*
Y97396D01*
X-237490Y69611D02*
Y72390D01*
X-238760Y67310D02*
Y68341D01*
X-237490Y69611D01*
X-255651Y63419D02*
Y76659D01*
X-256540Y62530D02*
X-255651Y63419D01*
X-255732Y76740D02*
Y87091D01*
Y76740D02*
X-255651Y76659D01*
X-255732Y87091D02*
X-255651Y87171D01*
X-262890Y90170D02*
Y97396D01*
X-256540Y48260D02*
Y62530D01*
X-255651Y97396D02*
Y106639D01*
Y87171D02*
Y97396D01*
X-252992Y111760D02*
X-252730Y111498D01*
X-252992Y111760D02*
Y136344D01*
X-334190Y141605D02*
X-304268D01*
X-340796Y138430D02*
X-337621Y141605D01*
X-334190D01*
X-302309Y139646D02*
X-301690D01*
X-304268Y141605D02*
X-302309Y139646D01*
X-341630Y138430D02*
X-340796D01*
X-337820Y130810D02*
X-337185Y130175D01*
X-342900Y130810D02*
X-337820D01*
X-333522D02*
X-331470D01*
X-334157Y130175D02*
X-333522Y130810D01*
X-399288Y51308D02*
Y88900D01*
X-163830Y285750D02*
X-160020D01*
X-168910Y278130D02*
X-168692Y278348D01*
X-163830D01*
X-154940Y287238D01*
X-160020Y285750D02*
X-157480Y288290D01*
Y330402D01*
X-154940Y287238D02*
Y329350D01*
X-168910Y201930D02*
X-162560Y208280D01*
X-203200Y144824D02*
Y145402D01*
X-203944Y146146D02*
X-203200Y145402D01*
X-217190Y146146D02*
X-203944D01*
X-337185Y130175D02*
X-334190D01*
X-252992Y136344D02*
X-249690Y139646D01*
X-220326Y419100D02*
X-209720Y408494D01*
X-259336Y421640D02*
X-215682D01*
X-260388Y424180D02*
X-247650D01*
X-180340Y398780D02*
X-143510D01*
X-197775Y382501D02*
Y407325D01*
X-190275Y382501D02*
Y400225D01*
X-200830Y393359D02*
Y406788D01*
X-190275Y400225D02*
X-185370Y405130D01*
X-201458Y378684D02*
Y392731D01*
X-184150Y410210D02*
X-157109D01*
X-185370Y405130D02*
X-153670D01*
X-194000Y378726D02*
X-190275Y375001D01*
X-194000Y378726D02*
Y400360D01*
X-215682Y421640D02*
X-200830Y406788D01*
X-194000Y400360D02*
X-184150Y410210D01*
X-201458Y392731D02*
X-200830Y393359D01*
X-209720Y384789D02*
X-208958Y384026D01*
X-201458Y378684D02*
X-197775Y375001D01*
X-209720Y407670D02*
Y408494D01*
Y384789D02*
Y407670D01*
X-184690Y201930D02*
X-168910D01*
X-298482Y334042D02*
Y334042D01*
X-208958Y378684D02*
Y384026D01*
Y378684D02*
X-205275Y375001D01*
Y382501D02*
Y400515D01*
X-326390Y304800D02*
X-321310D01*
X-337852Y300958D02*
X-293359Y345451D01*
X-339757Y300323D02*
X-338726D01*
X-338091Y300958D01*
X-293359Y345451D02*
X-293307D01*
X-338091Y300958D02*
X-337852D01*
X-342728Y284480D02*
X-334228D01*
X-343408Y283800D02*
X-342728Y284480D01*
X-334228D02*
X-330418Y288290D01*
X-347980D02*
X-334010D01*
X-331470Y290830D01*
X-247650Y424180D02*
X-214630D01*
X-247650D02*
Y427990D01*
X-214630Y424180D02*
X-197775Y407325D01*
X-248920Y274955D02*
X-209016D01*
X-282575D02*
X-248920D01*
X-283210Y274320D02*
X-282575Y274955D01*
X-291157Y278765D02*
X-278482D01*
X-308546Y280670D02*
X-306641Y278765D01*
X-212173Y282575D02*
X-202769Y291978D01*
X-314960Y280670D02*
X-308546D01*
X-275107Y282575D02*
X-212173D01*
X-276160Y280035D02*
X-211120D01*
X-306641Y278765D02*
X-294749D01*
X-293697Y276225D02*
X-291157Y278765D01*
X-304800Y283210D02*
X-304165Y283845D01*
X-276378D02*
X-275107Y282575D01*
X-211120Y280035D02*
X-201717Y289438D01*
X-277212Y277495D02*
X-210068D01*
X-292209Y281305D02*
X-277430D01*
X-210068Y277495D02*
X-200665Y286898D01*
X-294749Y278765D02*
X-292209Y281305D01*
X-277430D02*
X-276160Y280035D01*
X-278482Y278765D02*
X-277212Y277495D01*
X-316801Y276225D02*
X-293697D01*
X-304165Y283845D02*
X-276378D01*
X-276595Y287655D02*
X-274055Y285115D01*
X-307693Y290195D02*
X-275543D01*
X-309598Y288290D02*
X-307693Y290195D01*
X-330418Y288290D02*
X-309598D01*
X-306641Y287655D02*
X-276595D01*
X-273003D02*
X-214277D01*
X-309181Y285115D02*
X-306641Y287655D01*
X-275543Y290195D02*
X-273003Y287655D01*
X-316801Y285115D02*
X-309181D01*
X-228265Y292735D02*
X-221000Y300000D01*
X-215329Y290195D02*
X-209000Y296524D01*
X-213225Y285115D02*
X-203822Y294518D01*
X-274491Y292735D02*
X-271951Y290195D01*
X-310650Y290830D02*
X-308745Y292735D01*
X-271951Y290195D02*
X-215329D01*
X-335280Y293370D02*
X-311702D01*
X-309797Y295275D02*
X-276860D01*
X-270301D02*
X-267761Y292735D01*
X-214277Y287655D02*
X-204874Y297058D01*
X-274055Y285115D02*
X-213225D01*
X-331470Y290830D02*
X-310650D01*
X-308745Y292735D02*
X-274491D01*
X-311702Y293370D02*
X-309797Y295275D01*
X-276860D02*
X-270301D01*
X-267761Y292735D02*
X-228265D01*
X-328930Y283210D02*
X-318706D01*
X-316801Y285115D01*
X-317977Y277401D02*
X-316801Y276225D01*
X-322580Y278130D02*
X-321851Y277401D01*
X-317977D01*
X-209016Y274955D02*
X-199613Y284358D01*
X-189171D02*
X-185240Y288290D01*
X-179506D01*
X-199613Y284358D02*
X-189171D01*
X-200665Y286898D02*
X-190223D01*
X-186292Y290830D01*
X-180558D01*
X-181610Y293370D02*
X-165100Y309880D01*
X-187344Y293370D02*
X-181610D01*
X-201717Y289438D02*
X-191276D01*
X-187344Y293370D01*
X-180558Y290830D02*
X-162560Y308828D01*
X-190936Y293370D02*
X-187735Y296571D01*
X-202769Y291978D02*
X-192507D01*
X-191115Y293370D02*
X-190936D01*
X-192507Y291978D02*
X-191115Y293370D01*
X-203822Y294518D02*
X-193559D01*
X-190275Y297802D01*
Y315001D01*
X-204874Y297058D02*
X-198242D01*
X-194000Y301300D02*
Y326226D01*
X-198242Y297058D02*
X-194000Y301300D01*
X-205275Y322501D02*
X-201458Y318684D01*
Y313475D02*
Y318684D01*
Y313475D02*
X-201229Y313246D01*
Y303286D02*
Y313246D01*
X-149334Y362476D02*
X-139573Y352715D01*
X-154940Y329350D02*
X-139573Y344717D01*
X-149334Y362476D02*
X-149334D01*
X-139573Y344717D02*
Y352715D01*
X-143673Y353115D02*
X-143673D01*
X-142113Y351555D01*
X-157480Y330402D02*
X-142113Y345769D01*
X-144780Y354222D02*
Y354330D01*
Y354222D02*
X-143673Y353115D01*
X-142113Y345769D02*
Y351555D01*
X-179506Y288290D02*
X-160020Y307776D01*
Y331454D02*
X-144653Y346821D01*
X-160020Y307776D02*
Y331454D01*
X-151130Y354330D02*
X-148480D01*
X-187735Y296571D02*
Y306295D01*
X-186500Y307530D01*
Y318726D01*
X-166682Y333818D02*
X-162560Y329696D01*
Y308828D02*
Y329696D01*
X-165100Y309880D02*
Y319600D01*
X-209000Y296524D02*
Y318726D01*
X-238958Y378684D02*
X-235275Y375001D01*
X-157109Y410210D02*
X-156510Y410810D01*
X-186592Y333818D02*
X-166682D01*
X-215900Y295910D02*
Y296941D01*
X-217000Y298041D02*
Y324000D01*
Y298041D02*
X-215900Y296941D01*
X-217000Y324000D02*
X-213206Y327794D01*
Y329570D01*
X-231592Y318684D02*
X-227775Y322501D01*
X-231592Y313475D02*
Y318684D01*
X-233680Y297180D02*
Y311387D01*
X-231592Y313475D01*
X-239092D02*
Y323893D01*
X-236800Y326184D01*
X-240134Y297227D02*
Y312434D01*
X-239092Y313475D01*
X-89625Y473370D02*
X-88900D01*
X-190275Y367501D02*
X-186592Y371184D01*
X-197775Y360001D02*
X-194092Y356318D01*
X-190275Y337501D02*
X-186592Y333818D01*
X-236800Y326184D02*
X-236634D01*
X-236500Y326318D01*
X-231458D01*
X-227775Y330001D01*
X-197775Y330001D02*
X-194000Y326226D01*
X-221000Y300000D02*
Y324000D01*
X-216500Y328500D01*
Y333776D01*
X-212775Y337501D01*
X-190275Y322501D02*
X-186500Y318726D01*
X-212775Y322501D02*
X-209000Y318726D01*
X-230190Y115250D02*
Y126646D01*
D114*
X-269190Y78690D02*
Y126646D01*
X-264160Y73660D02*
X-262890D01*
X-269190Y78690D02*
X-264160Y73660D01*
X17780Y246380D02*
X19050D01*
X11430Y252730D02*
X17780Y246380D01*
X-414020Y58889D02*
Y59063D01*
X11430Y252730D02*
Y259080D01*
D118*
X-83820Y226060D02*
X66040D01*
D121*
X173631Y322620D02*
X191451Y304800D01*
X295511D01*
X313331Y322620D01*
X293921Y367030D02*
X313331Y347620D01*
X193041Y367030D02*
X293921D01*
X173631Y347620D02*
X193041Y367030D01*
D123*
X-511967Y51196D02*
D03*
X-490132Y45345D02*
D03*
X-468973Y211652D02*
D03*
X-447138Y205801D02*
D03*
D124*
X-409600Y286800D02*
D03*
X286800Y409600D02*
D03*
X-286800Y-409600D02*
D03*
D154*
X-313038Y157625D02*
G03*
X-314505Y157781I-1374J-5939D01*
G01*
X-311386Y154646D02*
G03*
X-315272Y155741I-2939J-2988D01*
G01*
X-313733Y151511D02*
X-313537Y151315D01*
X-313038Y157625D02*
X-312479Y157601D01*
X-312010Y157455D02*
X-303005Y155971D01*
X-309353Y152646D02*
X-301690D01*
X-318750Y155448D02*
X-316534D01*
X-314325Y151658D02*
X-313733Y151511D01*
X-313537Y151315D02*
X-311693Y149471D01*
X-311386Y154646D02*
X-309353Y152646D01*
X-316534Y155448D02*
X-315272Y155741D01*
X-312155Y157491D02*
X-312010Y157455D01*
X-303005Y155971D02*
X-298515D01*
X-334190Y157480D02*
X-314505Y157781D01*
X-298515Y155971D02*
X-295190Y152646D01*
X-266700Y124646D02*
X-265865Y125481D01*
X-266700Y106042D02*
Y124646D01*
Y106042D02*
X-262890Y102232D01*
X-247034Y220568D02*
X-246380Y219914D01*
Y207956D02*
Y219914D01*
X-252865Y219575D02*
X-251460Y220980D01*
X-252865Y207971D02*
Y219575D01*
X-326390Y135890D02*
X-303436D01*
X-303005Y136321D01*
X-298515D02*
X-295190Y139646D01*
X-303005Y136321D02*
X-298515D01*
X-331470Y130810D02*
X-326390Y135890D01*
X-308610Y132080D02*
X-306351Y129821D01*
X-298515D01*
X-311693Y149471D02*
X-298515D01*
X-319766Y154432D02*
X-318750Y155448D01*
X-334190Y154432D02*
X-319766D01*
X-246380Y97396D02*
Y129836D01*
X-249690Y133146D02*
X-246380Y129836D01*
X-262890Y97396D02*
Y102232D01*
X-265865Y125481D02*
Y136471D01*
X-298515Y149471D02*
X-295190Y146146D01*
X-265865Y136471D02*
X-262690Y139646D01*
X-200406Y156210D02*
X-197866Y153670D01*
X-215636Y156210D02*
X-200406D01*
X-220515Y155971D02*
X-215875D01*
X-223690Y159146D02*
X-220515Y155971D01*
X-215875D02*
X-215636Y156210D01*
X-190500Y201930D02*
X-184690D01*
X-197534Y194896D02*
X-190500Y201930D01*
X-226940Y194896D02*
X-197534D01*
X-311150Y175260D02*
X-303066D01*
X-303005Y175321D01*
X-292015D01*
X-288690Y178646D01*
X-224790Y222420D02*
Y223520D01*
X-226060Y221150D02*
X-224790Y222420D01*
X-226865Y209831D02*
Y212461D01*
Y209831D02*
X-226356Y209322D01*
X-226060Y213266D02*
Y221150D01*
X-226865Y212461D02*
X-226060Y213266D01*
X-226356Y208480D02*
Y209322D01*
X-230190Y204646D02*
X-226356Y208480D01*
X-249690Y204646D02*
X-246380Y207956D01*
X-256190Y204646D02*
X-252865Y207971D01*
X-298515Y129821D02*
X-295190Y133146D01*
X-303366Y187960D02*
X-303005Y188321D01*
X-308610Y187960D02*
X-303366D01*
X-298515Y188321D02*
X-295190Y191646D01*
X-303005Y188321D02*
X-298515D01*
Y201471D02*
X-295190Y198146D01*
X-303005Y201471D02*
X-298515D01*
X-303464Y201930D02*
X-303005Y201471D01*
X-311150Y201930D02*
X-303464D01*
X-234950Y119380D02*
X-233680Y120650D01*
Y125166D01*
X-233515Y129821D02*
X-230190Y133146D01*
X-233515Y125331D02*
Y129821D01*
X-233680Y125166D02*
X-233515Y125331D01*
X-213206Y329570D02*
X-212775Y330001D01*
X-291940Y117000D02*
Y129895D01*
X-288690Y133146D01*
X-285515Y115805D02*
Y129821D01*
X-282190Y133146D01*
X-285440Y207896D02*
Y214396D01*
X-288690Y204646D02*
X-285440Y207896D01*
X-230190Y191646D02*
X-226940Y194896D01*
M02*
