G04*
G04 #@! TF.GenerationSoftware,Altium Limited,Altium Designer,24.1.2 (44)*
G04*
G04 Layer_Physical_Order=4*
G04 Layer_Color=16440176*
%FSLAX44Y44*%
%MOMM*%
G71*
G04*
G04 #@! TF.SameCoordinates,E650615F-92BB-4AA2-81C1-946A8B7DB211*
G04*
G04*
G04 #@! TF.FilePolarity,Positive*
G04*
G01*
G75*
%ADD11C,0.1524*%
%ADD17C,0.2540*%
%ADD98C,0.8000*%
%ADD99C,1.9050*%
%ADD100C,1.9000*%
%ADD105C,0.3048*%
%ADD106C,0.5080*%
%ADD107C,0.3556*%
%ADD108C,0.4064*%
%ADD113C,0.1270*%
%ADD114C,0.2032*%
%ADD115C,0.5080*%
%ADD116C,0.3810*%
%ADD118C,0.2286*%
%ADD121C,0.7620*%
%ADD123C,1.2700*%
%ADD124C,6.5000*%
%ADD154C,0.1016*%
%ADD155R,0.6350X0.6350*%
G36*
X6985Y511913D02*
X6840Y511905D01*
X6689Y511876D01*
X6532Y511827D01*
X6370Y511758D01*
X6202Y511669D01*
X6028Y511560D01*
X5848Y511431D01*
X5663Y511281D01*
X5275Y510922D01*
X3479Y512718D01*
X3668Y512915D01*
X3987Y513291D01*
X4117Y513471D01*
X4226Y513645D01*
X4315Y513813D01*
X4384Y513975D01*
X4433Y514132D01*
X4462Y514283D01*
X4470Y514428D01*
X6985Y511913D01*
D02*
G37*
G36*
X37707Y505178D02*
X37758Y504695D01*
X37802Y504475D01*
X37859Y504270D01*
X37929Y504079D01*
X38012Y503903D01*
X38107Y503742D01*
X38215Y503596D01*
X38335Y503464D01*
X34780D01*
X34900Y503596D01*
X35008Y503742D01*
X35103Y503903D01*
X35186Y504079D01*
X35256Y504270D01*
X35313Y504475D01*
X35357Y504695D01*
X35389Y504929D01*
X35408Y505178D01*
X35415Y505442D01*
X37701D01*
X37707Y505178D01*
D02*
G37*
G36*
X-63525Y470830D02*
X-63804Y470825D01*
X-64070Y470803D01*
X-64323Y470765D01*
X-64564Y470711D01*
X-64793Y470640D01*
X-65010Y470553D01*
X-65214Y470449D01*
X-65406Y470329D01*
X-65585Y470193D01*
X-65752Y470040D01*
X-66830Y471118D01*
X-66677Y471285D01*
X-66541Y471464D01*
X-66421Y471656D01*
X-66317Y471860D01*
X-66230Y472077D01*
X-66159Y472305D01*
X-66105Y472547D01*
X-66067Y472800D01*
X-66045Y473066D01*
X-66040Y473345D01*
X-63525Y470830D01*
D02*
G37*
G36*
X22592Y471972D02*
X22968Y471653D01*
X23148Y471523D01*
X23321Y471414D01*
X23490Y471325D01*
X23652Y471256D01*
X23809Y471207D01*
X23960Y471179D01*
X24105Y471170D01*
X21590Y468655D01*
X21581Y468801D01*
X21553Y468951D01*
X21504Y469108D01*
X21435Y469270D01*
X21346Y469439D01*
X21237Y469612D01*
X21107Y469792D01*
X20958Y469977D01*
X20599Y470365D01*
X22395Y472161D01*
X22592Y471972D01*
D02*
G37*
G36*
X-185017Y463447D02*
X-186038Y463439D01*
Y464963D01*
X-185920Y464964D01*
X-185470Y464991D01*
X-185439Y465000D01*
X-185419Y465009D01*
X-185412Y465020D01*
X-185017Y463447D01*
D02*
G37*
G36*
X199365Y463550D02*
X199153Y463543D01*
X198944Y463517D01*
X198738Y463473D01*
X198536Y463411D01*
X198336Y463330D01*
X198140Y463230D01*
X197946Y463112D01*
X197756Y462976D01*
X197569Y462821D01*
X197385Y462648D01*
X195948Y464085D01*
X196121Y464269D01*
X196276Y464456D01*
X196413Y464646D01*
X196530Y464840D01*
X196630Y465036D01*
X196711Y465236D01*
X196773Y465438D01*
X196817Y465644D01*
X196843Y465853D01*
X196850Y466065D01*
X199365Y463550D01*
D02*
G37*
G36*
X-181295Y456455D02*
X-181468Y456252D01*
X-181620Y456046D01*
X-181752Y455837D01*
X-181864Y455625D01*
X-181955Y455410D01*
X-182027Y455193D01*
X-182077Y454972D01*
X-182108Y454749D01*
X-182118Y454523D01*
X-183642D01*
X-183652Y454749D01*
X-183683Y454972D01*
X-183733Y455193D01*
X-183805Y455410D01*
X-183896Y455625D01*
X-184008Y455837D01*
X-184140Y456046D01*
X-184292Y456252D01*
X-184465Y456455D01*
X-184658Y456656D01*
X-181102D01*
X-181295Y456455D01*
D02*
G37*
G36*
X115071Y454929D02*
X115097Y454720D01*
X115141Y454514D01*
X115203Y454312D01*
X115284Y454112D01*
X115384Y453916D01*
X115501Y453722D01*
X115638Y453532D01*
X115793Y453345D01*
X115966Y453161D01*
X114529Y451724D01*
X114345Y451897D01*
X114158Y452052D01*
X113968Y452188D01*
X113774Y452307D01*
X113578Y452406D01*
X113378Y452487D01*
X113176Y452549D01*
X112970Y452593D01*
X112761Y452619D01*
X112549Y452626D01*
X115064Y455141D01*
X115071Y454929D01*
D02*
G37*
G36*
X-159550Y424838D02*
X-159712Y424618D01*
X-159854Y424398D01*
X-159978Y424177D01*
X-160082Y423956D01*
X-160168Y423735D01*
X-160234Y423514D01*
X-160282Y423292D01*
X-160310Y423071D01*
X-160320Y422849D01*
X-161844Y422717D01*
X-161854Y422947D01*
X-161887Y423171D01*
X-161940Y423389D01*
X-162015Y423602D01*
X-162111Y423810D01*
X-162229Y424012D01*
X-162368Y424209D01*
X-162528Y424400D01*
X-162710Y424586D01*
X-162913Y424767D01*
X-159369Y425058D01*
X-159550Y424838D01*
D02*
G37*
G36*
X-140655Y419626D02*
X-140828Y419422D01*
X-140980Y419216D01*
X-141112Y419007D01*
X-141224Y418795D01*
X-141315Y418580D01*
X-141387Y418363D01*
X-141437Y418142D01*
X-141468Y417919D01*
X-141478Y417693D01*
X-143002D01*
X-143012Y417919D01*
X-143043Y418142D01*
X-143093Y418363D01*
X-143165Y418580D01*
X-143256Y418795D01*
X-143368Y419007D01*
X-143500Y419216D01*
X-143652Y419422D01*
X-143825Y419626D01*
X-144018Y419826D01*
X-140462D01*
X-140655Y419626D01*
D02*
G37*
G36*
X116864Y414889D02*
X116887Y414648D01*
X116925Y414417D01*
X116978Y414197D01*
X117047Y413987D01*
X117130Y413789D01*
X117229Y413601D01*
X117344Y413425D01*
X117473Y413259D01*
X117618Y413104D01*
X114062D01*
X114207Y413259D01*
X114336Y413425D01*
X114451Y413601D01*
X114550Y413789D01*
X114634Y413987D01*
X114702Y414197D01*
X114755Y414417D01*
X114794Y414648D01*
X114817Y414889D01*
X114824Y415142D01*
X116856D01*
X116864Y414889D01*
D02*
G37*
G36*
X184730Y414619D02*
X184753Y414377D01*
X184791Y414146D01*
X184844Y413926D01*
X184913Y413717D01*
X184997Y413518D01*
X185096Y413331D01*
X185210Y413154D01*
X185340Y412989D01*
X185484Y412834D01*
X181928D01*
X182073Y412989D01*
X182203Y413154D01*
X182317Y413331D01*
X182416Y413518D01*
X182500Y413717D01*
X182568Y413926D01*
X182622Y414146D01*
X182660Y414377D01*
X182683Y414619D01*
X182690Y414872D01*
X184722D01*
X184730Y414619D01*
D02*
G37*
G36*
X-147005Y414546D02*
X-147178Y414342D01*
X-147330Y414136D01*
X-147462Y413927D01*
X-147574Y413715D01*
X-147665Y413500D01*
X-147737Y413283D01*
X-147787Y413062D01*
X-147818Y412839D01*
X-147828Y412613D01*
X-149352D01*
X-149362Y412839D01*
X-149393Y413062D01*
X-149443Y413283D01*
X-149515Y413500D01*
X-149606Y413715D01*
X-149718Y413927D01*
X-149850Y414136D01*
X-150002Y414342D01*
X-150175Y414546D01*
X-150368Y414746D01*
X-146812D01*
X-147005Y414546D01*
D02*
G37*
G36*
X-156042Y408313D02*
X-156267Y408264D01*
X-156486Y408202D01*
X-156700Y408126D01*
X-156909Y408038D01*
X-157112Y407937D01*
X-157309Y407822D01*
X-157502Y407695D01*
X-157689Y407554D01*
X-157870Y407400D01*
X-158046Y407234D01*
X-159289Y408146D01*
X-159146Y408303D01*
X-159025Y408465D01*
X-158928Y408631D01*
X-158854Y408801D01*
X-158802Y408977D01*
X-158774Y409156D01*
X-158768Y409341D01*
X-158786Y409530D01*
X-158826Y409723D01*
X-158889Y409921D01*
X-156042Y408313D01*
D02*
G37*
G36*
X-152085Y403116D02*
X-152258Y402912D01*
X-152410Y402706D01*
X-152542Y402497D01*
X-152654Y402285D01*
X-152745Y402070D01*
X-152817Y401853D01*
X-152867Y401632D01*
X-152898Y401409D01*
X-152908Y401183D01*
X-154432D01*
X-154442Y401409D01*
X-154473Y401632D01*
X-154523Y401853D01*
X-154595Y402070D01*
X-154686Y402285D01*
X-154798Y402497D01*
X-154930Y402706D01*
X-155082Y402912D01*
X-155255Y403116D01*
X-155448Y403316D01*
X-151892D01*
X-152085Y403116D01*
D02*
G37*
G36*
X12421Y396494D02*
X12142Y396489D01*
X11876Y396467D01*
X11623Y396429D01*
X11381Y396375D01*
X11153Y396304D01*
X10936Y396217D01*
X10732Y396113D01*
X10540Y395993D01*
X10361Y395857D01*
X10194Y395704D01*
X9116Y396782D01*
X9269Y396949D01*
X9405Y397128D01*
X9525Y397320D01*
X9629Y397524D01*
X9716Y397741D01*
X9787Y397970D01*
X9841Y398211D01*
X9879Y398464D01*
X9901Y398730D01*
X9906Y399009D01*
X12421Y396494D01*
D02*
G37*
G36*
X-24812Y396262D02*
X-25097Y396217D01*
X-25626Y396094D01*
X-25870Y396015D01*
X-26100Y395924D01*
X-26316Y395822D01*
X-26518Y395708D01*
X-26707Y395583D01*
X-26881Y395446D01*
X-27042Y395298D01*
X-28282Y396214D01*
X-28126Y396385D01*
X-27991Y396567D01*
X-27876Y396759D01*
X-27782Y396962D01*
X-27710Y397175D01*
X-27658Y397398D01*
X-27626Y397632D01*
X-27616Y397876D01*
X-27626Y398131D01*
X-27657Y398396D01*
X-24812Y396262D01*
D02*
G37*
G36*
X-141925Y396766D02*
X-142098Y396562D01*
X-142250Y396356D01*
X-142382Y396147D01*
X-142494Y395935D01*
X-142585Y395720D01*
X-142657Y395503D01*
X-142707Y395282D01*
X-142738Y395059D01*
X-142748Y394833D01*
X-144272D01*
X-144282Y395059D01*
X-144313Y395282D01*
X-144363Y395503D01*
X-144435Y395720D01*
X-144526Y395935D01*
X-144638Y396147D01*
X-144770Y396356D01*
X-144922Y396562D01*
X-145095Y396766D01*
X-145288Y396966D01*
X-141732D01*
X-141925Y396766D01*
D02*
G37*
G36*
X-260612Y388712D02*
X-260674Y388465D01*
X-260709Y388227D01*
X-260718Y388000D01*
X-260700Y387782D01*
X-260656Y387574D01*
X-260585Y387376D01*
X-260487Y387188D01*
X-260363Y387009D01*
X-260212Y386840D01*
X-261464Y386296D01*
X-261591Y386412D01*
X-261741Y386530D01*
X-261914Y386648D01*
X-262110Y386767D01*
X-262570Y387009D01*
X-263121Y387255D01*
X-263764Y387505D01*
X-260523Y388968D01*
X-260612Y388712D01*
D02*
G37*
G36*
X-288315Y386080D02*
X-288627Y386076D01*
X-289198Y386021D01*
X-289458Y385972D01*
X-289701Y385907D01*
X-289927Y385826D01*
X-290135Y385731D01*
X-290327Y385621D01*
X-290501Y385495D01*
X-290658Y385354D01*
X-291556Y386252D01*
X-291415Y386409D01*
X-291289Y386583D01*
X-291179Y386775D01*
X-291084Y386983D01*
X-291003Y387209D01*
X-290938Y387452D01*
X-290889Y387712D01*
X-290854Y387989D01*
X-290834Y388283D01*
X-290830Y388595D01*
X-288315Y386080D01*
D02*
G37*
G36*
X-290104Y377952D02*
X-290327Y378169D01*
X-290770Y378535D01*
X-290989Y378684D01*
X-291206Y378809D01*
X-291423Y378912D01*
X-291637Y378992D01*
X-291851Y379049D01*
X-292063Y379084D01*
X-292273Y379095D01*
Y380365D01*
X-292063Y380376D01*
X-291851Y380411D01*
X-291637Y380468D01*
X-291423Y380548D01*
X-291206Y380651D01*
X-290989Y380776D01*
X-290770Y380925D01*
X-290549Y381096D01*
X-290327Y381291D01*
X-290104Y381508D01*
Y377952D01*
D02*
G37*
G36*
X-260346Y380663D02*
X-260292Y380092D01*
X-260242Y379832D01*
X-260177Y379589D01*
X-260096Y379363D01*
X-260001Y379155D01*
X-259891Y378963D01*
X-259765Y378789D01*
X-259624Y378632D01*
X-260522Y377734D01*
X-260679Y377875D01*
X-260853Y378001D01*
X-261045Y378111D01*
X-261253Y378206D01*
X-261479Y378287D01*
X-261722Y378352D01*
X-261982Y378401D01*
X-262259Y378436D01*
X-262553Y378456D01*
X-262865Y378460D01*
X-260350Y380975D01*
X-260346Y380663D01*
D02*
G37*
G36*
X-78924Y379469D02*
X-78780Y379275D01*
X-78625Y379103D01*
X-78458Y378954D01*
X-78280Y378828D01*
X-78091Y378725D01*
X-77890Y378645D01*
X-77677Y378587D01*
X-77453Y378553D01*
X-77217Y378542D01*
X-77665Y377018D01*
X-77875Y377010D01*
X-78090Y376987D01*
X-78311Y376950D01*
X-78537Y376897D01*
X-78769Y376828D01*
X-79248Y376647D01*
X-79496Y376533D01*
X-80009Y376261D01*
X-79056Y379687D01*
X-78924Y379469D01*
D02*
G37*
G36*
X-243863Y373934D02*
X-243952Y374016D01*
X-244047Y374090D01*
X-244150Y374154D01*
X-244260Y374211D01*
X-244378Y374258D01*
X-244503Y374297D01*
X-244635Y374327D01*
X-244774Y374349D01*
X-244921Y374362D01*
X-245075Y374366D01*
Y375636D01*
X-244921Y375640D01*
X-244774Y375653D01*
X-244635Y375675D01*
X-244503Y375705D01*
X-244378Y375744D01*
X-244260Y375792D01*
X-244150Y375848D01*
X-244047Y375912D01*
X-243952Y375986D01*
X-243863Y376068D01*
Y373934D01*
D02*
G37*
G36*
X-251363D02*
X-251452Y374016D01*
X-251547Y374090D01*
X-251650Y374154D01*
X-251760Y374211D01*
X-251878Y374258D01*
X-252003Y374297D01*
X-252135Y374327D01*
X-252274Y374349D01*
X-252421Y374362D01*
X-252575Y374366D01*
Y375636D01*
X-252421Y375640D01*
X-252274Y375653D01*
X-252135Y375675D01*
X-252003Y375705D01*
X-251878Y375744D01*
X-251760Y375792D01*
X-251650Y375848D01*
X-251547Y375912D01*
X-251452Y375986D01*
X-251363Y376068D01*
Y373934D01*
D02*
G37*
G36*
X-290104Y369062D02*
X-290305Y369255D01*
X-290508Y369428D01*
X-290714Y369580D01*
X-290923Y369712D01*
X-291135Y369824D01*
X-291350Y369915D01*
X-291567Y369987D01*
X-291788Y370037D01*
X-292011Y370068D01*
X-292237Y370078D01*
Y371602D01*
X-292011Y371612D01*
X-291788Y371643D01*
X-291567Y371693D01*
X-291350Y371765D01*
X-291135Y371856D01*
X-290923Y371968D01*
X-290714Y372100D01*
X-290508Y372252D01*
X-290305Y372425D01*
X-290104Y372618D01*
Y369062D01*
D02*
G37*
G36*
X-203200Y368678D02*
X-203306Y368566D01*
X-203400Y368453D01*
X-203484Y368340D01*
X-203556Y368225D01*
X-203616Y368109D01*
X-203666Y367992D01*
X-203704Y367875D01*
X-203731Y367756D01*
X-203747Y367637D01*
X-203751Y367516D01*
X-205260Y369025D01*
X-205139Y369029D01*
X-205020Y369045D01*
X-204901Y369072D01*
X-204784Y369110D01*
X-204667Y369160D01*
X-204551Y369221D01*
X-204436Y369292D01*
X-204323Y369376D01*
X-204210Y369470D01*
X-204098Y369576D01*
X-203200Y368678D01*
D02*
G37*
G36*
X-195700Y368678D02*
X-195806Y368566D01*
X-195900Y368453D01*
X-195984Y368340D01*
X-196056Y368225D01*
X-196116Y368109D01*
X-196166Y367992D01*
X-196204Y367875D01*
X-196231Y367756D01*
X-196247Y367637D01*
X-196251Y367516D01*
X-197760Y369025D01*
X-197639Y369029D01*
X-197520Y369045D01*
X-197401Y369072D01*
X-197284Y369110D01*
X-197167Y369160D01*
X-197051Y369221D01*
X-196936Y369292D01*
X-196823Y369376D01*
X-196710Y369470D01*
X-196598Y369576D01*
X-195700Y368678D01*
D02*
G37*
G36*
X-160264Y360591D02*
X-160233Y360368D01*
X-160183Y360147D01*
X-160111Y359930D01*
X-160020Y359715D01*
X-159908Y359503D01*
X-159776Y359294D01*
X-159624Y359088D01*
X-159451Y358885D01*
X-159258Y358684D01*
X-162814D01*
X-162621Y358885D01*
X-162448Y359088D01*
X-162296Y359294D01*
X-162164Y359503D01*
X-162052Y359715D01*
X-161961Y359930D01*
X-161889Y360147D01*
X-161839Y360368D01*
X-161808Y360591D01*
X-161798Y360817D01*
X-160274D01*
X-160264Y360591D01*
D02*
G37*
G36*
X-159451Y354855D02*
X-159624Y354652D01*
X-159776Y354446D01*
X-159908Y354237D01*
X-160020Y354025D01*
X-160111Y353810D01*
X-160183Y353593D01*
X-160233Y353372D01*
X-160264Y353149D01*
X-160274Y352923D01*
X-161798D01*
X-161808Y353149D01*
X-161839Y353372D01*
X-161889Y353593D01*
X-161961Y353810D01*
X-162052Y354025D01*
X-162164Y354237D01*
X-162296Y354446D01*
X-162448Y354652D01*
X-162621Y354855D01*
X-162814Y355056D01*
X-159258D01*
X-159451Y354855D01*
D02*
G37*
G36*
X281530Y359849D02*
X282231Y359269D01*
X282942Y358758D01*
X283665Y358317D01*
X284399Y357944D01*
X285144Y357641D01*
X285900Y357407D01*
X286668Y357242D01*
X287446Y357146D01*
X288236Y357120D01*
X278832Y347715D01*
X278805Y348505D01*
X278709Y349283D01*
X278544Y350051D01*
X278310Y350807D01*
X278007Y351552D01*
X277634Y352286D01*
X277193Y353009D01*
X276682Y353720D01*
X276102Y354421D01*
X275453Y355110D01*
X280841Y360498D01*
X281530Y359849D01*
D02*
G37*
G36*
X161509Y355110D02*
X160860Y354421D01*
X160280Y353720D01*
X159769Y353009D01*
X159328Y352286D01*
X158955Y351552D01*
X158652Y350807D01*
X158418Y350051D01*
X158253Y349283D01*
X158157Y348505D01*
X158131Y347715D01*
X148726Y357120D01*
X149516Y357146D01*
X150294Y357242D01*
X151062Y357407D01*
X151818Y357641D01*
X152563Y357944D01*
X153297Y358317D01*
X154020Y358758D01*
X154731Y359269D01*
X155432Y359849D01*
X156121Y360498D01*
X161509Y355110D01*
D02*
G37*
G36*
X-164785Y338345D02*
X-164958Y338142D01*
X-165110Y337936D01*
X-165242Y337727D01*
X-165354Y337515D01*
X-165445Y337300D01*
X-165517Y337083D01*
X-165567Y336862D01*
X-165598Y336639D01*
X-165608Y336413D01*
X-167132D01*
X-167142Y336639D01*
X-167173Y336862D01*
X-167223Y337083D01*
X-167295Y337300D01*
X-167386Y337515D01*
X-167498Y337727D01*
X-167630Y337936D01*
X-167782Y338142D01*
X-167955Y338345D01*
X-168148Y338546D01*
X-164592D01*
X-164785Y338345D01*
D02*
G37*
G36*
X-296897Y332027D02*
X-297070Y331824D01*
X-297222Y331618D01*
X-297354Y331409D01*
X-297466Y331197D01*
X-297557Y330982D01*
X-297628Y330765D01*
X-297679Y330544D01*
X-297710Y330321D01*
X-297720Y330095D01*
X-299244D01*
X-299254Y330321D01*
X-299285Y330544D01*
X-299335Y330765D01*
X-299407Y330982D01*
X-299498Y331197D01*
X-299610Y331409D01*
X-299742Y331618D01*
X-299894Y331824D01*
X-300067Y332027D01*
X-300260Y332228D01*
X-296704D01*
X-296897Y332027D01*
D02*
G37*
G36*
X288236Y313120D02*
X287446Y313094D01*
X286668Y312998D01*
X285900Y312833D01*
X285144Y312599D01*
X284399Y312296D01*
X283665Y311923D01*
X282942Y311482D01*
X282231Y310971D01*
X281530Y310391D01*
X280841Y309742D01*
X275453Y315130D01*
X276102Y315819D01*
X276682Y316520D01*
X277193Y317231D01*
X277634Y317954D01*
X278007Y318688D01*
X278310Y319433D01*
X278544Y320189D01*
X278709Y320957D01*
X278805Y321735D01*
X278832Y322525D01*
X288236Y313120D01*
D02*
G37*
G36*
X158157Y321735D02*
X158253Y320957D01*
X158418Y320189D01*
X158652Y319433D01*
X158955Y318688D01*
X159328Y317954D01*
X159769Y317231D01*
X160280Y316520D01*
X160860Y315819D01*
X161509Y315130D01*
X156121Y309742D01*
X155432Y310391D01*
X154731Y310971D01*
X154020Y311482D01*
X153297Y311923D01*
X152563Y312296D01*
X151818Y312599D01*
X151062Y312833D01*
X150294Y312998D01*
X149516Y313094D01*
X148726Y313120D01*
X158131Y322525D01*
X158157Y321735D01*
D02*
G37*
G36*
X-324805Y302785D02*
X-324978Y302582D01*
X-325130Y302376D01*
X-325262Y302167D01*
X-325374Y301955D01*
X-325465Y301740D01*
X-325537Y301523D01*
X-325587Y301302D01*
X-325618Y301079D01*
X-325628Y300853D01*
X-327152D01*
X-327162Y301079D01*
X-327193Y301302D01*
X-327243Y301523D01*
X-327315Y301740D01*
X-327406Y301955D01*
X-327518Y302167D01*
X-327650Y302376D01*
X-327802Y302582D01*
X-327975Y302785D01*
X-328168Y302986D01*
X-324612D01*
X-324805Y302785D01*
D02*
G37*
G36*
X-338775Y297705D02*
X-338948Y297502D01*
X-339100Y297296D01*
X-339232Y297087D01*
X-339344Y296875D01*
X-339435Y296660D01*
X-339507Y296443D01*
X-339557Y296222D01*
X-339588Y295999D01*
X-339598Y295773D01*
X-341122D01*
X-341132Y295999D01*
X-341163Y296222D01*
X-341213Y296443D01*
X-341285Y296660D01*
X-341376Y296875D01*
X-341488Y297087D01*
X-341620Y297296D01*
X-341772Y297502D01*
X-341945Y297705D01*
X-342138Y297906D01*
X-338582D01*
X-338775Y297705D01*
D02*
G37*
G36*
X-238388Y295382D02*
X-238584Y295186D01*
X-238758Y294986D01*
X-238913Y294783D01*
X-239046Y294577D01*
X-239160Y294367D01*
X-239252Y294154D01*
X-239324Y293937D01*
X-239375Y293717D01*
X-239406Y293494D01*
X-239417Y293267D01*
X-240941Y293295D01*
X-240951Y293520D01*
X-240981Y293743D01*
X-241031Y293964D01*
X-241101Y294182D01*
X-241191Y294399D01*
X-241302Y294613D01*
X-241432Y294824D01*
X-241582Y295033D01*
X-241753Y295241D01*
X-241943Y295445D01*
X-238388Y295382D01*
D02*
G37*
G36*
X-232082Y295175D02*
X-232254Y294971D01*
X-232406Y294763D01*
X-232537Y294553D01*
X-232649Y294341D01*
X-232740Y294125D01*
X-232810Y293908D01*
X-232861Y293687D01*
X-232891Y293464D01*
X-232901Y293238D01*
X-234426Y293228D01*
X-234436Y293454D01*
X-234466Y293678D01*
X-234517Y293898D01*
X-234589Y294115D01*
X-234681Y294329D01*
X-234793Y294540D01*
X-234926Y294748D01*
X-235079Y294953D01*
X-235252Y295156D01*
X-235446Y295355D01*
X-231890Y295378D01*
X-232082Y295175D01*
D02*
G37*
G36*
X-214315Y293895D02*
X-214488Y293692D01*
X-214640Y293486D01*
X-214772Y293277D01*
X-214884Y293065D01*
X-214975Y292850D01*
X-215047Y292633D01*
X-215097Y292412D01*
X-215128Y292189D01*
X-215138Y291963D01*
X-216662D01*
X-216672Y292189D01*
X-216703Y292412D01*
X-216753Y292633D01*
X-216825Y292850D01*
X-216916Y293065D01*
X-217028Y293277D01*
X-217160Y293486D01*
X-217312Y293692D01*
X-217485Y293895D01*
X-217678Y294096D01*
X-214122D01*
X-214315Y293895D01*
D02*
G37*
G36*
X-346395Y286276D02*
X-346568Y286072D01*
X-346720Y285866D01*
X-346852Y285657D01*
X-346964Y285445D01*
X-347055Y285230D01*
X-347127Y285013D01*
X-347177Y284792D01*
X-347208Y284569D01*
X-347218Y284343D01*
X-348742D01*
X-348752Y284569D01*
X-348783Y284792D01*
X-348833Y285013D01*
X-348905Y285230D01*
X-348996Y285445D01*
X-349108Y285657D01*
X-349240Y285866D01*
X-349392Y286072D01*
X-349565Y286276D01*
X-349758Y286476D01*
X-346202D01*
X-346395Y286276D01*
D02*
G37*
G36*
X-197391Y272034D02*
X-197592Y272227D01*
X-197795Y272400D01*
X-198001Y272552D01*
X-198210Y272684D01*
X-198422Y272796D01*
X-198637Y272887D01*
X-198855Y272959D01*
X-199075Y273009D01*
X-199298Y273040D01*
X-199524Y273050D01*
Y274574D01*
X-199298Y274584D01*
X-199075Y274615D01*
X-198855Y274665D01*
X-198637Y274737D01*
X-198422Y274828D01*
X-198210Y274940D01*
X-198001Y275072D01*
X-197795Y275224D01*
X-197592Y275397D01*
X-197391Y275590D01*
Y272034D01*
D02*
G37*
G36*
X-232131Y233336D02*
X-232136Y233285D01*
X-232145Y233094D01*
X-232156Y231804D01*
X-233172D01*
X-233203Y233358D01*
X-232125D01*
X-232131Y233336D01*
D02*
G37*
G36*
X-297949D02*
X-297954Y233285D01*
X-297963Y233094D01*
X-297974Y231804D01*
X-298990D01*
X-299021Y233358D01*
X-297943D01*
X-297949Y233336D01*
D02*
G37*
G36*
X-220208Y232575D02*
X-220177Y232352D01*
X-220127Y232131D01*
X-220055Y231914D01*
X-219964Y231699D01*
X-219852Y231487D01*
X-219720Y231278D01*
X-219568Y231072D01*
X-219395Y230868D01*
X-219202Y230668D01*
X-222758D01*
X-222565Y230868D01*
X-222392Y231072D01*
X-222240Y231278D01*
X-222108Y231487D01*
X-221996Y231699D01*
X-221905Y231914D01*
X-221833Y232131D01*
X-221783Y232352D01*
X-221752Y232575D01*
X-221742Y232801D01*
X-220218D01*
X-220208Y232575D01*
D02*
G37*
G36*
X-227938Y232605D02*
X-227907Y232381D01*
X-227854Y232162D01*
X-227781Y231947D01*
X-227687Y231736D01*
X-227572Y231529D01*
X-227436Y231326D01*
X-227279Y231128D01*
X-227101Y230934D01*
X-226903Y230744D01*
X-230455Y230589D01*
X-230268Y230800D01*
X-230101Y231012D01*
X-229954Y231226D01*
X-229826Y231441D01*
X-229718Y231658D01*
X-229630Y231876D01*
X-229561Y232096D01*
X-229512Y232317D01*
X-229482Y232539D01*
X-229473Y232763D01*
X-227948Y232833D01*
X-227938Y232605D01*
D02*
G37*
G36*
X-156708Y232321D02*
X-156677Y232098D01*
X-156627Y231877D01*
X-156555Y231660D01*
X-156464Y231445D01*
X-156352Y231233D01*
X-156220Y231024D01*
X-156068Y230818D01*
X-155895Y230614D01*
X-155702Y230414D01*
X-159258D01*
X-159065Y230614D01*
X-158892Y230818D01*
X-158740Y231024D01*
X-158608Y231233D01*
X-158496Y231445D01*
X-158405Y231660D01*
X-158333Y231877D01*
X-158283Y232098D01*
X-158252Y232321D01*
X-158242Y232547D01*
X-156718D01*
X-156708Y232321D01*
D02*
G37*
G36*
X-246224Y230653D02*
X-246193Y230430D01*
X-246142Y230209D01*
X-246071Y229992D01*
X-245980Y229777D01*
X-245868Y229565D01*
X-245736Y229356D01*
X-245583Y229150D01*
X-245411Y228946D01*
X-245218Y228746D01*
X-248774D01*
X-248581Y228946D01*
X-248408Y229150D01*
X-248256Y229356D01*
X-248123Y229565D01*
X-248012Y229777D01*
X-247920Y229992D01*
X-247849Y230209D01*
X-247798Y230430D01*
X-247768Y230653D01*
X-247758Y230879D01*
X-246234D01*
X-246224Y230653D01*
D02*
G37*
G36*
X-154214Y220472D02*
X-154437Y220689D01*
X-154880Y221055D01*
X-155099Y221203D01*
X-155316Y221329D01*
X-155533Y221432D01*
X-155747Y221512D01*
X-155961Y221569D01*
X-156173Y221604D01*
X-156383Y221615D01*
Y222885D01*
X-156173Y222896D01*
X-155961Y222931D01*
X-155747Y222988D01*
X-155533Y223068D01*
X-155316Y223171D01*
X-155099Y223297D01*
X-154880Y223445D01*
X-154659Y223617D01*
X-154437Y223811D01*
X-154214Y224028D01*
Y220472D01*
D02*
G37*
G36*
X55634Y218229D02*
X55656Y217987D01*
X55695Y217756D01*
X55748Y217536D01*
X55816Y217327D01*
X55900Y217129D01*
X55999Y216941D01*
X56114Y216765D01*
X56243Y216599D01*
X56388Y216444D01*
X52832D01*
X52977Y216599D01*
X53106Y216765D01*
X53221Y216941D01*
X53320Y217129D01*
X53404Y217327D01*
X53472Y217536D01*
X53525Y217756D01*
X53563Y217987D01*
X53586Y218229D01*
X53594Y218482D01*
X55626D01*
X55634Y218229D01*
D02*
G37*
G36*
X-239497Y215340D02*
X-239502Y215289D01*
X-239511Y215098D01*
X-239522Y213808D01*
X-240538D01*
X-240569Y215361D01*
X-239491D01*
X-239497Y215340D01*
D02*
G37*
G36*
X-285217D02*
X-285222Y215289D01*
X-285231Y215098D01*
X-285242Y213808D01*
X-286258D01*
X-286289Y215361D01*
X-285211D01*
X-285217Y215340D01*
D02*
G37*
G36*
X-135509Y216496D02*
X-135329Y216360D01*
X-135137Y216241D01*
X-134933Y216140D01*
X-134717Y216056D01*
X-134489Y215989D01*
X-134249Y215940D01*
X-133997Y215909D01*
X-133733Y215895D01*
X-133457Y215898D01*
X-135889Y213304D01*
X-135903Y213584D01*
X-135933Y213852D01*
X-135977Y214107D01*
X-136037Y214349D01*
X-136113Y214579D01*
X-136203Y214795D01*
X-136309Y214999D01*
X-136430Y215191D01*
X-136567Y215369D01*
X-136718Y215535D01*
X-135677Y216649D01*
X-135509Y216496D01*
D02*
G37*
G36*
X-245847Y214070D02*
X-245852Y214019D01*
X-245861Y213828D01*
X-245872Y212538D01*
X-246888D01*
X-246919Y214091D01*
X-245841D01*
X-245847Y214070D01*
D02*
G37*
G36*
X-236051Y213292D02*
X-236038Y213145D01*
X-236016Y213006D01*
X-235986Y212874D01*
X-235947Y212749D01*
X-235900Y212631D01*
X-235843Y212521D01*
X-235779Y212418D01*
X-235705Y212323D01*
X-235623Y212234D01*
X-237757D01*
X-237675Y212323D01*
X-237601Y212418D01*
X-237537Y212521D01*
X-237480Y212631D01*
X-237433Y212749D01*
X-237394Y212874D01*
X-237364Y213006D01*
X-237342Y213145D01*
X-237329Y213292D01*
X-237325Y213446D01*
X-236055D01*
X-236051Y213292D01*
D02*
G37*
G36*
X-255425Y213216D02*
X-255401Y212921D01*
X-255379Y212790D01*
X-255352Y212670D01*
X-255318Y212561D01*
X-255279Y212463D01*
X-255233Y212376D01*
X-255181Y212299D01*
X-255123Y212234D01*
X-257257D01*
X-257199Y212299D01*
X-257147Y212376D01*
X-257101Y212463D01*
X-257062Y212561D01*
X-257028Y212670D01*
X-257001Y212790D01*
X-256979Y212921D01*
X-256964Y213063D01*
X-256952Y213380D01*
X-255428D01*
X-255425Y213216D01*
D02*
G37*
G36*
X-142784Y211582D02*
X-142985Y211775D01*
X-143188Y211948D01*
X-143394Y212100D01*
X-143603Y212232D01*
X-143815Y212344D01*
X-144030Y212435D01*
X-144247Y212507D01*
X-144468Y212557D01*
X-144691Y212588D01*
X-144917Y212598D01*
Y214122D01*
X-144691Y214132D01*
X-144468Y214163D01*
X-144247Y214213D01*
X-144030Y214285D01*
X-143815Y214376D01*
X-143603Y214488D01*
X-143394Y214620D01*
X-143188Y214772D01*
X-142985Y214945D01*
X-142784Y215138D01*
Y211582D01*
D02*
G37*
G36*
X-215115Y212323D02*
X-215221Y212211D01*
X-215315Y212098D01*
X-215399Y211985D01*
X-215471Y211870D01*
X-215531Y211754D01*
X-215581Y211637D01*
X-215619Y211520D01*
X-215646Y211401D01*
X-215662Y211282D01*
X-215666Y211161D01*
X-217175Y212670D01*
X-217054Y212674D01*
X-216935Y212690D01*
X-216816Y212717D01*
X-216699Y212755D01*
X-216582Y212805D01*
X-216466Y212865D01*
X-216351Y212937D01*
X-216238Y213021D01*
X-216125Y213115D01*
X-216013Y213221D01*
X-215115Y212323D01*
D02*
G37*
G36*
X-234668Y205949D02*
X-234764Y205845D01*
X-234850Y205736D01*
X-234925Y205621D01*
X-234991Y205501D01*
X-235046Y205374D01*
X-235090Y205243D01*
X-235124Y205106D01*
X-235149Y204963D01*
X-235162Y204815D01*
X-235166Y204661D01*
X-236675Y206170D01*
X-236521Y206173D01*
X-236373Y206187D01*
X-236230Y206211D01*
X-236093Y206246D01*
X-235961Y206290D01*
X-235835Y206345D01*
X-235715Y206411D01*
X-235600Y206486D01*
X-235490Y206572D01*
X-235387Y206668D01*
X-234668Y205949D01*
D02*
G37*
G36*
X-241168D02*
X-241264Y205845D01*
X-241350Y205736D01*
X-241425Y205621D01*
X-241491Y205501D01*
X-241546Y205374D01*
X-241590Y205243D01*
X-241625Y205106D01*
X-241649Y204963D01*
X-241663Y204815D01*
X-241666Y204661D01*
X-243175Y206170D01*
X-243021Y206173D01*
X-242873Y206187D01*
X-242730Y206211D01*
X-242593Y206246D01*
X-242461Y206290D01*
X-242335Y206345D01*
X-242215Y206411D01*
X-242100Y206486D01*
X-241991Y206572D01*
X-241887Y206668D01*
X-241168Y205949D01*
D02*
G37*
G36*
X-283389Y206572D02*
X-283280Y206486D01*
X-283165Y206411D01*
X-283044Y206345D01*
X-282918Y206290D01*
X-282787Y206246D01*
X-282650Y206211D01*
X-282507Y206187D01*
X-282359Y206173D01*
X-282205Y206170D01*
X-283714Y204661D01*
X-283717Y204815D01*
X-283731Y204963D01*
X-283755Y205106D01*
X-283790Y205243D01*
X-283834Y205374D01*
X-283889Y205501D01*
X-283955Y205621D01*
X-284030Y205736D01*
X-284116Y205845D01*
X-284212Y205949D01*
X-283493Y206668D01*
X-283389Y206572D01*
D02*
G37*
G36*
X-296389D02*
X-296280Y206486D01*
X-296165Y206411D01*
X-296045Y206345D01*
X-295919Y206290D01*
X-295787Y206246D01*
X-295650Y206211D01*
X-295507Y206187D01*
X-295359Y206173D01*
X-295205Y206170D01*
X-296714Y204661D01*
X-296717Y204815D01*
X-296731Y204963D01*
X-296755Y205106D01*
X-296790Y205243D01*
X-296834Y205374D01*
X-296889Y205501D01*
X-296954Y205621D01*
X-297030Y205736D01*
X-297116Y205845D01*
X-297212Y205949D01*
X-296493Y206668D01*
X-296389Y206572D01*
D02*
G37*
G36*
X-138212Y203962D02*
X-138435Y204179D01*
X-138878Y204545D01*
X-139097Y204694D01*
X-139314Y204819D01*
X-139531Y204922D01*
X-139746Y205002D01*
X-139959Y205059D01*
X-140171Y205094D01*
X-140381Y205105D01*
Y206375D01*
X-140171Y206386D01*
X-139959Y206421D01*
X-139746Y206478D01*
X-139531Y206558D01*
X-139314Y206661D01*
X-139097Y206786D01*
X-138878Y206935D01*
X-138657Y207106D01*
X-138435Y207301D01*
X-138212Y207518D01*
Y203962D01*
D02*
G37*
G36*
X-216036Y205655D02*
X-215960Y205603D01*
X-215873Y205557D01*
X-215775Y205518D01*
X-215666Y205484D01*
X-215546Y205457D01*
X-215415Y205435D01*
X-215273Y205420D01*
X-214956Y205408D01*
Y203884D01*
X-215120Y203881D01*
X-215415Y203857D01*
X-215546Y203835D01*
X-215666Y203808D01*
X-215775Y203774D01*
X-215873Y203735D01*
X-215960Y203689D01*
X-216036Y203637D01*
X-216102Y203579D01*
Y205713D01*
X-216036Y205655D01*
D02*
G37*
G36*
X-302778Y203579D02*
X-302844Y203637D01*
X-302920Y203689D01*
X-303007Y203735D01*
X-303105Y203774D01*
X-303214Y203808D01*
X-303334Y203835D01*
X-303465Y203857D01*
X-303607Y203872D01*
X-303924Y203884D01*
Y205408D01*
X-303760Y205411D01*
X-303465Y205435D01*
X-303334Y205457D01*
X-303214Y205484D01*
X-303105Y205518D01*
X-303007Y205557D01*
X-302920Y205603D01*
X-302844Y205655D01*
X-302778Y205713D01*
Y203579D01*
D02*
G37*
G36*
X-377734Y202692D02*
X-377934Y202885D01*
X-378138Y203058D01*
X-378344Y203210D01*
X-378553Y203342D01*
X-378765Y203454D01*
X-378980Y203545D01*
X-379197Y203617D01*
X-379418Y203667D01*
X-379641Y203698D01*
X-379867Y203708D01*
Y205232D01*
X-379641Y205242D01*
X-379418Y205273D01*
X-379197Y205323D01*
X-378980Y205395D01*
X-378765Y205486D01*
X-378553Y205598D01*
X-378344Y205730D01*
X-378138Y205882D01*
X-377934Y206055D01*
X-377734Y206248D01*
Y202692D01*
D02*
G37*
G36*
X-133272Y199595D02*
X-133522Y199797D01*
X-134008Y200138D01*
X-134243Y200277D01*
X-134473Y200394D01*
X-134697Y200490D01*
X-134917Y200564D01*
X-135131Y200617D01*
X-135340Y200649D01*
X-135544Y200660D01*
X-135670Y201930D01*
X-135454Y201942D01*
X-135241Y201978D01*
X-135029Y202038D01*
X-134820Y202123D01*
X-134613Y202231D01*
X-134409Y202364D01*
X-134206Y202520D01*
X-134006Y202701D01*
X-133808Y202906D01*
X-133613Y203134D01*
X-133272Y199595D01*
D02*
G37*
G36*
X-247668Y199449D02*
X-247764Y199345D01*
X-247850Y199236D01*
X-247925Y199121D01*
X-247991Y199000D01*
X-248046Y198874D01*
X-248090Y198743D01*
X-248125Y198606D01*
X-248149Y198463D01*
X-248162Y198315D01*
X-248166Y198161D01*
X-249675Y199670D01*
X-249521Y199673D01*
X-249373Y199687D01*
X-249230Y199711D01*
X-249093Y199746D01*
X-248962Y199790D01*
X-248835Y199845D01*
X-248715Y199911D01*
X-248600Y199986D01*
X-248491Y200072D01*
X-248387Y200168D01*
X-247668Y199449D01*
D02*
G37*
G36*
X-228168Y199449D02*
X-228264Y199345D01*
X-228350Y199236D01*
X-228425Y199121D01*
X-228491Y199000D01*
X-228545Y198874D01*
X-228590Y198743D01*
X-228624Y198606D01*
X-228649Y198463D01*
X-228662Y198315D01*
X-228666Y198161D01*
X-230175Y199670D01*
X-230021Y199673D01*
X-229873Y199687D01*
X-229730Y199711D01*
X-229593Y199746D01*
X-229461Y199790D01*
X-229335Y199845D01*
X-229215Y199911D01*
X-229100Y199986D01*
X-228990Y200072D01*
X-228887Y200168D01*
X-228168Y199449D01*
D02*
G37*
G36*
X-384084Y197612D02*
X-384285Y197805D01*
X-384488Y197978D01*
X-384694Y198130D01*
X-384903Y198262D01*
X-385115Y198374D01*
X-385330Y198465D01*
X-385547Y198537D01*
X-385768Y198587D01*
X-385991Y198618D01*
X-386217Y198628D01*
Y200152D01*
X-385991Y200162D01*
X-385768Y200193D01*
X-385547Y200243D01*
X-385330Y200315D01*
X-385115Y200406D01*
X-384903Y200518D01*
X-384694Y200650D01*
X-384488Y200802D01*
X-384285Y200975D01*
X-384084Y201168D01*
Y197612D01*
D02*
G37*
G36*
X-216013Y199131D02*
X-215918Y199057D01*
X-215815Y198993D01*
X-215705Y198936D01*
X-215587Y198889D01*
X-215462Y198850D01*
X-215330Y198820D01*
X-215191Y198798D01*
X-215044Y198785D01*
X-214890Y198781D01*
Y197511D01*
X-215044Y197507D01*
X-215191Y197494D01*
X-215330Y197472D01*
X-215462Y197442D01*
X-215587Y197403D01*
X-215705Y197355D01*
X-215815Y197299D01*
X-215918Y197235D01*
X-216013Y197161D01*
X-216102Y197079D01*
Y199213D01*
X-216013Y199131D01*
D02*
G37*
G36*
X-222162Y197977D02*
X-222149Y197829D01*
X-222125Y197686D01*
X-222090Y197549D01*
X-222045Y197417D01*
X-221991Y197291D01*
X-221925Y197171D01*
X-221850Y197056D01*
X-221764Y196947D01*
X-221668Y196843D01*
X-222387Y196124D01*
X-222491Y196220D01*
X-222600Y196306D01*
X-222715Y196381D01*
X-222835Y196446D01*
X-222962Y196502D01*
X-223093Y196546D01*
X-223230Y196581D01*
X-223373Y196605D01*
X-223521Y196618D01*
X-223675Y196622D01*
X-222166Y198131D01*
X-222162Y197977D01*
D02*
G37*
G36*
X-328158Y198031D02*
X-328127Y197808D01*
X-328077Y197587D01*
X-328005Y197370D01*
X-327914Y197155D01*
X-327802Y196943D01*
X-327670Y196734D01*
X-327518Y196528D01*
X-327345Y196325D01*
X-327152Y196124D01*
X-330708D01*
X-330515Y196325D01*
X-330342Y196528D01*
X-330190Y196734D01*
X-330058Y196943D01*
X-329946Y197155D01*
X-329855Y197370D01*
X-329783Y197587D01*
X-329733Y197808D01*
X-329702Y198031D01*
X-329692Y198257D01*
X-328168D01*
X-328158Y198031D01*
D02*
G37*
G36*
X-147864Y195072D02*
X-148064Y195265D01*
X-148268Y195438D01*
X-148474Y195590D01*
X-148683Y195722D01*
X-148895Y195834D01*
X-149110Y195925D01*
X-149327Y195997D01*
X-149548Y196047D01*
X-149771Y196078D01*
X-149997Y196088D01*
Y197612D01*
X-149771Y197622D01*
X-149548Y197653D01*
X-149327Y197703D01*
X-149110Y197775D01*
X-148895Y197866D01*
X-148683Y197978D01*
X-148474Y198110D01*
X-148268Y198262D01*
X-148064Y198435D01*
X-147864Y198628D01*
Y195072D01*
D02*
G37*
G36*
X-179596Y198435D02*
X-179392Y198262D01*
X-179186Y198110D01*
X-178977Y197978D01*
X-178765Y197866D01*
X-178550Y197775D01*
X-178333Y197703D01*
X-178112Y197653D01*
X-177889Y197622D01*
X-177663Y197612D01*
Y196088D01*
X-177889Y196078D01*
X-178112Y196047D01*
X-178333Y195997D01*
X-178550Y195925D01*
X-178765Y195834D01*
X-178977Y195722D01*
X-179186Y195590D01*
X-179392Y195438D01*
X-179596Y195265D01*
X-179796Y195072D01*
Y198628D01*
X-179596Y198435D01*
D02*
G37*
G36*
X-389164Y192532D02*
X-389365Y192725D01*
X-389568Y192898D01*
X-389774Y193050D01*
X-389983Y193182D01*
X-390195Y193294D01*
X-390410Y193385D01*
X-390627Y193457D01*
X-390848Y193507D01*
X-391071Y193538D01*
X-391297Y193548D01*
Y195072D01*
X-391071Y195082D01*
X-390848Y195113D01*
X-390627Y195163D01*
X-390410Y195235D01*
X-390195Y195326D01*
X-389983Y195438D01*
X-389774Y195570D01*
X-389568Y195722D01*
X-389365Y195895D01*
X-389164Y196088D01*
Y192532D01*
D02*
G37*
G36*
X-216036Y192655D02*
X-215960Y192603D01*
X-215873Y192557D01*
X-215775Y192518D01*
X-215666Y192484D01*
X-215546Y192457D01*
X-215415Y192435D01*
X-215273Y192420D01*
X-214956Y192408D01*
Y190884D01*
X-215120Y190881D01*
X-215415Y190856D01*
X-215546Y190835D01*
X-215666Y190808D01*
X-215775Y190774D01*
X-215873Y190735D01*
X-215960Y190689D01*
X-216036Y190637D01*
X-216102Y190579D01*
Y192713D01*
X-216036Y192655D01*
D02*
G37*
G36*
X-171063Y193863D02*
X-170859Y193690D01*
X-170653Y193538D01*
X-170444Y193406D01*
X-170232Y193294D01*
X-170017Y193203D01*
X-169800Y193131D01*
X-169579Y193081D01*
X-169356Y193050D01*
X-169130Y193040D01*
Y191516D01*
X-169356Y191506D01*
X-169579Y191475D01*
X-169800Y191425D01*
X-170017Y191353D01*
X-170232Y191262D01*
X-170444Y191150D01*
X-170653Y191018D01*
X-170859Y190866D01*
X-171063Y190693D01*
X-171263Y190500D01*
Y194056D01*
X-171063Y193863D01*
D02*
G37*
G36*
X-150832Y190385D02*
X-150892Y190600D01*
X-150972Y190793D01*
X-151073Y190962D01*
X-151194Y191109D01*
X-151335Y191233D01*
X-151497Y191335D01*
X-151679Y191414D01*
X-151882Y191471D01*
X-152104Y191505D01*
X-152347Y191516D01*
X-152029Y193040D01*
X-151662Y193043D01*
X-150069Y193156D01*
X-149800Y193198D01*
X-149310Y193301D01*
X-149090Y193362D01*
X-150832Y190385D01*
D02*
G37*
G36*
X-193495Y189905D02*
X-193707Y190091D01*
X-193920Y190258D01*
X-194135Y190404D01*
X-194351Y190532D01*
X-194569Y190639D01*
X-194787Y190727D01*
X-195007Y190796D01*
X-195228Y190845D01*
X-195451Y190874D01*
X-195674Y190884D01*
X-195753Y192408D01*
X-195525Y192418D01*
X-195301Y192450D01*
X-195081Y192502D01*
X-194867Y192576D01*
X-194656Y192670D01*
X-194450Y192786D01*
X-194248Y192922D01*
X-194050Y193079D01*
X-193857Y193258D01*
X-193669Y193457D01*
X-193495Y189905D01*
D02*
G37*
G36*
X-222162Y191477D02*
X-222149Y191329D01*
X-222125Y191186D01*
X-222090Y191049D01*
X-222045Y190917D01*
X-221991Y190791D01*
X-221925Y190671D01*
X-221850Y190556D01*
X-221764Y190446D01*
X-221668Y190343D01*
X-222387Y189624D01*
X-222491Y189720D01*
X-222600Y189806D01*
X-222715Y189881D01*
X-222835Y189946D01*
X-222962Y190001D01*
X-223093Y190046D01*
X-223230Y190081D01*
X-223373Y190105D01*
X-223521Y190118D01*
X-223675Y190122D01*
X-222166Y191631D01*
X-222162Y191477D01*
D02*
G37*
G36*
X-376349Y187326D02*
X-376484Y187543D01*
X-376631Y187737D01*
X-376789Y187908D01*
X-376958Y188057D01*
X-377138Y188183D01*
X-377329Y188285D01*
X-377531Y188365D01*
X-377744Y188422D01*
X-377968Y188457D01*
X-378203Y188468D01*
X-377780Y189992D01*
X-377569Y190000D01*
X-377353Y190023D01*
X-377132Y190061D01*
X-376906Y190116D01*
X-376675Y190185D01*
X-376439Y190270D01*
X-375952Y190487D01*
X-375700Y190618D01*
X-375444Y190765D01*
X-376349Y187326D01*
D02*
G37*
G36*
X-169454Y184912D02*
X-169677Y185129D01*
X-170120Y185495D01*
X-170339Y185644D01*
X-170557Y185769D01*
X-170773Y185872D01*
X-170987Y185952D01*
X-171201Y186009D01*
X-171413Y186044D01*
X-171623Y186055D01*
Y187325D01*
X-171413Y187336D01*
X-171201Y187371D01*
X-170987Y187428D01*
X-170773Y187508D01*
X-170557Y187611D01*
X-170339Y187736D01*
X-170120Y187885D01*
X-169899Y188057D01*
X-169677Y188251D01*
X-169454Y188468D01*
Y184912D01*
D02*
G37*
G36*
X-216036Y186155D02*
X-215960Y186103D01*
X-215873Y186057D01*
X-215775Y186018D01*
X-215666Y185984D01*
X-215546Y185957D01*
X-215415Y185935D01*
X-215273Y185920D01*
X-214956Y185908D01*
Y184384D01*
X-215120Y184381D01*
X-215415Y184356D01*
X-215546Y184335D01*
X-215666Y184308D01*
X-215775Y184274D01*
X-215873Y184235D01*
X-215960Y184189D01*
X-216036Y184137D01*
X-216102Y184079D01*
Y186213D01*
X-216036Y186155D01*
D02*
G37*
G36*
X-342869Y181202D02*
X-342975Y181093D01*
X-343145Y180898D01*
X-343209Y180812D01*
X-343260Y180734D01*
X-343297Y180662D01*
X-343320Y180598D01*
X-343330Y180542D01*
X-343326Y180493D01*
X-343309Y180452D01*
X-344892Y181550D01*
X-344851Y181550D01*
X-344798Y181567D01*
X-344733Y181599D01*
X-344656Y181648D01*
X-344567Y181713D01*
X-344355Y181891D01*
X-344095Y182134D01*
X-343947Y182280D01*
X-342869Y181202D01*
D02*
G37*
G36*
X-375956Y178562D02*
X-376157Y178755D01*
X-376360Y178928D01*
X-376566Y179080D01*
X-376775Y179212D01*
X-376987Y179324D01*
X-377202Y179415D01*
X-377419Y179487D01*
X-377640Y179537D01*
X-377863Y179568D01*
X-378089Y179578D01*
Y181102D01*
X-377863Y181112D01*
X-377640Y181143D01*
X-377419Y181193D01*
X-377202Y181265D01*
X-376987Y181356D01*
X-376775Y181468D01*
X-376566Y181600D01*
X-376360Y181752D01*
X-376157Y181925D01*
X-375956Y182118D01*
Y178562D01*
D02*
G37*
G36*
X-339588Y178981D02*
X-339557Y178758D01*
X-339507Y178537D01*
X-339435Y178320D01*
X-339344Y178105D01*
X-339232Y177893D01*
X-339100Y177684D01*
X-338948Y177478D01*
X-338775Y177274D01*
X-338582Y177074D01*
X-342138D01*
X-341945Y177274D01*
X-341772Y177478D01*
X-341620Y177684D01*
X-341488Y177893D01*
X-341376Y178105D01*
X-341285Y178320D01*
X-341213Y178537D01*
X-341163Y178758D01*
X-341132Y178981D01*
X-341122Y179207D01*
X-339598D01*
X-339588Y178981D01*
D02*
G37*
G36*
X-150009Y175889D02*
X-150227Y176070D01*
X-150446Y176232D01*
X-150666Y176376D01*
X-150885Y176500D01*
X-151106Y176605D01*
X-151326Y176691D01*
X-151547Y176758D01*
X-151769Y176806D01*
X-151991Y176834D01*
X-152213Y176844D01*
X-152336Y178368D01*
X-152107Y178378D01*
X-151883Y178410D01*
X-151664Y178464D01*
X-151451Y178538D01*
X-151242Y178634D01*
X-151039Y178752D01*
X-150842Y178890D01*
X-150649Y179050D01*
X-150462Y179231D01*
X-150281Y179434D01*
X-150009Y175889D01*
D02*
G37*
G36*
X-171710Y179142D02*
X-171491Y178979D01*
X-171272Y178836D01*
X-171052Y178712D01*
X-170832Y178607D01*
X-170611Y178521D01*
X-170390Y178454D01*
X-170169Y178406D01*
X-169947Y178377D01*
X-169724Y178368D01*
X-169602Y176844D01*
X-169831Y176833D01*
X-170055Y176801D01*
X-170274Y176748D01*
X-170487Y176673D01*
X-170695Y176577D01*
X-170898Y176460D01*
X-171096Y176321D01*
X-171288Y176161D01*
X-171475Y175980D01*
X-171657Y175777D01*
X-171929Y179323D01*
X-171710Y179142D01*
D02*
G37*
G36*
X-455186Y178115D02*
X-454982Y177942D01*
X-454776Y177790D01*
X-454567Y177658D01*
X-454355Y177546D01*
X-454140Y177455D01*
X-453923Y177383D01*
X-453702Y177333D01*
X-453479Y177302D01*
X-453253Y177292D01*
Y175768D01*
X-453479Y175758D01*
X-453702Y175727D01*
X-453923Y175677D01*
X-454140Y175605D01*
X-454355Y175514D01*
X-454567Y175402D01*
X-454776Y175270D01*
X-454982Y175118D01*
X-455186Y174945D01*
X-455386Y174752D01*
Y178308D01*
X-455186Y178115D01*
D02*
G37*
G36*
X-332875Y176274D02*
X-332865Y176052D01*
X-332837Y175831D01*
X-332789Y175609D01*
X-332723Y175388D01*
X-332638Y175166D01*
X-332534Y174945D01*
X-332411Y174723D01*
X-332270Y174502D01*
X-332109Y174281D01*
X-331929Y174060D01*
X-335471Y174372D01*
X-335268Y174551D01*
X-335085Y174736D01*
X-334924Y174926D01*
X-334785Y175122D01*
X-334667Y175324D01*
X-334570Y175531D01*
X-334495Y175743D01*
X-334441Y175962D01*
X-334409Y176186D01*
X-334399Y176415D01*
X-332875Y176274D01*
D02*
G37*
G36*
X-338775Y173246D02*
X-338948Y173042D01*
X-339100Y172836D01*
X-339232Y172627D01*
X-339344Y172415D01*
X-339435Y172200D01*
X-339507Y171983D01*
X-339557Y171762D01*
X-339588Y171539D01*
X-339598Y171313D01*
X-341122D01*
X-341132Y171539D01*
X-341163Y171762D01*
X-341213Y171983D01*
X-341285Y172200D01*
X-341376Y172415D01*
X-341488Y172627D01*
X-341620Y172836D01*
X-341772Y173042D01*
X-341945Y173246D01*
X-342138Y173446D01*
X-338582D01*
X-338775Y173246D01*
D02*
G37*
G36*
X-185408Y168445D02*
X-185444Y168461D01*
X-185519Y168475D01*
X-185633Y168488D01*
X-186207Y168516D01*
X-187515Y168529D01*
Y169799D01*
X-185408Y169883D01*
Y168445D01*
D02*
G37*
G36*
X-326329Y168165D02*
X-326502Y167962D01*
X-326654Y167756D01*
X-326786Y167547D01*
X-326898Y167335D01*
X-326989Y167120D01*
X-327061Y166903D01*
X-327111Y166682D01*
X-327142Y166459D01*
X-327152Y166233D01*
X-328676D01*
X-328686Y166459D01*
X-328717Y166682D01*
X-328767Y166903D01*
X-328839Y167120D01*
X-328930Y167335D01*
X-329042Y167547D01*
X-329174Y167756D01*
X-329326Y167962D01*
X-329499Y168165D01*
X-329692Y168366D01*
X-326136D01*
X-326329Y168165D01*
D02*
G37*
G36*
X-228115Y166823D02*
X-228221Y166711D01*
X-228315Y166598D01*
X-228398Y166485D01*
X-228470Y166370D01*
X-228531Y166254D01*
X-228581Y166137D01*
X-228619Y166020D01*
X-228646Y165901D01*
X-228662Y165782D01*
X-228666Y165661D01*
X-230175Y167170D01*
X-230054Y167174D01*
X-229935Y167190D01*
X-229816Y167217D01*
X-229699Y167255D01*
X-229582Y167305D01*
X-229466Y167365D01*
X-229351Y167437D01*
X-229238Y167521D01*
X-229125Y167615D01*
X-229013Y167721D01*
X-228115Y166823D01*
D02*
G37*
G36*
X-455186Y168971D02*
X-454982Y168798D01*
X-454776Y168646D01*
X-454567Y168514D01*
X-454355Y168402D01*
X-454140Y168311D01*
X-453923Y168239D01*
X-453702Y168189D01*
X-453479Y168158D01*
X-453253Y168148D01*
Y166624D01*
X-453479Y166614D01*
X-453702Y166583D01*
X-453923Y166533D01*
X-454140Y166461D01*
X-454355Y166370D01*
X-454567Y166258D01*
X-454776Y166126D01*
X-454982Y165974D01*
X-455186Y165801D01*
X-455386Y165608D01*
Y169164D01*
X-455186Y168971D01*
D02*
G37*
G36*
X-315153Y167276D02*
X-315326Y167073D01*
X-315478Y166867D01*
X-315610Y166658D01*
X-315722Y166446D01*
X-315813Y166231D01*
X-315885Y166014D01*
X-315935Y165793D01*
X-315966Y165570D01*
X-315976Y165344D01*
X-317500D01*
X-317510Y165570D01*
X-317541Y165793D01*
X-317591Y166014D01*
X-317663Y166231D01*
X-317754Y166446D01*
X-317866Y166658D01*
X-317998Y166867D01*
X-318150Y167073D01*
X-318323Y167276D01*
X-318516Y167477D01*
X-314960D01*
X-315153Y167276D01*
D02*
G37*
G36*
X-154715Y165226D02*
X-155019Y165323D01*
X-156328Y165654D01*
X-156549Y165689D01*
X-156949Y165730D01*
X-157128Y165735D01*
X-157907Y167005D01*
X-157677Y167018D01*
X-157463Y167056D01*
X-157267Y167119D01*
X-157089Y167208D01*
X-156928Y167322D01*
X-156784Y167461D01*
X-156658Y167626D01*
X-156549Y167816D01*
X-156458Y168032D01*
X-156384Y168273D01*
X-154715Y165226D01*
D02*
G37*
G36*
X-222162Y165477D02*
X-222149Y165329D01*
X-222125Y165186D01*
X-222090Y165049D01*
X-222045Y164918D01*
X-221991Y164791D01*
X-221925Y164671D01*
X-221850Y164556D01*
X-221764Y164447D01*
X-221668Y164343D01*
X-222387Y163624D01*
X-222491Y163720D01*
X-222600Y163806D01*
X-222715Y163881D01*
X-222835Y163947D01*
X-222962Y164002D01*
X-223093Y164046D01*
X-223230Y164081D01*
X-223373Y164105D01*
X-223521Y164118D01*
X-223675Y164122D01*
X-222166Y165631D01*
X-222162Y165477D01*
D02*
G37*
G36*
X-368844Y158242D02*
X-369044Y158435D01*
X-369248Y158608D01*
X-369454Y158760D01*
X-369663Y158892D01*
X-369875Y159004D01*
X-370090Y159095D01*
X-370307Y159167D01*
X-370528Y159217D01*
X-370751Y159248D01*
X-370977Y159258D01*
Y160782D01*
X-370751Y160792D01*
X-370528Y160823D01*
X-370307Y160873D01*
X-370090Y160945D01*
X-369875Y161036D01*
X-369663Y161148D01*
X-369454Y161280D01*
X-369248Y161432D01*
X-369044Y161605D01*
X-368844Y161798D01*
Y158242D01*
D02*
G37*
G36*
X-349748Y159931D02*
X-349717Y159708D01*
X-349667Y159487D01*
X-349595Y159270D01*
X-349504Y159055D01*
X-349392Y158843D01*
X-349260Y158634D01*
X-349108Y158428D01*
X-348935Y158224D01*
X-348742Y158024D01*
X-352298D01*
X-352105Y158224D01*
X-351932Y158428D01*
X-351780Y158634D01*
X-351648Y158843D01*
X-351536Y159055D01*
X-351445Y159270D01*
X-351373Y159487D01*
X-351323Y159708D01*
X-351292Y159931D01*
X-351282Y160157D01*
X-349758D01*
X-349748Y159931D01*
D02*
G37*
G36*
X-450106Y159065D02*
X-449902Y158892D01*
X-449696Y158740D01*
X-449487Y158608D01*
X-449275Y158496D01*
X-449060Y158405D01*
X-448843Y158333D01*
X-448622Y158283D01*
X-448399Y158252D01*
X-448173Y158242D01*
Y156718D01*
X-448399Y156708D01*
X-448622Y156677D01*
X-448843Y156627D01*
X-449060Y156555D01*
X-449275Y156464D01*
X-449487Y156352D01*
X-449696Y156220D01*
X-449902Y156068D01*
X-450106Y155895D01*
X-450306Y155702D01*
Y159258D01*
X-450106Y159065D01*
D02*
G37*
G36*
X-337815Y154636D02*
X-337793Y154370D01*
X-337755Y154117D01*
X-337701Y153876D01*
X-337630Y153647D01*
X-337543Y153430D01*
X-337439Y153226D01*
X-337319Y153034D01*
X-337183Y152855D01*
X-337030Y152688D01*
X-338108Y151610D01*
X-338275Y151763D01*
X-338454Y151899D01*
X-338646Y152019D01*
X-338850Y152123D01*
X-339067Y152210D01*
X-339296Y152281D01*
X-339537Y152335D01*
X-339790Y152373D01*
X-340056Y152395D01*
X-340335Y152400D01*
X-337820Y154915D01*
X-337815Y154636D01*
D02*
G37*
G36*
X-344678Y147818D02*
X-344670Y147602D01*
X-344644Y147384D01*
X-344602Y147162D01*
X-344543Y146937D01*
X-344467Y146709D01*
X-344374Y146478D01*
X-344265Y146243D01*
X-343995Y145765D01*
X-343835Y145521D01*
X-347324Y146205D01*
X-347111Y146357D01*
X-346920Y146518D01*
X-346752Y146688D01*
X-346606Y146868D01*
X-346483Y147056D01*
X-346382Y147253D01*
X-346303Y147459D01*
X-346247Y147675D01*
X-346213Y147899D01*
X-346202Y148132D01*
X-344678Y147818D01*
D02*
G37*
G36*
X-201185Y146409D02*
X-200982Y146236D01*
X-200776Y146084D01*
X-200567Y145952D01*
X-200355Y145840D01*
X-200140Y145749D01*
X-199923Y145677D01*
X-199702Y145627D01*
X-199479Y145596D01*
X-199253Y145586D01*
Y144062D01*
X-199479Y144052D01*
X-199702Y144021D01*
X-199923Y143970D01*
X-200140Y143899D01*
X-200355Y143808D01*
X-200567Y143696D01*
X-200776Y143564D01*
X-200982Y143412D01*
X-201185Y143239D01*
X-201386Y143046D01*
Y146602D01*
X-201185Y146409D01*
D02*
G37*
G36*
X-122494Y143034D02*
X-122691Y143229D01*
X-122891Y143404D01*
X-123094Y143558D01*
X-123300Y143692D01*
X-123510Y143805D01*
X-123723Y143897D01*
X-123940Y143969D01*
X-124160Y144021D01*
X-124384Y144052D01*
X-124610Y144062D01*
X-124583Y145586D01*
X-124358Y145596D01*
X-124135Y145626D01*
X-123914Y145676D01*
X-123695Y145746D01*
X-123479Y145837D01*
X-123265Y145947D01*
X-123054Y146077D01*
X-122845Y146228D01*
X-122638Y146398D01*
X-122433Y146589D01*
X-122494Y143034D01*
D02*
G37*
G36*
X-450106Y145637D02*
X-449902Y145465D01*
X-449696Y145312D01*
X-449487Y145180D01*
X-449275Y145068D01*
X-449060Y144977D01*
X-448843Y144906D01*
X-448622Y144855D01*
X-448399Y144824D01*
X-448173Y144814D01*
Y143290D01*
X-448399Y143280D01*
X-448622Y143250D01*
X-448843Y143199D01*
X-449060Y143128D01*
X-449275Y143036D01*
X-449487Y142925D01*
X-449696Y142793D01*
X-449902Y142640D01*
X-450106Y142467D01*
X-450306Y142274D01*
Y145830D01*
X-450106Y145637D01*
D02*
G37*
G36*
X-234668Y140949D02*
X-234764Y140845D01*
X-234850Y140736D01*
X-234925Y140621D01*
X-234991Y140500D01*
X-235046Y140374D01*
X-235090Y140243D01*
X-235124Y140106D01*
X-235149Y139963D01*
X-235162Y139815D01*
X-235166Y139661D01*
X-236675Y141170D01*
X-236521Y141173D01*
X-236373Y141187D01*
X-236230Y141211D01*
X-236093Y141246D01*
X-235961Y141290D01*
X-235835Y141345D01*
X-235715Y141411D01*
X-235600Y141486D01*
X-235490Y141572D01*
X-235387Y141668D01*
X-234668Y140949D01*
D02*
G37*
G36*
X-228662Y139477D02*
X-228649Y139329D01*
X-228624Y139186D01*
X-228590Y139049D01*
X-228545Y138918D01*
X-228491Y138791D01*
X-228425Y138671D01*
X-228350Y138556D01*
X-228264Y138447D01*
X-228168Y138343D01*
X-228887Y137624D01*
X-228990Y137720D01*
X-229100Y137806D01*
X-229215Y137881D01*
X-229335Y137947D01*
X-229461Y138001D01*
X-229593Y138046D01*
X-229730Y138081D01*
X-229873Y138105D01*
X-230021Y138118D01*
X-230175Y138122D01*
X-228666Y139631D01*
X-228662Y139477D01*
D02*
G37*
G36*
X-235162D02*
X-235149Y139329D01*
X-235124Y139186D01*
X-235090Y139049D01*
X-235046Y138918D01*
X-234991Y138791D01*
X-234925Y138671D01*
X-234850Y138556D01*
X-234764Y138447D01*
X-234668Y138343D01*
X-235387Y137624D01*
X-235490Y137720D01*
X-235600Y137806D01*
X-235715Y137881D01*
X-235835Y137947D01*
X-235961Y138001D01*
X-236093Y138046D01*
X-236230Y138081D01*
X-236373Y138105D01*
X-236521Y138118D01*
X-236675Y138122D01*
X-235166Y139631D01*
X-235162Y139477D01*
D02*
G37*
G36*
X-288705Y138122D02*
X-288859Y138118D01*
X-289007Y138105D01*
X-289150Y138081D01*
X-289287Y138046D01*
X-289418Y138001D01*
X-289545Y137947D01*
X-289665Y137881D01*
X-289780Y137806D01*
X-289889Y137720D01*
X-289993Y137624D01*
X-290712Y138343D01*
X-290616Y138447D01*
X-290530Y138556D01*
X-290455Y138671D01*
X-290389Y138791D01*
X-290334Y138917D01*
X-290290Y139049D01*
X-290255Y139186D01*
X-290231Y139329D01*
X-290217Y139477D01*
X-290214Y139631D01*
X-288705Y138122D01*
D02*
G37*
G36*
X-341737Y135892D02*
X-342013Y135896D01*
X-342277Y135881D01*
X-342529Y135850D01*
X-342769Y135801D01*
X-342997Y135734D01*
X-343213Y135650D01*
X-343417Y135549D01*
X-343609Y135430D01*
X-343789Y135294D01*
X-343957Y135141D01*
X-344998Y136255D01*
X-344847Y136421D01*
X-344710Y136599D01*
X-344589Y136791D01*
X-344483Y136995D01*
X-344393Y137211D01*
X-344317Y137441D01*
X-344257Y137683D01*
X-344213Y137938D01*
X-344183Y138206D01*
X-344169Y138486D01*
X-341737Y135892D01*
D02*
G37*
G36*
X-221668Y134449D02*
X-221764Y134345D01*
X-221850Y134236D01*
X-221925Y134121D01*
X-221991Y134001D01*
X-222045Y133874D01*
X-222090Y133743D01*
X-222125Y133606D01*
X-222149Y133463D01*
X-222162Y133315D01*
X-222166Y133161D01*
X-223675Y134670D01*
X-223521Y134673D01*
X-223373Y134687D01*
X-223230Y134711D01*
X-223093Y134746D01*
X-222962Y134790D01*
X-222835Y134845D01*
X-222715Y134910D01*
X-222600Y134986D01*
X-222491Y135072D01*
X-222387Y135168D01*
X-221668Y134449D01*
D02*
G37*
G36*
X-302778Y132079D02*
X-302867Y132161D01*
X-302962Y132235D01*
X-303065Y132299D01*
X-303175Y132355D01*
X-303293Y132403D01*
X-303418Y132442D01*
X-303550Y132472D01*
X-303689Y132494D01*
X-303836Y132507D01*
X-303990Y132511D01*
Y133781D01*
X-303836Y133785D01*
X-303689Y133798D01*
X-303550Y133820D01*
X-303418Y133850D01*
X-303293Y133889D01*
X-303175Y133936D01*
X-303065Y133993D01*
X-302962Y134057D01*
X-302867Y134131D01*
X-302778Y134213D01*
Y132079D01*
D02*
G37*
G36*
X-241663Y132977D02*
X-241649Y132829D01*
X-241625Y132686D01*
X-241590Y132549D01*
X-241546Y132417D01*
X-241491Y132291D01*
X-241425Y132171D01*
X-241350Y132056D01*
X-241264Y131946D01*
X-241168Y131843D01*
X-241887Y131124D01*
X-241991Y131220D01*
X-242100Y131306D01*
X-242215Y131381D01*
X-242335Y131447D01*
X-242461Y131502D01*
X-242593Y131546D01*
X-242730Y131580D01*
X-242873Y131605D01*
X-243021Y131618D01*
X-243175Y131622D01*
X-241666Y133131D01*
X-241663Y132977D01*
D02*
G37*
G36*
X-450220Y133064D02*
X-450016Y132891D01*
X-449810Y132739D01*
X-449601Y132606D01*
X-449389Y132495D01*
X-449174Y132403D01*
X-448957Y132332D01*
X-448736Y132281D01*
X-448513Y132251D01*
X-448287Y132241D01*
Y130717D01*
X-448513Y130707D01*
X-448736Y130676D01*
X-448957Y130625D01*
X-449174Y130554D01*
X-449389Y130463D01*
X-449601Y130351D01*
X-449810Y130219D01*
X-450016Y130066D01*
X-450220Y129894D01*
X-450420Y129701D01*
Y133257D01*
X-450220Y133064D01*
D02*
G37*
G36*
X-309203Y130589D02*
X-309345Y130431D01*
X-309470Y130255D01*
X-309580Y130064D01*
X-309672Y129855D01*
X-309748Y129631D01*
X-309808Y129389D01*
X-309851Y129131D01*
X-309878Y128857D01*
X-309889Y128566D01*
X-309883Y128258D01*
X-312484Y130682D01*
X-312169Y130697D01*
X-311593Y130769D01*
X-311331Y130826D01*
X-311087Y130896D01*
X-310861Y130980D01*
X-310652Y131078D01*
X-310462Y131190D01*
X-310289Y131315D01*
X-310133Y131454D01*
X-309203Y130589D01*
D02*
G37*
G36*
X-341315Y128795D02*
X-341488Y128592D01*
X-341640Y128386D01*
X-341772Y128177D01*
X-341884Y127965D01*
X-341975Y127750D01*
X-342047Y127533D01*
X-342097Y127312D01*
X-342128Y127089D01*
X-342138Y126863D01*
X-343662D01*
X-343672Y127089D01*
X-343703Y127312D01*
X-343753Y127533D01*
X-343825Y127750D01*
X-343916Y127965D01*
X-344028Y128177D01*
X-344160Y128386D01*
X-344312Y128592D01*
X-344485Y128795D01*
X-344678Y128996D01*
X-341122D01*
X-341315Y128795D01*
D02*
G37*
G36*
X-222681Y125492D02*
X-222733Y125416D01*
X-222779Y125329D01*
X-222818Y125231D01*
X-222852Y125122D01*
X-222879Y125002D01*
X-222901Y124871D01*
X-222916Y124729D01*
X-222928Y124412D01*
X-224452D01*
X-224455Y124576D01*
X-224479Y124871D01*
X-224501Y125002D01*
X-224528Y125122D01*
X-224562Y125231D01*
X-224601Y125329D01*
X-224647Y125416D01*
X-224699Y125492D01*
X-224757Y125558D01*
X-222623D01*
X-222681Y125492D01*
D02*
G37*
G36*
X-353604Y123018D02*
X-353745Y122861D01*
X-353871Y122687D01*
X-353981Y122495D01*
X-354076Y122287D01*
X-354157Y122061D01*
X-354222Y121818D01*
X-354272Y121558D01*
X-354306Y121281D01*
X-354326Y120987D01*
X-354330Y120675D01*
X-356845Y123190D01*
X-356533Y123194D01*
X-355962Y123249D01*
X-355702Y123298D01*
X-355459Y123363D01*
X-355233Y123443D01*
X-355025Y123539D01*
X-354833Y123649D01*
X-354659Y123775D01*
X-354502Y123916D01*
X-353604Y123018D01*
D02*
G37*
G36*
X-338318Y121831D02*
X-338287Y121608D01*
X-338237Y121387D01*
X-338165Y121170D01*
X-338074Y120955D01*
X-337962Y120743D01*
X-337830Y120534D01*
X-337678Y120328D01*
X-337505Y120125D01*
X-337312Y119924D01*
X-340868D01*
X-340675Y120125D01*
X-340502Y120328D01*
X-340350Y120534D01*
X-340218Y120743D01*
X-340106Y120955D01*
X-340015Y121170D01*
X-339943Y121387D01*
X-339893Y121608D01*
X-339862Y121831D01*
X-339852Y122057D01*
X-338328D01*
X-338318Y121831D01*
D02*
G37*
G36*
X-454205Y122557D02*
X-454026Y122421D01*
X-453834Y122301D01*
X-453630Y122197D01*
X-453413Y122110D01*
X-453185Y122039D01*
X-452943Y121985D01*
X-452690Y121947D01*
X-452424Y121925D01*
X-452145Y121920D01*
X-454660Y119405D01*
X-454665Y119684D01*
X-454687Y119950D01*
X-454725Y120203D01*
X-454779Y120444D01*
X-454850Y120673D01*
X-454937Y120890D01*
X-455041Y121094D01*
X-455161Y121286D01*
X-455297Y121465D01*
X-455450Y121632D01*
X-454372Y122710D01*
X-454205Y122557D01*
D02*
G37*
G36*
X-165813Y115252D02*
X-165989Y115457D01*
X-166171Y115641D01*
X-166359Y115803D01*
X-166552Y115943D01*
X-166752Y116062D01*
X-166959Y116159D01*
X-167171Y116235D01*
X-167388Y116289D01*
X-167613Y116321D01*
X-167843Y116332D01*
X-167682Y117856D01*
X-167461Y117865D01*
X-167239Y117893D01*
X-167018Y117940D01*
X-166796Y118006D01*
X-166573Y118090D01*
X-166351Y118192D01*
X-166128Y118314D01*
X-165905Y118454D01*
X-165681Y118613D01*
X-165457Y118791D01*
X-165813Y115252D01*
D02*
G37*
G36*
X-226638Y112644D02*
X-226631Y112511D01*
X-226610Y112351D01*
X-226576Y112163D01*
X-226466Y111705D01*
X-226197Y110812D01*
X-225949Y110079D01*
X-229056Y111679D01*
X-228790Y111767D01*
X-228551Y111870D01*
X-228341Y111988D01*
X-228159Y112119D01*
X-228004Y112265D01*
X-227878Y112425D01*
X-227780Y112599D01*
X-227710Y112788D01*
X-227668Y112991D01*
X-227654Y113208D01*
X-226638Y112644D01*
D02*
G37*
G36*
X-251148Y109510D02*
X-251354Y109335D01*
X-251538Y109154D01*
X-251700Y108967D01*
X-251841Y108773D01*
X-251960Y108574D01*
X-252057Y108368D01*
X-252133Y108156D01*
X-252187Y107938D01*
X-252219Y107714D01*
X-252230Y107484D01*
X-253754Y107650D01*
X-253763Y107871D01*
X-253791Y108092D01*
X-253838Y108314D01*
X-253903Y108536D01*
X-253987Y108758D01*
X-254089Y108981D01*
X-254210Y109205D01*
X-254350Y109428D01*
X-254509Y109653D01*
X-254686Y109877D01*
X-251148Y109510D01*
D02*
G37*
G36*
X-235494Y106508D02*
X-235635Y106351D01*
X-235761Y106177D01*
X-235871Y105985D01*
X-235966Y105777D01*
X-236047Y105551D01*
X-236112Y105308D01*
X-236161Y105048D01*
X-236196Y104771D01*
X-236216Y104477D01*
X-236220Y104165D01*
X-238735Y106680D01*
X-238423Y106684D01*
X-237852Y106739D01*
X-237592Y106788D01*
X-237349Y106853D01*
X-237123Y106933D01*
X-236915Y107029D01*
X-236723Y107139D01*
X-236549Y107265D01*
X-236392Y107406D01*
X-235494Y106508D01*
D02*
G37*
G36*
X-301739Y105419D02*
X-301701Y105219D01*
X-301638Y105014D01*
X-301549Y104803D01*
X-301434Y104586D01*
X-301295Y104363D01*
X-301130Y104135D01*
X-300939Y103900D01*
X-300482Y103414D01*
X-304038D01*
X-303797Y103660D01*
X-303390Y104135D01*
X-303225Y104363D01*
X-303085Y104586D01*
X-302971Y104803D01*
X-302882Y105014D01*
X-302819Y105219D01*
X-302781Y105419D01*
X-302768Y105613D01*
X-301752D01*
X-301739Y105419D01*
D02*
G37*
G36*
X-170216Y102362D02*
X-170439Y102579D01*
X-170882Y102945D01*
X-171101Y103094D01*
X-171318Y103219D01*
X-171535Y103322D01*
X-171749Y103402D01*
X-171963Y103459D01*
X-172175Y103494D01*
X-172385Y103505D01*
Y104775D01*
X-172175Y104786D01*
X-171963Y104821D01*
X-171749Y104878D01*
X-171535Y104958D01*
X-171318Y105061D01*
X-171101Y105187D01*
X-170882Y105335D01*
X-170661Y105506D01*
X-170439Y105701D01*
X-170216Y105918D01*
Y102362D01*
D02*
G37*
G36*
X-264704Y88392D02*
X-264904Y88585D01*
X-265108Y88758D01*
X-265314Y88910D01*
X-265523Y89042D01*
X-265735Y89154D01*
X-265950Y89245D01*
X-266167Y89317D01*
X-266388Y89367D01*
X-266611Y89398D01*
X-266837Y89408D01*
Y90932D01*
X-266611Y90942D01*
X-266388Y90973D01*
X-266167Y91023D01*
X-265950Y91095D01*
X-265735Y91186D01*
X-265523Y91298D01*
X-265314Y91430D01*
X-265108Y91582D01*
X-264904Y91755D01*
X-264704Y91948D01*
Y88392D01*
D02*
G37*
G36*
X-300245Y91755D02*
X-300042Y91582D01*
X-299836Y91430D01*
X-299627Y91298D01*
X-299415Y91186D01*
X-299200Y91095D01*
X-298983Y91023D01*
X-298762Y90973D01*
X-298539Y90942D01*
X-298313Y90932D01*
Y89408D01*
X-298539Y89398D01*
X-298762Y89367D01*
X-298983Y89317D01*
X-299200Y89245D01*
X-299415Y89154D01*
X-299627Y89042D01*
X-299836Y88910D01*
X-300042Y88758D01*
X-300245Y88585D01*
X-300446Y88392D01*
Y91948D01*
X-300245Y91755D01*
D02*
G37*
G36*
X-401102Y87122D02*
X-401325Y87339D01*
X-401768Y87705D01*
X-401987Y87853D01*
X-402205Y87979D01*
X-402421Y88082D01*
X-402635Y88162D01*
X-402849Y88219D01*
X-403061Y88254D01*
X-403271Y88265D01*
Y89535D01*
X-403061Y89546D01*
X-402849Y89581D01*
X-402635Y89638D01*
X-402421Y89718D01*
X-402205Y89821D01*
X-401987Y89946D01*
X-401768Y90095D01*
X-401547Y90267D01*
X-401325Y90461D01*
X-401102Y90678D01*
Y87122D01*
D02*
G37*
G36*
X-159612Y86932D02*
X-159812Y87125D01*
X-160016Y87298D01*
X-160222Y87450D01*
X-160431Y87582D01*
X-160643Y87694D01*
X-160858Y87785D01*
X-161075Y87856D01*
X-161296Y87907D01*
X-161519Y87938D01*
X-161745Y87948D01*
Y89472D01*
X-161519Y89482D01*
X-161296Y89513D01*
X-161075Y89563D01*
X-160858Y89634D01*
X-160643Y89726D01*
X-160431Y89838D01*
X-160222Y89970D01*
X-160016Y90122D01*
X-159812Y90295D01*
X-159612Y90488D01*
Y86932D01*
D02*
G37*
G36*
X-457703Y89103D02*
X-457260Y88737D01*
X-457041Y88588D01*
X-456824Y88463D01*
X-456607Y88360D01*
X-456393Y88280D01*
X-456179Y88223D01*
X-455967Y88188D01*
X-455757Y88177D01*
Y86907D01*
X-455967Y86896D01*
X-456179Y86861D01*
X-456393Y86804D01*
X-456607Y86724D01*
X-456824Y86621D01*
X-457041Y86496D01*
X-457260Y86347D01*
X-457481Y86175D01*
X-457703Y85981D01*
X-457926Y85764D01*
Y89320D01*
X-457703Y89103D01*
D02*
G37*
G36*
X-343715Y88267D02*
X-343536Y88131D01*
X-343344Y88011D01*
X-343140Y87907D01*
X-342923Y87820D01*
X-342695Y87749D01*
X-342453Y87695D01*
X-342200Y87657D01*
X-341934Y87635D01*
X-341655Y87630D01*
X-344170Y85115D01*
X-344175Y85394D01*
X-344197Y85660D01*
X-344235Y85913D01*
X-344289Y86154D01*
X-344360Y86383D01*
X-344447Y86600D01*
X-344551Y86804D01*
X-344671Y86996D01*
X-344807Y87175D01*
X-344960Y87342D01*
X-343882Y88420D01*
X-343715Y88267D01*
D02*
G37*
G36*
X-239651Y88143D02*
X-239546Y88035D01*
X-239421Y87940D01*
X-239274Y87858D01*
X-239106Y87788D01*
X-238917Y87731D01*
X-238708Y87687D01*
X-238477Y87655D01*
X-238225Y87636D01*
X-237952Y87630D01*
Y85090D01*
X-238379Y85087D01*
X-239981Y84993D01*
X-240195Y84958D01*
X-240373Y84917D01*
X-240516Y84871D01*
X-240623Y84820D01*
X-239734Y88263D01*
X-239651Y88143D01*
D02*
G37*
G36*
X-205714Y84582D02*
X-205823Y84678D01*
X-205950Y84765D01*
X-206095Y84841D01*
X-206259Y84907D01*
X-206440Y84963D01*
X-206640Y85009D01*
X-206859Y85044D01*
X-207096Y85070D01*
X-207624Y85090D01*
Y87630D01*
X-207350Y87635D01*
X-206859Y87676D01*
X-206640Y87711D01*
X-206440Y87757D01*
X-206259Y87813D01*
X-206095Y87879D01*
X-205950Y87955D01*
X-205823Y88041D01*
X-205714Y88138D01*
Y84582D01*
D02*
G37*
G36*
X-335778Y83731D02*
X-335747Y83508D01*
X-335697Y83287D01*
X-335625Y83070D01*
X-335534Y82855D01*
X-335422Y82643D01*
X-335290Y82434D01*
X-335138Y82228D01*
X-334965Y82024D01*
X-334772Y81824D01*
X-338328D01*
X-338135Y82024D01*
X-337962Y82228D01*
X-337810Y82434D01*
X-337678Y82643D01*
X-337566Y82855D01*
X-337475Y83070D01*
X-337403Y83287D01*
X-337353Y83508D01*
X-337322Y83731D01*
X-337312Y83957D01*
X-335788D01*
X-335778Y83731D01*
D02*
G37*
G36*
X-464815Y82412D02*
X-464793Y82146D01*
X-464755Y81893D01*
X-464701Y81651D01*
X-464630Y81423D01*
X-464543Y81206D01*
X-464439Y81002D01*
X-464319Y80810D01*
X-464183Y80631D01*
X-464030Y80464D01*
X-465108Y79386D01*
X-465275Y79539D01*
X-465454Y79675D01*
X-465646Y79795D01*
X-465850Y79899D01*
X-466067Y79986D01*
X-466296Y80057D01*
X-466537Y80111D01*
X-466790Y80149D01*
X-467056Y80171D01*
X-467335Y80176D01*
X-464820Y82691D01*
X-464815Y82412D01*
D02*
G37*
G36*
X-395514Y75692D02*
X-395714Y75885D01*
X-395918Y76058D01*
X-396124Y76210D01*
X-396333Y76342D01*
X-396545Y76454D01*
X-396760Y76545D01*
X-396977Y76617D01*
X-397198Y76667D01*
X-397421Y76698D01*
X-397647Y76708D01*
Y78232D01*
X-397421Y78242D01*
X-397198Y78273D01*
X-396977Y78323D01*
X-396760Y78395D01*
X-396545Y78486D01*
X-396333Y78598D01*
X-396124Y78730D01*
X-395918Y78882D01*
X-395714Y79055D01*
X-395514Y79248D01*
Y75692D01*
D02*
G37*
G36*
X-330698Y69761D02*
X-330667Y69538D01*
X-330617Y69317D01*
X-330545Y69100D01*
X-330454Y68885D01*
X-330342Y68673D01*
X-330210Y68464D01*
X-330058Y68258D01*
X-329885Y68054D01*
X-329692Y67854D01*
X-333248D01*
X-333055Y68054D01*
X-332882Y68258D01*
X-332730Y68464D01*
X-332598Y68673D01*
X-332486Y68885D01*
X-332395Y69100D01*
X-332323Y69317D01*
X-332273Y69538D01*
X-332242Y69761D01*
X-332232Y69987D01*
X-330708D01*
X-330698Y69761D01*
D02*
G37*
G36*
X-321808Y62141D02*
X-321777Y61918D01*
X-321727Y61697D01*
X-321655Y61480D01*
X-321564Y61265D01*
X-321452Y61053D01*
X-321320Y60844D01*
X-321168Y60638D01*
X-320995Y60434D01*
X-320802Y60234D01*
X-324358D01*
X-324165Y60434D01*
X-323992Y60638D01*
X-323840Y60844D01*
X-323708Y61053D01*
X-323596Y61265D01*
X-323505Y61480D01*
X-323433Y61697D01*
X-323383Y61918D01*
X-323352Y62141D01*
X-323342Y62367D01*
X-321818D01*
X-321808Y62141D01*
D02*
G37*
G36*
X-326870Y60672D02*
X-327023Y60505D01*
X-327159Y60326D01*
X-327279Y60134D01*
X-327383Y59930D01*
X-327470Y59713D01*
X-327541Y59485D01*
X-327595Y59243D01*
X-327633Y58990D01*
X-327655Y58724D01*
X-327660Y58445D01*
X-330175Y60960D01*
X-329896Y60965D01*
X-329630Y60987D01*
X-329377Y61025D01*
X-329136Y61079D01*
X-328907Y61150D01*
X-328690Y61237D01*
X-328486Y61341D01*
X-328294Y61461D01*
X-328115Y61597D01*
X-327948Y61750D01*
X-326870Y60672D01*
D02*
G37*
G36*
X-177063Y55370D02*
X-177342Y55365D01*
X-177608Y55343D01*
X-177861Y55305D01*
X-178102Y55250D01*
X-178331Y55180D01*
X-178548Y55092D01*
X-178752Y54989D01*
X-178944Y54869D01*
X-179123Y54733D01*
X-179290Y54580D01*
X-180368Y55658D01*
X-180215Y55825D01*
X-180079Y56004D01*
X-179959Y56196D01*
X-179855Y56400D01*
X-179768Y56616D01*
X-179697Y56845D01*
X-179643Y57086D01*
X-179605Y57340D01*
X-179583Y57606D01*
X-179578Y57884D01*
X-177063Y55370D01*
D02*
G37*
G36*
X-244366Y54925D02*
X-244162Y54752D01*
X-243956Y54600D01*
X-243747Y54468D01*
X-243535Y54356D01*
X-243320Y54265D01*
X-243103Y54193D01*
X-242882Y54143D01*
X-242659Y54112D01*
X-242433Y54102D01*
Y52578D01*
X-242659Y52568D01*
X-242882Y52537D01*
X-243103Y52487D01*
X-243320Y52415D01*
X-243535Y52324D01*
X-243747Y52212D01*
X-243956Y52080D01*
X-244162Y51928D01*
X-244366Y51755D01*
X-244566Y51562D01*
Y55118D01*
X-244366Y54925D01*
D02*
G37*
G36*
X-397251Y52869D02*
X-396808Y52503D01*
X-396589Y52354D01*
X-396371Y52229D01*
X-396155Y52126D01*
X-395941Y52046D01*
X-395727Y51989D01*
X-395515Y51954D01*
X-395305Y51943D01*
Y50673D01*
X-395515Y50662D01*
X-395727Y50627D01*
X-395941Y50570D01*
X-396155Y50490D01*
X-396371Y50387D01*
X-396589Y50262D01*
X-396808Y50113D01*
X-397029Y49942D01*
X-397251Y49747D01*
X-397474Y49530D01*
Y53086D01*
X-397251Y52869D01*
D02*
G37*
G36*
X-254526Y49845D02*
X-254322Y49672D01*
X-254116Y49520D01*
X-253907Y49388D01*
X-253695Y49276D01*
X-253480Y49185D01*
X-253263Y49113D01*
X-253042Y49063D01*
X-252819Y49032D01*
X-252593Y49022D01*
Y47498D01*
X-252819Y47488D01*
X-253042Y47457D01*
X-253263Y47407D01*
X-253480Y47335D01*
X-253695Y47244D01*
X-253907Y47132D01*
X-254116Y47000D01*
X-254322Y46848D01*
X-254526Y46675D01*
X-254726Y46482D01*
Y50038D01*
X-254526Y49845D01*
D02*
G37*
G36*
X-362494Y46482D02*
X-362717Y46699D01*
X-363160Y47065D01*
X-363379Y47214D01*
X-363596Y47339D01*
X-363813Y47442D01*
X-364027Y47522D01*
X-364241Y47579D01*
X-364453Y47614D01*
X-364663Y47625D01*
Y48895D01*
X-364453Y48906D01*
X-364241Y48941D01*
X-364027Y48998D01*
X-363813Y49078D01*
X-363596Y49181D01*
X-363379Y49307D01*
X-363160Y49455D01*
X-362939Y49626D01*
X-362717Y49821D01*
X-362494Y50038D01*
Y46482D01*
D02*
G37*
G36*
X-180769Y46356D02*
X-180904Y46573D01*
X-181051Y46767D01*
X-181209Y46938D01*
X-181378Y47087D01*
X-181558Y47213D01*
X-181749Y47315D01*
X-181951Y47395D01*
X-182164Y47452D01*
X-182388Y47487D01*
X-182623Y47498D01*
X-182200Y49022D01*
X-181989Y49030D01*
X-181773Y49053D01*
X-181552Y49092D01*
X-181326Y49146D01*
X-181095Y49215D01*
X-180859Y49300D01*
X-180372Y49517D01*
X-180120Y49648D01*
X-179864Y49795D01*
X-180769Y46356D01*
D02*
G37*
G36*
X-231643Y40931D02*
X-231200Y40565D01*
X-230981Y40416D01*
X-230763Y40291D01*
X-230547Y40188D01*
X-230333Y40108D01*
X-230119Y40051D01*
X-229907Y40016D01*
X-229697Y40005D01*
Y38735D01*
X-229907Y38724D01*
X-230119Y38689D01*
X-230333Y38632D01*
X-230547Y38552D01*
X-230763Y38449D01*
X-230981Y38324D01*
X-231200Y38175D01*
X-231421Y38003D01*
X-231643Y37809D01*
X-231866Y37592D01*
Y41148D01*
X-231643Y40931D01*
D02*
G37*
G36*
X-340284Y35298D02*
X-339835Y35000D01*
X-339612Y34879D01*
X-339389Y34777D01*
X-339166Y34693D01*
X-338944Y34628D01*
X-338722Y34581D01*
X-338501Y34553D01*
X-338280Y34544D01*
X-338112Y33020D01*
X-338342Y33009D01*
X-338566Y32977D01*
X-338784Y32923D01*
X-338996Y32847D01*
X-339202Y32750D01*
X-339401Y32630D01*
X-339594Y32490D01*
X-339781Y32327D01*
X-339962Y32143D01*
X-340137Y31938D01*
X-340508Y35475D01*
X-340284Y35298D01*
D02*
G37*
G36*
X-207654Y31342D02*
X-207854Y31535D01*
X-208058Y31708D01*
X-208264Y31860D01*
X-208473Y31992D01*
X-208685Y32104D01*
X-208900Y32195D01*
X-209117Y32267D01*
X-209338Y32317D01*
X-209561Y32348D01*
X-209787Y32358D01*
Y33882D01*
X-209561Y33892D01*
X-209338Y33923D01*
X-209117Y33974D01*
X-208900Y34045D01*
X-208685Y34136D01*
X-208473Y34248D01*
X-208264Y34380D01*
X-208058Y34532D01*
X-207854Y34705D01*
X-207654Y34898D01*
Y31342D01*
D02*
G37*
G36*
X-356125Y29525D02*
X-355922Y29352D01*
X-355716Y29200D01*
X-355507Y29068D01*
X-355295Y28956D01*
X-355080Y28865D01*
X-354863Y28793D01*
X-354642Y28743D01*
X-354419Y28712D01*
X-354193Y28702D01*
Y27178D01*
X-354419Y27168D01*
X-354642Y27137D01*
X-354863Y27087D01*
X-355080Y27015D01*
X-355295Y26924D01*
X-355507Y26812D01*
X-355716Y26680D01*
X-355922Y26528D01*
X-356125Y26355D01*
X-356326Y26162D01*
Y29718D01*
X-356125Y29525D01*
D02*
G37*
G36*
X-211872Y21762D02*
X-212073Y21955D01*
X-212276Y22128D01*
X-212482Y22280D01*
X-212691Y22412D01*
X-212903Y22524D01*
X-213118Y22615D01*
X-213335Y22687D01*
X-213556Y22737D01*
X-213779Y22768D01*
X-214005Y22778D01*
Y24302D01*
X-213779Y24312D01*
X-213556Y24343D01*
X-213335Y24393D01*
X-213118Y24464D01*
X-212903Y24556D01*
X-212691Y24668D01*
X-212482Y24800D01*
X-212276Y24952D01*
X-212073Y25125D01*
X-211872Y25318D01*
Y21762D01*
D02*
G37*
G36*
X-261165Y20957D02*
X-260986Y20821D01*
X-260794Y20701D01*
X-260590Y20597D01*
X-260373Y20510D01*
X-260145Y20439D01*
X-259903Y20385D01*
X-259650Y20347D01*
X-259384Y20325D01*
X-259105Y20320D01*
X-261620Y17805D01*
X-261625Y18084D01*
X-261647Y18350D01*
X-261685Y18603D01*
X-261739Y18844D01*
X-261810Y19073D01*
X-261897Y19290D01*
X-262001Y19494D01*
X-262121Y19686D01*
X-262257Y19865D01*
X-262410Y20032D01*
X-261332Y21110D01*
X-261165Y20957D01*
D02*
G37*
G36*
X-466615Y19365D02*
X-466412Y19192D01*
X-466206Y19040D01*
X-465997Y18908D01*
X-465785Y18796D01*
X-465570Y18705D01*
X-465353Y18633D01*
X-465132Y18583D01*
X-464909Y18552D01*
X-464683Y18542D01*
Y17018D01*
X-464909Y17008D01*
X-465132Y16977D01*
X-465353Y16927D01*
X-465570Y16855D01*
X-465785Y16764D01*
X-465997Y16652D01*
X-466206Y16520D01*
X-466412Y16368D01*
X-466615Y16195D01*
X-466816Y16002D01*
Y19558D01*
X-466615Y19365D01*
D02*
G37*
D11*
X3048Y389636D02*
X12446Y399034D01*
X-63613Y389636D02*
X3048D01*
X-30988Y392430D02*
X-25146Y398272D01*
Y398780D01*
X-64770Y392430D02*
X-30988D01*
X-238252Y90932D02*
X-199617D01*
X-252992Y105672D02*
Y111236D01*
X-252730Y111498D01*
X-252992Y105672D02*
X-244716Y97396D01*
X-238252Y90932D01*
X-333860Y172409D02*
X-333637Y172632D01*
Y178144D01*
X-327914Y153526D02*
Y170180D01*
X-316738Y160297D02*
Y169291D01*
X-318770Y158265D02*
X-316738Y160297D01*
X-318770Y150233D02*
Y158265D01*
Y150233D02*
X-318516Y149979D01*
X-326136Y147541D02*
X-325628Y147033D01*
X-328549Y146542D02*
X-328041Y146033D01*
X-328549Y146542D02*
Y150749D01*
X-327914Y153526D02*
X-326136Y151749D01*
X-334190Y156390D02*
X-328549Y150749D01*
X-326136Y147541D02*
Y151749D01*
X-343334Y100954D02*
X-333883Y110405D01*
X-318516Y130556D02*
Y149979D01*
X-331470Y125031D02*
X-325628Y130873D01*
X-333883Y110405D02*
Y126031D01*
X-334190Y129360D02*
X-330454Y133096D01*
X-328041Y131873D02*
Y146033D01*
X-334190Y148770D02*
X-330454Y145034D01*
X-333883Y126031D02*
X-328041Y131873D01*
X-339090Y124460D02*
X-334190Y129360D01*
X-318516Y130556D02*
X-317500Y129540D01*
X-325628Y130873D02*
Y147033D01*
X-330454Y133096D02*
Y145034D01*
X-331470Y103886D02*
Y125031D01*
X-332740Y92710D02*
Y102616D01*
X-331470Y103886D01*
X-222797Y117094D02*
X-184690D01*
X-164084D01*
X-163830Y116840D01*
X-223690Y117987D02*
Y126646D01*
Y117987D02*
X-222797Y117094D01*
X-185738Y183896D02*
X-184690Y182848D01*
X-181554Y179712D01*
X-195199Y185039D02*
X-194056Y183896D01*
X-185738D01*
X-205789Y185039D02*
X-195199D01*
X-205896Y185146D02*
X-205789Y185039D01*
X-217190Y185146D02*
X-205896D01*
X-191894Y191646D02*
X-191770Y191770D01*
X-217190Y191646D02*
X-191894D01*
X-235458Y233896D02*
Y246777D01*
X-238252Y233896D02*
Y247934D01*
X-241046Y219964D02*
Y233896D01*
X-238252Y217678D02*
Y233896D01*
X-232664D02*
Y243586D01*
X-241046Y233896D02*
Y249174D01*
X-240030Y215900D02*
X-238252Y217678D01*
X-235458Y246777D02*
X-196485Y285750D01*
X-238252Y247934D02*
X-197642Y288544D01*
X-232664Y243586D02*
X-202438Y273812D01*
X-246380Y214630D02*
X-241046Y219964D01*
Y249174D02*
X-215900Y274320D01*
X-246996Y233896D02*
Y233938D01*
Y226932D02*
Y233896D01*
X-251460Y222250D02*
Y233310D01*
X-256190Y217520D02*
X-251460Y222250D01*
X-328930Y194310D02*
Y199390D01*
X-350520Y156210D02*
Y162419D01*
X-345440Y144571D02*
Y161290D01*
X-345928Y144083D02*
X-345440Y144571D01*
X-350520Y166370D02*
X-345440Y161290D01*
X-353314Y165213D02*
Y165354D01*
Y165213D02*
X-350520Y162419D01*
X-359410Y171450D02*
X-353314Y165354D01*
X-359410Y171450D02*
Y306070D01*
X-350520Y166370D02*
Y186690D01*
X-347980Y189230D01*
X-359410Y306070D02*
X-294640Y370840D01*
X-288290D01*
X-317500Y125730D02*
Y129540D01*
X-322580Y120650D02*
X-317500Y125730D01*
X-322580Y58420D02*
Y120650D01*
X-74930Y382270D02*
X-64770Y392430D01*
X-337704Y18542D02*
X-334402Y21844D01*
X-468630Y17780D02*
X-414136D01*
X-413374Y18542D02*
X-337704D01*
X-414136Y17780D02*
X-413374Y18542D01*
X-358140Y27940D02*
X-341238D01*
X-341861Y33782D02*
X-266309D01*
X-338444Y30734D02*
X-334656D01*
X-332878Y28956D01*
X-322834D02*
X-322580Y29210D01*
X-341238Y27940D02*
X-338444Y30734D01*
X-342127Y33517D02*
X-341861Y33782D01*
X-332878Y28956D02*
X-322834D01*
X-336550Y26162D02*
X-325998D01*
X-324474Y24638D02*
X-261987D01*
X-265647Y33120D02*
X-205840D01*
X-325998Y26162D02*
X-324474Y24638D01*
X-261987D02*
X-260889Y23540D01*
X-263144Y21844D02*
X-259080Y17780D01*
X-334402Y21844D02*
X-263144D01*
X-266309Y33782D02*
X-265647Y33120D01*
X-260889Y23540D02*
X-210058D01*
X-340360Y162560D02*
X-334190Y156390D01*
X-340360Y154940D02*
X-334190Y148770D01*
X-339090Y118110D02*
Y124460D01*
X-441418Y144052D02*
X-396240Y189230D01*
X-452120Y144052D02*
X-441418D01*
X-396240Y189230D02*
X-374788D01*
X-199617Y90932D02*
X-197395Y88710D01*
X-157798D01*
X-246380Y53340D02*
X-181608D01*
X-69850Y396240D02*
Y467020D01*
X-83174Y383032D02*
X-83058D01*
X-85852Y376305D02*
Y380354D01*
X-83058Y383032D02*
X-69850Y396240D01*
X-85852Y380354D02*
X-83174Y383032D01*
X-69850Y467020D02*
X-63500Y473370D01*
X-181608Y53340D02*
X-177038Y57910D01*
X-328930Y203200D02*
Y275590D01*
X-334010Y280670D02*
X-328930Y275590D01*
X-334190Y197940D02*
X-328930Y203200D01*
X-133466Y213360D02*
X-133350D01*
X-141732Y221626D02*
Y267067D01*
X-139446Y269353D02*
Y339203D01*
X-141732Y221626D02*
X-133466Y213360D01*
X-141732Y267067D02*
X-139446Y269353D01*
Y339203D02*
X-135636Y343013D01*
X-302260Y90170D02*
X-262890D01*
X-179208Y48260D02*
X-178562Y47614D01*
X-256540Y48260D02*
X-179208D01*
X-120694Y144824D02*
X-120650Y144780D01*
X-203200Y144824D02*
X-120694D01*
X-333637Y178144D02*
X-332613Y179167D01*
X-332740Y92710D02*
X-327660Y87630D01*
X-330200Y58420D02*
X-326390Y62230D01*
Y73660D01*
X-327660Y74930D02*
X-326390Y73660D01*
X-327660Y74930D02*
Y87630D01*
X-331470Y66040D02*
Y86360D01*
X-339400Y94290D02*
X-331470Y86360D01*
X-336550Y80010D02*
Y86476D01*
X-340458Y94290D02*
X-339400D01*
X-341571Y91496D02*
X-336550Y86476D01*
X-332613Y179167D02*
Y184023D01*
X-389890Y180340D02*
X-374142D01*
X-374788Y189230D02*
X-374142Y188584D01*
X-346041Y89501D02*
Y91971D01*
X-343334Y97166D02*
Y100954D01*
X-348922Y131254D02*
X-341746Y138430D01*
X-346128Y117538D02*
X-342900Y120766D01*
X-346041Y89501D02*
X-341630Y85090D01*
X-348922Y94852D02*
X-346041Y91971D01*
X-343334Y97166D02*
X-340458Y94290D01*
X-338762Y99060D02*
X-337820D01*
X-346128Y96009D02*
X-341615Y91496D01*
X-348922Y94852D02*
Y131254D01*
X-341615Y91496D02*
X-341571D01*
X-346128Y96009D02*
Y117538D01*
X-340360Y162560D02*
Y175260D01*
X-341746Y138430D02*
X-341630D01*
X-467360Y82716D02*
X-462114Y77470D01*
X-393700D01*
X-342900Y120766D02*
Y130810D01*
X-181554Y179712D02*
X-177767D01*
X-174599Y182880D01*
X-165216Y290830D02*
X-161036Y295010D01*
X-169167Y290830D02*
X-166370Y293627D01*
X-171453Y288544D02*
X-169167Y290830D01*
X-196485Y285750D02*
X-170296D01*
X-197642Y288544D02*
X-171453D01*
X-161036Y295010D02*
Y356870D01*
X-166370Y293627D02*
Y340360D01*
X-170296Y285750D02*
X-165216Y290830D01*
X-161036Y356870D02*
Y393051D01*
X-165673Y182191D02*
X-163141D01*
X-169534Y182118D02*
X-165746D01*
X-165673Y182191D01*
X-174599Y182880D02*
X-170296D01*
X-169534Y182118D01*
X-173407Y177606D02*
X-148530D01*
X-148336Y177800D01*
X-173602Y177412D02*
X-173407Y177606D01*
X-405130Y151130D02*
X-387350D01*
X-424781Y131479D02*
X-405130Y151130D01*
X-85852Y376305D02*
X-82022Y372475D01*
X-79866D01*
X-79502Y372110D01*
X-70358Y382891D02*
X-63613Y389636D01*
X-70358Y380376D02*
Y382891D01*
X-73036Y377698D02*
X-70358Y380376D01*
X-76824Y377698D02*
X-73036D01*
X-76905Y377780D02*
X-76824Y377698D01*
X-79637Y377780D02*
X-76905D01*
X-80318Y378460D02*
X-79637Y377780D01*
X-81280Y378460D02*
X-80318D01*
X-144018Y268732D02*
Y276214D01*
X-157480Y255270D02*
X-144018Y268732D01*
X-157480Y228600D02*
Y255270D01*
X-145796Y277992D02*
Y336804D01*
Y277992D02*
X-144018Y276214D01*
X-145796Y336804D02*
X-138430Y344170D01*
X-135636Y343013D02*
Y402477D01*
X-138430Y344170D02*
Y401320D01*
X-148590Y411480D02*
X-138430Y401320D01*
X-143510Y344170D02*
Y398780D01*
X-148590Y339090D02*
X-143510Y344170D01*
X-142240Y409081D02*
Y421640D01*
Y409081D02*
X-142240D01*
X-135636Y402477D01*
X-148590Y411480D02*
Y416560D01*
Y274320D02*
Y339090D01*
X-173077Y192278D02*
X-150368D01*
X-194000Y396500D02*
Y407980D01*
X-204470Y417830D02*
X-200830Y414190D01*
Y407670D02*
Y414190D01*
X-181610Y213360D02*
X-140970D01*
X-182880Y214630D02*
X-181610Y213360D01*
X-149022Y190932D02*
X-148351D01*
X-150368Y192278D02*
X-149022Y190932D01*
X-181610Y196850D02*
X-146050D01*
X-193040Y214630D02*
X-182880D01*
X-195580Y212090D02*
X-193040Y214630D01*
X-205740Y212090D02*
X-195580D01*
X-213184Y204646D02*
X-205740Y212090D01*
X-217190Y204646D02*
X-213184D01*
X-326390Y294640D02*
Y304800D01*
X-334010Y287020D02*
X-326390Y294640D01*
X-334010Y280670D02*
Y287020D01*
X-334190Y185600D02*
Y197940D01*
Y185600D02*
X-332613Y184023D01*
X-298482Y233896D02*
Y334042D01*
X-295148Y349896D02*
X-294640Y350404D01*
X-295148Y349896D02*
X-294468Y349216D01*
X-292066D01*
X-289560Y346710D01*
Y254000D02*
Y346710D01*
X-340360Y287218D02*
Y299720D01*
Y280382D02*
X-338836Y281906D01*
Y285694D01*
X-340360Y287218D02*
X-338836Y285694D01*
X-340360Y175260D02*
Y280382D01*
X-345440Y179709D02*
X-343408Y181741D01*
Y283800D01*
X-345440Y179070D02*
Y179709D01*
X-347980Y189230D02*
Y203200D01*
X-397510Y194310D02*
X-387350D01*
X-347980Y203200D02*
Y288290D01*
X-289560Y254000D02*
X-285750Y250190D01*
X-202438Y273812D02*
X-195577D01*
X-161544Y393559D02*
X-161036Y393051D01*
X-161290Y426720D02*
X-161082Y426512D01*
Y410901D02*
Y426512D01*
X-161544Y410439D02*
X-161082Y410901D01*
X-161544Y393559D02*
Y410439D01*
X-158750Y394716D02*
X-156464Y392430D01*
X-158750Y407607D02*
X-157190Y409167D01*
X-158750Y394716D02*
Y407607D01*
X-157190Y409167D02*
Y410032D01*
X-157239Y410081D02*
X-157190Y410032D01*
X-153670Y278130D02*
Y405130D01*
X-215900Y274320D02*
Y290830D01*
Y295910D01*
X-233664Y271796D02*
Y290830D01*
Y297164D01*
X-233680Y297180D02*
X-233664Y297164D01*
X-246634Y258826D02*
X-233664Y271796D01*
X-240179Y290830D02*
Y297183D01*
Y274171D02*
Y290830D01*
X-250190Y264160D02*
X-240179Y274171D01*
X-246634Y234299D02*
Y258826D01*
X-246996Y233938D02*
X-246634Y234299D01*
X-251460Y233310D02*
X-249428Y235342D01*
Y239130D01*
X-250190Y239892D02*
X-249428Y239130D01*
X-250190Y239892D02*
Y264160D01*
X-156464Y279287D02*
Y392430D01*
X-173877Y261874D02*
X-156464Y279287D01*
X-228710Y241331D02*
X-208167Y261874D01*
X-173877D01*
X-172720Y259080D02*
X-153670Y278130D01*
X-207010Y259080D02*
X-172720D01*
X-220980Y245110D02*
X-207010Y259080D01*
X-220980Y228854D02*
Y245110D01*
X-285750Y215900D02*
Y250190D01*
X-228710Y228965D02*
Y241331D01*
Y228965D02*
X-228600Y228854D01*
X-256190Y211146D02*
Y217520D01*
X-391160Y203200D02*
X-389890Y204470D01*
X-375920D01*
X-433070Y137160D02*
X-389890Y180340D01*
X-416560Y203200D02*
X-391160D01*
X-443230Y176530D02*
X-416560Y203200D01*
X-457200Y176530D02*
X-443230D01*
X-398780Y199390D02*
X-382270D01*
X-430784Y167386D02*
X-398780Y199390D01*
X-457200Y167386D02*
X-430784D01*
X-454660Y137160D02*
X-433070D01*
X-458470Y133350D02*
X-454660Y137160D01*
X-458470Y125730D02*
Y133350D01*
Y125730D02*
X-452120Y119380D01*
X-378460Y160020D02*
X-367030D01*
X-387350Y151130D02*
X-378460Y160020D01*
X-452234Y131479D02*
X-424781D01*
X-452120Y157480D02*
X-434340D01*
X-397510Y194310D01*
X-186038Y464202D02*
X-183498D01*
X-182880Y464820D01*
X-189230Y461010D02*
X-186038Y464202D01*
X-189230Y438150D02*
Y461010D01*
X-204470Y422910D02*
X-189230Y438150D01*
X-204470Y417830D02*
Y422910D01*
X-182880Y427990D02*
X-181610Y426720D01*
X-182880Y427990D02*
Y458470D01*
X-181610Y420370D02*
Y426720D01*
X-194000Y407980D02*
X-181610Y420370D01*
X-328930Y199390D02*
X-323674Y204646D01*
X-301690D01*
D17*
X-3006Y495765D02*
X24130Y468630D01*
X-7650Y495765D02*
X-3006D01*
X-10625Y498741D02*
X-7650Y495765D01*
X-10625Y498741D02*
Y503507D01*
X-7402Y506730D01*
X-713D01*
X7010Y514453D01*
X-239504Y86360D02*
X-203900D01*
X-241935Y86995D02*
X-241449Y86509D01*
X-239653D01*
X-239504Y86360D01*
D98*
X-350520Y0D02*
D03*
X-381000Y40D02*
D03*
D99*
X-100330Y195580D02*
D03*
X-424180Y-271780D02*
D03*
D100*
X123631Y347620D02*
D03*
X263331D02*
D03*
X313331Y322620D02*
D03*
X288331D02*
D03*
X338331D02*
D03*
X263331D02*
D03*
X288331Y347620D02*
D03*
X313331D02*
D03*
X338331D02*
D03*
X363331Y322620D02*
D03*
Y347620D02*
D03*
X173631Y322620D02*
D03*
X148631D02*
D03*
X198631D02*
D03*
X123631D02*
D03*
X148631Y347620D02*
D03*
X173631D02*
D03*
X198631D02*
D03*
X223631Y322620D02*
D03*
Y347620D02*
D03*
D105*
X-269190Y126646D02*
D03*
X-275690D02*
D03*
X-295190D02*
D03*
X-243190Y126646D02*
D03*
X-288690Y185146D02*
D03*
Y152646D02*
D03*
X-230190D02*
D03*
X-243190Y198146D02*
D03*
X-230190Y185146D02*
D03*
X-275690Y198146D02*
D03*
X-249690Y211146D02*
D03*
X-197843Y344933D02*
D03*
X-197775Y315001D02*
D03*
X-220275Y367501D02*
D03*
X-227775Y375001D02*
D03*
X-212775D02*
D03*
X-235275Y382501D02*
D03*
X-242775D02*
D03*
X-235275Y352501D02*
D03*
X-220207Y330069D02*
D03*
X-212775Y315001D02*
D03*
X-235275Y337501D02*
D03*
X-205275Y360001D02*
D03*
Y352501D02*
D03*
X-235275Y360001D02*
D03*
X-250275Y315001D02*
D03*
X-235275D02*
D03*
X-242775Y337501D02*
D03*
X-205275Y337501D02*
D03*
X-210690Y120523D02*
D03*
X-282190Y126646D02*
D03*
X-275690Y204646D02*
D03*
X-288690Y191646D02*
D03*
Y146146D02*
D03*
X-282190Y139646D02*
D03*
X-269190D02*
D03*
X-243190D02*
D03*
X-230190Y146146D02*
D03*
X-236690Y198146D02*
D03*
X-230190Y178646D02*
D03*
X-282190Y198146D02*
D03*
X-256190Y198146D02*
D03*
X-212775Y367501D02*
D03*
X-242775Y352501D02*
D03*
Y360001D02*
D03*
X-250275D02*
D03*
Y352501D02*
D03*
Y337501D02*
D03*
X-227775Y352501D02*
D03*
X-212775D02*
D03*
X-227775Y360001D02*
D03*
X-212775D02*
D03*
X-250275Y367501D02*
D03*
Y375001D02*
D03*
X-223690Y139646D02*
D03*
X-236690Y133146D02*
D03*
X-217190Y159146D02*
D03*
X-210690Y133146D02*
D03*
X-223690Y211146D02*
D03*
X-236690D02*
D03*
X-230190D02*
D03*
X-282190D02*
D03*
X-205275Y322501D02*
D03*
Y315001D02*
D03*
Y330001D02*
D03*
X-227775Y315001D02*
D03*
X-250275Y330001D02*
D03*
X-242775D02*
D03*
X-235275Y322501D02*
D03*
X-242775Y315001D02*
D03*
Y322501D02*
D03*
X-250275D02*
D03*
X-235275Y367501D02*
D03*
X-197775Y352501D02*
D03*
X-190275D02*
D03*
X-182775D02*
D03*
X-197775Y360001D02*
D03*
X-190275D02*
D03*
X-182775D02*
D03*
X-197775Y367501D02*
D03*
X-235275Y330001D02*
D03*
X-227775D02*
D03*
X-212775Y322501D02*
D03*
Y337501D02*
D03*
X-227775Y337501D02*
D03*
X-212775Y330001D02*
D03*
X-227775Y322501D02*
D03*
X-182775Y382501D02*
D03*
X-190275D02*
D03*
X-197775D02*
D03*
X-205275D02*
D03*
X-250275D02*
D03*
X-242775Y375001D02*
D03*
X-235275D02*
D03*
X-242775Y367501D02*
D03*
X-227775D02*
D03*
Y382501D02*
D03*
X-212775Y382501D02*
D03*
X-205275Y367501D02*
D03*
X-190275D02*
D03*
X-182775D02*
D03*
X-205275Y375001D02*
D03*
X-197775D02*
D03*
X-190275D02*
D03*
X-182775D02*
D03*
X-190275Y315001D02*
D03*
X-182775Y315001D02*
D03*
Y322501D02*
D03*
X-197775D02*
D03*
X-190275Y322501D02*
D03*
X-197775Y330001D02*
D03*
X-190275D02*
D03*
X-182775Y330001D02*
D03*
X-197775Y337501D02*
D03*
X-190275D02*
D03*
X-182775Y337501D02*
D03*
X-269190Y198146D02*
D03*
X-236690Y139646D02*
D03*
X-262690Y139646D02*
D03*
X-275690D02*
D03*
X-217190Y152646D02*
D03*
Y165646D02*
D03*
X-223690D02*
D03*
Y159146D02*
D03*
Y152646D02*
D03*
X-230190Y159146D02*
D03*
Y165646D02*
D03*
X-217190Y178646D02*
D03*
X-223690D02*
D03*
Y146146D02*
D03*
X-217190D02*
D03*
Y139646D02*
D03*
X-230190D02*
D03*
X-223690Y133146D02*
D03*
X-217190D02*
D03*
Y126646D02*
D03*
X-223690D02*
D03*
X-230190D02*
D03*
Y133146D02*
D03*
X-236690Y126646D02*
D03*
X-243190Y133146D02*
D03*
X-249690Y139646D02*
D03*
Y133146D02*
D03*
Y126646D02*
D03*
X-288690Y126646D02*
D03*
X-301690D02*
D03*
X-262690D02*
D03*
Y133146D02*
D03*
X-269190D02*
D03*
X-275690D02*
D03*
X-282190D02*
D03*
X-288690D02*
D03*
Y139646D02*
D03*
X-295190Y133146D02*
D03*
X-301690D02*
D03*
X-295190Y139646D02*
D03*
X-301690D02*
D03*
X-295190Y146146D02*
D03*
X-301690D02*
D03*
Y152646D02*
D03*
X-295190D02*
D03*
X-288690Y159146D02*
D03*
X-295190D02*
D03*
X-301690D02*
D03*
X-288690Y211146D02*
D03*
Y178646D02*
D03*
Y172146D02*
D03*
X-295190Y185146D02*
D03*
Y178646D02*
D03*
Y172146D02*
D03*
X-301690Y185146D02*
D03*
Y178646D02*
D03*
Y172146D02*
D03*
X-295190Y191646D02*
D03*
X-301690D02*
D03*
Y198146D02*
D03*
Y204646D02*
D03*
Y211146D02*
D03*
X-295190D02*
D03*
Y204646D02*
D03*
Y198146D02*
D03*
X-288690D02*
D03*
Y204646D02*
D03*
X-282190D02*
D03*
X-275690Y211146D02*
D03*
X-269190D02*
D03*
Y204646D02*
D03*
X-256190Y211146D02*
D03*
X-249690Y198146D02*
D03*
X-256190Y204646D02*
D03*
X-249690D02*
D03*
X-243190Y211146D02*
D03*
Y204646D02*
D03*
X-236690D02*
D03*
X-223690Y185146D02*
D03*
X-217190D02*
D03*
Y191646D02*
D03*
Y198146D02*
D03*
Y204646D02*
D03*
Y211146D02*
D03*
X-223690Y204646D02*
D03*
X-230190D02*
D03*
X-223690Y191646D02*
D03*
Y198146D02*
D03*
X-230190Y198146D02*
D03*
Y191646D02*
D03*
D106*
X-321310Y194310D02*
D03*
X-203200Y205740D02*
D03*
X-262890Y73660D02*
D03*
X-292100Y63500D02*
D03*
X-284480D02*
D03*
X-276860D02*
D03*
X-322580Y127635D02*
D03*
X-284655Y318231D02*
D03*
X-271955Y330931D02*
D03*
Y339821D02*
D03*
X-271915Y348751D02*
D03*
X-176705Y417291D02*
D03*
X-186865Y423641D02*
D03*
X-271955Y357601D02*
D03*
X-373380Y152400D02*
D03*
Y139700D02*
D03*
Y127000D02*
D03*
Y114300D02*
D03*
Y101600D02*
D03*
X-496570Y171450D02*
D03*
X-502920Y163830D02*
D03*
Y151130D02*
D03*
Y138430D02*
D03*
Y125730D02*
D03*
Y113030D02*
D03*
X-510540Y100330D02*
D03*
Y87630D02*
D03*
X-334010Y209550D02*
D03*
X-278940Y117021D02*
D03*
X-314960Y55880D02*
D03*
X-222250Y435610D02*
D03*
X-196850Y420370D02*
D03*
X-234950Y410210D02*
D03*
X-161290Y435610D02*
D03*
X-144780Y440690D02*
D03*
X-389890Y57150D02*
D03*
X-186690Y209550D02*
D03*
X7620Y349250D02*
D03*
X-25400Y247650D02*
D03*
X-7620D02*
D03*
X-25400Y520700D02*
D03*
X-12758Y480118D02*
D03*
X-8832Y485082D02*
D03*
X88900Y464820D02*
D03*
Y471170D02*
D03*
Y477520D02*
D03*
X-176530Y273812D02*
D03*
X-186690D02*
D03*
X-336550Y356870D02*
D03*
X-210820Y443230D02*
D03*
X-335788Y204041D02*
D03*
X-269510Y454930D02*
D03*
X-314960Y100330D02*
D03*
X-366570Y85900D02*
D03*
X-380210Y52860D02*
D03*
X-379730Y43180D02*
D03*
X-335280Y137160D02*
D03*
X-389890Y44450D02*
D03*
Y82550D02*
D03*
Y69850D02*
D03*
X-327660Y100330D02*
D03*
X110490Y448310D02*
D03*
X144780Y389890D02*
D03*
X210820Y471170D02*
D03*
X111760Y472440D02*
D03*
X-488950Y-154940D02*
D03*
X-499110Y-160020D02*
D03*
X-499570Y-96980D02*
D03*
X-452120Y-22860D02*
D03*
X-476250D02*
D03*
X86360Y220980D02*
D03*
X-121920Y190500D02*
D03*
X-410210Y35560D02*
D03*
X-400050D02*
D03*
X-251210Y86995D02*
D03*
X-137160Y223520D02*
D03*
X-316230Y261620D02*
D03*
X-306070Y43180D02*
D03*
X-217170Y-374650D02*
D03*
X-333690Y247970D02*
D03*
X256540Y455930D02*
D03*
X-349250Y-36830D02*
D03*
X26670Y488950D02*
D03*
X-45720Y213360D02*
D03*
X-121920Y181610D02*
D03*
X-172250Y369217D02*
D03*
X-174058Y322061D02*
D03*
X-174282Y344876D02*
D03*
X-333110Y-38100D02*
D03*
X-331109Y-29849D02*
D03*
X-175202Y-49472D02*
D03*
X-234950Y-57150D02*
D03*
X-233680Y3810D02*
D03*
X102870Y478790D02*
D03*
X139700D02*
D03*
X149860Y419100D02*
D03*
Y412750D02*
D03*
Y406400D02*
D03*
X217170Y419100D02*
D03*
X62230Y196850D02*
D03*
X-391160Y171450D02*
D03*
X-396240Y181610D02*
D03*
X-420370Y100330D02*
D03*
Y93980D02*
D03*
X-370840Y-73660D02*
D03*
Y-80010D02*
D03*
X-406400Y-73660D02*
D03*
Y-80010D02*
D03*
X-481330Y-139700D02*
D03*
Y-146050D02*
D03*
Y-152400D02*
D03*
X-236220Y-124460D02*
D03*
Y-148590D02*
D03*
X-262890Y-120650D02*
D03*
X-237490Y-85090D02*
D03*
Y-72390D02*
D03*
X-262890Y-63500D02*
D03*
X-261620Y-85090D02*
D03*
X-262890Y-11430D02*
D03*
X-263298Y0D02*
D03*
X227330Y414020D02*
D03*
X194310Y416560D02*
D03*
X-306070Y17018D02*
D03*
X-300990Y13970D02*
D03*
X-512169Y-134580D02*
D03*
Y-96480D02*
D03*
X-502644Y-77430D02*
D03*
X-512169Y-58380D02*
D03*
X-502644Y-39330D02*
D03*
X-512169Y17820D02*
D03*
X-502644Y36870D02*
D03*
Y74970D02*
D03*
X-512169Y94020D02*
D03*
Y132120D02*
D03*
X-483594Y-191730D02*
D03*
X-493119Y-172680D02*
D03*
Y-96480D02*
D03*
X-483594Y-77430D02*
D03*
X-493119Y-58380D02*
D03*
X-483594Y-39330D02*
D03*
X-493119Y17820D02*
D03*
X-483594Y36870D02*
D03*
X-493119Y55920D02*
D03*
X-483594Y74970D02*
D03*
X-493119Y94020D02*
D03*
Y132120D02*
D03*
X-483594Y189270D02*
D03*
X-464544Y-229830D02*
D03*
X-474069Y-210780D02*
D03*
X-464544Y-191730D02*
D03*
X-474069Y-172680D02*
D03*
Y-134580D02*
D03*
Y-96480D02*
D03*
X-464544Y-77430D02*
D03*
X-474069Y55920D02*
D03*
X-464544Y189270D02*
D03*
Y227370D02*
D03*
X-445494Y-267930D02*
D03*
Y-229830D02*
D03*
X-455019Y-210780D02*
D03*
X-445494Y-191730D02*
D03*
X-455019Y-172680D02*
D03*
Y-96480D02*
D03*
X-445494Y-77430D02*
D03*
Y36870D02*
D03*
Y189270D02*
D03*
Y227370D02*
D03*
X-426444Y-306030D02*
D03*
X-435969Y-286980D02*
D03*
Y-248880D02*
D03*
X-426444Y-229830D02*
D03*
X-435969Y-210780D02*
D03*
X-426444Y-191730D02*
D03*
X-435969Y-172680D02*
D03*
Y-20280D02*
D03*
X-426444Y36870D02*
D03*
X-435969Y208320D02*
D03*
X-426444Y227370D02*
D03*
X-416919Y-325080D02*
D03*
Y-286980D02*
D03*
Y-248880D02*
D03*
X-407394Y-229830D02*
D03*
Y-191730D02*
D03*
X-416919Y-172680D02*
D03*
X-407394Y-39330D02*
D03*
Y-1230D02*
D03*
X-416919Y246420D02*
D03*
Y322620D02*
D03*
X-388344Y-344130D02*
D03*
X-397869Y-286980D02*
D03*
X-388344Y-267930D02*
D03*
X-397869Y-248880D02*
D03*
X-388344Y-229830D02*
D03*
X-397869Y-210780D02*
D03*
X-388344Y-191730D02*
D03*
X-397869Y-172680D02*
D03*
X-388344Y-153630D02*
D03*
X-397869Y-134580D02*
D03*
X-388344Y-115530D02*
D03*
X-397869Y-96480D02*
D03*
X-388344Y-39330D02*
D03*
Y36870D02*
D03*
X-397869Y208320D02*
D03*
Y246420D02*
D03*
Y322620D02*
D03*
X-388344Y341670D02*
D03*
X-378819Y-363180D02*
D03*
X-369294Y-344130D02*
D03*
Y-267930D02*
D03*
X-378819Y-248880D02*
D03*
X-369294Y-229830D02*
D03*
Y-191730D02*
D03*
Y-153630D02*
D03*
X-378819Y-96480D02*
D03*
X-369294Y-39330D02*
D03*
Y36870D02*
D03*
X-378819Y246420D02*
D03*
Y322620D02*
D03*
Y360720D02*
D03*
X-369294Y379770D02*
D03*
X-350244Y-382230D02*
D03*
Y-344130D02*
D03*
X-359769Y-286980D02*
D03*
X-350244Y-267930D02*
D03*
X-359769Y-248880D02*
D03*
X-350244Y-153630D02*
D03*
X-359769Y-134580D02*
D03*
X-350244Y-115530D02*
D03*
X-359769Y-96480D02*
D03*
X-350244Y-77430D02*
D03*
Y36870D02*
D03*
X-359769Y55920D02*
D03*
Y360720D02*
D03*
X-340719Y-401280D02*
D03*
X-331194Y-382230D02*
D03*
Y-344130D02*
D03*
X-340719Y-286980D02*
D03*
X-331194Y-267930D02*
D03*
X-340719Y-134580D02*
D03*
Y-58380D02*
D03*
Y398820D02*
D03*
X-312144Y-382230D02*
D03*
X-293094Y-344130D02*
D03*
X-302619Y-286980D02*
D03*
Y55920D02*
D03*
X-283569Y-248880D02*
D03*
X-274044Y303570D02*
D03*
X-283569Y436920D02*
D03*
X-254994Y-458430D02*
D03*
X-264519Y-439380D02*
D03*
X-254994Y-229830D02*
D03*
X-264519Y-96480D02*
D03*
X-254994Y303570D02*
D03*
X-264519Y398820D02*
D03*
X-235944Y-458430D02*
D03*
X-245469Y-439380D02*
D03*
X-235944Y-420330D02*
D03*
X-245469Y-401280D02*
D03*
X-235944Y-382230D02*
D03*
Y-229830D02*
D03*
Y-191730D02*
D03*
X-226419Y-439380D02*
D03*
X-216894Y-267930D02*
D03*
X-226419Y-248880D02*
D03*
X-216894Y-229830D02*
D03*
X-226419Y-210780D02*
D03*
X-216894Y-191730D02*
D03*
X-226419Y475020D02*
D03*
X-197844Y-382230D02*
D03*
Y227370D02*
D03*
X-178794D02*
D03*
Y303570D02*
D03*
X-159744Y-306030D02*
D03*
Y-267930D02*
D03*
Y-229830D02*
D03*
Y-191730D02*
D03*
Y-153630D02*
D03*
Y-115530D02*
D03*
X-150219Y-286980D02*
D03*
X-140694Y-267930D02*
D03*
X-150219Y-248880D02*
D03*
X-140694Y-229830D02*
D03*
X-150219Y-210780D02*
D03*
X-140694Y-191730D02*
D03*
X-150219Y-172680D02*
D03*
X-140694Y-153630D02*
D03*
X-150219Y-134580D02*
D03*
X-140694Y-115530D02*
D03*
X-150219Y-96480D02*
D03*
Y436920D02*
D03*
X-131169Y-248880D02*
D03*
X-121644Y-229830D02*
D03*
X-131169Y-210780D02*
D03*
X-121644Y-191730D02*
D03*
X-131169Y-172680D02*
D03*
X-121644Y-153630D02*
D03*
X-131169Y-134580D02*
D03*
X-121644Y455970D02*
D03*
X-131169Y513120D02*
D03*
X-112119Y-210780D02*
D03*
X-102594Y-191730D02*
D03*
X-112119Y-172680D02*
D03*
X-102594Y-153630D02*
D03*
Y227370D02*
D03*
Y341670D02*
D03*
X-93069Y-172680D02*
D03*
X-74019Y246420D02*
D03*
X-64494Y341670D02*
D03*
X-54969Y170220D02*
D03*
Y322620D02*
D03*
X-35919D02*
D03*
X-16869Y246420D02*
D03*
Y322620D02*
D03*
X2181D02*
D03*
X11706Y341670D02*
D03*
X21231Y322620D02*
D03*
X30756Y341670D02*
D03*
X49806Y189270D02*
D03*
X40281Y246420D02*
D03*
X49806Y265470D02*
D03*
Y303570D02*
D03*
X40281Y322620D02*
D03*
X59331Y284520D02*
D03*
X68856Y303570D02*
D03*
X78381Y284520D02*
D03*
X97431Y246420D02*
D03*
X106956Y265470D02*
D03*
X97431Y475020D02*
D03*
X126006Y265470D02*
D03*
X135531Y246420D02*
D03*
X145056Y265470D02*
D03*
X135531Y284520D02*
D03*
X154581Y246420D02*
D03*
X164106Y265470D02*
D03*
X154581Y284520D02*
D03*
Y436920D02*
D03*
X173631Y246420D02*
D03*
X183156Y265470D02*
D03*
X173631Y284520D02*
D03*
X192681Y246420D02*
D03*
X202206Y265470D02*
D03*
X192681Y284520D02*
D03*
X211731Y246420D02*
D03*
X221256Y265470D02*
D03*
X211731Y284520D02*
D03*
X240306Y265470D02*
D03*
X230781Y284520D02*
D03*
X240306Y379770D02*
D03*
Y417870D02*
D03*
X249831Y246420D02*
D03*
X259356Y265470D02*
D03*
X249831Y284520D02*
D03*
Y322620D02*
D03*
X259356Y379770D02*
D03*
X249831Y398820D02*
D03*
X278406Y265470D02*
D03*
X268881Y284520D02*
D03*
X287931Y246420D02*
D03*
X297456Y265470D02*
D03*
X287931Y284520D02*
D03*
X306981Y246420D02*
D03*
X316506Y265470D02*
D03*
X306981Y284520D02*
D03*
X316506Y379770D02*
D03*
X326031Y246420D02*
D03*
X335556Y265470D02*
D03*
X326031Y284520D02*
D03*
X335556Y303570D02*
D03*
X345081Y246420D02*
D03*
X354606Y265470D02*
D03*
X345081Y284520D02*
D03*
X354606Y303570D02*
D03*
X373656Y265470D02*
D03*
X364131Y284520D02*
D03*
X373656Y303570D02*
D03*
X383181Y246420D02*
D03*
Y284520D02*
D03*
Y322620D02*
D03*
Y360720D02*
D03*
X-462685Y-256894D02*
D03*
X-453438Y-272885D02*
D03*
X-443638Y-288543D02*
D03*
X-433298Y-303850D02*
D03*
X-422430Y-318787D02*
D03*
X-411047Y-333335D02*
D03*
X-399163Y-347478D02*
D03*
X-386793Y-361197D02*
D03*
X-373952Y-374476D02*
D03*
X-360655Y-387298D02*
D03*
X-346919Y-399649D02*
D03*
X-332760Y-411513D02*
D03*
X-272250Y-453819D02*
D03*
X-239930Y-471705D02*
D03*
X373952Y374475D02*
D03*
X332760Y411512D02*
D03*
X272250Y453819D02*
D03*
X256246Y463044D02*
D03*
X239930Y471705D02*
D03*
X223322Y479791D02*
D03*
X206441Y487292D02*
D03*
X189309Y494200D02*
D03*
X-101343Y519424D02*
D03*
X-137329Y511090D02*
D03*
X-155082Y505986D02*
D03*
X-172646Y500265D02*
D03*
X-256894Y462685D02*
D03*
X-288543Y443638D02*
D03*
X-303850Y433298D02*
D03*
X-318787Y422430D02*
D03*
X-333335Y411047D02*
D03*
X-347478Y399163D02*
D03*
X-361197Y386793D02*
D03*
X-374475Y373952D02*
D03*
X-387298Y360655D02*
D03*
X-399649Y346919D02*
D03*
X-411512Y332760D02*
D03*
X-453819Y272250D02*
D03*
X-471705Y239930D02*
D03*
X-479791Y223322D02*
D03*
X-487292Y206441D02*
D03*
X-494200Y189309D02*
D03*
X-515737Y118688D02*
D03*
X-519565Y100616D02*
D03*
X-522760Y82423D02*
D03*
X-525318Y64128D02*
D03*
X-527236Y45756D02*
D03*
X-528512Y27328D02*
D03*
X-529144Y8866D02*
D03*
X-529131Y-9606D02*
D03*
X-528473Y-28067D02*
D03*
X-527172Y-46493D02*
D03*
X-525228Y-64863D02*
D03*
X-522645Y-83153D02*
D03*
X-519424Y-101343D02*
D03*
X-515571Y-119409D02*
D03*
X-500265Y-172646D02*
D03*
X-493935Y-190000D02*
D03*
X-487003Y-207123D02*
D03*
X-479478Y-223993D02*
D03*
X-471369Y-240590D02*
D03*
X74930Y340360D02*
D03*
X-101600Y323850D02*
D03*
X35560Y264160D02*
D03*
X39370Y297180D02*
D03*
X-72390Y325120D02*
D03*
X-106680Y306070D02*
D03*
X-134620Y303530D02*
D03*
X-188319Y-363180D02*
D03*
X-178794Y-344130D02*
D03*
X-195834Y-52070D02*
D03*
X-310282Y118872D02*
D03*
X-205710Y217160D02*
D03*
X127762Y478790D02*
D03*
X86360Y506730D02*
D03*
X87630Y513592D02*
D03*
X114590Y479552D02*
D03*
X-124206Y494919D02*
D03*
X54610Y214630D02*
D03*
X161290Y505460D02*
D03*
X154940Y499110D02*
D03*
X161290D02*
D03*
X167640Y502920D02*
D03*
X-5545Y500845D02*
D03*
X-103Y500743D02*
D03*
X154940Y505460D02*
D03*
X-76200Y494370D02*
D03*
X-63500D02*
D03*
X-50800D02*
D03*
X-88900D02*
D03*
X-203200Y96520D02*
D03*
X-200660Y435610D02*
D03*
X-178308Y441960D02*
D03*
X-232410Y400050D02*
D03*
X38100Y377190D02*
D03*
X-133350Y327660D02*
D03*
X-234950Y440690D02*
D03*
X-210762Y450792D02*
D03*
X-103378Y368300D02*
D03*
X-505461Y-15239D02*
D03*
X-505729Y1D02*
D03*
X-350520Y68580D02*
D03*
X-192430Y-3150D02*
D03*
X-175356Y-14812D02*
D03*
X-364490Y0D02*
D03*
X77470Y237490D02*
D03*
X-285750Y-5080D02*
D03*
Y-12700D02*
D03*
Y-20320D02*
D03*
Y-27940D02*
D03*
Y-80010D02*
D03*
Y-72390D02*
D03*
Y-64770D02*
D03*
Y-147320D02*
D03*
Y-139700D02*
D03*
Y-132080D02*
D03*
Y-124460D02*
D03*
X-124000Y215440D02*
D03*
X-316230Y240030D02*
D03*
X-278130Y43180D02*
D03*
X-285750Y-87630D02*
D03*
X-457200Y105410D02*
D03*
X-262890Y318770D02*
D03*
X-435873Y175891D02*
D03*
X-323850Y17272D02*
D03*
X-411480Y13970D02*
D03*
X-271780Y364490D02*
D03*
X-195834Y-23487D02*
D03*
X-262890Y364490D02*
D03*
X110236Y511048D02*
D03*
X66548Y503936D02*
D03*
X-114300Y510540D02*
D03*
Y504190D02*
D03*
X-98234D02*
D03*
X-114300Y497840D02*
D03*
X94234Y517906D02*
D03*
X80590Y514350D02*
D03*
X63754Y399542D02*
D03*
X26924Y398780D02*
D03*
X12446Y399034D02*
D03*
X0Y399137D02*
D03*
X-12700Y398780D02*
D03*
X-25146D02*
D03*
X-38100Y399288D02*
D03*
X-238760Y104140D02*
D03*
X-192151Y112649D02*
D03*
X-333860Y172409D02*
D03*
X-327914Y170180D02*
D03*
X116078Y402082D02*
D03*
X-314325Y151658D02*
D03*
X-316738Y169291D02*
D03*
X-312420Y128143D02*
D03*
X-262509Y115318D02*
D03*
X-228346Y109240D02*
D03*
X-191770Y191770D02*
D03*
X-246996Y226932D02*
D03*
X-247034Y220568D02*
D03*
X-256159Y224790D02*
D03*
X-255417Y238653D02*
D03*
X-328930Y194310D02*
D03*
X-350520Y156210D02*
D03*
X-350056Y149396D02*
D03*
X-356870Y120650D02*
D03*
X-358140Y134620D02*
D03*
X-288290Y370840D02*
D03*
Y379730D02*
D03*
Y388620D02*
D03*
X-262890Y389890D02*
D03*
Y381000D02*
D03*
X-133096Y316160D02*
D03*
X-133366Y309816D02*
D03*
X88900Y295910D02*
D03*
X53735Y373657D02*
D03*
X-74930Y382270D02*
D03*
X80010Y332740D02*
D03*
X78734Y367975D02*
D03*
X66040Y369570D02*
D03*
X-45444Y341670D02*
D03*
X-342900Y-19050D02*
D03*
X-365760Y12700D02*
D03*
X-358140Y27940D02*
D03*
X-342127Y33517D02*
D03*
X-336550Y26162D02*
D03*
X-322580Y29210D02*
D03*
X183706Y411020D02*
D03*
X-350148Y372863D02*
D03*
X-333530Y-315440D02*
D03*
X24130Y468630D02*
D03*
X7160Y502460D02*
D03*
X7010Y514453D02*
D03*
X-210058Y23540D02*
D03*
X-38100Y510540D02*
D03*
X50800Y486410D02*
D03*
X-203900Y86360D02*
D03*
X-92710Y227330D02*
D03*
Y219710D02*
D03*
Y212090D02*
D03*
X-73660Y297406D02*
D03*
Y303756D02*
D03*
X-96520Y171450D02*
D03*
X-246380Y53340D02*
D03*
X-375920Y-179070D02*
D03*
X-370840Y-172720D02*
D03*
X-363220Y-168910D02*
D03*
X-83820Y226060D02*
D03*
X105410Y410210D02*
D03*
Y416560D02*
D03*
X42810Y527153D02*
D03*
X44450Y501650D02*
D03*
X57150D02*
D03*
X36558D02*
D03*
X77470Y491490D02*
D03*
X12767Y198053D02*
D03*
X-83820Y176530D02*
D03*
X-88900Y171450D02*
D03*
X-163830Y116840D02*
D03*
X-223520Y60960D02*
D03*
X-306070Y-173990D02*
D03*
X-420370Y-50800D02*
D03*
X-414020D02*
D03*
X-407670D02*
D03*
X-234950Y-36830D02*
D03*
Y-31115D02*
D03*
Y-25400D02*
D03*
X-394970Y-337820D02*
D03*
X-255270D02*
D03*
X-248920Y-331470D02*
D03*
X-371995Y-220980D02*
D03*
X-366915Y-215900D02*
D03*
X-241935Y86995D02*
D03*
X-302260Y90170D02*
D03*
Y101600D02*
D03*
X-256540Y48260D02*
D03*
X-262890Y90170D02*
D03*
X-238760Y67310D02*
D03*
X-462280Y-26670D02*
D03*
Y-34290D02*
D03*
Y-41910D02*
D03*
X-233680Y39370D02*
D03*
X-157798Y88710D02*
D03*
X-168402Y104140D02*
D03*
X-153924Y167640D02*
D03*
X-177026Y170336D02*
D03*
X-173938Y161362D02*
D03*
X-177649Y156210D02*
D03*
X-120650Y144780D02*
D03*
X-92710Y160020D02*
D03*
X-85090D02*
D03*
X-80010Y165100D02*
D03*
X19050Y253905D02*
D03*
X19050Y246380D02*
D03*
X13910Y524450D02*
D03*
X74930Y208280D02*
D03*
X79317Y226060D02*
D03*
X67887Y214630D02*
D03*
X56457Y203200D02*
D03*
X66040Y226060D02*
D03*
X112524Y455166D02*
D03*
X115840Y411290D02*
D03*
X199390Y466090D02*
D03*
X-468630Y17780D02*
D03*
X-259080D02*
D03*
X-252730Y111498D02*
D03*
X-322580Y58420D02*
D03*
X-330200D02*
D03*
X-374142Y180340D02*
D03*
Y188584D02*
D03*
X-331470Y66040D02*
D03*
X-350613Y90077D02*
D03*
X-338762Y99060D02*
D03*
X-341630Y85090D02*
D03*
Y138430D02*
D03*
X-393700Y77470D02*
D03*
X-399288Y127000D02*
D03*
X-396240Y120400D02*
D03*
Y132667D02*
D03*
X-339090Y118110D02*
D03*
X-340360Y154940D02*
D03*
X-345928Y144083D02*
D03*
X-360680Y48260D02*
D03*
X-399288Y51308D02*
D03*
Y88900D02*
D03*
X-414020Y83598D02*
D03*
X-459740Y87542D02*
D03*
X-421132Y0D02*
D03*
X-416560Y-15240D02*
D03*
X-186953Y178645D02*
D03*
X-195095Y173963D02*
D03*
X-163830Y285750D02*
D03*
X-168910Y278130D02*
D03*
X-162560Y208280D02*
D03*
X-163141Y182191D02*
D03*
X-167640Y186690D02*
D03*
X-173602Y177412D02*
D03*
X-179660Y184284D02*
D03*
X-411480Y50800D02*
D03*
X-396240Y144934D02*
D03*
Y165100D02*
D03*
X-364490Y147320D02*
D03*
X-384810Y91440D02*
D03*
X-79502Y372110D02*
D03*
Y361950D02*
D03*
X-104140Y401320D02*
D03*
X-81280Y378460D02*
D03*
X-105410Y392430D02*
D03*
X-203200Y144824D02*
D03*
X-177038Y57910D02*
D03*
X-178562Y47614D02*
D03*
X-336550Y80010D02*
D03*
X-342900Y130810D02*
D03*
X-205840Y33120D02*
D03*
X-210774Y41107D02*
D03*
X-133350Y213360D02*
D03*
X-157480Y228600D02*
D03*
X-142240Y421640D02*
D03*
X-148590Y416560D02*
D03*
X-173077Y192278D02*
D03*
X-247650Y412750D02*
D03*
X-241300Y405130D02*
D03*
X-143510Y398780D02*
D03*
X-180340D02*
D03*
X-205275Y400515D02*
D03*
X-148590Y274320D02*
D03*
X-131636Y201539D02*
D03*
X-136398Y205740D02*
D03*
X-152400Y222250D02*
D03*
X-148351Y190932D02*
D03*
X-148336Y177800D02*
D03*
X-146050Y196850D02*
D03*
X-181610D02*
D03*
X-140970Y213360D02*
D03*
X99060Y410210D02*
D03*
Y416560D02*
D03*
X-326390Y304800D02*
D03*
X-298482Y334042D02*
D03*
X-295148Y349896D02*
D03*
X-340360Y299720D02*
D03*
Y175260D02*
D03*
X-343408Y283800D02*
D03*
X-387350Y194310D02*
D03*
X-347980Y288290D02*
D03*
X-345440Y179070D02*
D03*
X-247650Y427990D02*
D03*
X-324508Y398105D02*
D03*
X-312420Y411480D02*
D03*
X-337820Y386080D02*
D03*
X-283210Y274320D02*
D03*
X-304800Y283210D02*
D03*
X-328930D02*
D03*
X-335280Y293370D02*
D03*
X-314960Y280670D02*
D03*
X-322580Y278130D02*
D03*
X-195577Y273812D02*
D03*
X-201229Y303286D02*
D03*
X-149098Y348662D02*
D03*
X-161036Y356870D02*
D03*
X-166370Y340360D02*
D03*
X-161290Y426720D02*
D03*
X-156510Y410810D02*
D03*
X-153670Y405130D02*
D03*
X-215900Y295910D02*
D03*
X-233680Y297180D02*
D03*
X-240134Y297227D02*
D03*
X-52070Y251955D02*
D03*
X11430Y259080D02*
D03*
X-52070Y198120D02*
D03*
X-404876Y220980D02*
D03*
X-408940Y233680D02*
D03*
X-414020Y228600D02*
D03*
X-220980Y228854D02*
D03*
X-224790Y223520D02*
D03*
X-228600Y228854D02*
D03*
X-256159Y231264D02*
D03*
X-414020Y71330D02*
D03*
Y59063D02*
D03*
X-364490Y96520D02*
D03*
Y109220D02*
D03*
Y121920D02*
D03*
Y134620D02*
D03*
X-375920Y204470D02*
D03*
X-382270Y199390D02*
D03*
X-467360Y82716D02*
D03*
X-467594Y95043D02*
D03*
X-457200Y167386D02*
D03*
Y176530D02*
D03*
X-367030Y160020D02*
D03*
X-182880Y464820D02*
D03*
Y458470D02*
D03*
X37510Y282530D02*
D03*
X33020Y287020D02*
D03*
X23540Y258490D02*
D03*
X-101600Y300266D02*
D03*
Y293916D02*
D03*
X-68580Y318770D02*
D03*
X-68615Y312374D02*
D03*
X-331470Y-252730D02*
D03*
X-210820Y109220D02*
D03*
X-259080Y-325120D02*
D03*
X-267970Y-316230D02*
D03*
X-276860Y-307340D02*
D03*
X-363220Y-308610D02*
D03*
X-364490Y-321310D02*
D03*
X-331470Y-275590D02*
D03*
X-367030D02*
D03*
X-349250Y-280670D02*
D03*
X-405130Y-294640D02*
D03*
X-394970Y-293370D02*
D03*
X-408940Y-314960D02*
D03*
X-388620Y-315440D02*
D03*
X-405130Y-336550D02*
D03*
X-367030Y-358140D02*
D03*
X-331470Y-356870D02*
D03*
X-349250Y-351790D02*
D03*
X-294640Y-336550D02*
D03*
X-304800Y-335280D02*
D03*
X-288290Y-321310D02*
D03*
X-294640Y-294640D02*
D03*
X-304800Y-295910D02*
D03*
X-285750Y-307340D02*
D03*
X-341630Y-245110D02*
D03*
X-350520Y-236220D02*
D03*
X-360680Y-227330D02*
D03*
X-270510Y-209550D02*
D03*
X-279400Y-200660D02*
D03*
X-288290Y-191770D02*
D03*
X-297180Y-182880D02*
D03*
X-396240Y108132D02*
D03*
Y157201D02*
D03*
X-452120Y157480D02*
D03*
Y119380D02*
D03*
X-452234Y131479D02*
D03*
X-452120Y144052D02*
D03*
X-487680Y87630D02*
D03*
Y100330D02*
D03*
X-480060Y113030D02*
D03*
Y125730D02*
D03*
Y138430D02*
D03*
Y151130D02*
D03*
Y163830D02*
D03*
X-479421Y176530D02*
D03*
X63500Y466090D02*
D03*
X12700D02*
D03*
X76200Y471170D02*
D03*
X38100Y476250D02*
D03*
X24344Y481838D02*
D03*
X-88900Y473370D02*
D03*
X-76200D02*
D03*
X-50800D02*
D03*
X-63500D02*
D03*
X-284118Y255889D02*
D03*
D107*
X-262690Y172146D02*
D03*
X-256190D02*
D03*
X-262690Y165646D02*
D03*
X-256190D02*
D03*
X-249690Y165646D02*
D03*
Y172146D02*
D03*
X-269190Y172146D02*
D03*
Y165646D02*
D03*
X-275690D02*
D03*
Y172146D02*
D03*
X-282190Y165646D02*
D03*
X-275690Y159146D02*
D03*
X-282190D02*
D03*
X-243190D02*
D03*
X-275690Y178646D02*
D03*
X-269190D02*
D03*
X-262690D02*
D03*
X-256190D02*
D03*
X-249690D02*
D03*
X-310651Y214274D02*
D03*
X-242775Y390001D02*
D03*
D108*
X-25400Y312420D02*
D03*
X-15240D02*
D03*
X8890Y364490D02*
D03*
X-52070Y311150D02*
D03*
X11430D02*
D03*
X-52070Y365760D02*
D03*
D113*
X-242824Y99822D02*
X-235458D01*
X-244094Y101092D02*
X-242824Y99822D01*
X-244094Y101092D02*
Y105076D01*
X-238760Y104140D02*
X-233680Y109220D01*
X-235458Y99822D02*
X-231140Y104140D01*
X-184690Y222250D02*
X-152400D01*
X-207518D02*
X-184690D01*
X-209804Y218532D02*
Y219964D01*
X-207518Y222250D01*
X-312420Y128143D02*
Y128270D01*
X-307544Y133146D01*
X-240030Y109140D02*
Y113030D01*
X-244094Y105076D02*
X-240030Y109140D01*
X-226672Y169164D02*
X-184690D01*
X-230190Y165646D02*
X-226672Y169164D01*
X-184690Y187198D02*
X-184151D01*
X-182808Y185855D01*
X-182263D01*
X-180692Y184284D01*
X-211075Y200660D02*
X-201930D01*
X-198755Y203835D01*
X-211886Y201471D02*
X-211075Y200660D01*
X-217190Y198146D02*
X-199364D01*
X-198755Y203835D02*
X-184690D01*
X-199364Y198146D02*
X-196215Y201295D01*
X-184690D01*
X-235458Y217239D02*
Y233896D01*
X-236690Y216007D02*
X-235458Y217239D01*
X-358140Y164882D02*
X-355600Y162342D01*
Y138430D02*
Y162342D01*
X-365760Y168910D02*
X-358140Y161290D01*
Y134620D02*
Y161290D01*
X-356870Y120650D02*
X-353060Y124460D01*
Y135890D01*
X-355600Y138430D02*
X-353060Y135890D01*
X-358140Y164882D02*
Y165100D01*
X-363220Y170180D02*
Y310098D01*
Y170180D02*
X-358140Y165100D01*
X-365760Y168910D02*
Y311150D01*
X-363220Y310098D02*
X-293588Y379730D01*
X-365760Y311150D02*
X-288290Y388620D01*
X-293588Y379730D02*
X-288290D01*
X-307544Y133146D02*
X-301690D01*
X-262890Y388620D02*
Y389890D01*
Y388620D02*
X-252954Y378684D01*
X-246592Y375745D02*
X-245848Y375001D01*
X-248749Y378684D02*
X-246592Y376526D01*
X-252954Y378684D02*
X-248749D01*
X-245848Y375001D02*
X-242775D01*
X-246592Y375745D02*
Y376526D01*
X-262890Y381000D02*
X-256891Y375001D01*
X-250275D01*
X-233680Y109220D02*
Y121920D01*
X-231140Y104140D02*
X-199609D01*
X-233680Y39370D02*
X-213100D01*
X-199609Y104140D02*
X-168402D01*
X-177800Y165100D02*
X-177009Y165891D01*
X-180340Y162560D02*
X-177800Y165100D01*
X-174706Y166370D02*
X-154668D01*
X-177009Y165891D02*
X-175185D01*
X-174706Y166370D01*
X-154668D02*
X-153924Y167114D01*
Y167640D01*
X-384810Y48260D02*
X-360680D01*
X-387858Y51308D02*
X-384810Y48260D01*
X-399288Y51308D02*
X-387858D01*
X-419100Y88900D02*
X-399288D01*
X-420458Y87542D02*
X-419100Y88900D01*
X-459740Y87542D02*
X-420458D01*
X-158814Y205740D02*
X-136398D01*
X-184690Y203835D02*
X-160719D01*
X-158814Y205740D01*
X-175260Y186690D02*
X-167640D01*
X-182880Y190500D02*
X-179070D01*
X-175260Y186690D01*
X-180692Y184284D02*
X-179660D01*
X-184690Y192310D02*
X-182880Y190500D01*
X-211363Y41107D02*
X-210774D01*
X-213100Y39370D02*
X-211363Y41107D01*
X-200830Y387426D02*
Y407670D01*
X-201458Y371318D02*
Y386798D01*
X-205275Y367501D02*
X-201458Y371318D01*
X-194000Y371276D02*
Y396500D01*
X-201458Y386798D02*
X-200830Y387426D01*
X-184690Y201295D02*
X-131880D01*
X-131636Y201539D01*
X-217190Y211146D02*
X-209804Y218532D01*
X-208280Y162560D02*
X-180340D01*
X-157239Y410081D02*
X-156510Y410810D01*
X-236690Y211146D02*
Y216007D01*
X-197775Y367501D02*
X-194000Y371276D01*
D114*
X101600Y361950D02*
X133350Y393700D01*
X101600Y278130D02*
Y361950D01*
X54610Y214630D02*
Y231140D01*
X101600Y278130D01*
X133350Y499110D02*
Y505460D01*
Y393700D02*
Y499110D01*
X-179913Y169753D02*
X-177609D01*
X-184690Y169164D02*
X-180502D01*
X-177609Y169753D02*
X-177026Y170336D01*
X-180502Y169164D02*
X-179913Y169753D01*
X183706Y411020D02*
Y450406D01*
X199390Y466090D01*
X112524Y455166D02*
X115840Y451850D01*
Y411290D02*
Y451850D01*
X-240179Y297183D02*
X-240134Y297227D01*
D115*
X154940Y505460D02*
X161290D01*
X154940Y499110D02*
Y505460D01*
Y499110D02*
X161290D01*
X133350Y505460D02*
X154940D01*
X161290Y499110D02*
Y505460D01*
X85000Y499110D02*
X133350D01*
X635Y499745D02*
Y499867D01*
Y499745D02*
X5080Y495300D01*
X-206Y500845D02*
X-103Y500743D01*
X-5545Y500845D02*
X-344D01*
X-206D01*
X-344D02*
X635Y499867D01*
X76591Y503311D02*
X80799D01*
X5080Y495300D02*
X68580D01*
X76591Y503311D01*
X80799D02*
X85000Y499110D01*
X94234Y517906D02*
X103378D01*
X110236Y511048D01*
X20821Y520109D02*
X36558D01*
X55200D01*
X-104140Y504190D02*
X-102922Y505408D01*
X-86360Y521970D01*
X-114300Y364490D02*
Y497840D01*
Y510540D01*
X-104140Y417830D02*
Y504190D01*
X-114300Y364490D02*
X-92710Y342900D01*
X91567Y520573D02*
X94234Y517906D01*
X10263Y520803D02*
X20127D01*
X55664Y520573D02*
X91567D01*
X55200Y520109D02*
X55664Y520573D01*
X-92710Y227330D02*
Y342900D01*
Y219710D02*
Y227330D01*
Y212090D02*
Y219710D01*
Y364490D02*
X-83820Y355600D01*
X-92710Y364490D02*
Y406400D01*
X-83820Y226060D02*
Y355600D01*
X-96520Y171450D02*
X-88900D01*
X-83820Y176530D01*
Y226060D01*
X20127Y520803D02*
X20821Y520109D01*
X10263Y520803D02*
X13910Y524450D01*
X-8993Y520803D02*
X10263D01*
X-16510Y528320D02*
X-8993Y520803D01*
X-38100Y528320D02*
X-16510D01*
X-44450Y521970D02*
X-38100Y528320D01*
X-86360Y521970D02*
X-44450D01*
X-104140Y417830D02*
X-92710Y406400D01*
D116*
X-321310Y172876D02*
Y194310D01*
X-322072Y129400D02*
Y148506D01*
X-322337Y127878D02*
Y129135D01*
X-322072Y129400D01*
X-322580Y127635D02*
X-322337Y127878D01*
X-322326Y148760D02*
Y171860D01*
Y148760D02*
X-322072Y148506D01*
X-322326Y171860D02*
X-321310Y172876D01*
X-101461Y503947D02*
X-98477D01*
X-98234Y504190D01*
X-104140D02*
X-102679Y502729D01*
X-101461Y503947D01*
D118*
X36558Y501650D02*
Y519112D01*
D121*
X99060Y410210D02*
Y416560D01*
Y369827D02*
Y410210D01*
X88900Y295910D02*
Y358821D01*
Y281940D02*
Y295910D01*
Y358821D02*
X94234Y364155D01*
Y365001D02*
X99060Y369827D01*
X94234Y364155D02*
Y365001D01*
X-234950Y-36830D02*
Y-31115D01*
X-358140Y-46990D02*
X-242570D01*
X-234950Y-39370D01*
X-361950Y-50800D02*
X-358140Y-46990D01*
X-234950Y-39370D02*
Y-36830D01*
Y-31115D02*
Y-25400D01*
X-420370Y-50800D02*
X-414020D01*
X-407670D01*
X-361950D01*
X-92710Y160020D02*
X-85090D01*
X-80010Y165100D01*
X-62230Y182880D01*
X24130D01*
X41910Y200660D01*
Y234950D01*
X88900Y281940D01*
X148631Y322620D02*
X166451Y304800D01*
X270511D01*
X288331Y322620D01*
X268921Y367030D02*
X288331Y347620D01*
X148631D02*
X168041Y367030D01*
X268921D01*
D123*
X-511967Y51196D02*
D03*
X-490132Y45345D02*
D03*
X-468973Y211652D02*
D03*
X-447138Y205801D02*
D03*
D124*
X-409600Y286800D02*
D03*
X286800Y409600D02*
D03*
X-286800Y-409600D02*
D03*
D154*
X-227146Y113681D02*
X-227015Y113812D01*
X-227146Y110440D02*
Y113681D01*
X-227015Y113812D02*
Y136471D01*
X-228346Y109240D02*
X-227146Y110440D01*
X-200416Y187198D02*
X-184690D01*
X-201178Y187960D02*
X-200416Y187198D01*
X-196339Y194821D02*
X-194310Y196850D01*
X-189230D01*
X-220365Y194821D02*
X-196339D01*
X-189230Y196850D02*
X-184690Y192310D01*
X-232664Y230717D02*
Y233896D01*
X-233365Y230016D02*
X-232664Y230717D01*
X-233365Y207971D02*
Y230016D01*
X-240030Y113030D02*
Y125316D01*
X-240015Y125331D02*
Y129971D01*
X-240030Y125316D02*
X-240015Y125331D01*
X-236690Y139646D02*
X-233515Y142821D01*
X-222156D02*
X-220515Y141180D01*
X-233515Y142821D02*
X-222156D01*
X-220515Y136321D02*
Y141180D01*
X-223690Y133146D02*
X-220515Y136321D01*
X-233680Y121920D02*
Y125166D01*
X-233515Y125331D01*
Y134461D01*
X-233680Y134626D02*
X-233515Y134461D01*
X-233680Y134626D02*
Y136636D01*
X-236690Y139646D02*
X-233680Y136636D01*
X-230190Y139646D02*
X-227015Y136471D01*
X-302260Y101600D02*
Y110490D01*
X-292015Y120735D01*
Y136321D01*
X-288690Y139646D01*
X-215514Y187960D02*
X-201178D01*
X-215875Y188321D02*
X-215514Y187960D01*
X-223690Y198146D02*
X-220365Y194821D01*
X-226865Y201471D02*
X-211886D01*
X-230190Y198146D02*
X-226865Y201471D01*
X-215786Y162560D02*
X-208280D01*
X-220515Y162471D02*
X-215875D01*
X-223690Y165646D02*
X-220515Y162471D01*
X-215875D02*
X-215786Y162560D01*
X-298482Y207938D02*
Y233896D01*
Y207938D02*
X-295190Y204646D01*
X-285515Y207971D02*
Y212461D01*
Y207971D02*
X-282190Y204646D01*
X-285750Y212696D02*
X-285515Y212461D01*
X-285750Y212696D02*
Y215900D01*
X-236690Y204646D02*
X-233365Y207971D01*
X-240015Y207821D02*
Y212461D01*
X-243190Y204646D02*
X-240015Y207821D01*
X-240030Y212476D02*
X-240015Y212461D01*
X-240030Y212476D02*
Y215900D01*
X-246380Y201456D02*
Y214630D01*
X-249690Y198146D02*
X-246380Y201456D01*
X-220365Y188321D02*
X-215875D01*
X-223690Y191646D02*
X-220365Y188321D01*
X-243190Y133146D02*
X-240015Y129971D01*
D155*
X158115Y502285D02*
D03*
M02*
