G04*
G04 #@! TF.GenerationSoftware,Altium Limited,Altium Designer,24.1.2 (44)*
G04*
G04 Layer_Color=8388736*
%FSLAX44Y44*%
%MOMM*%
G71*
G04*
G04 #@! TF.SameCoordinates,E650615F-92BB-4AA2-81C1-946A8B7DB211*
G04*
G04*
G04 #@! TF.FilePolarity,Negative*
G04*
G01*
G75*
%ADD19R,0.5220X0.7250*%
%ADD38R,0.7400X1.6750*%
%ADD42O,0.6000X1.4500*%
%ADD43O,1.4500X0.6000*%
G04:AMPARAMS|DCode=48|XSize=0.28mm|YSize=0.75mm|CornerRadius=0.0504mm|HoleSize=0mm|Usage=FLASHONLY|Rotation=90.000|XOffset=0mm|YOffset=0mm|HoleType=Round|Shape=RoundedRectangle|*
%AMROUNDEDRECTD48*
21,1,0.2800,0.6492,0,0,90.0*
21,1,0.1792,0.7500,0,0,90.0*
1,1,0.1008,0.3246,0.0896*
1,1,0.1008,0.3246,-0.0896*
1,1,0.1008,-0.3246,-0.0896*
1,1,0.1008,-0.3246,0.0896*
%
%ADD48ROUNDEDRECTD48*%
%ADD51R,0.4682X0.4725*%
%ADD52R,1.6000X3.2000*%
%ADD54R,0.7600X1.6700*%
G04:AMPARAMS|DCode=58|XSize=0.28mm|YSize=0.85mm|CornerRadius=0.0504mm|HoleSize=0mm|Usage=FLASHONLY|Rotation=90.000|XOffset=0mm|YOffset=0mm|HoleType=Round|Shape=RoundedRectangle|*
%AMROUNDEDRECTD58*
21,1,0.2800,0.7492,0,0,90.0*
21,1,0.1792,0.8500,0,0,90.0*
1,1,0.1008,0.3746,0.0896*
1,1,0.1008,0.3746,-0.0896*
1,1,0.1008,-0.3746,-0.0896*
1,1,0.1008,-0.3746,0.0896*
%
%ADD58ROUNDEDRECTD58*%
%ADD60R,0.3500X1.2500*%
%ADD61O,0.3500X1.2500*%
%ADD62O,1.2500X0.3500*%
%ADD63R,1.2500X0.3500*%
%ADD64C,0.3000*%
%ADD65R,0.6000X0.6000*%
%ADD66R,0.3600X0.4200*%
%ADD67R,0.4500X0.5000*%
%ADD68C,0.4000*%
%ADD69R,0.6080X0.6588*%
%ADD70R,0.3500X0.4000*%
%ADD71R,0.4000X0.3500*%
%ADD72R,0.4620X0.3520*%
%ADD73R,0.5000X0.4500*%
%ADD74R,1.6000X5.5000*%
%ADD75R,0.4200X0.3600*%
%ADD76R,0.4500X0.2905*%
%ADD77R,0.7100X0.3700*%
%ADD78R,1.3500X1.4500*%
%ADD79C,0.5318*%
%ADD80R,0.8620X1.3700*%
%ADD81R,0.3800X0.6300*%
%ADD82R,0.6300X0.3800*%
G04:AMPARAMS|DCode=83|XSize=1.243mm|YSize=0.8366mm|CornerRadius=0mm|HoleSize=0mm|Usage=FLASHONLY|Rotation=165.000|XOffset=0mm|YOffset=0mm|HoleType=Round|Shape=Rectangle|*
%AMROTATEDRECTD83*
4,1,4,0.7086,0.2432,0.4921,-0.5649,-0.7086,-0.2432,-0.4921,0.5649,0.7086,0.2432,0.0*
%
%ADD83ROTATEDRECTD83*%

%ADD84R,1.0520X1.0020*%
%ADD85R,1.0000X0.9000*%
%ADD86R,0.6588X0.6080*%
%ADD87R,1.2430X1.3700*%
%ADD88R,1.3700X1.2430*%
G04:AMPARAMS|DCode=89|XSize=0.3mm|YSize=0.45mm|CornerRadius=0mm|HoleSize=0mm|Usage=FLASHONLY|Rotation=135.000|XOffset=0mm|YOffset=0mm|HoleType=Round|Shape=Rectangle|*
%AMROTATEDRECTD89*
4,1,4,0.2652,0.0530,-0.0530,-0.2652,-0.2652,-0.0530,0.0530,0.2652,0.2652,0.0530,0.0*
%
%ADD89ROTATEDRECTD89*%

%ADD90R,0.3000X0.4500*%
%ADD91R,0.9000X0.5000*%
%ADD92R,0.7500X1.0000*%
G04:AMPARAMS|DCode=93|XSize=0.8mm|YSize=0.6mm|CornerRadius=0mm|HoleSize=0mm|Usage=FLASHONLY|Rotation=315.000|XOffset=0mm|YOffset=0mm|HoleType=Round|Shape=Rectangle|*
%AMROTATEDRECTD93*
4,1,4,-0.4950,0.0707,-0.0707,0.4950,0.4950,-0.0707,0.0707,-0.4950,-0.4950,0.0707,0.0*
%
%ADD93ROTATEDRECTD93*%

G04:AMPARAMS|DCode=94|XSize=3.532mm|YSize=1.882mm|CornerRadius=0mm|HoleSize=0mm|Usage=FLASHONLY|Rotation=135.000|XOffset=0mm|YOffset=0mm|HoleType=Round|Shape=Rectangle|*
%AMROTATEDRECTD94*
4,1,4,1.9141,-0.5834,0.5834,-1.9141,-1.9141,0.5834,-0.5834,1.9141,1.9141,-0.5834,0.0*
%
%ADD94ROTATEDRECTD94*%

%ADD95C,1.1000*%
%ADD96R,2.7670X2.6400*%
%ADD97R,0.4500X0.7000*%
%ADD98C,0.8000*%
%ADD99C,1.9050*%
%ADD100C,1.9000*%
%ADD101C,1.4224*%
%ADD102C,0.0400*%
%ADD103C,0.1000*%
%ADD104C,6.6016*%
%ADD105C,0.3048*%
%ADD106C,0.5080*%
%ADD107C,0.3556*%
%ADD108C,0.4064*%
G36*
X-266840Y79799D02*
X-266744Y79769D01*
X-266655Y79722D01*
X-266577Y79658D01*
X-266514Y79581D01*
X-266467Y79492D01*
X-266437Y79396D01*
X-266427Y79296D01*
Y70446D01*
X-266427Y70446D01*
X-266437Y70346D01*
X-266467Y70250D01*
X-266514Y70161D01*
X-266577Y70084D01*
X-269127Y67534D01*
X-269128Y67534D01*
X-269205Y67470D01*
X-269294Y67422D01*
X-269390Y67393D01*
X-269490Y67383D01*
X-294890D01*
X-294890Y67383D01*
X-294990Y67393D01*
X-295086Y67422D01*
X-295175Y67470D01*
X-295252Y67534D01*
X-297802Y70083D01*
X-297802Y70084D01*
X-297866Y70161D01*
X-297913Y70250D01*
X-297943Y70346D01*
X-297952Y70446D01*
X-297952Y79296D01*
X-297943Y79396D01*
X-297913Y79492D01*
X-297866Y79581D01*
X-297802Y79658D01*
X-297725Y79722D01*
X-297636Y79769D01*
X-297540Y79799D01*
X-297440Y79808D01*
X-290440D01*
X-290416Y79806D01*
X-290392Y79806D01*
X-290366Y79801D01*
X-290340Y79799D01*
X-290317Y79792D01*
X-290294Y79787D01*
X-290269Y79777D01*
X-290244Y79769D01*
X-290223Y79758D01*
X-290201Y79749D01*
X-290179Y79735D01*
X-290155Y79722D01*
X-290137Y79707D01*
X-290117Y79694D01*
X-290098Y79675D01*
X-290078Y79658D01*
X-290062Y79640D01*
X-290045Y79623D01*
X-287049Y76008D01*
X-277331D01*
X-274335Y79623D01*
X-274318Y79640D01*
X-274302Y79658D01*
X-274282Y79675D01*
X-274263Y79694D01*
X-274243Y79707D01*
X-274225Y79722D01*
X-274201Y79735D01*
X-274179Y79749D01*
X-274157Y79758D01*
X-274136Y79769D01*
X-274111Y79777D01*
X-274086Y79787D01*
X-274063Y79792D01*
X-274040Y79799D01*
X-274014Y79801D01*
X-273988Y79806D01*
X-273964Y79806D01*
X-273940Y79808D01*
X-266940D01*
X-266840Y79799D01*
D02*
G37*
G36*
X-269390Y101399D02*
X-269294Y101369D01*
X-269205Y101322D01*
X-269128Y101258D01*
X-266578Y98708D01*
X-266578Y98708D01*
X-266514Y98631D01*
X-266467Y98542D01*
X-266437Y98446D01*
X-266427Y98346D01*
X-266427Y89496D01*
X-266437Y89396D01*
X-266467Y89300D01*
X-266514Y89211D01*
X-266577Y89134D01*
X-266655Y89070D01*
X-266744Y89023D01*
X-266840Y88993D01*
X-266940Y88983D01*
X-273940D01*
X-273964Y88986D01*
X-273988Y88986D01*
X-274014Y88991D01*
X-274040Y88993D01*
X-274063Y89000D01*
X-274086Y89005D01*
X-274111Y89015D01*
X-274136Y89023D01*
X-274157Y89034D01*
X-274179Y89043D01*
X-274201Y89057D01*
X-274225Y89070D01*
X-274243Y89085D01*
X-274263Y89098D01*
X-274282Y89117D01*
X-274302Y89134D01*
X-274318Y89152D01*
X-274335Y89169D01*
X-277331Y92783D01*
X-287052D01*
X-290119Y89165D01*
X-290134Y89150D01*
X-290148Y89134D01*
X-290170Y89115D01*
X-290191Y89095D01*
X-290209Y89083D01*
X-290225Y89070D01*
X-290251Y89056D01*
X-290275Y89040D01*
X-290295Y89032D01*
X-290314Y89023D01*
X-290342Y89014D01*
X-290369Y89003D01*
X-290390Y88999D01*
X-290410Y88993D01*
X-290439Y88990D01*
X-290468Y88985D01*
X-290489Y88986D01*
X-290510Y88983D01*
X-297440D01*
X-297540Y88993D01*
X-297636Y89023D01*
X-297725Y89070D01*
X-297802Y89134D01*
X-297866Y89211D01*
X-297913Y89300D01*
X-297943Y89396D01*
X-297952Y89496D01*
Y98346D01*
X-297952Y98346D01*
X-297943Y98446D01*
X-297913Y98542D01*
X-297866Y98631D01*
X-297802Y98708D01*
X-295252Y101258D01*
X-295252Y101258D01*
X-295175Y101322D01*
X-295086Y101369D01*
X-294990Y101399D01*
X-294890Y101408D01*
X-269490D01*
X-269490Y101408D01*
X-269390Y101399D01*
D02*
G37*
G36*
X184260Y471653D02*
X184356Y471623D01*
X184445Y471576D01*
X184522Y471512D01*
X184586Y471435D01*
X184634Y471346D01*
X184663Y471250D01*
X184673Y471150D01*
Y462300D01*
X184673Y462300D01*
X184663Y462200D01*
X184634Y462104D01*
X184586Y462015D01*
X184522Y461938D01*
X181973Y459388D01*
X181972Y459388D01*
X181895Y459324D01*
X181806Y459277D01*
X181710Y459247D01*
X181610Y459238D01*
X156210D01*
X156210Y459238D01*
X156110Y459247D01*
X156014Y459277D01*
X155925Y459324D01*
X155848Y459388D01*
X153298Y461937D01*
X153298Y461938D01*
X153234Y462015D01*
X153187Y462104D01*
X153157Y462200D01*
X153147Y462300D01*
X153147Y471150D01*
X153157Y471250D01*
X153187Y471346D01*
X153234Y471435D01*
X153298Y471512D01*
X153375Y471576D01*
X153464Y471623D01*
X153560Y471653D01*
X153660Y471662D01*
X160660D01*
X160684Y471660D01*
X160708Y471660D01*
X160734Y471655D01*
X160760Y471653D01*
X160783Y471646D01*
X160806Y471641D01*
X160831Y471631D01*
X160856Y471623D01*
X160877Y471612D01*
X160899Y471603D01*
X160921Y471589D01*
X160945Y471576D01*
X160963Y471561D01*
X160983Y471548D01*
X161002Y471529D01*
X161022Y471512D01*
X161038Y471494D01*
X161054Y471477D01*
X164051Y467863D01*
X173773D01*
X176839Y471481D01*
X176854Y471496D01*
X176868Y471512D01*
X176890Y471531D01*
X176911Y471551D01*
X176929Y471563D01*
X176945Y471576D01*
X176971Y471590D01*
X176996Y471606D01*
X177015Y471614D01*
X177034Y471623D01*
X177062Y471632D01*
X177089Y471643D01*
X177110Y471646D01*
X177130Y471653D01*
X177159Y471656D01*
X177188Y471661D01*
X177209Y471660D01*
X177230Y471662D01*
X184160D01*
X184260Y471653D01*
D02*
G37*
G36*
X181710Y493253D02*
X181806Y493223D01*
X181895Y493176D01*
X181972Y493112D01*
X184522Y490563D01*
X184522Y490562D01*
X184586Y490485D01*
X184633Y490396D01*
X184663Y490300D01*
X184673Y490200D01*
X184673Y481350D01*
X184663Y481250D01*
X184634Y481154D01*
X184586Y481065D01*
X184522Y480988D01*
X184445Y480924D01*
X184356Y480877D01*
X184260Y480847D01*
X184160Y480838D01*
X177160D01*
X177136Y480840D01*
X177112Y480840D01*
X177086Y480845D01*
X177060Y480847D01*
X177037Y480854D01*
X177014Y480859D01*
X176989Y480869D01*
X176964Y480877D01*
X176943Y480888D01*
X176921Y480897D01*
X176899Y480911D01*
X176875Y480924D01*
X176857Y480939D01*
X176837Y480952D01*
X176818Y480971D01*
X176798Y480988D01*
X176782Y481006D01*
X176765Y481023D01*
X173769Y484637D01*
X164051D01*
X161054Y481023D01*
X161038Y481006D01*
X161022Y480988D01*
X161002Y480971D01*
X160983Y480952D01*
X160963Y480939D01*
X160945Y480924D01*
X160921Y480911D01*
X160899Y480897D01*
X160877Y480888D01*
X160856Y480877D01*
X160831Y480869D01*
X160806Y480859D01*
X160783Y480854D01*
X160760Y480847D01*
X160734Y480845D01*
X160708Y480840D01*
X160684Y480840D01*
X160660Y480838D01*
X153660D01*
X153560Y480847D01*
X153464Y480877D01*
X153375Y480924D01*
X153298Y480988D01*
X153234Y481065D01*
X153187Y481154D01*
X153157Y481250D01*
X153147Y481350D01*
Y490200D01*
X153147Y490200D01*
X153157Y490300D01*
X153187Y490396D01*
X153234Y490485D01*
X153298Y490562D01*
X155848Y493112D01*
X155848Y493112D01*
X155925Y493176D01*
X156014Y493223D01*
X156110Y493253D01*
X156210Y493262D01*
X181610D01*
X181610Y493262D01*
X181710Y493253D01*
D02*
G37*
D19*
X-393520Y8415D02*
D03*
Y-8335D02*
D03*
X-401740Y8415D02*
D03*
Y-8335D02*
D03*
D38*
X53340Y318125D02*
D03*
X66040D02*
D03*
X91440D02*
D03*
Y354975D02*
D03*
X78740Y318125D02*
D03*
Y354975D02*
D03*
X66040D02*
D03*
X53340D02*
D03*
D42*
X-450850Y-113610D02*
D03*
X-476250D02*
D03*
X-463550D02*
D03*
X-438150D02*
D03*
X-476250Y-59110D02*
D03*
X-463550D02*
D03*
X-450850D02*
D03*
X-438150D02*
D03*
D43*
X180920Y430530D02*
D03*
Y405130D02*
D03*
Y417830D02*
D03*
Y443230D02*
D03*
X126420Y405130D02*
D03*
Y417830D02*
D03*
Y430530D02*
D03*
Y443230D02*
D03*
D48*
X124030Y502412D02*
D03*
Y492412D02*
D03*
Y497412D02*
D03*
X112530Y492412D02*
D03*
Y497412D02*
D03*
D51*
X-97422Y493192D02*
D03*
X-105465D02*
D03*
D52*
X-327610Y-101600D02*
D03*
X-416610D02*
D03*
D54*
X-64770Y295170D02*
D03*
X-52070D02*
D03*
X-39370D02*
D03*
X-26670D02*
D03*
X-13970D02*
D03*
X-1270D02*
D03*
X11430D02*
D03*
X24130D02*
D03*
X-64770Y380470D02*
D03*
X-52070D02*
D03*
X-39370D02*
D03*
X-26670D02*
D03*
X-13970D02*
D03*
X-1270D02*
D03*
X11430D02*
D03*
X24130D02*
D03*
Y271250D02*
D03*
X11430D02*
D03*
X-1270D02*
D03*
X-13970D02*
D03*
X-26670D02*
D03*
X-39370D02*
D03*
X-52070D02*
D03*
X-64770D02*
D03*
X24130Y185950D02*
D03*
X11430D02*
D03*
X-1270D02*
D03*
X-13970D02*
D03*
X-26670D02*
D03*
X-39370D02*
D03*
X-52070D02*
D03*
X-64770D02*
D03*
D58*
X113030Y502412D02*
D03*
D60*
X55810Y514000D02*
D03*
D61*
X49310D02*
D03*
X42810D02*
D03*
X36310D02*
D03*
X29810D02*
D03*
X23310D02*
D03*
X16810D02*
D03*
X55810Y457500D02*
D03*
X49310D02*
D03*
X42810D02*
D03*
X36310D02*
D03*
X29810D02*
D03*
X23310D02*
D03*
X16810D02*
D03*
D62*
X-321670Y-334940D02*
D03*
Y-328440D02*
D03*
Y-321940D02*
D03*
Y-315440D02*
D03*
Y-308940D02*
D03*
Y-302440D02*
D03*
Y-295940D02*
D03*
X-378170Y-334940D02*
D03*
Y-328440D02*
D03*
Y-321940D02*
D03*
Y-315440D02*
D03*
Y-308940D02*
D03*
Y-302440D02*
D03*
D63*
Y-295940D02*
D03*
D64*
X-374375Y40D02*
G03*
X-374375Y40I-6625J0D01*
G01*
D65*
X-282190Y71696D02*
D03*
X168910Y488950D02*
D03*
Y463550D02*
D03*
X-282190Y97096D02*
D03*
D66*
X-198280Y209550D02*
D03*
X-321150D02*
D03*
X-192880D02*
D03*
X-326550D02*
D03*
X219870Y408940D02*
D03*
X214470D02*
D03*
X97122Y506984D02*
D03*
X102522D02*
D03*
X-217010Y109220D02*
D03*
X-222410D02*
D03*
D67*
X-322120Y143510D02*
D03*
X-321440Y201396D02*
D03*
X-198580Y201930D02*
D03*
X-322120Y134620D02*
D03*
X220170Y400050D02*
D03*
X-278690Y110396D02*
D03*
X-328120Y143510D02*
D03*
X-327440Y201396D02*
D03*
X-192580Y201930D02*
D03*
X-328120Y134620D02*
D03*
X-130000Y223520D02*
D03*
X-323040Y-31750D02*
D03*
Y-40640D02*
D03*
X138890Y490220D02*
D03*
X138498Y499205D02*
D03*
X-277495Y318231D02*
D03*
X-168450Y435610D02*
D03*
X-215090D02*
D03*
X-372570Y43180D02*
D03*
X144890Y490220D02*
D03*
X144498Y499205D02*
D03*
X-124000Y223520D02*
D03*
X-317040Y-31750D02*
D03*
Y-40640D02*
D03*
X-271495Y318231D02*
D03*
X-174450Y435610D02*
D03*
X-209090D02*
D03*
X-366570Y43180D02*
D03*
X-395180Y-315440D02*
D03*
X-401180D02*
D03*
X30024Y526459D02*
D03*
X36024D02*
D03*
X-361140Y-280670D02*
D03*
X-355140D02*
D03*
X-362410Y-351790D02*
D03*
X-356410D02*
D03*
X-337360D02*
D03*
X-343360D02*
D03*
X-337360Y-280670D02*
D03*
X-343360D02*
D03*
X-240595Y109514D02*
D03*
X-234595D02*
D03*
X-272690Y110396D02*
D03*
X97076Y500634D02*
D03*
X103076D02*
D03*
X214170Y400050D02*
D03*
D68*
X-304940Y136396D02*
D03*
Y142896D02*
D03*
Y201396D02*
D03*
Y207896D02*
D03*
X-265940Y129896D02*
D03*
X-213940Y201396D02*
D03*
Y207896D02*
D03*
X-304940Y123396D02*
D03*
Y214396D02*
D03*
X-291940Y129896D02*
D03*
X-285440Y155896D02*
D03*
Y181896D02*
D03*
X-278940Y123396D02*
D03*
X-272440Y129896D02*
D03*
Y155896D02*
D03*
Y162396D02*
D03*
Y168896D02*
D03*
Y175396D02*
D03*
Y181896D02*
D03*
Y194896D02*
D03*
X-265940Y155896D02*
D03*
Y162396D02*
D03*
Y168896D02*
D03*
Y175396D02*
D03*
Y181896D02*
D03*
X-259440Y155896D02*
D03*
Y162396D02*
D03*
Y168896D02*
D03*
Y175396D02*
D03*
Y181896D02*
D03*
X-252940Y155896D02*
D03*
Y162396D02*
D03*
Y168896D02*
D03*
Y175396D02*
D03*
Y181896D02*
D03*
Y207896D02*
D03*
X-246440Y129896D02*
D03*
Y155896D02*
D03*
Y162396D02*
D03*
Y168896D02*
D03*
Y175396D02*
D03*
Y181896D02*
D03*
Y194896D02*
D03*
X-233440Y155896D02*
D03*
Y181896D02*
D03*
X-213940Y123396D02*
D03*
Y214396D02*
D03*
X-285440Y149396D02*
D03*
Y188396D02*
D03*
X-278940Y129896D02*
D03*
Y142896D02*
D03*
Y194896D02*
D03*
X-272440Y201396D02*
D03*
X-265940Y142896D02*
D03*
X-259440Y194896D02*
D03*
X-246440Y142896D02*
D03*
X-239940Y194896D02*
D03*
X-233440Y149396D02*
D03*
Y175396D02*
D03*
X-213940Y194896D02*
D03*
Y188396D02*
D03*
Y181896D02*
D03*
Y175396D02*
D03*
Y168896D02*
D03*
Y162396D02*
D03*
Y155896D02*
D03*
Y149396D02*
D03*
Y142896D02*
D03*
Y136396D02*
D03*
Y129896D02*
D03*
X-220440Y214396D02*
D03*
Y207896D02*
D03*
Y201396D02*
D03*
Y194896D02*
D03*
Y188396D02*
D03*
Y181896D02*
D03*
Y175396D02*
D03*
Y168896D02*
D03*
Y162396D02*
D03*
Y155896D02*
D03*
Y149396D02*
D03*
Y142896D02*
D03*
Y136396D02*
D03*
Y129896D02*
D03*
Y123396D02*
D03*
X-226940Y214396D02*
D03*
Y207896D02*
D03*
Y201396D02*
D03*
Y194896D02*
D03*
Y188396D02*
D03*
Y181896D02*
D03*
Y175396D02*
D03*
Y168896D02*
D03*
Y162396D02*
D03*
Y155896D02*
D03*
Y149396D02*
D03*
Y142896D02*
D03*
Y136396D02*
D03*
Y129896D02*
D03*
Y123396D02*
D03*
X-233440Y214396D02*
D03*
Y207896D02*
D03*
Y201396D02*
D03*
Y194896D02*
D03*
Y188396D02*
D03*
Y168896D02*
D03*
Y162396D02*
D03*
Y142896D02*
D03*
Y136396D02*
D03*
Y129896D02*
D03*
Y123396D02*
D03*
X-239940Y214396D02*
D03*
Y207896D02*
D03*
Y201396D02*
D03*
Y142896D02*
D03*
Y136396D02*
D03*
Y129896D02*
D03*
Y123396D02*
D03*
X-246440Y214396D02*
D03*
Y207896D02*
D03*
Y201396D02*
D03*
Y136396D02*
D03*
Y123396D02*
D03*
X-252940Y214396D02*
D03*
Y201396D02*
D03*
Y194896D02*
D03*
Y142896D02*
D03*
Y136396D02*
D03*
Y129896D02*
D03*
Y123396D02*
D03*
X-259440Y214396D02*
D03*
Y207896D02*
D03*
Y201396D02*
D03*
Y142896D02*
D03*
Y136396D02*
D03*
Y129896D02*
D03*
Y123396D02*
D03*
X-265940Y214396D02*
D03*
Y207896D02*
D03*
Y201396D02*
D03*
Y194896D02*
D03*
Y136396D02*
D03*
Y123396D02*
D03*
X-272440Y214396D02*
D03*
Y207896D02*
D03*
Y142896D02*
D03*
Y136396D02*
D03*
Y123396D02*
D03*
X-278940Y214396D02*
D03*
Y207896D02*
D03*
Y201396D02*
D03*
Y136396D02*
D03*
X-285440Y214396D02*
D03*
Y207896D02*
D03*
Y201396D02*
D03*
Y194896D02*
D03*
Y175396D02*
D03*
Y168896D02*
D03*
Y162396D02*
D03*
Y142896D02*
D03*
Y136396D02*
D03*
Y129896D02*
D03*
Y123396D02*
D03*
X-291940Y214396D02*
D03*
Y207896D02*
D03*
Y201396D02*
D03*
Y194896D02*
D03*
Y188396D02*
D03*
Y181896D02*
D03*
Y175396D02*
D03*
Y168896D02*
D03*
Y162396D02*
D03*
Y155896D02*
D03*
Y149396D02*
D03*
Y142896D02*
D03*
Y136396D02*
D03*
Y123396D02*
D03*
X-298440Y214396D02*
D03*
Y207896D02*
D03*
Y201396D02*
D03*
Y194896D02*
D03*
Y188396D02*
D03*
Y181896D02*
D03*
Y175396D02*
D03*
Y168896D02*
D03*
Y162396D02*
D03*
Y155896D02*
D03*
Y149396D02*
D03*
Y142896D02*
D03*
Y136396D02*
D03*
Y129896D02*
D03*
Y123396D02*
D03*
X-304940Y194896D02*
D03*
Y188396D02*
D03*
Y181896D02*
D03*
Y175396D02*
D03*
Y168896D02*
D03*
Y162396D02*
D03*
Y155896D02*
D03*
Y149396D02*
D03*
Y129896D02*
D03*
D69*
X-314690Y82820D02*
D03*
Y72972D02*
D03*
X-327690Y82820D02*
D03*
X-499110Y-152146D02*
D03*
X-476250Y-32004D02*
D03*
X-314690Y92472D02*
D03*
Y63320D02*
D03*
X-327690Y92472D02*
D03*
X-251460Y94234D02*
D03*
X-452120Y-32004D02*
D03*
X110490Y440436D02*
D03*
X-186865Y415767D02*
D03*
Y281655D02*
D03*
X-199390Y-42926D02*
D03*
X246380Y459486D02*
D03*
X-199390Y-33274D02*
D03*
X125730Y458724D02*
D03*
Y468376D02*
D03*
X-438150Y-39116D02*
D03*
Y-29464D02*
D03*
X246380Y449834D02*
D03*
X-186865Y291307D02*
D03*
Y406115D02*
D03*
X110490Y430784D02*
D03*
X137419Y469516D02*
D03*
Y459864D02*
D03*
X-452120Y-41656D02*
D03*
X-251460Y103886D02*
D03*
X-425450Y-29464D02*
D03*
Y-39116D02*
D03*
X-476250Y-41656D02*
D03*
X-499110Y-142494D02*
D03*
D70*
X-499570Y-102870D02*
D03*
X204930Y471170D02*
D03*
X-202390Y449580D02*
D03*
X-366570Y80010D02*
D03*
X198930Y481330D02*
D03*
X-499570Y-115570D02*
D03*
X-202390Y467360D02*
D03*
Y458470D02*
D03*
X-137970Y337820D02*
D03*
X-401780Y-19050D02*
D03*
X-395780D02*
D03*
X-366570Y68580D02*
D03*
X-372570D02*
D03*
Y80010D02*
D03*
X-488114Y0D02*
D03*
X-494114D02*
D03*
X-488490Y-15240D02*
D03*
X-494490D02*
D03*
X-372920Y-280670D02*
D03*
X-378920D02*
D03*
X69390Y513080D02*
D03*
X75390D02*
D03*
X-372920Y-351790D02*
D03*
X-378920D02*
D03*
X-326850D02*
D03*
X-320850D02*
D03*
X-325580Y-280670D02*
D03*
X-319580D02*
D03*
X-143970Y337820D02*
D03*
X-196390Y449580D02*
D03*
Y458470D02*
D03*
Y467360D02*
D03*
X204930Y481330D02*
D03*
X198930Y471170D02*
D03*
X97076Y494030D02*
D03*
X103076D02*
D03*
X198930Y406400D02*
D03*
X204930D02*
D03*
X-493570Y-115570D02*
D03*
X-489760Y-130810D02*
D03*
X-495760D02*
D03*
X-493570Y-102870D02*
D03*
D71*
X115570Y467820D02*
D03*
X-50800Y488140D02*
D03*
X-63500D02*
D03*
X-76200D02*
D03*
X-88900D02*
D03*
X-242570Y441150D02*
D03*
X-350520Y74470D02*
D03*
X-364490Y-5890D02*
D03*
X-3150Y524450D02*
D03*
Y518450D02*
D03*
X-364490Y-11890D02*
D03*
Y22400D02*
D03*
Y28400D02*
D03*
X-350520Y80470D02*
D03*
X-405800Y-299740D02*
D03*
Y-305740D02*
D03*
X-405130Y-330660D02*
D03*
Y-324660D02*
D03*
X-294640Y-328120D02*
D03*
Y-322120D02*
D03*
Y-301800D02*
D03*
Y-307800D02*
D03*
X-242570Y435150D02*
D03*
X105410Y467820D02*
D03*
Y461820D02*
D03*
X115570D02*
D03*
X-88900Y482140D02*
D03*
X-76200D02*
D03*
X-63500D02*
D03*
X-50800D02*
D03*
X7010Y518450D02*
D03*
Y524450D02*
D03*
D72*
X-395850Y44450D02*
D03*
X-379340Y101600D02*
D03*
Y114300D02*
D03*
Y127000D02*
D03*
Y139700D02*
D03*
Y152400D02*
D03*
X-395850Y82550D02*
D03*
Y69850D02*
D03*
Y57150D02*
D03*
X-404250D02*
D03*
Y69850D02*
D03*
Y82550D02*
D03*
X-387740Y152400D02*
D03*
Y139700D02*
D03*
Y127000D02*
D03*
Y114300D02*
D03*
Y101600D02*
D03*
X-404250Y44450D02*
D03*
D73*
X-316230Y253190D02*
D03*
X-254000Y439880D02*
D03*
X-176705Y410941D02*
D03*
Y286021D02*
D03*
X-410210Y28400D02*
D03*
X-400050D02*
D03*
X-189230Y-33480D02*
D03*
X-217170Y-38560D02*
D03*
X-180340Y-33480D02*
D03*
X-208280Y-38560D02*
D03*
X-488950Y-147780D02*
D03*
X-316230Y247190D02*
D03*
X-410210Y22400D02*
D03*
X-400050D02*
D03*
X-180340Y-27480D02*
D03*
X-208280Y-32560D02*
D03*
X-488950Y-141780D02*
D03*
X-217170Y-32560D02*
D03*
X-189230Y-27480D02*
D03*
X-395640Y-305740D02*
D03*
Y-299740D02*
D03*
X77470Y497380D02*
D03*
Y503380D02*
D03*
X-394970Y-324660D02*
D03*
Y-330660D02*
D03*
X-304800Y-322120D02*
D03*
Y-328120D02*
D03*
Y-309070D02*
D03*
Y-303070D02*
D03*
X-176705Y292021D02*
D03*
Y404941D02*
D03*
X-254000Y433880D02*
D03*
X-242570Y79200D02*
D03*
Y73200D02*
D03*
D74*
X-249090Y-17780D02*
D03*
Y-77470D02*
D03*
Y-137160D02*
D03*
X-302090Y-17780D02*
D03*
Y-77470D02*
D03*
Y-137160D02*
D03*
D75*
X-196850Y412910D02*
D03*
Y407510D02*
D03*
X-251460Y78900D02*
D03*
Y73500D02*
D03*
D76*
X-372820Y52860D02*
D03*
Y56360D02*
D03*
D77*
X-145520Y447160D02*
D03*
Y452160D02*
D03*
Y457160D02*
D03*
Y462160D02*
D03*
X-174520Y447160D02*
D03*
Y452160D02*
D03*
Y457160D02*
D03*
Y462160D02*
D03*
D78*
X-160020Y454660D02*
D03*
D79*
X-194025Y311251D02*
D03*
X-201525Y318751D02*
D03*
X-216525D02*
D03*
X-231525D02*
D03*
X-246525D02*
D03*
X-179025Y326251D02*
D03*
X-209025Y341251D02*
D03*
X-231525D02*
D03*
X-239025D02*
D03*
X-179025Y348751D02*
D03*
X-209025D02*
D03*
X-231525D02*
D03*
X-209025Y356251D02*
D03*
X-231525D02*
D03*
X-179025Y371251D02*
D03*
X-216525D02*
D03*
X-224025D02*
D03*
X-231525Y378751D02*
D03*
X-239025D02*
D03*
Y386251D02*
D03*
X-254025Y318751D02*
D03*
X-246525Y341251D02*
D03*
X-254025D02*
D03*
X-239025Y348751D02*
D03*
X-246525D02*
D03*
X-254025D02*
D03*
X-239025Y356251D02*
D03*
X-246525D02*
D03*
X-216525Y363751D02*
D03*
Y348751D02*
D03*
X-224025D02*
D03*
X-216525Y356251D02*
D03*
X-224025D02*
D03*
X-254025D02*
D03*
Y386251D02*
D03*
X-246525D02*
D03*
X-231525D02*
D03*
X-224025D02*
D03*
X-216525D02*
D03*
X-209025D02*
D03*
X-201525D02*
D03*
X-194025D02*
D03*
X-186525D02*
D03*
X-179025D02*
D03*
X-254025Y378751D02*
D03*
X-246525D02*
D03*
X-224025D02*
D03*
X-216525D02*
D03*
X-209025D02*
D03*
X-201525D02*
D03*
X-194025D02*
D03*
X-186525D02*
D03*
X-179025D02*
D03*
X-254025Y371251D02*
D03*
X-246525D02*
D03*
X-239025D02*
D03*
X-231525D02*
D03*
X-209025D02*
D03*
X-201525D02*
D03*
X-194025D02*
D03*
X-186525D02*
D03*
X-254025Y363751D02*
D03*
X-246525D02*
D03*
X-239025D02*
D03*
X-231525D02*
D03*
X-224025D02*
D03*
X-209025D02*
D03*
X-201525D02*
D03*
X-194025D02*
D03*
X-186525D02*
D03*
X-179025D02*
D03*
X-201525Y356251D02*
D03*
X-194025D02*
D03*
X-186525D02*
D03*
X-179025D02*
D03*
X-201525Y348751D02*
D03*
X-194025D02*
D03*
X-186525D02*
D03*
X-224025Y341251D02*
D03*
X-216525D02*
D03*
X-201525D02*
D03*
X-194025D02*
D03*
X-186525D02*
D03*
X-179025D02*
D03*
X-254025Y333751D02*
D03*
X-246525D02*
D03*
X-239025D02*
D03*
X-231525D02*
D03*
X-224025D02*
D03*
X-216525D02*
D03*
X-209025D02*
D03*
X-201525D02*
D03*
X-194025D02*
D03*
X-186525D02*
D03*
X-179025D02*
D03*
X-254025Y326251D02*
D03*
X-246525D02*
D03*
X-239025D02*
D03*
X-231525D02*
D03*
X-224025D02*
D03*
X-216525D02*
D03*
X-209025D02*
D03*
X-201525D02*
D03*
X-194025D02*
D03*
X-186525D02*
D03*
X-239025Y318751D02*
D03*
X-224025D02*
D03*
X-209025D02*
D03*
X-194025D02*
D03*
X-186525D02*
D03*
X-179025D02*
D03*
X-254025Y311251D02*
D03*
X-246525D02*
D03*
X-239025D02*
D03*
X-231525D02*
D03*
X-224025D02*
D03*
X-216525D02*
D03*
X-209025D02*
D03*
X-201525D02*
D03*
X-186525D02*
D03*
X-179025D02*
D03*
D80*
X-471170Y-146050D02*
D03*
D81*
X-214440Y-14740D02*
D03*
X-210140D02*
D03*
X-205840D02*
D03*
X-197240D02*
D03*
X-192940D02*
D03*
X-184340D02*
D03*
Y9660D02*
D03*
X-188640D02*
D03*
X-192940D02*
D03*
X-197240D02*
D03*
X-201540D02*
D03*
X-205840D02*
D03*
X-210140D02*
D03*
X-214440D02*
D03*
X-188640Y-14740D02*
D03*
X-201540D02*
D03*
D82*
X-214090Y3910D02*
D03*
Y-390D02*
D03*
Y-4690D02*
D03*
Y-8990D02*
D03*
X-184690Y-4690D02*
D03*
Y3910D02*
D03*
Y-390D02*
D03*
Y-8990D02*
D03*
D83*
X-411644Y169468D02*
D03*
X-431366Y95865D02*
D03*
X-426365Y173413D02*
D03*
X-441227Y59063D02*
D03*
X-455948Y63008D02*
D03*
X-437940Y71330D02*
D03*
X-452660Y75275D02*
D03*
X-434653Y83598D02*
D03*
X-449374Y87542D02*
D03*
X-446087Y99809D02*
D03*
X-428079Y108132D02*
D03*
X-442799Y112077D02*
D03*
X-424792Y120400D02*
D03*
X-439512Y124344D02*
D03*
X-421505Y132667D02*
D03*
X-436226Y136611D02*
D03*
X-418218Y144934D02*
D03*
X-432938Y148878D02*
D03*
X-414931Y157201D02*
D03*
X-429651Y161146D02*
D03*
D84*
X205740Y422400D02*
D03*
Y453900D02*
D03*
D85*
X-224670Y410560D02*
D03*
X-209670Y422560D02*
D03*
X-224670D02*
D03*
X-209670Y410560D02*
D03*
D86*
X-348234Y243840D02*
D03*
X-236474Y-349250D02*
D03*
X-296926Y43180D02*
D03*
X-287274D02*
D03*
X-269494Y388620D02*
D03*
X-279146D02*
D03*
X-269494Y379730D02*
D03*
X-279146D02*
D03*
X-269494Y370840D02*
D03*
X-279146D02*
D03*
X-246126Y-349250D02*
D03*
X-357886Y243840D02*
D03*
D87*
X-335915Y262890D02*
D03*
X-230505Y-367030D02*
D03*
X-249555D02*
D03*
X-354965Y262890D02*
D03*
D88*
X229870Y455295D02*
D03*
Y436245D02*
D03*
D89*
X58420Y210820D02*
D03*
X81280Y233680D02*
D03*
X84108Y230852D02*
D03*
X61248Y207992D02*
D03*
X69850Y222250D02*
D03*
X72678Y219422D02*
D03*
D90*
X-511079Y-15239D02*
D03*
X-511011Y1D02*
D03*
X-515011D02*
D03*
X-515079Y-15239D02*
D03*
D91*
X-211710Y95820D02*
D03*
X-227710Y87820D02*
D03*
Y95820D02*
D03*
Y79820D02*
D03*
Y71820D02*
D03*
X-211710Y87820D02*
D03*
Y79820D02*
D03*
Y71820D02*
D03*
D92*
X-126630Y410210D02*
D03*
X-112130D02*
D03*
X-126630Y426720D02*
D03*
X-112130D02*
D03*
D93*
X-316872Y405772D02*
D03*
X-310508Y399408D02*
D03*
X-329572Y393072D02*
D03*
X-323208Y386708D02*
D03*
X-342272Y380372D02*
D03*
X-335908Y374008D02*
D03*
X-354972Y367672D02*
D03*
X-348608Y361308D02*
D03*
D94*
X-365760Y341630D02*
D03*
X-289560Y416560D02*
D03*
D95*
X-219710Y-397510D02*
D03*
X339090Y389890D02*
D03*
X-453390Y250190D02*
D03*
D96*
X-447675Y-146050D02*
D03*
D97*
X-366320Y54610D02*
D03*
D98*
X-350520Y0D02*
D03*
X-381000Y40D02*
D03*
D99*
X-100330Y195580D02*
D03*
X-424180Y-271780D02*
D03*
D100*
X123631Y347620D02*
D03*
X263331D02*
D03*
X313331Y322620D02*
D03*
X288331D02*
D03*
X338331D02*
D03*
X263331D02*
D03*
X288331Y347620D02*
D03*
X313331D02*
D03*
X338331D02*
D03*
X363331Y322620D02*
D03*
Y347620D02*
D03*
X173631Y322620D02*
D03*
X148631D02*
D03*
X198631D02*
D03*
X123631D02*
D03*
X148631Y347620D02*
D03*
X173631D02*
D03*
X198631D02*
D03*
X223631Y322620D02*
D03*
Y347620D02*
D03*
D101*
X-511967Y51196D02*
D03*
X-490132Y45345D02*
D03*
X-468973Y211652D02*
D03*
X-447138Y205801D02*
D03*
D102*
X-328683Y-213589D02*
D03*
X-319703Y-222569D02*
D03*
X-301742Y-240530D02*
D03*
X-310722Y-231549D02*
D03*
X-274801Y-267470D02*
D03*
X-265821Y-276451D02*
D03*
X-283782Y-258490D02*
D03*
X-292762Y-249510D02*
D03*
X-220920Y-321352D02*
D03*
X-238880Y-303391D02*
D03*
X-229900Y-312372D02*
D03*
X-247861Y-294411D02*
D03*
X-256841Y-285431D02*
D03*
X-265821Y-258490D02*
D03*
X-256841Y-267470D02*
D03*
X-238880Y-285431D02*
D03*
X-247861Y-276451D02*
D03*
X-211940Y-312372D02*
D03*
X-220920Y-303391D02*
D03*
X-229900Y-294411D02*
D03*
X-301742Y-222569D02*
D03*
X-292762Y-231549D02*
D03*
X-274801Y-249510D02*
D03*
X-283782Y-240530D02*
D03*
X-319703Y-204609D02*
D03*
X-310722Y-213589D02*
D03*
X-328683Y-195628D02*
D03*
X-337663Y-186648D02*
D03*
Y-204609D02*
D03*
X-346643Y-195628D02*
D03*
X63500Y438150D02*
D03*
X50800D02*
D03*
X25400D02*
D03*
X38100D02*
D03*
X-12700D02*
D03*
X-25400D02*
D03*
X0D02*
D03*
X12700D02*
D03*
X-88900D02*
D03*
X-63500D02*
D03*
X-76200D02*
D03*
X-50800D02*
D03*
X-38100D02*
D03*
X-12700Y425450D02*
D03*
X-25400D02*
D03*
X-50800D02*
D03*
X-38100D02*
D03*
X-88900D02*
D03*
X-76200D02*
D03*
X-63500D02*
D03*
X38100D02*
D03*
X25400D02*
D03*
X0D02*
D03*
X12700D02*
D03*
X63500D02*
D03*
X50800D02*
D03*
X76200D02*
D03*
X88900D02*
D03*
X76200Y438150D02*
D03*
X88900D02*
D03*
D103*
X-220920Y-312372D02*
D03*
X-337663Y-195628D02*
D03*
X-82550Y431800D02*
D03*
X82550D02*
D03*
D104*
X-409600Y286800D02*
D03*
X286800Y409600D02*
D03*
X-286800Y-409600D02*
D03*
D105*
X-269190Y126646D02*
D03*
X-275690D02*
D03*
X-295190D02*
D03*
X-243190Y126646D02*
D03*
X-288690Y185146D02*
D03*
Y152646D02*
D03*
X-230190D02*
D03*
X-243190Y198146D02*
D03*
X-230190Y185146D02*
D03*
X-275690Y198146D02*
D03*
X-249690Y211146D02*
D03*
X-197843Y344933D02*
D03*
X-197775Y315001D02*
D03*
X-220275Y367501D02*
D03*
X-227775Y375001D02*
D03*
X-212775D02*
D03*
X-235275Y382501D02*
D03*
X-242775D02*
D03*
X-235275Y352501D02*
D03*
X-220207Y330069D02*
D03*
X-212775Y315001D02*
D03*
X-235275Y337501D02*
D03*
X-205275Y360001D02*
D03*
Y352501D02*
D03*
X-235275Y360001D02*
D03*
X-250275Y315001D02*
D03*
X-235275D02*
D03*
X-242775Y337501D02*
D03*
X-205275Y337501D02*
D03*
X-282190Y126646D02*
D03*
X-275690Y204646D02*
D03*
X-288690Y191646D02*
D03*
Y146146D02*
D03*
X-282190Y139646D02*
D03*
X-269190D02*
D03*
X-243190D02*
D03*
X-230190Y146146D02*
D03*
X-236690Y198146D02*
D03*
X-230190Y178646D02*
D03*
X-282190Y198146D02*
D03*
X-256190Y198146D02*
D03*
X-212775Y367501D02*
D03*
X-242775Y352501D02*
D03*
Y360001D02*
D03*
X-250275D02*
D03*
Y352501D02*
D03*
Y337501D02*
D03*
X-227775Y352501D02*
D03*
X-212775D02*
D03*
X-227775Y360001D02*
D03*
X-212775D02*
D03*
X-250275Y367501D02*
D03*
Y375001D02*
D03*
X-223690Y139646D02*
D03*
X-236690Y133146D02*
D03*
X-217190Y159146D02*
D03*
X-210690Y133146D02*
D03*
X-223690Y211146D02*
D03*
X-236690D02*
D03*
X-230190D02*
D03*
X-282190D02*
D03*
X-205275Y322501D02*
D03*
Y315001D02*
D03*
Y330001D02*
D03*
X-227775Y315001D02*
D03*
X-250275Y330001D02*
D03*
X-242775D02*
D03*
X-235275Y322501D02*
D03*
X-242775Y315001D02*
D03*
Y322501D02*
D03*
X-250275D02*
D03*
X-235275Y367501D02*
D03*
X-197775Y352501D02*
D03*
X-190275D02*
D03*
X-182775D02*
D03*
X-197775Y360001D02*
D03*
X-190275D02*
D03*
X-182775D02*
D03*
X-197775Y367501D02*
D03*
X-235275Y330001D02*
D03*
X-227775D02*
D03*
X-212775Y322501D02*
D03*
Y337501D02*
D03*
X-227775Y337501D02*
D03*
X-212775Y330001D02*
D03*
X-227775Y322501D02*
D03*
X-182775Y382501D02*
D03*
X-190275D02*
D03*
X-197775D02*
D03*
X-205275D02*
D03*
X-250275D02*
D03*
X-242775Y375001D02*
D03*
X-235275D02*
D03*
X-242775Y367501D02*
D03*
X-227775D02*
D03*
Y382501D02*
D03*
X-212775Y382501D02*
D03*
X-205275Y367501D02*
D03*
X-190275D02*
D03*
X-182775D02*
D03*
X-205275Y375001D02*
D03*
X-197775D02*
D03*
X-190275D02*
D03*
X-182775D02*
D03*
X-190275Y315001D02*
D03*
X-182775Y315001D02*
D03*
Y322501D02*
D03*
X-197775D02*
D03*
X-190275Y322501D02*
D03*
X-197775Y330001D02*
D03*
X-190275D02*
D03*
X-182775Y330001D02*
D03*
X-197775Y337501D02*
D03*
X-190275D02*
D03*
X-182775Y337501D02*
D03*
X-269190Y198146D02*
D03*
X-236690Y139646D02*
D03*
X-262690Y139646D02*
D03*
X-275690D02*
D03*
X-217190Y152646D02*
D03*
Y165646D02*
D03*
X-223690D02*
D03*
Y159146D02*
D03*
Y152646D02*
D03*
X-230190Y159146D02*
D03*
Y165646D02*
D03*
X-217190Y178646D02*
D03*
X-223690D02*
D03*
Y146146D02*
D03*
X-217190D02*
D03*
Y139646D02*
D03*
X-230190D02*
D03*
X-223690Y133146D02*
D03*
X-217190D02*
D03*
Y126646D02*
D03*
X-223690D02*
D03*
X-230190D02*
D03*
Y133146D02*
D03*
X-236690Y126646D02*
D03*
X-243190Y133146D02*
D03*
X-249690Y139646D02*
D03*
Y133146D02*
D03*
Y126646D02*
D03*
X-288690Y126646D02*
D03*
X-301690D02*
D03*
X-262690D02*
D03*
Y133146D02*
D03*
X-269190D02*
D03*
X-275690D02*
D03*
X-282190D02*
D03*
X-288690D02*
D03*
Y139646D02*
D03*
X-295190Y133146D02*
D03*
X-301690D02*
D03*
X-295190Y139646D02*
D03*
X-301690D02*
D03*
X-295190Y146146D02*
D03*
X-301690D02*
D03*
Y152646D02*
D03*
X-295190D02*
D03*
X-288690Y159146D02*
D03*
X-295190D02*
D03*
X-301690D02*
D03*
X-288690Y211146D02*
D03*
Y178646D02*
D03*
Y172146D02*
D03*
X-295190Y185146D02*
D03*
Y178646D02*
D03*
Y172146D02*
D03*
X-301690Y185146D02*
D03*
Y178646D02*
D03*
Y172146D02*
D03*
X-295190Y191646D02*
D03*
X-301690D02*
D03*
Y198146D02*
D03*
Y204646D02*
D03*
Y211146D02*
D03*
X-295190D02*
D03*
Y204646D02*
D03*
Y198146D02*
D03*
X-288690D02*
D03*
Y204646D02*
D03*
X-282190D02*
D03*
X-275690Y211146D02*
D03*
X-269190D02*
D03*
Y204646D02*
D03*
X-256190Y211146D02*
D03*
X-249690Y198146D02*
D03*
X-256190Y204646D02*
D03*
X-249690D02*
D03*
X-243190Y211146D02*
D03*
Y204646D02*
D03*
X-236690D02*
D03*
X-223690Y185146D02*
D03*
X-217190D02*
D03*
Y191646D02*
D03*
Y198146D02*
D03*
Y204646D02*
D03*
Y211146D02*
D03*
X-223690Y204646D02*
D03*
X-230190D02*
D03*
X-223690Y191646D02*
D03*
Y198146D02*
D03*
X-230190Y198146D02*
D03*
Y191646D02*
D03*
D106*
X-321310Y194310D02*
D03*
X-262890Y73660D02*
D03*
X-292100Y63500D02*
D03*
X-284480D02*
D03*
X-276860D02*
D03*
X-322580Y127635D02*
D03*
X-284655Y318231D02*
D03*
X-271955Y330931D02*
D03*
Y339821D02*
D03*
X-271915Y348751D02*
D03*
X-176705Y417291D02*
D03*
X-186865Y423641D02*
D03*
X-271955Y357601D02*
D03*
X-373380Y152400D02*
D03*
Y139700D02*
D03*
Y127000D02*
D03*
Y114300D02*
D03*
Y101600D02*
D03*
X-496570Y171450D02*
D03*
X-502920Y163830D02*
D03*
Y151130D02*
D03*
Y138430D02*
D03*
Y125730D02*
D03*
Y113030D02*
D03*
X-510540Y100330D02*
D03*
Y87630D02*
D03*
X-334010Y209550D02*
D03*
X-278940Y117021D02*
D03*
X-314960Y55880D02*
D03*
X-222250Y435610D02*
D03*
X-196850Y420370D02*
D03*
X-234950Y410210D02*
D03*
X-161290Y435610D02*
D03*
X-144780Y440690D02*
D03*
X-389890Y57150D02*
D03*
X-186690Y209550D02*
D03*
X7620Y349250D02*
D03*
X-25400Y247650D02*
D03*
X-7620D02*
D03*
X-25400Y520700D02*
D03*
X-12758Y480118D02*
D03*
X-8832Y485082D02*
D03*
X88900Y464820D02*
D03*
Y471170D02*
D03*
Y477520D02*
D03*
X-176530Y273812D02*
D03*
X-186690D02*
D03*
X-336550Y356870D02*
D03*
X-210820Y443230D02*
D03*
X-335788Y204041D02*
D03*
X-269510Y454930D02*
D03*
X-314960Y100330D02*
D03*
X-366570Y85900D02*
D03*
X-380210Y52860D02*
D03*
X-379730Y43180D02*
D03*
X-335280Y137160D02*
D03*
X-389890Y44450D02*
D03*
Y82550D02*
D03*
Y69850D02*
D03*
X-327660Y100330D02*
D03*
X110490Y448310D02*
D03*
X144780Y389890D02*
D03*
X210820Y471170D02*
D03*
X111760Y472440D02*
D03*
X-488950Y-154940D02*
D03*
X-499110Y-160020D02*
D03*
X-499570Y-96980D02*
D03*
X-452120Y-22860D02*
D03*
X86360Y220980D02*
D03*
X-121920Y190500D02*
D03*
X-410210Y35560D02*
D03*
X-400050D02*
D03*
X-251210Y86995D02*
D03*
X-137160Y223520D02*
D03*
X-316230Y261620D02*
D03*
X-306070Y43180D02*
D03*
X-217170Y-374650D02*
D03*
X-333690Y247970D02*
D03*
X256540Y455930D02*
D03*
X-349250Y-36830D02*
D03*
X26670Y488950D02*
D03*
X-45720Y213360D02*
D03*
X-121920Y181610D02*
D03*
X-333110Y-38100D02*
D03*
X-331109Y-29849D02*
D03*
X-175202Y-49472D02*
D03*
X-234950Y-57150D02*
D03*
X-233680Y3810D02*
D03*
X102870Y478790D02*
D03*
X139700D02*
D03*
X149860Y419100D02*
D03*
Y412750D02*
D03*
Y406400D02*
D03*
X217170Y419100D02*
D03*
X62230Y196850D02*
D03*
X-391160Y171450D02*
D03*
X-396240Y181610D02*
D03*
X-420370Y100330D02*
D03*
Y93980D02*
D03*
X-370840Y-73660D02*
D03*
Y-80010D02*
D03*
X-406400Y-73660D02*
D03*
Y-80010D02*
D03*
X-481330Y-139700D02*
D03*
Y-146050D02*
D03*
Y-152400D02*
D03*
X-236220Y-124460D02*
D03*
Y-148590D02*
D03*
X-262890Y-120650D02*
D03*
X-237490Y-85090D02*
D03*
Y-72390D02*
D03*
X-262890Y-63500D02*
D03*
X-261620Y-85090D02*
D03*
X-262890Y-11430D02*
D03*
X-263298Y0D02*
D03*
X227330Y414020D02*
D03*
X194310Y416560D02*
D03*
X-306070Y17018D02*
D03*
X-300990Y13970D02*
D03*
X74930Y340360D02*
D03*
X-101600Y323850D02*
D03*
X35560Y264160D02*
D03*
X39370Y297180D02*
D03*
X-72390Y325120D02*
D03*
X-134620Y303530D02*
D03*
X-195834Y-52070D02*
D03*
X-310282Y118872D02*
D03*
X-205710Y217160D02*
D03*
X127762Y478790D02*
D03*
X86360Y506730D02*
D03*
X87630Y513592D02*
D03*
X114590Y479552D02*
D03*
X-124206Y494919D02*
D03*
X54610Y214630D02*
D03*
X161290Y505460D02*
D03*
X154940Y499110D02*
D03*
X161290D02*
D03*
X167640Y502920D02*
D03*
X-5545Y500845D02*
D03*
X-103Y500743D02*
D03*
X154940Y505460D02*
D03*
X-76200Y494370D02*
D03*
X-63500D02*
D03*
X-50800D02*
D03*
X-88900D02*
D03*
X-203200Y96520D02*
D03*
X-200660Y435610D02*
D03*
X-178308Y441960D02*
D03*
X-232410Y400050D02*
D03*
X38100Y377190D02*
D03*
X-133350Y327660D02*
D03*
X-234950Y440690D02*
D03*
X-210762Y450792D02*
D03*
X-103378Y368300D02*
D03*
X-505461Y-15239D02*
D03*
X-505729Y1D02*
D03*
X-350520Y68580D02*
D03*
X-192430Y-3150D02*
D03*
X-175356Y-14812D02*
D03*
X-364490Y0D02*
D03*
X77470Y237490D02*
D03*
X-285750Y-5080D02*
D03*
Y-12700D02*
D03*
Y-20320D02*
D03*
Y-27940D02*
D03*
Y-80010D02*
D03*
Y-72390D02*
D03*
Y-64770D02*
D03*
Y-147320D02*
D03*
Y-139700D02*
D03*
Y-132080D02*
D03*
Y-124460D02*
D03*
X-124000Y215440D02*
D03*
X-316230Y240030D02*
D03*
X-278130Y43180D02*
D03*
X-285750Y-87630D02*
D03*
X-457200Y105410D02*
D03*
X-262890Y318770D02*
D03*
X-435873Y175891D02*
D03*
X-323850Y17272D02*
D03*
X-411480Y13970D02*
D03*
X-271780Y364490D02*
D03*
X-195834Y-23487D02*
D03*
X-262890Y364490D02*
D03*
X110236Y511048D02*
D03*
X66548Y503936D02*
D03*
X-114300Y510540D02*
D03*
Y504190D02*
D03*
X-98234D02*
D03*
X-114300Y497840D02*
D03*
X94234Y517906D02*
D03*
X80590Y514350D02*
D03*
X26924Y398780D02*
D03*
X12446Y399034D02*
D03*
X0Y399137D02*
D03*
X-12700Y398780D02*
D03*
X-25146D02*
D03*
X-38100Y399288D02*
D03*
X-192151Y112649D02*
D03*
X-333860Y172409D02*
D03*
X-327914Y170180D02*
D03*
X116078Y402082D02*
D03*
X-314325Y151658D02*
D03*
X-316738Y169291D02*
D03*
X-262509Y115318D02*
D03*
X-228346Y109240D02*
D03*
X-191770Y191770D02*
D03*
X-246996Y226932D02*
D03*
X-247034Y220568D02*
D03*
X-256159Y224790D02*
D03*
X-255417Y238653D02*
D03*
X-328930Y194310D02*
D03*
X-350520Y156210D02*
D03*
X-350056Y149396D02*
D03*
X-356870Y120650D02*
D03*
X-358140Y134620D02*
D03*
X-288290Y370840D02*
D03*
Y379730D02*
D03*
Y388620D02*
D03*
X-133096Y316160D02*
D03*
X-133366Y309816D02*
D03*
X88900Y295910D02*
D03*
X53735Y373657D02*
D03*
X-74930Y382270D02*
D03*
X80010Y332740D02*
D03*
X78734Y367975D02*
D03*
X66040Y369570D02*
D03*
X-342900Y-19050D02*
D03*
X-365760Y12700D02*
D03*
X-358140Y27940D02*
D03*
X-342127Y33517D02*
D03*
X-336550Y26162D02*
D03*
X-322580Y29210D02*
D03*
X-350148Y372863D02*
D03*
X-333530Y-315440D02*
D03*
X24130Y468630D02*
D03*
X7160Y502460D02*
D03*
X7010Y514453D02*
D03*
X-210058Y23540D02*
D03*
X-38100Y510540D02*
D03*
X50800Y486410D02*
D03*
X-203900Y86360D02*
D03*
X-92710Y227330D02*
D03*
Y219710D02*
D03*
Y212090D02*
D03*
X-73660Y297406D02*
D03*
Y303756D02*
D03*
X-96520Y171450D02*
D03*
X-246380Y53340D02*
D03*
X-375920Y-179070D02*
D03*
X-370840Y-172720D02*
D03*
X-363220Y-168910D02*
D03*
X-83820Y226060D02*
D03*
X105410Y410210D02*
D03*
Y416560D02*
D03*
X42810Y527153D02*
D03*
X44450Y501650D02*
D03*
X57150D02*
D03*
X36558D02*
D03*
X77470Y491490D02*
D03*
X12767Y198053D02*
D03*
X-83820Y176530D02*
D03*
X-88900Y171450D02*
D03*
X-163830Y116840D02*
D03*
X-223520Y60960D02*
D03*
X-306070Y-173990D02*
D03*
X-420370Y-50800D02*
D03*
X-414020D02*
D03*
X-407670D02*
D03*
X-234950Y-36830D02*
D03*
Y-31115D02*
D03*
Y-25400D02*
D03*
X-394970Y-337820D02*
D03*
X-255270D02*
D03*
X-248920Y-331470D02*
D03*
X-371995Y-220980D02*
D03*
X-366915Y-215900D02*
D03*
X-241935Y86995D02*
D03*
X-302260Y90170D02*
D03*
Y101600D02*
D03*
X-256540Y48260D02*
D03*
X-262890Y90170D02*
D03*
X-238760Y67310D02*
D03*
X-462280Y-26670D02*
D03*
Y-34290D02*
D03*
Y-41910D02*
D03*
X-233680Y39370D02*
D03*
X-157798Y88710D02*
D03*
X-168402Y104140D02*
D03*
X-153924Y167640D02*
D03*
X-177026Y170336D02*
D03*
X-173938Y161362D02*
D03*
X-177649Y156210D02*
D03*
X-120650Y144780D02*
D03*
X-92710Y160020D02*
D03*
X-85090D02*
D03*
X-80010Y165100D02*
D03*
X19050Y253905D02*
D03*
X19050Y246380D02*
D03*
X13910Y524450D02*
D03*
X74930Y208280D02*
D03*
X79317Y226060D02*
D03*
X67887Y214630D02*
D03*
X56457Y203200D02*
D03*
X66040Y226060D02*
D03*
X112524Y455166D02*
D03*
X115840Y411290D02*
D03*
X-468630Y17780D02*
D03*
X-259080D02*
D03*
X-252730Y111498D02*
D03*
X-322580Y58420D02*
D03*
X-330200D02*
D03*
X-374142Y180340D02*
D03*
Y188584D02*
D03*
X-331470Y66040D02*
D03*
X-350613Y90077D02*
D03*
X-338762Y99060D02*
D03*
X-341630Y85090D02*
D03*
Y138430D02*
D03*
X-393700Y77470D02*
D03*
X-399288Y127000D02*
D03*
X-396240Y120400D02*
D03*
Y132667D02*
D03*
X-339090Y118110D02*
D03*
X-340360Y154940D02*
D03*
X-345928Y144083D02*
D03*
X-360680Y48260D02*
D03*
X-399288Y51308D02*
D03*
Y88900D02*
D03*
X-414020Y83598D02*
D03*
X-459740Y87542D02*
D03*
X-421132Y0D02*
D03*
X-416560Y-15240D02*
D03*
X-186953Y178645D02*
D03*
X-195095Y173963D02*
D03*
X-163830Y285750D02*
D03*
X-168910Y278130D02*
D03*
X-162560Y208280D02*
D03*
X-163141Y182191D02*
D03*
X-167640Y186690D02*
D03*
X-173602Y177412D02*
D03*
X-179660Y184284D02*
D03*
X-411480Y50800D02*
D03*
X-396240Y144934D02*
D03*
Y165100D02*
D03*
X-364490Y147320D02*
D03*
X-384810Y91440D02*
D03*
X-79502Y372110D02*
D03*
Y361950D02*
D03*
X-104140Y401320D02*
D03*
X-81280Y378460D02*
D03*
X-105410Y392430D02*
D03*
X-203200Y144824D02*
D03*
X-177038Y57910D02*
D03*
X-178562Y47614D02*
D03*
X-336550Y80010D02*
D03*
X-342900Y130810D02*
D03*
X-205840Y33120D02*
D03*
X-210774Y41107D02*
D03*
X-133350Y213360D02*
D03*
X-157480Y228600D02*
D03*
X-142240Y421640D02*
D03*
X-148590Y416560D02*
D03*
X-173077Y192278D02*
D03*
X-247650Y412750D02*
D03*
X-241300Y405130D02*
D03*
X-143510Y398780D02*
D03*
X-180340D02*
D03*
X-205275Y400515D02*
D03*
X-148590Y274320D02*
D03*
X-131636Y201539D02*
D03*
X-136398Y205740D02*
D03*
X-152400Y222250D02*
D03*
X-148351Y190932D02*
D03*
X-148336Y177800D02*
D03*
X-146050Y196850D02*
D03*
X-181610D02*
D03*
X-140970Y213360D02*
D03*
X99060Y410210D02*
D03*
Y416560D02*
D03*
X-326390Y304800D02*
D03*
X-298482Y334042D02*
D03*
X-295148Y349896D02*
D03*
X-340360Y299720D02*
D03*
Y175260D02*
D03*
X-343408Y283800D02*
D03*
X-387350Y194310D02*
D03*
X-347980Y288290D02*
D03*
X-345440Y179070D02*
D03*
X-247650Y427990D02*
D03*
X-324508Y398105D02*
D03*
X-312420Y411480D02*
D03*
X-337820Y386080D02*
D03*
X-283210Y274320D02*
D03*
X-304800Y283210D02*
D03*
X-328930D02*
D03*
X-335280Y293370D02*
D03*
X-314960Y280670D02*
D03*
X-322580Y278130D02*
D03*
X-195577Y273812D02*
D03*
X-201229Y303286D02*
D03*
X-149098Y348662D02*
D03*
X-161036Y356870D02*
D03*
X-166370Y340360D02*
D03*
X-161290Y426720D02*
D03*
X-156510Y410810D02*
D03*
X-153670Y405130D02*
D03*
X-215900Y295910D02*
D03*
X-233680Y297180D02*
D03*
X-240134Y297227D02*
D03*
X-52070Y251955D02*
D03*
X11430Y259080D02*
D03*
X-52070Y198120D02*
D03*
X-404876Y220980D02*
D03*
X-408940Y233680D02*
D03*
X-414020Y228600D02*
D03*
X-220980Y228854D02*
D03*
X-224790Y223520D02*
D03*
X-228600Y228854D02*
D03*
X-256159Y231264D02*
D03*
X-414020Y71330D02*
D03*
Y59063D02*
D03*
X-364490Y96520D02*
D03*
Y109220D02*
D03*
Y121920D02*
D03*
Y134620D02*
D03*
X-375920Y204470D02*
D03*
X-382270Y199390D02*
D03*
X-467360Y82716D02*
D03*
X-467594Y95043D02*
D03*
X-457200Y167386D02*
D03*
Y176530D02*
D03*
X-367030Y160020D02*
D03*
X-182880Y464820D02*
D03*
Y458470D02*
D03*
X37510Y282530D02*
D03*
X33020Y287020D02*
D03*
X23540Y258490D02*
D03*
X-101600Y300266D02*
D03*
Y293916D02*
D03*
X-68580Y318770D02*
D03*
X-68615Y312374D02*
D03*
X-331470Y-252730D02*
D03*
X-210820Y109220D02*
D03*
X-259080Y-325120D02*
D03*
X-267970Y-316230D02*
D03*
X-276860Y-307340D02*
D03*
X-363220Y-308610D02*
D03*
X-364490Y-321310D02*
D03*
X-331470Y-275590D02*
D03*
X-367030D02*
D03*
X-349250Y-280670D02*
D03*
X-405130Y-294640D02*
D03*
X-394970Y-293370D02*
D03*
X-408940Y-314960D02*
D03*
X-388620Y-315440D02*
D03*
X-405130Y-336550D02*
D03*
X-367030Y-358140D02*
D03*
X-331470Y-356870D02*
D03*
X-349250Y-351790D02*
D03*
X-294640Y-336550D02*
D03*
X-304800Y-335280D02*
D03*
X-288290Y-321310D02*
D03*
X-294640Y-294640D02*
D03*
X-304800Y-295910D02*
D03*
X-285750Y-307340D02*
D03*
X-341630Y-245110D02*
D03*
X-350520Y-236220D02*
D03*
X-360680Y-227330D02*
D03*
X-270510Y-209550D02*
D03*
X-279400Y-200660D02*
D03*
X-288290Y-191770D02*
D03*
X-297180Y-182880D02*
D03*
X-396240Y108132D02*
D03*
Y157201D02*
D03*
X-452120Y157480D02*
D03*
Y119380D02*
D03*
X-452234Y131479D02*
D03*
X-452120Y144052D02*
D03*
X-487680Y87630D02*
D03*
Y100330D02*
D03*
X-480060Y113030D02*
D03*
Y125730D02*
D03*
Y138430D02*
D03*
Y151130D02*
D03*
Y163830D02*
D03*
X-479421Y176530D02*
D03*
X63500Y466090D02*
D03*
X12700D02*
D03*
X76200Y471170D02*
D03*
X38100Y476250D02*
D03*
X24344Y481838D02*
D03*
X-88900Y473370D02*
D03*
X-76200D02*
D03*
X-50800D02*
D03*
X-63500D02*
D03*
X-284118Y255889D02*
D03*
D107*
X-262690Y172146D02*
D03*
X-256190D02*
D03*
X-262690Y165646D02*
D03*
X-256190D02*
D03*
X-249690Y165646D02*
D03*
Y172146D02*
D03*
X-269190Y172146D02*
D03*
Y165646D02*
D03*
X-275690D02*
D03*
Y172146D02*
D03*
X-282190Y165646D02*
D03*
X-275690Y159146D02*
D03*
X-282190D02*
D03*
X-243190D02*
D03*
X-275690Y178646D02*
D03*
X-269190D02*
D03*
X-262690D02*
D03*
X-256190D02*
D03*
X-249690D02*
D03*
X-310651Y214274D02*
D03*
X-242775Y390001D02*
D03*
D108*
X-25400Y312420D02*
D03*
X-15240D02*
D03*
X8890Y364490D02*
D03*
X-52070Y311150D02*
D03*
X11430D02*
D03*
X-52070Y365760D02*
D03*
M02*
