G04*
G04 #@! TF.GenerationSoftware,Altium Limited,Altium Designer,24.1.2 (44)*
G04*
G04 Layer_Color=16711935*
%FSLAX44Y44*%
%MOMM*%
G71*
G04*
G04 #@! TF.SameCoordinates,E650615F-92BB-4AA2-81C1-946A8B7DB211*
G04*
G04*
G04 #@! TF.FilePolarity,Negative*
G04*
G01*
G75*
%ADD19R,0.5220X0.7250*%
%ADD64C,0.3000*%
%ADD67R,0.4500X0.5000*%
%ADD70R,0.3500X0.4000*%
%ADD71R,0.4000X0.3500*%
%ADD72R,0.4620X0.3520*%
%ADD73R,0.5000X0.4500*%
%ADD74R,1.6000X5.5000*%
%ADD86R,0.6588X0.6080*%
%ADD95C,1.1000*%
%ADD98C,0.8000*%
%ADD99C,1.9050*%
%ADD100C,1.9000*%
%ADD101C,1.4224*%
%ADD102C,0.0400*%
%ADD103C,0.1000*%
%ADD104C,6.6016*%
%ADD105C,0.3048*%
%ADD106C,0.5080*%
%ADD107C,0.3556*%
%ADD108C,0.4064*%
%ADD176R,0.9500X0.6000*%
%ADD179R,0.9800X0.7700*%
%ADD183R,0.9000X1.6560*%
%ADD184R,0.3520X0.4620*%
%ADD185R,5.5000X1.6000*%
%ADD186R,1.2000X2.7000*%
%ADD187R,2.7000X1.2000*%
%ADD188R,1.7510X2.7000*%
%ADD189R,0.5000X0.4000*%
G04:AMPARAMS|DCode=190|XSize=0.9mm|YSize=1.656mm|CornerRadius=0mm|HoleSize=0mm|Usage=FLASHONLY|Rotation=315.000|XOffset=0mm|YOffset=0mm|HoleType=Round|Shape=Rectangle|*
%AMROTATEDRECTD190*
4,1,4,-0.9037,-0.2673,0.2673,0.9037,0.9037,0.2673,-0.2673,-0.9037,-0.9037,-0.2673,0.0*
%
%ADD190ROTATEDRECTD190*%

D19*
X-338000Y8375D02*
D03*
Y-8375D02*
D03*
X-329780Y8375D02*
D03*
Y-8375D02*
D03*
D64*
X-343895Y0D02*
G03*
X-343895Y0I-6625J0D01*
G01*
D67*
X19510Y476250D02*
D03*
Y490220D02*
D03*
X-264795Y330931D02*
D03*
Y339821D02*
D03*
X-264525Y348751D02*
D03*
X-264795Y357601D02*
D03*
X-204185Y344901D02*
D03*
X-235585D02*
D03*
X-428800Y138430D02*
D03*
X-311960Y17780D02*
D03*
Y8890D02*
D03*
X13510Y490220D02*
D03*
X-258795Y330931D02*
D03*
Y339821D02*
D03*
X-258525Y348751D02*
D03*
X-258795Y357601D02*
D03*
X-317960Y17780D02*
D03*
Y8890D02*
D03*
X-210185Y344901D02*
D03*
X-229585D02*
D03*
X-434800Y138430D02*
D03*
X13510Y476250D02*
D03*
D70*
X-374190Y76200D02*
D03*
X-331930Y152400D02*
D03*
X-127810Y179070D02*
D03*
Y190500D02*
D03*
X-272590Y388620D02*
D03*
X-226520Y400050D02*
D03*
X-446580Y151130D02*
D03*
Y125730D02*
D03*
Y113030D02*
D03*
X-272590Y379730D02*
D03*
X-278590D02*
D03*
X-133810Y190500D02*
D03*
Y179070D02*
D03*
X-328470Y-20320D02*
D03*
X-334470D02*
D03*
X-325930Y152400D02*
D03*
X-452580Y113030D02*
D03*
Y125730D02*
D03*
Y151130D02*
D03*
X-472900Y176530D02*
D03*
X-466900D02*
D03*
X-381810Y152400D02*
D03*
X-387810D02*
D03*
X-472900Y163830D02*
D03*
X-466900D02*
D03*
X-380540Y139700D02*
D03*
X-386540D02*
D03*
X-472900Y151130D02*
D03*
X-466900D02*
D03*
X-380540Y127000D02*
D03*
X-386540D02*
D03*
X-472900Y138430D02*
D03*
X-466900D02*
D03*
X-380540Y114300D02*
D03*
X-386540D02*
D03*
X-472900Y125730D02*
D03*
X-466900D02*
D03*
X-380540Y101600D02*
D03*
X-386540D02*
D03*
X-472900Y113030D02*
D03*
X-466900D02*
D03*
X-480520Y100330D02*
D03*
X-474520D02*
D03*
X-480520Y87630D02*
D03*
X-474520D02*
D03*
X-452580Y138430D02*
D03*
X-446580D02*
D03*
X-380190Y76200D02*
D03*
X-220520Y400050D02*
D03*
X-278590Y388620D02*
D03*
D71*
X86360Y226870D02*
D03*
X62230Y202740D02*
D03*
X-310508Y396408D02*
D03*
X-349250Y356410D02*
D03*
X-335908Y371008D02*
D03*
X-322580Y381810D02*
D03*
X-349250Y-30940D02*
D03*
X38100Y383080D02*
D03*
X-104140Y378000D02*
D03*
X-349250Y-24940D02*
D03*
X27940Y508460D02*
D03*
Y502460D02*
D03*
X-322580Y387810D02*
D03*
X-335908Y377008D02*
D03*
X-349250Y362410D02*
D03*
X-310508Y402408D02*
D03*
X62230Y208740D02*
D03*
X74930Y220170D02*
D03*
Y214170D02*
D03*
X86360Y232870D02*
D03*
X-104140Y384000D02*
D03*
X38100Y389080D02*
D03*
D72*
X-504580Y87630D02*
D03*
Y100330D02*
D03*
X-496960Y113030D02*
D03*
Y125730D02*
D03*
Y138430D02*
D03*
Y151130D02*
D03*
Y163830D02*
D03*
Y176530D02*
D03*
X-488560D02*
D03*
Y163830D02*
D03*
Y151130D02*
D03*
Y138430D02*
D03*
Y125730D02*
D03*
Y113030D02*
D03*
X-496180Y100330D02*
D03*
Y87630D02*
D03*
D73*
X-259440Y185396D02*
D03*
X-239940Y152396D02*
D03*
X-272440Y185396D02*
D03*
X-249690Y152396D02*
D03*
X-272440D02*
D03*
X-282190Y185396D02*
D03*
X-239940Y165896D02*
D03*
X-262690Y152396D02*
D03*
X-239940Y185396D02*
D03*
X-282190Y152396D02*
D03*
X-219885Y358061D02*
D03*
Y336821D02*
D03*
Y376191D02*
D03*
X-259440Y191396D02*
D03*
X-239940Y146396D02*
D03*
X-272440Y191396D02*
D03*
X-249690Y146396D02*
D03*
X-272440D02*
D03*
X-282190Y191396D02*
D03*
X-239940Y171896D02*
D03*
X-262690Y146396D02*
D03*
X-239940Y191396D02*
D03*
X-282190Y146396D02*
D03*
X-219885Y352061D02*
D03*
Y342821D02*
D03*
X17780Y502460D02*
D03*
Y508460D02*
D03*
X-219885Y382191D02*
D03*
D74*
X124630Y466090D02*
D03*
X177630D02*
D03*
D86*
X-33274Y312420D02*
D03*
X-7366D02*
D03*
X254Y247650D02*
D03*
X-33274D02*
D03*
X135636Y389890D02*
D03*
X1524Y187960D02*
D03*
X11176D02*
D03*
X-42164D02*
D03*
X-51816D02*
D03*
X-40894Y373380D02*
D03*
X-50546D02*
D03*
X254D02*
D03*
X9906D02*
D03*
X125984Y389890D02*
D03*
X-42926Y247650D02*
D03*
X9906D02*
D03*
X2286Y312420D02*
D03*
X-42926D02*
D03*
D95*
X344170Y386080D02*
D03*
X-450850Y248920D02*
D03*
X-219710Y-406400D02*
D03*
D98*
X-350520Y0D02*
D03*
X-381000Y40D02*
D03*
D99*
X-100330Y195580D02*
D03*
X-424180Y-271780D02*
D03*
D100*
X123631Y347620D02*
D03*
X263331D02*
D03*
X313331Y322620D02*
D03*
X288331D02*
D03*
X338331D02*
D03*
X263331D02*
D03*
X288331Y347620D02*
D03*
X313331D02*
D03*
X338331D02*
D03*
X363331Y322620D02*
D03*
Y347620D02*
D03*
X173631Y322620D02*
D03*
X148631D02*
D03*
X198631D02*
D03*
X123631D02*
D03*
X148631Y347620D02*
D03*
X173631D02*
D03*
X198631D02*
D03*
X223631Y322620D02*
D03*
Y347620D02*
D03*
D101*
X-511967Y51196D02*
D03*
X-490132Y45345D02*
D03*
X-468973Y211652D02*
D03*
X-447138Y205801D02*
D03*
D102*
X-328683Y-213589D02*
D03*
X-319703Y-222569D02*
D03*
X-301742Y-240530D02*
D03*
X-310722Y-231549D02*
D03*
X-274801Y-267470D02*
D03*
X-265821Y-276451D02*
D03*
X-283782Y-258490D02*
D03*
X-292762Y-249510D02*
D03*
X-220920Y-321352D02*
D03*
X-238880Y-303391D02*
D03*
X-229900Y-312372D02*
D03*
X-247861Y-294411D02*
D03*
X-256841Y-285431D02*
D03*
X-265821Y-258490D02*
D03*
X-256841Y-267470D02*
D03*
X-238880Y-285431D02*
D03*
X-247861Y-276451D02*
D03*
X-211940Y-312372D02*
D03*
X-220920Y-303391D02*
D03*
X-229900Y-294411D02*
D03*
X-301742Y-222569D02*
D03*
X-292762Y-231549D02*
D03*
X-274801Y-249510D02*
D03*
X-283782Y-240530D02*
D03*
X-319703Y-204609D02*
D03*
X-310722Y-213589D02*
D03*
X-328683Y-195628D02*
D03*
X-337663Y-186648D02*
D03*
Y-204609D02*
D03*
X-346643Y-195628D02*
D03*
X63500Y438150D02*
D03*
X50800D02*
D03*
X25400D02*
D03*
X38100D02*
D03*
X-12700D02*
D03*
X-25400D02*
D03*
X0D02*
D03*
X12700D02*
D03*
X-88900D02*
D03*
X-63500D02*
D03*
X-76200D02*
D03*
X-50800D02*
D03*
X-38100D02*
D03*
X-12700Y425450D02*
D03*
X-25400D02*
D03*
X-50800D02*
D03*
X-38100D02*
D03*
X-88900D02*
D03*
X-76200D02*
D03*
X-63500D02*
D03*
X38100D02*
D03*
X25400D02*
D03*
X0D02*
D03*
X12700D02*
D03*
X63500D02*
D03*
X50800D02*
D03*
X76200D02*
D03*
X88900D02*
D03*
X76200Y438150D02*
D03*
X88900D02*
D03*
D103*
X-220920Y-312372D02*
D03*
X-337663Y-195628D02*
D03*
X-82550Y431800D02*
D03*
X82550D02*
D03*
D104*
X-409600Y286800D02*
D03*
X286800Y409600D02*
D03*
X-286800Y-409600D02*
D03*
D105*
X-269190Y126646D02*
D03*
X-275690D02*
D03*
X-295190D02*
D03*
X-243190Y126646D02*
D03*
X-288690Y185146D02*
D03*
Y152646D02*
D03*
X-230190D02*
D03*
X-243190Y198146D02*
D03*
X-230190Y185146D02*
D03*
X-275690Y198146D02*
D03*
X-249690Y211146D02*
D03*
X-197843Y344933D02*
D03*
X-197775Y315001D02*
D03*
X-220275Y367501D02*
D03*
X-227775Y375001D02*
D03*
X-212775D02*
D03*
X-235275Y382501D02*
D03*
X-242775D02*
D03*
X-235275Y352501D02*
D03*
X-220207Y330069D02*
D03*
X-212775Y315001D02*
D03*
X-235275Y337501D02*
D03*
X-205275Y360001D02*
D03*
Y352501D02*
D03*
X-235275Y360001D02*
D03*
X-250275Y315001D02*
D03*
X-235275D02*
D03*
X-242775Y337501D02*
D03*
X-205275Y337501D02*
D03*
X-282190Y126646D02*
D03*
X-275690Y204646D02*
D03*
X-288690Y191646D02*
D03*
Y146146D02*
D03*
X-282190Y139646D02*
D03*
X-269190D02*
D03*
X-243190D02*
D03*
X-230190Y146146D02*
D03*
X-236690Y198146D02*
D03*
X-230190Y178646D02*
D03*
X-282190Y198146D02*
D03*
X-256190Y198146D02*
D03*
X-212775Y367501D02*
D03*
X-242775Y352501D02*
D03*
Y360001D02*
D03*
X-250275D02*
D03*
Y352501D02*
D03*
Y337501D02*
D03*
X-227775Y352501D02*
D03*
X-212775D02*
D03*
X-227775Y360001D02*
D03*
X-212775D02*
D03*
X-250275Y367501D02*
D03*
Y375001D02*
D03*
X-223690Y139646D02*
D03*
X-236690Y133146D02*
D03*
X-217190Y159146D02*
D03*
X-210690Y133146D02*
D03*
X-223690Y211146D02*
D03*
X-236690D02*
D03*
X-230190D02*
D03*
X-282190D02*
D03*
X-205275Y322501D02*
D03*
Y315001D02*
D03*
Y330001D02*
D03*
X-227775Y315001D02*
D03*
X-250275Y330001D02*
D03*
X-242775D02*
D03*
X-235275Y322501D02*
D03*
X-242775Y315001D02*
D03*
Y322501D02*
D03*
X-250275D02*
D03*
X-235275Y367501D02*
D03*
X-197775Y352501D02*
D03*
X-190275D02*
D03*
X-182775D02*
D03*
X-197775Y360001D02*
D03*
X-190275D02*
D03*
X-182775D02*
D03*
X-197775Y367501D02*
D03*
X-235275Y330001D02*
D03*
X-227775D02*
D03*
X-212775Y322501D02*
D03*
Y337501D02*
D03*
X-227775Y337501D02*
D03*
X-212775Y330001D02*
D03*
X-227775Y322501D02*
D03*
X-182775Y382501D02*
D03*
X-190275D02*
D03*
X-197775D02*
D03*
X-205275D02*
D03*
X-250275D02*
D03*
X-242775Y375001D02*
D03*
X-235275D02*
D03*
X-242775Y367501D02*
D03*
X-227775D02*
D03*
Y382501D02*
D03*
X-212775Y382501D02*
D03*
X-205275Y367501D02*
D03*
X-190275D02*
D03*
X-182775D02*
D03*
X-205275Y375001D02*
D03*
X-197775D02*
D03*
X-190275D02*
D03*
X-182775D02*
D03*
X-190275Y315001D02*
D03*
X-182775Y315001D02*
D03*
Y322501D02*
D03*
X-197775D02*
D03*
X-190275Y322501D02*
D03*
X-197775Y330001D02*
D03*
X-190275D02*
D03*
X-182775Y330001D02*
D03*
X-197775Y337501D02*
D03*
X-190275D02*
D03*
X-182775Y337501D02*
D03*
X-269190Y198146D02*
D03*
X-236690Y139646D02*
D03*
X-262690Y139646D02*
D03*
X-275690D02*
D03*
X-217190Y152646D02*
D03*
Y165646D02*
D03*
X-223690D02*
D03*
Y159146D02*
D03*
Y152646D02*
D03*
X-230190Y159146D02*
D03*
Y165646D02*
D03*
X-217190Y178646D02*
D03*
X-223690D02*
D03*
Y146146D02*
D03*
X-217190D02*
D03*
Y139646D02*
D03*
X-230190D02*
D03*
X-223690Y133146D02*
D03*
X-217190D02*
D03*
Y126646D02*
D03*
X-223690D02*
D03*
X-230190D02*
D03*
Y133146D02*
D03*
X-236690Y126646D02*
D03*
X-243190Y133146D02*
D03*
X-249690Y139646D02*
D03*
Y133146D02*
D03*
Y126646D02*
D03*
X-288690Y126646D02*
D03*
X-301690D02*
D03*
X-262690D02*
D03*
Y133146D02*
D03*
X-269190D02*
D03*
X-275690D02*
D03*
X-282190D02*
D03*
X-288690D02*
D03*
Y139646D02*
D03*
X-295190Y133146D02*
D03*
X-301690D02*
D03*
X-295190Y139646D02*
D03*
X-301690D02*
D03*
X-295190Y146146D02*
D03*
X-301690D02*
D03*
Y152646D02*
D03*
X-295190D02*
D03*
X-288690Y159146D02*
D03*
X-295190D02*
D03*
X-301690D02*
D03*
X-288690Y211146D02*
D03*
Y178646D02*
D03*
Y172146D02*
D03*
X-295190Y185146D02*
D03*
Y178646D02*
D03*
Y172146D02*
D03*
X-301690Y185146D02*
D03*
Y178646D02*
D03*
Y172146D02*
D03*
X-295190Y191646D02*
D03*
X-301690D02*
D03*
Y198146D02*
D03*
Y204646D02*
D03*
Y211146D02*
D03*
X-295190D02*
D03*
Y204646D02*
D03*
Y198146D02*
D03*
X-288690D02*
D03*
Y204646D02*
D03*
X-282190D02*
D03*
X-275690Y211146D02*
D03*
X-269190D02*
D03*
Y204646D02*
D03*
X-256190Y211146D02*
D03*
X-249690Y198146D02*
D03*
X-256190Y204646D02*
D03*
X-249690D02*
D03*
X-243190Y211146D02*
D03*
Y204646D02*
D03*
X-236690D02*
D03*
X-223690Y185146D02*
D03*
X-217190D02*
D03*
Y191646D02*
D03*
Y198146D02*
D03*
Y204646D02*
D03*
Y211146D02*
D03*
X-223690Y204646D02*
D03*
X-230190D02*
D03*
X-223690Y191646D02*
D03*
Y198146D02*
D03*
X-230190Y198146D02*
D03*
Y191646D02*
D03*
D106*
X-321310Y194310D02*
D03*
X-262890Y73660D02*
D03*
X-292100Y63500D02*
D03*
X-284480D02*
D03*
X-276860D02*
D03*
X-322580Y127635D02*
D03*
X-284655Y318231D02*
D03*
X-271955Y330931D02*
D03*
Y339821D02*
D03*
X-271915Y348751D02*
D03*
X-176705Y417291D02*
D03*
X-186865Y423641D02*
D03*
X-271955Y357601D02*
D03*
X-373380Y152400D02*
D03*
Y139700D02*
D03*
Y127000D02*
D03*
Y114300D02*
D03*
Y101600D02*
D03*
X-496570Y171450D02*
D03*
X-502920Y163830D02*
D03*
Y151130D02*
D03*
Y138430D02*
D03*
Y125730D02*
D03*
Y113030D02*
D03*
X-510540Y100330D02*
D03*
Y87630D02*
D03*
X-334010Y209550D02*
D03*
X-278940Y117021D02*
D03*
X-314960Y55880D02*
D03*
X-222250Y435610D02*
D03*
X-196850Y420370D02*
D03*
X-234950Y410210D02*
D03*
X-161290Y435610D02*
D03*
X-144780Y440690D02*
D03*
X-389890Y57150D02*
D03*
X-186690Y209550D02*
D03*
X7620Y349250D02*
D03*
X-25400Y247650D02*
D03*
X-7620D02*
D03*
X-25400Y520700D02*
D03*
X-12758Y480118D02*
D03*
X-8832Y485082D02*
D03*
X88900Y464820D02*
D03*
Y471170D02*
D03*
Y477520D02*
D03*
X-176530Y273812D02*
D03*
X-186690D02*
D03*
X-336550Y356870D02*
D03*
X-210820Y443230D02*
D03*
X-335788Y204041D02*
D03*
X-269510Y454930D02*
D03*
X-314960Y100330D02*
D03*
X-366570Y85900D02*
D03*
X-380210Y52860D02*
D03*
X-379730Y43180D02*
D03*
X-335280Y137160D02*
D03*
X-389890Y44450D02*
D03*
Y82550D02*
D03*
Y69850D02*
D03*
X-327660Y100330D02*
D03*
X110490Y448310D02*
D03*
X144780Y389890D02*
D03*
X210820Y471170D02*
D03*
X111760Y472440D02*
D03*
X-488950Y-154940D02*
D03*
X-499110Y-160020D02*
D03*
X-499570Y-96980D02*
D03*
X-452120Y-22860D02*
D03*
X86360Y220980D02*
D03*
X-121920Y190500D02*
D03*
X-410210Y35560D02*
D03*
X-400050D02*
D03*
X-251210Y86995D02*
D03*
X-137160Y223520D02*
D03*
X-316230Y261620D02*
D03*
X-306070Y43180D02*
D03*
X-217170Y-374650D02*
D03*
X-333690Y247970D02*
D03*
X256540Y455930D02*
D03*
X-349250Y-36830D02*
D03*
X26670Y488950D02*
D03*
X-45720Y213360D02*
D03*
X-121920Y181610D02*
D03*
X-333110Y-38100D02*
D03*
X-331109Y-29849D02*
D03*
X-175202Y-49472D02*
D03*
X-234950Y-57150D02*
D03*
X-233680Y3810D02*
D03*
X102870Y478790D02*
D03*
X139700D02*
D03*
X149860Y419100D02*
D03*
Y412750D02*
D03*
Y406400D02*
D03*
X217170Y419100D02*
D03*
X62230Y196850D02*
D03*
X-391160Y171450D02*
D03*
X-396240Y181610D02*
D03*
X-420370Y100330D02*
D03*
Y93980D02*
D03*
X-370840Y-73660D02*
D03*
Y-80010D02*
D03*
X-406400Y-73660D02*
D03*
Y-80010D02*
D03*
X-481330Y-139700D02*
D03*
Y-146050D02*
D03*
Y-152400D02*
D03*
X-236220Y-124460D02*
D03*
Y-148590D02*
D03*
X-262890Y-120650D02*
D03*
X-237490Y-85090D02*
D03*
Y-72390D02*
D03*
X-262890Y-63500D02*
D03*
X-261620Y-85090D02*
D03*
X-262890Y-11430D02*
D03*
X-263298Y0D02*
D03*
X227330Y414020D02*
D03*
X194310Y416560D02*
D03*
X-306070Y17018D02*
D03*
X-300990Y13970D02*
D03*
X74930Y340360D02*
D03*
X-101600Y323850D02*
D03*
X35560Y264160D02*
D03*
X39370Y297180D02*
D03*
X-72390Y325120D02*
D03*
X-134620Y303530D02*
D03*
X-195834Y-52070D02*
D03*
X-310282Y118872D02*
D03*
X-205710Y217160D02*
D03*
X127762Y478790D02*
D03*
X86360Y506730D02*
D03*
X87630Y513592D02*
D03*
X114590Y479552D02*
D03*
X-124206Y494919D02*
D03*
X54610Y214630D02*
D03*
X161290Y505460D02*
D03*
X154940Y499110D02*
D03*
X161290D02*
D03*
X167640Y502920D02*
D03*
X-5545Y500845D02*
D03*
X-103Y500743D02*
D03*
X154940Y505460D02*
D03*
X-76200Y494370D02*
D03*
X-63500D02*
D03*
X-50800D02*
D03*
X-88900D02*
D03*
X-203200Y96520D02*
D03*
X-200660Y435610D02*
D03*
X-178308Y441960D02*
D03*
X-232410Y400050D02*
D03*
X38100Y377190D02*
D03*
X-133350Y327660D02*
D03*
X-234950Y440690D02*
D03*
X-210762Y450792D02*
D03*
X-103378Y368300D02*
D03*
X-505461Y-15239D02*
D03*
X-505729Y1D02*
D03*
X-350520Y68580D02*
D03*
X-192430Y-3150D02*
D03*
X-175356Y-14812D02*
D03*
X-364490Y0D02*
D03*
X77470Y237490D02*
D03*
X-285750Y-5080D02*
D03*
Y-12700D02*
D03*
Y-20320D02*
D03*
Y-27940D02*
D03*
Y-80010D02*
D03*
Y-72390D02*
D03*
Y-64770D02*
D03*
Y-147320D02*
D03*
Y-139700D02*
D03*
Y-132080D02*
D03*
Y-124460D02*
D03*
X-124000Y215440D02*
D03*
X-316230Y240030D02*
D03*
X-278130Y43180D02*
D03*
X-285750Y-87630D02*
D03*
X-457200Y105410D02*
D03*
X-262890Y318770D02*
D03*
X-435873Y175891D02*
D03*
X-323850Y17272D02*
D03*
X-411480Y13970D02*
D03*
X-271780Y364490D02*
D03*
X-195834Y-23487D02*
D03*
X-262890Y364490D02*
D03*
X110236Y511048D02*
D03*
X66548Y503936D02*
D03*
X-114300Y510540D02*
D03*
Y504190D02*
D03*
X-98234D02*
D03*
X-114300Y497840D02*
D03*
X94234Y517906D02*
D03*
X80590Y514350D02*
D03*
X26924Y398780D02*
D03*
X12446Y399034D02*
D03*
X0Y399137D02*
D03*
X-12700Y398780D02*
D03*
X-25146D02*
D03*
X-38100Y399288D02*
D03*
X-192151Y112649D02*
D03*
X-333860Y172409D02*
D03*
X-327914Y170180D02*
D03*
X116078Y402082D02*
D03*
X-314325Y151658D02*
D03*
X-316738Y169291D02*
D03*
X-262509Y115318D02*
D03*
X-228346Y109240D02*
D03*
X-191770Y191770D02*
D03*
X-246996Y226932D02*
D03*
X-247034Y220568D02*
D03*
X-256159Y224790D02*
D03*
X-255417Y238653D02*
D03*
X-328930Y194310D02*
D03*
X-350520Y156210D02*
D03*
X-350056Y149396D02*
D03*
X-356870Y120650D02*
D03*
X-358140Y134620D02*
D03*
X-288290Y370840D02*
D03*
Y379730D02*
D03*
Y388620D02*
D03*
X-133096Y316160D02*
D03*
X-133366Y309816D02*
D03*
X88900Y295910D02*
D03*
X53735Y373657D02*
D03*
X-74930Y382270D02*
D03*
X80010Y332740D02*
D03*
X78734Y367975D02*
D03*
X66040Y369570D02*
D03*
X-342900Y-19050D02*
D03*
X-365760Y12700D02*
D03*
X-358140Y27940D02*
D03*
X-342127Y33517D02*
D03*
X-336550Y26162D02*
D03*
X-322580Y29210D02*
D03*
X-350148Y372863D02*
D03*
X-333530Y-315440D02*
D03*
X24130Y468630D02*
D03*
X7160Y502460D02*
D03*
X7010Y514453D02*
D03*
X-210058Y23540D02*
D03*
X-38100Y510540D02*
D03*
X50800Y486410D02*
D03*
X-203900Y86360D02*
D03*
X-92710Y227330D02*
D03*
Y219710D02*
D03*
Y212090D02*
D03*
X-73660Y297406D02*
D03*
Y303756D02*
D03*
X-96520Y171450D02*
D03*
X-246380Y53340D02*
D03*
X-375920Y-179070D02*
D03*
X-370840Y-172720D02*
D03*
X-363220Y-168910D02*
D03*
X-83820Y226060D02*
D03*
X105410Y410210D02*
D03*
Y416560D02*
D03*
X42810Y527153D02*
D03*
X44450Y501650D02*
D03*
X57150D02*
D03*
X36558D02*
D03*
X77470Y491490D02*
D03*
X12767Y198053D02*
D03*
X-83820Y176530D02*
D03*
X-88900Y171450D02*
D03*
X-163830Y116840D02*
D03*
X-223520Y60960D02*
D03*
X-306070Y-173990D02*
D03*
X-420370Y-50800D02*
D03*
X-414020D02*
D03*
X-407670D02*
D03*
X-234950Y-36830D02*
D03*
Y-31115D02*
D03*
Y-25400D02*
D03*
X-394970Y-337820D02*
D03*
X-255270D02*
D03*
X-248920Y-331470D02*
D03*
X-371995Y-220980D02*
D03*
X-366915Y-215900D02*
D03*
X-241935Y86995D02*
D03*
X-302260Y90170D02*
D03*
Y101600D02*
D03*
X-256540Y48260D02*
D03*
X-262890Y90170D02*
D03*
X-238760Y67310D02*
D03*
X-462280Y-26670D02*
D03*
Y-34290D02*
D03*
Y-41910D02*
D03*
X-233680Y39370D02*
D03*
X-157798Y88710D02*
D03*
X-168402Y104140D02*
D03*
X-153924Y167640D02*
D03*
X-177026Y170336D02*
D03*
X-173938Y161362D02*
D03*
X-177649Y156210D02*
D03*
X-120650Y144780D02*
D03*
X-92710Y160020D02*
D03*
X-85090D02*
D03*
X-80010Y165100D02*
D03*
X19050Y253905D02*
D03*
X19050Y246380D02*
D03*
X13910Y524450D02*
D03*
X74930Y208280D02*
D03*
X79317Y226060D02*
D03*
X67887Y214630D02*
D03*
X56457Y203200D02*
D03*
X66040Y226060D02*
D03*
X112524Y455166D02*
D03*
X115840Y411290D02*
D03*
X-468630Y17780D02*
D03*
X-259080D02*
D03*
X-252730Y111498D02*
D03*
X-322580Y58420D02*
D03*
X-330200D02*
D03*
X-374142Y180340D02*
D03*
Y188584D02*
D03*
X-331470Y66040D02*
D03*
X-350613Y90077D02*
D03*
X-338762Y99060D02*
D03*
X-341630Y85090D02*
D03*
Y138430D02*
D03*
X-393700Y77470D02*
D03*
X-399288Y127000D02*
D03*
X-396240Y120400D02*
D03*
Y132667D02*
D03*
X-339090Y118110D02*
D03*
X-340360Y154940D02*
D03*
X-345928Y144083D02*
D03*
X-360680Y48260D02*
D03*
X-399288Y51308D02*
D03*
Y88900D02*
D03*
X-414020Y83598D02*
D03*
X-459740Y87542D02*
D03*
X-421132Y0D02*
D03*
X-416560Y-15240D02*
D03*
X-186953Y178645D02*
D03*
X-195095Y173963D02*
D03*
X-163830Y285750D02*
D03*
X-168910Y278130D02*
D03*
X-162560Y208280D02*
D03*
X-163141Y182191D02*
D03*
X-167640Y186690D02*
D03*
X-173602Y177412D02*
D03*
X-179660Y184284D02*
D03*
X-411480Y50800D02*
D03*
X-396240Y144934D02*
D03*
Y165100D02*
D03*
X-364490Y147320D02*
D03*
X-384810Y91440D02*
D03*
X-79502Y372110D02*
D03*
Y361950D02*
D03*
X-104140Y401320D02*
D03*
X-81280Y378460D02*
D03*
X-105410Y392430D02*
D03*
X-203200Y144824D02*
D03*
X-177038Y57910D02*
D03*
X-178562Y47614D02*
D03*
X-336550Y80010D02*
D03*
X-342900Y130810D02*
D03*
X-205840Y33120D02*
D03*
X-210774Y41107D02*
D03*
X-133350Y213360D02*
D03*
X-157480Y228600D02*
D03*
X-142240Y421640D02*
D03*
X-148590Y416560D02*
D03*
X-173077Y192278D02*
D03*
X-247650Y412750D02*
D03*
X-241300Y405130D02*
D03*
X-143510Y398780D02*
D03*
X-180340D02*
D03*
X-205275Y400515D02*
D03*
X-148590Y274320D02*
D03*
X-131636Y201539D02*
D03*
X-136398Y205740D02*
D03*
X-152400Y222250D02*
D03*
X-148351Y190932D02*
D03*
X-148336Y177800D02*
D03*
X-146050Y196850D02*
D03*
X-181610D02*
D03*
X-140970Y213360D02*
D03*
X99060Y410210D02*
D03*
Y416560D02*
D03*
X-326390Y304800D02*
D03*
X-298482Y334042D02*
D03*
X-295148Y349896D02*
D03*
X-340360Y299720D02*
D03*
Y175260D02*
D03*
X-343408Y283800D02*
D03*
X-387350Y194310D02*
D03*
X-347980Y288290D02*
D03*
X-345440Y179070D02*
D03*
X-247650Y427990D02*
D03*
X-324508Y398105D02*
D03*
X-312420Y411480D02*
D03*
X-337820Y386080D02*
D03*
X-283210Y274320D02*
D03*
X-304800Y283210D02*
D03*
X-328930D02*
D03*
X-335280Y293370D02*
D03*
X-314960Y280670D02*
D03*
X-322580Y278130D02*
D03*
X-195577Y273812D02*
D03*
X-201229Y303286D02*
D03*
X-149098Y348662D02*
D03*
X-161036Y356870D02*
D03*
X-166370Y340360D02*
D03*
X-161290Y426720D02*
D03*
X-156510Y410810D02*
D03*
X-153670Y405130D02*
D03*
X-215900Y295910D02*
D03*
X-233680Y297180D02*
D03*
X-240134Y297227D02*
D03*
X-52070Y251955D02*
D03*
X11430Y259080D02*
D03*
X-52070Y198120D02*
D03*
X-404876Y220980D02*
D03*
X-408940Y233680D02*
D03*
X-414020Y228600D02*
D03*
X-220980Y228854D02*
D03*
X-224790Y223520D02*
D03*
X-228600Y228854D02*
D03*
X-256159Y231264D02*
D03*
X-414020Y71330D02*
D03*
Y59063D02*
D03*
X-364490Y96520D02*
D03*
Y109220D02*
D03*
Y121920D02*
D03*
Y134620D02*
D03*
X-375920Y204470D02*
D03*
X-382270Y199390D02*
D03*
X-467360Y82716D02*
D03*
X-467594Y95043D02*
D03*
X-457200Y167386D02*
D03*
Y176530D02*
D03*
X-367030Y160020D02*
D03*
X-182880Y464820D02*
D03*
Y458470D02*
D03*
X37510Y282530D02*
D03*
X33020Y287020D02*
D03*
X23540Y258490D02*
D03*
X-101600Y300266D02*
D03*
Y293916D02*
D03*
X-68580Y318770D02*
D03*
X-68615Y312374D02*
D03*
X-331470Y-252730D02*
D03*
X-210820Y109220D02*
D03*
X-259080Y-325120D02*
D03*
X-267970Y-316230D02*
D03*
X-276860Y-307340D02*
D03*
X-363220Y-308610D02*
D03*
X-364490Y-321310D02*
D03*
X-331470Y-275590D02*
D03*
X-367030D02*
D03*
X-349250Y-280670D02*
D03*
X-405130Y-294640D02*
D03*
X-394970Y-293370D02*
D03*
X-408940Y-314960D02*
D03*
X-388620Y-315440D02*
D03*
X-405130Y-336550D02*
D03*
X-367030Y-358140D02*
D03*
X-331470Y-356870D02*
D03*
X-349250Y-351790D02*
D03*
X-294640Y-336550D02*
D03*
X-304800Y-335280D02*
D03*
X-288290Y-321310D02*
D03*
X-294640Y-294640D02*
D03*
X-304800Y-295910D02*
D03*
X-285750Y-307340D02*
D03*
X-341630Y-245110D02*
D03*
X-350520Y-236220D02*
D03*
X-360680Y-227330D02*
D03*
X-270510Y-209550D02*
D03*
X-279400Y-200660D02*
D03*
X-288290Y-191770D02*
D03*
X-297180Y-182880D02*
D03*
X-396240Y108132D02*
D03*
Y157201D02*
D03*
X-452120Y157480D02*
D03*
Y119380D02*
D03*
X-452234Y131479D02*
D03*
X-452120Y144052D02*
D03*
X-487680Y87630D02*
D03*
Y100330D02*
D03*
X-480060Y113030D02*
D03*
Y125730D02*
D03*
Y138430D02*
D03*
Y151130D02*
D03*
Y163830D02*
D03*
X-479421Y176530D02*
D03*
X63500Y466090D02*
D03*
X12700D02*
D03*
X76200Y471170D02*
D03*
X38100Y476250D02*
D03*
X24344Y481838D02*
D03*
X-88900Y473370D02*
D03*
X-76200D02*
D03*
X-50800D02*
D03*
X-63500D02*
D03*
X-284118Y255889D02*
D03*
D107*
X-262690Y172146D02*
D03*
X-256190D02*
D03*
X-262690Y165646D02*
D03*
X-256190D02*
D03*
X-249690Y165646D02*
D03*
Y172146D02*
D03*
X-269190Y172146D02*
D03*
Y165646D02*
D03*
X-275690D02*
D03*
Y172146D02*
D03*
X-282190Y165646D02*
D03*
X-275690Y159146D02*
D03*
X-282190D02*
D03*
X-243190D02*
D03*
X-275690Y178646D02*
D03*
X-269190D02*
D03*
X-262690D02*
D03*
X-256190D02*
D03*
X-249690D02*
D03*
X-310651Y214274D02*
D03*
X-242775Y390001D02*
D03*
D108*
X-25400Y312420D02*
D03*
X-15240D02*
D03*
X8890Y364490D02*
D03*
X-52070Y311150D02*
D03*
X11430D02*
D03*
X-52070Y365760D02*
D03*
D176*
X80100Y346710D02*
D03*
X59600Y337210D02*
D03*
Y356210D02*
D03*
D179*
X0Y490688D02*
D03*
X-25400Y476720D02*
D03*
Y491020D02*
D03*
X0Y476388D02*
D03*
D183*
X-12700Y451990D02*
D03*
X88900D02*
D03*
X76200D02*
D03*
X63500D02*
D03*
X50800D02*
D03*
X38100D02*
D03*
X-25400D02*
D03*
X0D02*
D03*
X12700D02*
D03*
X25400D02*
D03*
X-38100D02*
D03*
X-50800D02*
D03*
X-63500D02*
D03*
X-76200D02*
D03*
X-88900D02*
D03*
X88900Y411610D02*
D03*
X76200D02*
D03*
X63500D02*
D03*
X50800D02*
D03*
X38100D02*
D03*
X-25400D02*
D03*
X-12700D02*
D03*
X0D02*
D03*
X12700D02*
D03*
X25400D02*
D03*
X-38100D02*
D03*
X-50800D02*
D03*
X-63500D02*
D03*
X-76200D02*
D03*
X-88900D02*
D03*
D184*
X-76200Y488070D02*
D03*
X-63500D02*
D03*
X-50800D02*
D03*
X-25400Y513470D02*
D03*
X-88900Y488070D02*
D03*
Y479670D02*
D03*
X-25400Y505070D02*
D03*
X-50800Y479670D02*
D03*
X-63500D02*
D03*
X-76200D02*
D03*
D185*
X218440Y401490D02*
D03*
Y454490D02*
D03*
D186*
X160820Y410210D02*
D03*
X133820D02*
D03*
D187*
X-388620Y-77000D02*
D03*
Y-50000D02*
D03*
D188*
X-3175Y349250D02*
D03*
X-36195Y213360D02*
D03*
X-4445D02*
D03*
X-34925Y349250D02*
D03*
D189*
X-211565Y398381D02*
D03*
Y403181D02*
D03*
D190*
X-356430Y-205415D02*
D03*
X-347449Y-214395D02*
D03*
X-338469Y-223375D02*
D03*
X-329489Y-232355D02*
D03*
X-320509Y-241336D02*
D03*
X-275607Y-286237D02*
D03*
X-284588Y-277257D02*
D03*
X-293568Y-268276D02*
D03*
X-302548Y-259296D02*
D03*
X-311528Y-250316D02*
D03*
X-266627Y-295217D02*
D03*
X-257647Y-304197D02*
D03*
X-248667Y-313178D02*
D03*
X-239686Y-322158D02*
D03*
X-230706Y-331138D02*
D03*
X-327877Y-176862D02*
D03*
X-318897Y-185842D02*
D03*
X-309916Y-194822D02*
D03*
X-300936Y-203803D02*
D03*
X-291956Y-212783D02*
D03*
X-247055Y-257684D02*
D03*
X-256035Y-248704D02*
D03*
X-265015Y-239724D02*
D03*
X-273995Y-230743D02*
D03*
X-282976Y-221763D02*
D03*
X-238074Y-266664D02*
D03*
X-229094Y-275645D02*
D03*
X-220114Y-284625D02*
D03*
X-211134Y-293605D02*
D03*
X-202153Y-302586D02*
D03*
M02*
