G04*
G04 #@! TF.GenerationSoftware,Altium Limited,Altium Designer,24.1.2 (44)*
G04*
G04 Layer_Color=128*
%FSLAX44Y44*%
%MOMM*%
G71*
G04*
G04 #@! TF.SameCoordinates,E650615F-92BB-4AA2-81C1-946A8B7DB211*
G04*
G04*
G04 #@! TF.FilePolarity,Positive*
G04*
G01*
G75*
%ADD19R,0.5220X0.7250*%
%ADD22R,0.3500X0.4000*%
%ADD25R,0.2500X0.3000*%
%ADD26R,0.3000X0.2500*%
%ADD27R,0.3600X0.2500*%
%ADD28R,0.4000X0.3500*%
%ADD29R,1.5000X5.4000*%
%ADD44R,0.5588X0.5080*%
%ADD172R,0.8000X1.5560*%
%ADD173R,0.2500X0.3600*%
%ADD174R,5.4000X1.5000*%
%ADD175R,1.1000X2.6000*%
%ADD176R,0.9500X0.6000*%
%ADD177R,2.6000X1.1000*%
%ADD178R,1.6510X2.6000*%
%ADD179R,0.9800X0.7700*%
%ADD180R,0.4000X0.3000*%
G04:AMPARAMS|DCode=181|XSize=0.8mm|YSize=1.556mm|CornerRadius=0mm|HoleSize=0mm|Usage=FLASHONLY|Rotation=315.000|XOffset=0mm|YOffset=0mm|HoleType=Round|Shape=Rectangle|*
%AMROTATEDRECTD181*
4,1,4,-0.8330,-0.2673,0.2673,0.8330,0.8330,0.2673,-0.2673,-0.8330,-0.8330,-0.2673,0.0*
%
%ADD181ROTATEDRECTD181*%

G36*
X-355520Y6400D02*
X-355520Y6400D01*
X-355520Y6400D01*
X-355520Y6400D01*
D02*
G37*
G36*
X-346591Y7236D02*
X-345520Y6400D01*
X-347673Y4260D01*
X-347673Y4260D01*
X-348329Y4631D01*
X-349768Y5068D01*
X-351272D01*
X-352711Y4631D01*
X-353367Y4260D01*
X-355520Y6400D01*
X-354449Y7236D01*
X-351879Y8121D01*
X-349161Y8121D01*
X-346591Y7236D01*
D02*
G37*
G36*
X-343274Y3929D02*
X-342389Y1359D01*
X-342389Y-1359D01*
X-343274Y-3929D01*
X-344110Y-5000D01*
X-344110Y-5000D01*
X-344110Y-5000D01*
X-344110Y-5000D01*
X-346250Y-2847D01*
X-345878Y-2191D01*
X-345442Y-752D01*
Y752D01*
X-345878Y2191D01*
X-346250Y2847D01*
X-346250Y2847D01*
X-344110Y5000D01*
X-343274Y3929D01*
D02*
G37*
G36*
X-354780Y2847D02*
X-355151Y2191D01*
X-355588Y752D01*
Y-752D01*
X-355151Y-2191D01*
X-354780Y-2847D01*
X-354780Y-2847D01*
X-356920Y-5000D01*
X-357756Y-3929D01*
X-358641Y-1359D01*
X-358641Y1359D01*
X-357756Y3929D01*
X-356920Y5000D01*
X-356920Y5000D01*
X-354780Y2847D01*
D02*
G37*
G36*
X-345520Y-6400D02*
X-346591Y-7236D01*
X-349161Y-8121D01*
X-351879Y-8121D01*
X-354449Y-7236D01*
X-355520Y-6400D01*
X-355520Y-6400D01*
Y-6400D01*
X-355520D01*
X-353367Y-4260D01*
X-352711Y-4632D01*
X-351272Y-5068D01*
X-349768D01*
X-348329Y-4632D01*
X-347673Y-4260D01*
X-347673D01*
X-345520Y-6400D01*
D02*
G37*
D19*
X-338000Y8375D02*
D03*
Y-8375D02*
D03*
X-329780Y8375D02*
D03*
Y-8375D02*
D03*
D22*
X19510Y476250D02*
D03*
Y490220D02*
D03*
X-264795Y330931D02*
D03*
Y339821D02*
D03*
X-264525Y348751D02*
D03*
X-264795Y357601D02*
D03*
X-204185Y344901D02*
D03*
X-235585D02*
D03*
X-428800Y138430D02*
D03*
X-311960Y17780D02*
D03*
Y8890D02*
D03*
X13510Y490220D02*
D03*
X-258795Y330931D02*
D03*
Y339821D02*
D03*
X-258525Y348751D02*
D03*
X-258795Y357601D02*
D03*
X-317960Y17780D02*
D03*
Y8890D02*
D03*
X-210185Y344901D02*
D03*
X-229585D02*
D03*
X-434800Y138430D02*
D03*
X13510Y476250D02*
D03*
D25*
X-374190Y76200D02*
D03*
X-331930Y152400D02*
D03*
X-127810Y179070D02*
D03*
Y190500D02*
D03*
X-272590Y388620D02*
D03*
X-226520Y400050D02*
D03*
X-446580Y151130D02*
D03*
Y125730D02*
D03*
Y113030D02*
D03*
X-272590Y379730D02*
D03*
X-278590D02*
D03*
X-133810Y190500D02*
D03*
Y179070D02*
D03*
X-328470Y-20320D02*
D03*
X-334470D02*
D03*
X-325930Y152400D02*
D03*
X-452580Y113030D02*
D03*
Y125730D02*
D03*
Y151130D02*
D03*
X-472900Y176530D02*
D03*
X-466900D02*
D03*
X-381810Y152400D02*
D03*
X-387810D02*
D03*
X-472900Y163830D02*
D03*
X-466900D02*
D03*
X-380540Y139700D02*
D03*
X-386540D02*
D03*
X-472900Y151130D02*
D03*
X-466900D02*
D03*
X-380540Y127000D02*
D03*
X-386540D02*
D03*
X-472900Y138430D02*
D03*
X-466900D02*
D03*
X-380540Y114300D02*
D03*
X-386540D02*
D03*
X-472900Y125730D02*
D03*
X-466900D02*
D03*
X-380540Y101600D02*
D03*
X-386540D02*
D03*
X-472900Y113030D02*
D03*
X-466900D02*
D03*
X-480520Y100330D02*
D03*
X-474520D02*
D03*
X-480520Y87630D02*
D03*
X-474520D02*
D03*
X-452580Y138430D02*
D03*
X-446580D02*
D03*
X-380190Y76200D02*
D03*
X-220520Y400050D02*
D03*
X-278590Y388620D02*
D03*
D26*
X86360Y226870D02*
D03*
X62230Y202740D02*
D03*
X-310508Y396408D02*
D03*
X-349250Y356410D02*
D03*
X-335908Y371008D02*
D03*
X-322580Y381810D02*
D03*
X-349250Y-30940D02*
D03*
X38100Y383080D02*
D03*
X-104140Y378000D02*
D03*
X-349250Y-24940D02*
D03*
X27940Y508460D02*
D03*
Y502460D02*
D03*
X-322580Y387810D02*
D03*
X-335908Y377008D02*
D03*
X-349250Y362410D02*
D03*
X-310508Y402408D02*
D03*
X62230Y208740D02*
D03*
X74930Y220170D02*
D03*
Y214170D02*
D03*
X86360Y232870D02*
D03*
X-104140Y384000D02*
D03*
X38100Y389080D02*
D03*
D27*
X-504580Y87630D02*
D03*
Y100330D02*
D03*
X-496960Y113030D02*
D03*
Y125730D02*
D03*
Y138430D02*
D03*
Y151130D02*
D03*
Y163830D02*
D03*
Y176530D02*
D03*
X-488560D02*
D03*
Y163830D02*
D03*
Y151130D02*
D03*
Y138430D02*
D03*
Y125730D02*
D03*
Y113030D02*
D03*
X-496180Y100330D02*
D03*
Y87630D02*
D03*
D28*
X-259440Y185396D02*
D03*
X-239940Y152396D02*
D03*
X-272440Y185396D02*
D03*
X-249690Y152396D02*
D03*
X-272440D02*
D03*
X-282190Y185396D02*
D03*
X-239940Y165896D02*
D03*
X-262690Y152396D02*
D03*
X-239940Y185396D02*
D03*
X-282190Y152396D02*
D03*
X-219885Y358061D02*
D03*
Y336821D02*
D03*
Y376191D02*
D03*
X-259440Y191396D02*
D03*
X-239940Y146396D02*
D03*
X-272440Y191396D02*
D03*
X-249690Y146396D02*
D03*
X-272440D02*
D03*
X-282190Y191396D02*
D03*
X-239940Y171896D02*
D03*
X-262690Y146396D02*
D03*
X-239940Y191396D02*
D03*
X-282190Y146396D02*
D03*
X-219885Y352061D02*
D03*
Y342821D02*
D03*
X17780Y502460D02*
D03*
Y508460D02*
D03*
X-219885Y382191D02*
D03*
D29*
X124630Y466090D02*
D03*
X177630D02*
D03*
D44*
X-33274Y312420D02*
D03*
X-7366D02*
D03*
X254Y247650D02*
D03*
X-33274D02*
D03*
X135636Y389890D02*
D03*
X1524Y187960D02*
D03*
X11176D02*
D03*
X-42164D02*
D03*
X-51816D02*
D03*
X-40894Y373380D02*
D03*
X-50546D02*
D03*
X254D02*
D03*
X9906D02*
D03*
X125984Y389890D02*
D03*
X-42926Y247650D02*
D03*
X9906D02*
D03*
X2286Y312420D02*
D03*
X-42926D02*
D03*
D172*
X-12700Y451990D02*
D03*
X88900D02*
D03*
X76200D02*
D03*
X63500D02*
D03*
X50800D02*
D03*
X38100D02*
D03*
X-25400D02*
D03*
X0D02*
D03*
X12700D02*
D03*
X25400D02*
D03*
X-38100D02*
D03*
X-50800D02*
D03*
X-63500D02*
D03*
X-76200D02*
D03*
X-88900D02*
D03*
X88900Y411610D02*
D03*
X76200D02*
D03*
X63500D02*
D03*
X50800D02*
D03*
X38100D02*
D03*
X-25400D02*
D03*
X-12700D02*
D03*
X0D02*
D03*
X12700D02*
D03*
X25400D02*
D03*
X-38100D02*
D03*
X-50800D02*
D03*
X-63500D02*
D03*
X-76200D02*
D03*
X-88900D02*
D03*
D173*
X-76200Y488070D02*
D03*
X-63500D02*
D03*
X-50800D02*
D03*
X-25400Y513470D02*
D03*
X-88900Y488070D02*
D03*
Y479670D02*
D03*
X-25400Y505070D02*
D03*
X-50800Y479670D02*
D03*
X-63500D02*
D03*
X-76200D02*
D03*
D174*
X218440Y401490D02*
D03*
Y454490D02*
D03*
D175*
X160820Y410210D02*
D03*
X133820D02*
D03*
D176*
X80100Y346710D02*
D03*
X59600Y337210D02*
D03*
Y356210D02*
D03*
D177*
X-388620Y-77000D02*
D03*
Y-50000D02*
D03*
D178*
X-3175Y349250D02*
D03*
X-36195Y213360D02*
D03*
X-4445D02*
D03*
X-34925Y349250D02*
D03*
D179*
X0Y490688D02*
D03*
X-25400Y476720D02*
D03*
Y491020D02*
D03*
X0Y476388D02*
D03*
D180*
X-211565Y398381D02*
D03*
Y403181D02*
D03*
D181*
X-356430Y-205415D02*
D03*
X-347449Y-214395D02*
D03*
X-338469Y-223375D02*
D03*
X-329489Y-232355D02*
D03*
X-320509Y-241336D02*
D03*
X-275607Y-286237D02*
D03*
X-284588Y-277257D02*
D03*
X-293568Y-268276D02*
D03*
X-302548Y-259296D02*
D03*
X-311528Y-250316D02*
D03*
X-266627Y-295217D02*
D03*
X-257647Y-304197D02*
D03*
X-248667Y-313178D02*
D03*
X-239686Y-322158D02*
D03*
X-230706Y-331138D02*
D03*
X-327877Y-176862D02*
D03*
X-318897Y-185842D02*
D03*
X-309916Y-194822D02*
D03*
X-300936Y-203803D02*
D03*
X-291956Y-212783D02*
D03*
X-247055Y-257684D02*
D03*
X-256035Y-248704D02*
D03*
X-265015Y-239724D02*
D03*
X-273995Y-230743D02*
D03*
X-282976Y-221763D02*
D03*
X-238074Y-266664D02*
D03*
X-229094Y-275645D02*
D03*
X-220114Y-284625D02*
D03*
X-211134Y-293605D02*
D03*
X-202153Y-302586D02*
D03*
M02*
