G04*
G04 #@! TF.GenerationSoftware,Altium Limited,Altium Designer,24.1.2 (44)*
G04*
G04 Layer_Color=32896*
%FSLAX44Y44*%
%MOMM*%
G71*
G04*
G04 #@! TF.SameCoordinates,9A0184B9-0745-4BA0-A63A-3E559F80E0CB*
G04*
G04*
G04 #@! TF.FilePolarity,Positive*
G04*
G01*
G75*
%ADD10C,0.2000*%
%ADD13C,0.2540*%
D10*
X843392Y171357D02*
Y175357D01*
X839392Y171357D02*
X843392D01*
X839398Y208647D02*
X843398D01*
Y204647D02*
Y208647D01*
X824608Y171340D02*
X828608D01*
X824608D02*
Y175340D01*
X824602Y204645D02*
Y208645D01*
X828602D01*
X704602D02*
X708602D01*
X704602Y204645D02*
Y208645D01*
X704608Y171340D02*
Y175340D01*
Y171340D02*
X708608D01*
X723398Y204647D02*
Y208647D01*
X719398D02*
X723398D01*
X719392Y171357D02*
X723392D01*
Y175357D01*
X784602Y208645D02*
X788602D01*
X784602Y204645D02*
Y208645D01*
X784608Y171340D02*
Y175340D01*
Y171340D02*
X788608D01*
X803398Y204647D02*
Y208647D01*
X799398D02*
X803398D01*
X799392Y171357D02*
X803392D01*
Y175357D01*
X664602Y208645D02*
X668602D01*
X664602Y204645D02*
Y208645D01*
X664608Y171340D02*
Y175340D01*
Y171340D02*
X668608D01*
X683398Y204647D02*
Y208647D01*
X679398D02*
X683398D01*
X679392Y171357D02*
X683392D01*
Y175357D01*
X744602Y208645D02*
X748602D01*
X744602Y204645D02*
Y208645D01*
X744608Y171340D02*
Y175340D01*
Y171340D02*
X748608D01*
X763398Y204647D02*
Y208647D01*
X759398D02*
X763398D01*
X759392Y171357D02*
X763392D01*
Y175357D01*
D13*
X841618Y213540D02*
X831461D01*
X826383Y218618D01*
X831461Y223697D01*
X841618D01*
Y228775D02*
X826383D01*
Y236393D01*
X828922Y238932D01*
X831461D01*
X834000Y236393D01*
Y228775D01*
Y236393D01*
X836539Y238932D01*
X839078D01*
X841618Y236393D01*
Y228775D01*
Y244010D02*
X828922D01*
X826383Y246549D01*
Y251628D01*
X828922Y254167D01*
X841618D01*
X839078Y269402D02*
X841618Y266863D01*
Y261784D01*
X839078Y259245D01*
X836539D01*
X834000Y261784D01*
Y266863D01*
X831461Y269402D01*
X828922D01*
X826383Y266863D01*
Y261784D01*
X828922Y259245D01*
X801618Y223697D02*
Y213540D01*
X794000D01*
X796539Y218618D01*
Y221157D01*
X794000Y223697D01*
X788922D01*
X786383Y221157D01*
Y216079D01*
X788922Y213540D01*
X801618Y228775D02*
X791461D01*
X786383Y233853D01*
X791461Y238932D01*
X801618D01*
X759078Y213540D02*
X761618Y216079D01*
Y221157D01*
X759078Y223697D01*
X756539D01*
X754000Y221157D01*
Y218618D01*
Y221157D01*
X751461Y223697D01*
X748922D01*
X746383Y221157D01*
Y216079D01*
X748922Y213540D01*
X761618Y228775D02*
X751461D01*
X746383Y233853D01*
X751461Y238932D01*
X761618D01*
X759078Y244010D02*
X761618Y246549D01*
Y251628D01*
X759078Y254167D01*
X756539D01*
X754000Y251628D01*
Y249088D01*
Y251628D01*
X751461Y254167D01*
X748922D01*
X746383Y251628D01*
Y246549D01*
X748922Y244010D01*
X721618Y223697D02*
Y213540D01*
X714000D01*
X716539Y218618D01*
Y221157D01*
X714000Y223697D01*
X708922D01*
X706383Y221157D01*
Y216079D01*
X708922Y213540D01*
X721618Y238932D02*
Y228775D01*
X714000D01*
X716539Y233853D01*
Y236393D01*
X714000Y238932D01*
X708922D01*
X706383Y236393D01*
Y231314D01*
X708922Y228775D01*
X721618Y254167D02*
Y244010D01*
X714000D01*
X716539Y249088D01*
Y251628D01*
X714000Y254167D01*
X708922D01*
X706383Y251628D01*
Y246549D01*
X708922Y244010D01*
X681618Y213540D02*
X668922D01*
X666383Y216079D01*
Y221157D01*
X668922Y223697D01*
X681618D01*
X666383Y228775D02*
X676539D01*
X681618Y233853D01*
X676539Y238932D01*
X666383D01*
X674000D01*
Y228775D01*
X666383Y244010D02*
X681618D01*
Y251628D01*
X679078Y254167D01*
X674000D01*
X671461Y251628D01*
Y244010D01*
Y249088D02*
X666383Y254167D01*
X681618Y259245D02*
Y269402D01*
Y264324D01*
X666383D01*
M02*
