G04*
G04 #@! TF.GenerationSoftware,Altium Limited,Altium Designer,24.1.2 (44)*
G04*
G04 Layer_Physical_Order=1*
G04 Layer_Color=255*
%FSLAX44Y44*%
%MOMM*%
G71*
G04*
G04 #@! TF.SameCoordinates,9A0184B9-0745-4BA0-A63A-3E559F80E0CB*
G04*
G04*
G04 #@! TF.FilePolarity,Positive*
G04*
G01*
G75*
%ADD10C,0.2000*%
%ADD12C,0.1500*%
%ADD16R,0.3000X0.7000*%
%ADD17R,1.0000X0.7000*%
%ADD18R,1.8000X1.3000*%
%ADD19R,1.5500X1.0000*%
%ADD20R,0.9000X0.8000*%
%ADD21R,0.6000X0.7000*%
%ADD22R,0.7500X0.8500*%
%ADD23R,2.0000X3.8000*%
%ADD24R,2.0000X1.5000*%
%ADD25R,0.8300X0.6250*%
%ADD26R,1.2200X0.6200*%
%ADD27R,0.8500X0.7500*%
%ADD28O,1.5500X0.6000*%
%ADD29R,0.8000X0.9000*%
%ADD30R,3.2000X1.6000*%
%ADD31O,1.1000X2.1000*%
%ADD32C,1.3000*%
G04:AMPARAMS|DCode=33|XSize=1.3mm|YSize=1.3mm|CornerRadius=0.325mm|HoleSize=0mm|Usage=FLASHONLY|Rotation=0.000|XOffset=0mm|YOffset=0mm|HoleType=Round|Shape=RoundedRectangle|*
%AMROUNDEDRECTD33*
21,1,1.3000,0.6500,0,0,0.0*
21,1,0.6500,1.3000,0,0,0.0*
1,1,0.6500,0.3250,-0.3250*
1,1,0.6500,-0.3250,-0.3250*
1,1,0.6500,-0.3250,0.3250*
1,1,0.6500,0.3250,0.3250*
%
%ADD33ROUNDEDRECTD33*%
%ADD34O,1.1000X2.6000*%
%ADD35C,1.6000*%
%ADD36C,5.0000*%
%ADD37C,1.7000*%
%ADD38C,1.8000*%
%ADD39C,0.8500*%
%ADD40C,0.5000*%
%ADD41C,0.6350*%
%ADD42C,1.5000*%
G36*
X853376Y375157D02*
X852500Y374250D01*
X852106Y374250D01*
X847000D01*
Y368250D01*
X846000D01*
Y367250D01*
X839500D01*
Y362313D01*
X839500Y362250D01*
X840000Y361187D01*
X840000Y361098D01*
X839714Y359828D01*
X836898D01*
X836000Y360726D01*
Y361187D01*
X836500Y362250D01*
X836500Y362313D01*
Y367250D01*
X823500D01*
Y362313D01*
X823500Y362250D01*
X824000Y361187D01*
X824000Y361098D01*
X823714Y359828D01*
X820357D01*
X820145Y360145D01*
X818243Y361416D01*
X816000Y361863D01*
X813756Y361416D01*
X811854Y360145D01*
X810584Y358243D01*
X810137Y356000D01*
X810584Y353756D01*
X811854Y351855D01*
X813756Y350584D01*
X816000Y350137D01*
X818243Y350584D01*
X819872Y351672D01*
X824000D01*
Y350250D01*
X835922D01*
Y339928D01*
X834897Y339724D01*
X833325Y338675D01*
X832276Y337103D01*
X831907Y335250D01*
Y328750D01*
X832276Y326897D01*
X833325Y325325D01*
X834897Y324276D01*
X836750Y323907D01*
X843250D01*
X845103Y324276D01*
X846675Y325325D01*
X847724Y326897D01*
X848093Y328750D01*
Y335250D01*
X847724Y337103D01*
X846675Y338675D01*
X845103Y339724D01*
X844078Y339928D01*
Y350250D01*
X852000D01*
Y360832D01*
X852307Y360974D01*
X853117Y360583D01*
X853376Y360241D01*
Y6556D01*
X76556D01*
Y32500D01*
X76600D01*
X76201Y38582D01*
X75012Y44561D01*
X73053Y50333D01*
X70357Y55800D01*
X66970Y60868D01*
X62951Y65451D01*
X58368Y69470D01*
X53300Y72857D01*
X47833Y75553D01*
X42061Y77512D01*
X36082Y78701D01*
X30000Y79100D01*
Y79056D01*
X6556D01*
Y137337D01*
X7800Y137400D01*
X7826Y137400D01*
X24800D01*
Y147400D01*
Y157400D01*
X7826D01*
X7800Y157400D01*
X6556Y157463D01*
Y365944D01*
X30000D01*
Y365900D01*
X36082Y366299D01*
X42061Y367488D01*
X47833Y369447D01*
X53300Y372143D01*
X58368Y375530D01*
X62951Y379549D01*
X66970Y384132D01*
X70357Y389200D01*
X73053Y394667D01*
X75012Y400439D01*
X76201Y406418D01*
X76600Y412500D01*
X76556D01*
Y438444D01*
X853376D01*
Y375157D01*
D02*
G37*
%LPC*%
G36*
X389800Y427983D02*
Y414050D01*
X396365D01*
Y420550D01*
X396107Y422508D01*
X395351Y424332D01*
X394149Y425899D01*
X392582Y427101D01*
X390758Y427857D01*
X389800Y427983D01*
D02*
G37*
G36*
X303400D02*
Y414050D01*
X309965D01*
Y420550D01*
X309707Y422508D01*
X308951Y424332D01*
X307749Y425899D01*
X306182Y427101D01*
X304358Y427857D01*
X303400Y427983D01*
D02*
G37*
G36*
X301400D02*
X300442Y427857D01*
X298618Y427101D01*
X297051Y425899D01*
X295849Y424332D01*
X295093Y422508D01*
X294835Y420550D01*
Y414050D01*
X301400D01*
Y427983D01*
D02*
G37*
G36*
X387800D02*
X386842Y427857D01*
X385018Y427101D01*
X383451Y425899D01*
X382249Y424332D01*
X381493Y422508D01*
X381235Y420550D01*
Y414050D01*
X387800D01*
Y427983D01*
D02*
G37*
G36*
X347000Y419174D02*
Y414000D01*
X352174D01*
X351887Y415439D01*
X350506Y417506D01*
X348439Y418887D01*
X347000Y419174D01*
D02*
G37*
G36*
X345000D02*
X343561Y418887D01*
X341494Y417506D01*
X340113Y415439D01*
X339826Y414000D01*
X345000D01*
Y419174D01*
D02*
G37*
G36*
X352174Y412000D02*
X347000D01*
Y406827D01*
X348439Y407113D01*
X350506Y408494D01*
X351887Y410561D01*
X352174Y412000D01*
D02*
G37*
G36*
X345000D02*
X339826D01*
X340113Y410561D01*
X341494Y408494D01*
X343561Y407113D01*
X345000Y406827D01*
Y412000D01*
D02*
G37*
G36*
X396365Y412050D02*
X389800D01*
Y398117D01*
X390758Y398243D01*
X392582Y398999D01*
X394149Y400201D01*
X395351Y401768D01*
X396107Y403592D01*
X396365Y405550D01*
Y412050D01*
D02*
G37*
G36*
X309965D02*
X303400D01*
Y398117D01*
X304358Y398243D01*
X306182Y398999D01*
X307749Y400201D01*
X308951Y401768D01*
X309707Y403592D01*
X309965Y405550D01*
Y412050D01*
D02*
G37*
G36*
X301400D02*
X294835D01*
Y405550D01*
X295093Y403592D01*
X295849Y401768D01*
X297051Y400201D01*
X298618Y398999D01*
X300442Y398243D01*
X301400Y398117D01*
Y412050D01*
D02*
G37*
G36*
X387800D02*
X381235D01*
Y405550D01*
X381493Y403592D01*
X382249Y401768D01*
X383451Y400201D01*
X385018Y398999D01*
X386842Y398243D01*
X387800Y398117D01*
Y412050D01*
D02*
G37*
G36*
X796000Y412005D02*
Y386000D01*
X822005D01*
X821750Y389237D01*
X820758Y393369D01*
X819132Y397296D01*
X816911Y400919D01*
X814151Y404151D01*
X810919Y406911D01*
X807296Y409132D01*
X803369Y410758D01*
X799237Y411750D01*
X796000Y412005D01*
D02*
G37*
G36*
X794000D02*
X790763Y411750D01*
X786631Y410758D01*
X782704Y409132D01*
X779081Y406911D01*
X775849Y404151D01*
X773089Y400919D01*
X770868Y397296D01*
X769242Y393369D01*
X768250Y389237D01*
X767995Y386000D01*
X794000D01*
Y412005D01*
D02*
G37*
G36*
X570500Y405966D02*
X567890Y405623D01*
X565457Y404615D01*
X563368Y403012D01*
X561765Y400923D01*
X560757Y398490D01*
X560414Y395880D01*
X560757Y393270D01*
X561765Y390837D01*
X563368Y388748D01*
X565457Y387145D01*
X567890Y386137D01*
X570500Y385794D01*
X573111Y386137D01*
X575543Y387145D01*
X577632Y388748D01*
X579235Y390837D01*
X580243Y393270D01*
X580586Y395880D01*
X580243Y398490D01*
X579235Y400923D01*
X577632Y403012D01*
X575543Y404615D01*
X573111Y405623D01*
X570500Y405966D01*
D02*
G37*
G36*
X445500D02*
X442890Y405623D01*
X440457Y404615D01*
X438368Y403012D01*
X436765Y400923D01*
X435757Y398490D01*
X435414Y395880D01*
X435757Y393270D01*
X436765Y390837D01*
X438368Y388748D01*
X440457Y387145D01*
X442890Y386137D01*
X445500Y385794D01*
X448111Y386137D01*
X450543Y387145D01*
X452632Y388748D01*
X454235Y390837D01*
X455243Y393270D01*
X455586Y395880D01*
X455243Y398490D01*
X454235Y400923D01*
X452632Y403012D01*
X450543Y404615D01*
X448111Y405623D01*
X445500Y405966D01*
D02*
G37*
G36*
X222000Y386000D02*
X205000D01*
Y377000D01*
X222000D01*
Y386000D01*
D02*
G37*
G36*
X203000D02*
X186000D01*
Y377000D01*
X203000D01*
Y386000D01*
D02*
G37*
G36*
X332802Y384544D02*
X296996D01*
X296020Y384351D01*
X295193Y383798D01*
X287758Y376362D01*
X287205Y375536D01*
X287011Y374560D01*
Y343070D01*
X283810D01*
Y332840D01*
X283810Y332633D01*
X283310Y331570D01*
X283310Y331507D01*
Y326820D01*
X289560D01*
X295810D01*
Y331507D01*
X295810Y331570D01*
X295310Y332633D01*
X295310Y332840D01*
Y343070D01*
X292109D01*
Y373504D01*
X298051Y379447D01*
X331746D01*
X335351Y375842D01*
Y373450D01*
X321400D01*
Y374050D01*
X315400D01*
Y368550D01*
Y363050D01*
X321400D01*
Y363450D01*
X327603D01*
X328248Y362180D01*
X328045Y361876D01*
X327851Y360901D01*
Y360450D01*
X318900D01*
Y360950D01*
X316400D01*
Y355450D01*
Y349950D01*
X318900D01*
Y350450D01*
X326186D01*
X326672Y349277D01*
X310883Y333488D01*
X309000Y333863D01*
X306756Y333416D01*
X304855Y332146D01*
X303584Y330243D01*
X303137Y328000D01*
X303584Y325756D01*
X304855Y323854D01*
X306756Y322584D01*
X309000Y322137D01*
X311243Y322584D01*
X313146Y323854D01*
X314416Y325756D01*
X314863Y328000D01*
X314488Y329883D01*
X332202Y347598D01*
X332755Y348425D01*
X332949Y349400D01*
Y350450D01*
X343400D01*
Y359584D01*
X347400D01*
Y350450D01*
X351221D01*
X351747Y349180D01*
X348198Y345631D01*
X347645Y344804D01*
X347451Y343828D01*
Y340750D01*
X345020D01*
X344813Y340750D01*
X343750Y341250D01*
X343687Y341250D01*
X339000D01*
Y335000D01*
Y328750D01*
X343687D01*
X343750Y328750D01*
X344813Y329250D01*
X345020Y329250D01*
X355250D01*
Y340750D01*
X352549D01*
Y342773D01*
X354759Y344982D01*
X356137Y344565D01*
X357029Y343229D01*
X379549Y320709D01*
X381096Y319676D01*
X382920Y319313D01*
X436109D01*
X436328Y318785D01*
X438011Y316591D01*
X440205Y314908D01*
X442759Y313850D01*
X445500Y313489D01*
X448241Y313850D01*
X450795Y314908D01*
X452989Y316591D01*
X454672Y318785D01*
X455730Y321339D01*
X456091Y324080D01*
X455730Y326821D01*
X455511Y327350D01*
X463394Y335233D01*
X466670D01*
X466923Y333963D01*
X465205Y333252D01*
X463011Y331569D01*
X461328Y329375D01*
X460270Y326821D01*
X459909Y324080D01*
X460270Y321339D01*
X461114Y319302D01*
X461328Y318785D01*
X460500Y317778D01*
X460379Y317728D01*
X460150Y317499D01*
X459852Y317376D01*
X459728Y317077D01*
X459500Y316849D01*
Y316526D01*
X459376Y316228D01*
Y290000D01*
X459852Y288852D01*
X474529Y274175D01*
X474827Y274052D01*
X475055Y273823D01*
X475378D01*
X475677Y273700D01*
X475975Y273823D01*
X476298D01*
X477350Y273120D01*
Y272500D01*
X477970D01*
X478673Y271448D01*
Y271125D01*
X478550Y270827D01*
X478673Y270528D01*
Y270205D01*
X478902Y269977D01*
X479025Y269679D01*
X487934Y260770D01*
X487408Y259500D01*
X477350D01*
Y250250D01*
X480451D01*
Y244000D01*
X480645Y243025D01*
X481198Y242198D01*
X487198Y236198D01*
X488025Y235645D01*
X489000Y235451D01*
X495000D01*
Y233078D01*
X482760D01*
X465419Y250419D01*
X463539Y251861D01*
X461349Y252768D01*
X459000Y253078D01*
X436000D01*
X433651Y252768D01*
X431461Y251861D01*
X429581Y250419D01*
X428139Y248539D01*
X427232Y246350D01*
X426922Y244000D01*
X427232Y241651D01*
X428139Y239461D01*
X429581Y237581D01*
X431461Y236138D01*
X433651Y235232D01*
X436000Y234922D01*
X455240D01*
X472581Y217581D01*
X474461Y216139D01*
X476651Y215232D01*
X479000Y214922D01*
X495000D01*
Y203500D01*
X518000D01*
Y214922D01*
X601000D01*
X603349Y215232D01*
X605539Y216139D01*
X607419Y217581D01*
X618419Y228581D01*
X619861Y230461D01*
X619878Y230500D01*
X632250D01*
Y243181D01*
X632250Y243500D01*
X633020Y244451D01*
X788788D01*
X789855Y242854D01*
X791757Y241584D01*
X794000Y241137D01*
X796244Y241584D01*
X798146Y242854D01*
X799416Y244757D01*
X799863Y247000D01*
X799416Y249244D01*
X798146Y251145D01*
X796244Y252416D01*
X794000Y252863D01*
X791757Y252416D01*
X789855Y251145D01*
X788788Y249549D01*
X590624D01*
Y261000D01*
X590148Y262148D01*
X580148Y272148D01*
X579000Y272624D01*
X538672D01*
X533321Y277975D01*
X533023Y278098D01*
X532795Y278327D01*
X532472D01*
X532173Y278450D01*
X531875Y278327D01*
X531770D01*
X531196Y278565D01*
X530500Y279030D01*
Y281500D01*
X528030D01*
X527565Y282196D01*
X527327Y282770D01*
Y282875D01*
X527450Y283173D01*
X527327Y283472D01*
Y283795D01*
X527098Y284023D01*
X526975Y284321D01*
X518469Y292827D01*
X518955Y294000D01*
X519000D01*
Y302500D01*
Y311000D01*
X509000D01*
Y303955D01*
X507827Y303469D01*
X498619Y312677D01*
X498949Y314143D01*
X500795Y314908D01*
X502989Y316591D01*
X504672Y318785D01*
X505730Y321339D01*
X506091Y324080D01*
X505730Y326821D01*
X504672Y329375D01*
X504554Y329529D01*
X515339Y340314D01*
X626788D01*
X627854Y338717D01*
X629757Y337446D01*
X632000Y337000D01*
X634244Y337446D01*
X636146Y338717D01*
X637416Y340619D01*
X637863Y342863D01*
X637416Y345106D01*
X636146Y347008D01*
X634244Y348279D01*
X632000Y348725D01*
X629757Y348279D01*
X627854Y347008D01*
X626788Y345412D01*
X514283D01*
X513307Y345218D01*
X512480Y344665D01*
X500949Y333134D01*
X500795Y333252D01*
X498241Y334310D01*
X495500Y334671D01*
X492759Y334310D01*
X492230Y334091D01*
X482951Y343371D01*
X481404Y344404D01*
X479580Y344767D01*
X461420D01*
X459596Y344404D01*
X458050Y343371D01*
X448770Y334091D01*
X448241Y334310D01*
X445500Y334671D01*
X442759Y334310D01*
X440205Y333252D01*
X438011Y331569D01*
X436328Y329375D01*
X436109Y328847D01*
X384894D01*
X364561Y349180D01*
X365087Y350450D01*
X371900D01*
Y349950D01*
X374400D01*
Y355450D01*
Y360950D01*
X371900D01*
Y360450D01*
X362949D01*
Y360901D01*
X362755Y361876D01*
X362552Y362180D01*
X363197Y363450D01*
X369400D01*
Y362950D01*
X375400D01*
Y368450D01*
Y373950D01*
X369400D01*
Y373450D01*
X340449D01*
Y376898D01*
X340255Y377873D01*
X339702Y378700D01*
X334604Y383798D01*
X333778Y384351D01*
X332802Y384544D01*
D02*
G37*
G36*
X313400Y374050D02*
X307400D01*
Y371449D01*
X306261Y370887D01*
X305982Y371101D01*
X304158Y371857D01*
X303200Y371983D01*
Y360550D01*
X309765D01*
Y363050D01*
X313400D01*
Y368550D01*
Y374050D01*
D02*
G37*
G36*
X845000Y374250D02*
X839500D01*
Y369250D01*
X845000D01*
Y374250D01*
D02*
G37*
G36*
X836500D02*
X831000D01*
Y369250D01*
X836500D01*
Y374250D01*
D02*
G37*
G36*
X829000D02*
X823500D01*
Y369250D01*
X829000D01*
Y374250D01*
D02*
G37*
G36*
X222000Y375000D02*
X205000D01*
Y366000D01*
X222000D01*
Y375000D01*
D02*
G37*
G36*
X203000D02*
X186000D01*
Y366000D01*
X203000D01*
Y375000D01*
D02*
G37*
G36*
X389600Y371983D02*
Y360550D01*
X396165D01*
Y364550D01*
X395907Y366508D01*
X395151Y368332D01*
X393949Y369899D01*
X392382Y371101D01*
X390558Y371857D01*
X389600Y371983D01*
D02*
G37*
G36*
X301200D02*
X300242Y371857D01*
X298418Y371101D01*
X296851Y369899D01*
X295649Y368332D01*
X294893Y366508D01*
X294635Y364550D01*
Y360550D01*
X301200D01*
Y371983D01*
D02*
G37*
G36*
X383400Y373950D02*
X377400D01*
Y368450D01*
Y362950D01*
X381035D01*
Y360550D01*
X387600D01*
Y371983D01*
X386642Y371857D01*
X384818Y371101D01*
X384539Y370887D01*
X383400Y371449D01*
Y373950D01*
D02*
G37*
G36*
X822005Y384000D02*
X796000D01*
Y357995D01*
X799237Y358250D01*
X803369Y359242D01*
X807296Y360868D01*
X810919Y363089D01*
X814151Y365849D01*
X816911Y369081D01*
X819132Y372704D01*
X820758Y376631D01*
X821750Y380763D01*
X822005Y384000D01*
D02*
G37*
G36*
X794000D02*
X767995D01*
X768250Y380763D01*
X769242Y376631D01*
X770868Y372704D01*
X773089Y369081D01*
X775849Y365849D01*
X779081Y363089D01*
X782704Y360868D01*
X786631Y359242D01*
X790763Y358250D01*
X794000Y357995D01*
Y384000D01*
D02*
G37*
G36*
X378900Y360950D02*
X376400D01*
Y356450D01*
X378900D01*
Y360950D01*
D02*
G37*
G36*
X314400D02*
X311900D01*
Y356450D01*
X314400D01*
Y360950D01*
D02*
G37*
G36*
X378900Y354450D02*
X376400D01*
Y349950D01*
X378900D01*
Y354450D01*
D02*
G37*
G36*
X314400D02*
X311900D01*
Y349950D01*
X314400D01*
Y354450D01*
D02*
G37*
G36*
X146000Y374505D02*
Y348500D01*
X172005D01*
X171750Y351737D01*
X170758Y355869D01*
X169132Y359796D01*
X166911Y363419D01*
X164151Y366651D01*
X160919Y369411D01*
X157296Y371632D01*
X153369Y373258D01*
X149237Y374250D01*
X146000Y374505D01*
D02*
G37*
G36*
X144000D02*
X140763Y374250D01*
X136631Y373258D01*
X132704Y371632D01*
X129081Y369411D01*
X125849Y366651D01*
X123089Y363419D01*
X120868Y359796D01*
X119242Y355869D01*
X118250Y351737D01*
X117995Y348500D01*
X144000D01*
Y374505D01*
D02*
G37*
G36*
X396165Y358550D02*
X389600D01*
Y347117D01*
X390558Y347243D01*
X392382Y347999D01*
X393949Y349201D01*
X395151Y350768D01*
X395907Y352592D01*
X396165Y354550D01*
Y358550D01*
D02*
G37*
G36*
X309765D02*
X303200D01*
Y347117D01*
X304158Y347243D01*
X305982Y347999D01*
X307549Y349201D01*
X308751Y350768D01*
X309507Y352592D01*
X309765Y354550D01*
Y358550D01*
D02*
G37*
G36*
X301200D02*
X294635D01*
Y354550D01*
X294893Y352592D01*
X295649Y350768D01*
X296851Y349201D01*
X298418Y347999D01*
X300242Y347243D01*
X301200Y347117D01*
Y358550D01*
D02*
G37*
G36*
X387600D02*
X381035D01*
Y354550D01*
X381293Y352592D01*
X382049Y350768D01*
X383251Y349201D01*
X384818Y347999D01*
X386642Y347243D01*
X387600Y347117D01*
Y358550D01*
D02*
G37*
G36*
X337000Y341250D02*
X332250D01*
Y336000D01*
X337000D01*
Y341250D01*
D02*
G37*
G36*
X661000Y340442D02*
Y333000D01*
X668442D01*
X668281Y334219D01*
X667425Y336287D01*
X666062Y338062D01*
X664287Y339425D01*
X662219Y340281D01*
X661000Y340442D01*
D02*
G37*
G36*
X659000D02*
X657781Y340281D01*
X655713Y339425D01*
X653938Y338062D01*
X652575Y336287D01*
X651719Y334219D01*
X651558Y333000D01*
X659000D01*
Y340442D01*
D02*
G37*
G36*
X337000Y334000D02*
X332250D01*
Y328750D01*
X337000D01*
Y334000D01*
D02*
G37*
G36*
X820000Y340069D02*
X817912Y339794D01*
X815965Y338988D01*
X814294Y337706D01*
X813012Y336035D01*
X812206Y334088D01*
X811931Y332000D01*
X812206Y329912D01*
X813012Y327966D01*
X814294Y326294D01*
X815965Y325012D01*
X817912Y324206D01*
X820000Y323931D01*
X822088Y324206D01*
X824035Y325012D01*
X825706Y326294D01*
X826988Y327966D01*
X827794Y329912D01*
X828069Y332000D01*
X827794Y334088D01*
X826988Y336035D01*
X825706Y337706D01*
X824035Y338988D01*
X822088Y339794D01*
X820000Y340069D01*
D02*
G37*
G36*
X780000D02*
X777912Y339794D01*
X775965Y338988D01*
X774294Y337706D01*
X773012Y336035D01*
X772206Y334088D01*
X771931Y332000D01*
X772206Y329912D01*
X773012Y327966D01*
X774294Y326294D01*
X775965Y325012D01*
X777912Y324206D01*
X780000Y323931D01*
X782088Y324206D01*
X784035Y325012D01*
X785706Y326294D01*
X786988Y327966D01*
X787794Y329912D01*
X788069Y332000D01*
X787794Y334088D01*
X786988Y336035D01*
X785706Y337706D01*
X784035Y338988D01*
X782088Y339794D01*
X780000Y340069D01*
D02*
G37*
G36*
X740000D02*
X737912Y339794D01*
X735965Y338988D01*
X734294Y337706D01*
X733012Y336035D01*
X732206Y334088D01*
X731931Y332000D01*
X732206Y329912D01*
X733012Y327966D01*
X734294Y326294D01*
X735965Y325012D01*
X737912Y324206D01*
X740000Y323931D01*
X742088Y324206D01*
X744035Y325012D01*
X745706Y326294D01*
X746988Y327966D01*
X747794Y329912D01*
X748069Y332000D01*
X747794Y334088D01*
X746988Y336035D01*
X745706Y337706D01*
X744035Y338988D01*
X742088Y339794D01*
X740000Y340069D01*
D02*
G37*
G36*
X720000D02*
X717912Y339794D01*
X715965Y338988D01*
X714294Y337706D01*
X713012Y336035D01*
X712206Y334088D01*
X711931Y332000D01*
X712206Y329912D01*
X713012Y327966D01*
X714294Y326294D01*
X715965Y325012D01*
X717912Y324206D01*
X720000Y323931D01*
X722088Y324206D01*
X724035Y325012D01*
X725706Y326294D01*
X726988Y327966D01*
X727794Y329912D01*
X728069Y332000D01*
X727794Y334088D01*
X726988Y336035D01*
X725706Y337706D01*
X724035Y338988D01*
X722088Y339794D01*
X720000Y340069D01*
D02*
G37*
G36*
X700000D02*
X697912Y339794D01*
X695965Y338988D01*
X694294Y337706D01*
X693012Y336035D01*
X692206Y334088D01*
X691931Y332000D01*
X692206Y329912D01*
X693012Y327966D01*
X694294Y326294D01*
X695965Y325012D01*
X697912Y324206D01*
X700000Y323931D01*
X702088Y324206D01*
X704035Y325012D01*
X705706Y326294D01*
X706988Y327966D01*
X707794Y329912D01*
X708069Y332000D01*
X707794Y334088D01*
X706988Y336035D01*
X705706Y337706D01*
X704035Y338988D01*
X702088Y339794D01*
X700000Y340069D01*
D02*
G37*
G36*
X680000D02*
X677912Y339794D01*
X675965Y338988D01*
X674294Y337706D01*
X673012Y336035D01*
X672206Y334088D01*
X671931Y332000D01*
X672206Y329912D01*
X673012Y327966D01*
X674294Y326294D01*
X675965Y325012D01*
X677912Y324206D01*
X680000Y323931D01*
X682088Y324206D01*
X684035Y325012D01*
X685706Y326294D01*
X686988Y327966D01*
X687794Y329912D01*
X688069Y332000D01*
X687794Y334088D01*
X686988Y336035D01*
X685706Y337706D01*
X684035Y338988D01*
X682088Y339794D01*
X680000Y340069D01*
D02*
G37*
G36*
X668442Y331000D02*
X661000D01*
Y323558D01*
X662219Y323719D01*
X664287Y324575D01*
X666062Y325938D01*
X667425Y327713D01*
X668281Y329781D01*
X668442Y331000D01*
D02*
G37*
G36*
X659000D02*
X651558D01*
X651719Y329781D01*
X652575Y327713D01*
X653938Y325938D01*
X655713Y324575D01*
X657781Y323719D01*
X659000Y323558D01*
Y331000D01*
D02*
G37*
G36*
X172005Y346500D02*
X146000D01*
Y320495D01*
X149237Y320750D01*
X153369Y321742D01*
X157296Y323368D01*
X160919Y325589D01*
X164151Y328349D01*
X166911Y331581D01*
X169132Y335204D01*
X170758Y339131D01*
X171750Y343263D01*
X172005Y346500D01*
D02*
G37*
G36*
X144000D02*
X117995D01*
X118250Y343263D01*
X119242Y339131D01*
X120868Y335204D01*
X123089Y331581D01*
X125849Y328349D01*
X129081Y325589D01*
X132704Y323368D01*
X136631Y321742D01*
X140763Y320750D01*
X144000Y320495D01*
Y346500D01*
D02*
G37*
G36*
X295810Y324820D02*
X290560D01*
Y320070D01*
X295810D01*
Y324820D01*
D02*
G37*
G36*
X288560D02*
X283310D01*
Y320070D01*
X288560D01*
Y324820D01*
D02*
G37*
G36*
X570500Y334671D02*
X567759Y334310D01*
X565205Y333252D01*
X563011Y331569D01*
X561328Y329375D01*
X560270Y326821D01*
X559909Y324080D01*
X560270Y321339D01*
X561328Y318785D01*
X563011Y316591D01*
X565205Y314908D01*
X567759Y313850D01*
X570500Y313489D01*
X573241Y313850D01*
X575795Y314908D01*
X577989Y316591D01*
X579672Y318785D01*
X580730Y321339D01*
X581091Y324080D01*
X580730Y326821D01*
X579672Y329375D01*
X577989Y331569D01*
X575795Y333252D01*
X573241Y334310D01*
X570500Y334671D01*
D02*
G37*
G36*
X545500D02*
X542759Y334310D01*
X540205Y333252D01*
X538011Y331569D01*
X536328Y329375D01*
X535270Y326821D01*
X534909Y324080D01*
X535270Y321339D01*
X536328Y318785D01*
X538011Y316591D01*
X540205Y314908D01*
X542759Y313850D01*
X545500Y313489D01*
X548241Y313850D01*
X550795Y314908D01*
X552989Y316591D01*
X554672Y318785D01*
X555730Y321339D01*
X556091Y324080D01*
X555730Y326821D01*
X554672Y329375D01*
X552989Y331569D01*
X550795Y333252D01*
X548241Y334310D01*
X545500Y334671D01*
D02*
G37*
G36*
X520500D02*
X517759Y334310D01*
X515205Y333252D01*
X513011Y331569D01*
X511328Y329375D01*
X510270Y326821D01*
X509909Y324080D01*
X510270Y321339D01*
X511328Y318785D01*
X513011Y316591D01*
X515205Y314908D01*
X517759Y313850D01*
X520500Y313489D01*
X523241Y313850D01*
X525795Y314908D01*
X527989Y316591D01*
X529672Y318785D01*
X530730Y321339D01*
X531091Y324080D01*
X530730Y326821D01*
X529672Y329375D01*
X527989Y331569D01*
X525795Y333252D01*
X523241Y334310D01*
X520500Y334671D01*
D02*
G37*
G36*
X531000Y311000D02*
X521000D01*
Y303500D01*
X531000D01*
Y311000D01*
D02*
G37*
G36*
X822000Y302863D02*
X819756Y302416D01*
X818520Y301590D01*
X817250Y302269D01*
Y302750D01*
X806750D01*
Y291250D01*
X817250D01*
Y291731D01*
X818520Y292410D01*
X819756Y291584D01*
X822000Y291137D01*
X824243Y291584D01*
X826145Y292854D01*
X827416Y294757D01*
X827863Y297000D01*
X827416Y299244D01*
X826145Y301145D01*
X824243Y302416D01*
X822000Y302863D01*
D02*
G37*
G36*
X221600Y309800D02*
X204600D01*
Y300800D01*
X221600D01*
Y309800D01*
D02*
G37*
G36*
X44200D02*
X27200D01*
Y300800D01*
X44200D01*
Y309800D01*
D02*
G37*
G36*
X202600D02*
X185600D01*
Y300800D01*
X202600D01*
Y309800D01*
D02*
G37*
G36*
X25200D02*
X8200D01*
Y300800D01*
X25200D01*
Y309800D01*
D02*
G37*
G36*
X531000Y301500D02*
X521000D01*
Y294000D01*
X531000D01*
Y301500D01*
D02*
G37*
G36*
X221600Y298800D02*
X204600D01*
Y289800D01*
X221600D01*
Y298800D01*
D02*
G37*
G36*
X202600D02*
X185600D01*
Y289800D01*
X202600D01*
Y298800D01*
D02*
G37*
G36*
X44200D02*
X27200D01*
Y289800D01*
X44200D01*
Y298800D01*
D02*
G37*
G36*
X25200D02*
X8200D01*
Y289800D01*
X25200D01*
Y298800D01*
D02*
G37*
G36*
X760000Y340069D02*
X757912Y339794D01*
X755965Y338988D01*
X754294Y337706D01*
X753012Y336035D01*
X752206Y334088D01*
X751931Y332000D01*
X752206Y329912D01*
X753012Y327966D01*
X754294Y326294D01*
X755965Y325012D01*
X757451Y324397D01*
Y310250D01*
X754250D01*
Y299750D01*
X757451D01*
Y298250D01*
X754250D01*
Y287750D01*
X755970D01*
X756355Y286480D01*
X755854Y286145D01*
X754584Y284244D01*
X754137Y282000D01*
X754584Y279757D01*
X755854Y277854D01*
X757757Y276584D01*
X760000Y276137D01*
X762243Y276584D01*
X764146Y277854D01*
X765416Y279757D01*
X765863Y282000D01*
X765416Y284244D01*
X764146Y286145D01*
X763645Y286480D01*
X764030Y287750D01*
X765750D01*
Y298250D01*
X762549D01*
Y299750D01*
X765750D01*
Y310250D01*
X762549D01*
Y324397D01*
X764035Y325012D01*
X765706Y326294D01*
X766988Y327966D01*
X767794Y329912D01*
X768069Y332000D01*
X767794Y334088D01*
X766988Y336035D01*
X765706Y337706D01*
X764035Y338988D01*
X762088Y339794D01*
X760000Y340069D01*
D02*
G37*
G36*
X182700Y271700D02*
X165700D01*
Y262700D01*
X182700D01*
Y271700D01*
D02*
G37*
G36*
X163700D02*
X146700D01*
Y262700D01*
X163700D01*
Y271700D01*
D02*
G37*
G36*
X800000Y340069D02*
X797912Y339794D01*
X795965Y338988D01*
X794294Y337706D01*
X793012Y336035D01*
X792206Y334088D01*
X791931Y332000D01*
X792206Y329912D01*
X793012Y327966D01*
X794294Y326294D01*
X795965Y325012D01*
X797451Y324397D01*
Y302750D01*
X794750D01*
Y291250D01*
X797451D01*
Y266212D01*
X795854Y265145D01*
X794584Y263244D01*
X794137Y261000D01*
X794584Y258757D01*
X795854Y256854D01*
X797757Y255584D01*
X800000Y255137D01*
X802243Y255584D01*
X804146Y256854D01*
X805416Y258757D01*
X805863Y261000D01*
X805416Y263244D01*
X804146Y265145D01*
X802549Y266212D01*
Y291250D01*
X805250D01*
Y302750D01*
X802549D01*
Y324397D01*
X804035Y325012D01*
X805706Y326294D01*
X806988Y327966D01*
X807794Y329912D01*
X808069Y332000D01*
X807794Y334088D01*
X806988Y336035D01*
X805706Y337706D01*
X804035Y338988D01*
X802088Y339794D01*
X800000Y340069D01*
D02*
G37*
G36*
X182700Y260700D02*
X165700D01*
Y251700D01*
X182700D01*
Y260700D01*
D02*
G37*
G36*
X163700D02*
X146700D01*
Y251700D01*
X163700D01*
Y260700D01*
D02*
G37*
G36*
X221600Y233600D02*
X204600D01*
Y224600D01*
X221600D01*
Y233600D01*
D02*
G37*
G36*
X44200D02*
X27200D01*
Y224600D01*
X44200D01*
Y233600D01*
D02*
G37*
G36*
X202600D02*
X185600D01*
Y224600D01*
X202600D01*
Y233600D01*
D02*
G37*
G36*
X25200D02*
X8200D01*
Y224600D01*
X25200D01*
Y233600D01*
D02*
G37*
G36*
X221600Y222600D02*
X204600D01*
Y213600D01*
X221600D01*
Y222600D01*
D02*
G37*
G36*
X202600D02*
X185600D01*
Y213600D01*
X202600D01*
Y222600D01*
D02*
G37*
G36*
X44200D02*
X27200D01*
Y213600D01*
X44200D01*
Y222600D01*
D02*
G37*
G36*
X25200D02*
X8200D01*
Y213600D01*
X25200D01*
Y222600D01*
D02*
G37*
G36*
X613250Y218624D02*
X611000D01*
X609852Y218148D01*
X605327Y213624D01*
X558198D01*
X558027Y213553D01*
X557844Y213584D01*
X557471Y213323D01*
X557050Y213148D01*
X556979Y212977D01*
X556827Y212870D01*
X556681Y212640D01*
X556581Y212065D01*
X556452Y211495D01*
X556507Y211177D01*
X556692Y210883D01*
X556762Y210542D01*
X557405Y209590D01*
X557540Y209501D01*
X557602Y209352D01*
X558000Y209187D01*
Y193951D01*
X556950Y193028D01*
X556684Y192786D01*
X556352Y192648D01*
X556242Y192384D01*
X556031Y192191D01*
X555531Y191128D01*
X555514Y190769D01*
X555376Y190437D01*
Y187000D01*
X555852Y185852D01*
X556852Y184852D01*
X558000Y184376D01*
X612598D01*
X612760Y184444D01*
X612933Y184411D01*
X613317Y184674D01*
X613746Y184852D01*
X613813Y185014D01*
X613958Y185113D01*
X614610Y186113D01*
X614696Y186570D01*
X614874Y187000D01*
X614874Y187270D01*
X616047Y187500D01*
X632250D01*
Y198202D01*
X632414Y198602D01*
X632813Y199378D01*
X634063Y199426D01*
X634601Y199674D01*
X635148Y199900D01*
X635161Y199931D01*
X635191Y199945D01*
X635397Y200501D01*
X635624Y201048D01*
Y203952D01*
X635397Y204499D01*
X635191Y205055D01*
X635161Y205069D01*
X635148Y205100D01*
X634601Y205326D01*
X634063Y205574D01*
X632813Y205622D01*
X632250Y206718D01*
Y217500D01*
X614666D01*
X614398Y218148D01*
X613250Y218624D01*
D02*
G37*
G36*
X393700Y231832D02*
X391220Y231506D01*
X388909Y230548D01*
X386925Y229025D01*
X385402Y227041D01*
X384445Y224730D01*
X384118Y222250D01*
X384445Y219770D01*
X385402Y217459D01*
X386925Y215474D01*
X388909Y213952D01*
X391220Y212994D01*
X393700Y212668D01*
X396180Y212994D01*
X398491Y213952D01*
X400475Y215474D01*
X401998Y217459D01*
X402956Y219770D01*
X403282Y222250D01*
X402956Y224730D01*
X401998Y227041D01*
X400475Y229025D01*
X398491Y230548D01*
X396180Y231506D01*
X393700Y231832D01*
D02*
G37*
G36*
X323850D02*
X321370Y231506D01*
X319059Y230548D01*
X317075Y229025D01*
X315552Y227041D01*
X314594Y224730D01*
X314268Y222250D01*
X314594Y219770D01*
X315552Y217459D01*
X317075Y215474D01*
X319059Y213952D01*
X321370Y212994D01*
X323850Y212668D01*
X326330Y212994D01*
X328641Y213952D01*
X330625Y215474D01*
X332148Y217459D01*
X333106Y219770D01*
X333432Y222250D01*
X333106Y224730D01*
X332148Y227041D01*
X330625Y229025D01*
X328641Y230548D01*
X326330Y231506D01*
X323850Y231832D01*
D02*
G37*
G36*
X462250Y214750D02*
X457000D01*
Y210000D01*
X462250D01*
Y214750D01*
D02*
G37*
G36*
X455000D02*
X449750D01*
Y210000D01*
X455000D01*
Y214750D01*
D02*
G37*
G36*
X462250Y208000D02*
X449750D01*
Y203313D01*
X449750Y203250D01*
X450250Y202187D01*
X450250Y201980D01*
Y199399D01*
X402927D01*
X401998Y201641D01*
X400475Y203625D01*
X398491Y205148D01*
X396180Y206105D01*
X393700Y206432D01*
X391220Y206105D01*
X388909Y205148D01*
X386925Y203625D01*
X385402Y201641D01*
X384445Y199330D01*
X384118Y196850D01*
X384445Y194370D01*
X385402Y192059D01*
X386925Y190075D01*
X388909Y188552D01*
X391220Y187595D01*
X393700Y187268D01*
X396180Y187595D01*
X398491Y188552D01*
X400475Y190075D01*
X401998Y192059D01*
X402927Y194301D01*
X450250D01*
Y191750D01*
X461750D01*
Y201980D01*
X461750Y202187D01*
X462250Y203250D01*
X462250Y203313D01*
Y208000D01*
D02*
G37*
G36*
X182700Y195500D02*
X165700D01*
Y186500D01*
X182700D01*
Y195500D01*
D02*
G37*
G36*
X163700D02*
X146700D01*
Y186500D01*
X163700D01*
Y195500D01*
D02*
G37*
G36*
X462250Y185750D02*
X457000D01*
Y181000D01*
X462250D01*
Y185750D01*
D02*
G37*
G36*
X455000D02*
X449750D01*
Y181000D01*
X455000D01*
Y185750D01*
D02*
G37*
G36*
X182700Y184500D02*
X165700D01*
Y175500D01*
X182700D01*
Y184500D01*
D02*
G37*
G36*
X163700D02*
X146700D01*
Y175500D01*
X163700D01*
Y184500D01*
D02*
G37*
G36*
X608000Y180500D02*
X598000D01*
Y173000D01*
X608000D01*
Y180500D01*
D02*
G37*
G36*
X596000D02*
X586000D01*
Y173000D01*
X596000D01*
Y180500D01*
D02*
G37*
G36*
X632750Y175000D02*
X624000D01*
Y169000D01*
X632750D01*
Y175000D01*
D02*
G37*
G36*
X622000D02*
X613250D01*
Y169000D01*
X622000D01*
Y175000D01*
D02*
G37*
G36*
X608000Y171000D02*
X598000D01*
Y163500D01*
X608000D01*
Y171000D01*
D02*
G37*
G36*
X596000D02*
X586000D01*
Y163500D01*
X596000D01*
Y171000D01*
D02*
G37*
G36*
X323850Y206432D02*
X321370Y206105D01*
X319059Y205148D01*
X317075Y203625D01*
X315552Y201641D01*
X314594Y199330D01*
X314268Y196850D01*
X314594Y194370D01*
X315552Y192059D01*
X317075Y190075D01*
X319059Y188552D01*
X321301Y187623D01*
Y177150D01*
X321495Y176175D01*
X322048Y175348D01*
X331198Y166198D01*
X332025Y165645D01*
X333000Y165451D01*
X450250D01*
Y162750D01*
X455617D01*
X455775Y162645D01*
X456750Y162451D01*
X457725Y162645D01*
X457882Y162750D01*
X461750D01*
Y172980D01*
X461750Y173187D01*
X462250Y174250D01*
X462250Y174313D01*
Y179000D01*
X449750D01*
Y174313D01*
X449750Y174250D01*
X450250Y173187D01*
X450250Y172980D01*
Y170549D01*
X334056D01*
X326399Y178206D01*
Y187623D01*
X328641Y188552D01*
X330625Y190075D01*
X332148Y192059D01*
X333106Y194370D01*
X333432Y196850D01*
X333106Y199330D01*
X332148Y201641D01*
X330625Y203625D01*
X328641Y205148D01*
X326330Y206105D01*
X323850Y206432D01*
D02*
G37*
G36*
X632750Y167000D02*
X623000D01*
X613250D01*
Y161819D01*
X613250Y161000D01*
X612167Y160549D01*
X528212D01*
X527146Y162146D01*
X525243Y163416D01*
X523000Y163863D01*
X520756Y163416D01*
X518854Y162146D01*
X517584Y160243D01*
X517137Y158000D01*
X517584Y155757D01*
X518854Y153855D01*
X520756Y152584D01*
X523000Y152137D01*
X525243Y152584D01*
X527146Y153855D01*
X528212Y155451D01*
X666821D01*
X667523Y154181D01*
X667131Y153549D01*
X599000D01*
X598025Y153355D01*
X597198Y152802D01*
X591807Y147412D01*
X543212D01*
X542146Y149008D01*
X540243Y150279D01*
X538000Y150725D01*
X535756Y150279D01*
X533854Y149008D01*
X532788Y147412D01*
X510250D01*
Y150750D01*
X499750D01*
Y139250D01*
X510250D01*
Y142314D01*
X532788D01*
X533854Y140717D01*
X535756Y139446D01*
X538000Y139000D01*
X540243Y139446D01*
X542146Y140717D01*
X543212Y142314D01*
X571817D01*
X572750Y141500D01*
X572750Y141044D01*
Y136000D01*
X578750D01*
Y135000D01*
X579750D01*
Y128500D01*
X584687D01*
X584750Y128500D01*
X585813Y129000D01*
X586020Y129000D01*
X588451D01*
Y126000D01*
X588645Y125024D01*
X589198Y124198D01*
X596148Y117248D01*
X596975Y116695D01*
X597950Y116501D01*
X603541D01*
X604006Y115806D01*
X605494Y114811D01*
X607250Y114462D01*
X616750D01*
X618506Y114811D01*
X619994Y115806D01*
X620989Y117294D01*
X621338Y119050D01*
X620989Y120806D01*
X619994Y122294D01*
X618506Y123289D01*
X616750Y123638D01*
X607250D01*
X605494Y123289D01*
X604006Y122294D01*
X603541Y121599D01*
X599006D01*
X593549Y127056D01*
Y129000D01*
X596750D01*
Y132451D01*
X599788D01*
X600854Y130855D01*
X602757Y129584D01*
X605000Y129137D01*
X607243Y129584D01*
X609146Y130855D01*
X610416Y132757D01*
X610863Y135000D01*
X610416Y137243D01*
X609146Y139145D01*
X607243Y140416D01*
X605000Y140863D01*
X602757Y140416D01*
X600854Y139145D01*
X599788Y137549D01*
X596750D01*
Y141000D01*
X586936D01*
X586281Y141836D01*
X586586Y142314D01*
X592863D01*
X593838Y142508D01*
X594665Y143060D01*
X600056Y148451D01*
X667788D01*
X668855Y146854D01*
X670757Y145584D01*
X673000Y145137D01*
X675244Y145584D01*
X677145Y146854D01*
X678416Y148757D01*
X678863Y151000D01*
X678416Y153244D01*
X677790Y154181D01*
X678469Y155451D01*
X708788D01*
X709855Y153855D01*
X711757Y152584D01*
X714000Y152137D01*
X716244Y152584D01*
X718146Y153855D01*
X719416Y155757D01*
X719863Y158000D01*
X719416Y160243D01*
X718146Y162146D01*
X716244Y163416D01*
X714000Y163863D01*
X711757Y163416D01*
X709855Y162146D01*
X708788Y160549D01*
X633833D01*
X632750Y161000D01*
X632750Y161819D01*
Y167000D01*
D02*
G37*
G36*
X434250Y154500D02*
X415750D01*
Y150549D01*
X412212D01*
X411146Y152146D01*
X409244Y153416D01*
X407000Y153863D01*
X404757Y153416D01*
X402854Y152146D01*
X401584Y150244D01*
X401137Y148000D01*
X401584Y145757D01*
X402854Y143855D01*
X404757Y142584D01*
X407000Y142137D01*
X409244Y142584D01*
X411146Y143855D01*
X412212Y145451D01*
X415750D01*
Y141500D01*
X434250D01*
Y154500D01*
D02*
G37*
G36*
X26800Y157400D02*
Y148400D01*
X43800D01*
Y157400D01*
X26800D01*
D02*
G37*
G36*
X221600D02*
X204600D01*
Y148400D01*
X221600D01*
Y157400D01*
D02*
G37*
G36*
X202600D02*
X185600D01*
Y148400D01*
X202600D01*
Y157400D01*
D02*
G37*
G36*
X498250Y150750D02*
X487750D01*
Y147549D01*
X470000D01*
Y150000D01*
X461000D01*
Y140000D01*
X470000D01*
Y142451D01*
X487750D01*
Y139250D01*
X498250D01*
Y150750D01*
D02*
G37*
G36*
X451500Y150500D02*
X447500D01*
Y146000D01*
X451500D01*
Y150500D01*
D02*
G37*
G36*
X445500D02*
X441500D01*
Y146000D01*
X445500D01*
Y150500D01*
D02*
G37*
G36*
X451500Y144000D02*
X447500D01*
Y139500D01*
X451500D01*
Y144000D01*
D02*
G37*
G36*
X445500D02*
X441500D01*
Y139500D01*
X445500D01*
Y144000D01*
D02*
G37*
G36*
X76200Y351303D02*
X73956Y350856D01*
X72055Y349585D01*
X70784Y347683D01*
X70337Y345440D01*
X70784Y343196D01*
X71433Y342224D01*
Y309300D01*
X58700D01*
Y290300D01*
X71433D01*
Y233100D01*
X58700D01*
Y214100D01*
X71433D01*
Y156900D01*
X58300D01*
Y137900D01*
X93300D01*
Y156900D01*
X80967D01*
Y214100D01*
X93700D01*
Y233100D01*
X80967D01*
Y290300D01*
X93700D01*
Y309300D01*
X80967D01*
Y342224D01*
X81616Y343196D01*
X82063Y345440D01*
X81616Y347683D01*
X80345Y349585D01*
X78443Y350856D01*
X76200Y351303D01*
D02*
G37*
G36*
X221600Y146400D02*
X204600D01*
Y137400D01*
X221600D01*
Y146400D01*
D02*
G37*
G36*
X202600D02*
X185600D01*
Y137400D01*
X202600D01*
Y146400D01*
D02*
G37*
G36*
X43800D02*
X26800D01*
Y137400D01*
X43800D01*
Y146400D01*
D02*
G37*
G36*
X132200Y271200D02*
X97200D01*
Y252200D01*
X109933D01*
Y195000D01*
X97200D01*
Y176000D01*
X109933D01*
Y143515D01*
X108884Y141944D01*
X108437Y139700D01*
X108884Y137457D01*
X110154Y135555D01*
X112057Y134284D01*
X114300Y133837D01*
X116544Y134284D01*
X118446Y135555D01*
X119716Y137457D01*
X120163Y139700D01*
X119716Y141944D01*
X119467Y142317D01*
Y176000D01*
X132200D01*
Y195000D01*
X119467D01*
Y252200D01*
X132200D01*
Y271200D01*
D02*
G37*
G36*
X577750Y134000D02*
X572750D01*
Y128500D01*
X577750D01*
Y134000D01*
D02*
G37*
G36*
X460500Y130000D02*
X451500D01*
Y127549D01*
X434250D01*
Y128500D01*
X415750D01*
Y124549D01*
X407000D01*
X406025Y124355D01*
X405198Y123802D01*
X391898Y110502D01*
X391345Y109676D01*
X391151Y108700D01*
Y72727D01*
X388909Y71798D01*
X386925Y70275D01*
X385402Y68291D01*
X384445Y65980D01*
X384118Y63500D01*
X384445Y61020D01*
X385402Y58709D01*
X386925Y56725D01*
X388909Y55202D01*
X391220Y54244D01*
X393700Y53918D01*
X396180Y54244D01*
X398491Y55202D01*
X400475Y56725D01*
X401998Y58709D01*
X402956Y61020D01*
X403282Y63500D01*
X402956Y65980D01*
X401998Y68291D01*
X400475Y70275D01*
X398491Y71798D01*
X396249Y72727D01*
Y107644D01*
X408056Y119451D01*
X415750D01*
Y115500D01*
X434250D01*
Y122451D01*
X451500D01*
Y120000D01*
X460500D01*
Y130000D01*
D02*
G37*
G36*
X562750Y124148D02*
X559000D01*
Y120050D01*
X567649D01*
X567460Y121001D01*
X566355Y122655D01*
X564701Y123760D01*
X562750Y124148D01*
D02*
G37*
G36*
X557000D02*
X553250D01*
X551299Y123760D01*
X549645Y122655D01*
X548540Y121001D01*
X548351Y120050D01*
X557000D01*
Y124148D01*
D02*
G37*
G36*
X567649Y118050D02*
X559000D01*
Y113952D01*
X562750D01*
X564701Y114340D01*
X566355Y115445D01*
X567460Y117099D01*
X567649Y118050D01*
D02*
G37*
G36*
X557000D02*
X548351D01*
X548540Y117099D01*
X549645Y115445D01*
X551299Y114340D01*
X553250Y113952D01*
X557000D01*
Y118050D01*
D02*
G37*
G36*
X626000Y111863D02*
X623756Y111416D01*
X621855Y110146D01*
X621504Y109621D01*
X619994Y109594D01*
X618506Y110589D01*
X616750Y110938D01*
X607250D01*
X605494Y110589D01*
X604006Y109594D01*
X603011Y108106D01*
X602662Y106350D01*
X603011Y104594D01*
X604006Y103106D01*
X605494Y102111D01*
X607250Y101762D01*
X616750D01*
X618506Y102111D01*
X619994Y103106D01*
X621270Y102729D01*
X621855Y101854D01*
X623756Y100584D01*
X626000Y100137D01*
X628243Y100584D01*
X630145Y101854D01*
X631416Y103757D01*
X631863Y106000D01*
X631416Y108244D01*
X630145Y110146D01*
X628243Y111416D01*
X626000Y111863D01*
D02*
G37*
G36*
X523000Y122863D02*
X520756Y122416D01*
X518854Y121145D01*
X517788Y119549D01*
X506000D01*
X505025Y119355D01*
X504198Y118802D01*
X497598Y112202D01*
X497045Y111375D01*
X496851Y110400D01*
Y109100D01*
X491800D01*
Y100100D01*
X491300D01*
Y96000D01*
X499400D01*
X507500D01*
Y100100D01*
X507000D01*
Y109100D01*
X503501D01*
X502975Y110370D01*
X507056Y114451D01*
X517788D01*
X518854Y112854D01*
X520756Y111584D01*
X523000Y111137D01*
X525243Y111584D01*
X527146Y112854D01*
X528212Y114451D01*
X536490D01*
X540227Y110715D01*
X539601Y109544D01*
X538000Y109863D01*
X535756Y109416D01*
X534470Y108557D01*
X533200Y109100D01*
Y109100D01*
X518000D01*
Y100870D01*
X518000Y99900D01*
X518000Y98630D01*
Y97303D01*
X517672D01*
X516696Y97109D01*
X515869Y96557D01*
X513198Y93885D01*
X512645Y93058D01*
X512451Y92083D01*
Y70981D01*
X511181Y70596D01*
X510145Y72146D01*
X508243Y73416D01*
X506000Y73863D01*
X503756Y73416D01*
X501855Y72146D01*
X500584Y70244D01*
X500137Y68000D01*
X500512Y66117D01*
X490145Y55750D01*
X483250D01*
Y44250D01*
X490145D01*
X497076Y37319D01*
Y28375D01*
X497270Y27400D01*
X497823Y26573D01*
X506198Y18198D01*
X507025Y17645D01*
X508000Y17451D01*
X511250D01*
Y14250D01*
X521480D01*
X521687Y14250D01*
X522750Y13750D01*
X522813Y13750D01*
X527500D01*
Y20000D01*
Y26250D01*
X522813D01*
X522750Y26250D01*
X521687Y25750D01*
X521480Y25750D01*
X511250D01*
Y22549D01*
X509056D01*
X502174Y29431D01*
Y38375D01*
X501980Y39350D01*
X501427Y40177D01*
X493750Y47855D01*
Y52145D01*
X504117Y62512D01*
X506000Y62137D01*
X508243Y62584D01*
X510145Y63854D01*
X511181Y65404D01*
X512451Y65019D01*
Y56000D01*
X510750D01*
Y55269D01*
X509480Y54590D01*
X508243Y55416D01*
X506000Y55863D01*
X503756Y55416D01*
X501855Y54145D01*
X500584Y52243D01*
X500137Y50000D01*
X500584Y47757D01*
X501855Y45855D01*
X503756Y44584D01*
X506000Y44137D01*
X508243Y44584D01*
X509480Y45410D01*
X510750Y44731D01*
Y44000D01*
X521480D01*
X521687Y44000D01*
X522750Y43500D01*
X522813Y43500D01*
X527750D01*
Y50000D01*
Y56500D01*
X522813D01*
X522750Y56500D01*
X521687Y56000D01*
X521480Y56000D01*
X517549D01*
Y79817D01*
X518000Y80900D01*
X518819Y80900D01*
X529595D01*
X535451Y75044D01*
Y73212D01*
X533854Y72146D01*
X532584Y70244D01*
X532137Y68000D01*
X532584Y65757D01*
X533854Y63854D01*
X535756Y62584D01*
X538000Y62137D01*
X540243Y62584D01*
X542146Y63854D01*
X543416Y65757D01*
X543863Y68000D01*
X543416Y70244D01*
X542146Y72146D01*
X540549Y73212D01*
Y76100D01*
X540355Y77076D01*
X539802Y77902D01*
X533200Y84505D01*
X533200Y90100D01*
Y91011D01*
X534470Y91537D01*
X546860Y79148D01*
X547686Y78595D01*
X548662Y78401D01*
X549541D01*
X550006Y77706D01*
X551494Y76711D01*
X553250Y76362D01*
X562750D01*
X564506Y76711D01*
X565994Y77706D01*
X566989Y79194D01*
X567338Y80950D01*
X566989Y82706D01*
X565994Y84194D01*
X564506Y85189D01*
X562750Y85538D01*
X553250D01*
X551494Y85189D01*
X550006Y84194D01*
X549110Y84106D01*
X536446Y96770D01*
X536414Y96802D01*
X536315Y96903D01*
X536004Y97296D01*
X536595Y98392D01*
X536629Y98410D01*
X538000Y98137D01*
X540243Y98584D01*
X542146Y99854D01*
X542181Y99908D01*
X543451Y99522D01*
Y97295D01*
X543645Y96320D01*
X544198Y95493D01*
X547403Y92288D01*
X548229Y91735D01*
X549205Y91541D01*
X549247D01*
X550006Y90406D01*
X551494Y89411D01*
X553250Y89062D01*
X562750D01*
X564506Y89411D01*
X565994Y90406D01*
X566989Y91894D01*
X567338Y93650D01*
X566989Y95406D01*
X565994Y96894D01*
X564506Y97889D01*
X562750Y98238D01*
X553250D01*
X551494Y97889D01*
X550006Y96894D01*
X548549Y98351D01*
Y103000D01*
X549819Y103385D01*
X550006Y103106D01*
X551494Y102111D01*
X553250Y101762D01*
X562750D01*
X564506Y102111D01*
X565994Y103106D01*
X566342Y103626D01*
X579671D01*
X580854Y101854D01*
X582757Y100584D01*
X585000Y100137D01*
X587243Y100584D01*
X587584Y100811D01*
X596548Y91848D01*
X597375Y91295D01*
X598350Y91101D01*
X603541D01*
X604006Y90406D01*
X605494Y89411D01*
X607250Y89062D01*
X616750D01*
X618506Y89411D01*
X619994Y90406D01*
X620459Y91101D01*
X631294D01*
X646451Y75944D01*
Y56000D01*
X643520D01*
X643313Y56000D01*
X642250Y56500D01*
X642187Y56500D01*
X637250D01*
Y50000D01*
Y43500D01*
X642187D01*
X642250Y43500D01*
X643313Y44000D01*
X643520Y44000D01*
X646201D01*
Y25750D01*
X643250D01*
Y14250D01*
X653750D01*
Y25750D01*
X651299D01*
Y44000D01*
X654250D01*
Y56000D01*
X651549D01*
Y77000D01*
X651355Y77975D01*
X650802Y78802D01*
X634152Y95452D01*
X633326Y96005D01*
X632350Y96199D01*
X620459D01*
X619994Y96894D01*
X618506Y97889D01*
X616750Y98238D01*
X607250D01*
X605494Y97889D01*
X604006Y96894D01*
X603541Y96199D01*
X599406D01*
X590654Y104951D01*
X590863Y106000D01*
X590416Y108244D01*
X589146Y110146D01*
X587243Y111416D01*
X585000Y111863D01*
X582757Y111416D01*
X580854Y110146D01*
X579905Y108724D01*
X566576D01*
X565994Y109594D01*
X564506Y110589D01*
X562750Y110938D01*
X553250D01*
X551494Y110589D01*
X550006Y109594D01*
X549720Y109167D01*
X548372Y109435D01*
X548355Y109521D01*
X547802Y110348D01*
X539348Y118802D01*
X538521Y119355D01*
X537546Y119549D01*
X528212D01*
X527146Y121145D01*
X525243Y122416D01*
X523000Y122863D01*
D02*
G37*
G36*
X840000Y120069D02*
X837912Y119794D01*
X835965Y118988D01*
X834294Y117706D01*
X833012Y116034D01*
X832206Y114088D01*
X831931Y112000D01*
X832206Y109912D01*
X833012Y107965D01*
X834294Y106294D01*
X835965Y105012D01*
X837912Y104206D01*
X840000Y103931D01*
X842088Y104206D01*
X844035Y105012D01*
X845706Y106294D01*
X846988Y107965D01*
X847794Y109912D01*
X848069Y112000D01*
X847794Y114088D01*
X846988Y116034D01*
X845706Y117706D01*
X844035Y118988D01*
X842088Y119794D01*
X840000Y120069D01*
D02*
G37*
G36*
X820000D02*
X817912Y119794D01*
X815965Y118988D01*
X814294Y117706D01*
X813012Y116034D01*
X812206Y114088D01*
X811931Y112000D01*
X812206Y109912D01*
X813012Y107965D01*
X814294Y106294D01*
X815965Y105012D01*
X817912Y104206D01*
X820000Y103931D01*
X822088Y104206D01*
X824035Y105012D01*
X825706Y106294D01*
X826988Y107965D01*
X827794Y109912D01*
X828069Y112000D01*
X827794Y114088D01*
X826988Y116034D01*
X825706Y117706D01*
X824035Y118988D01*
X822088Y119794D01*
X820000Y120069D01*
D02*
G37*
G36*
X800000D02*
X797912Y119794D01*
X795965Y118988D01*
X794294Y117706D01*
X793012Y116034D01*
X792206Y114088D01*
X791931Y112000D01*
X792206Y109912D01*
X793012Y107965D01*
X794294Y106294D01*
X795965Y105012D01*
X797912Y104206D01*
X800000Y103931D01*
X802088Y104206D01*
X804035Y105012D01*
X805706Y106294D01*
X806988Y107965D01*
X807794Y109912D01*
X808069Y112000D01*
X807794Y114088D01*
X806988Y116034D01*
X805706Y117706D01*
X804035Y118988D01*
X802088Y119794D01*
X800000Y120069D01*
D02*
G37*
G36*
X780000D02*
X777912Y119794D01*
X775965Y118988D01*
X774294Y117706D01*
X773012Y116034D01*
X772206Y114088D01*
X771931Y112000D01*
X772206Y109912D01*
X773012Y107965D01*
X774294Y106294D01*
X775965Y105012D01*
X777912Y104206D01*
X780000Y103931D01*
X782088Y104206D01*
X784035Y105012D01*
X785706Y106294D01*
X786988Y107965D01*
X787794Y109912D01*
X788069Y112000D01*
X787794Y114088D01*
X786988Y116034D01*
X785706Y117706D01*
X784035Y118988D01*
X782088Y119794D01*
X780000Y120069D01*
D02*
G37*
G36*
X760000D02*
X757912Y119794D01*
X755965Y118988D01*
X754294Y117706D01*
X753012Y116034D01*
X752206Y114088D01*
X751931Y112000D01*
X752206Y109912D01*
X753012Y107965D01*
X754294Y106294D01*
X755965Y105012D01*
X757912Y104206D01*
X760000Y103931D01*
X762088Y104206D01*
X764035Y105012D01*
X765706Y106294D01*
X766988Y107965D01*
X767794Y109912D01*
X768069Y112000D01*
X767794Y114088D01*
X766988Y116034D01*
X765706Y117706D01*
X764035Y118988D01*
X762088Y119794D01*
X760000Y120069D01*
D02*
G37*
G36*
X740000D02*
X737912Y119794D01*
X735965Y118988D01*
X734294Y117706D01*
X733012Y116034D01*
X732206Y114088D01*
X731931Y112000D01*
X732206Y109912D01*
X733012Y107965D01*
X734294Y106294D01*
X735965Y105012D01*
X737912Y104206D01*
X740000Y103931D01*
X742088Y104206D01*
X744035Y105012D01*
X745706Y106294D01*
X746988Y107965D01*
X747794Y109912D01*
X748069Y112000D01*
X747794Y114088D01*
X746988Y116034D01*
X745706Y117706D01*
X744035Y118988D01*
X742088Y119794D01*
X740000Y120069D01*
D02*
G37*
G36*
X720000D02*
X717912Y119794D01*
X715965Y118988D01*
X714294Y117706D01*
X713012Y116034D01*
X712206Y114088D01*
X711931Y112000D01*
X712206Y109912D01*
X713012Y107965D01*
X714294Y106294D01*
X715965Y105012D01*
X717912Y104206D01*
X720000Y103931D01*
X722088Y104206D01*
X724035Y105012D01*
X725706Y106294D01*
X726988Y107965D01*
X727794Y109912D01*
X728069Y112000D01*
X727794Y114088D01*
X726988Y116034D01*
X725706Y117706D01*
X724035Y118988D01*
X722088Y119794D01*
X720000Y120069D01*
D02*
G37*
G36*
X700000D02*
X697912Y119794D01*
X695965Y118988D01*
X694294Y117706D01*
X693012Y116034D01*
X692206Y114088D01*
X691931Y112000D01*
X692206Y109912D01*
X693012Y107965D01*
X694294Y106294D01*
X695965Y105012D01*
X697912Y104206D01*
X700000Y103931D01*
X702088Y104206D01*
X704035Y105012D01*
X705706Y106294D01*
X706988Y107965D01*
X707794Y109912D01*
X708069Y112000D01*
X707794Y114088D01*
X706988Y116034D01*
X705706Y117706D01*
X704035Y118988D01*
X702088Y119794D01*
X700000Y120069D01*
D02*
G37*
G36*
X680000D02*
X677912Y119794D01*
X675965Y118988D01*
X674294Y117706D01*
X673012Y116034D01*
X672206Y114088D01*
X671931Y112000D01*
X672206Y109912D01*
X673012Y107965D01*
X674294Y106294D01*
X675965Y105012D01*
X677912Y104206D01*
X680000Y103931D01*
X682088Y104206D01*
X684035Y105012D01*
X685706Y106294D01*
X686988Y107965D01*
X687794Y109912D01*
X688069Y112000D01*
X687794Y114088D01*
X686988Y116034D01*
X685706Y117706D01*
X684035Y118988D01*
X682088Y119794D01*
X680000Y120069D01*
D02*
G37*
G36*
X663250Y120093D02*
X656750D01*
X654897Y119724D01*
X653325Y118675D01*
X652276Y117103D01*
X651907Y115250D01*
Y108750D01*
X652276Y106897D01*
X653325Y105325D01*
X654897Y104276D01*
X656750Y103907D01*
X663250D01*
X665103Y104276D01*
X666675Y105325D01*
X667724Y106897D01*
X668093Y108750D01*
Y115250D01*
X667724Y117103D01*
X666675Y118675D01*
X665103Y119724D01*
X663250Y120093D01*
D02*
G37*
G36*
X480000Y106863D02*
X477757Y106416D01*
X475854Y105146D01*
X474788Y103549D01*
X469750D01*
Y106250D01*
X458250D01*
Y103549D01*
X417212D01*
X416146Y105146D01*
X414244Y106416D01*
X412000Y106863D01*
X409757Y106416D01*
X407854Y105146D01*
X406584Y103244D01*
X406137Y101000D01*
X406584Y98757D01*
X407854Y96854D01*
X409757Y95584D01*
X412000Y95137D01*
X414244Y95584D01*
X416146Y96854D01*
X417212Y98451D01*
X458250D01*
Y96020D01*
X458250Y95813D01*
X457750Y94750D01*
X457750Y94687D01*
Y90000D01*
X464000D01*
X470250D01*
Y94687D01*
X470250Y94750D01*
X469750Y95813D01*
X469750Y96020D01*
Y98451D01*
X474788D01*
X475854Y96854D01*
X477757Y95584D01*
X480000Y95137D01*
X482243Y95584D01*
X484146Y96854D01*
X485416Y98757D01*
X485863Y101000D01*
X485416Y103244D01*
X484146Y105146D01*
X482243Y106416D01*
X480000Y106863D01*
D02*
G37*
G36*
X146000Y124505D02*
Y98500D01*
X172005D01*
X171750Y101737D01*
X170758Y105869D01*
X169132Y109796D01*
X166911Y113419D01*
X164151Y116651D01*
X160919Y119411D01*
X157296Y121632D01*
X153369Y123258D01*
X149237Y124250D01*
X146000Y124505D01*
D02*
G37*
G36*
X144000D02*
X140763Y124250D01*
X136631Y123258D01*
X132704Y121632D01*
X129081Y119411D01*
X125849Y116651D01*
X123089Y113419D01*
X120868Y109796D01*
X119242Y105869D01*
X118250Y101737D01*
X117995Y98500D01*
X144000D01*
Y124505D01*
D02*
G37*
G36*
X470250Y88000D02*
X465000D01*
Y83250D01*
X470250D01*
Y88000D01*
D02*
G37*
G36*
X463000D02*
X457750D01*
Y83250D01*
X463000D01*
Y88000D01*
D02*
G37*
G36*
X507500Y94000D02*
X499400D01*
X491300D01*
Y89900D01*
X491800D01*
Y88049D01*
X486500D01*
X485525Y87855D01*
X484698Y87302D01*
X450198Y52802D01*
X449645Y51975D01*
X449451Y51000D01*
Y29000D01*
X449645Y28024D01*
X450198Y27198D01*
X459198Y18198D01*
X460024Y17645D01*
X461000Y17451D01*
X471250D01*
Y14250D01*
X481480D01*
X481687Y14250D01*
X482750Y13750D01*
X482813Y13750D01*
X487500D01*
Y20000D01*
Y26250D01*
X482813D01*
X482750Y26250D01*
X481687Y25750D01*
X481480Y25750D01*
X471250D01*
Y22549D01*
X462056D01*
X454549Y30056D01*
Y49944D01*
X487556Y82951D01*
X491800D01*
Y80900D01*
X496754D01*
X497000Y80851D01*
X497246Y80900D01*
X507000D01*
Y89900D01*
X507500D01*
Y94000D01*
D02*
G37*
G36*
X701973Y81641D02*
X701865D01*
X700717Y81166D01*
X700241Y80017D01*
Y79910D01*
X700717Y78762D01*
X701865Y78286D01*
X701973D01*
X703121Y78762D01*
X703596Y79910D01*
Y80017D01*
X703121Y81166D01*
X701973Y81641D01*
D02*
G37*
G36*
X221600Y81200D02*
X204600D01*
Y72200D01*
X221600D01*
Y81200D01*
D02*
G37*
G36*
X202600D02*
X185600D01*
Y72200D01*
X202600D01*
Y81200D01*
D02*
G37*
G36*
X172005Y96500D02*
X146000D01*
Y70495D01*
X149237Y70750D01*
X153369Y71742D01*
X157296Y73368D01*
X160919Y75589D01*
X164151Y78349D01*
X166911Y81581D01*
X169132Y85204D01*
X170758Y89131D01*
X171750Y93263D01*
X172005Y96500D01*
D02*
G37*
G36*
X144000D02*
X117995D01*
X118250Y93263D01*
X119242Y89131D01*
X120868Y85204D01*
X123089Y81581D01*
X125849Y78349D01*
X129081Y75589D01*
X132704Y73368D01*
X136631Y71742D01*
X140763Y70750D01*
X144000Y70495D01*
Y96500D01*
D02*
G37*
G36*
X221600Y70200D02*
X204600D01*
Y61200D01*
X221600D01*
Y70200D01*
D02*
G37*
G36*
X202600D02*
X185600D01*
Y61200D01*
X202600D01*
Y70200D01*
D02*
G37*
G36*
X796000Y87005D02*
Y61000D01*
X822005D01*
X821750Y64237D01*
X820758Y68369D01*
X819132Y72296D01*
X816911Y75919D01*
X814151Y79151D01*
X810919Y81911D01*
X807296Y84132D01*
X803369Y85758D01*
X799237Y86750D01*
X796000Y87005D01*
D02*
G37*
G36*
X794000D02*
X790763Y86750D01*
X786631Y85758D01*
X782704Y84132D01*
X779081Y81911D01*
X775849Y79151D01*
X773089Y75919D01*
X770868Y72296D01*
X769242Y68369D01*
X768250Y64237D01*
X767995Y61000D01*
X794000D01*
Y87005D01*
D02*
G37*
G36*
X616750Y85538D02*
X607250D01*
X605494Y85189D01*
X604006Y84194D01*
X603011Y82706D01*
X602662Y80950D01*
X603011Y79194D01*
X604006Y77706D01*
X605494Y76711D01*
X607250Y76362D01*
X609451D01*
Y56000D01*
X603520D01*
X603313Y56000D01*
X602250Y56500D01*
X602187Y56500D01*
X597250D01*
Y50000D01*
Y43500D01*
X602187D01*
X602250Y43500D01*
X603313Y44000D01*
X603520Y44000D01*
X614250D01*
Y52754D01*
X614299Y53000D01*
Y53612D01*
X614355Y53696D01*
X614549Y54672D01*
Y76362D01*
X616750D01*
X618506Y76711D01*
X619994Y77706D01*
X620989Y79194D01*
X621338Y80950D01*
X620989Y82706D01*
X619994Y84194D01*
X618506Y85189D01*
X616750Y85538D01*
D02*
G37*
G36*
X323850Y73082D02*
X321370Y72755D01*
X319059Y71798D01*
X317075Y70275D01*
X315552Y68291D01*
X314594Y65980D01*
X314268Y63500D01*
X314594Y61020D01*
X315552Y58709D01*
X317075Y56725D01*
X319059Y55202D01*
X321370Y54244D01*
X323850Y53918D01*
X326330Y54244D01*
X328641Y55202D01*
X330625Y56725D01*
X332148Y58709D01*
X333106Y61020D01*
X333432Y63500D01*
X333106Y65980D01*
X332148Y68291D01*
X330625Y70275D01*
X328641Y71798D01*
X326330Y72755D01*
X323850Y73082D01*
D02*
G37*
G36*
X529750Y56500D02*
Y51000D01*
X534750D01*
Y56500D01*
X529750D01*
D02*
G37*
G36*
X635250Y56500D02*
X630250D01*
Y51000D01*
X635250D01*
Y56500D01*
D02*
G37*
G36*
X595250Y56500D02*
X590250D01*
Y51000D01*
X595250D01*
Y56500D01*
D02*
G37*
G36*
X467500Y55863D02*
X465257Y55416D01*
X463354Y54145D01*
X462084Y52243D01*
X461637Y50000D01*
X462084Y47757D01*
X463354Y45855D01*
X465257Y44584D01*
X467500Y44137D01*
X469743Y44584D01*
X470136Y44846D01*
X471250Y44250D01*
Y44250D01*
X481750D01*
Y55750D01*
X471250D01*
Y55750D01*
X470136Y55154D01*
X469743Y55416D01*
X467500Y55863D01*
D02*
G37*
G36*
X534750Y49000D02*
X529750D01*
Y43500D01*
X534750D01*
Y49000D01*
D02*
G37*
G36*
X595250Y49000D02*
X590250D01*
Y43500D01*
X595250D01*
Y49000D01*
D02*
G37*
G36*
X635250D02*
X630250D01*
Y43500D01*
X635250D01*
Y49000D01*
D02*
G37*
G36*
X394700Y48055D02*
Y39100D01*
X403655D01*
X403443Y40711D01*
X402435Y43143D01*
X400832Y45232D01*
X398743Y46835D01*
X396311Y47843D01*
X394700Y48055D01*
D02*
G37*
G36*
X392700D02*
X391090Y47843D01*
X388657Y46835D01*
X386568Y45232D01*
X384965Y43143D01*
X383957Y40711D01*
X383745Y39100D01*
X392700D01*
Y48055D01*
D02*
G37*
G36*
X822005Y59000D02*
X796000D01*
Y32995D01*
X799237Y33250D01*
X803369Y34242D01*
X807296Y35868D01*
X810919Y38089D01*
X814151Y40849D01*
X816911Y44081D01*
X819132Y47704D01*
X820758Y51631D01*
X821750Y55763D01*
X822005Y59000D01*
D02*
G37*
G36*
X794000D02*
X767995D01*
X768250Y55763D01*
X769242Y51631D01*
X770868Y47704D01*
X773089Y44081D01*
X775849Y40849D01*
X779081Y38089D01*
X782704Y35868D01*
X786631Y34242D01*
X790763Y33250D01*
X794000Y32995D01*
Y59000D01*
D02*
G37*
G36*
X323850Y47682D02*
X321370Y47355D01*
X319059Y46398D01*
X317075Y44875D01*
X315552Y42891D01*
X314594Y40580D01*
X314268Y38100D01*
X314594Y35620D01*
X315552Y33309D01*
X317075Y31325D01*
X319059Y29802D01*
X321370Y28844D01*
X323850Y28518D01*
X326330Y28844D01*
X328641Y29802D01*
X330625Y31325D01*
X332148Y33309D01*
X333106Y35620D01*
X333432Y38100D01*
X333106Y40580D01*
X332148Y42891D01*
X330625Y44875D01*
X328641Y46398D01*
X326330Y47355D01*
X323850Y47682D01*
D02*
G37*
G36*
X403655Y37100D02*
X394700D01*
Y28145D01*
X396311Y28357D01*
X398743Y29365D01*
X400832Y30968D01*
X402435Y33057D01*
X403443Y35489D01*
X403655Y37100D01*
D02*
G37*
G36*
X392700D02*
X383745D01*
X383957Y35489D01*
X384965Y33057D01*
X386568Y30968D01*
X388657Y29365D01*
X391090Y28357D01*
X392700Y28145D01*
Y37100D01*
D02*
G37*
G36*
X602000Y32549D02*
X578000D01*
X577024Y32355D01*
X576198Y31802D01*
X570145Y25750D01*
X563250D01*
Y14250D01*
X573750D01*
Y22145D01*
X579056Y27451D01*
X600179D01*
X600483Y27020D01*
X599824Y25750D01*
X591250D01*
Y24778D01*
X590668Y24445D01*
X589980Y24256D01*
X588243Y25416D01*
X586000Y25863D01*
X583756Y25416D01*
X581855Y24146D01*
X580584Y22243D01*
X580137Y20000D01*
X580584Y17757D01*
X581855Y15855D01*
X583756Y14584D01*
X586000Y14137D01*
X588243Y14584D01*
X589980Y15744D01*
X590668Y15555D01*
X591250Y15222D01*
Y14250D01*
X601750D01*
Y23571D01*
X603020Y24249D01*
X603250Y24096D01*
Y14250D01*
X613750D01*
Y17451D01*
X620788D01*
X621855Y15855D01*
X623756Y14584D01*
X626000Y14137D01*
X628243Y14584D01*
X629980Y15744D01*
X630668Y15555D01*
X631250Y15222D01*
Y14250D01*
X641750D01*
Y25750D01*
X631250D01*
Y24779D01*
X630668Y24445D01*
X629980Y24256D01*
X628243Y25416D01*
X626000Y25863D01*
X623756Y25416D01*
X621855Y24146D01*
X620788Y22549D01*
X613750D01*
Y25750D01*
X608678D01*
Y25871D01*
X608484Y26847D01*
X607931Y27674D01*
X603802Y31802D01*
X602976Y32355D01*
X602000Y32549D01*
D02*
G37*
G36*
X734545Y26064D02*
X734437D01*
X733289Y25588D01*
X732814Y24440D01*
Y24332D01*
X733289Y23184D01*
X734437Y22709D01*
X734545D01*
X735693Y23184D01*
X736169Y24332D01*
Y24440D01*
X735693Y25588D01*
X734545Y26064D01*
D02*
G37*
G36*
X529500Y26250D02*
Y21000D01*
X534250D01*
Y26250D01*
X529500D01*
D02*
G37*
G36*
X489500D02*
Y21000D01*
X494250D01*
Y26250D01*
X489500D01*
D02*
G37*
G36*
X271500Y385500D02*
X236500D01*
Y366500D01*
X249233D01*
Y309300D01*
X236100D01*
Y290300D01*
X249233D01*
Y233100D01*
X236100D01*
Y214100D01*
X249233D01*
Y156900D01*
X236100D01*
Y137900D01*
X249233D01*
Y80700D01*
X236100D01*
Y61700D01*
X249233D01*
Y28616D01*
X248584Y27643D01*
X248137Y25400D01*
X248584Y23156D01*
X249855Y21254D01*
X251756Y19984D01*
X254000Y19537D01*
X256243Y19984D01*
X258146Y21254D01*
X259416Y23156D01*
X259863Y25400D01*
X259416Y27643D01*
X258767Y28616D01*
Y61700D01*
X271100D01*
Y80700D01*
X258767D01*
Y137900D01*
X271100D01*
Y156900D01*
X258767D01*
Y214100D01*
X271100D01*
Y233100D01*
X258767D01*
Y290300D01*
X271100D01*
Y309300D01*
X258767D01*
Y366500D01*
X271500D01*
Y385500D01*
D02*
G37*
G36*
X547500Y25863D02*
X545257Y25416D01*
X543354Y24146D01*
X542084Y22243D01*
X541637Y20000D01*
X542084Y17757D01*
X543354Y15855D01*
X545257Y14584D01*
X547500Y14137D01*
X549743Y14584D01*
X550136Y14846D01*
X551250Y14250D01*
Y14250D01*
X561750D01*
Y25750D01*
X551250D01*
Y25750D01*
X550136Y25154D01*
X549743Y25416D01*
X547500Y25863D01*
D02*
G37*
G36*
X534250Y19000D02*
X529500D01*
Y13750D01*
X534250D01*
Y19000D01*
D02*
G37*
G36*
X494250Y19000D02*
X489500D01*
Y13750D01*
X494250D01*
Y19000D01*
D02*
G37*
%LPD*%
G36*
X485000Y324000D02*
Y322698D01*
X485716Y320027D01*
X487098Y317633D01*
X489053Y315678D01*
X491447Y314296D01*
X494118Y313580D01*
X495420D01*
X509500Y299500D01*
Y294500D01*
X514500D01*
X525827Y283173D01*
X525341Y282000D01*
X521000D01*
Y274500D01*
X531000D01*
Y276341D01*
X532173Y276827D01*
X538000Y271000D01*
X579000D01*
X589000Y261000D01*
Y235000D01*
X538000D01*
X521000Y252000D01*
X499000D01*
X480173Y270827D01*
X480659Y272000D01*
X482000D01*
Y276125D01*
X476850D01*
Y275809D01*
X475677Y275323D01*
X461000Y290000D01*
Y316228D01*
X462270Y316754D01*
X463746Y315278D01*
X466254Y313830D01*
X469052Y313080D01*
X469500D01*
Y324080D01*
X470500D01*
Y325080D01*
X481500D01*
Y325528D01*
X481413Y325852D01*
X482513Y326487D01*
X485000Y324000D01*
D02*
G37*
G36*
X497852Y250852D02*
X499000Y250376D01*
X520327D01*
X536356Y234348D01*
X535830Y233078D01*
X518000D01*
Y244500D01*
X495000D01*
Y240549D01*
X490056D01*
X485549Y245056D01*
Y250250D01*
X488650D01*
Y258258D01*
X489920Y258784D01*
X497852Y250852D01*
D02*
G37*
%LPC*%
G36*
X481500Y323080D02*
X471500D01*
Y313080D01*
X471948D01*
X474746Y313830D01*
X477254Y315278D01*
X479302Y317326D01*
X480750Y319834D01*
X481500Y322632D01*
Y323080D01*
D02*
G37*
G36*
X489150Y282250D02*
X484000D01*
Y278125D01*
X489150D01*
Y282250D01*
D02*
G37*
G36*
X482000D02*
X476850D01*
Y278125D01*
X482000D01*
Y282250D01*
D02*
G37*
G36*
X519000Y282000D02*
X509000D01*
Y274500D01*
X519000D01*
Y282000D01*
D02*
G37*
G36*
X489150Y276125D02*
X484000D01*
Y272000D01*
X489150D01*
Y276125D01*
D02*
G37*
G36*
X531000Y272500D02*
X521000D01*
Y265000D01*
X531000D01*
Y272500D01*
D02*
G37*
G36*
X519000D02*
X509000D01*
Y265000D01*
X519000D01*
Y272500D01*
D02*
G37*
G36*
X581500Y256500D02*
X570500D01*
Y248000D01*
X581500D01*
Y256500D01*
D02*
G37*
G36*
X568500D02*
X557500D01*
Y248000D01*
X568500D01*
Y256500D01*
D02*
G37*
G36*
X581500Y246000D02*
X570500D01*
Y237500D01*
X581500D01*
Y246000D01*
D02*
G37*
G36*
X568500D02*
X557500D01*
Y237500D01*
X568500D01*
Y246000D01*
D02*
G37*
%LPD*%
G36*
X613250Y212000D02*
X623000D01*
Y211000D01*
X624000D01*
Y204000D01*
X632750D01*
Y204000D01*
X634000Y203952D01*
Y201048D01*
X632750Y201000D01*
X632730Y201000D01*
X624000D01*
Y194000D01*
X623000D01*
Y193000D01*
X613250D01*
Y187270D01*
X613250Y187000D01*
X612598Y186000D01*
X558000D01*
X557000Y187000D01*
Y190437D01*
X557500Y191500D01*
X558270Y191500D01*
X568500D01*
Y201000D01*
Y210500D01*
X558750D01*
X558107Y211451D01*
X558052Y211770D01*
X558198Y212000D01*
X606000D01*
X611000Y217000D01*
X613250D01*
Y212000D01*
D02*
G37*
%LPC*%
G36*
X622000Y210000D02*
X613250D01*
Y204000D01*
X622000D01*
Y210000D01*
D02*
G37*
G36*
X570500Y210500D02*
Y202000D01*
X581500D01*
Y210500D01*
X570500D01*
D02*
G37*
G36*
X608000Y209500D02*
X598000D01*
Y202000D01*
X608000D01*
Y209500D01*
D02*
G37*
G36*
X596000D02*
X586000D01*
Y202000D01*
X596000D01*
Y209500D01*
D02*
G37*
G36*
X622000Y201000D02*
X613250D01*
Y195000D01*
X622000D01*
Y201000D01*
D02*
G37*
G36*
X608000Y200000D02*
X598000D01*
Y192500D01*
X608000D01*
Y200000D01*
D02*
G37*
G36*
X596000D02*
X586000D01*
Y192500D01*
X596000D01*
Y200000D01*
D02*
G37*
G36*
X581500Y200000D02*
X570500D01*
Y191500D01*
X581500D01*
Y200000D01*
D02*
G37*
%LPD*%
G36*
X701973Y79910D02*
X701865D01*
Y80017D01*
X701973D01*
Y79910D01*
D02*
G37*
G36*
X734545Y24332D02*
X734437D01*
Y24440D01*
X734545D01*
Y24332D01*
D02*
G37*
D10*
X585000Y106000D02*
X586000D01*
X558000Y106350D02*
X558175Y106175D01*
X584825D01*
X586000Y106000D02*
X598350Y93650D01*
X584825Y106175D02*
X585000Y106000D01*
X598350Y93650D02*
X612000D01*
X800000Y261000D02*
Y332500D01*
X495500Y324080D02*
X514283Y342863D01*
X632000D01*
X760000Y282000D02*
Y293000D01*
X323850Y177150D02*
X333000Y168000D01*
X456000D01*
X407000Y148000D02*
X425000D01*
X393700Y108700D02*
X407000Y122000D01*
X393700Y63500D02*
Y108700D01*
X407000Y122000D02*
X425000D01*
X412000Y101000D02*
X463750D01*
X515000Y51250D02*
Y92083D01*
X517672Y94754D01*
X525354D01*
X525600Y95000D01*
X548662Y80950D02*
X558000D01*
X525600Y95000D02*
X534612D01*
X548662Y80950D01*
X523000Y158000D02*
X714000D01*
X557560Y94090D02*
X558000Y93650D01*
X549205Y94090D02*
X557560D01*
X506000Y117000D02*
X537546D01*
X499400Y110400D02*
X506000Y117000D01*
X537546D02*
X546000Y108546D01*
Y97295D02*
Y108546D01*
X591000Y134750D02*
X591250Y135000D01*
X591000Y126000D02*
Y134750D01*
X597950Y119050D02*
X612000D01*
X591000Y126000D02*
X597950Y119050D01*
X591250Y135000D02*
X605000D01*
X505137Y144863D02*
X592863D01*
X599000Y151000D01*
X505000Y145000D02*
X505137Y144863D01*
X493000Y145000D02*
X493000Y145000D01*
X608750Y50000D02*
X611750Y53000D01*
Y54422D01*
X612000Y54672D01*
Y80950D01*
X488500Y49500D02*
Y50000D01*
Y49500D02*
X499625Y38375D01*
Y28375D02*
Y38375D01*
Y28375D02*
X508000Y20000D01*
X538000Y68000D02*
Y76100D01*
X528600Y85500D02*
X538000Y76100D01*
X506000Y68000D02*
X506000D01*
X488500Y50500D02*
X506000Y68000D01*
X488500Y50000D02*
Y50500D01*
X486500Y85500D02*
X499100D01*
X452000Y51000D02*
X486500Y85500D01*
X452000Y29000D02*
Y51000D01*
X461000Y20000D02*
X476500D01*
X452000Y29000D02*
X461000Y20000D01*
X599000Y151000D02*
X673000D01*
X648750Y20250D02*
Y50000D01*
X648500Y20000D02*
X648750Y20250D01*
Y50000D02*
X649000Y50250D01*
Y77000D01*
X612000Y93650D02*
X632350D01*
X649000Y77000D01*
X546000Y97295D02*
X549205Y94090D01*
X526100Y104000D02*
X538000D01*
X525600Y104500D02*
X526100Y104000D01*
X572500Y247000D02*
X794000D01*
X569500Y246000D02*
X571500D01*
X572500Y247000D01*
X360400Y346600D02*
Y355450D01*
Y360901D01*
X357997Y363304D02*
X360400Y360901D01*
X296996Y381996D02*
X332802D01*
X337900Y368450D02*
Y376898D01*
X332802Y381996D02*
X337900Y376898D01*
X289560Y374560D02*
X296996Y381996D01*
X289560Y337820D02*
Y374560D01*
X334266Y362133D02*
X356825D01*
X357997Y363304D01*
X332949Y363450D02*
X334266Y362133D01*
X332900Y368450D02*
X332949Y368401D01*
Y363450D02*
Y368401D01*
X330400Y355450D02*
Y360901D01*
X332949Y363450D01*
X330400Y349400D02*
Y355450D01*
X357997Y363304D02*
Y368353D01*
X357900Y368450D02*
X357997Y368353D01*
X355400Y349228D02*
Y355450D01*
X350000Y343828D02*
X355400Y349228D01*
X350000Y335000D02*
Y343828D01*
X309000Y328000D02*
X330400Y349400D01*
X455750Y166000D02*
X456750Y165000D01*
X323850Y177150D02*
Y196850D01*
X455550D02*
X456200Y196200D01*
X393700Y196850D02*
X455550D01*
X499400Y104500D02*
Y110400D01*
X525600Y85500D02*
X528600D01*
X515000Y51250D02*
X516250Y50000D01*
X489000Y238000D02*
X497500D01*
X506500Y224000D02*
Y229000D01*
X497500Y238000D02*
X506500Y229000D01*
X483000Y244000D02*
X489000Y238000D01*
X483000Y244000D02*
Y254875D01*
X816000Y356000D02*
X816250Y355750D01*
X428000Y125000D02*
X456000D01*
X425000Y122000D02*
X428000Y125000D01*
X465500Y145000D02*
X493000D01*
X464000Y101000D02*
X480000D01*
X812000Y297000D02*
X822000D01*
X760000Y297000D02*
X760000Y297000D01*
X760000Y297000D02*
Y332500D01*
X586000Y20000D02*
X596500D01*
X626000D02*
X636500D01*
X608500D02*
X626000D01*
X612000Y106350D02*
X612175Y106175D01*
X625825D01*
X626000Y106000D01*
X578000Y30000D02*
X602000D01*
X568500Y20500D02*
X578000Y30000D01*
X602000D02*
X606129Y25871D01*
Y22371D02*
X608500Y20000D01*
X606129Y22371D02*
Y25871D01*
X568500Y20000D02*
Y20500D01*
X497000Y83400D02*
X499100Y85500D01*
X508000Y20000D02*
X516500D01*
D12*
X513750Y50000D02*
X515000Y51250D01*
X506000Y50000D02*
X513750D01*
X621000Y235000D02*
X623000Y237000D01*
X612000Y235000D02*
X621000D01*
X547500Y20000D02*
X556500D01*
X467500Y50000D02*
X476500D01*
X476500Y50000D01*
D16*
X370400Y355450D02*
D03*
X365400D02*
D03*
X360400D02*
D03*
X355400D02*
D03*
X350400D02*
D03*
X375400D02*
D03*
X335400D02*
D03*
X330400D02*
D03*
X325400D02*
D03*
X320400D02*
D03*
X315400D02*
D03*
X340400D02*
D03*
X322900Y368450D02*
D03*
X327900D02*
D03*
X332900D02*
D03*
X337900D02*
D03*
X342900D02*
D03*
X352900D02*
D03*
X357900D02*
D03*
X362900D02*
D03*
X367900D02*
D03*
X347900D02*
D03*
D17*
X314400Y368550D02*
D03*
X376400Y368450D02*
D03*
D18*
X597000Y201000D02*
D03*
Y172000D02*
D03*
X520000Y273500D02*
D03*
Y302500D02*
D03*
D19*
X623000Y194000D02*
D03*
Y168000D02*
D03*
X425000Y148000D02*
D03*
Y122000D02*
D03*
X623000Y237000D02*
D03*
Y211000D02*
D03*
D20*
X846000Y355750D02*
D03*
Y368250D02*
D03*
X830000Y355750D02*
D03*
Y368250D02*
D03*
D21*
X456000Y125000D02*
D03*
X446500Y145000D02*
D03*
X465500D02*
D03*
D22*
X493000Y145000D02*
D03*
X505000D02*
D03*
X350000Y335000D02*
D03*
X338000D02*
D03*
X636500Y20000D02*
D03*
X648500D02*
D03*
X800000Y297000D02*
D03*
X812000D02*
D03*
X516500Y20000D02*
D03*
X528500D02*
D03*
X476500Y50000D02*
D03*
X488500D02*
D03*
X476500Y20000D02*
D03*
X488500D02*
D03*
X596500D02*
D03*
X608500D02*
D03*
X568500D02*
D03*
X556500D02*
D03*
D23*
X506500Y224000D02*
D03*
D24*
X569500Y247000D02*
D03*
Y224000D02*
D03*
Y201000D02*
D03*
D25*
X483000Y277125D02*
D03*
Y254875D02*
D03*
D26*
X525600Y104500D02*
D03*
Y95000D02*
D03*
Y85500D02*
D03*
X499400D02*
D03*
Y95000D02*
D03*
Y104500D02*
D03*
D27*
X289560Y337820D02*
D03*
Y325820D02*
D03*
X760000Y305000D02*
D03*
Y293000D02*
D03*
X456000Y209000D02*
D03*
Y197000D02*
D03*
Y180000D02*
D03*
Y168000D02*
D03*
X464000Y89000D02*
D03*
Y101000D02*
D03*
D28*
X612000Y119050D02*
D03*
Y106350D02*
D03*
Y93650D02*
D03*
Y80950D02*
D03*
X558000D02*
D03*
Y93650D02*
D03*
Y106350D02*
D03*
Y119050D02*
D03*
D29*
X578750Y135000D02*
D03*
X591250D02*
D03*
X596250Y50000D02*
D03*
X608750D02*
D03*
X636250Y50000D02*
D03*
X648750D02*
D03*
X528750Y50000D02*
D03*
X516250D02*
D03*
D30*
X253600Y71200D02*
D03*
X203600D02*
D03*
X253600Y147400D02*
D03*
X203600D02*
D03*
X253600Y223600D02*
D03*
X203600D02*
D03*
X253600Y299800D02*
D03*
X203600D02*
D03*
X254000Y376000D02*
D03*
X204000D02*
D03*
X114700Y185500D02*
D03*
X164700D02*
D03*
X114700Y261700D02*
D03*
X164700D02*
D03*
X75800Y147400D02*
D03*
X25800D02*
D03*
X76200Y299800D02*
D03*
X26200D02*
D03*
X76200Y223600D02*
D03*
X26200D02*
D03*
D31*
X388600Y359550D02*
D03*
X302200D02*
D03*
D32*
X780000Y112000D02*
D03*
X760000D02*
D03*
X740000D02*
D03*
X720000D02*
D03*
X700000D02*
D03*
X680000D02*
D03*
X800000D02*
D03*
X820000D02*
D03*
X840000D02*
D03*
X720000Y332000D02*
D03*
X740000D02*
D03*
X760000D02*
D03*
X780000D02*
D03*
X800000D02*
D03*
X820000D02*
D03*
X700000D02*
D03*
X680000D02*
D03*
X660000D02*
D03*
D33*
Y112000D02*
D03*
X840000Y332000D02*
D03*
D34*
X302400Y413050D02*
D03*
X388800D02*
D03*
D35*
X393700Y38100D02*
D03*
Y63500D02*
D03*
X323850Y222250D02*
D03*
Y196850D02*
D03*
X393700D02*
D03*
Y222250D02*
D03*
X323850Y38100D02*
D03*
Y63500D02*
D03*
D36*
X795000Y385000D02*
D03*
X145000Y347500D02*
D03*
Y97500D02*
D03*
X795000Y60000D02*
D03*
D37*
X570500Y395880D02*
D03*
X445500D02*
D03*
D38*
Y324080D02*
D03*
X470500D02*
D03*
X495500D02*
D03*
X520500D02*
D03*
X545500D02*
D03*
X570500D02*
D03*
D39*
X585000Y106000D02*
D03*
X800000Y261000D02*
D03*
X632000Y342863D02*
D03*
X760000Y282000D02*
D03*
X407000Y148000D02*
D03*
X412000Y101000D02*
D03*
X506000Y50000D02*
D03*
X523000Y158000D02*
D03*
Y117000D02*
D03*
X605000Y135000D02*
D03*
X538000Y144863D02*
D03*
Y68000D02*
D03*
X506000D02*
D03*
X538000Y104000D02*
D03*
X673000Y151000D02*
D03*
X794000Y247000D02*
D03*
X346000Y413000D02*
D03*
X451750Y244000D02*
D03*
X436000D02*
D03*
X585250Y224000D02*
D03*
X601000D02*
D03*
X816000Y356000D02*
D03*
X480000Y101000D02*
D03*
X714000Y158000D02*
D03*
X822000Y297000D02*
D03*
X309000Y328000D02*
D03*
X586000Y20000D02*
D03*
X626000Y106000D02*
D03*
Y20000D02*
D03*
X547500D02*
D03*
X467500Y50000D02*
D03*
X254000Y25400D02*
D03*
X114300Y139700D02*
D03*
X76200Y345440D02*
D03*
D40*
X830000Y355750D02*
X840000D01*
Y332000D02*
Y355750D01*
X846000D01*
X816250D02*
X830000D01*
D41*
X254000Y71600D02*
Y376000D01*
X382920Y324080D02*
X445500D01*
X360400Y346600D02*
X382920Y324080D01*
X479580Y340000D02*
X495500Y324080D01*
X461420Y340000D02*
X479580D01*
X445500Y324080D02*
X461420Y340000D01*
X254000Y25400D02*
Y70800D01*
X253600Y71200D02*
X254000Y70800D01*
X114700Y140334D02*
Y185500D01*
X76200Y299800D02*
Y345440D01*
X253600Y71200D02*
X254000Y71600D01*
X114700Y185500D02*
Y261700D01*
X76200Y223600D02*
Y299800D01*
Y147800D02*
Y223600D01*
X75800Y147400D02*
X76200Y147800D01*
D42*
X451750Y244000D02*
X459000D01*
X436000D02*
X451750D01*
X459000D02*
X479000Y224000D01*
X506500D01*
X601000D02*
X612000Y235000D01*
X585250Y224000D02*
X601000D01*
X569500D02*
X585250D01*
X506500D02*
X569500D01*
X470500Y323624D02*
Y324080D01*
M02*
