G04*
G04 #@! TF.GenerationSoftware,Altium Limited,Altium Designer,24.1.2 (44)*
G04*
G04 Layer_Physical_Order=2*
G04 Layer_Color=16711680*
%FSLAX44Y44*%
%MOMM*%
G71*
G04*
G04 #@! TF.SameCoordinates,9A0184B9-0745-4BA0-A63A-3E559F80E0CB*
G04*
G04*
G04 #@! TF.FilePolarity,Positive*
G04*
G01*
G75*
%ADD10C,0.2000*%
%ADD31O,1.1000X2.1000*%
%ADD32C,1.3000*%
G04:AMPARAMS|DCode=33|XSize=1.3mm|YSize=1.3mm|CornerRadius=0.325mm|HoleSize=0mm|Usage=FLASHONLY|Rotation=0.000|XOffset=0mm|YOffset=0mm|HoleType=Round|Shape=RoundedRectangle|*
%AMROUNDEDRECTD33*
21,1,1.3000,0.6500,0,0,0.0*
21,1,0.6500,1.3000,0,0,0.0*
1,1,0.6500,0.3250,-0.3250*
1,1,0.6500,-0.3250,-0.3250*
1,1,0.6500,-0.3250,0.3250*
1,1,0.6500,0.3250,0.3250*
%
%ADD33ROUNDEDRECTD33*%
%ADD34O,1.1000X2.6000*%
%ADD35C,1.6000*%
%ADD36C,5.0000*%
%ADD37C,1.7000*%
%ADD38C,1.8000*%
%ADD39C,0.8500*%
%ADD43R,1.2000X3.0000*%
G36*
X853376Y6556D02*
X76556D01*
Y32500D01*
X76600D01*
X76201Y38582D01*
X75012Y44561D01*
X73053Y50333D01*
X70357Y55800D01*
X66970Y60868D01*
X62951Y65451D01*
X58368Y69470D01*
X53300Y72857D01*
X47833Y75553D01*
X42061Y77512D01*
X36082Y78701D01*
X30000Y79100D01*
Y79056D01*
X6556D01*
Y365944D01*
X30000D01*
Y365900D01*
X36082Y366299D01*
X42061Y367488D01*
X47833Y369447D01*
X53300Y372143D01*
X58368Y375530D01*
X62951Y379549D01*
X66970Y384132D01*
X70357Y389200D01*
X73053Y394667D01*
X75012Y400439D01*
X76201Y406418D01*
X76600Y412500D01*
X76556D01*
Y438444D01*
X853376D01*
Y6556D01*
D02*
G37*
%LPC*%
G36*
X388800Y427610D02*
X386973Y427370D01*
X385270Y426665D01*
X383807Y425542D01*
X382686Y424080D01*
X381980Y422377D01*
X381740Y420550D01*
Y415549D01*
X351212D01*
X350145Y417146D01*
X348243Y418416D01*
X346000Y418863D01*
X343756Y418416D01*
X341855Y417146D01*
X340788Y415549D01*
X309460D01*
Y420550D01*
X309220Y422377D01*
X308514Y424080D01*
X307393Y425542D01*
X305930Y426665D01*
X304227Y427370D01*
X302400Y427610D01*
X300573Y427370D01*
X298870Y426665D01*
X297408Y425542D01*
X296285Y424080D01*
X295580Y422377D01*
X295340Y420550D01*
Y405550D01*
X295580Y403723D01*
X296285Y402020D01*
X297408Y400558D01*
X298870Y399436D01*
X299751Y399071D01*
Y371112D01*
X298670Y370664D01*
X297208Y369542D01*
X296085Y368080D01*
X295380Y366377D01*
X295140Y364550D01*
Y354550D01*
X295380Y352723D01*
X296085Y351020D01*
X297208Y349557D01*
X298670Y348436D01*
X300373Y347730D01*
X302200Y347490D01*
X304027Y347730D01*
X305730Y348436D01*
X307192Y349557D01*
X308314Y351020D01*
X309020Y352723D01*
X309260Y354550D01*
Y364550D01*
X309020Y366377D01*
X308314Y368080D01*
X307192Y369542D01*
X305730Y370664D01*
X304849Y371030D01*
Y398988D01*
X305930Y399436D01*
X307393Y400558D01*
X308514Y402020D01*
X309220Y403723D01*
X309460Y405550D01*
Y410451D01*
X340788D01*
X341855Y408854D01*
X343756Y407584D01*
X346000Y407137D01*
X348243Y407584D01*
X350145Y408854D01*
X351212Y410451D01*
X381740D01*
Y405550D01*
X381980Y403723D01*
X382686Y402020D01*
X383807Y400558D01*
X385270Y399436D01*
X386151Y399071D01*
Y371112D01*
X385070Y370664D01*
X383607Y369542D01*
X382486Y368080D01*
X381780Y366377D01*
X381540Y364550D01*
Y354550D01*
X381780Y352723D01*
X382486Y351020D01*
X383607Y349557D01*
X385070Y348436D01*
X386773Y347730D01*
X388600Y347490D01*
X390427Y347730D01*
X392130Y348436D01*
X393592Y349557D01*
X394715Y351020D01*
X395420Y352723D01*
X395660Y354550D01*
Y364550D01*
X395420Y366377D01*
X394715Y368080D01*
X393592Y369542D01*
X392130Y370664D01*
X391249Y371030D01*
Y398988D01*
X392330Y399436D01*
X393792Y400558D01*
X394915Y402020D01*
X395620Y403723D01*
X395860Y405550D01*
Y420550D01*
X395620Y422377D01*
X394915Y424080D01*
X393792Y425542D01*
X392330Y426665D01*
X390627Y427370D01*
X388800Y427610D01*
D02*
G37*
G36*
X570500Y405966D02*
X567890Y405623D01*
X565457Y404615D01*
X563368Y403012D01*
X561765Y400923D01*
X560757Y398490D01*
X560414Y395880D01*
X560757Y393270D01*
X561765Y390837D01*
X563368Y388748D01*
X565457Y387145D01*
X567890Y386137D01*
X570500Y385794D01*
X573111Y386137D01*
X575543Y387145D01*
X577632Y388748D01*
X579235Y390837D01*
X580243Y393270D01*
X580586Y395880D01*
X580243Y398490D01*
X579235Y400923D01*
X577632Y403012D01*
X575543Y404615D01*
X573111Y405623D01*
X570500Y405966D01*
D02*
G37*
G36*
X445500D02*
X442890Y405623D01*
X440457Y404615D01*
X438368Y403012D01*
X436765Y400923D01*
X435757Y398490D01*
X435414Y395880D01*
X435757Y393270D01*
X436765Y390837D01*
X438368Y388748D01*
X440457Y387145D01*
X442890Y386137D01*
X445500Y385794D01*
X448111Y386137D01*
X450543Y387145D01*
X452632Y388748D01*
X454235Y390837D01*
X455243Y393270D01*
X455586Y395880D01*
X455243Y398490D01*
X454235Y400923D01*
X452632Y403012D01*
X450543Y404615D01*
X448111Y405623D01*
X445500Y405966D01*
D02*
G37*
G36*
X795000Y411582D02*
X790842Y411255D01*
X786786Y410281D01*
X782932Y408685D01*
X779376Y406505D01*
X776204Y403796D01*
X773495Y400625D01*
X771315Y397068D01*
X769719Y393214D01*
X768745Y389158D01*
X768418Y385000D01*
X768745Y380842D01*
X769719Y376786D01*
X771315Y372932D01*
X773495Y369375D01*
X776204Y366204D01*
X779376Y363495D01*
X782932Y361315D01*
X786786Y359719D01*
X790842Y358745D01*
X795000Y358418D01*
X799158Y358745D01*
X803214Y359719D01*
X807068Y361315D01*
X810624Y363495D01*
X813796Y366204D01*
X816505Y369375D01*
X818685Y372932D01*
X820281Y376786D01*
X821255Y380842D01*
X821582Y385000D01*
X821255Y389158D01*
X820281Y393214D01*
X818685Y397068D01*
X816505Y400625D01*
X813796Y403796D01*
X810624Y406505D01*
X807068Y408685D01*
X803214Y410281D01*
X799158Y411255D01*
X795000Y411582D01*
D02*
G37*
G36*
X817000Y362174D02*
Y357000D01*
X822173D01*
X821887Y358439D01*
X820506Y360506D01*
X818439Y361887D01*
X817000Y362174D01*
D02*
G37*
G36*
X815000D02*
X813561Y361887D01*
X811494Y360506D01*
X810113Y358439D01*
X809826Y357000D01*
X815000D01*
Y362174D01*
D02*
G37*
G36*
X822173Y355000D02*
X817000D01*
Y349827D01*
X818439Y350113D01*
X820506Y351494D01*
X821887Y353561D01*
X822173Y355000D01*
D02*
G37*
G36*
X815000D02*
X809826D01*
X810113Y353561D01*
X811494Y351494D01*
X813561Y350113D01*
X815000Y349827D01*
Y355000D01*
D02*
G37*
G36*
X77200Y351614D02*
Y346440D01*
X82374D01*
X82087Y347879D01*
X80706Y349946D01*
X78639Y351327D01*
X77200Y351614D01*
D02*
G37*
G36*
X75200D02*
X73761Y351327D01*
X71694Y349946D01*
X70313Y347879D01*
X70026Y346440D01*
X75200D01*
Y351614D01*
D02*
G37*
G36*
X82374Y344440D02*
X77200D01*
Y339267D01*
X78639Y339553D01*
X80706Y340934D01*
X82087Y343001D01*
X82374Y344440D01*
D02*
G37*
G36*
X75200D02*
X70026D01*
X70313Y343001D01*
X71694Y340934D01*
X73761Y339553D01*
X75200Y339267D01*
Y344440D01*
D02*
G37*
G36*
X843250Y340603D02*
X841000D01*
Y333000D01*
X848603D01*
Y335250D01*
X848195Y337298D01*
X847035Y339035D01*
X845298Y340195D01*
X843250Y340603D01*
D02*
G37*
G36*
X839000D02*
X836750D01*
X834702Y340195D01*
X832965Y339035D01*
X831805Y337298D01*
X831397Y335250D01*
Y333000D01*
X839000D01*
Y340603D01*
D02*
G37*
G36*
X820000Y340069D02*
X817912Y339794D01*
X815965Y338988D01*
X814294Y337706D01*
X813012Y336035D01*
X812206Y334088D01*
X811931Y332000D01*
X812206Y329912D01*
X813012Y327966D01*
X814294Y326294D01*
X815965Y325012D01*
X817912Y324206D01*
X820000Y323931D01*
X822088Y324206D01*
X824035Y325012D01*
X825706Y326294D01*
X826988Y327966D01*
X827794Y329912D01*
X828069Y332000D01*
X827794Y334088D01*
X826988Y336035D01*
X825706Y337706D01*
X824035Y338988D01*
X822088Y339794D01*
X820000Y340069D01*
D02*
G37*
G36*
X800000D02*
X797912Y339794D01*
X795965Y338988D01*
X794294Y337706D01*
X793012Y336035D01*
X792206Y334088D01*
X791931Y332000D01*
X792206Y329912D01*
X793012Y327966D01*
X794294Y326294D01*
X795965Y325012D01*
X797912Y324206D01*
X800000Y323931D01*
X802088Y324206D01*
X804035Y325012D01*
X805706Y326294D01*
X806988Y327966D01*
X807794Y329912D01*
X808069Y332000D01*
X807794Y334088D01*
X806988Y336035D01*
X805706Y337706D01*
X804035Y338988D01*
X802088Y339794D01*
X800000Y340069D01*
D02*
G37*
G36*
X780000D02*
X777912Y339794D01*
X775965Y338988D01*
X774294Y337706D01*
X773012Y336035D01*
X772206Y334088D01*
X771931Y332000D01*
X772206Y329912D01*
X773012Y327966D01*
X774294Y326294D01*
X775965Y325012D01*
X777912Y324206D01*
X780000Y323931D01*
X782088Y324206D01*
X784035Y325012D01*
X785706Y326294D01*
X786988Y327966D01*
X787794Y329912D01*
X788069Y332000D01*
X787794Y334088D01*
X786988Y336035D01*
X785706Y337706D01*
X784035Y338988D01*
X782088Y339794D01*
X780000Y340069D01*
D02*
G37*
G36*
X760000D02*
X757912Y339794D01*
X755965Y338988D01*
X754294Y337706D01*
X753012Y336035D01*
X752206Y334088D01*
X751931Y332000D01*
X752206Y329912D01*
X753012Y327966D01*
X754294Y326294D01*
X755965Y325012D01*
X757912Y324206D01*
X760000Y323931D01*
X762088Y324206D01*
X764035Y325012D01*
X765706Y326294D01*
X766988Y327966D01*
X767794Y329912D01*
X768069Y332000D01*
X767794Y334088D01*
X766988Y336035D01*
X765706Y337706D01*
X764035Y338988D01*
X762088Y339794D01*
X760000Y340069D01*
D02*
G37*
G36*
X740000D02*
X737912Y339794D01*
X735965Y338988D01*
X734294Y337706D01*
X733012Y336035D01*
X732206Y334088D01*
X731931Y332000D01*
X732206Y329912D01*
X733012Y327966D01*
X734294Y326294D01*
X735965Y325012D01*
X737912Y324206D01*
X740000Y323931D01*
X742088Y324206D01*
X744035Y325012D01*
X745706Y326294D01*
X746988Y327966D01*
X747794Y329912D01*
X748069Y332000D01*
X747794Y334088D01*
X746988Y336035D01*
X745706Y337706D01*
X744035Y338988D01*
X742088Y339794D01*
X740000Y340069D01*
D02*
G37*
G36*
X720000D02*
X717912Y339794D01*
X715965Y338988D01*
X714294Y337706D01*
X713012Y336035D01*
X712206Y334088D01*
X711931Y332000D01*
X712206Y329912D01*
X713012Y327966D01*
X714294Y326294D01*
X715965Y325012D01*
X717912Y324206D01*
X720000Y323931D01*
X722088Y324206D01*
X724035Y325012D01*
X725706Y326294D01*
X726988Y327966D01*
X727794Y329912D01*
X728069Y332000D01*
X727794Y334088D01*
X726988Y336035D01*
X725706Y337706D01*
X724035Y338988D01*
X722088Y339794D01*
X720000Y340069D01*
D02*
G37*
G36*
X700000D02*
X697912Y339794D01*
X695965Y338988D01*
X694294Y337706D01*
X693012Y336035D01*
X692206Y334088D01*
X691931Y332000D01*
X692206Y329912D01*
X693012Y327966D01*
X694294Y326294D01*
X695965Y325012D01*
X697912Y324206D01*
X700000Y323931D01*
X702088Y324206D01*
X704035Y325012D01*
X705706Y326294D01*
X706988Y327966D01*
X707794Y329912D01*
X708069Y332000D01*
X707794Y334088D01*
X706988Y336035D01*
X705706Y337706D01*
X704035Y338988D01*
X702088Y339794D01*
X700000Y340069D01*
D02*
G37*
G36*
X680000D02*
X677912Y339794D01*
X675965Y338988D01*
X674294Y337706D01*
X673012Y336035D01*
X672206Y334088D01*
X671931Y332000D01*
X672206Y329912D01*
X673012Y327966D01*
X674294Y326294D01*
X675965Y325012D01*
X677912Y324206D01*
X680000Y323931D01*
X682088Y324206D01*
X684035Y325012D01*
X685706Y326294D01*
X686988Y327966D01*
X687794Y329912D01*
X688069Y332000D01*
X687794Y334088D01*
X686988Y336035D01*
X685706Y337706D01*
X684035Y338988D01*
X682088Y339794D01*
X680000Y340069D01*
D02*
G37*
G36*
X660000D02*
X657912Y339794D01*
X655965Y338988D01*
X654294Y337706D01*
X653012Y336035D01*
X652206Y334088D01*
X651931Y332000D01*
X652206Y329912D01*
X653012Y327966D01*
X654294Y326294D01*
X655965Y325012D01*
X657912Y324206D01*
X660000Y323931D01*
X662088Y324206D01*
X664035Y325012D01*
X665706Y326294D01*
X666988Y327966D01*
X667794Y329912D01*
X668069Y332000D01*
X667794Y334088D01*
X666988Y336035D01*
X665706Y337706D01*
X664035Y338988D01*
X662088Y339794D01*
X660000Y340069D01*
D02*
G37*
G36*
X848603Y331000D02*
X841000D01*
Y323397D01*
X843250D01*
X845298Y323805D01*
X847035Y324965D01*
X848195Y326702D01*
X848603Y328750D01*
Y331000D01*
D02*
G37*
G36*
X839000D02*
X831397D01*
Y328750D01*
X831805Y326702D01*
X832965Y324965D01*
X834702Y323805D01*
X836750Y323397D01*
X839000D01*
Y331000D01*
D02*
G37*
G36*
X145000Y374082D02*
X140842Y373755D01*
X136786Y372781D01*
X132932Y371185D01*
X129375Y369005D01*
X126204Y366296D01*
X123495Y363125D01*
X121315Y359568D01*
X119719Y355714D01*
X118745Y351658D01*
X118418Y347500D01*
X118745Y343342D01*
X119719Y339286D01*
X121315Y335432D01*
X123495Y331875D01*
X126204Y328704D01*
X129375Y325995D01*
X132932Y323815D01*
X136786Y322219D01*
X140842Y321245D01*
X145000Y320918D01*
X149158Y321245D01*
X153214Y322219D01*
X157068Y323815D01*
X160625Y325995D01*
X163796Y328704D01*
X166505Y331875D01*
X168685Y335432D01*
X170281Y339286D01*
X171255Y343342D01*
X171582Y347500D01*
X171255Y351658D01*
X170281Y355714D01*
X168685Y359568D01*
X166505Y363125D01*
X163796Y366296D01*
X160625Y369005D01*
X157068Y371185D01*
X153214Y372781D01*
X149158Y373755D01*
X145000Y374082D01*
D02*
G37*
G36*
X520500Y334671D02*
X517759Y334310D01*
X515205Y333252D01*
X513011Y331569D01*
X511328Y329375D01*
X510270Y326821D01*
X509909Y324080D01*
X510270Y321339D01*
X511328Y318785D01*
X511446Y318631D01*
X478258Y285442D01*
X477705Y284615D01*
X477511Y283640D01*
Y106252D01*
X475854Y105146D01*
X474584Y103244D01*
X474137Y101000D01*
X474584Y98757D01*
X475854Y96854D01*
X477757Y95584D01*
X480000Y95137D01*
X482243Y95584D01*
X484146Y96854D01*
X485416Y98757D01*
X485863Y101000D01*
X485416Y103244D01*
X484146Y105146D01*
X482609Y106172D01*
Y282584D01*
X515051Y315026D01*
X515205Y314908D01*
X517759Y313850D01*
X520500Y313489D01*
X523241Y313850D01*
X525795Y314908D01*
X527989Y316591D01*
X529672Y318785D01*
X530730Y321339D01*
X531091Y324080D01*
X530730Y326821D01*
X529672Y329375D01*
X527989Y331569D01*
X525795Y333252D01*
X523241Y334310D01*
X520500Y334671D01*
D02*
G37*
G36*
X495500D02*
X492759Y334310D01*
X490205Y333252D01*
X488011Y331569D01*
X486328Y329375D01*
X485270Y326821D01*
X484909Y324080D01*
X485270Y321339D01*
X486328Y318785D01*
X488011Y316591D01*
X490205Y314908D01*
X492759Y313850D01*
X495500Y313489D01*
X498241Y313850D01*
X500795Y314908D01*
X502989Y316591D01*
X504672Y318785D01*
X505730Y321339D01*
X506091Y324080D01*
X505730Y326821D01*
X504672Y329375D01*
X502989Y331569D01*
X500795Y333252D01*
X498241Y334310D01*
X495500Y334671D01*
D02*
G37*
G36*
X470500D02*
X467759Y334310D01*
X465205Y333252D01*
X463011Y331569D01*
X461328Y329375D01*
X460270Y326821D01*
X459909Y324080D01*
X460270Y321339D01*
X461328Y318785D01*
X461446Y318631D01*
X381764Y238949D01*
X338000D01*
X337024Y238755D01*
X336198Y238202D01*
X328572Y230577D01*
X326330Y231506D01*
X323850Y231832D01*
X321370Y231506D01*
X319059Y230548D01*
X317075Y229025D01*
X315552Y227041D01*
X314594Y224730D01*
X314268Y222250D01*
X314594Y219770D01*
X315552Y217459D01*
X317075Y215474D01*
X319059Y213952D01*
X321370Y212994D01*
X323850Y212668D01*
X326330Y212994D01*
X328641Y213952D01*
X330625Y215474D01*
X332148Y217459D01*
X333106Y219770D01*
X333432Y222250D01*
X333106Y224730D01*
X332177Y226972D01*
X339056Y233851D01*
X382820D01*
X383796Y234045D01*
X384622Y234598D01*
X465051Y315026D01*
X465205Y314908D01*
X467759Y313850D01*
X470500Y313489D01*
X473241Y313850D01*
X475795Y314908D01*
X477989Y316591D01*
X479672Y318785D01*
X480730Y321339D01*
X481091Y324080D01*
X480730Y326821D01*
X479672Y329375D01*
X477989Y331569D01*
X475795Y333252D01*
X473241Y334310D01*
X470500Y334671D01*
D02*
G37*
G36*
X445500D02*
X442759Y334310D01*
X440205Y333252D01*
X438011Y331569D01*
X436328Y329375D01*
X435270Y326821D01*
X434909Y324080D01*
X435270Y321339D01*
X436328Y318785D01*
X438011Y316591D01*
X440205Y314908D01*
X442759Y313850D01*
X445500Y313489D01*
X448241Y313850D01*
X450795Y314908D01*
X452989Y316591D01*
X454672Y318785D01*
X455730Y321339D01*
X456091Y324080D01*
X455730Y326821D01*
X454672Y329375D01*
X452989Y331569D01*
X450795Y333252D01*
X448241Y334310D01*
X445500Y334671D01*
D02*
G37*
G36*
X823000Y303174D02*
Y298000D01*
X828174D01*
X827887Y299439D01*
X826506Y301506D01*
X824439Y302887D01*
X823000Y303174D01*
D02*
G37*
G36*
X821000D02*
X819561Y302887D01*
X817494Y301506D01*
X816113Y299439D01*
X815826Y298000D01*
X821000D01*
Y303174D01*
D02*
G37*
G36*
X828174Y296000D02*
X823000D01*
Y290826D01*
X824439Y291113D01*
X826506Y292494D01*
X827887Y294561D01*
X828174Y296000D01*
D02*
G37*
G36*
X821000D02*
X815826D01*
X816113Y294561D01*
X817494Y292494D01*
X819561Y291113D01*
X821000Y290826D01*
Y296000D01*
D02*
G37*
G36*
X761000Y288174D02*
Y283000D01*
X766174D01*
X765887Y284439D01*
X764506Y286506D01*
X762439Y287887D01*
X761000Y288174D01*
D02*
G37*
G36*
X759000D02*
X757561Y287887D01*
X755494Y286506D01*
X754113Y284439D01*
X753827Y283000D01*
X759000D01*
Y288174D01*
D02*
G37*
G36*
X766174Y281000D02*
X761000D01*
Y275826D01*
X762439Y276113D01*
X764506Y277494D01*
X765887Y279561D01*
X766174Y281000D01*
D02*
G37*
G36*
X759000D02*
X753827D01*
X754113Y279561D01*
X755494Y277494D01*
X757561Y276113D01*
X759000Y275826D01*
Y281000D01*
D02*
G37*
G36*
X452750Y250173D02*
Y245000D01*
X457924D01*
X457637Y246439D01*
X456256Y248506D01*
X454189Y249887D01*
X452750Y250173D01*
D02*
G37*
G36*
X450750D02*
X449311Y249887D01*
X447244Y248506D01*
X445863Y246439D01*
X445577Y245000D01*
X450750D01*
Y250173D01*
D02*
G37*
G36*
X437000D02*
Y245000D01*
X442174D01*
X441887Y246439D01*
X440506Y248506D01*
X438439Y249887D01*
X437000Y250173D01*
D02*
G37*
G36*
X435000D02*
X433561Y249887D01*
X431494Y248506D01*
X430113Y246439D01*
X429826Y245000D01*
X435000D01*
Y250173D01*
D02*
G37*
G36*
X457924Y243000D02*
X452750D01*
Y237826D01*
X454189Y238113D01*
X456256Y239494D01*
X457637Y241561D01*
X457924Y243000D01*
D02*
G37*
G36*
X450750D02*
X445577D01*
X445863Y241561D01*
X447244Y239494D01*
X449311Y238113D01*
X450750Y237826D01*
Y243000D01*
D02*
G37*
G36*
X442174D02*
X437000D01*
Y237826D01*
X438439Y238113D01*
X440506Y239494D01*
X441887Y241561D01*
X442174Y243000D01*
D02*
G37*
G36*
X435000D02*
X429826D01*
X430113Y241561D01*
X431494Y239494D01*
X433561Y238113D01*
X435000Y237826D01*
Y243000D01*
D02*
G37*
G36*
X602000Y230174D02*
Y225000D01*
X607174D01*
X606887Y226439D01*
X605506Y228506D01*
X603439Y229887D01*
X602000Y230174D01*
D02*
G37*
G36*
X600000D02*
X598561Y229887D01*
X596494Y228506D01*
X595113Y226439D01*
X594826Y225000D01*
X600000D01*
Y230174D01*
D02*
G37*
G36*
X586250D02*
Y225000D01*
X591423D01*
X591137Y226439D01*
X589756Y228506D01*
X587689Y229887D01*
X586250Y230174D01*
D02*
G37*
G36*
X584250D02*
X582811Y229887D01*
X580744Y228506D01*
X579363Y226439D01*
X579076Y225000D01*
X584250D01*
Y230174D01*
D02*
G37*
G36*
X394700Y232205D02*
Y223250D01*
X403655D01*
X403443Y224860D01*
X402435Y227293D01*
X400832Y229382D01*
X398743Y230985D01*
X396311Y231993D01*
X394700Y232205D01*
D02*
G37*
G36*
X392700D02*
X391090Y231993D01*
X388657Y230985D01*
X386568Y229382D01*
X384965Y227293D01*
X383957Y224860D01*
X383745Y223250D01*
X392700D01*
Y232205D01*
D02*
G37*
G36*
X607174Y223000D02*
X602000D01*
Y217826D01*
X603439Y218113D01*
X605506Y219494D01*
X606887Y221561D01*
X607174Y223000D01*
D02*
G37*
G36*
X600000D02*
X594826D01*
X595113Y221561D01*
X596494Y219494D01*
X598561Y218113D01*
X600000Y217826D01*
Y223000D01*
D02*
G37*
G36*
X591423D02*
X586250D01*
Y217826D01*
X587689Y218113D01*
X589756Y219494D01*
X591137Y221561D01*
X591423Y223000D01*
D02*
G37*
G36*
X584250D02*
X579076D01*
X579363Y221561D01*
X580744Y219494D01*
X582811Y218113D01*
X584250Y217826D01*
Y223000D01*
D02*
G37*
G36*
X403655Y221250D02*
X394700D01*
Y212295D01*
X396311Y212507D01*
X398743Y213515D01*
X400832Y215118D01*
X402435Y217207D01*
X403443Y219639D01*
X403655Y221250D01*
D02*
G37*
G36*
X392700D02*
X383745D01*
X383957Y219639D01*
X384965Y217207D01*
X386568Y215118D01*
X388657Y213515D01*
X391090Y212507D01*
X392700Y212295D01*
Y221250D01*
D02*
G37*
G36*
X762000Y207000D02*
X755000D01*
Y191000D01*
X762000D01*
Y207000D01*
D02*
G37*
G36*
X753000D02*
X746000D01*
Y191000D01*
X753000D01*
Y207000D01*
D02*
G37*
G36*
X393700Y206432D02*
X391220Y206105D01*
X388909Y205148D01*
X386925Y203625D01*
X385402Y201641D01*
X384445Y199330D01*
X384118Y196850D01*
X384445Y194370D01*
X385402Y192059D01*
X386925Y190075D01*
X388909Y188552D01*
X391220Y187595D01*
X393700Y187268D01*
X396180Y187595D01*
X398491Y188552D01*
X400475Y190075D01*
X401998Y192059D01*
X402956Y194370D01*
X403282Y196850D01*
X402956Y199330D01*
X401998Y201641D01*
X400475Y203625D01*
X398491Y205148D01*
X396180Y206105D01*
X393700Y206432D01*
D02*
G37*
G36*
X323850D02*
X321370Y206105D01*
X319059Y205148D01*
X317075Y203625D01*
X315552Y201641D01*
X314594Y199330D01*
X314268Y196850D01*
X314594Y194370D01*
X315552Y192059D01*
X317075Y190075D01*
X319059Y188552D01*
X321370Y187595D01*
X323850Y187268D01*
X326330Y187595D01*
X328641Y188552D01*
X330625Y190075D01*
X332148Y192059D01*
X333106Y194370D01*
X333432Y196850D01*
X333106Y199330D01*
X332148Y201641D01*
X330625Y203625D01*
X328641Y205148D01*
X326330Y206105D01*
X323850Y206432D01*
D02*
G37*
G36*
X632000Y348725D02*
X629757Y348279D01*
X627854Y347008D01*
X626584Y345106D01*
X626137Y342863D01*
X626584Y340619D01*
X627854Y338717D01*
X629451Y337650D01*
Y284000D01*
X629645Y283025D01*
X630198Y282198D01*
X646198Y266198D01*
X647025Y265645D01*
X648000Y265451D01*
X793821D01*
X794523Y264181D01*
X794131Y263549D01*
X699000D01*
X698025Y263355D01*
X697198Y262802D01*
X672198Y237802D01*
X671645Y236975D01*
X671451Y236000D01*
Y206500D01*
X666500D01*
Y173500D01*
X670451D01*
Y156212D01*
X668855Y155146D01*
X667584Y153244D01*
X667137Y151000D01*
X667584Y148757D01*
X668855Y146854D01*
X670757Y145584D01*
X673000Y145137D01*
X675244Y145584D01*
X677145Y146854D01*
X678416Y148757D01*
X678863Y151000D01*
X678416Y153244D01*
X677145Y155146D01*
X675549Y156212D01*
Y173500D01*
X681500D01*
Y206500D01*
X676549D01*
Y234944D01*
X700056Y258451D01*
X794788D01*
X795854Y256854D01*
X797757Y255584D01*
X800000Y255137D01*
X802243Y255584D01*
X804146Y256854D01*
X805416Y258757D01*
X805863Y261000D01*
X805416Y263244D01*
X804790Y264181D01*
X805469Y265451D01*
X809944D01*
X831451Y243944D01*
Y206500D01*
X826500D01*
Y173500D01*
X841500D01*
Y206500D01*
X836549D01*
Y245000D01*
X836355Y245975D01*
X835802Y246802D01*
X812802Y269802D01*
X811975Y270355D01*
X811000Y270549D01*
X649056D01*
X634549Y285056D01*
Y337650D01*
X636146Y338717D01*
X637416Y340619D01*
X637863Y342863D01*
X637416Y345106D01*
X636146Y347008D01*
X634244Y348279D01*
X632000Y348725D01*
D02*
G37*
G36*
X794000Y252863D02*
X791757Y252416D01*
X789855Y251145D01*
X788584Y249244D01*
X788137Y247000D01*
X788584Y244757D01*
X789855Y242854D01*
X791451Y241788D01*
Y206500D01*
X786500D01*
Y173500D01*
X801500D01*
Y206500D01*
X796549D01*
Y241788D01*
X798146Y242854D01*
X799416Y244757D01*
X799863Y247000D01*
X799416Y249244D01*
X798146Y251145D01*
X796244Y252416D01*
X794000Y252863D01*
D02*
G37*
G36*
X762000Y189000D02*
X755000D01*
Y173000D01*
X762000D01*
Y189000D01*
D02*
G37*
G36*
X753000D02*
X746000D01*
Y173000D01*
X753000D01*
Y189000D01*
D02*
G37*
G36*
X721500Y206500D02*
X706500D01*
Y173500D01*
X711451D01*
Y163212D01*
X709855Y162146D01*
X708584Y160243D01*
X708137Y158000D01*
X708584Y155757D01*
X709855Y153855D01*
X711757Y152584D01*
X714000Y152137D01*
X716244Y152584D01*
X718146Y153855D01*
X719416Y155757D01*
X719863Y158000D01*
X719416Y160243D01*
X718146Y162146D01*
X716549Y163212D01*
Y173500D01*
X721500D01*
Y206500D01*
D02*
G37*
G36*
X545500Y334671D02*
X542759Y334310D01*
X540205Y333252D01*
X538011Y331569D01*
X536328Y329375D01*
X535270Y326821D01*
X534909Y324080D01*
X535270Y321339D01*
X536328Y318785D01*
X538011Y316591D01*
X540205Y314908D01*
X542759Y313850D01*
X542951Y313825D01*
Y149915D01*
X541681Y149319D01*
X540243Y150279D01*
X538000Y150725D01*
X535756Y150279D01*
X533854Y149008D01*
X532584Y147106D01*
X532137Y144863D01*
X532584Y142619D01*
X533854Y140717D01*
X535451Y139650D01*
Y109212D01*
X533854Y108146D01*
X532584Y106243D01*
X532137Y104000D01*
X532584Y101756D01*
X533854Y99854D01*
X535756Y98584D01*
X538000Y98137D01*
X540243Y98584D01*
X542146Y99854D01*
X543416Y101756D01*
X543863Y104000D01*
X543416Y106243D01*
X542146Y108146D01*
X540549Y109212D01*
Y139650D01*
X541681Y140407D01*
X542951Y139811D01*
Y114500D01*
X543145Y113525D01*
X543698Y112698D01*
X583451Y72944D01*
Y25212D01*
X581855Y24146D01*
X580584Y22243D01*
X580137Y20000D01*
X580584Y17757D01*
X581855Y15855D01*
X583756Y14584D01*
X586000Y14137D01*
X588243Y14584D01*
X590145Y15855D01*
X591416Y17757D01*
X591863Y20000D01*
X591416Y22243D01*
X590145Y24146D01*
X588549Y25212D01*
Y74000D01*
X588355Y74976D01*
X587802Y75802D01*
X548049Y115556D01*
Y313825D01*
X548241Y313850D01*
X550795Y314908D01*
X552989Y316591D01*
X554672Y318785D01*
X555730Y321339D01*
X556091Y324080D01*
X555730Y326821D01*
X554672Y329375D01*
X552989Y331569D01*
X550795Y333252D01*
X548241Y334310D01*
X545500Y334671D01*
D02*
G37*
G36*
X408000Y154174D02*
Y149000D01*
X413173D01*
X412887Y150439D01*
X411506Y152506D01*
X409439Y153887D01*
X408000Y154174D01*
D02*
G37*
G36*
X406000D02*
X404561Y153887D01*
X402494Y152506D01*
X401113Y150439D01*
X400826Y149000D01*
X406000D01*
Y154174D01*
D02*
G37*
G36*
X413173Y147000D02*
X408000D01*
Y141826D01*
X409439Y142113D01*
X411506Y143494D01*
X412887Y145561D01*
X413173Y147000D01*
D02*
G37*
G36*
X406000D02*
X400826D01*
X401113Y145561D01*
X402494Y143494D01*
X404561Y142113D01*
X406000Y141826D01*
Y147000D01*
D02*
G37*
G36*
X115300Y145873D02*
Y140700D01*
X120473D01*
X120187Y142139D01*
X118806Y144206D01*
X116739Y145587D01*
X115300Y145873D01*
D02*
G37*
G36*
X113300D02*
X111861Y145587D01*
X109794Y144206D01*
X108413Y142139D01*
X108126Y140700D01*
X113300D01*
Y145873D01*
D02*
G37*
G36*
X606000Y141174D02*
Y136000D01*
X611174D01*
X610887Y137439D01*
X609506Y139506D01*
X607439Y140887D01*
X606000Y141174D01*
D02*
G37*
G36*
X604000D02*
X602561Y140887D01*
X600494Y139506D01*
X599113Y137439D01*
X598826Y136000D01*
X604000D01*
Y141174D01*
D02*
G37*
G36*
X120473Y138700D02*
X115300D01*
Y133526D01*
X116739Y133813D01*
X118806Y135194D01*
X120187Y137261D01*
X120473Y138700D01*
D02*
G37*
G36*
X113300D02*
X108126D01*
X108413Y137261D01*
X109794Y135194D01*
X111861Y133813D01*
X113300Y133526D01*
Y138700D01*
D02*
G37*
G36*
X611174Y134000D02*
X606000D01*
Y128827D01*
X607439Y129113D01*
X609506Y130494D01*
X610887Y132561D01*
X611174Y134000D01*
D02*
G37*
G36*
X604000D02*
X598826D01*
X599113Y132561D01*
X600494Y130494D01*
X602561Y129113D01*
X604000Y128827D01*
Y134000D01*
D02*
G37*
G36*
X523000Y163863D02*
X520756Y163416D01*
X518854Y162146D01*
X517584Y160243D01*
X517137Y158000D01*
X517584Y155757D01*
X518854Y153855D01*
X520451Y152788D01*
Y122212D01*
X518854Y121145D01*
X517584Y119243D01*
X517137Y117000D01*
X517584Y114756D01*
X518854Y112854D01*
X520756Y111584D01*
X523000Y111137D01*
X525243Y111584D01*
X527146Y112854D01*
X528416Y114756D01*
X528863Y117000D01*
X528416Y119243D01*
X527146Y121145D01*
X525549Y122212D01*
Y152788D01*
X527146Y153855D01*
X528416Y155757D01*
X528863Y158000D01*
X528416Y160243D01*
X527146Y162146D01*
X525243Y163416D01*
X523000Y163863D01*
D02*
G37*
G36*
X840000Y120069D02*
X837912Y119794D01*
X835965Y118988D01*
X834294Y117706D01*
X833012Y116034D01*
X832206Y114088D01*
X831931Y112000D01*
X832206Y109912D01*
X833012Y107965D01*
X834294Y106294D01*
X835965Y105012D01*
X837912Y104206D01*
X840000Y103931D01*
X842088Y104206D01*
X844035Y105012D01*
X845706Y106294D01*
X846988Y107965D01*
X847794Y109912D01*
X848069Y112000D01*
X847794Y114088D01*
X846988Y116034D01*
X845706Y117706D01*
X844035Y118988D01*
X842088Y119794D01*
X840000Y120069D01*
D02*
G37*
G36*
X820000D02*
X817912Y119794D01*
X815965Y118988D01*
X814294Y117706D01*
X813012Y116034D01*
X812206Y114088D01*
X811931Y112000D01*
X812206Y109912D01*
X813012Y107965D01*
X814294Y106294D01*
X815965Y105012D01*
X817912Y104206D01*
X820000Y103931D01*
X822088Y104206D01*
X824035Y105012D01*
X825706Y106294D01*
X826988Y107965D01*
X827794Y109912D01*
X828069Y112000D01*
X827794Y114088D01*
X826988Y116034D01*
X825706Y117706D01*
X824035Y118988D01*
X822088Y119794D01*
X820000Y120069D01*
D02*
G37*
G36*
X800000D02*
X797912Y119794D01*
X795965Y118988D01*
X794294Y117706D01*
X793012Y116034D01*
X792206Y114088D01*
X791931Y112000D01*
X792206Y109912D01*
X793012Y107965D01*
X794294Y106294D01*
X795965Y105012D01*
X797912Y104206D01*
X800000Y103931D01*
X802088Y104206D01*
X804035Y105012D01*
X805706Y106294D01*
X806988Y107965D01*
X807794Y109912D01*
X808069Y112000D01*
X807794Y114088D01*
X806988Y116034D01*
X805706Y117706D01*
X804035Y118988D01*
X802088Y119794D01*
X800000Y120069D01*
D02*
G37*
G36*
X780000D02*
X777912Y119794D01*
X775965Y118988D01*
X774294Y117706D01*
X773012Y116034D01*
X772206Y114088D01*
X771931Y112000D01*
X772206Y109912D01*
X773012Y107965D01*
X774294Y106294D01*
X775965Y105012D01*
X777912Y104206D01*
X780000Y103931D01*
X782088Y104206D01*
X784035Y105012D01*
X785706Y106294D01*
X786988Y107965D01*
X787794Y109912D01*
X788069Y112000D01*
X787794Y114088D01*
X786988Y116034D01*
X785706Y117706D01*
X784035Y118988D01*
X782088Y119794D01*
X780000Y120069D01*
D02*
G37*
G36*
X760000D02*
X757912Y119794D01*
X755965Y118988D01*
X754294Y117706D01*
X753012Y116034D01*
X752206Y114088D01*
X751931Y112000D01*
X752206Y109912D01*
X753012Y107965D01*
X754294Y106294D01*
X755965Y105012D01*
X757912Y104206D01*
X760000Y103931D01*
X762088Y104206D01*
X764035Y105012D01*
X765706Y106294D01*
X766988Y107965D01*
X767794Y109912D01*
X768069Y112000D01*
X767794Y114088D01*
X766988Y116034D01*
X765706Y117706D01*
X764035Y118988D01*
X762088Y119794D01*
X760000Y120069D01*
D02*
G37*
G36*
X740000D02*
X737912Y119794D01*
X735965Y118988D01*
X734294Y117706D01*
X733012Y116034D01*
X732206Y114088D01*
X731931Y112000D01*
X732206Y109912D01*
X733012Y107965D01*
X734294Y106294D01*
X735965Y105012D01*
X737912Y104206D01*
X740000Y103931D01*
X742088Y104206D01*
X744035Y105012D01*
X745706Y106294D01*
X746988Y107965D01*
X747794Y109912D01*
X748069Y112000D01*
X747794Y114088D01*
X746988Y116034D01*
X745706Y117706D01*
X744035Y118988D01*
X742088Y119794D01*
X740000Y120069D01*
D02*
G37*
G36*
X720000D02*
X717912Y119794D01*
X715965Y118988D01*
X714294Y117706D01*
X713012Y116034D01*
X712206Y114088D01*
X711931Y112000D01*
X712206Y109912D01*
X713012Y107965D01*
X714294Y106294D01*
X715965Y105012D01*
X717912Y104206D01*
X720000Y103931D01*
X722088Y104206D01*
X724035Y105012D01*
X725706Y106294D01*
X726988Y107965D01*
X727794Y109912D01*
X728069Y112000D01*
X727794Y114088D01*
X726988Y116034D01*
X725706Y117706D01*
X724035Y118988D01*
X722088Y119794D01*
X720000Y120069D01*
D02*
G37*
G36*
X700000D02*
X697912Y119794D01*
X695965Y118988D01*
X694294Y117706D01*
X693012Y116034D01*
X692206Y114088D01*
X691931Y112000D01*
X692206Y109912D01*
X693012Y107965D01*
X694294Y106294D01*
X695965Y105012D01*
X697912Y104206D01*
X700000Y103931D01*
X702088Y104206D01*
X704035Y105012D01*
X705706Y106294D01*
X706988Y107965D01*
X707794Y109912D01*
X708069Y112000D01*
X707794Y114088D01*
X706988Y116034D01*
X705706Y117706D01*
X704035Y118988D01*
X702088Y119794D01*
X700000Y120069D01*
D02*
G37*
G36*
X680000D02*
X677912Y119794D01*
X675965Y118988D01*
X674294Y117706D01*
X673012Y116034D01*
X672206Y114088D01*
X671931Y112000D01*
X672206Y109912D01*
X673012Y107965D01*
X674294Y106294D01*
X675965Y105012D01*
X677912Y104206D01*
X680000Y103931D01*
X682088Y104206D01*
X684035Y105012D01*
X685706Y106294D01*
X686988Y107965D01*
X687794Y109912D01*
X688069Y112000D01*
X687794Y114088D01*
X686988Y116034D01*
X685706Y117706D01*
X684035Y118988D01*
X682088Y119794D01*
X680000Y120069D01*
D02*
G37*
G36*
X663250Y120093D02*
X656750D01*
X654897Y119724D01*
X653325Y118675D01*
X652276Y117103D01*
X651907Y115250D01*
Y108750D01*
X652276Y106897D01*
X653325Y105325D01*
X654897Y104276D01*
X656750Y103907D01*
X663250D01*
X665103Y104276D01*
X666675Y105325D01*
X667724Y106897D01*
X668093Y108750D01*
Y115250D01*
X667724Y117103D01*
X666675Y118675D01*
X665103Y119724D01*
X663250Y120093D01*
D02*
G37*
G36*
X570500Y334671D02*
X567759Y334310D01*
X565205Y333252D01*
X563011Y331569D01*
X561328Y329375D01*
X560270Y326821D01*
X559909Y324080D01*
X560270Y321339D01*
X561328Y318785D01*
X563011Y316591D01*
X565205Y314908D01*
X567759Y313850D01*
X567951Y313825D01*
Y120500D01*
X568145Y119524D01*
X568698Y118698D01*
X579512Y107883D01*
X579137Y106000D01*
X579584Y103757D01*
X580854Y101854D01*
X582757Y100584D01*
X585000Y100137D01*
X587243Y100584D01*
X589146Y101854D01*
X590416Y103757D01*
X590863Y106000D01*
X590416Y108244D01*
X589146Y110146D01*
X587243Y111416D01*
X585000Y111863D01*
X583117Y111488D01*
X573049Y121556D01*
Y313825D01*
X573241Y313850D01*
X575795Y314908D01*
X577989Y316591D01*
X579672Y318785D01*
X580730Y321339D01*
X581091Y324080D01*
X580730Y326821D01*
X579672Y329375D01*
X577989Y331569D01*
X575795Y333252D01*
X573241Y334310D01*
X570500Y334671D01*
D02*
G37*
G36*
X412000Y106863D02*
X409757Y106416D01*
X407854Y105146D01*
X406788Y103549D01*
X386750D01*
X385775Y103355D01*
X384948Y102802D01*
X328572Y46427D01*
X326330Y47355D01*
X323850Y47682D01*
X321370Y47355D01*
X319059Y46398D01*
X317075Y44875D01*
X315552Y42891D01*
X314594Y40580D01*
X314268Y38100D01*
X314594Y35620D01*
X315552Y33309D01*
X317075Y31325D01*
X319059Y29802D01*
X321370Y28844D01*
X323850Y28518D01*
X326330Y28844D01*
X328641Y29802D01*
X330625Y31325D01*
X332148Y33309D01*
X333106Y35620D01*
X333432Y38100D01*
X333106Y40580D01*
X332177Y42822D01*
X387806Y98451D01*
X406788D01*
X407854Y96854D01*
X409757Y95584D01*
X412000Y95137D01*
X414244Y95584D01*
X416146Y96854D01*
X417416Y98757D01*
X417863Y101000D01*
X417416Y103244D01*
X416146Y105146D01*
X414244Y106416D01*
X412000Y106863D01*
D02*
G37*
G36*
X145000Y124082D02*
X140842Y123755D01*
X136786Y122781D01*
X132932Y121185D01*
X129375Y119005D01*
X126204Y116296D01*
X123495Y113125D01*
X121315Y109568D01*
X119719Y105714D01*
X118745Y101658D01*
X118418Y97500D01*
X118745Y93342D01*
X119719Y89286D01*
X121315Y85432D01*
X123495Y81875D01*
X126204Y78704D01*
X129375Y75995D01*
X132932Y73815D01*
X136786Y72219D01*
X140842Y71245D01*
X145000Y70918D01*
X149158Y71245D01*
X153214Y72219D01*
X157068Y73815D01*
X160625Y75995D01*
X163796Y78704D01*
X166505Y81875D01*
X168685Y85432D01*
X170281Y89286D01*
X171255Y93342D01*
X171582Y97500D01*
X171255Y101658D01*
X170281Y105714D01*
X168685Y109568D01*
X166505Y113125D01*
X163796Y116296D01*
X160625Y119005D01*
X157068Y121185D01*
X153214Y122781D01*
X149158Y123755D01*
X145000Y124082D01*
D02*
G37*
G36*
X538000Y73863D02*
X535756Y73416D01*
X533854Y72146D01*
X532788Y70549D01*
X511212D01*
X510145Y72146D01*
X508243Y73416D01*
X506000Y73863D01*
X503756Y73416D01*
X501855Y72146D01*
X500584Y70244D01*
X500137Y68000D01*
X500584Y65757D01*
X501855Y63854D01*
X503756Y62584D01*
X506000Y62137D01*
X508243Y62584D01*
X510145Y63854D01*
X511212Y65451D01*
X532788D01*
X533854Y63854D01*
X535756Y62584D01*
X538000Y62137D01*
X540243Y62584D01*
X542146Y63854D01*
X543416Y65757D01*
X543863Y68000D01*
X543416Y70244D01*
X542146Y72146D01*
X540243Y73416D01*
X538000Y73863D01*
D02*
G37*
G36*
X393700Y73082D02*
X391220Y72755D01*
X388909Y71798D01*
X386925Y70275D01*
X385402Y68291D01*
X384445Y65980D01*
X384118Y63500D01*
X384445Y61020D01*
X385402Y58709D01*
X386925Y56725D01*
X388909Y55202D01*
X391220Y54244D01*
X393700Y53918D01*
X396180Y54244D01*
X398491Y55202D01*
X400475Y56725D01*
X401998Y58709D01*
X402956Y61020D01*
X403282Y63500D01*
X402956Y65980D01*
X401998Y68291D01*
X400475Y70275D01*
X398491Y71798D01*
X396180Y72755D01*
X393700Y73082D01*
D02*
G37*
G36*
X309000Y333863D02*
X306756Y333416D01*
X304855Y332146D01*
X303584Y330243D01*
X303137Y328000D01*
X303584Y325756D01*
X304855Y323854D01*
X306451Y322788D01*
Y78350D01*
X306645Y77375D01*
X307198Y76548D01*
X315523Y68222D01*
X314594Y65980D01*
X314268Y63500D01*
X314594Y61020D01*
X315552Y58709D01*
X317075Y56725D01*
X319059Y55202D01*
X321370Y54244D01*
X323850Y53918D01*
X326330Y54244D01*
X328641Y55202D01*
X330625Y56725D01*
X332148Y58709D01*
X333106Y61020D01*
X333432Y63500D01*
X333106Y65980D01*
X332148Y68291D01*
X330625Y70275D01*
X328641Y71798D01*
X326330Y72755D01*
X323850Y73082D01*
X321370Y72755D01*
X319128Y71827D01*
X311549Y79406D01*
Y322788D01*
X313146Y323854D01*
X314416Y325756D01*
X314863Y328000D01*
X314416Y330243D01*
X313146Y332146D01*
X311243Y333416D01*
X309000Y333863D01*
D02*
G37*
G36*
X507000Y56174D02*
Y51000D01*
X512174D01*
X511887Y52439D01*
X510506Y54506D01*
X508439Y55887D01*
X507000Y56174D01*
D02*
G37*
G36*
X505000D02*
X503561Y55887D01*
X501494Y54506D01*
X500113Y52439D01*
X499827Y51000D01*
X505000D01*
Y56174D01*
D02*
G37*
G36*
X468500D02*
Y51000D01*
X473674D01*
X473387Y52439D01*
X472006Y54506D01*
X469939Y55887D01*
X468500Y56174D01*
D02*
G37*
G36*
X466500D02*
X465061Y55887D01*
X462994Y54506D01*
X461613Y52439D01*
X461326Y51000D01*
X466500D01*
Y56174D01*
D02*
G37*
G36*
X512174Y49000D02*
X507000D01*
Y43826D01*
X508439Y44113D01*
X510506Y45494D01*
X511887Y47561D01*
X512174Y49000D01*
D02*
G37*
G36*
X505000D02*
X499827D01*
X500113Y47561D01*
X501494Y45494D01*
X503561Y44113D01*
X505000Y43826D01*
Y49000D01*
D02*
G37*
G36*
X473674D02*
X468500D01*
Y43826D01*
X469939Y44113D01*
X472006Y45494D01*
X473387Y47561D01*
X473674Y49000D01*
D02*
G37*
G36*
X466500D02*
X461326D01*
X461613Y47561D01*
X462994Y45494D01*
X465061Y44113D01*
X466500Y43826D01*
Y49000D01*
D02*
G37*
G36*
X795000Y86582D02*
X790842Y86255D01*
X786786Y85281D01*
X782932Y83685D01*
X779376Y81505D01*
X776204Y78796D01*
X773495Y75624D01*
X771315Y72068D01*
X769719Y68214D01*
X768745Y64158D01*
X768418Y60000D01*
X768745Y55842D01*
X769719Y51786D01*
X771315Y47932D01*
X773495Y44376D01*
X776204Y41204D01*
X779376Y38495D01*
X782932Y36315D01*
X786786Y34719D01*
X790842Y33745D01*
X795000Y33418D01*
X799158Y33745D01*
X803214Y34719D01*
X807068Y36315D01*
X810624Y38495D01*
X813796Y41204D01*
X816505Y44376D01*
X818685Y47932D01*
X820281Y51786D01*
X821255Y55842D01*
X821582Y60000D01*
X821255Y64158D01*
X820281Y68214D01*
X818685Y72068D01*
X816505Y75624D01*
X813796Y78796D01*
X810624Y81505D01*
X807068Y83685D01*
X803214Y85281D01*
X799158Y86255D01*
X795000Y86582D01*
D02*
G37*
G36*
X393700Y47682D02*
X391220Y47355D01*
X388909Y46398D01*
X386925Y44875D01*
X385402Y42891D01*
X384445Y40580D01*
X384118Y38100D01*
X384445Y35620D01*
X385402Y33309D01*
X386925Y31325D01*
X388909Y29802D01*
X391220Y28844D01*
X393700Y28518D01*
X396180Y28844D01*
X398491Y29802D01*
X400475Y31325D01*
X401998Y33309D01*
X402956Y35620D01*
X403282Y38100D01*
X402956Y40580D01*
X401998Y42891D01*
X400475Y44875D01*
X398491Y46398D01*
X396180Y47355D01*
X393700Y47682D01*
D02*
G37*
G36*
X255000Y31574D02*
Y26400D01*
X260173D01*
X259887Y27839D01*
X258506Y29906D01*
X256439Y31287D01*
X255000Y31574D01*
D02*
G37*
G36*
X253000D02*
X251561Y31287D01*
X249494Y29906D01*
X248113Y27839D01*
X247826Y26400D01*
X253000D01*
Y31574D01*
D02*
G37*
G36*
X548500Y26174D02*
Y21000D01*
X553674D01*
X553387Y22439D01*
X552006Y24506D01*
X549939Y25887D01*
X548500Y26174D01*
D02*
G37*
G36*
X546500D02*
X545061Y25887D01*
X542994Y24506D01*
X541613Y22439D01*
X541326Y21000D01*
X546500D01*
Y26174D01*
D02*
G37*
G36*
X260173Y24400D02*
X255000D01*
Y19226D01*
X256439Y19513D01*
X258506Y20894D01*
X259887Y22961D01*
X260173Y24400D01*
D02*
G37*
G36*
X253000D02*
X247826D01*
X248113Y22961D01*
X249494Y20894D01*
X251561Y19513D01*
X253000Y19226D01*
Y24400D01*
D02*
G37*
G36*
X626000Y111863D02*
X623756Y111416D01*
X621855Y110146D01*
X620584Y108244D01*
X620137Y106000D01*
X620584Y103757D01*
X621855Y101854D01*
X623451Y100788D01*
Y25212D01*
X621855Y24146D01*
X620584Y22243D01*
X620137Y20000D01*
X620584Y17757D01*
X621855Y15855D01*
X623756Y14584D01*
X626000Y14137D01*
X628243Y14584D01*
X630145Y15855D01*
X631416Y17757D01*
X631863Y20000D01*
X631416Y22243D01*
X630145Y24146D01*
X628549Y25212D01*
Y100788D01*
X630145Y101854D01*
X631416Y103757D01*
X631863Y106000D01*
X631416Y108244D01*
X630145Y110146D01*
X628243Y111416D01*
X626000Y111863D01*
D02*
G37*
G36*
X553674Y19000D02*
X548500D01*
Y13827D01*
X549939Y14113D01*
X552006Y15494D01*
X553387Y17561D01*
X553674Y19000D01*
D02*
G37*
G36*
X546500D02*
X541326D01*
X541613Y17561D01*
X542994Y15494D01*
X545061Y14113D01*
X546500Y13827D01*
Y19000D01*
D02*
G37*
%LPD*%
D10*
X570500Y120500D02*
X585000Y106000D01*
X570500Y120500D02*
Y324080D01*
X674000Y236000D02*
X699000Y261000D01*
X800000D01*
X632000Y284000D02*
Y342863D01*
X648000Y268000D02*
X811000D01*
X632000Y284000D02*
X648000Y268000D01*
X811000D02*
X834000Y245000D01*
Y190000D02*
Y245000D01*
X323850Y38100D02*
X386750Y101000D01*
X412000D01*
X523000Y117000D02*
Y158000D01*
X586000Y20000D02*
Y74000D01*
X545500Y114500D02*
Y324080D01*
Y114500D02*
X586000Y74000D01*
X538000Y104000D02*
Y144863D01*
X506000Y68000D02*
X538000D01*
X673000Y189000D02*
X674000Y190000D01*
X673000Y151000D02*
Y189000D01*
X674000Y190000D02*
Y236000D01*
X794000Y190000D02*
Y247000D01*
X794000Y190000D02*
X794000Y190000D01*
X388700Y417057D02*
Y422960D01*
X384642Y413000D02*
X388700Y417057D01*
X302300Y417257D02*
Y422960D01*
Y417257D02*
X306558Y413000D01*
X384642D01*
X302300Y369660D02*
Y422960D01*
X388700Y369660D02*
Y422960D01*
X382820Y236400D02*
X470500Y324080D01*
X338000Y236400D02*
X382820D01*
X393700Y63500D02*
X393850Y63650D01*
X323850Y222250D02*
X338000Y236400D01*
X388600Y369560D02*
X388700Y369660D01*
X302200Y369560D02*
X302300Y369660D01*
X714000Y158000D02*
Y190000D01*
X309000Y78350D02*
X323850Y63500D01*
X309000Y78350D02*
Y328000D01*
X626000Y20000D02*
Y106000D01*
X480060Y101600D02*
Y283640D01*
X520500Y324080D01*
D31*
X388600Y359550D02*
D03*
X302200D02*
D03*
D32*
X780000Y112000D02*
D03*
X760000D02*
D03*
X740000D02*
D03*
X720000D02*
D03*
X700000D02*
D03*
X680000D02*
D03*
X800000D02*
D03*
X820000D02*
D03*
X840000D02*
D03*
X720000Y332000D02*
D03*
X740000D02*
D03*
X760000D02*
D03*
X780000D02*
D03*
X800000D02*
D03*
X820000D02*
D03*
X700000D02*
D03*
X680000D02*
D03*
X660000D02*
D03*
D33*
Y112000D02*
D03*
X840000Y332000D02*
D03*
D34*
X302400Y413050D02*
D03*
X388800D02*
D03*
D35*
X393700Y38100D02*
D03*
Y63500D02*
D03*
X323850Y222250D02*
D03*
Y196850D02*
D03*
X393700D02*
D03*
Y222250D02*
D03*
X323850Y38100D02*
D03*
Y63500D02*
D03*
D36*
X795000Y385000D02*
D03*
X145000Y347500D02*
D03*
Y97500D02*
D03*
X795000Y60000D02*
D03*
D37*
X570500Y395880D02*
D03*
X445500D02*
D03*
D38*
Y324080D02*
D03*
X470500D02*
D03*
X495500D02*
D03*
X520500D02*
D03*
X545500D02*
D03*
X570500D02*
D03*
D39*
X585000Y106000D02*
D03*
X800000Y261000D02*
D03*
X632000Y342863D02*
D03*
X760000Y282000D02*
D03*
X407000Y148000D02*
D03*
X412000Y101000D02*
D03*
X506000Y50000D02*
D03*
X523000Y158000D02*
D03*
Y117000D02*
D03*
X605000Y135000D02*
D03*
X538000Y144863D02*
D03*
Y68000D02*
D03*
X506000D02*
D03*
X538000Y104000D02*
D03*
X673000Y151000D02*
D03*
X794000Y247000D02*
D03*
X346000Y413000D02*
D03*
X451750Y244000D02*
D03*
X436000D02*
D03*
X585250Y224000D02*
D03*
X601000D02*
D03*
X816000Y356000D02*
D03*
X480000Y101000D02*
D03*
X714000Y158000D02*
D03*
X822000Y297000D02*
D03*
X309000Y328000D02*
D03*
X586000Y20000D02*
D03*
X626000Y106000D02*
D03*
Y20000D02*
D03*
X547500D02*
D03*
X467500Y50000D02*
D03*
X254000Y25400D02*
D03*
X114300Y139700D02*
D03*
X76200Y345440D02*
D03*
D43*
X834000Y190000D02*
D03*
X714000D02*
D03*
X794000D02*
D03*
X674000D02*
D03*
X754000D02*
D03*
M02*
