G04*
G04 #@! TF.GenerationSoftware,Altium Limited,Altium Designer,24.1.2 (44)*
G04*
G04 Layer_Color=8388736*
%FSLAX44Y44*%
%MOMM*%
G71*
G04*
G04 #@! TF.SameCoordinates,9A0184B9-0745-4BA0-A63A-3E559F80E0CB*
G04*
G04*
G04 #@! TF.FilePolarity,Negative*
G04*
G01*
G75*
%ADD16R,0.3000X0.7000*%
%ADD17R,1.0000X0.7000*%
%ADD18R,1.8000X1.3000*%
%ADD19R,1.5500X1.0000*%
%ADD20R,0.9000X0.8000*%
%ADD21R,0.6000X0.7000*%
%ADD22R,0.7500X0.8500*%
%ADD23R,2.0000X3.8000*%
%ADD24R,2.0000X1.5000*%
%ADD25R,0.8300X0.6250*%
%ADD26R,1.2200X0.6200*%
%ADD27R,0.8500X0.7500*%
%ADD28O,1.5500X0.6000*%
%ADD29R,0.8000X0.9000*%
%ADD30R,3.2000X1.6000*%
%ADD31O,1.1000X2.1000*%
%ADD32C,1.3000*%
G04:AMPARAMS|DCode=33|XSize=1.3mm|YSize=1.3mm|CornerRadius=0.325mm|HoleSize=0mm|Usage=FLASHONLY|Rotation=0.000|XOffset=0mm|YOffset=0mm|HoleType=Round|Shape=RoundedRectangle|*
%AMROUNDEDRECTD33*
21,1,1.3000,0.6500,0,0,0.0*
21,1,0.6500,1.3000,0,0,0.0*
1,1,0.6500,0.3250,-0.3250*
1,1,0.6500,-0.3250,-0.3250*
1,1,0.6500,-0.3250,0.3250*
1,1,0.6500,0.3250,0.3250*
%
%ADD33ROUNDEDRECTD33*%
%ADD34O,1.1000X2.6000*%
%ADD35C,1.6000*%
%ADD36C,5.0000*%
%ADD37C,1.7000*%
%ADD38C,1.8000*%
%ADD39C,0.8500*%
G36*
X720570Y84318D02*
X721752D01*
Y84210D01*
X722613D01*
Y84102D01*
X723258D01*
Y83995D01*
X723903D01*
Y83888D01*
X724440D01*
Y83780D01*
X724977D01*
Y83673D01*
X725515D01*
Y83565D01*
X725945D01*
Y83457D01*
X726267D01*
Y83350D01*
X726697D01*
Y83243D01*
X727128D01*
Y83135D01*
X727450D01*
Y83027D01*
X727773D01*
Y82920D01*
X728203D01*
Y82812D01*
X728525D01*
Y82705D01*
X728848D01*
Y82598D01*
X729170D01*
Y82490D01*
X729385D01*
Y82382D01*
X729707D01*
Y82275D01*
X729922D01*
Y82168D01*
X730245D01*
Y82060D01*
X730567D01*
Y81952D01*
X730782D01*
Y81845D01*
X730997D01*
Y81737D01*
X731212D01*
Y81630D01*
X731535D01*
Y81523D01*
X731750D01*
Y81415D01*
X731965D01*
Y81307D01*
X732180D01*
Y81200D01*
X732395D01*
Y81093D01*
X732610D01*
Y80985D01*
X732825D01*
Y80878D01*
X733040D01*
Y80770D01*
X733255D01*
Y80662D01*
X733470D01*
Y80555D01*
X733685D01*
Y80448D01*
X733900D01*
Y80340D01*
X734007D01*
Y80232D01*
X734222D01*
Y80125D01*
X734437D01*
Y80017D01*
X734545D01*
Y79910D01*
X734760D01*
Y79802D01*
X734975D01*
Y79695D01*
X735082D01*
Y79587D01*
X735297D01*
Y79480D01*
X735512D01*
Y79373D01*
X735620D01*
Y79265D01*
X735835D01*
Y79158D01*
X735943D01*
Y79050D01*
X736158D01*
Y78942D01*
X736265D01*
Y78835D01*
X736480D01*
Y78727D01*
X736588D01*
Y78620D01*
X736695D01*
Y78513D01*
X736910D01*
Y78405D01*
X737018D01*
Y78298D01*
X737233D01*
Y78190D01*
X737340D01*
Y78082D01*
X737448D01*
Y77975D01*
X737663D01*
Y77867D01*
X737770D01*
Y77760D01*
X737878D01*
Y77653D01*
X738092D01*
Y77545D01*
X738200D01*
Y77438D01*
X738307D01*
Y77330D01*
X738415D01*
Y77222D01*
X738630D01*
Y77115D01*
X738737D01*
Y77007D01*
X738845D01*
Y76900D01*
X738952D01*
Y76792D01*
X739060D01*
Y76685D01*
X739275D01*
Y76578D01*
X739382D01*
Y76470D01*
X739490D01*
Y76363D01*
X739597D01*
Y76255D01*
X739705D01*
Y76147D01*
X739812D01*
Y76040D01*
X739920D01*
Y75932D01*
X740027D01*
Y75825D01*
X740135D01*
Y75718D01*
X740242D01*
Y75610D01*
X740458D01*
Y75503D01*
X740565D01*
Y75395D01*
X740673D01*
Y75287D01*
X740780D01*
Y75180D01*
X740888D01*
Y75072D01*
X740995D01*
Y74965D01*
X741103D01*
Y74858D01*
X741210D01*
Y74750D01*
X741318D01*
Y74643D01*
X741425D01*
Y74535D01*
X741533D01*
Y74427D01*
X741640D01*
Y74320D01*
X741748D01*
Y74105D01*
X741855D01*
Y73998D01*
X741963D01*
Y73890D01*
X742070D01*
Y73783D01*
X742178D01*
Y73675D01*
X742285D01*
Y73568D01*
X742393D01*
Y73460D01*
X742500D01*
Y73352D01*
X742607D01*
Y73245D01*
X742715D01*
Y73137D01*
X742822D01*
Y72923D01*
X742930D01*
Y72815D01*
X743037D01*
Y72708D01*
X743145D01*
Y72600D01*
X743252D01*
Y72385D01*
X743360D01*
Y72277D01*
X743467D01*
Y72170D01*
X743575D01*
Y72063D01*
X743682D01*
Y71848D01*
X743790D01*
Y71740D01*
X743897D01*
Y71632D01*
X744005D01*
Y71525D01*
X744112D01*
Y71310D01*
X744220D01*
Y71203D01*
X744327D01*
Y70988D01*
X744435D01*
Y70880D01*
X744542D01*
Y70773D01*
X744650D01*
Y70557D01*
X744758D01*
Y70450D01*
X744865D01*
Y70235D01*
X744973D01*
Y70128D01*
X745080D01*
Y69913D01*
X745188D01*
Y69805D01*
X745295D01*
Y69590D01*
X745403D01*
Y69482D01*
X745510D01*
Y69268D01*
X745618D01*
Y69053D01*
X745725D01*
Y68945D01*
X745833D01*
Y68730D01*
X745940D01*
Y68515D01*
X746048D01*
Y68408D01*
X746155D01*
Y68193D01*
X746263D01*
Y67977D01*
X746370D01*
Y67870D01*
X746478D01*
Y67655D01*
X746585D01*
Y67440D01*
X746693D01*
Y67225D01*
X746800D01*
Y67010D01*
X746908D01*
Y66795D01*
X747015D01*
Y66580D01*
X747122D01*
Y66365D01*
X747230D01*
Y66150D01*
X747337D01*
Y65935D01*
X747445D01*
Y65720D01*
X747552D01*
Y65505D01*
X747660D01*
Y65290D01*
X747767D01*
Y64967D01*
X747875D01*
Y64752D01*
X747982D01*
Y64430D01*
X748090D01*
Y64215D01*
X748197D01*
Y64000D01*
X748305D01*
Y63678D01*
X748412D01*
Y63355D01*
X748520D01*
Y63140D01*
X748627D01*
Y62818D01*
X748735D01*
Y62495D01*
X748842D01*
Y62172D01*
X748950D01*
Y61850D01*
X749057D01*
Y61528D01*
X749165D01*
Y61097D01*
X749273D01*
Y60668D01*
X749380D01*
Y60345D01*
X749488D01*
Y59915D01*
X749595D01*
Y59485D01*
X749703D01*
Y59055D01*
X749810D01*
Y58517D01*
X749918D01*
Y57980D01*
X750025D01*
Y57335D01*
X750133D01*
Y56582D01*
X750240D01*
Y55722D01*
X750348D01*
Y54540D01*
X750455D01*
Y49810D01*
X750348D01*
Y48735D01*
X750240D01*
Y47768D01*
X750133D01*
Y47123D01*
X750025D01*
Y46477D01*
X749918D01*
Y45833D01*
X749810D01*
Y45295D01*
X749703D01*
Y44865D01*
X749595D01*
Y44435D01*
X749488D01*
Y44005D01*
X749380D01*
Y43575D01*
X749273D01*
Y43253D01*
X749165D01*
Y42930D01*
X749057D01*
Y42500D01*
X748950D01*
Y42178D01*
X748842D01*
Y41855D01*
X748735D01*
Y41533D01*
X748627D01*
Y41210D01*
X748520D01*
Y40995D01*
X748412D01*
Y40672D01*
X748305D01*
Y40565D01*
Y40458D01*
Y40350D01*
X748197D01*
Y40135D01*
X748090D01*
Y39813D01*
X747982D01*
Y39597D01*
X747875D01*
Y39275D01*
X747767D01*
Y39060D01*
X747660D01*
Y38845D01*
X747552D01*
Y38630D01*
X747445D01*
Y38415D01*
X747337D01*
Y38200D01*
X747230D01*
Y37985D01*
X747122D01*
Y37662D01*
X747015D01*
Y37448D01*
X746908D01*
Y37340D01*
X746800D01*
Y37125D01*
X746693D01*
Y36910D01*
X746585D01*
Y36695D01*
X746478D01*
Y36480D01*
X746370D01*
Y36265D01*
X746263D01*
Y36158D01*
X746155D01*
Y35942D01*
X746048D01*
Y35728D01*
X745940D01*
Y35620D01*
X745833D01*
Y35405D01*
X745725D01*
Y35190D01*
X745618D01*
Y35082D01*
X745510D01*
Y34867D01*
X745403D01*
Y34760D01*
X745295D01*
Y34545D01*
X745188D01*
Y34437D01*
X745080D01*
Y34223D01*
X744973D01*
Y34007D01*
X744865D01*
Y33900D01*
X744758D01*
Y33793D01*
X744650D01*
Y33577D01*
X744542D01*
Y33470D01*
X744435D01*
Y33363D01*
X744327D01*
Y33147D01*
X744220D01*
Y33040D01*
X744112D01*
Y32825D01*
X744005D01*
Y32717D01*
X743897D01*
Y32610D01*
X743790D01*
Y32395D01*
X743682D01*
Y32287D01*
X743575D01*
Y32180D01*
X743467D01*
Y32073D01*
X743360D01*
Y31858D01*
X743252D01*
Y31750D01*
X743145D01*
Y31642D01*
X743037D01*
Y31535D01*
X742930D01*
Y31428D01*
X742822D01*
Y31212D01*
X742715D01*
Y31105D01*
X742607D01*
Y30998D01*
X742500D01*
Y30890D01*
X742393D01*
Y30782D01*
X742285D01*
Y30675D01*
X742178D01*
Y30568D01*
X742070D01*
Y30460D01*
X741963D01*
Y30245D01*
X741855D01*
Y30138D01*
X741748D01*
Y30030D01*
X741640D01*
Y29922D01*
X741533D01*
Y29815D01*
X741425D01*
Y29708D01*
X741318D01*
Y29600D01*
X741210D01*
Y29492D01*
X741103D01*
Y29385D01*
X740995D01*
Y29278D01*
X740888D01*
Y29170D01*
X740780D01*
Y29062D01*
X740673D01*
Y28955D01*
X740565D01*
Y28847D01*
X740458D01*
Y28740D01*
X740350D01*
Y28633D01*
X740242D01*
Y28525D01*
X740135D01*
Y28417D01*
X739920D01*
Y28310D01*
X739812D01*
Y28203D01*
X739705D01*
Y28095D01*
X739597D01*
Y27987D01*
X739490D01*
Y27880D01*
X739382D01*
Y27773D01*
X739275D01*
Y27665D01*
X739167D01*
Y27557D01*
X738952D01*
Y27450D01*
X738845D01*
Y27343D01*
X738737D01*
Y27235D01*
X738630D01*
Y27127D01*
X738522D01*
Y27020D01*
X738307D01*
Y26913D01*
X738200D01*
Y26805D01*
X738092D01*
Y26697D01*
X737985D01*
Y26590D01*
X737770D01*
Y26483D01*
X737663D01*
Y26375D01*
X737555D01*
Y26267D01*
X737340D01*
Y26160D01*
X737233D01*
Y26052D01*
X737018D01*
Y25945D01*
X736910D01*
Y25838D01*
X736803D01*
Y25730D01*
X736588D01*
Y25622D01*
X736480D01*
Y25515D01*
X736265D01*
Y25408D01*
X736158D01*
Y25300D01*
X735943D01*
Y25192D01*
X735835D01*
Y25085D01*
X735620D01*
Y24978D01*
X735512D01*
Y24870D01*
X735297D01*
Y24762D01*
X735082D01*
Y24655D01*
X734975D01*
Y24548D01*
X734760D01*
Y24440D01*
X734545D01*
Y24548D01*
X734652D01*
Y24655D01*
X734760D01*
Y24762D01*
X734867D01*
Y24870D01*
X734975D01*
Y24978D01*
X735082D01*
Y25085D01*
X735190D01*
Y25192D01*
X735297D01*
Y25300D01*
X735405D01*
Y25515D01*
X735512D01*
Y25622D01*
X735620D01*
Y25730D01*
X735727D01*
Y25838D01*
X735835D01*
Y25945D01*
X735943D01*
Y26052D01*
X736050D01*
Y26267D01*
X736158D01*
Y26375D01*
X736265D01*
Y26483D01*
X736373D01*
Y26590D01*
X736480D01*
Y26805D01*
X736588D01*
Y26913D01*
X736695D01*
Y27020D01*
X736803D01*
Y27235D01*
X736910D01*
Y27343D01*
X737018D01*
Y27450D01*
X737125D01*
Y27665D01*
X737233D01*
Y27773D01*
X737340D01*
Y27987D01*
X737448D01*
Y28095D01*
X737555D01*
Y28310D01*
X737663D01*
Y28525D01*
X737770D01*
Y28633D01*
X737878D01*
Y28847D01*
X737985D01*
Y28955D01*
X738092D01*
Y29170D01*
X738200D01*
Y29385D01*
X738307D01*
Y29600D01*
X738415D01*
Y29815D01*
X738522D01*
Y29922D01*
X738630D01*
Y30138D01*
X738737D01*
Y30352D01*
X738845D01*
Y30568D01*
X738952D01*
Y30782D01*
X739060D01*
Y30998D01*
X739167D01*
Y31212D01*
X739275D01*
Y31535D01*
X739382D01*
Y31750D01*
X739490D01*
Y32073D01*
X739597D01*
Y32287D01*
X739705D01*
Y32610D01*
X739812D01*
Y32825D01*
X739920D01*
Y33147D01*
X740027D01*
Y33470D01*
X740135D01*
Y33793D01*
X740242D01*
Y34223D01*
X740350D01*
Y34545D01*
X740458D01*
Y34975D01*
X740565D01*
Y35405D01*
X740673D01*
Y35835D01*
X740780D01*
Y36372D01*
X740888D01*
Y37018D01*
X740995D01*
Y37770D01*
X741103D01*
Y38845D01*
X741210D01*
Y42607D01*
X741103D01*
Y43682D01*
X740995D01*
Y44328D01*
X740888D01*
Y44973D01*
X740780D01*
Y45510D01*
X740673D01*
Y45940D01*
X740565D01*
Y46370D01*
X740458D01*
Y46693D01*
X740350D01*
Y47123D01*
X740242D01*
Y47445D01*
X740135D01*
Y47768D01*
X740027D01*
Y48090D01*
X739920D01*
Y48412D01*
X739812D01*
Y48628D01*
X739705D01*
Y48950D01*
X739597D01*
Y49165D01*
X739490D01*
Y49488D01*
X739382D01*
Y49703D01*
X739275D01*
Y49917D01*
X739167D01*
Y50132D01*
X739060D01*
Y50347D01*
X738952D01*
Y50563D01*
X738845D01*
Y50778D01*
X738737D01*
Y50992D01*
X738630D01*
Y51207D01*
X738522D01*
Y51423D01*
X738415D01*
Y51638D01*
X738307D01*
Y51852D01*
X738200D01*
Y51960D01*
X738092D01*
Y52175D01*
X737985D01*
Y52390D01*
X737878D01*
Y52498D01*
X737770D01*
Y52712D01*
X737663D01*
Y52820D01*
X737555D01*
Y53035D01*
X737448D01*
Y53142D01*
X737340D01*
Y53358D01*
X737233D01*
Y53465D01*
X737125D01*
Y53680D01*
X737018D01*
Y53787D01*
X736910D01*
Y53895D01*
X736803D01*
Y54110D01*
X736695D01*
Y54218D01*
X736588D01*
Y54433D01*
X736480D01*
Y54540D01*
X736373D01*
Y54647D01*
X736265D01*
Y54862D01*
X736158D01*
Y54970D01*
X736050D01*
Y55078D01*
X735943D01*
Y55185D01*
X735835D01*
Y55293D01*
X735727D01*
Y55507D01*
X735620D01*
Y55615D01*
X735512D01*
Y55722D01*
X735405D01*
Y55830D01*
X735297D01*
Y55938D01*
X735190D01*
Y56153D01*
X735082D01*
Y56260D01*
X734975D01*
Y56368D01*
X734867D01*
Y56475D01*
X734760D01*
Y56582D01*
X734652D01*
Y56690D01*
X734545D01*
Y56797D01*
X734437D01*
Y56905D01*
X734330D01*
Y57013D01*
X734222D01*
Y57120D01*
X734115D01*
Y57228D01*
X734007D01*
Y57335D01*
X733900D01*
Y57442D01*
X733792D01*
Y57550D01*
X733685D01*
Y57657D01*
X733577D01*
Y57765D01*
X733470D01*
Y57873D01*
X733363D01*
Y57980D01*
X733255D01*
Y58088D01*
X733040D01*
Y58195D01*
X732933D01*
Y58302D01*
X732825D01*
Y58410D01*
X732718D01*
Y58517D01*
X732610D01*
Y58625D01*
X732503D01*
Y58733D01*
X732288D01*
Y58840D01*
X732180D01*
Y58948D01*
X732073D01*
Y59055D01*
X731965D01*
Y59163D01*
X731858D01*
Y59270D01*
X731643D01*
Y59377D01*
X731535D01*
Y59485D01*
X731320D01*
Y59592D01*
X731212D01*
Y59700D01*
X731105D01*
Y59808D01*
X730890D01*
Y59915D01*
X730782D01*
Y60023D01*
X730675D01*
Y60130D01*
X730460D01*
Y60237D01*
X730352D01*
Y60345D01*
X730137D01*
Y60452D01*
X730030D01*
Y60560D01*
X729815D01*
Y60668D01*
X729707D01*
Y60775D01*
X729492D01*
Y60883D01*
X729385D01*
Y60990D01*
X729170D01*
Y61097D01*
X728955D01*
Y61205D01*
X728740D01*
Y61312D01*
X728633D01*
Y61420D01*
X728418D01*
Y61528D01*
X728203D01*
Y61635D01*
X727988D01*
Y61743D01*
X727773D01*
Y61850D01*
X727558D01*
Y61958D01*
X727343D01*
Y62065D01*
X727128D01*
Y62172D01*
X726913D01*
Y62280D01*
X726697D01*
Y62387D01*
X726375D01*
Y62495D01*
X726160D01*
Y62603D01*
X725837D01*
Y62710D01*
X725622D01*
Y62818D01*
X725300D01*
Y62925D01*
X725085D01*
Y63032D01*
X724762D01*
Y63140D01*
X724440D01*
Y63247D01*
X724010D01*
Y63355D01*
X723688D01*
Y63463D01*
X723258D01*
Y63570D01*
X722828D01*
Y63678D01*
X722290D01*
Y63785D01*
X721752D01*
Y63892D01*
X721000D01*
Y64000D01*
X719495D01*
Y64107D01*
X718420D01*
Y64000D01*
X717022D01*
Y63892D01*
X716270D01*
Y63785D01*
X715732D01*
Y63678D01*
X715410D01*
Y63570D01*
X714980D01*
Y63463D01*
X714658D01*
Y63355D01*
X714335D01*
Y63247D01*
X714013D01*
Y63140D01*
X713798D01*
Y63032D01*
X713583D01*
Y62925D01*
X713260D01*
Y62818D01*
X713045D01*
Y62710D01*
X712830D01*
Y62603D01*
X712722D01*
Y62495D01*
X712507D01*
Y62387D01*
X712292D01*
Y62280D01*
X712185D01*
Y62172D01*
X711970D01*
Y62065D01*
X711755D01*
Y61958D01*
X711647D01*
Y61850D01*
X711540D01*
Y61743D01*
X711325D01*
Y61635D01*
X711217D01*
Y61528D01*
X711110D01*
Y61420D01*
X710895D01*
Y61312D01*
X710788D01*
Y61205D01*
X710680D01*
Y61097D01*
X710573D01*
Y60990D01*
X710465D01*
Y60883D01*
X710358D01*
Y60775D01*
X710250D01*
Y60668D01*
X710143D01*
Y60560D01*
X710035D01*
Y60452D01*
X709928D01*
Y60345D01*
X709820D01*
Y60237D01*
X709713D01*
Y60130D01*
X709605D01*
Y60023D01*
X709498D01*
Y59808D01*
X709390D01*
Y59700D01*
X709283D01*
Y59592D01*
X709175D01*
Y59485D01*
X709068D01*
Y59270D01*
X708960D01*
Y59163D01*
X708852D01*
Y58948D01*
X708745D01*
Y58840D01*
X708637D01*
Y58625D01*
X708530D01*
Y58517D01*
X708422D01*
Y58302D01*
X708315D01*
Y58088D01*
X708207D01*
Y57873D01*
X708100D01*
Y57657D01*
X707992D01*
Y57442D01*
X707885D01*
Y57228D01*
X707777D01*
Y57013D01*
X707670D01*
Y56797D01*
X707562D01*
Y56475D01*
X707455D01*
Y56260D01*
X707347D01*
Y55938D01*
X707240D01*
Y55615D01*
X707132D01*
Y55185D01*
X707025D01*
Y54862D01*
X706917D01*
Y54218D01*
X706810D01*
Y53680D01*
X706702D01*
Y50455D01*
X706810D01*
Y49810D01*
X706917D01*
Y49380D01*
X707025D01*
Y48950D01*
X707132D01*
Y48628D01*
X707240D01*
Y48305D01*
X707347D01*
Y47983D01*
X707455D01*
Y47768D01*
X707562D01*
Y47445D01*
X707670D01*
Y47230D01*
X707777D01*
Y47015D01*
X707885D01*
Y46800D01*
X707992D01*
Y46585D01*
X708100D01*
Y46370D01*
X708207D01*
Y46262D01*
X708315D01*
Y46048D01*
X708422D01*
Y45833D01*
X708530D01*
Y45725D01*
X708637D01*
Y45510D01*
X708745D01*
Y45402D01*
X708852D01*
Y45295D01*
X708960D01*
Y45080D01*
X709068D01*
Y44973D01*
X709175D01*
Y44865D01*
X709283D01*
Y44757D01*
X709068D01*
Y44865D01*
X708960D01*
Y44973D01*
X708745D01*
Y45080D01*
X708530D01*
Y45188D01*
X708315D01*
Y45295D01*
X708207D01*
Y45402D01*
X707992D01*
Y45510D01*
X707777D01*
Y45617D01*
X707670D01*
Y45725D01*
X707455D01*
Y45833D01*
X707347D01*
Y45940D01*
X707132D01*
Y46048D01*
X707025D01*
Y46155D01*
X706810D01*
Y46262D01*
X706702D01*
Y46370D01*
X706595D01*
Y46477D01*
X706380D01*
Y46585D01*
X706273D01*
Y46693D01*
X706165D01*
Y46800D01*
X706058D01*
Y46908D01*
X705843D01*
Y47015D01*
X705735D01*
Y47123D01*
X705628D01*
Y47230D01*
X705520D01*
Y47337D01*
X705305D01*
Y47445D01*
X705198D01*
Y47552D01*
X705090D01*
Y47660D01*
X704983D01*
Y47768D01*
X704875D01*
Y47875D01*
X704768D01*
Y47983D01*
X704660D01*
Y48090D01*
X704445D01*
Y48197D01*
X704337D01*
Y48305D01*
X704230D01*
Y48412D01*
X704122D01*
Y48520D01*
X704015D01*
Y48628D01*
X703907D01*
Y48735D01*
X703800D01*
Y48843D01*
X703692D01*
Y48950D01*
X703585D01*
Y49057D01*
X703477D01*
Y49165D01*
X703370D01*
Y49272D01*
X703262D01*
Y49380D01*
X703155D01*
Y49488D01*
X703047D01*
Y49595D01*
X702940D01*
Y49810D01*
X702832D01*
Y49917D01*
X702725D01*
Y50025D01*
X702617D01*
Y50132D01*
X702510D01*
Y50240D01*
X702402D01*
Y50347D01*
X702295D01*
Y50563D01*
X702188D01*
Y50670D01*
X702080D01*
Y50778D01*
X701973D01*
Y50885D01*
X701865D01*
Y51100D01*
X701758D01*
Y51207D01*
X701650D01*
Y51315D01*
X701543D01*
Y51530D01*
X701435D01*
Y51638D01*
X701328D01*
Y51745D01*
X701220D01*
Y51960D01*
X701113D01*
Y52067D01*
X701005D01*
Y52283D01*
X700898D01*
Y52390D01*
X700790D01*
Y52605D01*
X700683D01*
Y52712D01*
X700575D01*
Y52927D01*
X700468D01*
Y53035D01*
X700360D01*
Y53250D01*
X700253D01*
Y53465D01*
X700145D01*
Y53680D01*
X700038D01*
Y53787D01*
X699930D01*
Y54002D01*
X699822D01*
Y54218D01*
X699715D01*
Y54433D01*
X699607D01*
Y54647D01*
X699500D01*
Y54862D01*
X699392D01*
Y55078D01*
X699285D01*
Y55293D01*
X699177D01*
Y55507D01*
X699070D01*
Y55722D01*
X698962D01*
Y56045D01*
X698855D01*
Y56260D01*
X698747D01*
Y56582D01*
X698640D01*
Y56797D01*
X698532D01*
Y57120D01*
X698425D01*
Y57442D01*
X698317D01*
Y57765D01*
X698210D01*
Y58195D01*
X698102D01*
Y58517D01*
X697995D01*
Y58948D01*
X697887D01*
Y59377D01*
X697780D01*
Y59915D01*
X697673D01*
Y60668D01*
X697565D01*
Y61420D01*
X697458D01*
Y62925D01*
X697350D01*
Y64107D01*
X697458D01*
Y65720D01*
X697565D01*
Y66580D01*
X697673D01*
Y67225D01*
X697780D01*
Y67762D01*
X697887D01*
Y68300D01*
X697995D01*
Y68730D01*
X698102D01*
Y69160D01*
X698210D01*
Y69482D01*
X698317D01*
Y69805D01*
X698425D01*
Y70235D01*
X698532D01*
Y70557D01*
X698640D01*
Y70773D01*
X698747D01*
Y71095D01*
X698855D01*
Y71417D01*
X698962D01*
Y71632D01*
X699070D01*
Y71955D01*
X699177D01*
Y72170D01*
X699285D01*
Y72385D01*
X699392D01*
Y72600D01*
X699500D01*
Y72815D01*
X699607D01*
Y73030D01*
X699715D01*
Y73245D01*
X699822D01*
Y73460D01*
X699930D01*
Y73675D01*
X700038D01*
Y73890D01*
X700145D01*
Y74105D01*
X700253D01*
Y74212D01*
X700360D01*
Y74427D01*
X700468D01*
Y74643D01*
X700575D01*
Y74750D01*
X700683D01*
Y74965D01*
X700790D01*
Y75072D01*
X700898D01*
Y75287D01*
X701005D01*
Y75395D01*
X701113D01*
Y75610D01*
X701220D01*
Y75718D01*
X701328D01*
Y75932D01*
X701435D01*
Y76040D01*
X701543D01*
Y76147D01*
X701650D01*
Y76363D01*
X701758D01*
Y76470D01*
X701865D01*
Y76578D01*
X701973D01*
Y76792D01*
X702080D01*
Y76900D01*
X702188D01*
Y77007D01*
X702295D01*
Y77115D01*
X702402D01*
Y77222D01*
X702510D01*
Y77438D01*
X702617D01*
Y77545D01*
X702725D01*
Y77653D01*
X702832D01*
Y77760D01*
X702940D01*
Y77867D01*
X703047D01*
Y77975D01*
X703155D01*
Y78082D01*
X703262D01*
Y78190D01*
X703370D01*
Y78298D01*
X703477D01*
Y78405D01*
X703585D01*
Y78513D01*
X703692D01*
Y78620D01*
X703800D01*
Y78727D01*
X703907D01*
Y78835D01*
X704015D01*
Y78942D01*
X704122D01*
Y79050D01*
X704230D01*
Y79158D01*
X704337D01*
Y79265D01*
X704445D01*
Y79373D01*
X704660D01*
Y79480D01*
X704768D01*
Y79587D01*
X704875D01*
Y79695D01*
X704983D01*
Y79802D01*
X705090D01*
Y79910D01*
X705305D01*
Y80017D01*
X705413D01*
Y80125D01*
X705520D01*
Y80232D01*
X705628D01*
Y80340D01*
X705843D01*
Y80448D01*
X705950D01*
Y80555D01*
X706165D01*
Y80662D01*
X706273D01*
Y80770D01*
X706380D01*
Y80878D01*
X706595D01*
Y80985D01*
X706702D01*
Y81093D01*
X706917D01*
Y81200D01*
X707132D01*
Y81307D01*
X707240D01*
Y81415D01*
X707455D01*
Y81523D01*
X707562D01*
Y81630D01*
X707777D01*
Y81737D01*
X707992D01*
Y81845D01*
X708207D01*
Y81952D01*
X708422D01*
Y82060D01*
X708637D01*
Y82168D01*
X708852D01*
Y82275D01*
X709068D01*
Y82382D01*
X709283D01*
Y82490D01*
X709498D01*
Y82598D01*
X709713D01*
Y82705D01*
X709928D01*
Y82812D01*
X710250D01*
Y82920D01*
X710465D01*
Y83027D01*
X710788D01*
Y83135D01*
X711110D01*
Y83243D01*
X711325D01*
Y83350D01*
X711755D01*
Y83457D01*
X712077D01*
Y83565D01*
X712400D01*
Y83673D01*
X712830D01*
Y83780D01*
X713260D01*
Y83888D01*
X713690D01*
Y83995D01*
X714335D01*
Y84102D01*
X714873D01*
Y84210D01*
X715625D01*
Y84318D01*
X716700D01*
Y84425D01*
X720570D01*
Y84318D01*
D02*
G37*
G36*
X701865Y79802D02*
X701758D01*
Y79695D01*
X701650D01*
Y79587D01*
X701543D01*
Y79480D01*
X701435D01*
Y79373D01*
X701328D01*
Y79265D01*
X701220D01*
Y79050D01*
X701113D01*
Y78942D01*
X701005D01*
Y78835D01*
X700898D01*
Y78727D01*
X700790D01*
Y78620D01*
X700683D01*
Y78513D01*
X700575D01*
Y78405D01*
X700468D01*
Y78190D01*
X700360D01*
Y78082D01*
X700253D01*
Y77975D01*
X700145D01*
Y77867D01*
X700038D01*
Y77653D01*
X699930D01*
Y77545D01*
X699822D01*
Y77438D01*
X699715D01*
Y77222D01*
X699607D01*
Y77115D01*
X699500D01*
Y77007D01*
X699392D01*
Y76792D01*
X699285D01*
Y76685D01*
X699177D01*
Y76470D01*
X699070D01*
Y76363D01*
X698962D01*
Y76147D01*
X698855D01*
Y76040D01*
X698747D01*
Y75825D01*
X698640D01*
Y75610D01*
X698532D01*
Y75503D01*
X698425D01*
Y75287D01*
X698317D01*
Y75072D01*
X698210D01*
Y74965D01*
X698102D01*
Y74750D01*
X697995D01*
Y74535D01*
X697887D01*
Y74320D01*
X697780D01*
Y74105D01*
X697673D01*
Y73890D01*
X697565D01*
Y73675D01*
X697458D01*
Y73460D01*
X697350D01*
Y73245D01*
X697243D01*
Y73030D01*
X697135D01*
Y72815D01*
X697028D01*
Y72492D01*
X696920D01*
Y72277D01*
X696813D01*
Y71955D01*
X696705D01*
Y71740D01*
X696598D01*
Y71417D01*
X696490D01*
Y71095D01*
X696383D01*
Y70773D01*
X696275D01*
Y70450D01*
X696168D01*
Y70020D01*
X696060D01*
Y69697D01*
X695953D01*
Y69268D01*
X695845D01*
Y68837D01*
X695738D01*
Y68408D01*
X695630D01*
Y67762D01*
X695523D01*
Y67225D01*
X695415D01*
Y66365D01*
X695307D01*
Y65182D01*
X695200D01*
Y62065D01*
X695307D01*
Y60883D01*
X695415D01*
Y60130D01*
X695523D01*
Y59485D01*
X695630D01*
Y58948D01*
X695738D01*
Y58517D01*
X695845D01*
Y58088D01*
X695953D01*
Y57657D01*
X696060D01*
Y57228D01*
X696168D01*
Y56905D01*
X696275D01*
Y56582D01*
X696383D01*
Y56260D01*
X696490D01*
Y56045D01*
X696598D01*
Y55722D01*
X696705D01*
Y55400D01*
X696813D01*
Y55185D01*
X696920D01*
Y54970D01*
X697028D01*
Y54647D01*
X697135D01*
Y54433D01*
X697243D01*
Y54218D01*
X697350D01*
Y54002D01*
X697458D01*
Y53787D01*
X697565D01*
Y53573D01*
X697673D01*
Y53358D01*
X697780D01*
Y53142D01*
X697887D01*
Y52927D01*
X697995D01*
Y52712D01*
X698102D01*
Y52605D01*
X698210D01*
Y52390D01*
X698317D01*
Y52175D01*
X698425D01*
Y52067D01*
X698532D01*
Y51852D01*
X698640D01*
Y51638D01*
X698747D01*
Y51530D01*
X698855D01*
Y51315D01*
X698962D01*
Y51207D01*
X699070D01*
Y50992D01*
X699177D01*
Y50885D01*
X699285D01*
Y50778D01*
X699392D01*
Y50563D01*
X699500D01*
Y50455D01*
X699607D01*
Y50240D01*
X699715D01*
Y50132D01*
X699822D01*
Y49917D01*
X699930D01*
Y49810D01*
X700038D01*
Y49703D01*
X700145D01*
Y49488D01*
X700253D01*
Y49380D01*
X700360D01*
Y49272D01*
X700468D01*
Y49165D01*
X700575D01*
Y49057D01*
X700683D01*
Y48843D01*
X700790D01*
Y48735D01*
X700898D01*
Y48628D01*
X701005D01*
Y48520D01*
X701113D01*
Y48412D01*
X701220D01*
Y48305D01*
X701328D01*
Y48090D01*
X701435D01*
Y47983D01*
X701543D01*
Y47875D01*
X701650D01*
Y47768D01*
X701758D01*
Y47660D01*
X701865D01*
Y47552D01*
X701973D01*
Y47445D01*
X702080D01*
Y47337D01*
X702188D01*
Y47230D01*
X702295D01*
Y47123D01*
X702402D01*
Y47015D01*
X702510D01*
Y46908D01*
X702617D01*
Y46800D01*
X702725D01*
Y46693D01*
X702832D01*
Y46585D01*
X702940D01*
Y46477D01*
X703047D01*
Y46370D01*
X703155D01*
Y46262D01*
X703370D01*
Y46155D01*
X703477D01*
Y46048D01*
X703585D01*
Y45940D01*
X703692D01*
Y45833D01*
X703800D01*
Y45725D01*
X703907D01*
Y45617D01*
X704122D01*
Y45510D01*
X704230D01*
Y45402D01*
X704337D01*
Y45295D01*
X704445D01*
Y45188D01*
X704553D01*
Y45080D01*
X704768D01*
Y44973D01*
X704875D01*
Y44865D01*
X704983D01*
Y44757D01*
X705198D01*
Y44650D01*
X705305D01*
Y44542D01*
X705520D01*
Y44435D01*
X705628D01*
Y44328D01*
X705735D01*
Y44220D01*
X705950D01*
Y44113D01*
X706058D01*
Y44005D01*
X706273D01*
Y43898D01*
X706380D01*
Y43790D01*
X706595D01*
Y43682D01*
X706702D01*
Y43575D01*
X706917D01*
Y43467D01*
X707025D01*
Y43360D01*
X707240D01*
Y43253D01*
X707455D01*
Y43145D01*
X707670D01*
Y43038D01*
X707777D01*
Y42930D01*
X707992D01*
Y42822D01*
X708207D01*
Y42715D01*
X708422D01*
Y42607D01*
X708637D01*
Y42500D01*
X708852D01*
Y42393D01*
X709068D01*
Y42285D01*
X709283D01*
Y42178D01*
X709498D01*
Y42070D01*
X709713D01*
Y41962D01*
X709928D01*
Y41855D01*
X710250D01*
Y41747D01*
X710465D01*
Y41640D01*
X710788D01*
Y41533D01*
X711003D01*
Y41425D01*
X711325D01*
Y41318D01*
X711647D01*
Y41210D01*
X711970D01*
Y41102D01*
X712400D01*
Y40995D01*
X712722D01*
Y40887D01*
X713152D01*
Y40780D01*
X713583D01*
Y40672D01*
X714120D01*
Y40565D01*
X714658D01*
Y40458D01*
X715410D01*
Y40350D01*
X716485D01*
Y40243D01*
X718420D01*
Y40350D01*
X719495D01*
Y40458D01*
X720140D01*
Y40565D01*
X720677D01*
Y40672D01*
X721107D01*
Y40780D01*
X721430D01*
Y40887D01*
X721752D01*
Y40995D01*
X722182D01*
Y41102D01*
X722398D01*
Y41210D01*
X722613D01*
Y41318D01*
X722935D01*
Y41425D01*
X723150D01*
Y41533D01*
X723365D01*
Y41640D01*
X723580D01*
Y41747D01*
X723795D01*
Y41855D01*
X724010D01*
Y41962D01*
X724118D01*
Y42070D01*
X724333D01*
Y42178D01*
X724548D01*
Y42285D01*
X724655D01*
Y42393D01*
X724762D01*
Y42500D01*
X724977D01*
Y42607D01*
X725085D01*
Y42715D01*
X725192D01*
Y42822D01*
X725407D01*
Y42930D01*
X725515D01*
Y43038D01*
X725622D01*
Y43145D01*
X725730D01*
Y43253D01*
X725837D01*
Y43360D01*
X725945D01*
Y43467D01*
X726052D01*
Y43575D01*
X726160D01*
Y43682D01*
X726267D01*
Y43790D01*
X726375D01*
Y43898D01*
X726482D01*
Y44005D01*
X726590D01*
Y44113D01*
X726697D01*
Y44220D01*
X726805D01*
Y44328D01*
X726913D01*
Y44435D01*
X727020D01*
Y44650D01*
X727128D01*
Y44757D01*
X727235D01*
Y44865D01*
X727343D01*
Y44973D01*
X727450D01*
Y45188D01*
X727558D01*
Y45295D01*
X727665D01*
Y45510D01*
X727773D01*
Y45617D01*
X727880D01*
Y45833D01*
X727988D01*
Y45940D01*
X728095D01*
Y46155D01*
X728203D01*
Y46370D01*
X728310D01*
Y46585D01*
X728418D01*
Y46800D01*
X728525D01*
Y47015D01*
X728633D01*
Y47230D01*
X728740D01*
Y47552D01*
X728848D01*
Y47768D01*
X728955D01*
Y48090D01*
X729062D01*
Y48305D01*
X729170D01*
Y48628D01*
X729277D01*
Y49057D01*
X729385D01*
Y49488D01*
X729492D01*
Y50025D01*
X729600D01*
Y50563D01*
X729707D01*
Y51638D01*
X729815D01*
Y53035D01*
X729707D01*
Y54110D01*
X729600D01*
Y54647D01*
X729492D01*
Y55078D01*
X729385D01*
Y55507D01*
X729277D01*
Y55830D01*
X729170D01*
Y56153D01*
X729062D01*
Y56368D01*
X728955D01*
Y56690D01*
X728848D01*
Y56905D01*
X728740D01*
Y57120D01*
X728633D01*
Y57335D01*
X728525D01*
Y57550D01*
X728418D01*
Y57765D01*
X728310D01*
Y57980D01*
X728203D01*
Y58088D01*
X728095D01*
Y58302D01*
X727988D01*
Y58517D01*
X727880D01*
Y58625D01*
X727773D01*
Y58840D01*
X727665D01*
Y58948D01*
X727558D01*
Y59055D01*
X727450D01*
Y59270D01*
X727343D01*
Y59377D01*
X727235D01*
Y59485D01*
X727128D01*
Y59592D01*
X727343D01*
Y59485D01*
X727450D01*
Y59377D01*
X727665D01*
Y59270D01*
X727880D01*
Y59163D01*
X728095D01*
Y59055D01*
X728203D01*
Y58948D01*
X728418D01*
Y58840D01*
X728525D01*
Y58733D01*
X728740D01*
Y58625D01*
X728848D01*
Y58517D01*
X729062D01*
Y58410D01*
X729170D01*
Y58302D01*
X729385D01*
Y58195D01*
X729492D01*
Y58088D01*
X729707D01*
Y57980D01*
X729815D01*
Y57873D01*
X729922D01*
Y57765D01*
X730137D01*
Y57657D01*
X730245D01*
Y57550D01*
X730352D01*
Y57442D01*
X730567D01*
Y57335D01*
X730675D01*
Y57228D01*
X730782D01*
Y57120D01*
X730890D01*
Y57013D01*
X731105D01*
Y56905D01*
X731212D01*
Y56797D01*
X731320D01*
Y56690D01*
X731428D01*
Y56582D01*
X731535D01*
Y56475D01*
X731643D01*
Y56368D01*
X731750D01*
Y56260D01*
X731965D01*
Y56153D01*
X732073D01*
Y56045D01*
X732180D01*
Y55938D01*
X732288D01*
Y55830D01*
X732395D01*
Y55722D01*
X732503D01*
Y55615D01*
X732610D01*
Y55507D01*
X732718D01*
Y55400D01*
X732825D01*
Y55293D01*
X732933D01*
Y55185D01*
X733040D01*
Y55078D01*
X733148D01*
Y54970D01*
X733255D01*
Y54862D01*
X733363D01*
Y54755D01*
X733470D01*
Y54540D01*
X733577D01*
Y54433D01*
X733685D01*
Y54325D01*
X733792D01*
Y54218D01*
X733900D01*
Y54110D01*
X734007D01*
Y54002D01*
X734115D01*
Y53787D01*
X734222D01*
Y53680D01*
X734330D01*
Y53573D01*
X734437D01*
Y53465D01*
X734545D01*
Y53250D01*
X734652D01*
Y53142D01*
X734760D01*
Y53035D01*
X734867D01*
Y52820D01*
X734975D01*
Y52712D01*
X735082D01*
Y52605D01*
X735190D01*
Y52390D01*
X735297D01*
Y52283D01*
X735405D01*
Y52067D01*
X735512D01*
Y51960D01*
X735620D01*
Y51745D01*
X735727D01*
Y51638D01*
X735835D01*
Y51423D01*
X735943D01*
Y51315D01*
X736050D01*
Y51100D01*
X736158D01*
Y50885D01*
X736265D01*
Y50778D01*
X736373D01*
Y50563D01*
X736480D01*
Y50347D01*
X736588D01*
Y50132D01*
X736695D01*
Y49917D01*
X736803D01*
Y49810D01*
X736910D01*
Y49488D01*
X737018D01*
Y49272D01*
X737125D01*
Y49057D01*
X737233D01*
Y48843D01*
X737340D01*
Y48628D01*
X737448D01*
Y48305D01*
X737555D01*
Y48090D01*
X737663D01*
Y47875D01*
X737770D01*
Y47552D01*
X737878D01*
Y47230D01*
X737985D01*
Y46908D01*
X738092D01*
Y46585D01*
X738200D01*
Y46262D01*
X738307D01*
Y45833D01*
X738415D01*
Y45510D01*
X738522D01*
Y44973D01*
X738630D01*
Y44435D01*
X738737D01*
Y43898D01*
X738845D01*
Y43038D01*
X738952D01*
Y41747D01*
X739060D01*
Y39813D01*
X738952D01*
Y38523D01*
X738845D01*
Y37662D01*
X738737D01*
Y37018D01*
X738630D01*
Y36480D01*
X738522D01*
Y35942D01*
X738415D01*
Y35512D01*
X738307D01*
Y35082D01*
X738200D01*
Y34760D01*
X738092D01*
Y34437D01*
X737985D01*
Y34115D01*
X737878D01*
Y33793D01*
X737770D01*
Y33470D01*
X737663D01*
Y33147D01*
X737555D01*
Y32933D01*
X737448D01*
Y32610D01*
X737340D01*
Y32395D01*
X737233D01*
Y32180D01*
X737125D01*
Y31965D01*
X737018D01*
Y31750D01*
X736910D01*
Y31428D01*
X736803D01*
Y31212D01*
X736695D01*
Y30998D01*
X736588D01*
Y30890D01*
X736480D01*
Y30675D01*
X736373D01*
Y30460D01*
X736265D01*
Y30245D01*
X736158D01*
Y30030D01*
X736050D01*
Y29922D01*
X735943D01*
Y29708D01*
X735835D01*
Y29492D01*
X735727D01*
Y29385D01*
X735620D01*
Y29170D01*
X735512D01*
Y29062D01*
X735405D01*
Y28847D01*
X735297D01*
Y28740D01*
X735190D01*
Y28525D01*
X735082D01*
Y28417D01*
X734975D01*
Y28310D01*
X734867D01*
Y28095D01*
X734760D01*
Y27987D01*
X734652D01*
Y27880D01*
X734545D01*
Y27665D01*
X734437D01*
Y27557D01*
X734330D01*
Y27450D01*
X734222D01*
Y27343D01*
X734115D01*
Y27235D01*
X734007D01*
Y27020D01*
X733900D01*
Y26913D01*
X733792D01*
Y26805D01*
X733685D01*
Y26697D01*
X733577D01*
Y26590D01*
X733470D01*
Y26483D01*
X733363D01*
Y26375D01*
X733255D01*
Y26267D01*
X733148D01*
Y26160D01*
X733040D01*
Y26052D01*
X732933D01*
Y25945D01*
X732825D01*
Y25838D01*
X732718D01*
Y25730D01*
X732610D01*
Y25622D01*
X732503D01*
Y25515D01*
X732395D01*
Y25408D01*
X732288D01*
Y25300D01*
X732180D01*
Y25192D01*
X732073D01*
Y25085D01*
X731965D01*
Y24978D01*
X731858D01*
Y24870D01*
X731750D01*
Y24762D01*
X731643D01*
Y24655D01*
X731428D01*
Y24548D01*
X731320D01*
Y24440D01*
X731212D01*
Y24332D01*
X731105D01*
Y24225D01*
X730890D01*
Y24118D01*
X730782D01*
Y24010D01*
X730675D01*
Y23902D01*
X730460D01*
Y23795D01*
X730352D01*
Y23688D01*
X730137D01*
Y23580D01*
X730030D01*
Y23472D01*
X729922D01*
Y23365D01*
X729707D01*
Y23258D01*
X729492D01*
Y23150D01*
X729385D01*
Y23043D01*
X729170D01*
Y22935D01*
X729062D01*
Y22827D01*
X728848D01*
Y22720D01*
X728633D01*
Y22613D01*
X728418D01*
Y22505D01*
X728310D01*
Y22397D01*
X728095D01*
Y22290D01*
X727880D01*
Y22183D01*
X727665D01*
Y22075D01*
X727450D01*
Y21967D01*
X727235D01*
Y21860D01*
X727020D01*
Y21753D01*
X726697D01*
Y21645D01*
X726482D01*
Y21537D01*
X726267D01*
Y21430D01*
X725945D01*
Y21323D01*
X725622D01*
Y21215D01*
X725407D01*
Y21107D01*
X725085D01*
Y21000D01*
X724762D01*
Y20893D01*
X724440D01*
Y20785D01*
X724010D01*
Y20677D01*
X723688D01*
Y20570D01*
X723258D01*
Y20463D01*
X722720D01*
Y20355D01*
X722182D01*
Y20247D01*
X721645D01*
Y20140D01*
X720892D01*
Y20032D01*
X719818D01*
Y19925D01*
X715732D01*
Y20032D01*
X714550D01*
Y20140D01*
X713798D01*
Y20247D01*
X713045D01*
Y20355D01*
X712400D01*
Y20463D01*
X711862D01*
Y20570D01*
X711432D01*
Y20677D01*
X710895D01*
Y20785D01*
X710465D01*
Y20893D01*
X710035D01*
Y21000D01*
X709605D01*
Y21107D01*
X709175D01*
Y21215D01*
X708852D01*
Y21323D01*
X708530D01*
Y21430D01*
X708207D01*
Y21537D01*
X707885D01*
Y21645D01*
X707562D01*
Y21753D01*
X707240D01*
Y21860D01*
X707025D01*
Y21967D01*
X706702D01*
Y22075D01*
X706380D01*
Y22183D01*
X706165D01*
Y22290D01*
X705843D01*
Y22397D01*
X705628D01*
Y22505D01*
X705413D01*
Y22613D01*
X705090D01*
Y22720D01*
X704875D01*
Y22827D01*
X704660D01*
Y22935D01*
X704445D01*
Y23043D01*
X704230D01*
Y23150D01*
X704015D01*
Y23258D01*
X703800D01*
Y23365D01*
X703585D01*
Y23472D01*
X703370D01*
Y23580D01*
X703155D01*
Y23688D01*
X702940D01*
Y23795D01*
X702725D01*
Y23902D01*
X702510D01*
Y24010D01*
X702402D01*
Y24118D01*
X702188D01*
Y24225D01*
X701973D01*
Y24332D01*
X701865D01*
Y24440D01*
X701650D01*
Y24548D01*
X701435D01*
Y24655D01*
X701328D01*
Y24762D01*
X701113D01*
Y24870D01*
X700898D01*
Y24978D01*
X700790D01*
Y25085D01*
X700575D01*
Y25192D01*
X700468D01*
Y25300D01*
X700253D01*
Y25408D01*
X700145D01*
Y25515D01*
X699930D01*
Y25622D01*
X699822D01*
Y25730D01*
X699607D01*
Y25838D01*
X699500D01*
Y25945D01*
X699392D01*
Y26052D01*
X699177D01*
Y26160D01*
X699070D01*
Y26267D01*
X698855D01*
Y26375D01*
X698747D01*
Y26483D01*
X698640D01*
Y26590D01*
X698425D01*
Y26697D01*
X698317D01*
Y26805D01*
X698210D01*
Y26913D01*
X698102D01*
Y27020D01*
X697995D01*
Y27127D01*
X697780D01*
Y27235D01*
X697673D01*
Y27343D01*
X697565D01*
Y27450D01*
X697458D01*
Y27557D01*
X697243D01*
Y27665D01*
X697135D01*
Y27773D01*
X697028D01*
Y27880D01*
X696920D01*
Y27987D01*
X696813D01*
Y28095D01*
X696705D01*
Y28203D01*
X696598D01*
Y28310D01*
X696490D01*
Y28417D01*
X696383D01*
Y28525D01*
X696275D01*
Y28633D01*
X696060D01*
Y28740D01*
X695953D01*
Y28847D01*
X695845D01*
Y28955D01*
X695738D01*
Y29062D01*
X695630D01*
Y29170D01*
X695523D01*
Y29278D01*
X695415D01*
Y29385D01*
X695307D01*
Y29492D01*
X695200D01*
Y29600D01*
X695092D01*
Y29708D01*
X694985D01*
Y29815D01*
X694877D01*
Y29922D01*
X694770D01*
Y30030D01*
X694662D01*
Y30245D01*
X694555D01*
Y30352D01*
X694447D01*
Y30460D01*
X694340D01*
Y30568D01*
X694232D01*
Y30675D01*
X694125D01*
Y30782D01*
X694017D01*
Y30890D01*
X693910D01*
Y30998D01*
X693802D01*
Y31105D01*
X693695D01*
Y31212D01*
X693587D01*
Y31428D01*
X693480D01*
Y31535D01*
X693372D01*
Y31642D01*
X693265D01*
Y31750D01*
X693158D01*
Y31965D01*
X693050D01*
Y32073D01*
X692943D01*
Y32180D01*
X692835D01*
Y32287D01*
X692728D01*
Y32503D01*
X692620D01*
Y32610D01*
X692513D01*
Y32717D01*
X692405D01*
Y32825D01*
X692298D01*
Y33040D01*
X692190D01*
Y33147D01*
X692083D01*
Y33363D01*
X691975D01*
Y33470D01*
X691868D01*
Y33685D01*
X691760D01*
Y33793D01*
X691653D01*
Y33900D01*
X691545D01*
Y34115D01*
X691438D01*
Y34223D01*
X691330D01*
Y34437D01*
X691223D01*
Y34545D01*
X691115D01*
Y34760D01*
X691008D01*
Y34867D01*
X690900D01*
Y35082D01*
X690792D01*
Y35298D01*
X690685D01*
Y35405D01*
X690577D01*
Y35620D01*
X690470D01*
Y35835D01*
X690362D01*
Y35942D01*
X690255D01*
Y36158D01*
X690147D01*
Y36372D01*
X690040D01*
Y36480D01*
X689932D01*
Y36695D01*
X689825D01*
Y36910D01*
X689717D01*
Y37125D01*
X689610D01*
Y37340D01*
X689502D01*
Y37555D01*
X689395D01*
Y37770D01*
X689287D01*
Y37985D01*
X689180D01*
Y38200D01*
X689072D01*
Y38415D01*
X688965D01*
Y38630D01*
X688857D01*
Y38845D01*
X688750D01*
Y39167D01*
X688643D01*
Y39383D01*
X688535D01*
Y39597D01*
X688428D01*
Y39920D01*
X688320D01*
Y40135D01*
X688213D01*
Y40458D01*
X688105D01*
Y40672D01*
X687998D01*
Y40995D01*
X687890D01*
Y41318D01*
X687783D01*
Y41640D01*
X687675D01*
Y41962D01*
X687568D01*
Y42285D01*
X687460D01*
Y42607D01*
X687353D01*
Y42822D01*
X687245D01*
Y43253D01*
X687138D01*
Y43682D01*
X687030D01*
Y44113D01*
X686923D01*
Y44542D01*
X686815D01*
Y44865D01*
X686708D01*
Y45402D01*
X686600D01*
Y45940D01*
X686492D01*
Y46477D01*
X686385D01*
Y47123D01*
X686277D01*
Y47875D01*
X686170D01*
Y48735D01*
X686062D01*
Y49917D01*
X685955D01*
Y54433D01*
X686062D01*
Y55507D01*
X686170D01*
Y56475D01*
X686277D01*
Y57120D01*
X686385D01*
Y57765D01*
X686492D01*
Y58410D01*
X686600D01*
Y58948D01*
X686708D01*
Y59377D01*
X686815D01*
Y59808D01*
X686923D01*
Y60237D01*
X687030D01*
Y60668D01*
X687138D01*
Y61097D01*
X687245D01*
Y61420D01*
X687353D01*
Y61743D01*
X687460D01*
Y62065D01*
X687568D01*
Y62495D01*
X687675D01*
Y62818D01*
X687783D01*
Y63032D01*
X687890D01*
Y63355D01*
X687998D01*
Y63678D01*
X688105D01*
Y63892D01*
X688213D01*
Y64215D01*
X688320D01*
Y64430D01*
X688428D01*
Y64752D01*
X688535D01*
Y64967D01*
X688643D01*
Y65182D01*
X688750D01*
Y65398D01*
X688857D01*
Y65720D01*
X688965D01*
Y65935D01*
X689072D01*
Y66150D01*
X689180D01*
Y66365D01*
X689287D01*
Y66580D01*
X689395D01*
Y66795D01*
X689502D01*
Y67010D01*
X689610D01*
Y67225D01*
X689717D01*
Y67440D01*
X689825D01*
Y67547D01*
X689932D01*
Y67762D01*
X690040D01*
Y67977D01*
X690147D01*
Y68193D01*
X690255D01*
Y68408D01*
X690362D01*
Y68515D01*
X690470D01*
Y68730D01*
X690577D01*
Y68945D01*
X690685D01*
Y69053D01*
X690792D01*
Y69268D01*
X690900D01*
Y69375D01*
X691008D01*
Y69590D01*
X691115D01*
Y69697D01*
X691223D01*
Y69913D01*
X691330D01*
Y70128D01*
X691438D01*
Y70235D01*
X691545D01*
Y70450D01*
X691653D01*
Y70557D01*
X691760D01*
Y70665D01*
X691868D01*
Y70880D01*
X691975D01*
Y70988D01*
X692083D01*
Y71095D01*
X692190D01*
Y71310D01*
X692298D01*
Y71417D01*
X692405D01*
Y71632D01*
X692513D01*
Y71740D01*
X692620D01*
Y71848D01*
X692728D01*
Y72063D01*
X692835D01*
Y72170D01*
X692943D01*
Y72277D01*
X693050D01*
Y72385D01*
X693158D01*
Y72492D01*
X693265D01*
Y72708D01*
X693372D01*
Y72815D01*
X693480D01*
Y72923D01*
X693587D01*
Y73030D01*
X693695D01*
Y73137D01*
X693802D01*
Y73352D01*
X693910D01*
Y73460D01*
X694017D01*
Y73568D01*
X694125D01*
Y73675D01*
X694232D01*
Y73783D01*
X694340D01*
Y73890D01*
X694447D01*
Y73998D01*
X694555D01*
Y74105D01*
X694662D01*
Y74212D01*
X694770D01*
Y74320D01*
X694877D01*
Y74427D01*
X694985D01*
Y74535D01*
X695092D01*
Y74750D01*
X695200D01*
Y74858D01*
X695307D01*
Y74965D01*
X695415D01*
Y75072D01*
X695523D01*
Y75180D01*
X695630D01*
Y75287D01*
X695738D01*
Y75395D01*
X695953D01*
Y75503D01*
X696060D01*
Y75610D01*
X696168D01*
Y75718D01*
X696275D01*
Y75825D01*
X696383D01*
Y75932D01*
X696490D01*
Y76040D01*
X696598D01*
Y76147D01*
X696705D01*
Y76255D01*
X696813D01*
Y76363D01*
X696920D01*
Y76470D01*
X697028D01*
Y76578D01*
X697243D01*
Y76685D01*
X697350D01*
Y76792D01*
X697458D01*
Y76900D01*
X697565D01*
Y77007D01*
X697673D01*
Y77115D01*
X697887D01*
Y77222D01*
X697995D01*
Y77330D01*
X698102D01*
Y77438D01*
X698210D01*
Y77545D01*
X698425D01*
Y77653D01*
X698532D01*
Y77760D01*
X698640D01*
Y77867D01*
X698747D01*
Y77975D01*
X698962D01*
Y78082D01*
X699070D01*
Y78190D01*
X699285D01*
Y78298D01*
X699392D01*
Y78405D01*
X699500D01*
Y78513D01*
X699715D01*
Y78620D01*
X699822D01*
Y78727D01*
X700038D01*
Y78835D01*
X700145D01*
Y78942D01*
X700253D01*
Y79050D01*
X700468D01*
Y79158D01*
X700683D01*
Y79265D01*
X700790D01*
Y79373D01*
X701005D01*
Y79480D01*
X701113D01*
Y79587D01*
X701328D01*
Y79695D01*
X701543D01*
Y79802D01*
X701650D01*
Y79910D01*
X701865D01*
Y79802D01*
D02*
G37*
G36*
X843572Y335966D02*
X843534D01*
Y336004D01*
X843610D01*
Y335966D01*
X843572D01*
D02*
G37*
G36*
X834504Y356921D02*
X834428D01*
Y356959D01*
X834504D01*
Y356997D01*
X834542D01*
Y356959D01*
X834504D01*
Y356921D01*
D02*
G37*
D16*
X370400Y355450D02*
D03*
X365400D02*
D03*
X360400D02*
D03*
X355400D02*
D03*
X350400D02*
D03*
X375400D02*
D03*
X335400D02*
D03*
X330400D02*
D03*
X325400D02*
D03*
X320400D02*
D03*
X315400D02*
D03*
X340400D02*
D03*
X322900Y368450D02*
D03*
X327900D02*
D03*
X332900D02*
D03*
X337900D02*
D03*
X342900D02*
D03*
X352900D02*
D03*
X357900D02*
D03*
X362900D02*
D03*
X367900D02*
D03*
X347900D02*
D03*
D17*
X314400Y368550D02*
D03*
X376400Y368450D02*
D03*
D18*
X597000Y201000D02*
D03*
Y172000D02*
D03*
X520000Y273500D02*
D03*
Y302500D02*
D03*
D19*
X623000Y194000D02*
D03*
Y168000D02*
D03*
X425000Y148000D02*
D03*
Y122000D02*
D03*
X623000Y237000D02*
D03*
Y211000D02*
D03*
D20*
X846000Y355750D02*
D03*
Y368250D02*
D03*
X830000Y355750D02*
D03*
Y368250D02*
D03*
D21*
X456000Y125000D02*
D03*
X446500Y145000D02*
D03*
X465500D02*
D03*
D22*
X493000Y145000D02*
D03*
X505000D02*
D03*
X350000Y335000D02*
D03*
X338000D02*
D03*
X636500Y20000D02*
D03*
X648500D02*
D03*
X800000Y297000D02*
D03*
X812000D02*
D03*
X516500Y20000D02*
D03*
X528500D02*
D03*
X476500Y50000D02*
D03*
X488500D02*
D03*
X476500Y20000D02*
D03*
X488500D02*
D03*
X596500D02*
D03*
X608500D02*
D03*
X568500D02*
D03*
X556500D02*
D03*
D23*
X506500Y224000D02*
D03*
D24*
X569500Y247000D02*
D03*
Y224000D02*
D03*
Y201000D02*
D03*
D25*
X483000Y277125D02*
D03*
Y254875D02*
D03*
D26*
X525600Y104500D02*
D03*
Y95000D02*
D03*
Y85500D02*
D03*
X499400D02*
D03*
Y95000D02*
D03*
Y104500D02*
D03*
D27*
X289560Y337820D02*
D03*
Y325820D02*
D03*
X760000Y305000D02*
D03*
Y293000D02*
D03*
X456000Y209000D02*
D03*
Y197000D02*
D03*
Y180000D02*
D03*
Y168000D02*
D03*
X464000Y89000D02*
D03*
Y101000D02*
D03*
D28*
X612000Y119050D02*
D03*
Y106350D02*
D03*
Y93650D02*
D03*
Y80950D02*
D03*
X558000D02*
D03*
Y93650D02*
D03*
Y106350D02*
D03*
Y119050D02*
D03*
D29*
X578750Y135000D02*
D03*
X591250D02*
D03*
X596250Y50000D02*
D03*
X608750D02*
D03*
X636250Y50000D02*
D03*
X648750D02*
D03*
X528750Y50000D02*
D03*
X516250D02*
D03*
D30*
X253600Y71200D02*
D03*
X203600D02*
D03*
X253600Y147400D02*
D03*
X203600D02*
D03*
X253600Y223600D02*
D03*
X203600D02*
D03*
X253600Y299800D02*
D03*
X203600D02*
D03*
X254000Y376000D02*
D03*
X204000D02*
D03*
X114700Y185500D02*
D03*
X164700D02*
D03*
X114700Y261700D02*
D03*
X164700D02*
D03*
X75800Y147400D02*
D03*
X25800D02*
D03*
X76200Y299800D02*
D03*
X26200D02*
D03*
X76200Y223600D02*
D03*
X26200D02*
D03*
D31*
X388600Y359550D02*
D03*
X302200D02*
D03*
D32*
X780000Y112000D02*
D03*
X760000D02*
D03*
X740000D02*
D03*
X720000D02*
D03*
X700000D02*
D03*
X680000D02*
D03*
X800000D02*
D03*
X820000D02*
D03*
X840000D02*
D03*
X720000Y332000D02*
D03*
X740000D02*
D03*
X760000D02*
D03*
X780000D02*
D03*
X800000D02*
D03*
X820000D02*
D03*
X700000D02*
D03*
X680000D02*
D03*
X660000D02*
D03*
D33*
Y112000D02*
D03*
X840000Y332000D02*
D03*
D34*
X302400Y413050D02*
D03*
X388800D02*
D03*
D35*
X393700Y38100D02*
D03*
Y63500D02*
D03*
X323850Y222250D02*
D03*
Y196850D02*
D03*
X393700D02*
D03*
Y222250D02*
D03*
X323850Y38100D02*
D03*
Y63500D02*
D03*
D36*
X795000Y385000D02*
D03*
X145000Y347500D02*
D03*
Y97500D02*
D03*
X795000Y60000D02*
D03*
D37*
X570500Y395880D02*
D03*
X445500D02*
D03*
D38*
Y324080D02*
D03*
X470500D02*
D03*
X495500D02*
D03*
X520500D02*
D03*
X545500D02*
D03*
X570500D02*
D03*
D39*
X585000Y106000D02*
D03*
X800000Y261000D02*
D03*
X632000Y342863D02*
D03*
X760000Y282000D02*
D03*
X407000Y148000D02*
D03*
X412000Y101000D02*
D03*
X506000Y50000D02*
D03*
X523000Y158000D02*
D03*
Y117000D02*
D03*
X605000Y135000D02*
D03*
X538000Y144863D02*
D03*
Y68000D02*
D03*
X506000D02*
D03*
X538000Y104000D02*
D03*
X673000Y151000D02*
D03*
X794000Y247000D02*
D03*
X346000Y413000D02*
D03*
X451750Y244000D02*
D03*
X436000D02*
D03*
X585250Y224000D02*
D03*
X601000D02*
D03*
X816000Y356000D02*
D03*
X480000Y101000D02*
D03*
X714000Y158000D02*
D03*
X822000Y297000D02*
D03*
X309000Y328000D02*
D03*
X586000Y20000D02*
D03*
X626000Y106000D02*
D03*
Y20000D02*
D03*
X547500D02*
D03*
X467500Y50000D02*
D03*
X254000Y25400D02*
D03*
X114300Y139700D02*
D03*
X76200Y345440D02*
D03*
M02*
