G04*
G04 #@! TF.GenerationSoftware,Altium Limited,Altium Designer,24.1.2 (44)*
G04*
G04 Layer_Color=8421504*
%FSLAX44Y44*%
%MOMM*%
G71*
G04*
G04 #@! TF.SameCoordinates,9A0184B9-0745-4BA0-A63A-3E559F80E0CB*
G04*
G04*
G04 #@! TF.FilePolarity,Positive*
G04*
G01*
G75*
%ADD16R,0.3000X0.7000*%
%ADD17R,1.0000X0.7000*%
%ADD18R,1.8000X1.3000*%
%ADD19R,1.5500X1.0000*%
%ADD20R,0.9000X0.8000*%
%ADD21R,0.6000X0.7000*%
%ADD22R,0.7500X0.8500*%
%ADD23R,2.0000X3.8000*%
%ADD24R,2.0000X1.5000*%
%ADD25R,0.8300X0.6250*%
%ADD26R,1.2200X0.6200*%
%ADD27R,0.8500X0.7500*%
%ADD28O,1.5500X0.6000*%
%ADD29R,0.8000X0.9000*%
%ADD30R,3.2000X1.6000*%
D16*
X370400Y355450D02*
D03*
X365400D02*
D03*
X360400D02*
D03*
X355400D02*
D03*
X350400D02*
D03*
X375400D02*
D03*
X335400D02*
D03*
X330400D02*
D03*
X325400D02*
D03*
X320400D02*
D03*
X315400D02*
D03*
X340400D02*
D03*
X322900Y368450D02*
D03*
X327900D02*
D03*
X332900D02*
D03*
X337900D02*
D03*
X342900D02*
D03*
X352900D02*
D03*
X357900D02*
D03*
X362900D02*
D03*
X367900D02*
D03*
X347900D02*
D03*
D17*
X314400Y368550D02*
D03*
X376400Y368450D02*
D03*
D18*
X597000Y201000D02*
D03*
Y172000D02*
D03*
X520000Y273500D02*
D03*
Y302500D02*
D03*
D19*
X623000Y194000D02*
D03*
Y168000D02*
D03*
X425000Y148000D02*
D03*
Y122000D02*
D03*
X623000Y237000D02*
D03*
Y211000D02*
D03*
D20*
X846000Y355750D02*
D03*
Y368250D02*
D03*
X830000Y355750D02*
D03*
Y368250D02*
D03*
D21*
X456000Y125000D02*
D03*
X446500Y145000D02*
D03*
X465500D02*
D03*
D22*
X493000Y145000D02*
D03*
X505000D02*
D03*
X350000Y335000D02*
D03*
X338000D02*
D03*
X636500Y20000D02*
D03*
X648500D02*
D03*
X800000Y297000D02*
D03*
X812000D02*
D03*
X516500Y20000D02*
D03*
X528500D02*
D03*
X476500Y50000D02*
D03*
X488500D02*
D03*
X476500Y20000D02*
D03*
X488500D02*
D03*
X596500D02*
D03*
X608500D02*
D03*
X568500D02*
D03*
X556500D02*
D03*
D23*
X506500Y224000D02*
D03*
D24*
X569500Y247000D02*
D03*
Y224000D02*
D03*
Y201000D02*
D03*
D25*
X483000Y277125D02*
D03*
Y254875D02*
D03*
D26*
X525600Y104500D02*
D03*
Y95000D02*
D03*
Y85500D02*
D03*
X499400D02*
D03*
Y95000D02*
D03*
Y104500D02*
D03*
D27*
X289560Y337820D02*
D03*
Y325820D02*
D03*
X760000Y305000D02*
D03*
Y293000D02*
D03*
X456000Y209000D02*
D03*
Y197000D02*
D03*
Y180000D02*
D03*
Y168000D02*
D03*
X464000Y89000D02*
D03*
Y101000D02*
D03*
D28*
X612000Y119050D02*
D03*
Y106350D02*
D03*
Y93650D02*
D03*
Y80950D02*
D03*
X558000D02*
D03*
Y93650D02*
D03*
Y106350D02*
D03*
Y119050D02*
D03*
D29*
X578750Y135000D02*
D03*
X591250D02*
D03*
X596250Y50000D02*
D03*
X608750D02*
D03*
X636250Y50000D02*
D03*
X648750D02*
D03*
X528750Y50000D02*
D03*
X516250D02*
D03*
D30*
X253600Y71200D02*
D03*
X203600D02*
D03*
X253600Y147400D02*
D03*
X203600D02*
D03*
X253600Y223600D02*
D03*
X203600D02*
D03*
X253600Y299800D02*
D03*
X203600D02*
D03*
X254000Y376000D02*
D03*
X204000D02*
D03*
X114700Y185500D02*
D03*
X164700D02*
D03*
X114700Y261700D02*
D03*
X164700D02*
D03*
X75800Y147400D02*
D03*
X25800D02*
D03*
X76200Y299800D02*
D03*
X26200D02*
D03*
X76200Y223600D02*
D03*
X26200D02*
D03*
M02*
