G04*
G04 #@! TF.GenerationSoftware,Altium Limited,Altium Designer,24.1.2 (44)*
G04*
G04 Layer_Physical_Order=2*
G04 Layer_Color=16711680*
%FSLAX44Y44*%
%MOMM*%
G71*
G04*
G04 #@! TF.SameCoordinates,8940CB7B-32E8-470A-AB05-D825E909EC58*
G04*
G04*
G04 #@! TF.FilePolarity,Positive*
G04*
G01*
G75*
%ADD11C,0.2000*%
%ADD14C,0.2540*%
%ADD39C,1.3000*%
G04:AMPARAMS|DCode=40|XSize=1.3mm|YSize=1.3mm|CornerRadius=0.325mm|HoleSize=0mm|Usage=FLASHONLY|Rotation=180.000|XOffset=0mm|YOffset=0mm|HoleType=Round|Shape=RoundedRectangle|*
%AMROUNDEDRECTD40*
21,1,1.3000,0.6500,0,0,180.0*
21,1,0.6500,1.3000,0,0,180.0*
1,1,0.6500,-0.3250,0.3250*
1,1,0.6500,0.3250,0.3250*
1,1,0.6500,0.3250,-0.3250*
1,1,0.6500,-0.3250,-0.3250*
%
%ADD40ROUNDEDRECTD40*%
%ADD41C,5.5000*%
%ADD42C,1.6000*%
%ADD43C,1.0000*%
%ADD44C,0.8500*%
%ADD45C,1.2700*%
%ADD49R,3.0000X1.2000*%
%ADD50R,1.2000X3.0000*%
%ADD51C,0.3810*%
G36*
X35000Y370922D02*
X550376D01*
Y4078D01*
X35000D01*
X34831Y4045D01*
X30155Y4413D01*
X25430Y5547D01*
X20941Y7407D01*
X16797Y9946D01*
X13102Y13102D01*
X9946Y16797D01*
X7407Y20941D01*
X5547Y25430D01*
X4413Y30155D01*
X4045Y34831D01*
X4078Y35000D01*
Y340000D01*
X4045Y340169D01*
X4413Y344845D01*
X5547Y349570D01*
X7407Y354059D01*
X9946Y358203D01*
X13102Y361898D01*
X16797Y365054D01*
X20941Y367593D01*
X25430Y369453D01*
X30155Y370587D01*
X34831Y370955D01*
X35000Y370922D01*
D02*
G37*
%LPC*%
G36*
X439243Y367250D02*
X439000D01*
Y362000D01*
X444250D01*
Y362243D01*
X443298Y364540D01*
X441540Y366298D01*
X439243Y367250D01*
D02*
G37*
G36*
X437000D02*
X436757D01*
X434460Y366298D01*
X432701Y364540D01*
X431750Y362243D01*
Y362000D01*
X437000D01*
Y367250D01*
D02*
G37*
G36*
X388243D02*
X388000D01*
Y362000D01*
X393250D01*
Y362243D01*
X392299Y364540D01*
X390540Y366298D01*
X388243Y367250D01*
D02*
G37*
G36*
X386000D02*
X385757D01*
X383460Y366298D01*
X381702Y364540D01*
X380750Y362243D01*
Y362000D01*
X386000D01*
Y367250D01*
D02*
G37*
G36*
X337243D02*
X337000D01*
Y362000D01*
X342250D01*
Y362243D01*
X341298Y364540D01*
X339540Y366298D01*
X337243Y367250D01*
D02*
G37*
G36*
X335000D02*
X334757D01*
X332460Y366298D01*
X330701Y364540D01*
X329750Y362243D01*
Y362000D01*
X335000D01*
Y367250D01*
D02*
G37*
G36*
X444250Y360000D02*
X439000D01*
Y354750D01*
X439243D01*
X441540Y355701D01*
X443298Y357460D01*
X444250Y359757D01*
Y360000D01*
D02*
G37*
G36*
X437000D02*
X431750D01*
Y359757D01*
X432701Y357460D01*
X434460Y355701D01*
X436757Y354750D01*
X437000D01*
Y360000D01*
D02*
G37*
G36*
X393250D02*
X388000D01*
Y354750D01*
X388243D01*
X390540Y355701D01*
X392299Y357460D01*
X393250Y359757D01*
Y360000D01*
D02*
G37*
G36*
X386000D02*
X380750D01*
Y359757D01*
X381702Y357460D01*
X383460Y355701D01*
X385757Y354750D01*
X386000D01*
Y360000D01*
D02*
G37*
G36*
X342250D02*
X337000D01*
Y354750D01*
X337243D01*
X339540Y355701D01*
X341298Y357460D01*
X342250Y359757D01*
Y360000D01*
D02*
G37*
G36*
X335000D02*
X329750D01*
Y359757D01*
X330701Y357460D01*
X332460Y355701D01*
X334757Y354750D01*
X335000D01*
Y360000D01*
D02*
G37*
G36*
X502243Y358250D02*
X502000D01*
Y353000D01*
X507250D01*
Y353243D01*
X506298Y355540D01*
X504540Y357299D01*
X502243Y358250D01*
D02*
G37*
G36*
X500000D02*
X499757D01*
X497460Y357299D01*
X495701Y355540D01*
X494750Y353243D01*
Y353000D01*
X500000D01*
Y358250D01*
D02*
G37*
G36*
X206243Y351250D02*
X206000D01*
Y346000D01*
X211250D01*
Y346243D01*
X210298Y348540D01*
X208540Y350298D01*
X206243Y351250D01*
D02*
G37*
G36*
X204000D02*
X203757D01*
X201460Y350298D01*
X199701Y348540D01*
X198750Y346243D01*
Y346000D01*
X204000D01*
Y351250D01*
D02*
G37*
G36*
X166243D02*
X166000D01*
Y346000D01*
X171250D01*
Y346243D01*
X170298Y348540D01*
X168540Y350298D01*
X166243Y351250D01*
D02*
G37*
G36*
X164000D02*
X163757D01*
X161460Y350298D01*
X159701Y348540D01*
X158750Y346243D01*
Y346000D01*
X164000D01*
Y351250D01*
D02*
G37*
G36*
X507250Y351000D02*
X502000D01*
Y345750D01*
X502243D01*
X504540Y346702D01*
X506298Y348460D01*
X507250Y350757D01*
Y351000D01*
D02*
G37*
G36*
X500000D02*
X494750D01*
Y350757D01*
X495701Y348460D01*
X497460Y346702D01*
X499757Y345750D01*
X500000D01*
Y351000D01*
D02*
G37*
G36*
X211250Y344000D02*
X206000D01*
Y338750D01*
X206243D01*
X208540Y339701D01*
X210298Y341460D01*
X211250Y343757D01*
Y344000D01*
D02*
G37*
G36*
X204000D02*
X198750D01*
Y343757D01*
X199701Y341460D01*
X201460Y339701D01*
X203757Y338750D01*
X204000D01*
Y344000D01*
D02*
G37*
G36*
X171250D02*
X166000D01*
Y338750D01*
X166243D01*
X168540Y339701D01*
X170298Y341460D01*
X171250Y343757D01*
Y344000D01*
D02*
G37*
G36*
X164000D02*
X158750D01*
Y343757D01*
X159701Y341460D01*
X161460Y339701D01*
X163757Y338750D01*
X164000D01*
Y344000D01*
D02*
G37*
G36*
X37282Y369000D02*
X32718D01*
X28209Y368286D01*
X23868Y366875D01*
X19801Y364803D01*
X16108Y362120D01*
X12880Y358892D01*
X10197Y355199D01*
X8125Y351132D01*
X6714Y346791D01*
X6000Y342282D01*
Y337718D01*
X6714Y333209D01*
X8125Y328868D01*
X10197Y324801D01*
X12880Y321108D01*
X16108Y317880D01*
X19801Y315197D01*
X23868Y313125D01*
X28209Y311714D01*
X32718Y311000D01*
X37282D01*
X41791Y311714D01*
X46132Y313125D01*
X50199Y315197D01*
X53892Y317880D01*
X57120Y321108D01*
X59803Y324801D01*
X61875Y328868D01*
X63286Y333209D01*
X64000Y337718D01*
Y342282D01*
X63286Y346791D01*
X61875Y351132D01*
X59803Y355199D01*
X57120Y358892D01*
X53892Y362120D01*
X50199Y364803D01*
X46132Y366875D01*
X41791Y368286D01*
X37282Y369000D01*
D02*
G37*
G36*
X482500Y345500D02*
X467500D01*
Y316105D01*
X461278Y309883D01*
X460919D01*
X459944Y309689D01*
X459117Y309136D01*
X457973Y307992D01*
X456144Y308750D01*
X453856D01*
X451743Y307875D01*
X450125Y306257D01*
X449250Y304144D01*
Y301856D01*
X450125Y299743D01*
X451743Y298125D01*
X452451Y297832D01*
Y245445D01*
X451181Y245133D01*
X449912Y246402D01*
X448088Y247455D01*
X446053Y248000D01*
X443947D01*
X441912Y247455D01*
X440088Y246402D01*
X438598Y244912D01*
X437545Y243088D01*
X437000Y241053D01*
Y238947D01*
X437545Y236912D01*
X438598Y235088D01*
X440088Y233598D01*
X441912Y232545D01*
X443947Y232000D01*
X446053D01*
X448088Y232545D01*
X449912Y233598D01*
X451181Y234867D01*
X452451Y234555D01*
Y225168D01*
X451743Y224875D01*
X450125Y223257D01*
X449250Y221144D01*
Y218856D01*
X450125Y216743D01*
X451743Y215125D01*
X453856Y214250D01*
X456144D01*
X458257Y215125D01*
X459875Y216743D01*
X460750Y218856D01*
Y221144D01*
X459875Y223257D01*
X458257Y224875D01*
X457549Y225168D01*
Y234555D01*
X458819Y234867D01*
X460088Y233598D01*
X461912Y232545D01*
X463947Y232000D01*
X466053D01*
X468088Y232545D01*
X469912Y233598D01*
X471402Y235088D01*
X472455Y236912D01*
X473000Y238947D01*
Y241053D01*
X472455Y243088D01*
X471402Y244912D01*
X469912Y246402D01*
X468088Y247455D01*
X466053Y248000D01*
X463947D01*
X461912Y247455D01*
X460088Y246402D01*
X458819Y245133D01*
X457549Y245445D01*
Y297832D01*
X458257Y298125D01*
X459875Y299743D01*
X460750Y301856D01*
Y303560D01*
X461975Y304785D01*
X462334D01*
X463309Y304979D01*
X464136Y305531D01*
X471105Y312500D01*
X482500D01*
Y345500D01*
D02*
G37*
G36*
X226243Y311250D02*
X226000D01*
Y306000D01*
X231250D01*
Y306243D01*
X230298Y308540D01*
X228540Y310298D01*
X226243Y311250D01*
D02*
G37*
G36*
X224000D02*
X223757D01*
X221460Y310298D01*
X219701Y308540D01*
X218750Y306243D01*
Y306000D01*
X224000D01*
Y311250D01*
D02*
G37*
G36*
X186243D02*
X186000D01*
Y306000D01*
X191250D01*
Y306243D01*
X190299Y308540D01*
X188540Y310298D01*
X186243Y311250D01*
D02*
G37*
G36*
X184000D02*
X183757D01*
X181460Y310298D01*
X179701Y308540D01*
X178750Y306243D01*
Y306000D01*
X184000D01*
Y311250D01*
D02*
G37*
G36*
X146243D02*
X146000D01*
Y306000D01*
X151250D01*
Y306243D01*
X150299Y308540D01*
X148540Y310298D01*
X146243Y311250D01*
D02*
G37*
G36*
X144000D02*
X143757D01*
X141460Y310298D01*
X139701Y308540D01*
X138750Y306243D01*
Y306000D01*
X144000D01*
Y311250D01*
D02*
G37*
G36*
X431500Y345500D02*
X416500D01*
Y324246D01*
X416451Y324000D01*
Y306056D01*
X411944Y301549D01*
X409168D01*
X408875Y302257D01*
X407257Y303875D01*
X405144Y304750D01*
X402856D01*
X400743Y303875D01*
X399125Y302257D01*
X398250Y300144D01*
Y297856D01*
X398836Y296441D01*
X393198Y290802D01*
X392645Y289975D01*
X392451Y289000D01*
Y268154D01*
X391181Y267628D01*
X390127Y268682D01*
X388223Y269781D01*
X386099Y270350D01*
X386000D01*
Y262000D01*
Y253650D01*
X386099D01*
X388223Y254219D01*
X390127Y255318D01*
X391181Y256372D01*
X392451Y255846D01*
Y245445D01*
X391181Y245133D01*
X389912Y246402D01*
X388088Y247455D01*
X386053Y248000D01*
X383947D01*
X381912Y247455D01*
X380088Y246402D01*
X378598Y244912D01*
X377545Y243088D01*
X377000Y241053D01*
Y238947D01*
X377545Y236912D01*
X378598Y235088D01*
X380088Y233598D01*
X381912Y232545D01*
X383947Y232000D01*
X386053D01*
X388088Y232545D01*
X389912Y233598D01*
X391181Y234867D01*
X392451Y234555D01*
Y95000D01*
X392645Y94025D01*
X393198Y93198D01*
X396543Y89852D01*
X396250Y89144D01*
Y86856D01*
X397125Y84743D01*
X398743Y83125D01*
X400856Y82250D01*
X403144D01*
X405257Y83125D01*
X406591Y84459D01*
X407861Y84059D01*
Y80545D01*
X407563Y80422D01*
X405946Y78804D01*
X405070Y76691D01*
Y74403D01*
X405946Y72290D01*
X407563Y70672D01*
X409677Y69797D01*
X411964D01*
X414078Y70672D01*
X415695Y72290D01*
X416571Y74403D01*
Y76691D01*
X415695Y78804D01*
X414078Y80422D01*
X412959Y80885D01*
Y115002D01*
X413257Y115125D01*
X414875Y116743D01*
X415750Y118856D01*
Y121144D01*
X414875Y123257D01*
X413257Y124875D01*
X411144Y125750D01*
X409208D01*
X408396Y126604D01*
X408250Y126874D01*
Y127000D01*
X403000D01*
Y121750D01*
X403126D01*
X403396Y121604D01*
X404250Y120792D01*
Y118856D01*
X405125Y116743D01*
X406743Y115125D01*
X407861Y114662D01*
Y91941D01*
X406591Y91540D01*
X405257Y92875D01*
X403144Y93750D01*
X400856D01*
X400148Y93457D01*
X397549Y96056D01*
Y121953D01*
X398819Y122553D01*
X400757Y121750D01*
X401000D01*
Y128000D01*
Y134250D01*
X400757D01*
X398819Y133447D01*
X397549Y134047D01*
Y234555D01*
X398819Y234867D01*
X400088Y233598D01*
X401912Y232545D01*
X403947Y232000D01*
X406053D01*
X408088Y232545D01*
X409912Y233598D01*
X411402Y235088D01*
X412455Y236912D01*
X413000Y238947D01*
Y241053D01*
X412455Y243088D01*
X411402Y244912D01*
X409912Y246402D01*
X408088Y247455D01*
X406053Y248000D01*
X403947D01*
X401912Y247455D01*
X400088Y246402D01*
X398819Y245133D01*
X397549Y245445D01*
Y287944D01*
X402855Y293250D01*
X402856Y293250D01*
X405144D01*
X407257Y294125D01*
X408875Y295743D01*
X409168Y296451D01*
X413000D01*
X413975Y296645D01*
X414802Y297198D01*
X420802Y303198D01*
X421355Y304025D01*
X421549Y305000D01*
Y312500D01*
X431500D01*
Y345500D01*
D02*
G37*
G36*
X231250Y304000D02*
X226000D01*
Y298750D01*
X226243D01*
X228540Y299701D01*
X230298Y301460D01*
X231250Y303757D01*
Y304000D01*
D02*
G37*
G36*
X224000D02*
X218750D01*
Y303757D01*
X219701Y301460D01*
X221460Y299701D01*
X223757Y298750D01*
X224000D01*
Y304000D01*
D02*
G37*
G36*
X191250D02*
X186000D01*
Y298750D01*
X186243D01*
X188540Y299701D01*
X190299Y301460D01*
X191250Y303757D01*
Y304000D01*
D02*
G37*
G36*
X184000D02*
X178750D01*
Y303757D01*
X179701Y301460D01*
X181460Y299701D01*
X183757Y298750D01*
X184000D01*
Y304000D01*
D02*
G37*
G36*
X151250D02*
X146000D01*
Y298750D01*
X146243D01*
X148540Y299701D01*
X150299Y301460D01*
X151250Y303757D01*
Y304000D01*
D02*
G37*
G36*
X144000D02*
X138750D01*
Y303757D01*
X139701Y301460D01*
X141460Y299701D01*
X143757Y298750D01*
X144000D01*
Y304000D01*
D02*
G37*
G36*
X380750Y346000D02*
X365750D01*
Y313000D01*
X370451D01*
Y304168D01*
X369743Y303875D01*
X368125Y302257D01*
X367250Y300144D01*
Y297856D01*
X367543Y297148D01*
X353198Y282802D01*
X352645Y281975D01*
X352451Y281000D01*
Y245445D01*
X351181Y245133D01*
X349912Y246402D01*
X348088Y247455D01*
X346053Y248000D01*
X343947D01*
X341912Y247455D01*
X340088Y246402D01*
X338598Y244912D01*
X337545Y243088D01*
X337000Y241053D01*
Y238947D01*
X337545Y236912D01*
X338598Y235088D01*
X340088Y233598D01*
X341912Y232545D01*
X343947Y232000D01*
X346053D01*
X348088Y232545D01*
X349912Y233598D01*
X351181Y234867D01*
X352451Y234555D01*
Y230056D01*
X350198Y227802D01*
X349645Y226975D01*
X349451Y226000D01*
Y87168D01*
X348743Y86875D01*
X347125Y85257D01*
X346250Y83144D01*
Y80856D01*
X347125Y78743D01*
X348743Y77125D01*
X350856Y76250D01*
X353144D01*
X355257Y77125D01*
X356875Y78743D01*
X357750Y80856D01*
Y83144D01*
X356875Y85257D01*
X355257Y86875D01*
X354549Y87168D01*
Y224944D01*
X356802Y227198D01*
X357355Y228025D01*
X357549Y229000D01*
Y234555D01*
X358819Y234867D01*
X360088Y233598D01*
X361912Y232545D01*
X363947Y232000D01*
X366053D01*
X368088Y232545D01*
X369912Y233598D01*
X371402Y235088D01*
X372455Y236912D01*
X373000Y238947D01*
Y241053D01*
X372455Y243088D01*
X371402Y244912D01*
X369912Y246402D01*
X368088Y247455D01*
X366053Y248000D01*
X363947D01*
X361912Y247455D01*
X360088Y246402D01*
X358819Y245133D01*
X357549Y245445D01*
Y279944D01*
X371148Y293543D01*
X371856Y293250D01*
X374144D01*
X376257Y294125D01*
X377875Y295743D01*
X378750Y297856D01*
Y300144D01*
X377875Y302257D01*
X376257Y303875D01*
X375549Y304168D01*
Y313000D01*
X380750D01*
Y346000D01*
D02*
G37*
G36*
X278500Y345500D02*
X263500D01*
Y312500D01*
X268451D01*
Y304168D01*
X267743Y303875D01*
X266125Y302257D01*
X265250Y300144D01*
Y297856D01*
X266125Y295743D01*
X267743Y294125D01*
X269856Y293250D01*
X272144D01*
X274257Y294125D01*
X275875Y295743D01*
X276750Y297856D01*
Y300144D01*
X275875Y302257D01*
X274257Y303875D01*
X273549Y304168D01*
Y312500D01*
X278500D01*
Y345500D01*
D02*
G37*
G36*
X246243Y271250D02*
X246000D01*
Y266000D01*
X251250D01*
Y266243D01*
X250298Y268540D01*
X248540Y270298D01*
X246243Y271250D01*
D02*
G37*
G36*
X244000D02*
X243757D01*
X241460Y270298D01*
X239701Y268540D01*
X238750Y266243D01*
Y266000D01*
X244000D01*
Y271250D01*
D02*
G37*
G36*
X384000Y270350D02*
X383901D01*
X381777Y269781D01*
X379873Y268682D01*
X378318Y267127D01*
X377219Y265223D01*
X376650Y263099D01*
Y263000D01*
X384000D01*
Y270350D01*
D02*
G37*
G36*
X251250Y264000D02*
X246000D01*
Y258750D01*
X246243D01*
X248540Y259701D01*
X250298Y261460D01*
X251250Y263757D01*
Y264000D01*
D02*
G37*
G36*
X244000D02*
X238750D01*
Y263757D01*
X239701Y261460D01*
X241460Y259701D01*
X243757Y258750D01*
X244000D01*
Y264000D01*
D02*
G37*
G36*
X111144Y260750D02*
X108856D01*
X106743Y259875D01*
X105125Y258257D01*
X104832Y257549D01*
X60168D01*
X59875Y258257D01*
X58257Y259875D01*
X56144Y260750D01*
X53856D01*
X51743Y259875D01*
X50125Y258257D01*
X49250Y256144D01*
Y253856D01*
X50125Y251743D01*
X51743Y250125D01*
X53856Y249250D01*
X56144D01*
X58257Y250125D01*
X59875Y251743D01*
X60168Y252451D01*
X104832D01*
X105125Y251743D01*
X106743Y250125D01*
X108856Y249250D01*
X111144D01*
X113257Y250125D01*
X114875Y251743D01*
X115750Y253856D01*
Y256144D01*
X114875Y258257D01*
X113257Y259875D01*
X111144Y260750D01*
D02*
G37*
G36*
X384000Y261000D02*
X376650D01*
Y260901D01*
X377219Y258777D01*
X378318Y256873D01*
X379873Y255318D01*
X381777Y254219D01*
X383901Y253650D01*
X384000D01*
Y261000D01*
D02*
G37*
G36*
X528250Y248603D02*
X526000D01*
Y241000D01*
X533603D01*
Y243250D01*
X533195Y245298D01*
X532035Y247035D01*
X530298Y248195D01*
X528250Y248603D01*
D02*
G37*
G36*
X524000D02*
X521750D01*
X519702Y248195D01*
X517965Y247035D01*
X516805Y245298D01*
X516397Y243250D01*
Y241000D01*
X524000D01*
Y248603D01*
D02*
G37*
G36*
X486053Y248000D02*
X483947D01*
X481912Y247455D01*
X480088Y246402D01*
X478598Y244912D01*
X477545Y243088D01*
X477000Y241053D01*
Y238947D01*
X477545Y236912D01*
X478598Y235088D01*
X480088Y233598D01*
X481912Y232545D01*
X483947Y232000D01*
X486053D01*
X488088Y232545D01*
X489912Y233598D01*
X491402Y235088D01*
X492455Y236912D01*
X493000Y238947D01*
Y241053D01*
X492455Y243088D01*
X491402Y244912D01*
X489912Y246402D01*
X488088Y247455D01*
X486053Y248000D01*
D02*
G37*
G36*
X533603Y239000D02*
X526000D01*
Y231397D01*
X528250D01*
X530298Y231805D01*
X532035Y232965D01*
X533195Y234702D01*
X533603Y236750D01*
Y239000D01*
D02*
G37*
G36*
X524000D02*
X516397D01*
Y236750D01*
X516805Y234702D01*
X517965Y232965D01*
X519702Y231805D01*
X521750Y231397D01*
X524000D01*
Y239000D01*
D02*
G37*
G36*
X475353Y232903D02*
X475110D01*
Y227653D01*
X480360D01*
Y227896D01*
X479408Y230193D01*
X477650Y231951D01*
X475353Y232903D01*
D02*
G37*
G36*
X473110D02*
X472867D01*
X470570Y231951D01*
X468811Y230193D01*
X467860Y227896D01*
Y227653D01*
X473110D01*
Y232903D01*
D02*
G37*
G36*
X518743Y228750D02*
X518500D01*
Y223500D01*
X523750D01*
Y223743D01*
X522799Y226040D01*
X521040Y227799D01*
X518743Y228750D01*
D02*
G37*
G36*
X516500D02*
X516257D01*
X513960Y227799D01*
X512201Y226040D01*
X511250Y223743D01*
Y223500D01*
X516500D01*
Y228750D01*
D02*
G37*
G36*
X480360Y225653D02*
X475110D01*
Y220403D01*
X475353D01*
X477650Y221354D01*
X479408Y223112D01*
X480360Y225410D01*
Y225653D01*
D02*
G37*
G36*
X473110D02*
X467860D01*
Y225410D01*
X468811Y223112D01*
X470570Y221354D01*
X472867Y220403D01*
X473110D01*
Y225653D01*
D02*
G37*
G36*
X523750Y221500D02*
X518500D01*
Y216250D01*
X518743D01*
X521040Y217201D01*
X522799Y218960D01*
X523750Y221257D01*
Y221500D01*
D02*
G37*
G36*
X516500D02*
X511250D01*
Y221257D01*
X512201Y218960D01*
X513960Y217201D01*
X516257Y216250D01*
X516500D01*
Y221500D01*
D02*
G37*
G36*
X298243Y216250D02*
X298000D01*
Y211000D01*
X303250D01*
Y211243D01*
X302299Y213540D01*
X300540Y215299D01*
X298243Y216250D01*
D02*
G37*
G36*
X296000D02*
X295757D01*
X293460Y215299D01*
X291702Y213540D01*
X290750Y211243D01*
Y211000D01*
X296000D01*
Y216250D01*
D02*
G37*
G36*
X457243Y210250D02*
X457000D01*
Y205000D01*
X462250D01*
Y205243D01*
X461298Y207540D01*
X459540Y209298D01*
X457243Y210250D01*
D02*
G37*
G36*
X455000D02*
X454757D01*
X452460Y209298D01*
X450701Y207540D01*
X449750Y205243D01*
Y205000D01*
X455000D01*
Y210250D01*
D02*
G37*
G36*
X303250Y209000D02*
X298000D01*
Y203750D01*
X298243D01*
X300540Y204701D01*
X302299Y206460D01*
X303250Y208757D01*
Y209000D01*
D02*
G37*
G36*
X296000D02*
X290750D01*
Y208757D01*
X291702Y206460D01*
X293460Y204701D01*
X295757Y203750D01*
X296000D01*
Y209000D01*
D02*
G37*
G36*
X411243Y208250D02*
X411000D01*
Y203000D01*
X416250D01*
Y203243D01*
X415299Y205540D01*
X413540Y207299D01*
X411243Y208250D01*
D02*
G37*
G36*
X409000D02*
X408757D01*
X406460Y207299D01*
X404701Y205540D01*
X403750Y203243D01*
Y203000D01*
X409000D01*
Y208250D01*
D02*
G37*
G36*
X462250Y203000D02*
X457000D01*
Y197750D01*
X457243D01*
X459540Y198701D01*
X461298Y200460D01*
X462250Y202757D01*
Y203000D01*
D02*
G37*
G36*
X455000D02*
X449750D01*
Y202757D01*
X450701Y200460D01*
X452460Y198701D01*
X454757Y197750D01*
X455000D01*
Y203000D01*
D02*
G37*
G36*
X416250Y201000D02*
X411000D01*
Y195750D01*
X411243D01*
X413540Y196702D01*
X415299Y198460D01*
X416250Y200757D01*
Y201000D01*
D02*
G37*
G36*
X409000D02*
X403750D01*
Y200757D01*
X404701Y198460D01*
X406460Y196702D01*
X408757Y195750D01*
X409000D01*
Y201000D01*
D02*
G37*
G36*
X433743Y198750D02*
X433500D01*
Y193500D01*
X438750D01*
Y193743D01*
X437799Y196040D01*
X436040Y197799D01*
X433743Y198750D01*
D02*
G37*
G36*
X438750Y191500D02*
X433500D01*
Y186250D01*
X433743D01*
X436040Y187201D01*
X437799Y188960D01*
X438750Y191257D01*
Y191500D01*
D02*
G37*
G36*
X441500Y280500D02*
X408500D01*
Y265500D01*
X421528D01*
Y247233D01*
X420088Y246402D01*
X418598Y244912D01*
X417545Y243088D01*
X417000Y241053D01*
Y238947D01*
X417545Y236912D01*
X418598Y235088D01*
X420088Y233598D01*
X421451Y232811D01*
Y192582D01*
X419743Y191875D01*
X418125Y190257D01*
X417250Y188144D01*
Y185856D01*
X418125Y183743D01*
X419743Y182125D01*
X421856Y181250D01*
X424144D01*
X426257Y182125D01*
X427875Y183743D01*
X428750Y185856D01*
Y185914D01*
X430020Y186762D01*
X431257Y186250D01*
X431500D01*
Y192500D01*
Y198750D01*
X431257D01*
X428960Y197799D01*
X427819Y196658D01*
X426549Y197184D01*
Y232133D01*
X428088Y232545D01*
X429912Y233598D01*
X431402Y235088D01*
X432455Y236912D01*
X433000Y238947D01*
Y241053D01*
X432455Y243088D01*
X431402Y244912D01*
X429912Y246402D01*
X428472Y247233D01*
Y265500D01*
X441500D01*
Y280500D01*
D02*
G37*
G36*
X506053Y248000D02*
X503947D01*
X501912Y247455D01*
X500088Y246402D01*
X498598Y244912D01*
X497545Y243088D01*
X497000Y241053D01*
Y238947D01*
X497545Y236912D01*
X498598Y235088D01*
X500088Y233598D01*
X501912Y232545D01*
X502451Y232401D01*
Y174977D01*
X501181Y174451D01*
X500757Y174875D01*
X498644Y175750D01*
X496356D01*
X494243Y174875D01*
X493330Y173961D01*
X492500Y173350D01*
X491670Y173961D01*
X490757Y174875D01*
X488644Y175750D01*
X486356D01*
X484243Y174875D01*
X482625Y173257D01*
X481750Y171144D01*
Y168856D01*
X482625Y166743D01*
X484243Y165125D01*
X484951Y164832D01*
Y87668D01*
X484243Y87375D01*
X482625Y85757D01*
X481750Y83644D01*
Y81356D01*
X482625Y79243D01*
X484243Y77625D01*
X486356Y76750D01*
X488644D01*
X490757Y77625D01*
X492375Y79243D01*
X493250Y81356D01*
Y83644D01*
X492375Y85757D01*
X490757Y87375D01*
X490049Y87668D01*
Y107523D01*
X491319Y108049D01*
X491743Y107625D01*
X493856Y106750D01*
X495626D01*
X496356Y106356D01*
X496750Y105626D01*
Y103856D01*
X497625Y101743D01*
X499243Y100125D01*
X501356Y99250D01*
X503644D01*
X505757Y100125D01*
X507375Y101743D01*
X508250Y103856D01*
Y106144D01*
X507375Y108257D01*
X505757Y109875D01*
X505049Y110168D01*
Y146953D01*
X506222Y147439D01*
X506460Y147201D01*
X508757Y146250D01*
X509000D01*
Y152500D01*
Y158750D01*
X508757D01*
X508200Y158519D01*
X507956Y158697D01*
X507355Y159541D01*
X507549Y160516D01*
Y232401D01*
X508088Y232545D01*
X509912Y233598D01*
X511402Y235088D01*
X512455Y236912D01*
X513000Y238947D01*
Y241053D01*
X512455Y243088D01*
X511402Y244912D01*
X509912Y246402D01*
X508088Y247455D01*
X506053Y248000D01*
D02*
G37*
G36*
X278500Y185500D02*
X245500D01*
Y170500D01*
X278500D01*
X279564Y170002D01*
X279982Y168993D01*
X281599Y167375D01*
X283713Y166500D01*
X286000D01*
X288113Y167375D01*
X289731Y168993D01*
X290606Y171106D01*
Y173394D01*
X289731Y175507D01*
X288113Y177125D01*
X286000Y178000D01*
X283713D01*
X283004Y177707D01*
X280909Y179802D01*
X280082Y180355D01*
X279106Y180549D01*
X278500D01*
Y185500D01*
D02*
G37*
G36*
X414243Y171250D02*
X414000D01*
Y166000D01*
X419250D01*
Y166243D01*
X418298Y168540D01*
X416540Y170299D01*
X414243Y171250D01*
D02*
G37*
G36*
X412000D02*
X411757D01*
X409460Y170299D01*
X407701Y168540D01*
X406750Y166243D01*
Y166000D01*
X412000D01*
Y171250D01*
D02*
G37*
G36*
X419250Y164000D02*
X414000D01*
Y158750D01*
X414243D01*
X416540Y159701D01*
X418298Y161460D01*
X419250Y163757D01*
Y164000D01*
D02*
G37*
G36*
X412000D02*
X406750D01*
Y163757D01*
X407701Y161460D01*
X409460Y159701D01*
X411757Y158750D01*
X412000D01*
Y164000D01*
D02*
G37*
G36*
X511243Y158750D02*
X511000D01*
Y153500D01*
X516250D01*
Y153743D01*
X515299Y156040D01*
X513540Y157799D01*
X511243Y158750D01*
D02*
G37*
G36*
X516250Y151500D02*
X511000D01*
Y146250D01*
X511243D01*
X513540Y147201D01*
X515299Y148960D01*
X516250Y151257D01*
Y151500D01*
D02*
G37*
G36*
X278500Y158000D02*
X245500D01*
Y143000D01*
X278500D01*
Y147451D01*
X279832D01*
X280125Y146743D01*
X281743Y145125D01*
X283856Y144250D01*
X286144D01*
X288257Y145125D01*
X289875Y146743D01*
X290750Y148856D01*
Y151144D01*
X289875Y153257D01*
X288257Y154875D01*
X286144Y155750D01*
X283856D01*
X281743Y154875D01*
X280125Y153257D01*
X279832Y152549D01*
X278500D01*
Y158000D01*
D02*
G37*
G36*
X148051Y154500D02*
X145549D01*
X143133Y153853D01*
X140967Y152602D01*
X139198Y150833D01*
X137948Y148667D01*
X137300Y146251D01*
Y143749D01*
X137948Y141333D01*
X138526Y140331D01*
X130698Y132502D01*
X130145Y131676D01*
X129951Y130700D01*
Y127080D01*
X128681Y126554D01*
X127633Y127602D01*
X125467Y128853D01*
X123051Y129500D01*
X120549D01*
X118133Y128853D01*
X115967Y127602D01*
X114198Y125833D01*
X112947Y123667D01*
X112300Y121251D01*
Y118749D01*
X112947Y116333D01*
X114198Y114167D01*
X115967Y112398D01*
X118133Y111147D01*
X120549Y110500D01*
X123051D01*
X125467Y111147D01*
X127633Y112398D01*
X128681Y113446D01*
X129951Y112920D01*
Y102080D01*
X128681Y101554D01*
X127633Y102602D01*
X125467Y103853D01*
X123051Y104500D01*
X120549D01*
X118133Y103853D01*
X115967Y102602D01*
X114198Y100833D01*
X112947Y98667D01*
X112300Y96251D01*
Y93749D01*
X112947Y91333D01*
X114198Y89167D01*
X115967Y87398D01*
X118133Y86147D01*
X120549Y85500D01*
X123051D01*
X125334Y86112D01*
X129474Y81972D01*
Y65191D01*
X128766Y64898D01*
X127148Y63280D01*
X126273Y61167D01*
Y58879D01*
X127148Y56766D01*
X128766Y55148D01*
X130879Y54273D01*
X133167D01*
X135280Y55148D01*
X136898Y56766D01*
X137773Y58879D01*
Y61167D01*
X136898Y63280D01*
X135280Y64898D01*
X134572Y65191D01*
Y80164D01*
X135745Y80650D01*
X146451Y69944D01*
Y28168D01*
X145743Y27875D01*
X144125Y26257D01*
X143250Y24144D01*
Y21856D01*
X144125Y19743D01*
X145743Y18125D01*
X147856Y17250D01*
X149748D01*
X150492Y16426D01*
X150638Y16080D01*
X150250Y15144D01*
Y12856D01*
X151125Y10743D01*
X152743Y9125D01*
X154856Y8250D01*
X157144D01*
X159257Y9125D01*
X160875Y10743D01*
X161750Y12856D01*
Y15144D01*
X160875Y17257D01*
X159257Y18875D01*
X158549Y19168D01*
Y70000D01*
X158355Y70975D01*
X157802Y71802D01*
X145251Y84353D01*
X145901Y85500D01*
X148051D01*
X150467Y86147D01*
X152633Y87398D01*
X154402Y89167D01*
X155653Y91333D01*
X155952Y92451D01*
X172500D01*
Y68500D01*
X187500D01*
Y101500D01*
X172500D01*
Y97549D01*
X155952D01*
X155653Y98667D01*
X154402Y100833D01*
X152633Y102602D01*
X150467Y103853D01*
X148051Y104500D01*
X145549D01*
X143133Y103853D01*
X140967Y102602D01*
X139819Y101454D01*
X138549Y101980D01*
Y108144D01*
X142131Y111726D01*
X143133Y111147D01*
X145549Y110500D01*
X148051D01*
X150467Y111147D01*
X152633Y112398D01*
X154402Y114167D01*
X155653Y116333D01*
X156300Y118749D01*
Y121251D01*
X155653Y123667D01*
X154402Y125833D01*
X152633Y127602D01*
X150467Y128853D01*
X148051Y129500D01*
X145549D01*
X143133Y128853D01*
X140967Y127602D01*
X139198Y125833D01*
X137948Y123667D01*
X137300Y121251D01*
Y118749D01*
X137948Y116333D01*
X138526Y115331D01*
X136222Y113027D01*
X135049Y113513D01*
Y129644D01*
X142131Y136726D01*
X143133Y136147D01*
X145549Y135500D01*
X148051D01*
X150467Y136147D01*
X152633Y137398D01*
X154402Y139167D01*
X155653Y141333D01*
X156300Y143749D01*
Y146251D01*
X155653Y148667D01*
X154402Y150833D01*
X152633Y152602D01*
X150467Y153853D01*
X148051Y154500D01*
D02*
G37*
G36*
X123051D02*
X120549D01*
X118133Y153853D01*
X115967Y152602D01*
X114198Y150833D01*
X112947Y148667D01*
X112300Y146251D01*
Y143749D01*
X112947Y141333D01*
X114198Y139167D01*
X115967Y137398D01*
X118133Y136147D01*
X120549Y135500D01*
X123051D01*
X125467Y136147D01*
X127633Y137398D01*
X129402Y139167D01*
X130653Y141333D01*
X131300Y143749D01*
Y146251D01*
X130653Y148667D01*
X129402Y150833D01*
X127633Y152602D01*
X125467Y153853D01*
X123051Y154500D01*
D02*
G37*
G36*
X51251D02*
X48749D01*
X46333Y153853D01*
X44167Y152602D01*
X42398Y150833D01*
X41147Y148667D01*
X40500Y146251D01*
Y143749D01*
X41147Y141333D01*
X42398Y139167D01*
X44167Y137398D01*
X46333Y136147D01*
X48749Y135500D01*
X51251D01*
X53667Y136147D01*
X55833Y137398D01*
X57602Y139167D01*
X58853Y141333D01*
X59500Y143749D01*
Y146251D01*
X58853Y148667D01*
X57602Y150833D01*
X55833Y152602D01*
X53667Y153853D01*
X51251Y154500D01*
D02*
G37*
G36*
X403243Y134250D02*
X403000D01*
Y129000D01*
X408250D01*
Y129243D01*
X407299Y131540D01*
X405540Y133299D01*
X403243Y134250D01*
D02*
G37*
G36*
X436243Y129250D02*
X436000D01*
Y124000D01*
X441250D01*
Y124243D01*
X440299Y126540D01*
X438540Y128299D01*
X436243Y129250D01*
D02*
G37*
G36*
X279144Y134750D02*
X276856D01*
X274743Y133875D01*
X273125Y132257D01*
X272250Y130144D01*
Y127856D01*
X272543Y127148D01*
X253198Y107802D01*
X252645Y106975D01*
X252451Y106000D01*
Y101500D01*
X247500D01*
Y68500D01*
X262500D01*
Y101500D01*
X257549D01*
Y104944D01*
X276148Y123543D01*
X276856Y123250D01*
X279144D01*
X281257Y124125D01*
X282875Y125743D01*
X283750Y127856D01*
Y130144D01*
X282875Y132257D01*
X281257Y133875D01*
X279144Y134750D01*
D02*
G37*
G36*
X441250Y122000D02*
X436000D01*
Y116750D01*
X436243D01*
X438540Y117702D01*
X440299Y119460D01*
X441250Y121757D01*
Y122000D01*
D02*
G37*
G36*
X437500Y176500D02*
X422500D01*
Y143500D01*
X427451D01*
Y140056D01*
X423198Y135802D01*
X422645Y134975D01*
X422451Y134000D01*
Y125168D01*
X421743Y124875D01*
X420125Y123257D01*
X419250Y121144D01*
Y118856D01*
X420125Y116743D01*
X421743Y115125D01*
X423856Y114250D01*
X426144D01*
X428257Y115125D01*
X429875Y116743D01*
X430182Y117486D01*
X431125Y117673D01*
X431619Y117635D01*
X433757Y116750D01*
X434000D01*
Y123000D01*
Y129250D01*
X433757D01*
X431460Y128299D01*
X429701Y126540D01*
X429477Y125998D01*
X427917Y125551D01*
X427549Y125813D01*
Y132944D01*
X431802Y137198D01*
X432355Y138025D01*
X432549Y139000D01*
Y143500D01*
X437500D01*
Y176500D01*
D02*
G37*
G36*
X433743Y108750D02*
X433500D01*
Y103500D01*
X438750D01*
Y103743D01*
X437799Y106040D01*
X436040Y107799D01*
X433743Y108750D01*
D02*
G37*
G36*
X431500D02*
X431257D01*
X428960Y107799D01*
X427201Y106040D01*
X426250Y103743D01*
Y103500D01*
X431500D01*
Y108750D01*
D02*
G37*
G36*
X438750Y101500D02*
X433500D01*
Y96250D01*
X433743D01*
X436040Y97201D01*
X437799Y98960D01*
X438750Y101257D01*
Y101500D01*
D02*
G37*
G36*
X431500D02*
X426250D01*
Y101257D01*
X427201Y98960D01*
X428960Y97201D01*
X431257Y96250D01*
X431500D01*
Y101500D01*
D02*
G37*
G36*
X528743Y98750D02*
X528500D01*
Y93500D01*
X533750D01*
Y93743D01*
X532799Y96040D01*
X531040Y97799D01*
X528743Y98750D01*
D02*
G37*
G36*
X526500D02*
X526257D01*
X523960Y97799D01*
X522201Y96040D01*
X521250Y93743D01*
Y93500D01*
X526500D01*
Y98750D01*
D02*
G37*
G36*
X313243Y95250D02*
X313000D01*
Y90000D01*
X318250D01*
Y90243D01*
X317299Y92540D01*
X315540Y94298D01*
X313243Y95250D01*
D02*
G37*
G36*
X311000D02*
X310757D01*
X308460Y94298D01*
X306702Y92540D01*
X305750Y90243D01*
Y90000D01*
X311000D01*
Y95250D01*
D02*
G37*
G36*
X533750Y91500D02*
X528500D01*
Y86250D01*
X528743D01*
X531040Y87201D01*
X532799Y88960D01*
X533750Y91257D01*
Y91500D01*
D02*
G37*
G36*
X526500D02*
X521250D01*
Y91257D01*
X522201Y88960D01*
X523960Y87201D01*
X526257Y86250D01*
X526500D01*
Y91500D01*
D02*
G37*
G36*
X213000Y102000D02*
X206000D01*
Y86000D01*
X213000D01*
Y102000D01*
D02*
G37*
G36*
X204000D02*
X197000D01*
Y86000D01*
X204000D01*
Y102000D01*
D02*
G37*
G36*
X50000Y105332D02*
X47520Y105006D01*
X45209Y104048D01*
X43225Y102525D01*
X41702Y100541D01*
X40745Y98230D01*
X40418Y95750D01*
Y94250D01*
X40745Y91770D01*
X41702Y89459D01*
X43225Y87474D01*
X45209Y85952D01*
X47520Y84994D01*
X50000Y84668D01*
X52480Y84994D01*
X54791Y85952D01*
X56775Y87474D01*
X58298Y89459D01*
X59255Y91770D01*
X59582Y94250D01*
Y95750D01*
X59255Y98230D01*
X58298Y100541D01*
X56775Y102525D01*
X54791Y104048D01*
X52480Y105006D01*
X50000Y105332D01*
D02*
G37*
G36*
X318250Y88000D02*
X313000D01*
Y82750D01*
X313243D01*
X315540Y83701D01*
X317299Y85460D01*
X318250Y87757D01*
Y88000D01*
D02*
G37*
G36*
X311000D02*
X305750D01*
Y87757D01*
X306702Y85460D01*
X308460Y83701D01*
X310757Y82750D01*
X311000D01*
Y88000D01*
D02*
G37*
G36*
X52000Y76549D02*
X24000D01*
X23025Y76355D01*
X22198Y75802D01*
X18852Y72457D01*
X18144Y72750D01*
X15856D01*
X13743Y71875D01*
X12125Y70257D01*
X11250Y68144D01*
Y65856D01*
X12125Y63743D01*
X13743Y62125D01*
X15856Y61250D01*
X18144D01*
X20257Y62125D01*
X21875Y63743D01*
X22750Y65856D01*
Y68144D01*
X22457Y68852D01*
X25056Y71451D01*
X50944D01*
X59198Y63198D01*
X60025Y62645D01*
X61000Y62451D01*
X79832D01*
X80125Y61743D01*
X81743Y60125D01*
X83856Y59250D01*
X86144D01*
X88257Y60125D01*
X89875Y61743D01*
X90750Y63856D01*
Y66144D01*
X89875Y68257D01*
X88257Y69875D01*
X86144Y70750D01*
X83856D01*
X81743Y69875D01*
X80125Y68257D01*
X79832Y67549D01*
X62056D01*
X53802Y75802D01*
X52976Y76355D01*
X52000Y76549D01*
D02*
G37*
G36*
X231144Y166750D02*
X228856D01*
X226743Y165875D01*
X225125Y164257D01*
X224250Y162144D01*
Y159856D01*
X225125Y157743D01*
X226743Y156125D01*
X227451Y155832D01*
Y101500D01*
X222500D01*
Y68500D01*
X237500D01*
Y101500D01*
X232549D01*
Y155832D01*
X233257Y156125D01*
X234875Y157743D01*
X235750Y159856D01*
Y162144D01*
X234875Y164257D01*
X233257Y165875D01*
X231144Y166750D01*
D02*
G37*
G36*
X213000Y84000D02*
X206000D01*
Y68000D01*
X213000D01*
Y84000D01*
D02*
G37*
G36*
X204000D02*
X197000D01*
Y68000D01*
X204000D01*
Y84000D01*
D02*
G37*
G36*
X220243Y66250D02*
X220000D01*
Y61000D01*
X225250D01*
Y61243D01*
X224298Y63540D01*
X222540Y65299D01*
X220243Y66250D01*
D02*
G37*
G36*
X218000D02*
X217757D01*
X215460Y65299D01*
X213701Y63540D01*
X212750Y61243D01*
Y61000D01*
X218000D01*
Y66250D01*
D02*
G37*
G36*
X476144Y155750D02*
X473856D01*
X471743Y154875D01*
X470125Y153257D01*
X469250Y151144D01*
Y148856D01*
X470125Y146743D01*
X471743Y145125D01*
X472451Y144832D01*
Y60168D01*
X471743Y59875D01*
X470125Y58257D01*
X469832Y57549D01*
X467500D01*
Y77500D01*
X452500D01*
Y44500D01*
X467500D01*
Y52451D01*
X469832D01*
X470125Y51743D01*
X471743Y50125D01*
X473856Y49250D01*
X476144D01*
X478257Y50125D01*
X479875Y51743D01*
X480750Y53856D01*
Y56144D01*
X479875Y58257D01*
X478257Y59875D01*
X477549Y60168D01*
Y144832D01*
X478257Y145125D01*
X479875Y146743D01*
X480750Y148856D01*
Y151144D01*
X479875Y153257D01*
X478257Y154875D01*
X476144Y155750D01*
D02*
G37*
G36*
X329500Y345500D02*
X314500D01*
Y312500D01*
X319451D01*
Y304168D01*
X318743Y303875D01*
X317125Y302257D01*
X316250Y300144D01*
Y297856D01*
X317125Y295743D01*
X318743Y294125D01*
X319451Y293832D01*
Y227000D01*
X319645Y226024D01*
X320198Y225198D01*
X338451Y206944D01*
Y156168D01*
X337743Y155875D01*
X336125Y154257D01*
X335250Y152144D01*
Y149856D01*
X336125Y147743D01*
X337743Y146125D01*
X338451Y145832D01*
Y73000D01*
X338645Y72024D01*
X339198Y71198D01*
X346543Y63852D01*
X346250Y63144D01*
Y60856D01*
X347125Y58743D01*
X348743Y57125D01*
X350856Y56250D01*
X353144D01*
X355257Y57125D01*
X356875Y58743D01*
X357750Y60856D01*
Y63144D01*
X356875Y65257D01*
X355257Y66875D01*
X353144Y67750D01*
X350856D01*
X350148Y67457D01*
X343549Y74056D01*
Y145832D01*
X344257Y146125D01*
X345875Y147743D01*
X346750Y149856D01*
Y152144D01*
X345875Y154257D01*
X344257Y155875D01*
X343549Y156168D01*
Y208000D01*
X343355Y208976D01*
X342802Y209802D01*
X324549Y228056D01*
Y293832D01*
X325257Y294125D01*
X326875Y295743D01*
X327750Y297856D01*
Y300144D01*
X326875Y302257D01*
X325257Y303875D01*
X324549Y304168D01*
Y312500D01*
X329500D01*
Y345500D01*
D02*
G37*
G36*
X225250Y59000D02*
X220000D01*
Y53750D01*
X220243D01*
X222540Y54701D01*
X224298Y56460D01*
X225250Y58757D01*
Y59000D01*
D02*
G37*
G36*
X218000D02*
X212750D01*
Y58757D01*
X213701Y56460D01*
X215460Y54701D01*
X217757Y53750D01*
X218000D01*
Y59000D01*
D02*
G37*
G36*
X531800Y69715D02*
X490700D01*
Y46400D01*
X531800D01*
Y69715D01*
D02*
G37*
G36*
X71243Y21250D02*
X71000D01*
Y16000D01*
X76250D01*
Y16243D01*
X75299Y18540D01*
X73540Y20299D01*
X71243Y21250D01*
D02*
G37*
G36*
X69000D02*
X68757D01*
X66460Y20299D01*
X64701Y18540D01*
X63750Y16243D01*
Y16000D01*
X69000D01*
Y21250D01*
D02*
G37*
G36*
X526053Y28000D02*
X523947D01*
X521912Y27455D01*
X520088Y26402D01*
X518598Y24912D01*
X517545Y23088D01*
X517000Y21053D01*
Y18947D01*
X517545Y16912D01*
X518598Y15088D01*
X520088Y13598D01*
X521912Y12545D01*
X523947Y12000D01*
X526053D01*
X528088Y12545D01*
X529912Y13598D01*
X531402Y15088D01*
X532455Y16912D01*
X533000Y18947D01*
Y21053D01*
X532455Y23088D01*
X531402Y24912D01*
X529912Y26402D01*
X528088Y27455D01*
X526053Y28000D01*
D02*
G37*
G36*
X506053D02*
X503947D01*
X501912Y27455D01*
X500088Y26402D01*
X498598Y24912D01*
X497545Y23088D01*
X497000Y21053D01*
Y18947D01*
X497545Y16912D01*
X498598Y15088D01*
X500088Y13598D01*
X501912Y12545D01*
X503947Y12000D01*
X506053D01*
X508088Y12545D01*
X509912Y13598D01*
X511402Y15088D01*
X512455Y16912D01*
X513000Y18947D01*
Y21053D01*
X512455Y23088D01*
X511402Y24912D01*
X509912Y26402D01*
X508088Y27455D01*
X506053Y28000D01*
D02*
G37*
G36*
X486053D02*
X483947D01*
X481912Y27455D01*
X480088Y26402D01*
X478598Y24912D01*
X477545Y23088D01*
X477000Y21053D01*
Y18947D01*
X477545Y16912D01*
X478598Y15088D01*
X480088Y13598D01*
X481912Y12545D01*
X483947Y12000D01*
X486053D01*
X488088Y12545D01*
X489912Y13598D01*
X491402Y15088D01*
X492455Y16912D01*
X493000Y18947D01*
Y21053D01*
X492455Y23088D01*
X491402Y24912D01*
X489912Y26402D01*
X488088Y27455D01*
X486053Y28000D01*
D02*
G37*
G36*
X466053D02*
X463947D01*
X461912Y27455D01*
X460088Y26402D01*
X458598Y24912D01*
X457545Y23088D01*
X457000Y21053D01*
Y18947D01*
X457545Y16912D01*
X458598Y15088D01*
X460088Y13598D01*
X461912Y12545D01*
X463947Y12000D01*
X466053D01*
X468088Y12545D01*
X469912Y13598D01*
X471402Y15088D01*
X472455Y16912D01*
X473000Y18947D01*
Y21053D01*
X472455Y23088D01*
X471402Y24912D01*
X469912Y26402D01*
X468088Y27455D01*
X466053Y28000D01*
D02*
G37*
G36*
X446053D02*
X443947D01*
X441912Y27455D01*
X440088Y26402D01*
X438598Y24912D01*
X437545Y23088D01*
X437000Y21053D01*
Y18947D01*
X437545Y16912D01*
X438598Y15088D01*
X440088Y13598D01*
X441912Y12545D01*
X443947Y12000D01*
X446053D01*
X448088Y12545D01*
X449912Y13598D01*
X451402Y15088D01*
X452455Y16912D01*
X453000Y18947D01*
Y21053D01*
X452455Y23088D01*
X451402Y24912D01*
X449912Y26402D01*
X448088Y27455D01*
X446053Y28000D01*
D02*
G37*
G36*
X426053D02*
X423947D01*
X421912Y27455D01*
X420088Y26402D01*
X418598Y24912D01*
X417545Y23088D01*
X417000Y21053D01*
Y18947D01*
X417545Y16912D01*
X418598Y15088D01*
X420088Y13598D01*
X421912Y12545D01*
X423947Y12000D01*
X426053D01*
X428088Y12545D01*
X429912Y13598D01*
X431402Y15088D01*
X432455Y16912D01*
X433000Y18947D01*
Y21053D01*
X432455Y23088D01*
X431402Y24912D01*
X429912Y26402D01*
X428088Y27455D01*
X426053Y28000D01*
D02*
G37*
G36*
X406053D02*
X403947D01*
X401912Y27455D01*
X400088Y26402D01*
X398598Y24912D01*
X397545Y23088D01*
X397000Y21053D01*
Y18947D01*
X397545Y16912D01*
X398598Y15088D01*
X400088Y13598D01*
X401912Y12545D01*
X403947Y12000D01*
X406053D01*
X408088Y12545D01*
X409912Y13598D01*
X411402Y15088D01*
X412455Y16912D01*
X413000Y18947D01*
Y21053D01*
X412455Y23088D01*
X411402Y24912D01*
X409912Y26402D01*
X408088Y27455D01*
X406053Y28000D01*
D02*
G37*
G36*
X386053D02*
X383947D01*
X381912Y27455D01*
X380088Y26402D01*
X378598Y24912D01*
X377545Y23088D01*
X377000Y21053D01*
Y18947D01*
X377545Y16912D01*
X378598Y15088D01*
X380088Y13598D01*
X381912Y12545D01*
X383947Y12000D01*
X386053D01*
X388088Y12545D01*
X389912Y13598D01*
X391402Y15088D01*
X392455Y16912D01*
X393000Y18947D01*
Y21053D01*
X392455Y23088D01*
X391402Y24912D01*
X389912Y26402D01*
X388088Y27455D01*
X386053Y28000D01*
D02*
G37*
G36*
X366053D02*
X363947D01*
X361912Y27455D01*
X360088Y26402D01*
X358598Y24912D01*
X357545Y23088D01*
X357000Y21053D01*
Y18947D01*
X357545Y16912D01*
X358598Y15088D01*
X360088Y13598D01*
X361912Y12545D01*
X363947Y12000D01*
X366053D01*
X368088Y12545D01*
X369912Y13598D01*
X371402Y15088D01*
X372455Y16912D01*
X373000Y18947D01*
Y21053D01*
X372455Y23088D01*
X371402Y24912D01*
X369912Y26402D01*
X368088Y27455D01*
X366053Y28000D01*
D02*
G37*
G36*
X348250Y28093D02*
X341750D01*
X339897Y27724D01*
X338325Y26675D01*
X337276Y25103D01*
X336907Y23250D01*
Y16750D01*
X337276Y14897D01*
X338325Y13325D01*
X339897Y12276D01*
X341750Y11907D01*
X348250D01*
X350103Y12276D01*
X351675Y13325D01*
X352724Y14897D01*
X353093Y16750D01*
Y23250D01*
X352724Y25103D01*
X351675Y26675D01*
X350103Y27724D01*
X348250Y28093D01*
D02*
G37*
G36*
X76250Y14000D02*
X71000D01*
Y8750D01*
X71243D01*
X73540Y9701D01*
X75299Y11460D01*
X76250Y13757D01*
Y14000D01*
D02*
G37*
G36*
X69000D02*
X63750D01*
Y13757D01*
X64701Y11460D01*
X66460Y9701D01*
X68757Y8750D01*
X69000D01*
Y14000D01*
D02*
G37*
G36*
X37282Y64000D02*
X32718D01*
X28209Y63286D01*
X23868Y61875D01*
X19801Y59803D01*
X16108Y57120D01*
X12880Y53892D01*
X10197Y50199D01*
X8125Y46132D01*
X6714Y41791D01*
X6000Y37282D01*
Y32718D01*
X6714Y28209D01*
X8125Y23868D01*
X10197Y19801D01*
X12880Y16108D01*
X16108Y12880D01*
X19801Y10197D01*
X23868Y8125D01*
X28209Y6714D01*
X32718Y6000D01*
X37282D01*
X41791Y6714D01*
X46132Y8125D01*
X50199Y10197D01*
X53892Y12880D01*
X57120Y16108D01*
X59803Y19801D01*
X61875Y23868D01*
X63286Y28209D01*
X64000Y32718D01*
Y37282D01*
X63286Y41791D01*
X61875Y46132D01*
X59803Y50199D01*
X57120Y53892D01*
X53892Y57120D01*
X50199Y59803D01*
X46132Y61875D01*
X41791Y63286D01*
X37282Y64000D01*
D02*
G37*
%LPD*%
G36*
X493330Y166039D02*
X494243Y165125D01*
X494951Y164832D01*
Y118250D01*
X493856D01*
X491743Y117375D01*
X491319Y116951D01*
X490049Y117477D01*
Y164832D01*
X490757Y165125D01*
X491670Y166039D01*
X492500Y166650D01*
X493330Y166039D01*
D02*
G37*
D11*
X395000Y95000D02*
X402000Y88000D01*
X395000Y289000D02*
X404000Y298000D01*
X395000Y95000D02*
Y289000D01*
X352000Y82000D02*
Y226000D01*
X355000Y229000D01*
X341000Y73000D02*
X352000Y62000D01*
X341000Y73000D02*
Y208000D01*
X230000Y85000D02*
Y161000D01*
X262000Y178000D02*
X279106D01*
X284856Y172250D01*
X413000Y299000D02*
X419000Y305000D01*
X404000Y299000D02*
X413000D01*
X271000D02*
Y329000D01*
X355000Y281000D02*
X373000Y299000D01*
X355000Y229000D02*
Y281000D01*
X322000Y299000D02*
Y329000D01*
Y227000D02*
Y299000D01*
Y227000D02*
X341000Y208000D01*
X455000Y220000D02*
Y303000D01*
X462334Y307334D02*
X475000Y320000D01*
X455000Y303000D02*
X456586D01*
X460919Y307334D02*
X462334D01*
X456586Y303000D02*
X460919Y307334D01*
X460000Y60000D02*
Y61000D01*
Y60000D02*
X465000Y55000D01*
X475000D01*
X132023Y60023D02*
Y83027D01*
X121800Y93250D02*
X132023Y83027D01*
X121800Y93250D02*
Y95000D01*
X423000Y187000D02*
X424000Y188000D01*
Y239000D02*
X425000Y240000D01*
X424000Y188000D02*
Y239000D01*
X430000Y139000D02*
Y160000D01*
X425000Y134000D02*
X430000Y139000D01*
X425000Y120000D02*
Y134000D01*
X149000Y23000D02*
Y71000D01*
X132500Y87500D02*
X149000Y71000D01*
X156000Y14000D02*
Y70000D01*
X136000Y90000D02*
X156000Y70000D01*
X24000Y74000D02*
X52000D01*
X17000Y67000D02*
X24000Y74000D01*
X61000Y65000D02*
X85000D01*
X52000Y74000D02*
X61000Y65000D01*
X132500Y87500D02*
Y130700D01*
X136000Y90000D02*
Y109200D01*
X146800Y120000D01*
X132500Y130700D02*
X146800Y145000D01*
X419000Y305000D02*
Y324000D01*
X262500Y150000D02*
X285000D01*
X262000Y150500D02*
X262500Y150000D01*
X175000Y95000D02*
X180000Y90000D01*
Y85000D02*
Y90000D01*
X146800Y95000D02*
X175000D01*
X255000Y85000D02*
Y106000D01*
X278000Y129000D01*
X502500Y105000D02*
Y158016D01*
X505000Y160516D01*
Y240000D01*
X475000Y320000D02*
Y329000D01*
X419000Y324000D02*
X424000Y329000D01*
X373000Y299000D02*
Y329250D01*
X373250Y329500D01*
X55000Y255000D02*
X110000D01*
X410410Y75957D02*
Y119590D01*
Y75957D02*
X410821Y75547D01*
X410000Y120000D02*
X410410Y119590D01*
X475000Y55000D02*
Y150000D01*
X487500Y82500D02*
Y170000D01*
X495000Y112500D02*
X497500Y115000D01*
Y170000D01*
D14*
X527760Y50440D02*
X517603D01*
X527760Y60597D01*
Y63136D01*
X525221Y65675D01*
X520143D01*
X517603Y63136D01*
D39*
X345000Y240000D02*
D03*
X365000D02*
D03*
X385000D02*
D03*
X505000D02*
D03*
X485000D02*
D03*
X465000D02*
D03*
X445000D02*
D03*
X425000D02*
D03*
X405000D02*
D03*
X525000Y20000D02*
D03*
X505000D02*
D03*
X485000D02*
D03*
X365000D02*
D03*
X385000D02*
D03*
X405000D02*
D03*
X425000D02*
D03*
X445000D02*
D03*
X465000D02*
D03*
D40*
X525000Y240000D02*
D03*
X345000Y20000D02*
D03*
D41*
X35000Y35000D02*
D03*
Y340000D02*
D03*
D42*
X146800Y95000D02*
D03*
Y120000D02*
D03*
Y145000D02*
D03*
X121800Y95000D02*
D03*
Y120000D02*
D03*
Y145000D02*
D03*
D43*
X50000D02*
D03*
Y95000D02*
D03*
D44*
X402000Y128000D02*
D03*
X352000Y62000D02*
D03*
X284856Y172250D02*
D03*
X297000Y210000D02*
D03*
X341000Y151000D02*
D03*
X271000Y299000D02*
D03*
X404000D02*
D03*
X438000Y361000D02*
D03*
X387000D02*
D03*
X336000D02*
D03*
X455000Y303000D02*
D03*
Y220000D02*
D03*
X402000Y88000D02*
D03*
X132023Y60023D02*
D03*
X312000Y89000D02*
D03*
X225000Y305000D02*
D03*
X245000Y265000D02*
D03*
X205000Y345000D02*
D03*
X185000Y305000D02*
D03*
X165000Y345000D02*
D03*
X145000Y305000D02*
D03*
X413000Y165000D02*
D03*
X219000Y60000D02*
D03*
X501000Y352000D02*
D03*
X456000Y204000D02*
D03*
X410000Y202000D02*
D03*
X423000Y187000D02*
D03*
X425000Y120000D02*
D03*
X230000Y161000D02*
D03*
X17000Y67000D02*
D03*
X85000Y65000D02*
D03*
X149000Y23000D02*
D03*
X156000Y14000D02*
D03*
X285000Y150000D02*
D03*
X352000Y82000D02*
D03*
X278000Y129000D02*
D03*
X502500Y105000D02*
D03*
X373000Y299000D02*
D03*
X322000D02*
D03*
X435000Y123000D02*
D03*
X432500Y102500D02*
D03*
X70000Y15000D02*
D03*
X110000Y255000D02*
D03*
X55000D02*
D03*
X410821Y75547D02*
D03*
X410000Y120000D02*
D03*
X474110Y226653D02*
D03*
X487500Y82500D02*
D03*
Y170000D02*
D03*
X475000Y55000D02*
D03*
Y150000D02*
D03*
X495000Y112500D02*
D03*
X497500Y170000D02*
D03*
X432500Y192500D02*
D03*
X527500Y92500D02*
D03*
X510000Y152500D02*
D03*
X517500Y222500D02*
D03*
D45*
X385000Y262000D02*
D03*
D49*
X262000Y178000D02*
D03*
Y150500D02*
D03*
X425000Y273000D02*
D03*
D50*
X322000Y329000D02*
D03*
X271000D02*
D03*
X460000Y61000D02*
D03*
X430000Y160000D02*
D03*
X373250Y329500D02*
D03*
X475000Y329000D02*
D03*
X424000D02*
D03*
X230000Y85000D02*
D03*
X205000D02*
D03*
X180000D02*
D03*
X255000Y85000D02*
D03*
D51*
X425000Y240000D02*
Y273000D01*
M02*
