G04*
G04 #@! TF.GenerationSoftware,Altium Limited,Altium Designer,24.1.2 (44)*
G04*
G04 Layer_Physical_Order=1*
G04 Layer_Color=255*
%FSLAX44Y44*%
%MOMM*%
G71*
G04*
G04 #@! TF.SameCoordinates,8940CB7B-32E8-470A-AB05-D825E909EC58*
G04*
G04*
G04 #@! TF.FilePolarity,Positive*
G04*
G01*
G75*
%ADD11C,0.2000*%
%ADD12C,0.1500*%
%ADD14C,0.2540*%
%ADD17R,0.8000X2.0000*%
%ADD18R,0.6000X0.7000*%
%ADD19R,0.7500X0.6000*%
%ADD20R,0.7000X0.6000*%
%ADD21R,2.5000X1.3000*%
%ADD22R,0.6250X0.8300*%
%ADD23R,0.6000X0.6400*%
%ADD24O,1.6000X0.3500*%
%ADD25R,0.9000X0.8000*%
%ADD26R,0.6000X0.7500*%
%ADD27R,0.5500X0.5400*%
%ADD28R,3.2000X1.6000*%
%ADD29R,0.5400X0.5500*%
%ADD30R,1.8000X1.3000*%
%ADD31R,2.6700X2.5400*%
%ADD32R,0.7620X1.2700*%
%ADD33O,1.5500X0.6000*%
%ADD34O,0.4500X1.4000*%
%ADD35R,0.8000X0.9000*%
%ADD36O,0.3500X1.6000*%
%ADD37R,1.0000X1.5500*%
%ADD38R,0.7500X0.8500*%
%ADD39C,1.3000*%
G04:AMPARAMS|DCode=40|XSize=1.3mm|YSize=1.3mm|CornerRadius=0.325mm|HoleSize=0mm|Usage=FLASHONLY|Rotation=180.000|XOffset=0mm|YOffset=0mm|HoleType=Round|Shape=RoundedRectangle|*
%AMROUNDEDRECTD40*
21,1,1.3000,0.6500,0,0,180.0*
21,1,0.6500,1.3000,0,0,180.0*
1,1,0.6500,-0.3250,0.3250*
1,1,0.6500,0.3250,0.3250*
1,1,0.6500,0.3250,-0.3250*
1,1,0.6500,-0.3250,-0.3250*
%
%ADD40ROUNDEDRECTD40*%
%ADD41C,5.5000*%
%ADD42C,1.6000*%
%ADD43C,1.0000*%
%ADD44C,0.8500*%
%ADD45C,1.2700*%
%ADD46C,0.3048*%
%ADD47C,0.6000*%
%ADD48C,1.0000*%
G36*
X250000Y357000D02*
X244000D01*
Y353000D01*
X249500D01*
Y351000D01*
X244000D01*
Y347000D01*
X250000D01*
Y326605D01*
X249698Y326302D01*
X249145Y325476D01*
X248951Y324500D01*
Y324000D01*
X247000D01*
Y314000D01*
X248951D01*
Y304500D01*
X249145Y303524D01*
X249698Y302698D01*
X250000Y302395D01*
Y270498D01*
X248827Y270012D01*
X248540Y270298D01*
X246243Y271250D01*
X246000D01*
Y265000D01*
Y258750D01*
X246243D01*
X247456Y259252D01*
X248176Y258176D01*
X205000Y215000D01*
X187500D01*
Y218500D01*
X182500D01*
Y219500D01*
X181500D01*
Y225000D01*
X177500D01*
X177000Y226063D01*
Y235000D01*
X166624D01*
Y262593D01*
X167500Y263500D01*
X202500D01*
Y282500D01*
X167500D01*
X166624Y283407D01*
Y295000D01*
X166148Y296148D01*
X165000Y296624D01*
X130000D01*
X128852Y296148D01*
X128376Y295000D01*
X125000D01*
Y370922D01*
X167000D01*
Y363000D01*
X185000D01*
X203000D01*
Y370922D01*
X250000D01*
Y357000D01*
D02*
G37*
G36*
X165000Y235000D02*
X125000D01*
Y245000D01*
X135000D01*
X140000Y250000D01*
Y265000D01*
X130350D01*
Y292200D01*
X130000D01*
Y295000D01*
X165000D01*
Y235000D01*
D02*
G37*
G36*
X35000Y370922D02*
X123376D01*
Y362549D01*
X115650D01*
Y364200D01*
X108350D01*
Y364700D01*
X104600D01*
Y360000D01*
Y355300D01*
X108350D01*
Y355800D01*
X115650D01*
Y357451D01*
X123376D01*
Y350049D01*
X115650D01*
Y351700D01*
X108350D01*
Y352200D01*
X104600D01*
Y347500D01*
Y342800D01*
X108350D01*
Y343300D01*
X115650D01*
Y344951D01*
X123376D01*
Y337549D01*
X115650D01*
Y339200D01*
X108350D01*
Y339700D01*
X104600D01*
Y335000D01*
Y330300D01*
X108350D01*
Y330800D01*
X115650D01*
Y332451D01*
X123376D01*
Y295000D01*
X123852Y293852D01*
X125000Y293376D01*
X128025D01*
X128125Y292936D01*
X127164Y291700D01*
X100150D01*
Y263300D01*
X129850D01*
Y263300D01*
X130112Y263475D01*
X130350Y263376D01*
X138376D01*
Y257549D01*
X133150D01*
Y259200D01*
X116850D01*
Y257549D01*
X115168D01*
X114875Y258257D01*
X113257Y259875D01*
X111144Y260750D01*
X108856D01*
X106743Y259875D01*
X105125Y258257D01*
X104250Y256144D01*
Y253856D01*
X105125Y251743D01*
X106743Y250125D01*
X108856Y249250D01*
X111144D01*
X113257Y250125D01*
X114875Y251743D01*
X115168Y252451D01*
X116850D01*
Y250800D01*
X133150D01*
Y252451D01*
X138376D01*
Y250672D01*
X134327Y246624D01*
X125000D01*
X123852Y246148D01*
X123376Y245000D01*
Y243638D01*
X104750D01*
X102994Y243289D01*
X101506Y242294D01*
X100511Y240806D01*
X100162Y239050D01*
X100511Y237294D01*
X101506Y235806D01*
X102994Y234811D01*
X104750Y234462D01*
X123599D01*
X123852Y233852D01*
X125000Y233376D01*
X165000D01*
X165812Y233713D01*
X166624Y233376D01*
X175376D01*
Y226114D01*
X175345Y226020D01*
X174756Y225230D01*
X174443Y225022D01*
X174374Y225000D01*
X171000D01*
Y219500D01*
X170000D01*
Y218500D01*
X165000D01*
Y214000D01*
X165500D01*
Y209105D01*
X162775Y206380D01*
X161700Y207101D01*
X161700Y208016D01*
Y214150D01*
X162200D01*
Y217900D01*
X157500D01*
Y218900D01*
X156500D01*
Y223650D01*
X152800D01*
Y218464D01*
X151627Y217978D01*
X150802Y218802D01*
X149976Y219355D01*
X149500Y219450D01*
Y224500D01*
X140500D01*
Y213649D01*
X138262D01*
X137200Y214150D01*
Y217900D01*
X132500D01*
X127800D01*
Y214150D01*
X126779Y213549D01*
X123056D01*
X121152Y215452D01*
X120325Y216005D01*
X119350Y216199D01*
X117959D01*
X117494Y216894D01*
X116006Y217889D01*
X114250Y218238D01*
X104750D01*
X102994Y217889D01*
X101506Y216894D01*
X100511Y215406D01*
X100162Y213650D01*
X100511Y211894D01*
X101506Y210406D01*
X102994Y209411D01*
X104750Y209062D01*
X114250D01*
X116006Y209411D01*
X117494Y210406D01*
X119009Y210386D01*
X120198Y209198D01*
X121025Y208645D01*
X122000Y208451D01*
X128300D01*
Y206850D01*
X136700D01*
Y208551D01*
X140500D01*
Y205500D01*
X149500D01*
Y211236D01*
X150673Y211722D01*
X153198Y209198D01*
X153300Y209129D01*
Y206850D01*
X160457D01*
X161449Y206850D01*
X162170Y205775D01*
X159894Y203499D01*
X117959D01*
X117494Y204194D01*
X116006Y205189D01*
X114250Y205538D01*
X104750D01*
X102994Y205189D01*
X101506Y204194D01*
X100511Y202706D01*
X100162Y200950D01*
X100511Y199194D01*
X101506Y197706D01*
X102994Y196711D01*
X104750Y196362D01*
X114250D01*
X116006Y196711D01*
X117494Y197706D01*
X117959Y198401D01*
X160950D01*
X161926Y198595D01*
X162752Y199148D01*
X169105Y205500D01*
X174500D01*
Y207951D01*
X178000D01*
Y205500D01*
X187000D01*
Y213042D01*
X187500Y213376D01*
X205000D01*
X206148Y213852D01*
X249324Y257028D01*
X249505Y257465D01*
X249768Y257859D01*
X249736Y258022D01*
X249799Y258176D01*
X249618Y258613D01*
X249526Y259078D01*
X248806Y260154D01*
X248760Y260628D01*
X249875Y261743D01*
X250750Y263856D01*
Y266144D01*
X249875Y268257D01*
X249968Y268727D01*
X250621Y268998D01*
X250850Y269226D01*
X251148Y269350D01*
X251272Y269648D01*
X251500Y269877D01*
Y270200D01*
X251624Y270498D01*
Y299112D01*
X252797Y299598D01*
X255198Y297198D01*
X256025Y296645D01*
X257000Y296451D01*
X265832D01*
X266125Y295743D01*
X267743Y294125D01*
X269856Y293250D01*
X272144D01*
X272145Y293250D01*
X287198Y278198D01*
X288025Y277645D01*
X289000Y277451D01*
X409944D01*
X425198Y262198D01*
X426025Y261645D01*
X427000Y261451D01*
X479944D01*
X497824Y243571D01*
X497545Y243088D01*
X497000Y241053D01*
Y238947D01*
X497545Y236912D01*
X498598Y235088D01*
X500088Y233598D01*
X501417Y232831D01*
Y212000D01*
X500500D01*
Y203000D01*
X500840D01*
X501917Y202500D01*
X502151Y201320D01*
X502820Y200320D01*
X504796Y198344D01*
X504823Y198279D01*
X504761Y198008D01*
X503518Y197311D01*
X502250Y197564D01*
X500982Y197311D01*
X499907Y196593D01*
X499764Y196379D01*
X498236D01*
X498093Y196593D01*
X497018Y197311D01*
X495750Y197564D01*
X494482Y197311D01*
X493407Y196593D01*
X493264Y196379D01*
X492671D01*
X491512Y197037D01*
X491318Y198012D01*
X490765Y198839D01*
X487875Y201730D01*
X487900Y202038D01*
X488296Y203000D01*
X489500D01*
Y212000D01*
X488583D01*
Y232831D01*
X489912Y233598D01*
X491402Y235088D01*
X492455Y236912D01*
X493000Y238947D01*
Y241053D01*
X492455Y243088D01*
X491402Y244912D01*
X489912Y246402D01*
X488088Y247455D01*
X486053Y248000D01*
X483947D01*
X481912Y247455D01*
X480088Y246402D01*
X478598Y244912D01*
X477545Y243088D01*
X477000Y241053D01*
Y238947D01*
X477545Y236912D01*
X478598Y235088D01*
X480088Y233598D01*
X481912Y232545D01*
X482417Y232410D01*
Y212000D01*
X477083D01*
Y221660D01*
X477367Y221778D01*
X478984Y223396D01*
X479860Y225509D01*
Y227796D01*
X478984Y229910D01*
X477367Y231527D01*
X475254Y232403D01*
X472966D01*
X470853Y231527D01*
X469235Y229910D01*
X468360Y227796D01*
Y225509D01*
X469235Y223396D01*
X470853Y221778D01*
X470917Y221752D01*
Y212000D01*
X470500D01*
Y206764D01*
X469327Y206278D01*
X466671Y208934D01*
Y210878D01*
X466477Y211854D01*
X465924Y212680D01*
X460457Y218148D01*
X460750Y218856D01*
Y221144D01*
X459875Y223257D01*
X458257Y224875D01*
X456144Y225750D01*
X453856D01*
X451743Y224875D01*
X450125Y223257D01*
X449250Y221144D01*
Y218856D01*
X450125Y216743D01*
X451743Y215125D01*
X453856Y214250D01*
X456144D01*
X456852Y214543D01*
X461573Y209822D01*
Y208355D01*
X460338Y207794D01*
X459257Y208875D01*
X457144Y209750D01*
X454856D01*
X452743Y208875D01*
X451125Y207257D01*
X450250Y205144D01*
Y202856D01*
X451125Y200743D01*
X451534Y200334D01*
X451152Y198921D01*
X450399Y198695D01*
X449750Y199000D01*
X449687Y199000D01*
X444750D01*
Y192500D01*
Y186000D01*
X449687D01*
X449750Y186000D01*
X450813Y186500D01*
X451020Y186500D01*
X461750D01*
Y189417D01*
X466436D01*
Y181750D01*
X466522Y181319D01*
X465567Y180049D01*
X465130D01*
X465130Y180049D01*
X461250D01*
Y183250D01*
X450750D01*
Y171750D01*
X453701D01*
Y167200D01*
X450600D01*
Y167700D01*
X446600D01*
Y162500D01*
Y157300D01*
X450600D01*
Y157300D01*
X451851Y157254D01*
Y154246D01*
X450600Y154200D01*
Y154200D01*
X446600D01*
Y149000D01*
Y143800D01*
X450600D01*
Y144300D01*
X458900D01*
Y153700D01*
X456949D01*
Y157800D01*
X458900D01*
Y167200D01*
X458799D01*
Y171750D01*
X461250D01*
Y174951D01*
X465130D01*
X465130Y174951D01*
X472000D01*
X472976Y175145D01*
X473802Y175698D01*
X476614Y178509D01*
X477518Y178689D01*
X478456Y179315D01*
X478593Y179407D01*
X479963Y179171D01*
X480047Y179046D01*
X481287Y178218D01*
X481750Y178125D01*
Y188000D01*
X483750D01*
Y178125D01*
X484213Y178218D01*
X485454Y179046D01*
X486701Y178627D01*
Y175750D01*
X486356D01*
X484243Y174875D01*
X482625Y173257D01*
X481750Y171144D01*
Y168856D01*
X482625Y166743D01*
X484243Y165125D01*
X486356Y164250D01*
X488644D01*
X490757Y165125D01*
X491670Y166039D01*
X492500Y166650D01*
X493330Y166039D01*
X494243Y165125D01*
X496356Y164250D01*
X498644D01*
X500757Y165125D01*
X502375Y166743D01*
X503250Y168856D01*
Y170594D01*
X504520Y171120D01*
X515820Y159820D01*
X515820Y159820D01*
X516820Y159151D01*
X518000Y158917D01*
X525500D01*
Y153083D01*
X515750D01*
Y153644D01*
X514875Y155757D01*
X513257Y157375D01*
X511144Y158250D01*
X508856D01*
X506743Y157375D01*
X505125Y155757D01*
X504250Y153644D01*
Y151356D01*
X505125Y149243D01*
X506743Y147625D01*
X508317Y146973D01*
X508700Y145632D01*
X508689Y145549D01*
X506570Y143430D01*
X505901Y142430D01*
X505782Y141827D01*
X504522Y141304D01*
X504421Y141309D01*
X503713Y141782D01*
X503250Y141875D01*
Y132000D01*
Y122126D01*
X503713Y122218D01*
X504397Y122674D01*
X505667Y122002D01*
Y119302D01*
X505667Y119302D01*
X505901Y118122D01*
X506570Y117122D01*
X510917Y112775D01*
Y110750D01*
X508750D01*
Y108255D01*
X507480Y108003D01*
X507375Y108257D01*
X505757Y109875D01*
X503644Y110750D01*
X501874D01*
X501144Y111144D01*
X500750Y111874D01*
Y113644D01*
X499875Y115757D01*
X498257Y117375D01*
X496144Y118250D01*
X493856D01*
X491743Y117375D01*
X490125Y115757D01*
X489936Y115299D01*
X481563D01*
X481077Y116472D01*
X484552Y119948D01*
X485105Y120775D01*
X485299Y121750D01*
Y122517D01*
X485718Y122900D01*
X486907Y123407D01*
X487982Y122689D01*
X489250Y122436D01*
X490518Y122689D01*
X491593Y123407D01*
X491736Y123621D01*
X493264D01*
X493407Y123407D01*
X494482Y122689D01*
X495750Y122436D01*
X497018Y122689D01*
X497956Y123315D01*
X498093Y123407D01*
X499463Y123171D01*
X499547Y123046D01*
X500787Y122218D01*
X501250Y122126D01*
Y132000D01*
Y141875D01*
X500787Y141782D01*
X499547Y140954D01*
X499463Y140829D01*
X498093Y140593D01*
X497956Y140685D01*
X497018Y141311D01*
X495750Y141564D01*
X494482Y141311D01*
X493407Y140593D01*
X493264Y140379D01*
X491736D01*
X491593Y140593D01*
X490518Y141311D01*
X489250Y141564D01*
X487982Y141311D01*
X486907Y140593D01*
X486764Y140379D01*
X485236D01*
X485093Y140593D01*
X484018Y141311D01*
X482750Y141564D01*
X481482Y141311D01*
X480407Y140593D01*
X480264Y140379D01*
X478736D01*
X478593Y140593D01*
X477518Y141311D01*
X476250Y141564D01*
X474982Y141311D01*
X473907Y140593D01*
X472718Y141100D01*
X472299Y141483D01*
Y143694D01*
X473148Y144543D01*
X473856Y144250D01*
X476144D01*
X478257Y145125D01*
X479875Y146743D01*
X480750Y148856D01*
Y151144D01*
X479875Y153257D01*
X478257Y154875D01*
X476144Y155750D01*
X473856D01*
X471743Y154875D01*
X470125Y153257D01*
X469250Y151144D01*
Y148856D01*
X469543Y148148D01*
X467948Y146552D01*
X467395Y145725D01*
X467201Y144750D01*
Y140285D01*
X466689Y139518D01*
X466436Y138250D01*
Y134828D01*
X465263Y134342D01*
X461802Y137802D01*
X460975Y138355D01*
X460000Y138549D01*
X459500D01*
Y140500D01*
X440500D01*
Y138549D01*
X439395D01*
X438420Y138355D01*
X437593Y137802D01*
X433198Y133407D01*
X432645Y132580D01*
X432451Y131605D01*
Y128168D01*
X431743Y127875D01*
X430125Y126257D01*
X429699Y125229D01*
X428257Y124875D01*
X426144Y125750D01*
X423856D01*
X421743Y124875D01*
X420125Y123257D01*
X419250Y121144D01*
Y118856D01*
X420125Y116743D01*
X420396Y116472D01*
X419910Y115299D01*
X415090D01*
X414604Y116472D01*
X414875Y116743D01*
X415750Y118856D01*
Y121144D01*
X414875Y123257D01*
X413257Y124875D01*
X411144Y125750D01*
X408856D01*
X408501Y125603D01*
X407603Y126501D01*
X407750Y126856D01*
Y129144D01*
X406875Y131257D01*
X405257Y132875D01*
X403144Y133750D01*
X400856D01*
X398743Y132875D01*
X397125Y131257D01*
X396250Y129144D01*
Y126856D01*
X397125Y124743D01*
X398743Y123125D01*
X399451Y122832D01*
Y119056D01*
X394694Y114299D01*
X393000D01*
Y116980D01*
X393000Y117187D01*
X393500Y118250D01*
X393500Y118313D01*
Y123250D01*
X380500D01*
Y118313D01*
X380500Y118250D01*
X381000Y117187D01*
X381000Y116980D01*
Y107549D01*
X373649D01*
X372970Y108819D01*
X373282Y109287D01*
X373573Y110750D01*
Y120250D01*
X373282Y121713D01*
X372454Y122954D01*
X371213Y123782D01*
X369750Y124073D01*
X368287Y123782D01*
X367046Y122954D01*
X365953D01*
X364713Y123782D01*
X363250Y124073D01*
X361787Y123782D01*
X360546Y122954D01*
X359431Y123570D01*
X358408Y124253D01*
X357750Y124384D01*
Y115500D01*
Y106616D01*
X358408Y106747D01*
X359431Y107430D01*
X360546Y108046D01*
X361787Y107218D01*
X363250Y106926D01*
X364713Y107218D01*
X365953Y108046D01*
X366258Y108021D01*
X367201Y107627D01*
Y106250D01*
X367395Y105274D01*
X367948Y104448D01*
X368576Y103819D01*
X368050Y102549D01*
X326056D01*
X317549Y111056D01*
Y127000D01*
X317355Y127976D01*
X316802Y128802D01*
X304802Y140802D01*
X303976Y141355D01*
X303000Y141549D01*
X292000D01*
X291024Y141355D01*
X290198Y140802D01*
X285198Y135802D01*
X284645Y134976D01*
X284451Y134000D01*
Y131770D01*
X283181Y131517D01*
X282875Y132257D01*
X281257Y133875D01*
X279144Y134750D01*
X276856D01*
X274743Y133875D01*
X273125Y132257D01*
X272250Y130144D01*
Y127856D01*
X273125Y125743D01*
X274743Y124125D01*
X276856Y123250D01*
X279144D01*
X281257Y124125D01*
X282875Y125743D01*
X282961Y125951D01*
X284451D01*
Y124056D01*
X266444Y106049D01*
X256000D01*
Y108000D01*
X246000D01*
Y106583D01*
X244500D01*
X244500Y106583D01*
X243320Y106348D01*
X242320Y105680D01*
X242320Y105680D01*
X239770Y103130D01*
X238500Y103500D01*
Y103500D01*
X230000D01*
Y104000D01*
X225500D01*
Y99000D01*
Y94000D01*
X230000D01*
Y94500D01*
X238500D01*
Y95917D01*
X240000D01*
X240000Y95917D01*
X241180Y96152D01*
X242180Y96820D01*
X244730Y99370D01*
X246000Y99000D01*
Y99000D01*
X256000D01*
Y100951D01*
X267500D01*
X267811Y101013D01*
X268645Y99976D01*
X268451Y99000D01*
Y98500D01*
X266000D01*
Y89500D01*
X268451D01*
Y89000D01*
X268645Y88025D01*
X269198Y87198D01*
X272698Y83698D01*
X273525Y83145D01*
X274500Y82951D01*
X280500D01*
Y71549D01*
X275000D01*
Y73500D01*
X264770D01*
X264500Y73500D01*
X263500D01*
X263230Y73500D01*
X253000D01*
Y71549D01*
X228000D01*
X227024Y71355D01*
X226198Y70802D01*
X220852Y65457D01*
X220144Y65750D01*
X217856D01*
X215743Y64875D01*
X214125Y63257D01*
X213250Y61144D01*
Y58856D01*
X214125Y56743D01*
X215743Y55125D01*
X217856Y54250D01*
X220144D01*
X222257Y55125D01*
X223875Y56743D01*
X224750Y58856D01*
Y61144D01*
X224457Y61852D01*
X229056Y66451D01*
X253000D01*
Y64500D01*
X263230D01*
X263500Y64500D01*
X264500D01*
X264770Y64500D01*
X275000D01*
Y66451D01*
X283000D01*
X283975Y66645D01*
X284802Y67198D01*
X286802Y69198D01*
X287355Y70025D01*
X287549Y71000D01*
Y71500D01*
X289500D01*
Y80500D01*
Y90500D01*
X280500D01*
Y88049D01*
X276538D01*
X276327Y88365D01*
X276000Y89500D01*
X276000D01*
Y98500D01*
X275764D01*
X275278Y99673D01*
X282077Y106472D01*
X283250Y105986D01*
Y97350D01*
X292500D01*
Y100451D01*
X296944D01*
X306543Y90852D01*
X306250Y90144D01*
Y87856D01*
X307125Y85743D01*
X308743Y84125D01*
X310856Y83250D01*
X313144D01*
X315257Y84125D01*
X316875Y85743D01*
X317750Y87856D01*
Y90144D01*
X316875Y92257D01*
X315257Y93875D01*
X313144Y94750D01*
X310856D01*
X310148Y94457D01*
X308428Y96177D01*
X308914Y97350D01*
X314750D01*
Y104986D01*
X315923Y105472D01*
X323198Y98198D01*
X324025Y97645D01*
X325000Y97451D01*
X362290D01*
X362969Y96181D01*
X362693Y95768D01*
X362440Y94500D01*
X362693Y93231D01*
X363411Y92156D01*
X363625Y92013D01*
Y90486D01*
X363411Y90343D01*
X362693Y89268D01*
X362440Y88000D01*
X362693Y86732D01*
X363411Y85656D01*
X363487Y85606D01*
X363102Y84336D01*
X357256D01*
X356875Y85257D01*
X355257Y86875D01*
X353144Y87750D01*
X350856D01*
X348743Y86875D01*
X347125Y85257D01*
X346250Y83144D01*
Y80856D01*
X347125Y78743D01*
X348743Y77125D01*
X349451Y76832D01*
Y75000D01*
X349645Y74025D01*
X350198Y73198D01*
X355067Y68328D01*
X354348Y67251D01*
X353144Y67750D01*
X350856D01*
X348743Y66875D01*
X347125Y65257D01*
X346250Y63144D01*
Y60856D01*
X347125Y58743D01*
X348743Y57125D01*
X350856Y56250D01*
X353144D01*
X355257Y57125D01*
X356875Y58743D01*
X357168Y59451D01*
X362632D01*
X363050Y58203D01*
X362222Y56963D01*
X362130Y56500D01*
X372004D01*
X381879D01*
X381786Y56963D01*
X380958Y58203D01*
X380833Y58286D01*
X380597Y59657D01*
X380689Y59794D01*
X381315Y60732D01*
X381568Y62000D01*
X381315Y63268D01*
X380597Y64343D01*
X380383Y64486D01*
Y66013D01*
X380597Y66157D01*
X381315Y67231D01*
X381568Y68500D01*
X381315Y69768D01*
X380597Y70843D01*
X381104Y72031D01*
X381487Y72451D01*
X392945D01*
X405198Y60197D01*
X411698Y53697D01*
X412525Y53145D01*
X413500Y52951D01*
X419719D01*
X420486Y52438D01*
X421754Y52186D01*
X434254D01*
X435522Y52438D01*
X435915Y52701D01*
X469729D01*
X470125Y51743D01*
X471743Y50125D01*
X473856Y49250D01*
X476144D01*
X478257Y50125D01*
X479875Y51743D01*
X480750Y53856D01*
Y56144D01*
X479875Y58257D01*
X478257Y59875D01*
X476144Y60750D01*
X473856D01*
X471743Y59875D01*
X470125Y58257D01*
X469936Y57799D01*
X436627D01*
X436597Y57843D01*
X436383Y57986D01*
Y59513D01*
X436597Y59657D01*
X437315Y60732D01*
X437568Y62000D01*
X437315Y63268D01*
X436597Y64343D01*
X436383Y64486D01*
Y66013D01*
X436597Y66157D01*
X437315Y67231D01*
X437568Y68500D01*
X437315Y69768D01*
X436597Y70843D01*
X436383Y70986D01*
Y72513D01*
X436597Y72656D01*
X437315Y73731D01*
X437568Y75000D01*
X437315Y76268D01*
X436597Y77343D01*
X437104Y78531D01*
X437487Y78951D01*
X482918D01*
X484243Y77625D01*
X486356Y76750D01*
X488644D01*
X490757Y77625D01*
X492375Y79243D01*
X493250Y81356D01*
Y83644D01*
X492375Y85757D01*
X490757Y87375D01*
X488644Y88250D01*
X486356D01*
X484243Y87375D01*
X482625Y85757D01*
X481918Y84049D01*
X437487D01*
X437104Y84468D01*
X436597Y85656D01*
X437315Y86732D01*
X437568Y88000D01*
X437315Y89268D01*
X436597Y90343D01*
X437104Y91531D01*
X437487Y91951D01*
X440750D01*
Y89000D01*
X451480D01*
X451687Y89000D01*
X452750Y88500D01*
X452813Y88500D01*
X457750D01*
Y95000D01*
Y101500D01*
X452813D01*
X452750Y101500D01*
X451687Y101000D01*
X451480Y101000D01*
X443855D01*
X441552Y103302D01*
X440726Y103855D01*
X439750Y104049D01*
X438082D01*
X437510Y105431D01*
X438090Y106701D01*
X462042D01*
X465545Y103198D01*
X466372Y102645D01*
X467348Y102451D01*
X497332D01*
X497625Y101743D01*
X499243Y100125D01*
X501356Y99250D01*
X503644D01*
X505757Y100125D01*
X507375Y101743D01*
X507480Y101997D01*
X508750Y101745D01*
Y99250D01*
X519250D01*
Y110750D01*
X517083D01*
Y114052D01*
X517083Y114052D01*
X516848Y115232D01*
X516180Y116232D01*
X516180Y116232D01*
X511833Y120579D01*
Y122002D01*
X513103Y122674D01*
X513787Y122218D01*
X514250Y122126D01*
Y132000D01*
X515250D01*
Y133000D01*
X519073D01*
Y138020D01*
X519624Y138402D01*
X520301Y138589D01*
X524000Y134890D01*
Y128520D01*
X524000Y128313D01*
X523500Y127250D01*
X523500Y127187D01*
Y122250D01*
X530000D01*
X536500D01*
Y127187D01*
X536500Y127250D01*
X536000Y128313D01*
X536000Y128520D01*
Y139250D01*
X528360D01*
X521964Y145647D01*
X522490Y146917D01*
X525500D01*
Y146500D01*
X534500D01*
Y155500D01*
Y165500D01*
X525500D01*
Y165083D01*
X519277D01*
X506630Y177731D01*
X507439Y178717D01*
X507482Y178689D01*
X508750Y178436D01*
X510018Y178689D01*
X511093Y179407D01*
X511236Y179621D01*
X512764D01*
X512907Y179407D01*
X513982Y178689D01*
X515250Y178436D01*
X516518Y178689D01*
X517593Y179407D01*
X518312Y180482D01*
X518564Y181750D01*
Y193081D01*
X519899Y194417D01*
X525500D01*
Y186000D01*
X525000D01*
Y181500D01*
X530000D01*
X535000D01*
Y186000D01*
X534500D01*
Y194500D01*
X534160D01*
X533083Y195000D01*
X532849Y196180D01*
X532180Y197180D01*
X529680Y199680D01*
X528680Y200348D01*
X527500Y200583D01*
X527500Y200583D01*
X518623D01*
X518622Y200583D01*
X517443Y200348D01*
X516442Y199680D01*
X516442Y199680D01*
X514096Y197334D01*
X513982Y197311D01*
X513017Y196667D01*
X512485Y196793D01*
X511747Y197143D01*
Y198836D01*
X511747Y198836D01*
X511512Y200016D01*
X510844Y201017D01*
X510034Y201827D01*
X510520Y203000D01*
X519500D01*
Y206923D01*
X519599Y207070D01*
X519833Y208250D01*
Y217243D01*
X520757Y217625D01*
X522375Y219243D01*
X523250Y221356D01*
Y223644D01*
X523740Y224376D01*
X540000Y224376D01*
X541148Y224852D01*
X541624Y226000D01*
Y255000D01*
X541148Y256148D01*
X540000Y256624D01*
X526624D01*
Y258153D01*
X527750Y258500D01*
X527894Y258500D01*
X532750D01*
Y265000D01*
Y271500D01*
X527894D01*
X527750Y271500D01*
X526624Y271847D01*
Y274041D01*
X526650Y275300D01*
X527797Y275300D01*
X530400D01*
Y280000D01*
Y284700D01*
X527797D01*
X526650Y284700D01*
X526624Y285959D01*
Y292000D01*
X526148Y293148D01*
X525000Y293624D01*
X494500D01*
X493352Y293148D01*
X492876Y292000D01*
X466000D01*
Y276000D01*
X492876D01*
X493352Y274852D01*
X494500Y274376D01*
X501376D01*
Y249024D01*
X500508Y248486D01*
X500203Y248402D01*
X482802Y265802D01*
X481975Y266355D01*
X481000Y266549D01*
X428056D01*
X412802Y281802D01*
X411976Y282355D01*
X411000Y282549D01*
X290056D01*
X276164Y296441D01*
X276750Y297856D01*
Y300144D01*
X275875Y302257D01*
X274257Y303875D01*
X272144Y304750D01*
X269856D01*
X267743Y303875D01*
X266125Y302257D01*
X265832Y301549D01*
X258056D01*
X254049Y305556D01*
Y314000D01*
X256000D01*
Y324000D01*
X256000D01*
X255591Y324987D01*
X257056Y326451D01*
X281500D01*
Y324000D01*
X290500D01*
Y332500D01*
X291000D01*
Y337000D01*
X281000D01*
Y332500D01*
X280230Y331549D01*
X256000D01*
X255025Y331355D01*
X254198Y330802D01*
X252797Y329402D01*
X251624Y329888D01*
Y347000D01*
X251958Y347500D01*
X255451D01*
Y347000D01*
X255645Y346025D01*
X256198Y345198D01*
X256500Y344000D01*
X256500D01*
X256500Y344000D01*
Y334000D01*
X265500D01*
Y344000D01*
X263549D01*
X263355Y344976D01*
X262802Y345802D01*
X262278Y346327D01*
X262764Y347500D01*
X263500D01*
Y349451D01*
X268250D01*
Y347500D01*
X278187D01*
X279250Y347000D01*
X279813Y347000D01*
X284000D01*
Y352000D01*
Y357000D01*
X279250D01*
X278187Y356500D01*
X277980D01*
X268250D01*
Y354549D01*
X263500D01*
Y356500D01*
X251958D01*
X251624Y357000D01*
Y370922D01*
X550376D01*
Y4078D01*
X171289D01*
X170904Y5348D01*
X171052Y5448D01*
X174292Y8687D01*
X175500Y9000D01*
Y9000D01*
X175500Y9000D01*
X184500D01*
Y19500D01*
X184500D01*
Y20500D01*
X184500D01*
Y23201D01*
X236194D01*
X241198Y18198D01*
X242025Y17645D01*
X243000Y17451D01*
X250500D01*
Y10750D01*
X263500D01*
Y29250D01*
X250500D01*
Y22549D01*
X244056D01*
X239052Y27552D01*
X238225Y28105D01*
X237250Y28299D01*
X237361Y29523D01*
X237976Y29645D01*
X238802Y30198D01*
X249327Y40722D01*
X250500Y40236D01*
Y35750D01*
X263500D01*
Y51236D01*
X264673Y51722D01*
X267451Y48944D01*
Y24000D01*
X267645Y23025D01*
X268198Y22198D01*
X272198Y18198D01*
X273025Y17645D01*
X274000Y17451D01*
X276500D01*
Y10750D01*
X289500D01*
Y29250D01*
X276500D01*
Y22549D01*
X275056D01*
X272549Y25056D01*
Y50000D01*
X272355Y50975D01*
X271802Y51802D01*
X264802Y58802D01*
X263976Y59355D01*
X263000Y59549D01*
X250000D01*
X249025Y59355D01*
X248198Y58802D01*
X228944Y39549D01*
X156102D01*
X137480Y58171D01*
X137773Y58879D01*
Y61167D01*
X136898Y63280D01*
X135280Y64898D01*
X133167Y65773D01*
X130879D01*
X128766Y64898D01*
X127148Y63280D01*
X126408Y61493D01*
X125100Y61005D01*
X119302Y66802D01*
X118476Y67355D01*
X117500Y67549D01*
X114500D01*
Y69500D01*
X106000D01*
Y70000D01*
X101500D01*
Y65000D01*
X100500D01*
D01*
X101500D01*
Y60000D01*
X106000D01*
Y60500D01*
X114500D01*
Y62451D01*
X116444D01*
X137451Y41444D01*
Y31000D01*
X135500D01*
Y20770D01*
X135500Y20500D01*
X135500D01*
Y19500D01*
X135500D01*
Y14049D01*
X132535D01*
X131560Y13855D01*
X130770Y13327D01*
X130214Y13433D01*
X129500Y13729D01*
Y19230D01*
X129500Y19500D01*
Y20500D01*
X129500Y20770D01*
Y31000D01*
X127549D01*
Y37500D01*
X127355Y38475D01*
X126802Y39302D01*
X119302Y46802D01*
X118476Y47355D01*
X117500Y47549D01*
X117000D01*
Y54250D01*
X104000D01*
Y35750D01*
X117000D01*
Y40236D01*
X118173Y40722D01*
X122451Y36444D01*
Y31000D01*
X120500D01*
Y20770D01*
X120500Y20500D01*
Y19500D01*
X120500Y19230D01*
Y16799D01*
X94306D01*
X76859Y34245D01*
X77651Y35250D01*
X78707Y35250D01*
X83500D01*
Y44000D01*
X77500D01*
Y36511D01*
X77500Y35401D01*
X76495Y34609D01*
X75049Y36056D01*
Y74376D01*
X160000D01*
X161148Y74852D01*
X161624Y76000D01*
Y82706D01*
X184000D01*
X184878Y82881D01*
X185622Y83378D01*
X207950Y105706D01*
X238000D01*
X238878Y105881D01*
X239622Y106378D01*
X244622Y111378D01*
X245119Y112122D01*
X245294Y113000D01*
Y113500D01*
X248500D01*
Y136500D01*
X237500D01*
Y113500D01*
X238596D01*
X239082Y112327D01*
X237050Y110294D01*
X207000D01*
X206122Y110119D01*
X205378Y109622D01*
X187673Y91918D01*
X186500Y92404D01*
Y94000D01*
X180750D01*
Y95000D01*
X179750D01*
Y100000D01*
X175000D01*
Y100000D01*
X174500Y99500D01*
X164000D01*
Y97549D01*
X161624D01*
Y105451D01*
X164000D01*
Y103500D01*
X173937D01*
X175000Y103000D01*
Y103000D01*
X175000Y103000D01*
X179750D01*
Y108000D01*
X180750D01*
Y109000D01*
X186500D01*
Y111951D01*
X203500D01*
X204475Y112145D01*
X205302Y112698D01*
X211056Y118451D01*
X215500D01*
Y113500D01*
X226500D01*
Y136500D01*
X215500D01*
Y123549D01*
X210000D01*
X209025Y123355D01*
X208198Y122802D01*
X202444Y117049D01*
X186500D01*
Y120000D01*
X180750D01*
Y121000D01*
X179750D01*
Y126000D01*
X175000D01*
Y126000D01*
X174500Y125500D01*
X164000D01*
Y123549D01*
X155684D01*
X155653Y123667D01*
X154402Y125833D01*
X152633Y127602D01*
X150467Y128853D01*
X148051Y129500D01*
X145549D01*
X143133Y128853D01*
X140967Y127602D01*
X139198Y125833D01*
X137948Y123667D01*
X137300Y121251D01*
Y118749D01*
X137948Y116333D01*
X139198Y114167D01*
X140967Y112398D01*
X141970Y111819D01*
X141630Y110549D01*
X134800D01*
X133825Y110355D01*
X132829Y110832D01*
X132586Y111055D01*
X132547Y111148D01*
X132249Y111272D01*
X132021Y111500D01*
X131698D01*
X131399Y111624D01*
X128655D01*
X128129Y112894D01*
X129402Y114167D01*
X130653Y116333D01*
X131300Y118749D01*
Y121251D01*
X130653Y123667D01*
X130074Y124669D01*
X136856Y131451D01*
X164000D01*
Y129500D01*
X173937D01*
X175000Y129000D01*
Y129000D01*
X175000Y129000D01*
X179750D01*
Y134000D01*
X180750D01*
Y135000D01*
X186500D01*
Y138451D01*
X187000D01*
X187975Y138645D01*
X188802Y139198D01*
X199056Y149451D01*
X233000D01*
X233976Y149645D01*
X234802Y150198D01*
X244802Y160198D01*
X245355Y161024D01*
X245549Y162000D01*
Y173500D01*
X248500D01*
Y196500D01*
X237500D01*
Y173500D01*
X240451D01*
Y163056D01*
X237520Y160125D01*
X236250Y160651D01*
Y162243D01*
X235299Y164540D01*
X233540Y166299D01*
X231243Y167250D01*
X231000D01*
Y161000D01*
X230000D01*
Y160000D01*
X223750D01*
Y159757D01*
X224701Y157460D01*
X226342Y155819D01*
X226271Y155272D01*
X225953Y154549D01*
X198000D01*
X197024Y154355D01*
X196198Y153802D01*
X187673Y145278D01*
X186500Y145764D01*
Y146000D01*
X180750D01*
Y147000D01*
X179750D01*
Y152000D01*
X175000D01*
Y152000D01*
X174500Y151500D01*
X164000D01*
Y149549D01*
X155143D01*
X154402Y150833D01*
X152633Y152602D01*
X150467Y153853D01*
X148051Y154500D01*
X145549D01*
X143133Y153853D01*
X140967Y152602D01*
X139198Y150833D01*
X137948Y148667D01*
X137300Y146251D01*
Y143749D01*
X137948Y141333D01*
X139198Y139167D01*
X140546Y137819D01*
X140020Y136549D01*
X135800D01*
X134825Y136355D01*
X133998Y135802D01*
X126469Y128274D01*
X125467Y128853D01*
X123051Y129500D01*
X120549D01*
X118133Y128853D01*
X115967Y127602D01*
X114198Y125833D01*
X112947Y123667D01*
X112300Y121251D01*
Y118749D01*
X112947Y116333D01*
X114198Y114167D01*
X115471Y112894D01*
X114945Y111624D01*
X65672D01*
X46624Y130673D01*
Y135027D01*
X47631Y135800D01*
X48749Y135500D01*
X51251D01*
X53667Y136147D01*
X55833Y137398D01*
X57602Y139167D01*
X58853Y141333D01*
X59500Y143749D01*
Y146251D01*
X58853Y148667D01*
X57602Y150833D01*
X55833Y152602D01*
X53667Y153853D01*
X51251Y154500D01*
X48749D01*
X47631Y154200D01*
X46624Y154973D01*
Y196914D01*
X47894Y197446D01*
X48994Y196711D01*
X50750Y196362D01*
X52451D01*
Y188150D01*
X50800D01*
Y180850D01*
X50300D01*
Y177100D01*
X55000D01*
X59700D01*
Y180850D01*
X59200D01*
Y188150D01*
X57549D01*
Y196362D01*
X60250D01*
X62006Y196711D01*
X63494Y197706D01*
X64489Y199194D01*
X64838Y200950D01*
X64489Y202706D01*
X63494Y204194D01*
X62006Y205189D01*
X60250Y205538D01*
X50750D01*
X48994Y205189D01*
X47894Y204454D01*
X46624Y204986D01*
Y209614D01*
X47894Y210147D01*
X48994Y209411D01*
X50750Y209062D01*
X60250D01*
X62006Y209411D01*
X63494Y210406D01*
X64489Y211894D01*
X64838Y213650D01*
X64489Y215406D01*
X63494Y216894D01*
X62006Y217889D01*
X60250Y218238D01*
X50750D01*
X48994Y217889D01*
X47894Y217153D01*
X46624Y217686D01*
Y221762D01*
X60250D01*
X62006Y222111D01*
X63494Y223106D01*
X64489Y224594D01*
X64838Y226350D01*
X64489Y228106D01*
X63494Y229594D01*
X62006Y230589D01*
X60250Y230938D01*
X46624D01*
Y234984D01*
X46786Y235136D01*
X47725Y235659D01*
X48994Y234811D01*
X50750Y234462D01*
X60250D01*
X62006Y234811D01*
X63494Y235806D01*
X64489Y237294D01*
X64838Y239050D01*
X64489Y240806D01*
X63494Y242294D01*
X62006Y243289D01*
X60250Y243638D01*
X57549D01*
Y249832D01*
X58257Y250125D01*
X59875Y251743D01*
X60750Y253856D01*
Y256144D01*
X59875Y258257D01*
X58257Y259875D01*
X56144Y260750D01*
X53856D01*
X51743Y259875D01*
X50125Y258257D01*
X49250Y256144D01*
Y253856D01*
X50125Y251743D01*
X51743Y250125D01*
X52451Y249832D01*
Y243638D01*
X50750D01*
X48994Y243289D01*
X47506Y242294D01*
X46511Y240806D01*
X46162Y239050D01*
X46494Y237379D01*
X46266Y237048D01*
X45597Y236376D01*
X45000Y236624D01*
X42876D01*
X41700Y237894D01*
Y244150D01*
X42200D01*
Y247900D01*
X32800D01*
Y244150D01*
X33300D01*
Y236850D01*
X32124Y236624D01*
X28907D01*
X28000Y237894D01*
Y253500D01*
X7000D01*
Y237500D01*
X6093Y236624D01*
X4078D01*
Y340000D01*
X4045Y340169D01*
X4413Y344845D01*
X5547Y349570D01*
X7407Y354059D01*
X9946Y358203D01*
X13102Y361898D01*
X16797Y365054D01*
X20941Y367593D01*
X25430Y369453D01*
X30155Y370587D01*
X34831Y370955D01*
X35000Y370922D01*
D02*
G37*
G36*
X525000Y284700D02*
X524600D01*
Y280000D01*
Y275300D01*
X525000D01*
Y271500D01*
X522250D01*
Y265000D01*
Y258500D01*
X525000D01*
Y255000D01*
X540000D01*
Y226000D01*
X522815Y226000D01*
X522799Y226040D01*
X521040Y227799D01*
X518743Y228750D01*
X518500D01*
Y222500D01*
X516500D01*
Y228750D01*
X516257D01*
X513960Y227799D01*
X512201Y226040D01*
X512185Y226000D01*
X507583Y226000D01*
Y232410D01*
X508088Y232545D01*
X509912Y233598D01*
X511402Y235088D01*
X512455Y236912D01*
X513000Y238947D01*
Y241053D01*
X512455Y243088D01*
X511402Y244912D01*
X509912Y246402D01*
X508088Y247455D01*
X506053Y248000D01*
X503947D01*
X503000Y248727D01*
Y276000D01*
X494500D01*
Y283000D01*
X480000D01*
Y285000D01*
X494500D01*
Y292000D01*
X525000D01*
Y284700D01*
D02*
G37*
G36*
X45000Y153083D02*
X44167Y152602D01*
X42398Y150833D01*
X41147Y148667D01*
X40500Y146251D01*
Y143749D01*
X41147Y141333D01*
X42398Y139167D01*
X44167Y137398D01*
X45000Y136917D01*
Y130000D01*
X65000Y110000D01*
X131399D01*
X131925Y108730D01*
X126469Y103274D01*
X125467Y103853D01*
X123051Y104500D01*
X120549D01*
X118133Y103853D01*
X115967Y102602D01*
X114198Y100833D01*
X112947Y98667D01*
X112300Y96251D01*
Y93749D01*
X112947Y91333D01*
X114198Y89167D01*
X115967Y87398D01*
X118133Y86147D01*
X120549Y85500D01*
X123051D01*
X125467Y86147D01*
X127633Y87398D01*
X129402Y89167D01*
X130653Y91333D01*
X131300Y93749D01*
Y96251D01*
X130653Y98667D01*
X130074Y99669D01*
X135856Y105451D01*
X142489D01*
X142580Y105221D01*
X142702Y104181D01*
X140660Y103002D01*
X138798Y101140D01*
X137481Y98860D01*
X136800Y96316D01*
Y96000D01*
X146800D01*
X156800D01*
Y96316D01*
X156118Y98860D01*
X154802Y101140D01*
X152940Y103002D01*
X150898Y104181D01*
X151019Y105221D01*
X151111Y105451D01*
X160000D01*
Y76000D01*
X4078D01*
Y235000D01*
X45000Y235000D01*
Y153083D01*
D02*
G37*
G36*
X69951Y35000D02*
X70145Y34025D01*
X70698Y33198D01*
X85125Y18770D01*
X85123Y18750D01*
X84550Y17549D01*
X75168D01*
X74875Y18257D01*
X73257Y19875D01*
X71144Y20750D01*
X68856D01*
X66743Y19875D01*
X65125Y18257D01*
X64250Y16144D01*
Y13856D01*
X65125Y11743D01*
X66743Y10125D01*
X68856Y9250D01*
X71144D01*
X73257Y10125D01*
X74875Y11743D01*
X75168Y12451D01*
X83944D01*
X90198Y6198D01*
X91025Y5645D01*
X92000Y5451D01*
X129036D01*
X130011Y5645D01*
X130838Y6198D01*
X133591Y8951D01*
X138000D01*
X138246Y9000D01*
X144500D01*
Y17081D01*
X145764Y17723D01*
X146451Y17313D01*
Y11454D01*
X146645Y10479D01*
X147198Y9652D01*
X151402Y5448D01*
X151550Y5348D01*
X151165Y4078D01*
X35000D01*
X34831Y4045D01*
X30155Y4413D01*
X25430Y5547D01*
X20941Y7407D01*
X16797Y9946D01*
X13102Y13102D01*
X9946Y16797D01*
X7407Y20941D01*
X5547Y25430D01*
X4413Y30155D01*
X4045Y34831D01*
X4078Y35000D01*
Y74376D01*
X15158D01*
X15410Y73106D01*
X13460Y72298D01*
X11702Y70540D01*
X10750Y68243D01*
Y68000D01*
X23250D01*
Y68243D01*
X22299Y70540D01*
X20540Y72298D01*
X18590Y73106D01*
X18843Y74376D01*
X69951D01*
Y35000D01*
D02*
G37*
%LPC*%
G36*
X184000Y361000D02*
X167000D01*
Y352988D01*
X167000Y352311D01*
X166498Y351608D01*
X166356Y351496D01*
X166041Y351250D01*
X166000D01*
Y346000D01*
X171250D01*
Y346243D01*
X170298Y348540D01*
X168540Y350298D01*
X167498Y350730D01*
X167751Y352000D01*
X168132Y352000D01*
X168132Y352000D01*
X168141Y352000D01*
X184000D01*
Y361000D01*
D02*
G37*
G36*
X206243Y351250D02*
X206000D01*
Y346000D01*
X211250D01*
Y346243D01*
X210298Y348540D01*
X208540Y350298D01*
X206243Y351250D01*
D02*
G37*
G36*
X203000Y361000D02*
X186000D01*
Y352000D01*
X201859D01*
X201868Y352000D01*
X201868Y352000D01*
X202249Y352000D01*
X202502Y350730D01*
X201460Y350298D01*
X199701Y348540D01*
X198750Y346243D01*
Y346000D01*
X204000D01*
Y351250D01*
X203959D01*
X203644Y351497D01*
X203501Y351608D01*
X203000Y352311D01*
X203000Y352959D01*
Y361000D01*
D02*
G37*
G36*
X164000Y351250D02*
X163757D01*
X161460Y350298D01*
X159701Y348540D01*
X158750Y346243D01*
Y346000D01*
X164000D01*
Y351250D01*
D02*
G37*
G36*
X211250Y344000D02*
X206000D01*
Y338750D01*
X206243D01*
X208540Y339701D01*
X210298Y341460D01*
X211250Y343757D01*
Y344000D01*
D02*
G37*
G36*
X204000D02*
X198750D01*
Y343757D01*
X199701Y341460D01*
X201460Y339701D01*
X203757Y338750D01*
X204000D01*
Y344000D01*
D02*
G37*
G36*
X171250D02*
X166000D01*
Y338750D01*
X166243D01*
X168540Y339701D01*
X170298Y341460D01*
X171250Y343757D01*
Y344000D01*
D02*
G37*
G36*
X164000D02*
X158750D01*
Y343757D01*
X159701Y341460D01*
X161460Y339701D01*
X163757Y338750D01*
X164000D01*
Y344000D01*
D02*
G37*
G36*
X226243Y311250D02*
X226000D01*
Y306000D01*
X231250D01*
Y306243D01*
X230298Y308540D01*
X228540Y310298D01*
X226243Y311250D01*
D02*
G37*
G36*
X224000D02*
X223757D01*
X221460Y310298D01*
X219701Y308540D01*
X218750Y306243D01*
Y306000D01*
X224000D01*
Y311250D01*
D02*
G37*
G36*
X186243D02*
X186000D01*
Y306000D01*
X191250D01*
Y306243D01*
X190299Y308540D01*
X188540Y310298D01*
X186243Y311250D01*
D02*
G37*
G36*
X184000D02*
X183757D01*
X181460Y310298D01*
X179701Y308540D01*
X178750Y306243D01*
Y306000D01*
X184000D01*
Y311250D01*
D02*
G37*
G36*
X146243D02*
X146000D01*
Y306000D01*
X151250D01*
Y306243D01*
X150299Y308540D01*
X148540Y310298D01*
X146243Y311250D01*
D02*
G37*
G36*
X144000D02*
X143757D01*
X141460Y310298D01*
X139701Y308540D01*
X138750Y306243D01*
Y306000D01*
X144000D01*
Y311250D01*
D02*
G37*
G36*
X231250Y304000D02*
X226000D01*
Y298750D01*
X226243D01*
X228540Y299701D01*
X230298Y301460D01*
X231250Y303757D01*
Y304000D01*
D02*
G37*
G36*
X224000D02*
X218750D01*
Y303757D01*
X219701Y301460D01*
X221460Y299701D01*
X223757Y298750D01*
X224000D01*
Y304000D01*
D02*
G37*
G36*
X191250D02*
X186000D01*
Y298750D01*
X186243D01*
X188540Y299701D01*
X190299Y301460D01*
X191250Y303757D01*
Y304000D01*
D02*
G37*
G36*
X184000D02*
X178750D01*
Y303757D01*
X179701Y301460D01*
X181460Y299701D01*
X183757Y298750D01*
X184000D01*
Y304000D01*
D02*
G37*
G36*
X151250D02*
X146000D01*
Y298750D01*
X146243D01*
X148540Y299701D01*
X150299Y301460D01*
X151250Y303757D01*
Y304000D01*
D02*
G37*
G36*
X144000D02*
X138750D01*
Y303757D01*
X139701Y301460D01*
X141460Y299701D01*
X143757Y298750D01*
X144000D01*
Y304000D01*
D02*
G37*
G36*
X244000Y271250D02*
X243757D01*
X241460Y270298D01*
X239701Y268540D01*
X238750Y266243D01*
Y266000D01*
X244000D01*
Y271250D01*
D02*
G37*
G36*
Y264000D02*
X238750D01*
Y263757D01*
X239701Y261460D01*
X241460Y259701D01*
X243757Y258750D01*
X244000D01*
Y264000D01*
D02*
G37*
G36*
X183500Y225000D02*
Y220500D01*
X187500D01*
Y225000D01*
X183500D01*
D02*
G37*
G36*
X102600Y364700D02*
X98850D01*
Y361000D01*
X102600D01*
Y364700D01*
D02*
G37*
G36*
X439144Y366750D02*
X436856D01*
X434743Y365875D01*
X433125Y364257D01*
X432250Y362144D01*
Y359856D01*
X433125Y357743D01*
X433195Y357673D01*
X432709Y356500D01*
X431500Y356500D01*
X431230Y356500D01*
X421000D01*
Y354549D01*
X416500D01*
Y356500D01*
X397500D01*
Y347500D01*
X399951D01*
Y344500D01*
X400145Y343525D01*
X400698Y342698D01*
X406198Y337198D01*
X407025Y336645D01*
X408000Y336451D01*
X409500D01*
Y334000D01*
X418500D01*
Y344000D01*
X409500D01*
Y342901D01*
X408230Y342375D01*
X405049Y345556D01*
Y347500D01*
X416500D01*
Y349451D01*
X421000D01*
Y347500D01*
X431230D01*
X431500Y347500D01*
X432500D01*
X432770Y347500D01*
X443000D01*
Y356500D01*
X443000D01*
X442599Y357467D01*
X442875Y357743D01*
X443750Y359856D01*
Y362144D01*
X442875Y364257D01*
X441257Y365875D01*
X439144Y366750D01*
D02*
G37*
G36*
X388144D02*
X385856D01*
X383743Y365875D01*
X382125Y364257D01*
X381250Y362144D01*
Y359856D01*
X382125Y357743D01*
X382195Y357673D01*
X381709Y356500D01*
X380500Y356500D01*
X380230Y356500D01*
X370000D01*
Y354549D01*
X365500D01*
Y356500D01*
X346500D01*
Y347500D01*
X348951D01*
Y343500D01*
X349145Y342524D01*
X349698Y341698D01*
X354198Y337198D01*
X355024Y336645D01*
X356000Y336451D01*
X358500D01*
Y334000D01*
X367500D01*
Y344000D01*
X358500D01*
Y341549D01*
X357056D01*
X354049Y344556D01*
Y347500D01*
X365500D01*
Y349451D01*
X370000D01*
Y347500D01*
X380230D01*
X380500Y347500D01*
X381500D01*
X381770Y347500D01*
X392000D01*
Y356500D01*
X392000D01*
X391599Y357467D01*
X391875Y357743D01*
X392750Y359856D01*
Y362144D01*
X391875Y364257D01*
X390257Y365875D01*
X388144Y366750D01*
D02*
G37*
G36*
X337144D02*
X334856D01*
X332743Y365875D01*
X331125Y364257D01*
X330250Y362144D01*
Y359856D01*
X331125Y357743D01*
X331195Y357673D01*
X330709Y356500D01*
X329500Y356500D01*
X329230Y356500D01*
X319000D01*
Y354549D01*
X314500D01*
Y356500D01*
X295500D01*
Y347500D01*
X297951D01*
Y344500D01*
X298145Y343525D01*
X298698Y342698D01*
X304198Y337198D01*
X305025Y336645D01*
X306000Y336451D01*
X307500D01*
Y334000D01*
X316500D01*
Y344000D01*
X307500D01*
Y342901D01*
X306230Y342375D01*
X303049Y345556D01*
Y347500D01*
X314500D01*
Y349451D01*
X319000D01*
Y347500D01*
X329230D01*
X329500Y347500D01*
X330500D01*
X330770Y347500D01*
X341000D01*
Y356500D01*
X341000D01*
X340599Y357467D01*
X340875Y357743D01*
X341750Y359856D01*
Y362144D01*
X340875Y364257D01*
X339257Y365875D01*
X337144Y366750D01*
D02*
G37*
G36*
X102600Y359000D02*
X98850D01*
Y355300D01*
X102600D01*
Y359000D01*
D02*
G37*
G36*
X502144Y357750D02*
X499856D01*
X497743Y356875D01*
X496125Y355257D01*
X495832Y354549D01*
X494000D01*
Y356500D01*
X483770D01*
X483500Y356500D01*
X482500D01*
X482230Y356500D01*
X472000D01*
Y354549D01*
X467500D01*
Y356500D01*
X448500D01*
Y347500D01*
X450951D01*
Y344500D01*
X451145Y343525D01*
X451698Y342698D01*
X457198Y337198D01*
X458025Y336645D01*
X459000Y336451D01*
X460500D01*
Y334000D01*
X469500D01*
Y344000D01*
X460500D01*
Y342901D01*
X459230Y342375D01*
X456049Y345556D01*
Y347500D01*
X467500D01*
Y349451D01*
X472000D01*
Y347500D01*
X482230D01*
X482500Y347500D01*
X483500D01*
X483770Y347500D01*
X494000D01*
Y349451D01*
X495832D01*
X496125Y348743D01*
X497743Y347125D01*
X499856Y346250D01*
X502144D01*
X504257Y347125D01*
X505875Y348743D01*
X506750Y350856D01*
Y353144D01*
X505875Y355257D01*
X504257Y356875D01*
X502144Y357750D01*
D02*
G37*
G36*
X286000Y357000D02*
Y353000D01*
X290750D01*
Y357000D01*
X286000D01*
D02*
G37*
G36*
X102600Y352200D02*
X98850D01*
Y348500D01*
X102600D01*
Y352200D01*
D02*
G37*
G36*
X290750Y351000D02*
X286000D01*
Y347000D01*
X290750D01*
Y351000D01*
D02*
G37*
G36*
X102600Y346500D02*
X98850D01*
Y342800D01*
X102600D01*
Y346500D01*
D02*
G37*
G36*
X37322Y369500D02*
X36000D01*
Y341000D01*
X64500D01*
Y342322D01*
X63774Y346908D01*
X62339Y351324D01*
X60231Y355461D01*
X57501Y359218D01*
X54218Y362501D01*
X50461Y365231D01*
X46324Y367339D01*
X41908Y368774D01*
X37322Y369500D01*
D02*
G37*
G36*
X34000D02*
X32678D01*
X28092Y368774D01*
X23676Y367339D01*
X19539Y365231D01*
X15782Y362501D01*
X12499Y359218D01*
X9769Y355461D01*
X7661Y351324D01*
X6226Y346908D01*
X5500Y342322D01*
Y341000D01*
X34000D01*
Y369500D01*
D02*
G37*
G36*
X495000Y344000D02*
X491000D01*
Y339500D01*
X495000D01*
Y344000D01*
D02*
G37*
G36*
X489000D02*
X485000D01*
Y339500D01*
X489000D01*
Y344000D01*
D02*
G37*
G36*
X444000D02*
X440000D01*
Y339500D01*
X444000D01*
Y344000D01*
D02*
G37*
G36*
X438000D02*
X434000D01*
Y339500D01*
X438000D01*
Y344000D01*
D02*
G37*
G36*
X393000D02*
X389000D01*
Y339500D01*
X393000D01*
Y344000D01*
D02*
G37*
G36*
X387000D02*
X383000D01*
Y339500D01*
X387000D01*
Y344000D01*
D02*
G37*
G36*
X342000D02*
X338000D01*
Y339500D01*
X342000D01*
Y344000D01*
D02*
G37*
G36*
X336000D02*
X332000D01*
Y339500D01*
X336000D01*
Y344000D01*
D02*
G37*
G36*
X291000Y343500D02*
X287000D01*
Y339000D01*
X291000D01*
Y343500D01*
D02*
G37*
G36*
X285000D02*
X281000D01*
Y339000D01*
X285000D01*
Y343500D01*
D02*
G37*
G36*
X102600Y339700D02*
X98850D01*
Y336000D01*
X102600D01*
Y339700D01*
D02*
G37*
G36*
Y334000D02*
X98850D01*
Y330300D01*
X102600D01*
Y334000D01*
D02*
G37*
G36*
X495000Y337500D02*
X485000D01*
Y333000D01*
X484230Y332049D01*
X460500D01*
X459524Y331855D01*
X458698Y331302D01*
X453698Y326302D01*
X453145Y325476D01*
X452951Y324500D01*
Y324000D01*
X451000D01*
Y314000D01*
X452451D01*
Y308168D01*
X451743Y307875D01*
X450125Y306257D01*
X449250Y304144D01*
Y301856D01*
X450125Y299743D01*
X451743Y298125D01*
X453856Y297250D01*
X456144D01*
X458257Y298125D01*
X459875Y299743D01*
X460750Y301856D01*
Y304144D01*
X459875Y306257D01*
X458257Y307875D01*
X457549Y308168D01*
Y314000D01*
X460000D01*
Y324000D01*
X460000D01*
X459591Y324987D01*
X461556Y326951D01*
X485500D01*
Y324500D01*
X494500D01*
Y333000D01*
X495000D01*
Y337500D01*
D02*
G37*
G36*
X444000D02*
X434000D01*
Y333000D01*
X433230Y332049D01*
X409500D01*
X408525Y331855D01*
X407698Y331302D01*
X402698Y326302D01*
X402145Y325476D01*
X401951Y324500D01*
Y324000D01*
X400000D01*
Y314000D01*
X401451D01*
Y304168D01*
X400743Y303875D01*
X399125Y302257D01*
X398250Y300144D01*
Y297856D01*
X399125Y295743D01*
X400743Y294125D01*
X402856Y293250D01*
X405144D01*
X407257Y294125D01*
X408875Y295743D01*
X409750Y297856D01*
Y300144D01*
X408875Y302257D01*
X407257Y303875D01*
X406549Y304168D01*
Y314000D01*
X409000D01*
Y324000D01*
X409000D01*
X408591Y324987D01*
X410556Y326951D01*
X434500D01*
Y324500D01*
X443500D01*
Y333000D01*
X444000D01*
Y337500D01*
D02*
G37*
G36*
X428500Y324500D02*
X424500D01*
Y320000D01*
X428500D01*
Y324500D01*
D02*
G37*
G36*
X275500D02*
X271500D01*
Y320000D01*
X275500D01*
Y324500D01*
D02*
G37*
G36*
X479500D02*
X475500D01*
Y320000D01*
X479500D01*
Y324500D01*
D02*
G37*
G36*
X371500D02*
X367500D01*
Y320000D01*
X371500D01*
Y324500D01*
D02*
G37*
G36*
X269500D02*
X265500D01*
Y320000D01*
X269500D01*
Y324500D01*
D02*
G37*
G36*
X473500D02*
X469500D01*
Y320000D01*
X473500D01*
Y324500D01*
D02*
G37*
G36*
X422500D02*
X418500D01*
Y320000D01*
X422500D01*
Y324500D01*
D02*
G37*
G36*
X320500D02*
X316500D01*
Y320000D01*
X320500D01*
Y324500D01*
D02*
G37*
G36*
X479500Y318000D02*
X475500D01*
Y313500D01*
X479500D01*
Y318000D01*
D02*
G37*
G36*
X473500D02*
X469500D01*
Y313500D01*
X473500D01*
Y318000D01*
D02*
G37*
G36*
X428500D02*
X424500D01*
Y313500D01*
X428500D01*
Y318000D01*
D02*
G37*
G36*
X422500D02*
X418500D01*
Y313500D01*
X422500D01*
Y318000D01*
D02*
G37*
G36*
X275500D02*
X271500D01*
Y313500D01*
X275500D01*
Y318000D01*
D02*
G37*
G36*
X269500D02*
X265500D01*
Y313500D01*
X269500D01*
Y318000D01*
D02*
G37*
G36*
X64500Y339000D02*
X36000D01*
Y310500D01*
X37322D01*
X41908Y311226D01*
X46324Y312661D01*
X50461Y314769D01*
X54218Y317499D01*
X57501Y320782D01*
X60231Y324539D01*
X62339Y328676D01*
X63774Y333092D01*
X64500Y337678D01*
Y339000D01*
D02*
G37*
G36*
X34000D02*
X5500D01*
Y337678D01*
X6226Y333092D01*
X7661Y328676D01*
X9769Y324539D01*
X12499Y320782D01*
X15782Y317499D01*
X19539Y314769D01*
X23676Y312661D01*
X28092Y311226D01*
X32678Y310500D01*
X34000D01*
Y339000D01*
D02*
G37*
G36*
X393000Y337500D02*
X383000D01*
Y333000D01*
X382230Y332049D01*
X358500D01*
X357524Y331855D01*
X356698Y331302D01*
X351698Y326302D01*
X351145Y325476D01*
X350951Y324500D01*
Y324000D01*
X349000D01*
Y314000D01*
X358000D01*
Y324000D01*
X358000D01*
X357591Y324987D01*
X359556Y326951D01*
X378451D01*
Y325270D01*
X377500Y324500D01*
X373500D01*
Y319000D01*
X372500D01*
Y318000D01*
X367500D01*
Y313500D01*
X371771D01*
X372257Y312327D01*
X371198Y311267D01*
X370645Y310440D01*
X370451Y309464D01*
Y305033D01*
X370413Y304975D01*
X370234Y304078D01*
X369743Y303875D01*
X368125Y302257D01*
X367250Y300144D01*
Y297856D01*
X368125Y295743D01*
X369743Y294125D01*
X371856Y293250D01*
X374144D01*
X376257Y294125D01*
X377875Y295743D01*
X378750Y297856D01*
Y300144D01*
X377875Y302257D01*
X376257Y303875D01*
X375537Y304173D01*
X375549Y304232D01*
Y308409D01*
X382802Y315662D01*
X383355Y316489D01*
X383549Y317465D01*
Y324500D01*
X392500D01*
Y333000D01*
X393000D01*
Y337500D01*
D02*
G37*
G36*
X342000D02*
X332000D01*
Y333000D01*
X331230Y332049D01*
X305500D01*
X304524Y331855D01*
X303698Y331302D01*
X300698Y328302D01*
X300145Y327476D01*
X299951Y326500D01*
Y324000D01*
X298000D01*
Y314000D01*
X307000D01*
Y324000D01*
X305049D01*
Y325444D01*
X306556Y326951D01*
X327451D01*
Y325270D01*
X326500Y324500D01*
X322500D01*
Y319000D01*
X321500D01*
Y318000D01*
X316500D01*
Y313500D01*
X320771D01*
X321257Y312327D01*
X320198Y311267D01*
X319645Y310440D01*
X319451Y309464D01*
Y304168D01*
X318743Y303875D01*
X317125Y302257D01*
X316250Y300144D01*
Y297856D01*
X317125Y295743D01*
X318743Y294125D01*
X320856Y293250D01*
X323144D01*
X325257Y294125D01*
X326875Y295743D01*
X327750Y297856D01*
Y300144D01*
X326875Y302257D01*
X325257Y303875D01*
X324549Y304168D01*
Y308409D01*
X331802Y315662D01*
X332355Y316489D01*
X332549Y317465D01*
Y324500D01*
X341500D01*
Y333000D01*
X342000D01*
Y337500D01*
D02*
G37*
G36*
X450500Y292500D02*
X437000D01*
Y285000D01*
X450500D01*
Y292500D01*
D02*
G37*
G36*
X435000D02*
X421500D01*
Y285000D01*
X435000D01*
Y292500D01*
D02*
G37*
G36*
X536150Y284700D02*
X532400D01*
Y281000D01*
X536150D01*
Y284700D01*
D02*
G37*
G36*
X97300Y285850D02*
X92490D01*
Y278500D01*
X97300D01*
Y285850D01*
D02*
G37*
G36*
X90490D02*
X85680D01*
Y278500D01*
X90490D01*
Y285850D01*
D02*
G37*
G36*
X450500Y283000D02*
X437000D01*
Y275500D01*
X450500D01*
Y283000D01*
D02*
G37*
G36*
X435000D02*
X421500D01*
Y275500D01*
X435000D01*
Y283000D01*
D02*
G37*
G36*
X28500Y283000D02*
X18500D01*
Y275500D01*
X28500D01*
Y283000D01*
D02*
G37*
G36*
X16500D02*
X6500D01*
Y275500D01*
X16500D01*
Y283000D01*
D02*
G37*
G36*
X536150Y279000D02*
X532400D01*
Y275300D01*
X536150D01*
Y279000D01*
D02*
G37*
G36*
X97300Y276500D02*
X92490D01*
Y269150D01*
X97300D01*
Y276500D01*
D02*
G37*
G36*
X90490D02*
X85680D01*
Y269150D01*
X90490D01*
Y276500D01*
D02*
G37*
G36*
X534750Y271500D02*
Y266000D01*
X539750D01*
Y271500D01*
X534750D01*
D02*
G37*
G36*
X28500Y273500D02*
X18500D01*
Y266000D01*
X28500D01*
Y273500D01*
D02*
G37*
G36*
X16500D02*
X6500D01*
Y266000D01*
X16500D01*
Y273500D01*
D02*
G37*
G36*
X539750Y264000D02*
X534750D01*
Y258500D01*
X539750D01*
Y264000D01*
D02*
G37*
G36*
X42200Y253650D02*
X38500D01*
Y249900D01*
X42200D01*
Y253650D01*
D02*
G37*
G36*
X36500D02*
X32800D01*
Y249900D01*
X36500D01*
Y253650D01*
D02*
G37*
G36*
X346119Y248500D02*
X346000D01*
Y241000D01*
X353500D01*
Y241119D01*
X352921Y243281D01*
X351802Y245219D01*
X350219Y246802D01*
X348281Y247921D01*
X346119Y248500D01*
D02*
G37*
G36*
X344000D02*
X343881D01*
X341719Y247921D01*
X339781Y246802D01*
X338198Y245219D01*
X337079Y243281D01*
X336500Y241119D01*
Y241000D01*
X344000D01*
Y248500D01*
D02*
G37*
G36*
X466053Y248000D02*
X463947D01*
X461912Y247455D01*
X460088Y246402D01*
X458598Y244912D01*
X457545Y243088D01*
X457000Y241053D01*
Y238947D01*
X457545Y236912D01*
X458598Y235088D01*
X460088Y233598D01*
X461912Y232545D01*
X463947Y232000D01*
X466053D01*
X468088Y232545D01*
X469912Y233598D01*
X471402Y235088D01*
X472455Y236912D01*
X473000Y238947D01*
Y241053D01*
X472455Y243088D01*
X471402Y244912D01*
X469912Y246402D01*
X468088Y247455D01*
X466053Y248000D01*
D02*
G37*
G36*
X386034Y269850D02*
X383966D01*
X381970Y269315D01*
X380180Y268282D01*
X378718Y266820D01*
X377685Y265030D01*
X377150Y263034D01*
Y260966D01*
X377685Y258970D01*
X378718Y257180D01*
X380180Y255718D01*
X381970Y254685D01*
X383966Y254150D01*
X386034D01*
X388030Y254685D01*
X389820Y255718D01*
X391282Y257180D01*
X392315Y258970D01*
X392444Y259451D01*
X394500D01*
Y257500D01*
X413500D01*
Y259451D01*
X415944D01*
X426176Y249219D01*
X425599Y248000D01*
X423947D01*
X421912Y247455D01*
X420088Y246402D01*
X418598Y244912D01*
X417545Y243088D01*
X417000Y241053D01*
Y238947D01*
X417545Y236912D01*
X418598Y235088D01*
X420088Y233598D01*
X421912Y232545D01*
X423947Y232000D01*
X426053D01*
X428088Y232545D01*
X429912Y233598D01*
X431402Y235088D01*
X432455Y236912D01*
X433000Y238947D01*
Y241053D01*
X432455Y243088D01*
X431402Y244912D01*
X430682Y245632D01*
X431208Y246902D01*
X434493D01*
X437824Y243571D01*
X437545Y243088D01*
X437000Y241053D01*
Y238947D01*
X437545Y236912D01*
X438598Y235088D01*
X440088Y233598D01*
X441912Y232545D01*
X443947Y232000D01*
X446053D01*
X448088Y232545D01*
X449912Y233598D01*
X451402Y235088D01*
X452455Y236912D01*
X453000Y238947D01*
Y241053D01*
X452455Y243088D01*
X451402Y244912D01*
X449912Y246402D01*
X448088Y247455D01*
X446053Y248000D01*
X443947D01*
X441912Y247455D01*
X441429Y247176D01*
X437351Y251253D01*
X436524Y251806D01*
X435549Y252000D01*
X430605D01*
X418802Y263802D01*
X417975Y264355D01*
X417000Y264549D01*
X413500D01*
Y266500D01*
X394500D01*
Y264549D01*
X392444D01*
X392315Y265030D01*
X391282Y266820D01*
X389820Y268282D01*
X388030Y269315D01*
X386034Y269850D01*
D02*
G37*
G36*
X406053Y248000D02*
X403947D01*
X401912Y247455D01*
X400088Y246402D01*
X398598Y244912D01*
X397545Y243088D01*
X397000Y241053D01*
Y238947D01*
X397545Y236912D01*
X398598Y235088D01*
X400088Y233598D01*
X401912Y232545D01*
X403947Y232000D01*
X406053D01*
X408088Y232545D01*
X409912Y233598D01*
X411402Y235088D01*
X412455Y236912D01*
X413000Y238947D01*
Y241053D01*
X412455Y243088D01*
X411402Y244912D01*
X409912Y246402D01*
X408088Y247455D01*
X406053Y248000D01*
D02*
G37*
G36*
X386053D02*
X383947D01*
X381912Y247455D01*
X380088Y246402D01*
X378598Y244912D01*
X377545Y243088D01*
X377000Y241053D01*
Y238947D01*
X377545Y236912D01*
X378598Y235088D01*
X380088Y233598D01*
X381912Y232545D01*
X383947Y232000D01*
X386053D01*
X388088Y232545D01*
X389912Y233598D01*
X391402Y235088D01*
X392455Y236912D01*
X393000Y238947D01*
Y241053D01*
X392455Y243088D01*
X391402Y244912D01*
X389912Y246402D01*
X388088Y247455D01*
X386053Y248000D01*
D02*
G37*
G36*
X366053D02*
X363947D01*
X361912Y247455D01*
X360088Y246402D01*
X358598Y244912D01*
X357545Y243088D01*
X357000Y241053D01*
Y238947D01*
X357545Y236912D01*
X358598Y235088D01*
X360088Y233598D01*
X361912Y232545D01*
X363947Y232000D01*
X366053D01*
X368088Y232545D01*
X369912Y233598D01*
X371402Y235088D01*
X372455Y236912D01*
X373000Y238947D01*
Y241053D01*
X372455Y243088D01*
X371402Y244912D01*
X369912Y246402D01*
X368088Y247455D01*
X366053Y248000D01*
D02*
G37*
G36*
X353500Y239000D02*
X346000D01*
Y231500D01*
X346119D01*
X348281Y232079D01*
X350219Y233198D01*
X351802Y234781D01*
X352921Y236719D01*
X353500Y238881D01*
Y239000D01*
D02*
G37*
G36*
X344000D02*
X336500D01*
Y238881D01*
X337079Y236719D01*
X338198Y234781D01*
X339781Y233198D01*
X341719Y232079D01*
X343881Y231500D01*
X344000D01*
Y239000D01*
D02*
G37*
G36*
X114250Y231448D02*
X110500D01*
Y227350D01*
X119149D01*
X118960Y228301D01*
X117855Y229955D01*
X116201Y231060D01*
X114250Y231448D01*
D02*
G37*
G36*
X108500D02*
X104750D01*
X102799Y231060D01*
X101145Y229955D01*
X100040Y228301D01*
X99851Y227350D01*
X108500D01*
Y231448D01*
D02*
G37*
G36*
X119149Y225350D02*
X110500D01*
Y221252D01*
X114250D01*
X116201Y221640D01*
X117855Y222745D01*
X118960Y224399D01*
X119149Y225350D01*
D02*
G37*
G36*
X108500D02*
X99851D01*
X100040Y224399D01*
X101145Y222745D01*
X102799Y221640D01*
X104750Y221252D01*
X108500D01*
Y225350D01*
D02*
G37*
G36*
X169000Y225000D02*
X165000D01*
Y220500D01*
X169000D01*
Y225000D01*
D02*
G37*
G36*
X137200Y223650D02*
X133500D01*
Y219900D01*
X137200D01*
Y223650D01*
D02*
G37*
G36*
X131500D02*
X127800D01*
Y219900D01*
X131500D01*
Y223650D01*
D02*
G37*
G36*
X162200Y223650D02*
X158500D01*
Y219900D01*
X162200D01*
Y223650D01*
D02*
G37*
G36*
X298144Y215750D02*
X295856D01*
X293743Y214875D01*
X292125Y213257D01*
X291250Y211144D01*
Y208856D01*
X292125Y206743D01*
X293743Y205125D01*
X294451Y204832D01*
Y196500D01*
X291500D01*
Y174746D01*
X291500Y174724D01*
X291496Y174554D01*
X290595Y174375D01*
D01*
X290594Y174375D01*
X289824Y175282D01*
X289731Y175507D01*
X288113Y177125D01*
X286000Y178000D01*
X283713D01*
X281599Y177125D01*
X279982Y175507D01*
X279106Y173394D01*
Y171106D01*
X279982Y168993D01*
X281599Y167375D01*
X283713Y166500D01*
X286000D01*
X286708Y166793D01*
X291583Y161919D01*
X292121Y160942D01*
X291574Y160179D01*
X286852Y155457D01*
X286144Y155750D01*
X283856D01*
X281743Y154875D01*
X280125Y153257D01*
X279250Y151144D01*
Y148856D01*
X280125Y146743D01*
X281743Y145125D01*
X283856Y144250D01*
X286144D01*
X288257Y145125D01*
X289875Y146743D01*
X290750Y148856D01*
Y151144D01*
X290457Y151852D01*
X295056Y156451D01*
X336523D01*
X337049Y155181D01*
X336125Y154257D01*
X335250Y152144D01*
Y149856D01*
X336125Y147743D01*
X337743Y146125D01*
X339856Y145250D01*
X342144D01*
X344257Y146125D01*
X345875Y147743D01*
X346168Y148451D01*
X356000D01*
X356976Y148645D01*
X357802Y149198D01*
X366000Y157395D01*
X372198Y151198D01*
X373025Y150645D01*
X374000Y150451D01*
X380500D01*
Y148500D01*
X399500D01*
Y150451D01*
X401000D01*
X401976Y150645D01*
X402802Y151198D01*
X411148Y159543D01*
X411856Y159250D01*
X414144D01*
X416257Y160125D01*
X417875Y161743D01*
X418750Y163856D01*
Y166144D01*
X417875Y168257D01*
X416257Y169875D01*
X414144Y170750D01*
X411856D01*
X409743Y169875D01*
X408125Y168257D01*
X407250Y166144D01*
Y163856D01*
X407543Y163148D01*
X400770Y156375D01*
X399500Y156901D01*
Y157500D01*
X380500D01*
Y155549D01*
X375056D01*
X369605Y161000D01*
X371552Y162948D01*
X372105Y163775D01*
X372299Y164750D01*
Y166943D01*
X372454Y167046D01*
X373282Y168287D01*
X373573Y169750D01*
Y179250D01*
X373282Y180713D01*
X372454Y181954D01*
X371213Y182782D01*
X369750Y183073D01*
X368287Y182782D01*
X367046Y181954D01*
X366742Y181979D01*
X365799Y182373D01*
Y188194D01*
X367556Y189951D01*
X385500D01*
Y188000D01*
X387951D01*
Y184750D01*
X384000D01*
Y174020D01*
X384000Y173813D01*
X383500Y172750D01*
X383500Y172687D01*
Y167750D01*
X390000D01*
X396500D01*
Y172687D01*
X396500Y172750D01*
X396000Y173813D01*
X396000Y174020D01*
Y184750D01*
X393049D01*
Y188000D01*
X404500D01*
Y189951D01*
X416444D01*
X417543Y188852D01*
X417250Y188144D01*
Y185856D01*
X418125Y183743D01*
X419743Y182125D01*
X421856Y181250D01*
X424144D01*
X426257Y182125D01*
X427875Y183743D01*
X428750Y185856D01*
Y186459D01*
X430020Y187304D01*
X430928Y186927D01*
X431363Y186277D01*
X438750Y178890D01*
Y171750D01*
X449250D01*
Y183250D01*
X443110D01*
X441534Y184827D01*
X442020Y186000D01*
X442750D01*
Y192500D01*
Y199000D01*
X437750D01*
Y197178D01*
X436480Y196652D01*
X435757Y197375D01*
X433644Y198250D01*
X431356D01*
X429243Y197375D01*
X427625Y195757D01*
X426750Y193644D01*
Y193041D01*
X425480Y192197D01*
X424144Y192750D01*
X421856D01*
X421148Y192457D01*
X419302Y194302D01*
X418475Y194855D01*
X417500Y195049D01*
X411310D01*
X411144Y196250D01*
X413257Y197125D01*
X414875Y198743D01*
X415750Y200856D01*
Y203144D01*
X414875Y205257D01*
X413257Y206875D01*
X411144Y207750D01*
X408856D01*
X408758Y207709D01*
X407669Y208799D01*
X406668Y209467D01*
X405489Y209702D01*
X404500Y210453D01*
Y212000D01*
X385500D01*
Y210049D01*
X365500D01*
X364524Y209855D01*
X363698Y209302D01*
X355694Y201299D01*
X353500D01*
Y203500D01*
X344500D01*
Y195000D01*
X344000D01*
Y190500D01*
X349000D01*
Y188500D01*
X344000D01*
Y184000D01*
X347423D01*
X347808Y182730D01*
X347186Y182314D01*
X346247Y180908D01*
X345917Y179250D01*
Y175500D01*
X350250D01*
Y173500D01*
X345917D01*
Y169750D01*
X346247Y168092D01*
X347097Y166819D01*
X346944Y166216D01*
X346601Y165549D01*
X295162D01*
X290313Y170398D01*
X290606Y171106D01*
Y172169D01*
X291203Y173201D01*
X292033Y173500D01*
Y173500D01*
X302500D01*
Y196500D01*
X299549D01*
Y204832D01*
X300257Y205125D01*
X301875Y206743D01*
X302750Y208856D01*
Y211144D01*
X301875Y213257D01*
X300257Y214875D01*
X298144Y215750D01*
D02*
G37*
G36*
X227000Y197000D02*
X222000D01*
Y186000D01*
X227000D01*
Y197000D01*
D02*
G37*
G36*
X220000D02*
X215000D01*
Y186000D01*
X220000D01*
Y197000D01*
D02*
G37*
G36*
X535000Y179500D02*
X531000D01*
Y175000D01*
X535000D01*
Y179500D01*
D02*
G37*
G36*
X529000D02*
X525000D01*
Y175000D01*
X529000D01*
Y179500D01*
D02*
G37*
G36*
X270500Y196500D02*
X259500D01*
Y173500D01*
X270500D01*
Y196500D01*
D02*
G37*
G36*
X227000Y184000D02*
X222000D01*
Y173000D01*
X227000D01*
Y184000D01*
D02*
G37*
G36*
X220000D02*
X215000D01*
Y173000D01*
X220000D01*
Y184000D01*
D02*
G37*
G36*
X59700Y175100D02*
X56000D01*
Y171350D01*
X59700D01*
Y175100D01*
D02*
G37*
G36*
X54000D02*
X50300D01*
Y171350D01*
X54000D01*
Y175100D01*
D02*
G37*
G36*
X444600Y167700D02*
X440600D01*
Y163500D01*
X444600D01*
Y167700D01*
D02*
G37*
G36*
X229000Y167250D02*
X228757D01*
X226460Y166299D01*
X224701Y164540D01*
X223750Y162243D01*
Y162000D01*
X229000D01*
Y167250D01*
D02*
G37*
G36*
X396500Y165750D02*
X391000D01*
Y160750D01*
X396500D01*
Y165750D01*
D02*
G37*
G36*
X389000D02*
X383500D01*
Y160750D01*
X389000D01*
Y165750D01*
D02*
G37*
G36*
X444600Y161500D02*
X440600D01*
Y157300D01*
X444600D01*
Y161500D01*
D02*
G37*
G36*
X444600Y154200D02*
X440600D01*
Y150000D01*
X444600D01*
Y154200D01*
D02*
G37*
G36*
X186500Y152000D02*
X181750D01*
Y148000D01*
X186500D01*
Y152000D01*
D02*
G37*
G36*
X123117Y155000D02*
X122800D01*
Y146000D01*
X131800D01*
Y146316D01*
X131118Y148860D01*
X129802Y151140D01*
X127940Y153002D01*
X125660Y154319D01*
X123117Y155000D01*
D02*
G37*
G36*
X120800D02*
X120484D01*
X117940Y154319D01*
X115660Y153002D01*
X113798Y151140D01*
X112481Y148860D01*
X111800Y146316D01*
Y146000D01*
X120800D01*
Y155000D01*
D02*
G37*
G36*
X444600Y148000D02*
X440600D01*
Y143800D01*
X444600D01*
Y148000D01*
D02*
G37*
G36*
X131800Y144000D02*
X122800D01*
Y135000D01*
X123117D01*
X125660Y135681D01*
X127940Y136998D01*
X129802Y138860D01*
X131118Y141140D01*
X131800Y143684D01*
Y144000D01*
D02*
G37*
G36*
X120800D02*
X111800D01*
Y143684D01*
X112481Y141140D01*
X113798Y138860D01*
X115660Y136998D01*
X117940Y135681D01*
X120484Y135000D01*
X120800D01*
Y144000D01*
D02*
G37*
G36*
X186500Y133000D02*
X181750D01*
Y129000D01*
X186500D01*
Y133000D01*
D02*
G37*
G36*
X393500Y130250D02*
X388000D01*
Y125250D01*
X393500D01*
Y130250D01*
D02*
G37*
G36*
X386000D02*
X380500D01*
Y125250D01*
X386000D01*
Y130250D01*
D02*
G37*
G36*
X355750Y124384D02*
X355092Y124253D01*
X354485Y123848D01*
X353500Y123399D01*
X352515Y123848D01*
X351908Y124253D01*
X351250Y124384D01*
Y115500D01*
Y106616D01*
X351908Y106747D01*
X352515Y107152D01*
X353500Y107601D01*
X354485Y107152D01*
X355092Y106747D01*
X355750Y106616D01*
Y115500D01*
Y124384D01*
D02*
G37*
G36*
X519073Y131000D02*
X516250D01*
Y122126D01*
X516713Y122218D01*
X517954Y123046D01*
X518783Y124287D01*
X519073Y125750D01*
Y131000D01*
D02*
G37*
G36*
X186500Y126000D02*
X181750D01*
Y122000D01*
X186500D01*
Y126000D01*
D02*
G37*
G36*
X349250Y124384D02*
X348592Y124253D01*
X347186Y123314D01*
X346247Y121908D01*
X345917Y120250D01*
Y116500D01*
X349250D01*
Y124384D01*
D02*
G37*
G36*
X536500Y120250D02*
X531000D01*
Y115250D01*
X536500D01*
Y120250D01*
D02*
G37*
G36*
X529000D02*
X523500D01*
Y115250D01*
X529000D01*
Y120250D01*
D02*
G37*
G36*
X270500Y136500D02*
X259500D01*
Y113500D01*
X270500D01*
Y136500D01*
D02*
G37*
G36*
X349250Y114500D02*
X345917D01*
Y110750D01*
X346247Y109092D01*
X347186Y107686D01*
X348592Y106747D01*
X349250Y106616D01*
Y114500D01*
D02*
G37*
G36*
X186500Y107000D02*
X181750D01*
Y103000D01*
X186500D01*
Y107000D01*
D02*
G37*
G36*
X223500Y104000D02*
X219000D01*
Y100000D01*
X223500D01*
Y104000D01*
D02*
G37*
G36*
X459750Y101500D02*
Y96000D01*
X464750D01*
Y101500D01*
X459750D01*
D02*
G37*
G36*
X186500Y100000D02*
X181750D01*
Y96000D01*
X186500D01*
Y100000D01*
D02*
G37*
G36*
X223500Y98000D02*
X219000D01*
Y94000D01*
X223500D01*
Y98000D01*
D02*
G37*
G36*
X464750Y94000D02*
X459750D01*
Y88500D01*
X464750D01*
Y94000D01*
D02*
G37*
G36*
X531250Y110750D02*
X520750D01*
Y99250D01*
X523667D01*
Y96798D01*
X522625Y95757D01*
X521750Y93644D01*
Y91356D01*
X522625Y89243D01*
X524243Y87625D01*
X526356Y86750D01*
X528644D01*
X530757Y87625D01*
X532375Y89243D01*
X533250Y91356D01*
Y93644D01*
X532375Y95757D01*
X530757Y97375D01*
X529833Y97757D01*
Y99250D01*
X531250D01*
Y110750D01*
D02*
G37*
G36*
X256500Y89500D02*
X252000D01*
Y85500D01*
X256500D01*
Y89500D01*
D02*
G37*
G36*
X250000D02*
X245500D01*
Y85500D01*
X250000D01*
Y89500D01*
D02*
G37*
G36*
X256500Y83500D02*
X252000D01*
Y79500D01*
X256500D01*
Y83500D01*
D02*
G37*
G36*
X250000D02*
X245500D01*
Y79500D01*
X250000D01*
Y83500D01*
D02*
G37*
G36*
X86243Y71250D02*
X86000D01*
Y66000D01*
X91250D01*
Y66243D01*
X90299Y68540D01*
X88540Y70299D01*
X86243Y71250D01*
D02*
G37*
G36*
X84000D02*
X83757D01*
X81460Y70299D01*
X79701Y68540D01*
X78750Y66243D01*
Y66000D01*
X84000D01*
Y71250D01*
D02*
G37*
G36*
X99500Y70000D02*
X95000D01*
Y66000D01*
X99500D01*
Y70000D01*
D02*
G37*
G36*
Y64000D02*
X95000D01*
Y60000D01*
X99500D01*
Y64000D01*
D02*
G37*
G36*
X91250D02*
X86000D01*
Y58750D01*
X86243D01*
X88540Y59701D01*
X90299Y61460D01*
X91250Y63757D01*
Y64000D01*
D02*
G37*
G36*
X84000D02*
X78750D01*
Y63757D01*
X79701Y61460D01*
X81460Y59701D01*
X83757Y58750D01*
X84000D01*
Y64000D01*
D02*
G37*
G36*
X381879Y54500D02*
X373004D01*
Y51676D01*
X378254D01*
X379717Y51967D01*
X380958Y52796D01*
X381786Y54036D01*
X381879Y54500D01*
D02*
G37*
G36*
X371004D02*
X362130D01*
X362222Y54036D01*
X363050Y52796D01*
X364291Y51967D01*
X365754Y51676D01*
X371004D01*
Y54500D01*
D02*
G37*
G36*
X531800Y69715D02*
X490700D01*
Y46400D01*
X531800D01*
Y69715D01*
D02*
G37*
G36*
X290000Y54750D02*
X284000D01*
Y46000D01*
X290000D01*
Y54750D01*
D02*
G37*
G36*
X282000D02*
X276000D01*
Y46000D01*
X282000D01*
Y54750D01*
D02*
G37*
G36*
X91500D02*
X85500D01*
Y46000D01*
X91500D01*
Y54750D01*
D02*
G37*
G36*
X83500D02*
X77500D01*
Y46000D01*
X83500D01*
Y54750D01*
D02*
G37*
G36*
X290000Y44000D02*
X284000D01*
Y35250D01*
X290000D01*
Y44000D01*
D02*
G37*
G36*
X282000D02*
X276000D01*
Y35250D01*
X282000D01*
Y44000D01*
D02*
G37*
G36*
X91500Y44000D02*
X85500D01*
Y35250D01*
X91500D01*
Y44000D01*
D02*
G37*
G36*
X526053Y28000D02*
X523947D01*
X521912Y27455D01*
X520088Y26402D01*
X518598Y24912D01*
X517545Y23088D01*
X517000Y21053D01*
Y18947D01*
X517545Y16912D01*
X518598Y15088D01*
X520088Y13598D01*
X521912Y12545D01*
X523947Y12000D01*
X526053D01*
X528088Y12545D01*
X529912Y13598D01*
X531402Y15088D01*
X532455Y16912D01*
X533000Y18947D01*
Y21053D01*
X532455Y23088D01*
X531402Y24912D01*
X529912Y26402D01*
X528088Y27455D01*
X526053Y28000D01*
D02*
G37*
G36*
X506053D02*
X503947D01*
X501912Y27455D01*
X500088Y26402D01*
X498598Y24912D01*
X497545Y23088D01*
X497000Y21053D01*
Y18947D01*
X497545Y16912D01*
X498598Y15088D01*
X500088Y13598D01*
X501912Y12545D01*
X503947Y12000D01*
X506053D01*
X508088Y12545D01*
X509912Y13598D01*
X511402Y15088D01*
X512455Y16912D01*
X513000Y18947D01*
Y21053D01*
X512455Y23088D01*
X511402Y24912D01*
X509912Y26402D01*
X508088Y27455D01*
X506053Y28000D01*
D02*
G37*
G36*
X486053D02*
X483947D01*
X481912Y27455D01*
X480088Y26402D01*
X478598Y24912D01*
X477545Y23088D01*
X477000Y21053D01*
Y18947D01*
X477545Y16912D01*
X478598Y15088D01*
X480088Y13598D01*
X481912Y12545D01*
X483947Y12000D01*
X486053D01*
X488088Y12545D01*
X489912Y13598D01*
X491402Y15088D01*
X492455Y16912D01*
X493000Y18947D01*
Y21053D01*
X492455Y23088D01*
X491402Y24912D01*
X489912Y26402D01*
X488088Y27455D01*
X486053Y28000D01*
D02*
G37*
G36*
X466053D02*
X463947D01*
X461912Y27455D01*
X460088Y26402D01*
X458598Y24912D01*
X457545Y23088D01*
X457000Y21053D01*
Y18947D01*
X457545Y16912D01*
X458598Y15088D01*
X460088Y13598D01*
X461912Y12545D01*
X463947Y12000D01*
X466053D01*
X468088Y12545D01*
X469912Y13598D01*
X471402Y15088D01*
X472455Y16912D01*
X473000Y18947D01*
Y21053D01*
X472455Y23088D01*
X471402Y24912D01*
X469912Y26402D01*
X468088Y27455D01*
X466053Y28000D01*
D02*
G37*
G36*
X446053D02*
X443947D01*
X441912Y27455D01*
X440088Y26402D01*
X438598Y24912D01*
X437545Y23088D01*
X437000Y21053D01*
Y18947D01*
X437545Y16912D01*
X438598Y15088D01*
X440088Y13598D01*
X441912Y12545D01*
X443947Y12000D01*
X446053D01*
X448088Y12545D01*
X449912Y13598D01*
X451402Y15088D01*
X452455Y16912D01*
X453000Y18947D01*
Y21053D01*
X452455Y23088D01*
X451402Y24912D01*
X449912Y26402D01*
X448088Y27455D01*
X446053Y28000D01*
D02*
G37*
G36*
X426053D02*
X423947D01*
X421912Y27455D01*
X420088Y26402D01*
X418598Y24912D01*
X417545Y23088D01*
X417000Y21053D01*
Y18947D01*
X417545Y16912D01*
X418598Y15088D01*
X420088Y13598D01*
X421912Y12545D01*
X423947Y12000D01*
X426053D01*
X428088Y12545D01*
X429912Y13598D01*
X431402Y15088D01*
X432455Y16912D01*
X433000Y18947D01*
Y21053D01*
X432455Y23088D01*
X431402Y24912D01*
X429912Y26402D01*
X428088Y27455D01*
X426053Y28000D01*
D02*
G37*
G36*
X406053D02*
X403947D01*
X401912Y27455D01*
X400088Y26402D01*
X398598Y24912D01*
X397545Y23088D01*
X397000Y21053D01*
Y18947D01*
X397545Y16912D01*
X398598Y15088D01*
X400088Y13598D01*
X401912Y12545D01*
X403947Y12000D01*
X406053D01*
X408088Y12545D01*
X409912Y13598D01*
X411402Y15088D01*
X412455Y16912D01*
X413000Y18947D01*
Y21053D01*
X412455Y23088D01*
X411402Y24912D01*
X409912Y26402D01*
X408088Y27455D01*
X406053Y28000D01*
D02*
G37*
G36*
X386053D02*
X383947D01*
X381912Y27455D01*
X380088Y26402D01*
X378598Y24912D01*
X377545Y23088D01*
X377000Y21053D01*
Y18947D01*
X377545Y16912D01*
X378598Y15088D01*
X380088Y13598D01*
X381912Y12545D01*
X383947Y12000D01*
X386053D01*
X388088Y12545D01*
X389912Y13598D01*
X391402Y15088D01*
X392455Y16912D01*
X393000Y18947D01*
Y21053D01*
X392455Y23088D01*
X391402Y24912D01*
X389912Y26402D01*
X388088Y27455D01*
X386053Y28000D01*
D02*
G37*
G36*
X366053D02*
X363947D01*
X361912Y27455D01*
X360088Y26402D01*
X358598Y24912D01*
X357545Y23088D01*
X357000Y21053D01*
Y18947D01*
X357545Y16912D01*
X358598Y15088D01*
X360088Y13598D01*
X361912Y12545D01*
X363947Y12000D01*
X366053D01*
X368088Y12545D01*
X369912Y13598D01*
X371402Y15088D01*
X372455Y16912D01*
X373000Y18947D01*
Y21053D01*
X372455Y23088D01*
X371402Y24912D01*
X369912Y26402D01*
X368088Y27455D01*
X366053Y28000D01*
D02*
G37*
G36*
X348250Y28093D02*
X341750D01*
X339897Y27724D01*
X338325Y26675D01*
X337276Y25103D01*
X336907Y23250D01*
Y16750D01*
X337276Y14897D01*
X338325Y13325D01*
X339897Y12276D01*
X341750Y11907D01*
X348250D01*
X350103Y12276D01*
X351675Y13325D01*
X352724Y14897D01*
X353093Y16750D01*
Y23250D01*
X352724Y25103D01*
X351675Y26675D01*
X350103Y27724D01*
X348250Y28093D01*
D02*
G37*
G36*
X522600Y284700D02*
X518850D01*
Y281000D01*
X522600D01*
Y284700D01*
D02*
G37*
G36*
Y279000D02*
X518850D01*
Y275300D01*
X522600D01*
Y279000D01*
D02*
G37*
G36*
X520250Y271500D02*
X515250D01*
Y266000D01*
X520250D01*
Y271500D01*
D02*
G37*
G36*
Y264000D02*
X515250D01*
Y258500D01*
X520250D01*
Y264000D01*
D02*
G37*
G36*
X528250Y248603D02*
X526000D01*
Y241000D01*
X533603D01*
Y243250D01*
X533195Y245298D01*
X532035Y247035D01*
X530298Y248195D01*
X528250Y248603D01*
D02*
G37*
G36*
X524000D02*
X521750D01*
X519702Y248195D01*
X517965Y247035D01*
X516805Y245298D01*
X516397Y243250D01*
Y241000D01*
X524000D01*
Y248603D01*
D02*
G37*
G36*
X533603Y239000D02*
X526000D01*
Y231397D01*
X528250D01*
X530298Y231805D01*
X532035Y232965D01*
X533195Y234702D01*
X533603Y236750D01*
Y239000D01*
D02*
G37*
G36*
X524000D02*
X516397D01*
Y236750D01*
X516805Y234702D01*
X517965Y232965D01*
X519702Y231805D01*
X521750Y231397D01*
X524000D01*
Y239000D01*
D02*
G37*
G36*
X156800Y94000D02*
X147800D01*
Y85000D01*
X148117D01*
X150660Y85681D01*
X152940Y86998D01*
X154802Y88860D01*
X156118Y91140D01*
X156800Y93684D01*
Y94000D01*
D02*
G37*
G36*
X145800D02*
X136800D01*
Y93684D01*
X137481Y91140D01*
X138798Y88860D01*
X140660Y86998D01*
X142940Y85681D01*
X145484Y85000D01*
X145800D01*
Y94000D01*
D02*
G37*
G36*
X50000Y105332D02*
X47520Y105006D01*
X45209Y104048D01*
X43225Y102525D01*
X41702Y100541D01*
X40745Y98230D01*
X40418Y95750D01*
Y94250D01*
X40745Y91770D01*
X41702Y89459D01*
X43225Y87474D01*
X45209Y85952D01*
X47520Y84994D01*
X50000Y84668D01*
X52480Y84994D01*
X54791Y85952D01*
X56775Y87474D01*
X58298Y89459D01*
X59255Y91770D01*
X59582Y94250D01*
Y95750D01*
X59255Y98230D01*
X58298Y100541D01*
X56775Y102525D01*
X54791Y104048D01*
X52480Y105006D01*
X50000Y105332D01*
D02*
G37*
G36*
X37322Y64500D02*
X36000D01*
Y36000D01*
X64500D01*
Y37322D01*
X63774Y41908D01*
X62339Y46324D01*
X60231Y50461D01*
X57501Y54218D01*
X54218Y57501D01*
X50461Y60231D01*
X46324Y62339D01*
X41908Y63774D01*
X37322Y64500D01*
D02*
G37*
G36*
X23250Y66000D02*
X10750D01*
Y65757D01*
X11702Y63460D01*
X13460Y61701D01*
X15757Y60750D01*
X16900D01*
X18106Y59486D01*
X18094Y59181D01*
X15782Y57501D01*
X12499Y54218D01*
X9769Y50461D01*
X7661Y46324D01*
X6226Y41908D01*
X5500Y37322D01*
Y36000D01*
X34000D01*
Y64500D01*
X32678D01*
X28092Y63774D01*
X23676Y62339D01*
X22244Y61609D01*
X21488Y62649D01*
X22299Y63460D01*
X23250Y65757D01*
Y66000D01*
D02*
G37*
G36*
X64500Y34000D02*
X36000D01*
Y5500D01*
X37322D01*
X41908Y6226D01*
X46324Y7661D01*
X50461Y9769D01*
X54218Y12499D01*
X57501Y15782D01*
X60231Y19539D01*
X62339Y23676D01*
X63774Y28092D01*
X64500Y32678D01*
Y34000D01*
D02*
G37*
G36*
X34000D02*
X5500D01*
Y32678D01*
X6226Y28092D01*
X7661Y23676D01*
X9769Y19539D01*
X12499Y15782D01*
X15782Y12499D01*
X19539Y9769D01*
X23676Y7661D01*
X28092Y6226D01*
X32678Y5500D01*
X34000D01*
Y34000D01*
D02*
G37*
%LPD*%
D11*
X387000Y111750D02*
X395750D01*
X402000Y118000D02*
Y128000D01*
X395750Y111750D02*
X402000Y118000D01*
X387000Y107000D02*
Y111750D01*
X435000Y123000D02*
Y131605D01*
X439395Y136000D01*
X443500D01*
X456500Y123000D02*
X460000D01*
X466000Y117000D02*
X478000D01*
X460000Y123000D02*
X466000Y117000D01*
X467172Y121500D02*
X474500D01*
X476141Y131891D02*
X476250Y132000D01*
X476141Y123141D02*
Y131891D01*
X474500Y121500D02*
X476141Y123141D01*
X372004Y94500D02*
X390500D01*
X408750Y112750D01*
X425000D01*
X315000Y110000D02*
X325000Y100000D01*
X390000D02*
X410000Y120000D01*
X325000Y100000D02*
X390000D01*
X407000Y62000D02*
X413500Y55500D01*
X428004D01*
X407000Y62000D02*
X428004D01*
X372004Y75000D02*
X394000D01*
X407000Y62000D01*
X352500Y81787D02*
Y82500D01*
X358500Y68500D02*
X372004D01*
X352000Y75000D02*
X358500Y68500D01*
X352000Y75000D02*
Y82000D01*
Y62000D02*
X352000Y62000D01*
X372004D02*
X372004Y62000D01*
X352000Y62000D02*
X372004D01*
X284856Y172250D02*
X294106Y163000D01*
X353000D01*
X356538Y174288D02*
X356750Y174500D01*
X356538Y166538D02*
Y174288D01*
X353000Y163000D02*
X356538Y166538D01*
X356000Y159000D02*
X363250Y166250D01*
X294000Y159000D02*
X356000D01*
X363250Y166250D02*
Y189250D01*
X285000Y150000D02*
X294000Y159000D01*
X297000Y185000D02*
Y210000D01*
X251500Y304500D02*
X257000Y299000D01*
X251500Y304500D02*
Y324500D01*
X257000Y299000D02*
X271000D01*
X341000Y151000D02*
X356000D01*
X349000Y198500D02*
X349250Y198750D01*
X356750D01*
X365500Y207500D02*
X390500D01*
X356750Y198750D02*
X365500Y207500D01*
X356750Y174500D02*
Y198750D01*
X404000Y299000D02*
Y318500D01*
Y298000D02*
Y299000D01*
X271000Y298000D02*
X289000Y280000D01*
X404000Y318500D02*
X404500Y319000D01*
X408500Y262000D02*
X417000D01*
X429549Y249451D02*
X435549D01*
X417000Y262000D02*
X429549Y249451D01*
X435549D02*
X445000Y240000D01*
X411000Y280000D02*
X427000Y264000D01*
X481000D02*
X505000Y240000D01*
X427000Y264000D02*
X481000D01*
X385000Y262000D02*
X399500D01*
X438000Y352250D02*
Y361000D01*
X437750Y352000D02*
X438000Y352250D01*
X386750Y352000D02*
X387000Y352250D01*
Y361000D01*
X336000Y352250D02*
Y361000D01*
X335750Y352000D02*
X336000Y352250D01*
X289000Y280000D02*
X411000D01*
X455000Y318500D02*
X455500Y319000D01*
X455000Y303000D02*
Y318500D01*
Y220000D02*
X464122Y210878D01*
Y207878D02*
Y210878D01*
Y207878D02*
X472000Y200000D01*
X486000D01*
X406500Y68500D02*
X428004D01*
X402000Y73000D02*
Y88000D01*
Y73000D02*
X406500Y68500D01*
X402000Y88000D02*
X402000Y88000D01*
X428004D01*
X155046Y37000D02*
X230000D01*
X132023Y60023D02*
X155046Y37000D01*
X117500Y65000D02*
X140000Y42500D01*
Y25750D02*
Y42500D01*
X109500Y65000D02*
X117500D01*
X298000Y103000D02*
X312000Y89000D01*
X287875Y103000D02*
X298000D01*
X401000Y153000D02*
X413000Y165000D01*
X394500Y153000D02*
X401000D01*
X228000Y69000D02*
X258250D01*
X219000Y60000D02*
X228000Y69000D01*
X488750Y352000D02*
X501000D01*
X486000Y200000D02*
X488963Y197037D01*
Y188287D02*
Y197037D01*
Y188287D02*
X489250Y188000D01*
X399500Y192500D02*
X417500D01*
X423000Y187000D01*
X445000Y55250D02*
X474750D01*
X428254D02*
X445000D01*
X425000Y112750D02*
X494750D01*
X425000D02*
Y120000D01*
X274000Y20000D02*
X283000D01*
X270000Y24000D02*
X274000Y20000D01*
X270000Y24000D02*
Y50000D01*
X263000Y57000D02*
X270000Y50000D01*
X250000Y57000D02*
X263000D01*
X230000Y37000D02*
X250000Y57000D01*
X198000Y152000D02*
X233000D01*
X243000Y162000D02*
Y185000D01*
X233000Y152000D02*
X243000Y162000D01*
X177000Y141000D02*
X187000D01*
X198000Y152000D01*
X170000Y134000D02*
X177000Y141000D01*
X169250Y134000D02*
X170000D01*
X135800D02*
X169250D01*
X176000Y14000D02*
X179750D01*
X180000Y14250D01*
X169250Y7250D02*
X176000Y14000D01*
X153204Y7250D02*
X169250D01*
X149000Y11454D02*
X153204Y7250D01*
X149000Y11454D02*
Y23000D01*
X156000Y14000D02*
X164750D01*
X165000Y14250D01*
X117500Y45000D02*
X125000Y37500D01*
Y25750D02*
Y37500D01*
X180000Y25750D02*
X237250D01*
X243000Y20000D02*
X257000D01*
X237250Y25750D02*
X243000Y20000D01*
X167750Y28500D02*
X171250Y32000D01*
X237000D02*
X250000Y45000D01*
X171250Y32000D02*
X237000D01*
X250000Y45000D02*
X257000D01*
X167000Y28500D02*
X167750D01*
X165000Y25750D02*
Y26500D01*
X167000Y28500D01*
X372768Y299232D02*
Y304000D01*
Y299232D02*
X373000Y299000D01*
Y304232D02*
Y309464D01*
X372768Y304000D02*
X373000Y304232D01*
X353213Y81787D02*
X371717D01*
X352500Y82500D02*
X353213Y81787D01*
X371717D02*
X372004Y81500D01*
X287000Y128500D02*
Y134000D01*
Y123000D02*
Y128500D01*
X278500D02*
X287000D01*
X278000Y129000D02*
X278500Y128500D01*
X356000Y151000D02*
X366000Y161000D01*
X372004Y88000D02*
X390954D01*
X366000Y161000D02*
X374000Y153000D01*
X385500D01*
X369750Y164750D02*
Y174500D01*
X366000Y161000D02*
X369750Y164750D01*
X463098Y109250D02*
X467348Y105000D01*
X502500D01*
X390954Y88000D02*
X412204Y109250D01*
X463098D01*
X381000Y329500D02*
X388000D01*
X358500D02*
X381000D01*
Y317465D02*
Y329500D01*
X373000Y309464D02*
X381000Y317465D01*
X330000Y329500D02*
X337000D01*
X305500D02*
X330000D01*
X322000Y299000D02*
Y309464D01*
X330000Y317465D01*
Y329500D01*
X256000Y329000D02*
X286000D01*
X285000Y71000D02*
Y76500D01*
X269750Y69000D02*
X283000D01*
X285000Y71000D01*
X271000Y89000D02*
X274500Y85500D01*
X285000D01*
X271000Y89000D02*
Y94000D01*
X292000Y139000D02*
X303000D01*
X315000Y127000D01*
X287000Y134000D02*
X292000Y139000D01*
X315000Y110000D02*
Y127000D01*
X251000Y103500D02*
X267500D01*
X287000Y123000D01*
X304000D02*
X310125Y116875D01*
Y103000D02*
Y116875D01*
X271000Y99000D02*
X291172Y119172D01*
X294000D01*
X297000Y122172D02*
Y125000D01*
X271000Y94000D02*
Y99000D01*
X294000Y119172D02*
X297000Y122172D01*
X369750Y106250D02*
Y115500D01*
X371000Y105000D02*
X385000D01*
X369750Y106250D02*
X371000Y105000D01*
X385000D02*
X387000Y107000D01*
X299000Y123000D02*
X304000D01*
X297000Y125000D02*
X299000Y123000D01*
X218000Y121000D02*
X221000Y124000D01*
X176500Y114500D02*
X203500D01*
X210000Y121000D01*
X218000D01*
X221000Y124000D02*
Y125000D01*
X170000Y121000D02*
X176500Y114500D01*
X169250Y121000D02*
X170000D01*
X251500Y324500D02*
X256000Y329000D01*
X302500Y326500D02*
X305500Y329500D01*
X302500Y319000D02*
Y326500D01*
X353500Y324500D02*
X358500Y329500D01*
X353500Y319000D02*
Y324500D01*
X409500Y329500D02*
X439000D01*
X404500Y324500D02*
X409500Y329500D01*
X404500Y319000D02*
Y324500D01*
X460500Y329500D02*
X490000D01*
X455500Y324500D02*
X460500Y329500D01*
X455500Y319000D02*
Y324500D01*
X453500Y344500D02*
Y352000D01*
Y344500D02*
X459000Y339000D01*
X465000D01*
X402500Y344500D02*
Y352000D01*
Y344500D02*
X408000Y339000D01*
X414000D01*
X351500Y343500D02*
X356000Y339000D01*
X351500Y343500D02*
Y352000D01*
X356000Y339000D02*
X363000D01*
X300500Y344500D02*
Y352000D01*
Y344500D02*
X306000Y339000D01*
X312000D01*
X258000Y347000D02*
X261000Y344000D01*
X258000Y351500D02*
X258500Y352000D01*
X258000Y347000D02*
Y351500D01*
X261000Y339000D02*
Y344000D01*
X462500Y352000D02*
X477250D01*
X411500D02*
X426250D01*
X360500D02*
X375250D01*
X309500D02*
X324250D01*
X258500D02*
X273500D01*
X146800Y145000D02*
X148800Y147000D01*
X169250D01*
X121800Y120000D02*
X135800Y134000D01*
X147800Y121000D02*
X169250D01*
X146800Y120000D02*
X147800Y121000D01*
X121800Y95000D02*
X134800Y108000D01*
X169250D01*
X146800Y95000D02*
X169250D01*
X456250Y162500D02*
Y177250D01*
X454400Y162500D02*
X454400Y162500D01*
X454400Y149000D02*
Y162500D01*
X452500Y136000D02*
X460000D01*
X465000Y131000D01*
Y123672D02*
Y131000D01*
X482750Y121750D02*
Y132000D01*
X478000Y117000D02*
X482750Y121750D01*
X465000Y123672D02*
X467172Y121500D01*
X363250Y189250D02*
X366500Y192500D01*
X390500D01*
Y179750D02*
Y192500D01*
X390000Y179250D02*
X390500Y179750D01*
X446250Y95000D02*
Y95500D01*
X443250Y98500D02*
X446250Y95500D01*
X432500Y102500D02*
X433500Y101500D01*
X442750Y98500D02*
X443250D01*
X439750Y101500D02*
X442750Y98500D01*
X433500Y101500D02*
X439750D01*
X70000Y15000D02*
X85000D01*
X92000Y8000D01*
X129036D01*
X132535Y11500D01*
X138000D01*
X140000Y13500D01*
Y14250D01*
X72500Y35000D02*
X93250Y14250D01*
X125000D01*
X72500Y35000D02*
Y85000D01*
X110500Y45000D02*
X117500D01*
X111400Y335000D02*
X130000D01*
X111400Y347500D02*
X127500D01*
X111400Y360000D02*
X130000D01*
X170000Y210500D02*
X182500D01*
X182500Y210500D01*
X170000Y210000D02*
Y210500D01*
X109500Y200950D02*
X160950D01*
X170000Y210000D01*
X157100Y211100D02*
X157500D01*
X157000Y211000D02*
X157100Y211100D01*
X149000Y217000D02*
X155000Y211000D01*
X145000Y219000D02*
Y219500D01*
Y219000D02*
X147000Y217000D01*
X149000D01*
X144400Y211100D02*
X145000Y210500D01*
X132500Y211100D02*
X144400D01*
X132400Y211000D02*
X132500Y211100D01*
X122000Y211000D02*
X132400D01*
X109500Y213650D02*
X119350D01*
X122000Y211000D01*
X128900Y255000D02*
X145000D01*
X110000D02*
X121100D01*
X55000Y239550D02*
Y255000D01*
Y239550D02*
X55500Y239050D01*
X55000Y200450D02*
X55500Y200950D01*
X55000Y183900D02*
Y200450D01*
X37500Y232500D02*
Y241100D01*
X427730Y75273D02*
X428004Y75000D01*
X410821Y75547D02*
X411094Y75273D01*
X427730D01*
X428004Y81500D02*
X486500D01*
X487500Y82500D01*
X465130Y177500D02*
X465130Y177500D01*
X472000D02*
X476250Y181750D01*
X456000Y177500D02*
X465130D01*
X465130Y177500D02*
X472000D01*
X476250Y181750D02*
Y188000D01*
X456000Y177500D02*
X456250Y177250D01*
X487500Y170000D02*
X489250Y171750D01*
Y188000D01*
X474750Y55250D02*
X475000Y55000D01*
X428004Y55500D02*
X428254Y55250D01*
X469750Y144750D02*
X475000Y150000D01*
X469750Y132000D02*
Y144750D01*
X494750Y112750D02*
X495000Y112500D01*
X495750Y173509D02*
X497500Y171759D01*
Y170000D02*
Y171759D01*
X495750Y173509D02*
Y188000D01*
X428004Y94500D02*
X445750D01*
X446250Y95000D01*
D12*
X207000Y108000D02*
X238000D01*
X243000Y113000D02*
Y125000D01*
X238000Y108000D02*
X243000Y113000D01*
X184000Y85000D02*
X207000Y108000D01*
X157000Y85000D02*
X184000D01*
D14*
X494740Y50440D02*
X499818D01*
X497279D01*
Y65675D01*
X494740Y63136D01*
D17*
X297000Y185000D02*
D03*
X265000D02*
D03*
X243000D02*
D03*
X221000D02*
D03*
Y125000D02*
D03*
X243000D02*
D03*
X265000D02*
D03*
X297000D02*
D03*
D18*
X312000Y339000D02*
D03*
X321500Y319000D02*
D03*
X302500D02*
D03*
X337000Y329500D02*
D03*
Y338500D02*
D03*
X439000Y329500D02*
D03*
Y338500D02*
D03*
X414000Y339000D02*
D03*
X423500Y319000D02*
D03*
X404500D02*
D03*
X286000Y329000D02*
D03*
Y338000D02*
D03*
X261000Y339000D02*
D03*
X270500Y319000D02*
D03*
X251500D02*
D03*
X465000Y339000D02*
D03*
X474500Y319000D02*
D03*
X455500D02*
D03*
X490000Y329500D02*
D03*
Y338500D02*
D03*
X388000Y329500D02*
D03*
Y338500D02*
D03*
X363000Y339000D02*
D03*
X372500Y319000D02*
D03*
X353500D02*
D03*
X349000Y198500D02*
D03*
Y189500D02*
D03*
X182500Y219500D02*
D03*
Y210500D02*
D03*
X170000Y210500D02*
D03*
Y219500D02*
D03*
X145000Y210500D02*
D03*
Y219500D02*
D03*
X530000Y189500D02*
D03*
Y180500D02*
D03*
Y151500D02*
D03*
Y160500D02*
D03*
X285000Y76500D02*
D03*
Y85500D02*
D03*
D19*
X269750Y69000D02*
D03*
X258250D02*
D03*
X426250Y352000D02*
D03*
X437750D02*
D03*
X324250D02*
D03*
X335750D02*
D03*
X273500D02*
D03*
X285000D02*
D03*
X488750D02*
D03*
X477250D02*
D03*
X375250D02*
D03*
X386750D02*
D03*
X169250Y108000D02*
D03*
X180750D02*
D03*
X169250Y134000D02*
D03*
X180750D02*
D03*
X169250Y147000D02*
D03*
X180750D02*
D03*
Y95000D02*
D03*
X169250D02*
D03*
X180750Y121000D02*
D03*
X169250D02*
D03*
D20*
X402500Y352000D02*
D03*
X411500D02*
D03*
X300500D02*
D03*
X309500D02*
D03*
X258500D02*
D03*
X249500D02*
D03*
X271000Y94000D02*
D03*
X251000Y84500D02*
D03*
Y103500D02*
D03*
X233500Y99000D02*
D03*
X224500D02*
D03*
X453500Y352000D02*
D03*
X462500D02*
D03*
X351500D02*
D03*
X360500D02*
D03*
X445500Y136000D02*
D03*
X454500D02*
D03*
X445500Y123000D02*
D03*
X454500D02*
D03*
X390500Y192500D02*
D03*
X399500D02*
D03*
X394500Y153000D02*
D03*
X385500D02*
D03*
X399500Y207500D02*
D03*
X390500D02*
D03*
X399500Y262000D02*
D03*
X408500D02*
D03*
X475500Y207500D02*
D03*
X484500D02*
D03*
X514500D02*
D03*
X505500D02*
D03*
X100500Y65000D02*
D03*
X109500D02*
D03*
D21*
X436000Y284000D02*
D03*
X480000D02*
D03*
D22*
X310125Y103000D02*
D03*
X287875D02*
D03*
D23*
X445600Y149000D02*
D03*
X454400D02*
D03*
X445600Y162500D02*
D03*
X454400D02*
D03*
D24*
X372004Y94500D02*
D03*
Y88000D02*
D03*
Y81500D02*
D03*
Y75000D02*
D03*
Y68500D02*
D03*
Y62000D02*
D03*
Y55500D02*
D03*
X428004Y94500D02*
D03*
Y88000D02*
D03*
Y81500D02*
D03*
Y75000D02*
D03*
Y68500D02*
D03*
Y62000D02*
D03*
Y55500D02*
D03*
D25*
X387000Y124250D02*
D03*
Y111750D02*
D03*
X390000Y166750D02*
D03*
Y179250D02*
D03*
X530000Y133750D02*
D03*
Y121250D02*
D03*
D26*
X125000Y14250D02*
D03*
Y25750D02*
D03*
X180000Y14250D02*
D03*
Y25750D02*
D03*
X140000Y14250D02*
D03*
Y25750D02*
D03*
X165000Y14250D02*
D03*
Y25750D02*
D03*
D27*
X111400Y360000D02*
D03*
X103600D02*
D03*
X111400Y347500D02*
D03*
X103600D02*
D03*
X111400Y335000D02*
D03*
X103600D02*
D03*
X128900Y255000D02*
D03*
X121100D02*
D03*
X523600Y280000D02*
D03*
X531400D02*
D03*
D28*
X185000Y362000D02*
D03*
Y273000D02*
D03*
D29*
X157500Y211100D02*
D03*
Y218900D02*
D03*
X132500Y218900D02*
D03*
Y211100D02*
D03*
X37500Y241100D02*
D03*
Y248900D02*
D03*
X55000Y183900D02*
D03*
Y176100D02*
D03*
D30*
X17500Y274500D02*
D03*
Y245500D02*
D03*
D31*
X115000Y277500D02*
D03*
D32*
X91490D02*
D03*
D33*
X109500Y239050D02*
D03*
Y226350D02*
D03*
Y213650D02*
D03*
Y200950D02*
D03*
X55500D02*
D03*
Y213650D02*
D03*
Y226350D02*
D03*
Y239050D02*
D03*
D34*
X350250Y115500D02*
D03*
X356750D02*
D03*
X363250D02*
D03*
X369750D02*
D03*
X350250Y174500D02*
D03*
X356750D02*
D03*
X363250D02*
D03*
X369750D02*
D03*
D35*
X533750Y265000D02*
D03*
X521250D02*
D03*
X456250Y192500D02*
D03*
X443750D02*
D03*
X458750Y95000D02*
D03*
X446250D02*
D03*
D36*
X515250Y188000D02*
D03*
X508750D02*
D03*
X502250D02*
D03*
X495750D02*
D03*
X489250D02*
D03*
X482750D02*
D03*
X476250D02*
D03*
X469750D02*
D03*
X515250Y132000D02*
D03*
X508750D02*
D03*
X502250D02*
D03*
X495750D02*
D03*
X489250D02*
D03*
X482750D02*
D03*
X476250D02*
D03*
X469750D02*
D03*
D37*
X283000Y20000D02*
D03*
X257000D02*
D03*
X110500Y45000D02*
D03*
X84500D02*
D03*
X257000D02*
D03*
X283000D02*
D03*
D38*
X514000Y105000D02*
D03*
X526000D02*
D03*
X444000Y177500D02*
D03*
X456000D02*
D03*
D39*
X345000Y240000D02*
D03*
X365000D02*
D03*
X385000D02*
D03*
X505000D02*
D03*
X485000D02*
D03*
X465000D02*
D03*
X445000D02*
D03*
X425000D02*
D03*
X405000D02*
D03*
X525000Y20000D02*
D03*
X505000D02*
D03*
X485000D02*
D03*
X365000D02*
D03*
X385000D02*
D03*
X405000D02*
D03*
X425000D02*
D03*
X445000D02*
D03*
X465000D02*
D03*
D40*
X525000Y240000D02*
D03*
X345000Y20000D02*
D03*
D41*
X35000Y35000D02*
D03*
Y340000D02*
D03*
D42*
X146800Y95000D02*
D03*
Y120000D02*
D03*
Y145000D02*
D03*
X121800Y95000D02*
D03*
Y120000D02*
D03*
Y145000D02*
D03*
D43*
X50000D02*
D03*
Y95000D02*
D03*
D44*
X402000Y128000D02*
D03*
X352000Y62000D02*
D03*
X284856Y172250D02*
D03*
X297000Y210000D02*
D03*
X341000Y151000D02*
D03*
X271000Y299000D02*
D03*
X404000D02*
D03*
X438000Y361000D02*
D03*
X387000D02*
D03*
X336000D02*
D03*
X455000Y303000D02*
D03*
Y220000D02*
D03*
X402000Y88000D02*
D03*
X132023Y60023D02*
D03*
X312000Y89000D02*
D03*
X225000Y305000D02*
D03*
X245000Y265000D02*
D03*
X205000Y345000D02*
D03*
X185000Y305000D02*
D03*
X165000Y345000D02*
D03*
X145000Y305000D02*
D03*
X413000Y165000D02*
D03*
X219000Y60000D02*
D03*
X501000Y352000D02*
D03*
X456000Y204000D02*
D03*
X410000Y202000D02*
D03*
X423000Y187000D02*
D03*
X425000Y120000D02*
D03*
X230000Y161000D02*
D03*
X17000Y67000D02*
D03*
X85000Y65000D02*
D03*
X149000Y23000D02*
D03*
X156000Y14000D02*
D03*
X285000Y150000D02*
D03*
X352000Y82000D02*
D03*
X278000Y129000D02*
D03*
X502500Y105000D02*
D03*
X373000Y299000D02*
D03*
X322000D02*
D03*
X435000Y123000D02*
D03*
X432500Y102500D02*
D03*
X70000Y15000D02*
D03*
X110000Y255000D02*
D03*
X55000D02*
D03*
X410821Y75547D02*
D03*
X410000Y120000D02*
D03*
X474110Y226653D02*
D03*
X487500Y82500D02*
D03*
Y170000D02*
D03*
X475000Y55000D02*
D03*
Y150000D02*
D03*
X495000Y112500D02*
D03*
X497500Y170000D02*
D03*
X432500Y192500D02*
D03*
X527500Y92500D02*
D03*
X510000Y152500D02*
D03*
X517500Y222500D02*
D03*
D45*
X385000Y262000D02*
D03*
D46*
X435000Y123000D02*
X436244D01*
X445524D01*
X456000Y204000D02*
X456125Y203875D01*
Y192625D02*
Y203875D01*
X399500Y207500D02*
X400381Y206619D01*
X405489D02*
X410000Y202107D01*
X400381Y206619D02*
X405489D01*
X410000Y202000D02*
Y202107D01*
X456125Y192625D02*
X456250Y192500D01*
X244500Y103500D02*
X251000D01*
X240000Y99000D02*
X244500Y103500D01*
X233500Y99000D02*
X240000D01*
X480000Y284000D02*
X480500Y283500D01*
X446000Y122500D02*
Y122524D01*
X445524Y123000D02*
X446000Y122524D01*
X474000Y207500D02*
Y226543D01*
X513975Y150000D02*
X530000D01*
X474000Y226543D02*
X474110Y226653D01*
X433543Y188457D02*
X444000Y178000D01*
X433543Y188457D02*
Y191457D01*
X432500Y192500D02*
X433543Y191457D01*
X444000Y177500D02*
Y178000D01*
X469541Y192500D02*
X469750Y192291D01*
X456250Y192500D02*
X469541D01*
X469750Y188000D02*
Y192291D01*
X508750Y119302D02*
X514000Y114052D01*
Y105000D02*
Y114052D01*
X508750Y119302D02*
Y132000D01*
X526750Y93250D02*
Y104250D01*
Y93250D02*
X527500Y92500D01*
X526000Y105000D02*
X526750Y104250D01*
X508750Y141250D02*
X511613Y144113D01*
X519137D01*
X508750Y132000D02*
Y141250D01*
X519137Y144113D02*
X529500Y133750D01*
X530000D01*
X511475Y152500D02*
X513975Y150000D01*
X510000Y152500D02*
X511475D01*
X502250Y188000D02*
X502337Y187913D01*
Y177663D02*
Y187913D01*
X518000Y162000D02*
X530000D01*
X502337Y177663D02*
X518000Y162000D01*
X530000Y191000D02*
Y195000D01*
X527500Y197500D02*
X530000Y195000D01*
X518622Y197500D02*
X527500D01*
X515250Y194128D02*
X518622Y197500D01*
X515250Y188000D02*
Y194128D01*
X504000Y207500D02*
X505000Y206500D01*
Y202500D02*
Y206500D01*
X508664Y188086D02*
Y198836D01*
X505000Y202500D02*
X508664Y198836D01*
Y188086D02*
X508750Y188000D01*
X516000Y207500D02*
X516750Y208250D01*
Y221750D01*
X517500Y222500D01*
X485500Y208000D02*
X486000Y207500D01*
X485500Y208000D02*
Y239500D01*
X485000Y240000D02*
X485500Y239500D01*
X504000Y207500D02*
X504500Y208000D01*
Y239500D01*
D47*
X109500Y239050D02*
X129050D01*
X41350Y226350D02*
X55500D01*
D48*
X115000Y277500D02*
X132500D01*
X157000Y273000D02*
X185000D01*
X17500Y232500D02*
Y245500D01*
M02*
