G04*
G04 #@! TF.GenerationSoftware,Altium Limited,Altium Designer,24.1.2 (44)*
G04*
G04 Layer_Color=32896*
%FSLAX44Y44*%
%MOMM*%
G71*
G04*
G04 #@! TF.SameCoordinates,8940CB7B-32E8-470A-AB05-D825E909EC58*
G04*
G04*
G04 #@! TF.FilePolarity,Positive*
G04*
G01*
G75*
%ADD11C,0.2000*%
%ADD15C,0.1270*%
G36*
X569975Y102700D02*
Y102625D01*
X570050D01*
Y102775D01*
X569975D01*
Y102700D01*
D02*
G37*
G36*
X611225Y84850D02*
Y84700D01*
X611300D01*
Y84850D01*
X611375D01*
Y84925D01*
X611300D01*
Y84850D01*
X611225D01*
D02*
G37*
D11*
X243355Y168602D02*
Y172602D01*
Y168602D02*
X247355D01*
X276660Y168608D02*
X280660D01*
Y172608D01*
X243353Y187398D02*
X247353D01*
X243353Y183398D02*
Y187398D01*
X280643Y183392D02*
Y187392D01*
X276643D02*
X280643D01*
X243355Y141102D02*
Y145102D01*
Y141102D02*
X247355D01*
X276660Y141108D02*
X280660D01*
Y145108D01*
X243353Y159898D02*
X247353D01*
X243353Y155898D02*
Y159898D01*
X280643Y155892D02*
Y159892D01*
X276643D02*
X280643D01*
X406355Y263602D02*
Y267602D01*
Y263602D02*
X410355D01*
X439660Y263608D02*
X443660D01*
Y267608D01*
X406353Y282398D02*
X410353D01*
X406353Y278398D02*
Y282398D01*
X443643Y278392D02*
Y282392D01*
X439643D02*
X443643D01*
X312602Y347645D02*
X316602D01*
X312602Y343645D02*
Y347645D01*
X312608Y310340D02*
Y314340D01*
Y310340D02*
X316608D01*
X331398Y343647D02*
Y347647D01*
X327398D02*
X331398D01*
X327392Y310357D02*
X331392D01*
Y314357D01*
X261602Y347645D02*
X265602D01*
X261602Y343645D02*
Y347645D01*
X261608Y310340D02*
Y314340D01*
Y310340D02*
X265608D01*
X280398Y343647D02*
Y347647D01*
X276398D02*
X280398D01*
X276392Y310357D02*
X280392D01*
Y314357D01*
X420608Y75643D02*
Y79643D01*
X424608D01*
X420602Y42353D02*
X424602D01*
X420602D02*
Y46353D01*
X435392Y79660D02*
X439392D01*
Y75660D02*
Y79660D01*
X439398Y42355D02*
Y46355D01*
X435398Y42355D02*
X439398D01*
X435398Y141355D02*
X439398D01*
Y145355D01*
X439392Y174660D02*
Y178660D01*
X435392D02*
X439392D01*
X420602Y141353D02*
Y145353D01*
Y141353D02*
X424602D01*
X420608Y178643D02*
X424608D01*
X420608Y174643D02*
Y178643D01*
X363852Y348145D02*
X367852D01*
X363852Y344145D02*
Y348145D01*
X363858Y310840D02*
Y314840D01*
Y310840D02*
X367858D01*
X382648Y344147D02*
Y348147D01*
X378648D02*
X382648D01*
X378642Y310857D02*
X382642D01*
Y314857D01*
X484392Y310357D02*
Y314357D01*
X480392Y310357D02*
X484392D01*
X480398Y347647D02*
X484398D01*
Y343647D02*
Y347647D01*
X465608Y310340D02*
X469608D01*
X465608D02*
Y314340D01*
X465602Y343645D02*
Y347645D01*
X469602D01*
X414602D02*
X418602D01*
X414602Y343645D02*
Y347645D01*
X414608Y310340D02*
Y314340D01*
Y310340D02*
X418608D01*
X433398Y343647D02*
Y347647D01*
X429398D02*
X433398D01*
X429392Y310357D02*
X433392D01*
Y314357D01*
X239392Y66357D02*
Y70357D01*
X235392Y66357D02*
X239392D01*
X235398Y103647D02*
X239398D01*
Y99647D02*
Y103647D01*
X220608Y66340D02*
X224608D01*
X220608D02*
Y70340D01*
X220602Y99645D02*
Y103645D01*
X224602D01*
X195602D02*
X199602D01*
X195602Y99645D02*
Y103645D01*
X195608Y66340D02*
Y70340D01*
Y66340D02*
X199608D01*
X214398Y99647D02*
Y103647D01*
X210398D02*
X214398D01*
X210392Y66357D02*
X214392D01*
Y70357D01*
X170602Y103645D02*
X174602D01*
X170602Y99645D02*
Y103645D01*
X170608Y66340D02*
Y70340D01*
Y66340D02*
X174608D01*
X189398Y99647D02*
Y103647D01*
X185398D02*
X189398D01*
X185392Y66357D02*
X189392D01*
Y70357D01*
X260398Y66355D02*
X264398D01*
Y70355D01*
X264392Y99660D02*
Y103660D01*
X260392D02*
X264392D01*
X245602Y66353D02*
Y70353D01*
Y66353D02*
X249602D01*
X245608Y103643D02*
X249608D01*
X245608Y99643D02*
Y103643D01*
D15*
X418809Y59809D02*
Y66157D01*
Y58540D02*
Y57270D01*
X411191Y64887D02*
X416270D01*
Y61079D01*
X413730D01*
X416270D01*
Y57270D01*
X435157Y285112D02*
Y292730D01*
X431348D01*
X430078Y291460D01*
Y288921D01*
X431348Y287652D01*
X435157D01*
X427539Y292730D02*
Y285112D01*
X425000Y287652D01*
X422461Y285112D01*
Y292730D01*
X419922Y285112D02*
Y292730D01*
X417382Y290191D01*
X414843Y292730D01*
Y285112D01*
X476270Y359888D02*
X481348D01*
Y356079D01*
X478809D01*
X481348D01*
Y352270D01*
X473730D02*
Y359888D01*
X469922D01*
X468652Y358618D01*
Y356079D01*
X469922Y354809D01*
X473730D01*
X328348Y353270D02*
Y360887D01*
X324539D01*
X323270Y359618D01*
Y357079D01*
X324539Y355809D01*
X328348D01*
X325809D02*
X323270Y353270D01*
X315652Y360887D02*
X320730D01*
Y357079D01*
X318191D01*
X320730D01*
Y353270D01*
X421461Y359888D02*
X426539D01*
Y356079D01*
X424000D01*
X426539D01*
Y352270D01*
X207539Y108770D02*
X208809Y110040D01*
Y112579D01*
X207539Y113848D01*
X206269D01*
X205000Y112579D01*
Y111309D01*
Y112579D01*
X203730Y113848D01*
X202461D01*
X201191Y112579D01*
Y110040D01*
X202461Y108770D01*
X208809Y116387D02*
X203730D01*
X201191Y118927D01*
X203730Y121466D01*
X208809D01*
X207539Y124005D02*
X208809Y125275D01*
Y127814D01*
X207539Y129083D01*
X206269D01*
X205000Y127814D01*
Y126544D01*
Y127814D01*
X203730Y129083D01*
X202461D01*
X201191Y127814D01*
Y125275D01*
X202461Y124005D01*
X258809Y113848D02*
Y108770D01*
X251191D01*
Y113848D01*
X255000Y108770D02*
Y111309D01*
X251191Y116388D02*
X258809D01*
X251191Y121466D01*
X258809D01*
X268348Y129113D02*
Y134191D01*
X265809Y136730D01*
X263270Y134191D01*
Y129113D01*
Y132921D01*
X268348D01*
X260730Y129113D02*
Y136730D01*
X255652Y129113D01*
Y136730D01*
X176191Y113848D02*
Y108770D01*
X181269Y113848D01*
X182539D01*
X183809Y112579D01*
Y110040D01*
X182539Y108770D01*
X176191Y120196D02*
X183809D01*
X180000Y116387D01*
Y121466D01*
X183809Y124005D02*
X178730D01*
X176191Y126544D01*
X178730Y129083D01*
X183809D01*
X277348Y353270D02*
Y360887D01*
X273539D01*
X272270Y359618D01*
Y357079D01*
X273539Y355809D01*
X277348D01*
X274809D02*
X272270Y353270D01*
X269730Y360887D02*
X264652Y353270D01*
Y360887D02*
X269730Y353270D01*
X374270Y360887D02*
X379348D01*
Y357079D01*
X376809D01*
X379348D01*
Y353270D01*
X366652Y360887D02*
X371730D01*
Y357079D01*
X369191D01*
X371730D01*
Y353270D01*
X272157Y191770D02*
Y199387D01*
X268348D01*
X267078Y198118D01*
Y195579D01*
X268348Y194309D01*
X272157D01*
X269618D02*
X267078Y191770D01*
X259461Y199387D02*
X264539D01*
Y191770D01*
X259461D01*
X264539Y195579D02*
X262000D01*
X251843Y199387D02*
X256922D01*
Y195579D01*
X254382D01*
X256922D01*
Y191770D01*
X232539Y113848D02*
X233809Y112579D01*
Y110040D01*
X232539Y108770D01*
X227461D01*
X226191Y110040D01*
Y112579D01*
X227461Y113848D01*
X230000D01*
Y111309D01*
X226191Y116387D02*
X233809D01*
X226191Y121466D01*
X233809D01*
Y124005D02*
X226191D01*
Y127814D01*
X227461Y129083D01*
X232539D01*
X233809Y127814D01*
Y124005D01*
X431270Y92809D02*
X433809D01*
X432539D01*
Y86461D01*
X433809Y85191D01*
X435078D01*
X436348Y86461D01*
X428730Y92809D02*
X423652D01*
Y91539D01*
X428730Y86461D01*
Y85191D01*
X233809Y48056D02*
Y45517D01*
Y46787D01*
X227461D01*
X226191Y45517D01*
Y44248D01*
X227461Y42978D01*
X226191Y50596D02*
Y53135D01*
Y51865D01*
X233809D01*
X232539Y50596D01*
Y56944D02*
X233809Y58213D01*
Y60752D01*
X232539Y62022D01*
X231270D01*
X230000Y60752D01*
Y59483D01*
Y60752D01*
X228730Y62022D01*
X227461D01*
X226191Y60752D01*
Y58213D01*
X227461Y56944D01*
X258888Y48057D02*
Y45517D01*
Y46787D01*
X252540D01*
X251270Y45517D01*
Y44248D01*
X252540Y42978D01*
X251270Y50596D02*
Y53135D01*
Y51865D01*
X258888D01*
X257618Y50596D01*
Y56944D02*
X258888Y58213D01*
Y60752D01*
X257618Y62022D01*
X252540D01*
X251270Y60752D01*
Y58213D01*
X252540Y56944D01*
X257618D01*
X208730Y49326D02*
Y46787D01*
Y48056D01*
X202382D01*
X201112Y46787D01*
Y45517D01*
X202382Y44248D01*
X201112Y51865D02*
Y54404D01*
Y53135D01*
X208730D01*
X207460Y51865D01*
X201112Y58213D02*
Y60752D01*
Y59483D01*
X208730D01*
X207460Y58213D01*
X431270Y136730D02*
X433809D01*
X432539D01*
Y130382D01*
X433809Y129113D01*
X435078D01*
X436348Y130382D01*
X423652Y136730D02*
X428730D01*
Y132921D01*
X426191Y134191D01*
X424922D01*
X423652Y132921D01*
Y130382D01*
X424922Y129113D01*
X427461D01*
X428730Y130382D01*
X183730Y53730D02*
Y51191D01*
Y52461D01*
X177382D01*
X176112Y51191D01*
Y49922D01*
X177382Y48652D01*
X176112Y61348D02*
Y56270D01*
X181191Y61348D01*
X182460D01*
X183730Y60078D01*
Y57539D01*
X182460Y56270D01*
X393612Y274270D02*
Y276809D01*
Y275539D01*
X399960D01*
X401230Y276809D01*
Y278078D01*
X399960Y279348D01*
X394882Y271730D02*
X393612Y270461D01*
Y267922D01*
X394882Y266652D01*
X396152D01*
X397421Y267922D01*
Y269191D01*
Y267922D01*
X398691Y266652D01*
X399960D01*
X401230Y267922D01*
Y270461D01*
X399960Y271730D01*
M02*
