G04*
G04 #@! TF.GenerationSoftware,Altium Limited,Altium Designer,24.1.2 (44)*
G04*
G04 Layer_Color=8388736*
%FSLAX44Y44*%
%MOMM*%
G71*
G04*
G04 #@! TF.SameCoordinates,8940CB7B-32E8-470A-AB05-D825E909EC58*
G04*
G04*
G04 #@! TF.FilePolarity,Negative*
G04*
G01*
G75*
%ADD17R,0.8000X2.0000*%
%ADD18R,0.6000X0.7000*%
%ADD19R,0.7500X0.6000*%
%ADD20R,0.7000X0.6000*%
%ADD21R,2.5000X1.3000*%
%ADD22R,0.6250X0.8300*%
%ADD23R,0.6000X0.6400*%
%ADD24O,1.6000X0.3500*%
%ADD25R,0.9000X0.8000*%
%ADD26R,0.6000X0.7500*%
%ADD27R,0.5500X0.5400*%
%ADD28R,3.2000X1.6000*%
%ADD29R,0.5400X0.5500*%
%ADD30R,1.8000X1.3000*%
%ADD31R,2.6700X2.5400*%
%ADD32R,0.7620X1.2700*%
%ADD33O,1.5500X0.6000*%
%ADD34O,0.4500X1.4000*%
%ADD35R,0.8000X0.9000*%
%ADD36O,0.3500X1.6000*%
%ADD37R,1.0000X1.5500*%
%ADD38R,0.7500X0.8500*%
%ADD39C,1.3000*%
G04:AMPARAMS|DCode=40|XSize=1.3mm|YSize=1.3mm|CornerRadius=0.325mm|HoleSize=0mm|Usage=FLASHONLY|Rotation=180.000|XOffset=0mm|YOffset=0mm|HoleType=Round|Shape=RoundedRectangle|*
%AMROUNDEDRECTD40*
21,1,1.3000,0.6500,0,0,180.0*
21,1,0.6500,1.3000,0,0,180.0*
1,1,0.6500,-0.3250,0.3250*
1,1,0.6500,0.3250,0.3250*
1,1,0.6500,0.3250,-0.3250*
1,1,0.6500,-0.3250,-0.3250*
%
%ADD40ROUNDEDRECTD40*%
%ADD41C,5.5000*%
%ADD42C,1.6000*%
%ADD43C,1.0000*%
%ADD44C,0.8500*%
%ADD45C,1.2700*%
D17*
X297000Y185000D02*
D03*
X265000D02*
D03*
X243000D02*
D03*
X221000D02*
D03*
Y125000D02*
D03*
X243000D02*
D03*
X265000D02*
D03*
X297000D02*
D03*
D18*
X312000Y339000D02*
D03*
X321500Y319000D02*
D03*
X302500D02*
D03*
X337000Y329500D02*
D03*
Y338500D02*
D03*
X439000Y329500D02*
D03*
Y338500D02*
D03*
X414000Y339000D02*
D03*
X423500Y319000D02*
D03*
X404500D02*
D03*
X286000Y329000D02*
D03*
Y338000D02*
D03*
X261000Y339000D02*
D03*
X270500Y319000D02*
D03*
X251500D02*
D03*
X465000Y339000D02*
D03*
X474500Y319000D02*
D03*
X455500D02*
D03*
X490000Y329500D02*
D03*
Y338500D02*
D03*
X388000Y329500D02*
D03*
Y338500D02*
D03*
X363000Y339000D02*
D03*
X372500Y319000D02*
D03*
X353500D02*
D03*
X349000Y198500D02*
D03*
Y189500D02*
D03*
X182500Y219500D02*
D03*
Y210500D02*
D03*
X170000Y210500D02*
D03*
Y219500D02*
D03*
X145000Y210500D02*
D03*
Y219500D02*
D03*
X530000Y189500D02*
D03*
Y180500D02*
D03*
Y151500D02*
D03*
Y160500D02*
D03*
X285000Y76500D02*
D03*
Y85500D02*
D03*
D19*
X269750Y69000D02*
D03*
X258250D02*
D03*
X426250Y352000D02*
D03*
X437750D02*
D03*
X324250D02*
D03*
X335750D02*
D03*
X273500D02*
D03*
X285000D02*
D03*
X488750D02*
D03*
X477250D02*
D03*
X375250D02*
D03*
X386750D02*
D03*
X169250Y108000D02*
D03*
X180750D02*
D03*
X169250Y134000D02*
D03*
X180750D02*
D03*
X169250Y147000D02*
D03*
X180750D02*
D03*
Y95000D02*
D03*
X169250D02*
D03*
X180750Y121000D02*
D03*
X169250D02*
D03*
D20*
X402500Y352000D02*
D03*
X411500D02*
D03*
X300500D02*
D03*
X309500D02*
D03*
X258500D02*
D03*
X249500D02*
D03*
X271000Y94000D02*
D03*
X251000Y84500D02*
D03*
Y103500D02*
D03*
X233500Y99000D02*
D03*
X224500D02*
D03*
X453500Y352000D02*
D03*
X462500D02*
D03*
X351500D02*
D03*
X360500D02*
D03*
X445500Y136000D02*
D03*
X454500D02*
D03*
X445500Y123000D02*
D03*
X454500D02*
D03*
X390500Y192500D02*
D03*
X399500D02*
D03*
X394500Y153000D02*
D03*
X385500D02*
D03*
X399500Y207500D02*
D03*
X390500D02*
D03*
X399500Y262000D02*
D03*
X408500D02*
D03*
X475500Y207500D02*
D03*
X484500D02*
D03*
X514500D02*
D03*
X505500D02*
D03*
X100500Y65000D02*
D03*
X109500D02*
D03*
D21*
X436000Y284000D02*
D03*
X480000D02*
D03*
D22*
X310125Y103000D02*
D03*
X287875D02*
D03*
D23*
X445600Y149000D02*
D03*
X454400D02*
D03*
X445600Y162500D02*
D03*
X454400D02*
D03*
D24*
X372004Y94500D02*
D03*
Y88000D02*
D03*
Y81500D02*
D03*
Y75000D02*
D03*
Y68500D02*
D03*
Y62000D02*
D03*
Y55500D02*
D03*
X428004Y94500D02*
D03*
Y88000D02*
D03*
Y81500D02*
D03*
Y75000D02*
D03*
Y68500D02*
D03*
Y62000D02*
D03*
Y55500D02*
D03*
D25*
X387000Y124250D02*
D03*
Y111750D02*
D03*
X390000Y166750D02*
D03*
Y179250D02*
D03*
X530000Y133750D02*
D03*
Y121250D02*
D03*
D26*
X125000Y14250D02*
D03*
Y25750D02*
D03*
X180000Y14250D02*
D03*
Y25750D02*
D03*
X140000Y14250D02*
D03*
Y25750D02*
D03*
X165000Y14250D02*
D03*
Y25750D02*
D03*
D27*
X111400Y360000D02*
D03*
X103600D02*
D03*
X111400Y347500D02*
D03*
X103600D02*
D03*
X111400Y335000D02*
D03*
X103600D02*
D03*
X128900Y255000D02*
D03*
X121100D02*
D03*
X523600Y280000D02*
D03*
X531400D02*
D03*
D28*
X185000Y362000D02*
D03*
Y273000D02*
D03*
D29*
X157500Y211100D02*
D03*
Y218900D02*
D03*
X132500Y218900D02*
D03*
Y211100D02*
D03*
X37500Y241100D02*
D03*
Y248900D02*
D03*
X55000Y183900D02*
D03*
Y176100D02*
D03*
D30*
X17500Y274500D02*
D03*
Y245500D02*
D03*
D31*
X115000Y277500D02*
D03*
D32*
X91490D02*
D03*
D33*
X109500Y239050D02*
D03*
Y226350D02*
D03*
Y213650D02*
D03*
Y200950D02*
D03*
X55500D02*
D03*
Y213650D02*
D03*
Y226350D02*
D03*
Y239050D02*
D03*
D34*
X350250Y115500D02*
D03*
X356750D02*
D03*
X363250D02*
D03*
X369750D02*
D03*
X350250Y174500D02*
D03*
X356750D02*
D03*
X363250D02*
D03*
X369750D02*
D03*
D35*
X533750Y265000D02*
D03*
X521250D02*
D03*
X456250Y192500D02*
D03*
X443750D02*
D03*
X458750Y95000D02*
D03*
X446250D02*
D03*
D36*
X515250Y188000D02*
D03*
X508750D02*
D03*
X502250D02*
D03*
X495750D02*
D03*
X489250D02*
D03*
X482750D02*
D03*
X476250D02*
D03*
X469750D02*
D03*
X515250Y132000D02*
D03*
X508750D02*
D03*
X502250D02*
D03*
X495750D02*
D03*
X489250D02*
D03*
X482750D02*
D03*
X476250D02*
D03*
X469750D02*
D03*
D37*
X283000Y20000D02*
D03*
X257000D02*
D03*
X110500Y45000D02*
D03*
X84500D02*
D03*
X257000D02*
D03*
X283000D02*
D03*
D38*
X514000Y105000D02*
D03*
X526000D02*
D03*
X444000Y177500D02*
D03*
X456000D02*
D03*
D39*
X345000Y240000D02*
D03*
X365000D02*
D03*
X385000D02*
D03*
X505000D02*
D03*
X485000D02*
D03*
X465000D02*
D03*
X445000D02*
D03*
X425000D02*
D03*
X405000D02*
D03*
X525000Y20000D02*
D03*
X505000D02*
D03*
X485000D02*
D03*
X365000D02*
D03*
X385000D02*
D03*
X405000D02*
D03*
X425000D02*
D03*
X445000D02*
D03*
X465000D02*
D03*
D40*
X525000Y240000D02*
D03*
X345000Y20000D02*
D03*
D41*
X35000Y35000D02*
D03*
Y340000D02*
D03*
D42*
X146800Y95000D02*
D03*
Y120000D02*
D03*
Y145000D02*
D03*
X121800Y95000D02*
D03*
Y120000D02*
D03*
Y145000D02*
D03*
D43*
X50000D02*
D03*
Y95000D02*
D03*
D44*
X402000Y128000D02*
D03*
X352000Y62000D02*
D03*
X284856Y172250D02*
D03*
X297000Y210000D02*
D03*
X341000Y151000D02*
D03*
X271000Y299000D02*
D03*
X404000D02*
D03*
X438000Y361000D02*
D03*
X387000D02*
D03*
X336000D02*
D03*
X455000Y303000D02*
D03*
Y220000D02*
D03*
X402000Y88000D02*
D03*
X132023Y60023D02*
D03*
X312000Y89000D02*
D03*
X225000Y305000D02*
D03*
X245000Y265000D02*
D03*
X205000Y345000D02*
D03*
X185000Y305000D02*
D03*
X165000Y345000D02*
D03*
X145000Y305000D02*
D03*
X413000Y165000D02*
D03*
X219000Y60000D02*
D03*
X501000Y352000D02*
D03*
X456000Y204000D02*
D03*
X410000Y202000D02*
D03*
X423000Y187000D02*
D03*
X425000Y120000D02*
D03*
X230000Y161000D02*
D03*
X17000Y67000D02*
D03*
X85000Y65000D02*
D03*
X149000Y23000D02*
D03*
X156000Y14000D02*
D03*
X285000Y150000D02*
D03*
X352000Y82000D02*
D03*
X278000Y129000D02*
D03*
X502500Y105000D02*
D03*
X373000Y299000D02*
D03*
X322000D02*
D03*
X435000Y123000D02*
D03*
X432500Y102500D02*
D03*
X70000Y15000D02*
D03*
X110000Y255000D02*
D03*
X55000D02*
D03*
X410821Y75547D02*
D03*
X410000Y120000D02*
D03*
X474110Y226653D02*
D03*
X487500Y82500D02*
D03*
Y170000D02*
D03*
X475000Y55000D02*
D03*
Y150000D02*
D03*
X495000Y112500D02*
D03*
X497500Y170000D02*
D03*
X432500Y192500D02*
D03*
X527500Y92500D02*
D03*
X510000Y152500D02*
D03*
X517500Y222500D02*
D03*
D45*
X385000Y262000D02*
D03*
M02*
