G04*
G04 #@! TF.GenerationSoftware,Altium Limited,Altium Designer,24.1.2 (44)*
G04*
G04 Layer_Color=8388736*
%FSLAX44Y44*%
%MOMM*%
G71*
G04*
G04 #@! TF.SameCoordinates,3E41DE66-C22E-4A43-A9AF-2340ABB4EF3F*
G04*
G04*
G04 #@! TF.FilePolarity,Negative*
G04*
G01*
G75*
%ADD20C,0.1778*%
%ADD28R,3.0000X1.4000*%
%ADD32R,0.7400X1.6750*%
%ADD34R,1.6700X0.7600*%
%ADD38R,0.8000X0.8000*%
%ADD54R,1.2500X0.3500*%
%ADD55O,1.2500X0.3500*%
%ADD67O,0.3500X1.2500*%
%ADD68R,0.3500X1.2500*%
G04:AMPARAMS|DCode=69|XSize=3mm|YSize=1.4mm|CornerRadius=0mm|HoleSize=0mm|Usage=FLASHONLY|Rotation=187.503|XOffset=0mm|YOffset=0mm|HoleType=Round|Shape=Rectangle|*
%AMROTATEDRECTD69*
4,1,4,1.3958,0.8899,1.5786,-0.4981,-1.3958,-0.8899,-1.5786,0.4981,1.3958,0.8899,0.0*
%
%ADD69ROTATEDRECTD69*%

G04:AMPARAMS|DCode=70|XSize=3mm|YSize=1.4mm|CornerRadius=0mm|HoleSize=0mm|Usage=FLASHONLY|Rotation=203.138|XOffset=0mm|YOffset=0mm|HoleType=Round|Shape=Rectangle|*
%AMROTATEDRECTD70*
4,1,4,1.1043,1.2331,1.6544,-0.0543,-1.1043,-1.2331,-1.6544,0.0543,1.1043,1.2331,0.0*
%
%ADD70ROTATEDRECTD70*%

%ADD79R,0.7700X0.9800*%
%ADD85R,1.4000X3.0000*%
%ADD86O,0.6000X1.5500*%
%ADD89R,1.0000X0.9000*%
G04:AMPARAMS|DCode=90|XSize=0.74mm|YSize=0.38mm|CornerRadius=0mm|HoleSize=0mm|Usage=FLASHONLY|Rotation=225.000|XOffset=0mm|YOffset=0mm|HoleType=Round|Shape=Rectangle|*
%AMROTATEDRECTD90*
4,1,4,0.1273,0.3960,0.3960,0.1273,-0.1273,-0.3960,-0.3960,-0.1273,0.1273,0.3960,0.0*
%
%ADD90ROTATEDRECTD90*%

G04:AMPARAMS|DCode=91|XSize=0.74mm|YSize=0.38mm|CornerRadius=0mm|HoleSize=0mm|Usage=FLASHONLY|Rotation=315.000|XOffset=0mm|YOffset=0mm|HoleType=Round|Shape=Rectangle|*
%AMROTATEDRECTD91*
4,1,4,-0.3960,0.1273,-0.1273,0.3960,0.3960,-0.1273,0.1273,-0.3960,-0.3960,0.1273,0.0*
%
%ADD91ROTATEDRECTD91*%

G04:AMPARAMS|DCode=92|XSize=4.74mm|YSize=5.115mm|CornerRadius=0mm|HoleSize=0mm|Usage=FLASHONLY|Rotation=45.000|XOffset=0mm|YOffset=0mm|HoleType=Round|Shape=Rectangle|*
%AMROTATEDRECTD92*
4,1,4,0.1326,-3.4843,-3.4843,0.1326,-0.1326,3.4843,3.4843,-0.1326,0.1326,-3.4843,0.0*
%
%ADD92ROTATEDRECTD92*%

%ADD93R,1.5270X1.1270*%
%ADD94R,0.8890X0.4064*%
G04:AMPARAMS|DCode=95|XSize=2.6mm|YSize=1.8mm|CornerRadius=0mm|HoleSize=0mm|Usage=FLASHONLY|Rotation=315.000|XOffset=0mm|YOffset=0mm|HoleType=Round|Shape=Rectangle|*
%AMROTATEDRECTD95*
4,1,4,-1.5556,0.2828,-0.2828,1.5556,1.5556,-0.2828,0.2828,-1.5556,-1.5556,0.2828,0.0*
%
%ADD95ROTATEDRECTD95*%

%ADD96R,1.2500X1.2500*%
%ADD97R,1.1500X1.6000*%
%ADD98R,2.5000X1.6000*%
G04:AMPARAMS|DCode=99|XSize=2.1mm|YSize=1.6mm|CornerRadius=0.3125mm|HoleSize=0mm|Usage=FLASHONLY|Rotation=90.000|XOffset=0mm|YOffset=0mm|HoleType=Round|Shape=RoundedRectangle|*
%AMROUNDEDRECTD99*
21,1,2.1000,0.9750,0,0,90.0*
21,1,1.4750,1.6000,0,0,90.0*
1,1,0.6250,0.4875,0.7375*
1,1,0.6250,0.4875,-0.7375*
1,1,0.6250,-0.4875,-0.7375*
1,1,0.6250,-0.4875,0.7375*
%
%ADD99ROUNDEDRECTD99*%
%ADD100R,0.6858X0.7270*%
%ADD101R,0.7258X0.5588*%
%ADD102R,0.6000X0.8000*%
G04:AMPARAMS|DCode=103|XSize=0.3mm|YSize=0.45mm|CornerRadius=0mm|HoleSize=0mm|Usage=FLASHONLY|Rotation=330.000|XOffset=0mm|YOffset=0mm|HoleType=Round|Shape=Rectangle|*
%AMROTATEDRECTD103*
4,1,4,-0.2424,-0.1199,-0.0174,0.2699,0.2424,0.1199,0.0174,-0.2699,-0.2424,-0.1199,0.0*
%
%ADD103ROTATEDRECTD103*%

%ADD104R,0.6000X0.6000*%
%ADD105R,4.2270X1.9820*%
%ADD106R,1.9812X4.6482*%
%ADD107R,0.9270X0.9270*%
%ADD108R,2.8270X1.3270*%
%ADD109R,5.6388X2.3620*%
%ADD110R,1.6000X5.5000*%
%ADD111R,1.0500X1.1000*%
%ADD112C,0.4000*%
%ADD113C,0.5318*%
%ADD114R,1.3500X1.4500*%
%ADD115R,0.7100X0.3700*%
%ADD116R,0.4064X0.8890*%
%ADD117R,0.4064X0.9906*%
%ADD118R,0.9906X0.4064*%
%ADD119R,0.3556X0.5588*%
%ADD120R,0.5588X0.3556*%
%ADD121R,0.4200X0.3600*%
%ADD122R,0.7200X0.7200*%
%ADD123R,0.3600X0.4200*%
%ADD124R,0.7200X0.7200*%
%ADD125R,5.5000X1.6000*%
%ADD126R,1.9050X1.5240*%
%ADD127R,0.3500X0.4000*%
%ADD128R,0.6000X0.5750*%
%ADD129R,0.4620X0.3520*%
%ADD130R,1.1000X1.0500*%
G04:AMPARAMS|DCode=131|XSize=2.362mm|YSize=5.6388mm|CornerRadius=0mm|HoleSize=0mm|Usage=FLASHONLY|Rotation=260.000|XOffset=0mm|YOffset=0mm|HoleType=Round|Shape=Rectangle|*
%AMROTATEDRECTD131*
4,1,4,-2.5715,1.6526,2.9817,0.6735,2.5715,-1.6526,-2.9817,-0.6735,-2.5715,1.6526,0.0*
%
%ADD131ROTATEDRECTD131*%

G04:AMPARAMS|DCode=132|XSize=2.362mm|YSize=5.6388mm|CornerRadius=0mm|HoleSize=0mm|Usage=FLASHONLY|Rotation=310.000|XOffset=0mm|YOffset=0mm|HoleType=Round|Shape=Rectangle|*
%AMROTATEDRECTD132*
4,1,4,-2.9189,-0.9076,1.4007,2.7170,2.9189,0.9076,-1.4007,-2.7170,-2.9189,-0.9076,0.0*
%
%ADD132ROTATEDRECTD132*%

G04:AMPARAMS|DCode=133|XSize=5.5mm|YSize=1.6mm|CornerRadius=0mm|HoleSize=0mm|Usage=FLASHONLY|Rotation=45.000|XOffset=0mm|YOffset=0mm|HoleType=Round|Shape=Rectangle|*
%AMROTATEDRECTD133*
4,1,4,-1.3789,-2.5102,-2.5102,-1.3789,1.3789,2.5102,2.5102,1.3789,-1.3789,-2.5102,0.0*
%
%ADD133ROTATEDRECTD133*%

%ADD134R,1.5500X1.2500*%
G04:AMPARAMS|DCode=135|XSize=5.5mm|YSize=1.6mm|CornerRadius=0mm|HoleSize=0mm|Usage=FLASHONLY|Rotation=27.000|XOffset=0mm|YOffset=0mm|HoleType=Round|Shape=Rectangle|*
%AMROTATEDRECTD135*
4,1,4,-2.0871,-1.9613,-2.8135,-0.5357,2.0871,1.9613,2.8135,0.5357,-2.0871,-1.9613,0.0*
%
%ADD135ROTATEDRECTD135*%

G04:AMPARAMS|DCode=136|XSize=5.5mm|YSize=1.6mm|CornerRadius=0mm|HoleSize=0mm|Usage=FLASHONLY|Rotation=140.000|XOffset=0mm|YOffset=0mm|HoleType=Round|Shape=Rectangle|*
%AMROTATEDRECTD136*
4,1,4,2.6209,-1.1548,1.5924,-2.3805,-2.6209,1.1548,-1.5924,2.3805,2.6209,-1.1548,0.0*
%
%ADD136ROTATEDRECTD136*%

%ADD137P,1.0182X4X360.0*%
%ADD138R,1.2500X2.8000*%
%ADD139C,1.1000*%
G04:AMPARAMS|DCode=140|XSize=0.3mm|YSize=0.45mm|CornerRadius=0mm|HoleSize=0mm|Usage=FLASHONLY|Rotation=315.000|XOffset=0mm|YOffset=0mm|HoleType=Round|Shape=Rectangle|*
%AMROTATEDRECTD140*
4,1,4,-0.2652,-0.0530,0.0530,0.2652,0.2652,0.0530,-0.0530,-0.2652,-0.2652,-0.0530,0.0*
%
%ADD140ROTATEDRECTD140*%

G04:AMPARAMS|DCode=141|XSize=0.6mm|YSize=0.575mm|CornerRadius=0mm|HoleSize=0mm|Usage=FLASHONLY|Rotation=225.000|XOffset=0mm|YOffset=0mm|HoleType=Round|Shape=Rectangle|*
%AMROTATEDRECTD141*
4,1,4,0.0088,0.4154,0.4154,0.0088,-0.0088,-0.4154,-0.4154,-0.0088,0.0088,0.4154,0.0*
%
%ADD141ROTATEDRECTD141*%

G04:AMPARAMS|DCode=142|XSize=0.6mm|YSize=0.575mm|CornerRadius=0mm|HoleSize=0mm|Usage=FLASHONLY|Rotation=315.000|XOffset=0mm|YOffset=0mm|HoleType=Round|Shape=Rectangle|*
%AMROTATEDRECTD142*
4,1,4,-0.4154,0.0088,-0.0088,0.4154,0.4154,-0.0088,0.0088,-0.4154,-0.4154,0.0088,0.0*
%
%ADD142ROTATEDRECTD142*%

%ADD143R,0.5750X0.6000*%
%ADD144R,1.2500X1.2500*%
G04:AMPARAMS|DCode=145|XSize=1.127mm|YSize=1.527mm|CornerRadius=0mm|HoleSize=0mm|Usage=FLASHONLY|Rotation=201.507|XOffset=0mm|YOffset=0mm|HoleType=Round|Shape=Rectangle|*
%AMROTATEDRECTD145*
4,1,4,0.2444,0.9169,0.8042,-0.5038,-0.2444,-0.9169,-0.8042,0.5038,0.2444,0.9169,0.0*
%
%ADD145ROTATEDRECTD145*%

G04:AMPARAMS|DCode=146|XSize=1.127mm|YSize=1.527mm|CornerRadius=0mm|HoleSize=0mm|Usage=FLASHONLY|Rotation=187.055|XOffset=0mm|YOffset=0mm|HoleType=Round|Shape=Rectangle|*
%AMROTATEDRECTD146*
4,1,4,0.4655,0.8269,0.6530,-0.6885,-0.4655,-0.8269,-0.6530,0.6885,0.4655,0.8269,0.0*
%
%ADD146ROTATEDRECTD146*%

%ADD147C,1.9050*%
%ADD148C,1.8540*%
%ADD149O,1.8540X2.0040*%
%ADD150C,1.8542*%
%ADD151R,1.8542X1.8542*%
%ADD152C,1.5748*%
%ADD153C,5.8039*%
%ADD154C,1.6510*%
%ADD155C,6.6016*%
%ADD156C,5.1016*%
G36*
X205957Y321122D02*
X208469Y320081D01*
X210730Y318571D01*
X212653Y316648D01*
X214163Y314387D01*
X215204Y311875D01*
X215734Y309208D01*
Y307848D01*
Y306488D01*
X215204Y303821D01*
X214163Y301309D01*
X212653Y299048D01*
X210730Y297125D01*
X208469Y295615D01*
X205957Y294574D01*
X203290Y294044D01*
X200570D01*
X197903Y294574D01*
X195391Y295615D01*
X193130Y297125D01*
X191207Y299048D01*
X189697Y301309D01*
X188656Y303821D01*
X188126Y306488D01*
Y307848D01*
Y309208D01*
X188656Y311875D01*
X189697Y314387D01*
X191207Y316648D01*
X193130Y318571D01*
X195391Y320081D01*
X197903Y321122D01*
X200570Y321652D01*
X203290D01*
X205957Y321122D01*
D02*
G37*
G36*
X-219629Y100804D02*
X-219533Y100774D01*
X-219444Y100727D01*
X-219367Y100663D01*
X-216817Y98113D01*
X-216817Y98113D01*
X-216753Y98036D01*
X-216706Y97947D01*
X-216677Y97851D01*
X-216667Y97751D01*
X-216667Y88901D01*
X-216676Y88801D01*
X-216706Y88705D01*
X-216753Y88616D01*
X-216817Y88539D01*
X-216894Y88475D01*
X-216983Y88427D01*
X-217079Y88398D01*
X-217179Y88389D01*
X-224179D01*
X-224203Y88391D01*
X-224227Y88391D01*
X-224253Y88396D01*
X-224279Y88398D01*
X-224302Y88405D01*
X-224325Y88410D01*
X-224350Y88420D01*
X-224375Y88427D01*
X-224396Y88439D01*
X-224418Y88448D01*
X-224440Y88462D01*
X-224464Y88475D01*
X-224482Y88490D01*
X-224502Y88503D01*
X-224521Y88522D01*
X-224541Y88539D01*
X-224557Y88557D01*
X-224574Y88574D01*
X-227570Y92189D01*
X-237288D01*
X-240285Y88574D01*
X-240301Y88557D01*
X-240317Y88539D01*
X-240337Y88522D01*
X-240356Y88503D01*
X-240376Y88490D01*
X-240394Y88475D01*
X-240418Y88462D01*
X-240440Y88448D01*
X-240462Y88439D01*
X-240483Y88427D01*
X-240508Y88420D01*
X-240533Y88410D01*
X-240556Y88405D01*
X-240579Y88398D01*
X-240605Y88396D01*
X-240631Y88391D01*
X-240655Y88391D01*
X-240679Y88389D01*
X-247679D01*
X-247779Y88398D01*
X-247875Y88427D01*
X-247964Y88475D01*
X-248041Y88539D01*
X-248105Y88616D01*
X-248153Y88705D01*
X-248182Y88801D01*
X-248192Y88901D01*
Y97751D01*
X-248192Y97751D01*
X-248182Y97851D01*
X-248153Y97947D01*
X-248105Y98036D01*
X-248041Y98113D01*
X-245492Y100663D01*
X-245492Y100663D01*
X-245414Y100727D01*
X-245325Y100774D01*
X-245229Y100804D01*
X-245129Y100813D01*
X-219729D01*
X-219729Y100813D01*
X-219629Y100804D01*
D02*
G37*
G36*
X-217079Y79204D02*
X-216983Y79174D01*
X-216894Y79127D01*
X-216817Y79063D01*
X-216753Y78986D01*
X-216706Y78897D01*
X-216676Y78801D01*
X-216667Y78701D01*
Y69851D01*
X-216667Y69851D01*
X-216676Y69751D01*
X-216706Y69655D01*
X-216753Y69566D01*
X-216817Y69489D01*
X-219366Y66939D01*
X-219367Y66939D01*
X-219444Y66875D01*
X-219533Y66828D01*
X-219629Y66798D01*
X-219729Y66789D01*
X-245129D01*
X-245129Y66789D01*
X-245229Y66798D01*
X-245325Y66828D01*
X-245414Y66875D01*
X-245491Y66939D01*
X-248041Y69488D01*
X-248041Y69489D01*
X-248105Y69566D01*
X-248153Y69655D01*
X-248182Y69751D01*
X-248192Y69851D01*
X-248192Y78701D01*
X-248182Y78801D01*
X-248153Y78897D01*
X-248105Y78986D01*
X-248041Y79063D01*
X-247964Y79127D01*
X-247875Y79174D01*
X-247779Y79204D01*
X-247679Y79213D01*
X-240679D01*
X-240655Y79211D01*
X-240631Y79211D01*
X-240605Y79206D01*
X-240579Y79204D01*
X-240556Y79197D01*
X-240533Y79192D01*
X-240508Y79182D01*
X-240483Y79174D01*
X-240462Y79163D01*
X-240440Y79154D01*
X-240418Y79140D01*
X-240394Y79127D01*
X-240376Y79112D01*
X-240356Y79099D01*
X-240337Y79080D01*
X-240317Y79063D01*
X-240301Y79045D01*
X-240285Y79028D01*
X-237288Y75413D01*
X-227567D01*
X-224500Y79032D01*
X-224485Y79047D01*
X-224471Y79063D01*
X-224449Y79082D01*
X-224428Y79102D01*
X-224410Y79114D01*
X-224394Y79127D01*
X-224368Y79141D01*
X-224343Y79157D01*
X-224324Y79165D01*
X-224305Y79174D01*
X-224277Y79183D01*
X-224250Y79194D01*
X-224229Y79198D01*
X-224209Y79204D01*
X-224180Y79206D01*
X-224151Y79212D01*
X-224130Y79211D01*
X-224109Y79213D01*
X-217179D01*
X-217079Y79204D01*
D02*
G37*
G36*
X236437Y8194D02*
X238949Y7153D01*
X241210Y5643D01*
X243133Y3720D01*
X244643Y1459D01*
X245684Y-1053D01*
X246214Y-3720D01*
Y-5080D01*
Y-6440D01*
X245684Y-9107D01*
X244643Y-11619D01*
X243133Y-13880D01*
X241210Y-15803D01*
X238949Y-17313D01*
X236437Y-18354D01*
X233770Y-18884D01*
X231050D01*
X228383Y-18354D01*
X225871Y-17313D01*
X223610Y-15803D01*
X221687Y-13880D01*
X220177Y-11619D01*
X219136Y-9107D01*
X218606Y-6440D01*
Y-5080D01*
Y-3720D01*
X219136Y-1053D01*
X220177Y1459D01*
X221687Y3720D01*
X223610Y5643D01*
X225871Y7153D01*
X228383Y8194D01*
X231050Y8724D01*
X233770D01*
X236437Y8194D01*
D02*
G37*
G36*
X-266483Y-233106D02*
X-263971Y-234147D01*
X-261710Y-235657D01*
X-259787Y-237580D01*
X-258277Y-239841D01*
X-257236Y-242353D01*
X-256706Y-245020D01*
Y-246380D01*
Y-247740D01*
X-257236Y-250407D01*
X-258277Y-252919D01*
X-259787Y-255180D01*
X-261710Y-257103D01*
X-263971Y-258613D01*
X-266483Y-259654D01*
X-269150Y-260184D01*
X-271870D01*
X-274537Y-259654D01*
X-277049Y-258613D01*
X-279310Y-257103D01*
X-281233Y-255180D01*
X-282743Y-252919D01*
X-283784Y-250407D01*
X-284314Y-247740D01*
Y-246380D01*
Y-245020D01*
X-283784Y-242353D01*
X-282743Y-239841D01*
X-281233Y-237580D01*
X-279310Y-235657D01*
X-277049Y-234147D01*
X-274537Y-233106D01*
X-271870Y-232576D01*
X-269150D01*
X-266483Y-233106D01*
D02*
G37*
D20*
X837202Y69847D02*
Y57150D01*
X832970Y69847D02*
X841435D01*
X846574D02*
X845365Y69243D01*
X844156Y68033D01*
X843551Y66824D01*
X842946Y65010D01*
Y61987D01*
X843551Y60173D01*
X844156Y58964D01*
X845365Y57755D01*
X846574Y57150D01*
X848993D01*
X850202Y57755D01*
X851411Y58964D01*
X852016Y60173D01*
X852620Y61987D01*
Y65010D01*
X852016Y66824D01*
X851411Y68033D01*
X850202Y69243D01*
X848993Y69847D01*
X846574D01*
X855583Y63196D02*
X861025D01*
X862839Y63801D01*
X863444Y64406D01*
X864048Y65615D01*
Y67429D01*
X863444Y68638D01*
X862839Y69243D01*
X861025Y69847D01*
X855583D01*
Y57150D01*
X866890Y52918D02*
X876564D01*
X886661Y68033D02*
X885452Y69243D01*
X883638Y69847D01*
X881220D01*
X879406Y69243D01*
X878196Y68033D01*
Y66824D01*
X878801Y65615D01*
X879406Y65010D01*
X880615Y64406D01*
X884243Y63196D01*
X885452Y62592D01*
X886057Y61987D01*
X886661Y60778D01*
Y58964D01*
X885452Y57755D01*
X883638Y57150D01*
X881220D01*
X879406Y57755D01*
X878196Y58964D01*
X893131Y69847D02*
X891922Y69243D01*
X890712Y68033D01*
X890108Y66824D01*
X889503Y65010D01*
Y61987D01*
X890108Y60173D01*
X890712Y58964D01*
X891922Y57755D01*
X893131Y57150D01*
X895549D01*
X896759Y57755D01*
X897968Y58964D01*
X898573Y60173D01*
X899177Y61987D01*
Y65010D01*
X898573Y66824D01*
X897968Y68033D01*
X896759Y69243D01*
X895549Y69847D01*
X893131D01*
X902140D02*
Y57150D01*
X909396D01*
X910786Y69847D02*
Y57150D01*
Y69847D02*
X915019D01*
X916833Y69243D01*
X918042Y68033D01*
X918646Y66824D01*
X919251Y65010D01*
Y61987D01*
X918646Y60173D01*
X918042Y58964D01*
X916833Y57755D01*
X915019Y57150D01*
X910786D01*
X929953Y69847D02*
X922093D01*
Y57150D01*
X929953D01*
X922093Y63801D02*
X926930D01*
X932069Y69847D02*
Y57150D01*
Y69847D02*
X937511D01*
X939325Y69243D01*
X939930Y68638D01*
X940534Y67429D01*
Y66220D01*
X939930Y65010D01*
X939325Y64406D01*
X937511Y63801D01*
X932069D01*
X936302D02*
X940534Y57150D01*
D28*
X82550Y-41910D02*
D03*
X-309880Y-168910D02*
D03*
X-153670Y-6350D02*
D03*
X-190754D02*
D03*
D32*
X237738Y245326D02*
D03*
Y282176D02*
D03*
X225038Y245326D02*
D03*
Y282176D02*
D03*
X212338Y245326D02*
D03*
Y282176D02*
D03*
X199638Y245326D02*
D03*
Y282176D02*
D03*
D34*
X71297Y245212D02*
D03*
Y257912D02*
D03*
Y270612D02*
D03*
Y283312D02*
D03*
Y296012D02*
D03*
Y308712D02*
D03*
Y321412D02*
D03*
Y334112D02*
D03*
X-14003Y245212D02*
D03*
Y257912D02*
D03*
Y270612D02*
D03*
Y283312D02*
D03*
Y296012D02*
D03*
Y308712D02*
D03*
Y321412D02*
D03*
Y334112D02*
D03*
X30363Y101376D02*
D03*
Y114076D02*
D03*
Y126776D02*
D03*
Y139476D02*
D03*
Y152176D02*
D03*
Y164876D02*
D03*
Y177576D02*
D03*
Y190276D02*
D03*
X-54938Y101376D02*
D03*
Y114076D02*
D03*
Y126776D02*
D03*
Y139476D02*
D03*
Y152176D02*
D03*
Y164876D02*
D03*
Y177576D02*
D03*
Y190276D02*
D03*
D38*
X87630Y344290D02*
D03*
Y359290D02*
D03*
X101600Y344290D02*
D03*
Y359290D02*
D03*
D54*
X-166060Y-63950D02*
D03*
D55*
Y-57450D02*
D03*
Y-50950D02*
D03*
Y-44450D02*
D03*
Y-37950D02*
D03*
Y-31450D02*
D03*
Y-24950D02*
D03*
X-222560Y-63950D02*
D03*
Y-57450D02*
D03*
Y-50950D02*
D03*
Y-44450D02*
D03*
Y-37950D02*
D03*
Y-31450D02*
D03*
Y-24950D02*
D03*
D67*
X-287840Y-89860D02*
D03*
X-294340D02*
D03*
X-300840D02*
D03*
X-307340D02*
D03*
X-313840D02*
D03*
X-320340Y-89860D02*
D03*
X-326840Y-89860D02*
D03*
X-287840Y-146360D02*
D03*
X-294340D02*
D03*
X-300840D02*
D03*
X-307340D02*
D03*
X-313840D02*
D03*
X-320340D02*
D03*
D68*
X-326840D02*
D03*
D69*
X-64346Y322936D02*
D03*
D70*
X-107186Y310992D02*
D03*
D79*
X-66510Y15240D02*
D03*
X-80810D02*
D03*
D85*
X-218440Y36830D02*
D03*
X-247650Y-55880D02*
D03*
X-147320Y-62230D02*
D03*
X-218440Y1270D02*
D03*
D86*
X-161290Y-145110D02*
D03*
X-173990D02*
D03*
X-186690D02*
D03*
X-199390D02*
D03*
Y-91110D02*
D03*
X-186690D02*
D03*
X-173990D02*
D03*
X-161290D02*
D03*
X-222250D02*
D03*
X-234950D02*
D03*
X-247650D02*
D03*
X-260350D02*
D03*
Y-145110D02*
D03*
X-247650D02*
D03*
X-234950D02*
D03*
X-222250D02*
D03*
X-245110Y-167310D02*
D03*
X-257810D02*
D03*
X-270510D02*
D03*
X-283210D02*
D03*
Y-221310D02*
D03*
X-270510D02*
D03*
X-257810D02*
D03*
X-245110D02*
D03*
D89*
X-151010Y258730D02*
D03*
Y246730D02*
D03*
X-136010Y258730D02*
D03*
Y246730D02*
D03*
D90*
X-25525Y-97991D02*
D03*
X-21990Y-101526D02*
D03*
X-18454Y-105062D02*
D03*
X-14919Y-108597D02*
D03*
X-11383Y-112133D02*
D03*
X-7847Y-115668D02*
D03*
X-4312Y-119204D02*
D03*
X-777Y-122739D02*
D03*
X2759Y-126275D02*
D03*
X6295Y-129810D02*
D03*
X9830Y-133346D02*
D03*
X13366Y-136882D02*
D03*
X61449Y-88798D02*
D03*
X57913Y-85263D02*
D03*
X54378Y-81727D02*
D03*
X50842Y-78192D02*
D03*
X47307Y-74656D02*
D03*
X43771Y-71121D02*
D03*
X40236Y-67585D02*
D03*
X36700Y-64050D02*
D03*
X33165Y-60514D02*
D03*
X29629Y-56979D02*
D03*
X26094Y-53443D02*
D03*
X22558Y-49907D02*
D03*
D91*
X22558Y-136882D02*
D03*
X26094Y-133346D02*
D03*
X29629Y-129810D02*
D03*
X33165Y-126275D02*
D03*
X36700Y-122739D02*
D03*
X40236Y-119204D02*
D03*
X43771Y-115668D02*
D03*
X47307Y-112133D02*
D03*
X50842Y-108597D02*
D03*
X54378Y-105062D02*
D03*
X57913Y-101526D02*
D03*
X61449Y-97991D02*
D03*
X13366Y-49907D02*
D03*
X9830Y-53443D02*
D03*
X6295Y-56979D02*
D03*
X2759Y-60514D02*
D03*
X-777Y-64050D02*
D03*
X-4312Y-67585D02*
D03*
X-7847Y-71121D02*
D03*
X-11383Y-74656D02*
D03*
X-14919Y-78192D02*
D03*
X-18454Y-81727D02*
D03*
X-21990Y-85263D02*
D03*
X-25525Y-88798D02*
D03*
D92*
X19291Y-94724D02*
D03*
D93*
X-181610Y244400D02*
D03*
Y314400D02*
D03*
D94*
X-243149Y273907D02*
D03*
Y268907D02*
D03*
Y263906D02*
D03*
Y258906D02*
D03*
X-228529D02*
D03*
Y263906D02*
D03*
Y268907D02*
D03*
Y273907D02*
D03*
D95*
X293542Y-218612D02*
D03*
X265258Y-190328D02*
D03*
D96*
X-60961Y-217490D02*
D03*
Y-193990D02*
D03*
X99061Y-164780D02*
D03*
Y-188280D02*
D03*
X-21589Y-186878D02*
D03*
Y-210378D02*
D03*
X-142239Y-197170D02*
D03*
Y-173670D02*
D03*
X191769Y-162240D02*
D03*
Y-185740D02*
D03*
X54609Y-217490D02*
D03*
Y-193990D02*
D03*
D97*
X-16502Y-27940D02*
D03*
D98*
X-40252D02*
D03*
D99*
X148589Y325971D02*
D03*
X173989Y325971D02*
D03*
X173989Y235371D02*
D03*
X148589Y235371D02*
D03*
X96519Y325971D02*
D03*
X121919D02*
D03*
X121919Y235371D02*
D03*
X96519D02*
D03*
D100*
X14224Y22860D02*
D03*
X23876D02*
D03*
D101*
X14425Y35560D02*
D03*
X23675D02*
D03*
D102*
X56406Y369753D02*
D03*
Y360753D02*
D03*
X7120Y369753D02*
D03*
Y360753D02*
D03*
X23548Y369753D02*
D03*
Y360753D02*
D03*
X39977Y369753D02*
D03*
Y360753D02*
D03*
D103*
X-301687Y202313D02*
D03*
X-305151Y204313D02*
D03*
X-307927Y191505D02*
D03*
X-311391Y193505D02*
D03*
X-295447Y213121D02*
D03*
X-298911Y215121D02*
D03*
D104*
X-232429Y96501D02*
D03*
Y71101D02*
D03*
D105*
X-237490Y234665D02*
D03*
Y202215D02*
D03*
D106*
X-110941Y-46990D02*
D03*
X-69399D02*
D03*
D107*
X-286033Y71902D02*
D03*
X-273333D02*
D03*
X-286033Y59202D02*
D03*
X-273333Y59202D02*
D03*
X-286033Y46502D02*
D03*
X-273333D02*
D03*
X-286033Y33802D02*
D03*
X-273333D02*
D03*
X-286033Y21102D02*
D03*
X-273333Y21102D02*
D03*
X-286033Y8402D02*
D03*
X-273333D02*
D03*
X-286033Y-4298D02*
D03*
X-273333D02*
D03*
X-286033Y-16998D02*
D03*
X-273333Y-16998D02*
D03*
X-286033Y-29698D02*
D03*
X-273333D02*
D03*
X-286033Y-42398D02*
D03*
X-273333D02*
D03*
D108*
X-330533Y96852D02*
D03*
X-281532D02*
D03*
X-330533Y-67348D02*
D03*
X-281532D02*
D03*
D109*
X34290Y-364265D02*
D03*
Y-313915D02*
D03*
D110*
X180169Y-58422D02*
D03*
X127169D02*
D03*
D111*
X-101470Y-171451D02*
D03*
X-85470D02*
D03*
X-16891Y-225805D02*
D03*
X-891D02*
D03*
X175642Y-161291D02*
D03*
X159642D02*
D03*
X-35180Y-116840D02*
D03*
X-51180D02*
D03*
X143892Y-161291D02*
D03*
X127892D02*
D03*
X20702D02*
D03*
X4702D02*
D03*
D112*
X-192821Y108999D02*
D03*
X-186321D02*
D03*
X-179821D02*
D03*
X-173321D02*
D03*
X-166821D02*
D03*
X-160321D02*
D03*
X-153821D02*
D03*
X-147321D02*
D03*
X-140821D02*
D03*
X-134321D02*
D03*
X-127821D02*
D03*
X-121321D02*
D03*
X-114821D02*
D03*
X-108321D02*
D03*
X-101821D02*
D03*
X-192821Y102499D02*
D03*
X-186321D02*
D03*
X-179821D02*
D03*
X-173321D02*
D03*
X-166821D02*
D03*
X-160321D02*
D03*
X-153821D02*
D03*
X-147321D02*
D03*
X-140821D02*
D03*
X-134321D02*
D03*
X-127821D02*
D03*
X-121321D02*
D03*
X-114821D02*
D03*
X-108321D02*
D03*
X-101821D02*
D03*
X-192821Y95999D02*
D03*
X-186321D02*
D03*
X-179821D02*
D03*
X-173321D02*
D03*
X-166821D02*
D03*
X-160321D02*
D03*
X-153821D02*
D03*
X-147321D02*
D03*
X-140821D02*
D03*
X-134321D02*
D03*
X-127821D02*
D03*
X-121321D02*
D03*
X-114821D02*
D03*
X-108321D02*
D03*
X-101821D02*
D03*
X-192821Y89499D02*
D03*
X-186321D02*
D03*
X-179821D02*
D03*
X-173321D02*
D03*
X-166821D02*
D03*
X-160321D02*
D03*
X-153821D02*
D03*
X-147321D02*
D03*
X-140821D02*
D03*
X-134321D02*
D03*
X-127821D02*
D03*
X-121321D02*
D03*
X-114821D02*
D03*
X-108321D02*
D03*
X-101821D02*
D03*
X-192821Y82999D02*
D03*
X-186321D02*
D03*
X-179821D02*
D03*
X-173321D02*
D03*
X-121321D02*
D03*
X-114821D02*
D03*
X-108321D02*
D03*
X-101821D02*
D03*
X-192821Y76499D02*
D03*
X-186321D02*
D03*
X-179821D02*
D03*
X-173321D02*
D03*
X-160321D02*
D03*
X-153821D02*
D03*
X-147321D02*
D03*
X-140821D02*
D03*
X-134321D02*
D03*
X-121321D02*
D03*
X-114821D02*
D03*
X-108321D02*
D03*
X-101821D02*
D03*
X-192821Y69999D02*
D03*
X-186321D02*
D03*
X-179821D02*
D03*
X-173321D02*
D03*
X-160321D02*
D03*
X-153821D02*
D03*
X-147321D02*
D03*
X-140821D02*
D03*
X-134321D02*
D03*
X-121321D02*
D03*
X-114821D02*
D03*
X-108321D02*
D03*
X-101821D02*
D03*
X-192821Y63499D02*
D03*
X-186321D02*
D03*
X-179821D02*
D03*
X-173321D02*
D03*
X-160321D02*
D03*
X-153821D02*
D03*
X-147321D02*
D03*
X-140821D02*
D03*
X-134321D02*
D03*
X-121321D02*
D03*
X-114821D02*
D03*
X-108321D02*
D03*
X-101821D02*
D03*
X-192821Y56999D02*
D03*
X-186321D02*
D03*
X-179821D02*
D03*
X-173321D02*
D03*
X-160321D02*
D03*
X-153821D02*
D03*
X-147321D02*
D03*
X-140821D02*
D03*
X-134321D02*
D03*
X-121321D02*
D03*
X-114821D02*
D03*
X-108321D02*
D03*
X-101821D02*
D03*
X-192821Y50499D02*
D03*
X-186321D02*
D03*
X-179821D02*
D03*
X-173321D02*
D03*
X-160321D02*
D03*
X-153821D02*
D03*
X-147321D02*
D03*
X-140821D02*
D03*
X-134321D02*
D03*
X-121321D02*
D03*
X-114821D02*
D03*
X-108321D02*
D03*
X-101821D02*
D03*
X-192821Y43999D02*
D03*
X-186321D02*
D03*
X-179821D02*
D03*
X-173321D02*
D03*
X-121321D02*
D03*
X-114821D02*
D03*
X-108321D02*
D03*
X-101821D02*
D03*
X-192821Y37499D02*
D03*
X-186321D02*
D03*
X-179821D02*
D03*
X-173321D02*
D03*
X-166821D02*
D03*
X-160321D02*
D03*
X-153821D02*
D03*
X-147321D02*
D03*
X-140821D02*
D03*
X-134321D02*
D03*
X-127821D02*
D03*
X-121321D02*
D03*
X-114821D02*
D03*
X-108321D02*
D03*
X-101821D02*
D03*
X-192821Y30999D02*
D03*
X-186321D02*
D03*
X-179821D02*
D03*
X-173321D02*
D03*
X-166821D02*
D03*
X-160321D02*
D03*
X-153821D02*
D03*
X-147321D02*
D03*
X-140821D02*
D03*
X-134321D02*
D03*
X-127821D02*
D03*
X-121321D02*
D03*
X-114821D02*
D03*
X-108321D02*
D03*
X-101821D02*
D03*
X-192821Y24499D02*
D03*
X-186321D02*
D03*
X-179821D02*
D03*
X-173321D02*
D03*
X-166821D02*
D03*
X-160321D02*
D03*
X-153821D02*
D03*
X-147321D02*
D03*
X-140821D02*
D03*
X-134321D02*
D03*
X-127821D02*
D03*
X-121321D02*
D03*
X-114821D02*
D03*
X-108321D02*
D03*
X-101821D02*
D03*
X-192821Y17999D02*
D03*
X-186321D02*
D03*
X-179821D02*
D03*
X-173321D02*
D03*
X-166821D02*
D03*
X-160321D02*
D03*
X-153821D02*
D03*
X-147321D02*
D03*
X-140821D02*
D03*
X-134321D02*
D03*
X-127821D02*
D03*
X-121321D02*
D03*
X-114821D02*
D03*
X-108321D02*
D03*
X-101821D02*
D03*
D113*
X-184819Y224190D02*
D03*
X-177319D02*
D03*
X-169819D02*
D03*
X-162319D02*
D03*
X-154819D02*
D03*
X-147319D02*
D03*
X-139819D02*
D03*
X-132319D02*
D03*
X-124819D02*
D03*
X-117319D02*
D03*
X-109819D02*
D03*
X-184819Y216690D02*
D03*
X-177319D02*
D03*
X-169819D02*
D03*
X-162319D02*
D03*
X-154819D02*
D03*
X-147319D02*
D03*
X-139819D02*
D03*
X-132319D02*
D03*
X-124819D02*
D03*
X-117319D02*
D03*
X-109819D02*
D03*
X-184819Y209190D02*
D03*
X-177319D02*
D03*
X-169819D02*
D03*
X-162319D02*
D03*
X-154819D02*
D03*
X-147319D02*
D03*
X-139819D02*
D03*
X-132319D02*
D03*
X-124819D02*
D03*
X-117319D02*
D03*
X-109819D02*
D03*
X-184819Y201690D02*
D03*
X-177319Y201690D02*
D03*
X-169819D02*
D03*
X-162319D02*
D03*
X-154819D02*
D03*
X-147319Y201690D02*
D03*
X-139819Y201690D02*
D03*
X-132319D02*
D03*
X-124819D02*
D03*
X-117319D02*
D03*
X-109819Y201690D02*
D03*
X-184819Y194190D02*
D03*
X-177319D02*
D03*
X-169819D02*
D03*
X-162319D02*
D03*
X-154819D02*
D03*
X-147319D02*
D03*
X-139819D02*
D03*
X-132319D02*
D03*
X-124819D02*
D03*
X-117319D02*
D03*
X-109819D02*
D03*
X-184819Y186690D02*
D03*
X-177319D02*
D03*
X-169819D02*
D03*
X-162319D02*
D03*
X-154819D02*
D03*
X-147319D02*
D03*
X-139819D02*
D03*
X-132319D02*
D03*
X-124819D02*
D03*
X-117319D02*
D03*
X-109819D02*
D03*
X-184819Y179190D02*
D03*
X-177319D02*
D03*
X-169819D02*
D03*
X-162319D02*
D03*
X-154819D02*
D03*
X-147319D02*
D03*
X-139819D02*
D03*
X-132319D02*
D03*
X-124819D02*
D03*
X-117319D02*
D03*
X-109819D02*
D03*
X-184819Y171690D02*
D03*
X-177319Y171690D02*
D03*
X-169819D02*
D03*
X-162319D02*
D03*
X-154819D02*
D03*
X-147319Y171690D02*
D03*
X-139819Y171690D02*
D03*
X-132319D02*
D03*
X-124819D02*
D03*
X-117319D02*
D03*
X-109819Y171690D02*
D03*
X-184819Y164190D02*
D03*
X-177319D02*
D03*
X-169819D02*
D03*
X-162319D02*
D03*
X-154819D02*
D03*
X-147319D02*
D03*
X-139819D02*
D03*
X-132319D02*
D03*
X-124819D02*
D03*
X-117319D02*
D03*
X-109819D02*
D03*
X-184819Y156690D02*
D03*
X-177319D02*
D03*
X-169819D02*
D03*
X-162319D02*
D03*
X-154819D02*
D03*
X-147319D02*
D03*
X-139819D02*
D03*
X-132319D02*
D03*
X-124819D02*
D03*
X-117319D02*
D03*
X-109819D02*
D03*
X-184819Y149190D02*
D03*
X-177319D02*
D03*
X-169819D02*
D03*
X-162319D02*
D03*
X-154819D02*
D03*
X-147319D02*
D03*
X-139819D02*
D03*
X-132319D02*
D03*
X-124819D02*
D03*
X-117319D02*
D03*
X-109819D02*
D03*
D114*
X-137161Y280670D02*
D03*
D115*
X-151661Y273170D02*
D03*
Y278170D02*
D03*
Y283170D02*
D03*
Y288170D02*
D03*
X-122661D02*
D03*
Y283170D02*
D03*
Y278170D02*
D03*
Y273170D02*
D03*
D116*
X-344249Y-88940D02*
D03*
Y-101560D02*
D03*
X-349249Y-88940D02*
D03*
Y-101560D02*
D03*
X-354249Y-88940D02*
D03*
D117*
Y-101052D02*
D03*
X-8970Y69487D02*
D03*
X-13970D02*
D03*
X-18970D02*
D03*
Y47351D02*
D03*
X-13970D02*
D03*
X-8970D02*
D03*
D118*
X-402Y50919D02*
D03*
Y55919D02*
D03*
Y60919D02*
D03*
Y65919D02*
D03*
X-27538D02*
D03*
Y60919D02*
D03*
Y55919D02*
D03*
Y50919D02*
D03*
D119*
X29171Y50257D02*
D03*
X24171D02*
D03*
Y66583D02*
D03*
X29171D02*
D03*
D120*
X18508Y50920D02*
D03*
Y55920D02*
D03*
Y60920D02*
D03*
Y65920D02*
D03*
X34834D02*
D03*
Y60920D02*
D03*
Y55920D02*
D03*
Y50920D02*
D03*
D121*
X-125731Y247810D02*
D03*
Y242410D02*
D03*
X-210821Y83726D02*
D03*
Y78326D02*
D03*
D122*
X-126309Y129541D02*
D03*
X-135309D02*
D03*
X-51491Y-102870D02*
D03*
X-42491D02*
D03*
X-28521Y-67818D02*
D03*
X-37521D02*
D03*
X-79429Y-8890D02*
D03*
X-70429D02*
D03*
X-79429Y1270D02*
D03*
X-70429D02*
D03*
X-208861Y253999D02*
D03*
X-217861D02*
D03*
X-169599Y-238760D02*
D03*
X-160599D02*
D03*
D123*
X-117000Y129539D02*
D03*
X-111600D02*
D03*
X-111920Y242571D02*
D03*
X-117320D02*
D03*
X-351950Y-110490D02*
D03*
X-346550D02*
D03*
Y-123190D02*
D03*
X-351950D02*
D03*
D124*
X-116841Y259771D02*
D03*
Y250771D02*
D03*
X-255269Y257119D02*
D03*
Y266119D02*
D03*
X-49530Y9579D02*
D03*
Y579D02*
D03*
D125*
X-295907Y117009D02*
D03*
Y170009D02*
D03*
X-234947D02*
D03*
Y117009D02*
D03*
X-120142Y-154770D02*
D03*
Y-101770D02*
D03*
D126*
X-274320Y202565D02*
D03*
Y231775D02*
D03*
D127*
X-170640Y128270D02*
D03*
X-164640D02*
D03*
X-235760Y-29210D02*
D03*
X-241760D02*
D03*
X-235760Y-16510D02*
D03*
X-241760D02*
D03*
X-235760Y-3810D02*
D03*
X-241760Y-3810D02*
D03*
X-235760Y8890D02*
D03*
X-241760Y8890D02*
D03*
X-235760Y21590D02*
D03*
X-241760Y21590D02*
D03*
X-352250Y-116840D02*
D03*
X-346250D02*
D03*
D128*
X-209551Y274275D02*
D03*
Y284525D02*
D03*
X-46990Y-58376D02*
D03*
Y-68626D02*
D03*
X-218439Y284525D02*
D03*
Y274275D02*
D03*
D129*
X-252339Y58420D02*
D03*
X-260739D02*
D03*
X-252339Y45720D02*
D03*
X-260739D02*
D03*
X-252339Y-29210D02*
D03*
X-260739D02*
D03*
X-252339Y-16510D02*
D03*
X-260739D02*
D03*
X-252339Y-3810D02*
D03*
X-260739D02*
D03*
X-252339Y8890D02*
D03*
X-260739D02*
D03*
X-252339Y21590D02*
D03*
X-260739D02*
D03*
D130*
X99061Y-204088D02*
D03*
Y-220088D02*
D03*
X-142112Y-227709D02*
D03*
Y-211709D02*
D03*
X54609Y-178182D02*
D03*
Y-162182D02*
D03*
X-60961Y-178182D02*
D03*
Y-162182D02*
D03*
X-64770Y-124840D02*
D03*
Y-108840D02*
D03*
D131*
X-66748Y-309217D02*
D03*
X-75492Y-358802D02*
D03*
D132*
X196522Y-278365D02*
D03*
X164158Y-239795D02*
D03*
D133*
X221292Y-214942D02*
D03*
X258768Y-252418D02*
D03*
D134*
X-81280Y-129380D02*
D03*
Y-109380D02*
D03*
X-26670Y-164940D02*
D03*
Y-144940D02*
D03*
D135*
X128939Y-290078D02*
D03*
X153001Y-337302D02*
D03*
D136*
X224266Y-163810D02*
D03*
X258334Y-123210D02*
D03*
D137*
X-4439Y-42539D02*
D03*
X-10803Y-48903D02*
D03*
X90798Y-65410D02*
D03*
X97162Y-59046D02*
D03*
X98418Y-73030D02*
D03*
X104782Y-66666D02*
D03*
X89528Y-103510D02*
D03*
X95892Y-97146D02*
D03*
X74301Y-64129D02*
D03*
X67937Y-70493D02*
D03*
D138*
X152157Y-185422D02*
D03*
X122157D02*
D03*
X27698D02*
D03*
X-2303D02*
D03*
X-111523Y-194312D02*
D03*
X-81523D02*
D03*
D139*
X-270510Y-246380D02*
D03*
X232410Y-5080D02*
D03*
X201930Y307848D02*
D03*
D140*
X-225387Y290665D02*
D03*
X-228216Y293494D02*
D03*
X-216606Y297378D02*
D03*
X-219434Y300206D02*
D03*
X-208567Y304325D02*
D03*
X-211395Y307153D02*
D03*
D141*
X81093Y-111573D02*
D03*
X73845Y-104325D02*
D03*
D142*
X91255Y-80197D02*
D03*
X84007Y-87445D02*
D03*
X83635Y-72577D02*
D03*
X76387Y-79825D02*
D03*
D143*
X-38144Y-58420D02*
D03*
X-27894D02*
D03*
X-49574Y-78740D02*
D03*
X-39324D02*
D03*
X-78786Y-97790D02*
D03*
X-68536D02*
D03*
X-49576Y-88900D02*
D03*
X-39326D02*
D03*
X73616Y-124460D02*
D03*
X83866Y-124460D02*
D03*
X-232365Y284479D02*
D03*
X-242615D02*
D03*
X-218485Y264161D02*
D03*
X-208235D02*
D03*
X-170226Y-252730D02*
D03*
X-159976D02*
D03*
D144*
X-97470Y-6350D02*
D03*
X-120970D02*
D03*
D145*
X-100897Y350947D02*
D03*
X-166024Y325284D02*
D03*
D146*
X-84893Y355498D02*
D03*
X-15423Y364095D02*
D03*
D147*
X-304800Y-208280D02*
D03*
X-82550Y157480D02*
D03*
D148*
X151697Y127622D02*
D03*
Y-4204D02*
D03*
D149*
Y202622D02*
D03*
Y70796D02*
D03*
D150*
X54897Y152622D02*
D03*
Y177622D02*
D03*
X79897Y202622D02*
D03*
Y177622D02*
D03*
Y152622D02*
D03*
X54897Y127622D02*
D03*
X79897D02*
D03*
X-201829Y-266261D02*
D03*
X-220980Y-250191D02*
D03*
X54897Y20796D02*
D03*
Y45796D02*
D03*
X79897Y70796D02*
D03*
Y45796D02*
D03*
Y20796D02*
D03*
X54897Y-4204D02*
D03*
X79897D02*
D03*
D151*
X54897Y202622D02*
D03*
Y70796D02*
D03*
D152*
X-220018Y-268491D02*
D03*
D153*
X-107513Y-257211D02*
D03*
X76984D02*
D03*
X-15265Y-267987D02*
D03*
D154*
X-306033Y94002D02*
D03*
Y-64498D02*
D03*
D155*
X265630Y-71175D02*
D03*
X-194454Y-194454D02*
D03*
X-71175Y265630D02*
D03*
D156*
X342900Y-71175D02*
D03*
X312420Y-165100D02*
D03*
M02*
