G04*
G04 #@! TF.GenerationSoftware,Altium Limited,Altium Designer,24.1.2 (44)*
G04*
G04 Layer_Color=128*
%FSLAX44Y44*%
%MOMM*%
G71*
G04*
G04 #@! TF.SameCoordinates,3E41DE66-C22E-4A43-A9AF-2340ABB4EF3F*
G04*
G04*
G04 #@! TF.FilePolarity,Positive*
G04*
G01*
G75*
%ADD20C,0.1778*%
%ADD47R,0.9500X1.0000*%
%ADD59R,0.3200X0.2600*%
%ADD60R,0.6200X0.6200*%
%ADD61R,0.2600X0.3200*%
%ADD62R,0.6200X0.6200*%
%ADD64R,1.7780X1.3970*%
%ADD65R,0.2500X0.3000*%
%ADD66R,0.5000X0.4750*%
%ADD67O,0.3500X1.2500*%
%ADD68R,0.3500X1.2500*%
%ADD71R,0.3600X0.2500*%
%ADD74R,1.4500X1.1500*%
%ADD78R,1.1500X2.7000*%
%ADD79R,0.7700X0.9800*%
G04:AMPARAMS|DCode=81|XSize=0.5mm|YSize=0.475mm|CornerRadius=0mm|HoleSize=0mm|Usage=FLASHONLY|Rotation=225.000|XOffset=0mm|YOffset=0mm|HoleType=Round|Shape=Rectangle|*
%AMROTATEDRECTD81*
4,1,4,0.0088,0.3447,0.3447,0.0088,-0.0088,-0.3447,-0.3447,-0.0088,0.0088,0.3447,0.0*
%
%ADD81ROTATEDRECTD81*%

%ADD83R,0.4750X0.5000*%
%ADD191O,0.7874X0.2794*%
%ADD192O,0.2794X0.7874*%
%ADD194R,0.5000X0.5000*%
%ADD195R,4.5200X3.8500*%
%ADD196R,0.7100X1.3720*%
%ADD197O,1.5500X0.6000*%
%ADD198R,0.6000X1.0000*%
%ADD199R,1.0500X0.6604*%
%ADD200O,1.5500X0.6000*%
%ADD201R,0.9500X0.9000*%
%ADD202R,2.4892X3.6068*%
%ADD203R,1.2500X1.5000*%
%ADD204R,0.6500X0.9000*%
%ADD205R,0.3000X0.2500*%
%ADD207R,0.4000X0.3000*%
%ADD208R,0.9800X0.7700*%
%ADD209R,0.8000X0.4000*%
%ADD211R,1.1500X1.4500*%
%ADD212R,0.6000X0.3500*%
%ADD213R,0.1905X0.3500*%
%ADD214R,0.9500X0.6000*%
%ADD215R,2.7000X1.1500*%
%ADD216R,0.2500X0.3600*%
G04:AMPARAMS|DCode=217|XSize=0.3mm|YSize=0.25mm|CornerRadius=0mm|HoleSize=0mm|Usage=FLASHONLY|Rotation=225.000|XOffset=0mm|YOffset=0mm|HoleType=Round|Shape=Rectangle|*
%AMROTATEDRECTD217*
4,1,4,0.0177,0.1945,0.1945,0.0177,-0.0177,-0.1945,-0.1945,-0.0177,0.0177,0.1945,0.0*
%
%ADD217ROTATEDRECTD217*%

G36*
X-238760Y95250D02*
X-242570D01*
X-245745Y99060D01*
X-252730D01*
Y90170D01*
X-250190Y87630D01*
X-238760D01*
Y95250D01*
D01*
D02*
G37*
G36*
X-222250Y99060D02*
X-229235D01*
X-232410Y95250D01*
X-236220D01*
Y87630D01*
X-224790D01*
X-222250Y90170D01*
Y99060D01*
D01*
D02*
G37*
G36*
X-238760Y120650D02*
X-250190D01*
X-252730Y118110D01*
Y109220D01*
X-245745D01*
X-242570Y113030D01*
X-238760D01*
Y120650D01*
D01*
D02*
G37*
G36*
X-222250Y118110D02*
X-224790Y120650D01*
X-236220D01*
Y113030D01*
X-232410D01*
X-229235Y109220D01*
X-222250D01*
Y118110D01*
D01*
D02*
G37*
G36*
X-1016Y-6604D02*
X-6604D01*
Y-1016D01*
X-1016D01*
Y-6604D01*
D02*
G37*
G36*
Y1016D02*
X-6604D01*
Y6604D01*
X-1016D01*
Y1016D01*
D02*
G37*
G36*
X6604Y-6604D02*
X1016D01*
Y-1016D01*
X6604D01*
Y-6604D01*
D02*
G37*
G36*
Y1016D02*
X1016D01*
Y6604D01*
X6604D01*
Y1016D01*
D02*
G37*
D20*
X833120Y-158753D02*
Y-171450D01*
Y-158753D02*
X838562D01*
X840376Y-159357D01*
X840980Y-159962D01*
X841585Y-161171D01*
Y-162381D01*
X840980Y-163590D01*
X840376Y-164194D01*
X838562Y-164799D01*
X833120D02*
X838562D01*
X840376Y-165404D01*
X840980Y-166008D01*
X841585Y-167218D01*
Y-169032D01*
X840980Y-170241D01*
X840376Y-170845D01*
X838562Y-171450D01*
X833120D01*
X848054Y-158753D02*
X846845Y-159357D01*
X845636Y-160567D01*
X845031Y-161776D01*
X844427Y-163590D01*
Y-166613D01*
X845031Y-168427D01*
X845636Y-169636D01*
X846845Y-170845D01*
X848054Y-171450D01*
X850473D01*
X851682Y-170845D01*
X852891Y-169636D01*
X853496Y-168427D01*
X854101Y-166613D01*
Y-163590D01*
X853496Y-161776D01*
X852891Y-160567D01*
X851682Y-159357D01*
X850473Y-158753D01*
X848054D01*
X861296D02*
Y-171450D01*
X857063Y-158753D02*
X865528D01*
X871272D02*
Y-171450D01*
X867040Y-158753D02*
X875505D01*
X880644D02*
X879435Y-159357D01*
X878226Y-160567D01*
X877621Y-161776D01*
X877016Y-163590D01*
Y-166613D01*
X877621Y-168427D01*
X878226Y-169636D01*
X879435Y-170845D01*
X880644Y-171450D01*
X883063D01*
X884272Y-170845D01*
X885481Y-169636D01*
X886086Y-168427D01*
X886690Y-166613D01*
Y-163590D01*
X886086Y-161776D01*
X885481Y-160567D01*
X884272Y-159357D01*
X883063Y-158753D01*
X880644D01*
X889653D02*
Y-171450D01*
Y-158753D02*
X894490Y-171450D01*
X899327Y-158753D02*
X894490Y-171450D01*
X899327Y-158753D02*
Y-171450D01*
X902955Y-175682D02*
X912629D01*
X914262Y-165404D02*
X919703D01*
X921517Y-164799D01*
X922122Y-164194D01*
X922727Y-162985D01*
Y-161171D01*
X922122Y-159962D01*
X921517Y-159357D01*
X919703Y-158753D01*
X914262D01*
Y-171450D01*
X935242D02*
X930405Y-158753D01*
X925568Y-171450D01*
X927382Y-167218D02*
X933428D01*
X946670Y-160567D02*
X945461Y-159357D01*
X943647Y-158753D01*
X941228D01*
X939414Y-159357D01*
X938205Y-160567D01*
Y-161776D01*
X938810Y-162985D01*
X939414Y-163590D01*
X940624Y-164194D01*
X944251Y-165404D01*
X945461Y-166008D01*
X946065Y-166613D01*
X946670Y-167822D01*
Y-169636D01*
X945461Y-170845D01*
X943647Y-171450D01*
X941228D01*
X939414Y-170845D01*
X938205Y-169636D01*
X953744Y-158753D02*
Y-171450D01*
X949512Y-158753D02*
X957977D01*
X967348D02*
X959488D01*
Y-171450D01*
X967348D01*
X959488Y-164799D02*
X964325D01*
D47*
X-28831Y-60960D02*
D03*
X-44831D02*
D03*
D59*
X7620Y56990D02*
D03*
Y62390D02*
D03*
X-30975Y76243D02*
D03*
Y81643D02*
D03*
X-330200Y-125570D02*
D03*
Y-130970D02*
D03*
X-317500Y-125570D02*
D03*
Y-130970D02*
D03*
X250190Y106840D02*
D03*
Y101440D02*
D03*
X-285750Y-130970D02*
D03*
Y-125570D02*
D03*
X-298450Y-130970D02*
D03*
Y-125570D02*
D03*
X-285750Y-105250D02*
D03*
Y-110650D02*
D03*
X-298450D02*
D03*
Y-105250D02*
D03*
X-330200Y-110650D02*
D03*
Y-105250D02*
D03*
X-317500Y-110650D02*
D03*
Y-105250D02*
D03*
X-148820Y213993D02*
D03*
Y219393D02*
D03*
X-162321Y185640D02*
D03*
Y180240D02*
D03*
X-156540Y202742D02*
D03*
Y208141D02*
D03*
X-193074Y153769D02*
D03*
Y159169D02*
D03*
X-253999Y213200D02*
D03*
Y218600D02*
D03*
X-247649Y213200D02*
D03*
Y218600D02*
D03*
X-119380Y46642D02*
D03*
Y41242D02*
D03*
X-163936Y50642D02*
D03*
Y45242D02*
D03*
X-7620Y31910D02*
D03*
Y26510D02*
D03*
X-171736Y41342D02*
D03*
Y46742D02*
D03*
X-205740Y47150D02*
D03*
Y41750D02*
D03*
X-178239Y33743D02*
D03*
Y28343D02*
D03*
X-205740Y34450D02*
D03*
Y29050D02*
D03*
X-183641Y123350D02*
D03*
Y117950D02*
D03*
X-176021D02*
D03*
Y123350D02*
D03*
X-111760Y9812D02*
D03*
Y4412D02*
D03*
X-234951Y152560D02*
D03*
Y147160D02*
D03*
X-227331Y152560D02*
D03*
Y147160D02*
D03*
X-118109Y336390D02*
D03*
Y341790D02*
D03*
X-167639Y261460D02*
D03*
Y266860D02*
D03*
D60*
X19629Y81280D02*
D03*
X28629D02*
D03*
X-14986Y71374D02*
D03*
X-5986D02*
D03*
X-314379Y121919D02*
D03*
X-305379D02*
D03*
X-269929Y118109D02*
D03*
X-260929D02*
D03*
X-33709Y114299D02*
D03*
X-24709D02*
D03*
Y177799D02*
D03*
X-33709D02*
D03*
X216589Y-62229D02*
D03*
X207589D02*
D03*
X-4318Y-72390D02*
D03*
X4682D02*
D03*
X-123769Y-26670D02*
D03*
X-132769D02*
D03*
X-192461Y-44450D02*
D03*
X-183461D02*
D03*
X-165791Y-2540D02*
D03*
X-156791D02*
D03*
X-132771Y-36830D02*
D03*
X-123771D02*
D03*
X-132769Y-62230D02*
D03*
X-123769D02*
D03*
X-264851Y-26670D02*
D03*
X-255851D02*
D03*
X-169601Y-85090D02*
D03*
X-160601D02*
D03*
X-132771Y-52070D02*
D03*
X-123771D02*
D03*
X-255849Y-36830D02*
D03*
X-264849D02*
D03*
X-264851Y-62230D02*
D03*
X-255851D02*
D03*
X-247071Y-74930D02*
D03*
X-238071D02*
D03*
X-255849Y-52070D02*
D03*
X-264849D02*
D03*
X15931Y257809D02*
D03*
X6931D02*
D03*
X15931Y321309D02*
D03*
X6931D02*
D03*
X-307919Y-149860D02*
D03*
X-316919D02*
D03*
X149169Y284480D02*
D03*
X158169D02*
D03*
X92019Y300991D02*
D03*
X101019D02*
D03*
X-187635Y60198D02*
D03*
X-178635D02*
D03*
X-211511Y85598D02*
D03*
X-202511D02*
D03*
D61*
X-336390Y45720D02*
D03*
X-341790Y45720D02*
D03*
X-349090Y7620D02*
D03*
X-354490Y7620D02*
D03*
X-300830Y-140970D02*
D03*
X-306230D02*
D03*
X234790Y119380D02*
D03*
X240190D02*
D03*
X-137320Y260350D02*
D03*
X-131920D02*
D03*
X-117950Y226060D02*
D03*
X-123350D02*
D03*
X-152010Y273547D02*
D03*
X-157410D02*
D03*
X-142519Y187338D02*
D03*
X-137119D02*
D03*
X-142519Y193545D02*
D03*
X-137119D02*
D03*
X-176272Y197941D02*
D03*
X-170872D02*
D03*
X-180023Y179939D02*
D03*
X-174622D02*
D03*
X-193132Y190440D02*
D03*
X-198532D02*
D03*
X-176272Y186182D02*
D03*
X-170872D02*
D03*
X-264000Y85090D02*
D03*
X-269400D02*
D03*
X-264000Y91441D02*
D03*
X-269400D02*
D03*
X-130239Y87593D02*
D03*
X-124838D02*
D03*
X-130239Y81093D02*
D03*
X-124838D02*
D03*
X-130239Y66793D02*
D03*
X-124838D02*
D03*
X-131988Y39491D02*
D03*
X-137388D02*
D03*
X-163868Y58991D02*
D03*
X-169268D02*
D03*
X227490Y119380D02*
D03*
X222090D02*
D03*
X-165138Y73290D02*
D03*
X-170538D02*
D03*
X-6190Y83820D02*
D03*
X-11590D02*
D03*
X-165138Y81090D02*
D03*
X-170538D02*
D03*
X-161130Y91440D02*
D03*
X-166530D02*
D03*
X-152240Y40640D02*
D03*
X-157640D02*
D03*
X-117762Y74930D02*
D03*
X-112362D02*
D03*
X-117000Y117349D02*
D03*
X-111600D02*
D03*
X-100170Y9651D02*
D03*
X-105570D02*
D03*
X-105062Y117347D02*
D03*
X-99662D02*
D03*
X-11590Y355600D02*
D03*
X-6190D02*
D03*
X20414Y48260D02*
D03*
X25814D02*
D03*
D62*
X-321309Y171451D02*
D03*
Y180451D02*
D03*
X261619Y-259771D02*
D03*
Y-250771D02*
D03*
X273049Y-235641D02*
D03*
Y-226641D02*
D03*
X-186690Y-117419D02*
D03*
Y-126419D02*
D03*
X-247650Y-117419D02*
D03*
Y-126419D02*
D03*
X-270510Y-193619D02*
D03*
Y-202619D02*
D03*
X-199390Y-98369D02*
D03*
Y-107369D02*
D03*
X-260350Y-98369D02*
D03*
Y-107369D02*
D03*
X-283210Y-174569D02*
D03*
Y-183569D02*
D03*
X-143510Y-27249D02*
D03*
Y-36249D02*
D03*
Y-61651D02*
D03*
Y-52651D02*
D03*
X-245110Y-27249D02*
D03*
Y-36249D02*
D03*
X-214630Y14661D02*
D03*
Y5661D02*
D03*
X-245110Y-61651D02*
D03*
Y-52651D02*
D03*
X-306070Y-164409D02*
D03*
Y-173409D02*
D03*
X-295910Y-164409D02*
D03*
Y-173409D02*
D03*
X158750Y314269D02*
D03*
Y323269D02*
D03*
X-205740Y56459D02*
D03*
Y65459D02*
D03*
X-193040Y130231D02*
D03*
Y121231D02*
D03*
X-203201Y97099D02*
D03*
Y106099D02*
D03*
X-71119Y335971D02*
D03*
Y326971D02*
D03*
X20320Y65461D02*
D03*
Y56461D02*
D03*
D64*
X-271781Y202565D02*
D03*
Y231775D02*
D03*
D65*
X-336090Y33020D02*
D03*
X-342090Y33020D02*
D03*
X-336090Y-5080D02*
D03*
X-342090Y-5080D02*
D03*
X-329390Y-29210D02*
D03*
X-323390D02*
D03*
X-329390Y-17780D02*
D03*
X-323390Y-17780D02*
D03*
X-329390Y-5080D02*
D03*
X-323390Y-5080D02*
D03*
X-329390Y7620D02*
D03*
X-323390Y7620D02*
D03*
X-329390Y20320D02*
D03*
X-323390Y20320D02*
D03*
X-329390Y45720D02*
D03*
X-323390D02*
D03*
X-342090Y7620D02*
D03*
X-336090D02*
D03*
Y73660D02*
D03*
X-342090Y73660D02*
D03*
X-336090Y67310D02*
D03*
X-342090Y67310D02*
D03*
X-311610Y194310D02*
D03*
X-305610D02*
D03*
X-296720Y215900D02*
D03*
X-302720D02*
D03*
X-106676Y188341D02*
D03*
X-112676D02*
D03*
X-124158Y234950D02*
D03*
X-118158D02*
D03*
X-173180Y278130D02*
D03*
X-167180D02*
D03*
X-173180Y287021D02*
D03*
X-167180D02*
D03*
X-173180Y295911D02*
D03*
X-167180D02*
D03*
X-235411Y175260D02*
D03*
X-229411D02*
D03*
Y167642D02*
D03*
X-235411D02*
D03*
X-229410Y158751D02*
D03*
X-235410D02*
D03*
X8430Y-26670D02*
D03*
X14430D02*
D03*
X-325580Y161289D02*
D03*
X-319580D02*
D03*
X16050Y22860D02*
D03*
X22050D02*
D03*
X16050Y35560D02*
D03*
X22050D02*
D03*
X-336090Y20320D02*
D03*
X-342090Y20320D02*
D03*
X-329390Y33020D02*
D03*
X-323390Y33020D02*
D03*
X-3350Y-26670D02*
D03*
X-9350D02*
D03*
X215090Y113030D02*
D03*
X209090D02*
D03*
Y119380D02*
D03*
X215090D02*
D03*
X-298910Y194310D02*
D03*
X-292910D02*
D03*
X-19860Y355600D02*
D03*
X-25860D02*
D03*
X-306530Y203200D02*
D03*
X-300530D02*
D03*
D66*
X-96521Y49485D02*
D03*
Y59735D02*
D03*
X-260350Y-127044D02*
D03*
Y-116794D02*
D03*
X-199390D02*
D03*
Y-127044D02*
D03*
X262891Y-226015D02*
D03*
Y-236265D02*
D03*
X-283210Y-192994D02*
D03*
Y-203244D02*
D03*
X-182880Y-26716D02*
D03*
Y-16466D02*
D03*
Y-62184D02*
D03*
Y-72434D02*
D03*
X-205740Y-26716D02*
D03*
Y-16466D02*
D03*
Y-35514D02*
D03*
Y-45764D02*
D03*
Y-62184D02*
D03*
Y-72434D02*
D03*
X-196850Y-62184D02*
D03*
Y-72434D02*
D03*
X110490Y333964D02*
D03*
Y344214D02*
D03*
X148590Y323896D02*
D03*
Y313646D02*
D03*
X76200Y345486D02*
D03*
Y335236D02*
D03*
X-58421Y326345D02*
D03*
Y336595D02*
D03*
X-177419Y251383D02*
D03*
Y241133D02*
D03*
X-186829Y251383D02*
D03*
Y241133D02*
D03*
X-196089Y209594D02*
D03*
Y199344D02*
D03*
X-355600Y-100376D02*
D03*
Y-90126D02*
D03*
X-158750Y236265D02*
D03*
Y226015D02*
D03*
X-167640Y236265D02*
D03*
Y226015D02*
D03*
X-123190Y262935D02*
D03*
Y252685D02*
D03*
D67*
X241600Y136850D02*
D03*
X235100D02*
D03*
X228600D02*
D03*
X222100D02*
D03*
X215600D02*
D03*
X209100D02*
D03*
X248100Y193350D02*
D03*
X241600D02*
D03*
X235100D02*
D03*
X228600D02*
D03*
X222100D02*
D03*
X215600D02*
D03*
X209100D02*
D03*
D68*
X248100Y136850D02*
D03*
D71*
X-255659Y-237490D02*
D03*
X-247259D02*
D03*
X-303141Y-17780D02*
D03*
X-311541D02*
D03*
X-303141Y-29210D02*
D03*
X-311541D02*
D03*
X-303141Y-5080D02*
D03*
X-311541D02*
D03*
X-303141Y7620D02*
D03*
X-311541D02*
D03*
X-303141Y20320D02*
D03*
X-311541D02*
D03*
X-303141Y33020D02*
D03*
X-311541D02*
D03*
X-303141Y45720D02*
D03*
X-311541D02*
D03*
X-303141Y58420D02*
D03*
X-311541D02*
D03*
D74*
X275589Y-142080D02*
D03*
Y-122080D02*
D03*
X255269Y-142080D02*
D03*
Y-122080D02*
D03*
D78*
X34053Y289557D02*
D03*
X4053D02*
D03*
X-7857Y148588D02*
D03*
X-37857D02*
D03*
D79*
X-263690Y-250190D02*
D03*
X-249390D02*
D03*
X-183680Y-303530D02*
D03*
X-169380D02*
D03*
X-177330Y-288290D02*
D03*
X-163030D02*
D03*
X-169710Y-271780D02*
D03*
X-155410D02*
D03*
D81*
X105223Y-248733D02*
D03*
X97976Y-241486D02*
D03*
X1083Y-246193D02*
D03*
X-6164Y-238946D02*
D03*
D83*
X-132126Y242570D02*
D03*
X-121876D02*
D03*
X-115615Y59691D02*
D03*
X-105365D02*
D03*
X2585Y177799D02*
D03*
X-7665D02*
D03*
X2585Y114299D02*
D03*
X-7665D02*
D03*
X217215Y-50801D02*
D03*
X206965D02*
D03*
X64216Y354330D02*
D03*
X74466D02*
D03*
X64216Y363220D02*
D03*
X74466D02*
D03*
X-155910Y-12700D02*
D03*
X-166160D02*
D03*
X-182834Y-35560D02*
D03*
X-193084D02*
D03*
X-159974Y-74930D02*
D03*
X-170224D02*
D03*
X-182834Y-53340D02*
D03*
X-193084D02*
D03*
X-215946Y-6350D02*
D03*
X-205696D02*
D03*
X-228900Y-74930D02*
D03*
X-218650D02*
D03*
X-330245Y152401D02*
D03*
X-319995D02*
D03*
X99106Y361950D02*
D03*
X88856D02*
D03*
X143464Y334010D02*
D03*
X153714D02*
D03*
X153716Y342900D02*
D03*
X143466D02*
D03*
X148544Y304800D02*
D03*
X158794D02*
D03*
X91395Y325121D02*
D03*
X101645D02*
D03*
X158796Y294640D02*
D03*
X148546D02*
D03*
X101645Y314959D02*
D03*
X91395D02*
D03*
X129586Y284480D02*
D03*
X119336D02*
D03*
X181656D02*
D03*
X171406D02*
D03*
X44495Y321309D02*
D03*
X34245D02*
D03*
X44495Y257809D02*
D03*
X34245D02*
D03*
X-270555Y106681D02*
D03*
X-260305D02*
D03*
X-156256Y-236220D02*
D03*
X-146006D02*
D03*
D191*
X14937Y-7500D02*
D03*
Y-2500D02*
D03*
Y2500D02*
D03*
Y7500D02*
D03*
X-14937Y-7500D02*
D03*
Y-2500D02*
D03*
Y2500D02*
D03*
Y7500D02*
D03*
D192*
X-7500Y14937D02*
D03*
Y-14937D02*
D03*
X-2500Y14937D02*
D03*
Y-14937D02*
D03*
X2500Y14937D02*
D03*
Y-14937D02*
D03*
X7500Y14937D02*
D03*
Y-14937D02*
D03*
D194*
X93980Y334399D02*
D03*
X100480Y351399D02*
D03*
X87480D02*
D03*
X127000Y350131D02*
D03*
X120500Y333131D02*
D03*
X133500D02*
D03*
D195*
X162543Y-198883D02*
D03*
X-67352D02*
D03*
X105069Y-180084D02*
D03*
X-9878D02*
D03*
X-124825D02*
D03*
X47595Y-198883D02*
D03*
D196*
X181593Y-217185D02*
D03*
X168893D02*
D03*
X156193D02*
D03*
X143493D02*
D03*
X181593Y-161785D02*
D03*
X168893D02*
D03*
X156193D02*
D03*
X143493D02*
D03*
X-86402D02*
D03*
X-73702D02*
D03*
X-61002D02*
D03*
X-48302D02*
D03*
X-86402Y-217185D02*
D03*
X-73702D02*
D03*
X-61002D02*
D03*
X-48302D02*
D03*
X86019Y-161782D02*
D03*
X98719D02*
D03*
X111419D02*
D03*
X124119D02*
D03*
X86019Y-217182D02*
D03*
X98719D02*
D03*
X111419D02*
D03*
X124119D02*
D03*
X-28928Y-161782D02*
D03*
X-16228D02*
D03*
X-3528D02*
D03*
X9172D02*
D03*
X-28928Y-217182D02*
D03*
X-16228D02*
D03*
X-3528D02*
D03*
X9172D02*
D03*
X-143876Y-161782D02*
D03*
X-131175D02*
D03*
X-118476D02*
D03*
X-105775D02*
D03*
X-143876Y-217182D02*
D03*
X-131175D02*
D03*
X-118476D02*
D03*
X-105775D02*
D03*
X28545Y-161785D02*
D03*
X41245D02*
D03*
X53945D02*
D03*
X66645D02*
D03*
X28545Y-217185D02*
D03*
X41245D02*
D03*
X53945D02*
D03*
X66645D02*
D03*
D197*
X192710Y-274319D02*
D03*
Y-261619D02*
D03*
Y-248919D02*
D03*
Y-236219D02*
D03*
X246710D02*
D03*
Y-248919D02*
D03*
Y-261619D02*
D03*
Y-274319D02*
D03*
D198*
X182880Y320611D02*
D03*
X173380Y296611D02*
D03*
X192380D02*
D03*
X124461Y320611D02*
D03*
X114961Y296611D02*
D03*
X133961D02*
D03*
D199*
X-121600Y294640D02*
D03*
X-145100Y304140D02*
D03*
Y285140D02*
D03*
D200*
X-303860Y133351D02*
D03*
Y146051D02*
D03*
Y158751D02*
D03*
Y171451D02*
D03*
X-249860Y133351D02*
D03*
Y146051D02*
D03*
Y158751D02*
D03*
Y171451D02*
D03*
D201*
X-208283Y161799D02*
D03*
Y130299D02*
D03*
D202*
X261167Y-173990D02*
D03*
X211274D02*
D03*
X122181Y-312980D02*
D03*
X72288D02*
D03*
X22718Y-322858D02*
D03*
X-27174D02*
D03*
X-75167Y-312980D02*
D03*
X-125059D02*
D03*
D203*
X189969Y262890D02*
D03*
X155469D02*
D03*
X100861D02*
D03*
X135361D02*
D03*
D204*
X-234579Y-50800D02*
D03*
X-220079D02*
D03*
X-118481Y-13970D02*
D03*
X-132981D02*
D03*
X-154041Y-25400D02*
D03*
X-168541D02*
D03*
X-98161Y-36830D02*
D03*
X-112661D02*
D03*
X-154041Y-38100D02*
D03*
X-168541D02*
D03*
X-117211Y-74930D02*
D03*
X-131711D02*
D03*
X-154041Y-63500D02*
D03*
X-168541D02*
D03*
X-98161Y-52070D02*
D03*
X-112661D02*
D03*
X-154041Y-50800D02*
D03*
X-168541D02*
D03*
X-270139Y-13970D02*
D03*
X-255639D02*
D03*
X-234579Y-25400D02*
D03*
X-220079D02*
D03*
X-275959Y-34290D02*
D03*
X-290459D02*
D03*
X-234579Y-38100D02*
D03*
X-220079D02*
D03*
X-272679Y-74930D02*
D03*
X-258179D02*
D03*
X-234579Y-63500D02*
D03*
X-220079D02*
D03*
X-290459Y-49530D02*
D03*
X-275959D02*
D03*
D205*
X-144780Y254810D02*
D03*
Y260810D02*
D03*
X-48261Y88090D02*
D03*
Y82090D02*
D03*
X-172466Y96060D02*
D03*
Y102060D02*
D03*
X-303530Y74120D02*
D03*
Y68120D02*
D03*
X-311150D02*
D03*
X-311150Y74120D02*
D03*
Y-125270D02*
D03*
Y-131270D02*
D03*
X-323850D02*
D03*
X-323850Y-125270D02*
D03*
X234950Y107140D02*
D03*
Y101140D02*
D03*
X250190Y119840D02*
D03*
Y113840D02*
D03*
X-304800Y-131270D02*
D03*
X-304800Y-125270D02*
D03*
X-292100Y-131270D02*
D03*
Y-125270D02*
D03*
X-304800Y-110950D02*
D03*
Y-104950D02*
D03*
X-292100D02*
D03*
Y-110950D02*
D03*
X-311150Y-104950D02*
D03*
Y-110950D02*
D03*
X-323850Y-104950D02*
D03*
Y-110950D02*
D03*
X7112Y363268D02*
D03*
Y369268D02*
D03*
X23541Y363268D02*
D03*
Y369268D02*
D03*
X-147320Y241760D02*
D03*
Y235760D02*
D03*
X39969Y363268D02*
D03*
Y369268D02*
D03*
X-85598Y111300D02*
D03*
Y117300D02*
D03*
X-93981Y129081D02*
D03*
Y135081D02*
D03*
X56398Y363268D02*
D03*
Y369268D02*
D03*
X-177419Y258496D02*
D03*
Y264496D02*
D03*
X-186829Y258496D02*
D03*
Y264496D02*
D03*
X-110489Y336090D02*
D03*
Y342090D02*
D03*
X-289560Y216360D02*
D03*
Y210360D02*
D03*
X-167641Y255730D02*
D03*
Y249730D02*
D03*
X8890Y73200D02*
D03*
Y79200D02*
D03*
X1270Y50340D02*
D03*
Y56340D02*
D03*
X29210Y61420D02*
D03*
Y55420D02*
D03*
D207*
X-148820Y229595D02*
D03*
Y224795D02*
D03*
D208*
X-318770Y-177330D02*
D03*
Y-163030D02*
D03*
D209*
X-232789Y37529D02*
D03*
Y45529D02*
D03*
Y53529D02*
D03*
Y61529D02*
D03*
X-216789Y37529D02*
D03*
Y45529D02*
D03*
Y61529D02*
D03*
Y53529D02*
D03*
D211*
X-25146Y-78994D02*
D03*
X-45146D02*
D03*
D212*
X-339090Y52629D02*
D03*
D213*
X-337340Y59129D02*
D03*
X-340840D02*
D03*
D214*
X149949Y174599D02*
D03*
Y155599D02*
D03*
X129449Y165099D02*
D03*
D215*
X-337817Y125492D02*
D03*
Y95492D02*
D03*
D216*
X-274320Y70731D02*
D03*
Y79131D02*
D03*
X-287020Y70731D02*
D03*
Y79131D02*
D03*
D217*
X-222593Y289141D02*
D03*
X-218351Y284899D02*
D03*
X-210731Y291757D02*
D03*
X-214973Y295999D02*
D03*
X-208115Y303365D02*
D03*
X-203873Y299123D02*
D03*
M02*
