G04*
G04 #@! TF.GenerationSoftware,Altium Limited,Altium Designer,24.1.2 (44)*
G04*
G04 Layer_Physical_Order=3*
G04 Layer_Color=36540*
%FSLAX44Y44*%
%MOMM*%
G71*
G04*
G04 #@! TF.SameCoordinates,3E41DE66-C22E-4A43-A9AF-2340ABB4EF3F*
G04*
G04*
G04 #@! TF.FilePolarity,Positive*
G04*
G01*
G75*
%ADD10C,0.1524*%
%ADD15C,0.2540*%
%ADD18C,0.1016*%
%ADD20C,0.1778*%
%ADD147C,1.9050*%
%ADD154C,1.6510*%
%ADD165C,0.3810*%
%ADD166C,0.2032*%
%ADD168C,0.3048*%
%ADD169C,0.5080*%
%ADD174C,0.6350*%
%ADD177C,1.6000*%
%ADD178O,1.6000X1.7500*%
%ADD179C,1.7272*%
%ADD181C,1.3208*%
%ADD183C,6.5000*%
%ADD184C,5.0000*%
%ADD185C,0.4064*%
%ADD186C,0.5080*%
%ADD187C,0.3048*%
%ADD188C,0.7112*%
%ADD189C,0.6096*%
%ADD190C,1.7018*%
G36*
X-102870Y-134620D02*
Y-143764D01*
Y-152146D01*
X-97028Y-157988D01*
X-91440Y-163576D01*
Y-194310D01*
Y-195580D01*
X-93980Y-198120D01*
X-104140D01*
X-147066Y-155194D01*
Y-144526D01*
Y-135636D01*
X-140970Y-129540D01*
X-107950D01*
X-102870Y-134620D01*
D02*
G37*
G36*
X-53848Y-134112D02*
Y-136115D01*
X-54098Y-136400D01*
X-54727Y-137341D01*
X-55228Y-138357D01*
X-55592Y-139429D01*
X-55813Y-140539D01*
X-55887Y-141669D01*
X-55813Y-142798D01*
X-55592Y-143908D01*
X-55228Y-144980D01*
X-54794Y-145861D01*
X-55228Y-146741D01*
X-55592Y-147813D01*
X-55813Y-148923D01*
X-55887Y-150053D01*
X-55813Y-151182D01*
X-55598Y-152263D01*
X-55617Y-152324D01*
X-56502Y-153416D01*
X-87884D01*
X-89916Y-151384D01*
Y-143338D01*
X-89583Y-143237D01*
X-88921Y-142883D01*
X-88341Y-142407D01*
X-87865Y-141827D01*
X-87511Y-141165D01*
X-87293Y-140447D01*
X-87219Y-139700D01*
X-87293Y-138953D01*
X-87511Y-138235D01*
X-87865Y-137573D01*
X-87985Y-137426D01*
Y-134975D01*
X-85029Y-132019D01*
X-82997D01*
X-82997Y-132019D01*
X-82400Y-131960D01*
X-81959Y-131826D01*
X-56134D01*
X-53848Y-134112D01*
D02*
G37*
G36*
X7366Y132334D02*
Y116677D01*
X6977Y116203D01*
X6623Y115541D01*
X6405Y114823D01*
X6332Y114076D01*
X6405Y113329D01*
X6623Y112611D01*
X6977Y111949D01*
X7366Y111474D01*
Y97536D01*
X-7112Y83058D01*
Y80948D01*
X-7461Y80523D01*
X-7767Y79950D01*
X-7956Y79327D01*
X-8020Y78680D01*
X-7956Y78033D01*
X-7767Y77410D01*
X-7461Y76837D01*
X-7112Y76412D01*
Y41878D01*
X-7620Y41418D01*
X-8267Y41354D01*
X-8890Y41165D01*
X-9463Y40859D01*
X-9966Y40446D01*
X-10379Y39943D01*
X-10685Y39370D01*
X-10874Y38747D01*
X-10938Y38100D01*
X-10874Y37453D01*
X-10685Y36830D01*
X-10379Y36257D01*
X-9966Y35754D01*
X-9463Y35341D01*
X-8890Y35035D01*
X-8267Y34846D01*
X-7620Y34782D01*
X-7112Y34322D01*
Y23622D01*
X-22098Y8636D01*
X-39827D01*
X-46990Y15799D01*
Y30988D01*
X-33274Y44704D01*
Y46631D01*
X-33082Y46990D01*
X-32908Y47565D01*
X-32849Y48163D01*
Y67458D01*
X-32768Y67608D01*
X-31629Y68382D01*
X-31579Y68382D01*
X-30975Y68323D01*
X-30328Y68387D01*
X-29706Y68575D01*
X-29132Y68882D01*
X-28629Y69295D01*
X-28217Y69797D01*
X-27910Y70371D01*
X-27721Y70993D01*
X-27657Y71641D01*
X-27721Y72288D01*
X-27910Y72910D01*
X-28217Y73484D01*
X-28629Y73987D01*
X-29132Y74399D01*
X-29706Y74706D01*
X-30328Y74895D01*
X-30975Y74959D01*
X-31579Y74899D01*
X-31629Y74899D01*
X-32768Y75673D01*
X-32849Y75823D01*
Y83568D01*
X-32343Y83958D01*
X-31579Y84237D01*
X-31242Y84057D01*
X-30619Y83868D01*
X-29972Y83804D01*
X-29325Y83868D01*
X-28702Y84057D01*
X-28129Y84363D01*
X-27626Y84776D01*
X-27213Y85279D01*
X-26907Y85852D01*
X-26718Y86475D01*
X-26654Y87122D01*
X-26718Y87769D01*
X-26907Y88392D01*
X-27213Y88965D01*
X-27626Y89468D01*
X-28129Y89881D01*
X-28339Y89993D01*
X-28658Y91045D01*
X-28635Y91494D01*
X-22318Y97811D01*
X-22318Y97811D01*
X-21937Y98275D01*
X-21654Y98805D01*
X-21479Y99379D01*
X-21421Y99977D01*
Y110760D01*
X-21251Y110911D01*
X-20150Y111315D01*
X-19907Y111116D01*
X-19245Y110762D01*
X-18527Y110544D01*
X-17780Y110470D01*
X-17033Y110544D01*
X-16315Y110762D01*
X-15653Y111116D01*
X-15073Y111592D01*
X-14597Y112172D01*
X-14243Y112834D01*
X-14025Y113552D01*
X-13952Y114299D01*
X-14025Y115046D01*
X-14243Y115764D01*
X-14597Y116426D01*
X-15073Y117006D01*
X-15653Y117482D01*
X-16315Y117836D01*
X-17033Y118054D01*
X-17780Y118127D01*
X-18527Y118054D01*
X-19245Y117836D01*
X-19907Y117482D01*
X-20487Y117006D01*
X-20894Y116509D01*
X-20939Y116481D01*
X-21102Y116414D01*
X-22077Y116331D01*
X-22413Y116407D01*
X-25502Y119495D01*
Y131724D01*
X-22758Y134468D01*
X5232D01*
X7366Y132334D01*
D02*
G37*
G36*
X267394Y-35770D02*
X266480Y-36651D01*
X265630Y-36621D01*
X263165Y-36709D01*
X260712Y-36973D01*
X258285Y-37411D01*
X255895Y-38021D01*
X253554Y-38800D01*
X251275Y-39744D01*
X249070Y-40848D01*
X246948Y-42106D01*
X244922Y-43513D01*
X243002Y-45061D01*
X241196Y-46742D01*
X239515Y-48547D01*
X237968Y-50468D01*
X236561Y-52494D01*
X235302Y-54615D01*
X234198Y-56821D01*
X233254Y-59100D01*
X232475Y-61440D01*
X231865Y-63830D01*
X231427Y-66258D01*
X231164Y-68710D01*
X231076Y-71175D01*
X231164Y-73640D01*
X231427Y-76093D01*
X231865Y-78520D01*
X232475Y-80910D01*
X233254Y-83251D01*
X234198Y-85529D01*
X235302Y-87735D01*
X236561Y-89856D01*
X237968Y-91883D01*
X239515Y-93803D01*
X241196Y-95609D01*
X243002Y-97289D01*
X244922Y-98837D01*
X246948Y-100244D01*
X249070Y-101502D01*
X251275Y-102607D01*
X253554Y-103551D01*
X255895Y-104329D01*
X258285Y-104939D01*
X260712Y-105377D01*
X263165Y-105641D01*
X265630Y-105729D01*
X268095Y-105641D01*
X270547Y-105377D01*
X272975Y-104939D01*
X275365Y-104329D01*
X277705Y-103551D01*
X279984Y-102607D01*
X282190Y-101502D01*
X284311Y-100244D01*
X286337Y-98837D01*
X288258Y-97289D01*
X290063Y-95609D01*
X291744Y-93803D01*
X293292Y-91883D01*
X294698Y-89856D01*
X295957Y-87735D01*
X297061Y-85529D01*
X298005Y-83251D01*
X298784Y-80910D01*
X299394Y-78520D01*
X299832Y-76093D01*
X300096Y-73640D01*
X300184Y-71175D01*
X300096Y-68710D01*
X299832Y-66258D01*
X299394Y-63830D01*
X298784Y-61440D01*
X298005Y-59100D01*
X297061Y-56821D01*
X295957Y-54615D01*
X294698Y-52494D01*
X293292Y-50468D01*
X291744Y-48547D01*
X290063Y-46742D01*
X288258Y-45061D01*
X286337Y-43513D01*
X284311Y-42106D01*
X282190Y-40848D01*
X279984Y-39744D01*
X279953Y-39731D01*
X280206Y-38461D01*
X371653D01*
X371944Y-38532D01*
X372607Y-38560D01*
X373897Y-38875D01*
X375044Y-39409D01*
X375281Y-39567D01*
X375768Y-39923D01*
X376730Y-40886D01*
X377560Y-42128D01*
X378132Y-43508D01*
X378350Y-44603D01*
X374450Y-71368D01*
X366804Y-103732D01*
X356368Y-135306D01*
X343773Y-164564D01*
X342493Y-164326D01*
X342430Y-162738D01*
X342153Y-160391D01*
X341692Y-158073D01*
X341050Y-155798D01*
X340232Y-153580D01*
X339242Y-151433D01*
X338087Y-149371D01*
X336774Y-147406D01*
X335311Y-145549D01*
X333706Y-143814D01*
X331970Y-142209D01*
X330114Y-140746D01*
X328149Y-139433D01*
X326087Y-138278D01*
X323940Y-137288D01*
X321722Y-136470D01*
X319447Y-135829D01*
X317129Y-135367D01*
X314782Y-135090D01*
X312420Y-134997D01*
X310058Y-135090D01*
X307711Y-135367D01*
X305393Y-135829D01*
X303118Y-136470D01*
X300900Y-137288D01*
X298753Y-138278D01*
X296691Y-139433D01*
X294726Y-140746D01*
X292869Y-142209D01*
X291134Y-143814D01*
X289529Y-145549D01*
X288134Y-147320D01*
X273050D01*
X203200Y-77470D01*
X190500D01*
X184150Y-71120D01*
Y-40640D01*
X209550Y-15240D01*
X267394D01*
Y-35770D01*
D02*
G37*
G36*
X89916Y-132334D02*
Y-143002D01*
X80010Y-152908D01*
X35052D01*
X33274Y-151130D01*
Y-149311D01*
X33449Y-149106D01*
X34076Y-148083D01*
X34535Y-146975D01*
X34539Y-146959D01*
X34555Y-146955D01*
X35663Y-146496D01*
X36686Y-145869D01*
X37257Y-145382D01*
X38024Y-145700D01*
X39190Y-145979D01*
X40386Y-146074D01*
X41582Y-145979D01*
X42748Y-145700D01*
X43856Y-145240D01*
X44879Y-144614D01*
X45791Y-143835D01*
X45851Y-143764D01*
X47734D01*
X48343Y-144016D01*
X49510Y-144296D01*
X50705Y-144390D01*
X51901Y-144296D01*
X53067Y-144016D01*
X54175Y-143557D01*
X55198Y-142931D01*
X56110Y-142152D01*
X56889Y-141240D01*
X57516Y-140217D01*
X57888Y-139319D01*
X58050Y-139332D01*
X59246Y-139237D01*
X60412Y-138958D01*
X61520Y-138498D01*
X62543Y-137872D01*
X63399Y-137140D01*
X64440Y-137571D01*
X65606Y-137851D01*
X66802Y-137946D01*
X67998Y-137851D01*
X69164Y-137571D01*
X70272Y-137113D01*
X71295Y-136486D01*
X72207Y-135707D01*
X72986Y-134795D01*
X73612Y-133772D01*
X74071Y-132664D01*
X74352Y-131498D01*
X74446Y-130302D01*
X75150Y-129540D01*
X87122D01*
X89916Y-132334D01*
D02*
G37*
G36*
X176530Y-134366D02*
Y-151638D01*
X174244Y-153924D01*
X142240D01*
X139192Y-150876D01*
Y-133858D01*
X141986Y-131064D01*
X173228D01*
X176530Y-134366D01*
D02*
G37*
G36*
X241300Y-137160D02*
Y-207010D01*
X223520Y-224790D01*
X168910D01*
X143510Y-199390D01*
X138841D01*
X138090Y-198930D01*
X136982Y-198470D01*
X135816Y-198190D01*
X134620Y-198096D01*
X133424Y-198190D01*
X132258Y-198470D01*
X131150Y-198930D01*
X130430Y-199370D01*
X129520D01*
X127000Y-196850D01*
Y-183276D01*
X131206Y-179070D01*
X157244D01*
X157710Y-179602D01*
X158561Y-180348D01*
X159503Y-180977D01*
X160518Y-181478D01*
X161590Y-181842D01*
X162700Y-182062D01*
X163830Y-182136D01*
X164960Y-182062D01*
X166070Y-181842D01*
X167142Y-181478D01*
X168157Y-180977D01*
X168275Y-180898D01*
X168393Y-180977D01*
X169408Y-181478D01*
X170480Y-181842D01*
X171590Y-182062D01*
X172720Y-182136D01*
X173850Y-182062D01*
X174960Y-181842D01*
X176032Y-181478D01*
X177047Y-180977D01*
X177988Y-180348D01*
X178840Y-179602D01*
X179586Y-178750D01*
X179982Y-178158D01*
X195580Y-162560D01*
Y-143510D01*
X177800Y-125730D01*
X140208D01*
X138973Y-126965D01*
X138377Y-127455D01*
X138376Y-127455D01*
X135583Y-130248D01*
X135093Y-130845D01*
X134366Y-131572D01*
Y-132267D01*
X134185Y-132862D01*
X134087Y-133858D01*
Y-138465D01*
X133641Y-138500D01*
X132475Y-138780D01*
X131367Y-139240D01*
X130344Y-139866D01*
X129432Y-140645D01*
X128653Y-141557D01*
X128026Y-142580D01*
X127567Y-143688D01*
X127287Y-144854D01*
X127193Y-146050D01*
X127287Y-147246D01*
X127567Y-148412D01*
X128016Y-149495D01*
Y-150356D01*
X121908Y-156464D01*
X100076D01*
X94742Y-151130D01*
Y-144593D01*
X94923Y-143998D01*
X95021Y-143002D01*
Y-132334D01*
X94923Y-131338D01*
X94742Y-130743D01*
Y-128778D01*
X119380Y-104140D01*
X138430D01*
X151130Y-91440D01*
X195580D01*
X241300Y-137160D01*
D02*
G37*
%LPC*%
G36*
X-12700Y102124D02*
X-13347Y102060D01*
X-13970Y101871D01*
X-14543Y101565D01*
X-15046Y101152D01*
X-15459Y100649D01*
X-15765Y100076D01*
X-15954Y99453D01*
X-16018Y98806D01*
X-15954Y98159D01*
X-15765Y97536D01*
X-15459Y96963D01*
X-15046Y96460D01*
X-14543Y96047D01*
X-13970Y95741D01*
X-13347Y95552D01*
X-12700Y95488D01*
X-12053Y95552D01*
X-11430Y95741D01*
X-10857Y96047D01*
X-10354Y96460D01*
X-9941Y96963D01*
X-9635Y97536D01*
X-9446Y98159D01*
X-9382Y98806D01*
X-9446Y99453D01*
X-9635Y100076D01*
X-9941Y100649D01*
X-10354Y101152D01*
X-10857Y101565D01*
X-11430Y101871D01*
X-12053Y102060D01*
X-12700Y102124D01*
D02*
G37*
G36*
X-13970Y93488D02*
X-14617Y93424D01*
X-15240Y93235D01*
X-15813Y92929D01*
X-16316Y92516D01*
X-16729Y92013D01*
X-17035Y91440D01*
X-17224Y90817D01*
X-17288Y90170D01*
X-17224Y89523D01*
X-17035Y88900D01*
X-16729Y88327D01*
X-16316Y87824D01*
X-15813Y87411D01*
X-15240Y87105D01*
X-14617Y86916D01*
X-13970Y86852D01*
X-13323Y86916D01*
X-12700Y87105D01*
X-12127Y87411D01*
X-11624Y87824D01*
X-11211Y88327D01*
X-10905Y88900D01*
X-10716Y89523D01*
X-10652Y90170D01*
X-10716Y90817D01*
X-10905Y91440D01*
X-11211Y92013D01*
X-11624Y92516D01*
X-12127Y92929D01*
X-12700Y93235D01*
X-13323Y93424D01*
X-13970Y93488D01*
D02*
G37*
G36*
X-13462Y81550D02*
X-14109Y81486D01*
X-14732Y81297D01*
X-15305Y80991D01*
X-15808Y80578D01*
X-16221Y80075D01*
X-16527Y79502D01*
X-16716Y78879D01*
X-16780Y78232D01*
X-16716Y77585D01*
X-16527Y76962D01*
X-16221Y76389D01*
X-15808Y75886D01*
X-15305Y75473D01*
X-14732Y75167D01*
X-14109Y74978D01*
X-13462Y74914D01*
X-12815Y74978D01*
X-12192Y75167D01*
X-11619Y75473D01*
X-11116Y75886D01*
X-10703Y76389D01*
X-10397Y76962D01*
X-10208Y77585D01*
X-10144Y78232D01*
X-10208Y78879D01*
X-10397Y79502D01*
X-10703Y80075D01*
X-11116Y80578D01*
X-11619Y80991D01*
X-12192Y81297D01*
X-12815Y81486D01*
X-13462Y81550D01*
D02*
G37*
G36*
X-23876Y38370D02*
X-24523Y38306D01*
X-25146Y38117D01*
X-25719Y37811D01*
X-26222Y37398D01*
X-26635Y36895D01*
X-26941Y36322D01*
X-27130Y35699D01*
X-27194Y35052D01*
X-27130Y34405D01*
X-26941Y33782D01*
X-26635Y33209D01*
X-26222Y32706D01*
X-25719Y32293D01*
X-25146Y31987D01*
X-24523Y31798D01*
X-23876Y31734D01*
X-23229Y31798D01*
X-22606Y31987D01*
X-22033Y32293D01*
X-21530Y32706D01*
X-21117Y33209D01*
X-20811Y33782D01*
X-20622Y34405D01*
X-20558Y35052D01*
X-20622Y35699D01*
X-20811Y36322D01*
X-21117Y36895D01*
X-21530Y37398D01*
X-22033Y37811D01*
X-22606Y38117D01*
X-23229Y38306D01*
X-23876Y38370D01*
D02*
G37*
G36*
X-20320Y31258D02*
X-20967Y31194D01*
X-21590Y31005D01*
X-22163Y30699D01*
X-22666Y30286D01*
X-23079Y29783D01*
X-23385Y29210D01*
X-23574Y28587D01*
X-23638Y27940D01*
X-23574Y27293D01*
X-23385Y26670D01*
X-23079Y26097D01*
X-22666Y25594D01*
X-22163Y25181D01*
X-21590Y24875D01*
X-20967Y24686D01*
X-20320Y24622D01*
X-19673Y24686D01*
X-19050Y24875D01*
X-18477Y25181D01*
X-17974Y25594D01*
X-17561Y26097D01*
X-17255Y26670D01*
X-17066Y27293D01*
X-17002Y27940D01*
X-17066Y28587D01*
X-17255Y29210D01*
X-17561Y29783D01*
X-17974Y30286D01*
X-18477Y30699D01*
X-19050Y31005D01*
X-19673Y31194D01*
X-20320Y31258D01*
D02*
G37*
G36*
X189230Y-187936D02*
X188034Y-188030D01*
X186868Y-188311D01*
X185760Y-188769D01*
X184737Y-189396D01*
X183825Y-190175D01*
X183046Y-191087D01*
X182419Y-192110D01*
X181961Y-193218D01*
X181681Y-194384D01*
X181586Y-195580D01*
X181681Y-196776D01*
X181961Y-197942D01*
X182419Y-199050D01*
X183046Y-200073D01*
X183825Y-200985D01*
X184737Y-201764D01*
X185760Y-202390D01*
X186868Y-202850D01*
X188034Y-203130D01*
X189230Y-203224D01*
X190426Y-203130D01*
X191592Y-202850D01*
X192700Y-202390D01*
X193723Y-201764D01*
X194635Y-200985D01*
X195414Y-200073D01*
X196040Y-199050D01*
X196500Y-197942D01*
X196779Y-196776D01*
X196874Y-195580D01*
X196779Y-194384D01*
X196500Y-193218D01*
X196040Y-192110D01*
X195414Y-191087D01*
X194635Y-190175D01*
X193723Y-189396D01*
X192700Y-188769D01*
X191592Y-188311D01*
X190426Y-188030D01*
X189230Y-187936D01*
D02*
G37*
%LPD*%
D10*
X6934Y-28727D02*
Y-28491D01*
X5845Y-27401D02*
X6934Y-28491D01*
X9575Y-32056D02*
Y-31368D01*
X6934Y-28727D02*
X9575Y-31368D01*
X-12161Y-27401D02*
X5845D01*
X-91440Y38930D02*
Y43637D01*
Y38930D02*
X-91415Y38904D01*
X-91440Y43637D02*
X-89436Y45641D01*
X-14732Y-29972D02*
X-12161Y-27401D01*
X9991Y15663D02*
Y38167D01*
Y15663D02*
X14732Y10922D01*
X8026Y40132D02*
X9991Y38167D01*
X26416Y10922D02*
X35560Y1778D01*
X14732Y10922D02*
X26416D01*
X35560Y-22860D02*
Y1778D01*
X41910Y-21590D02*
Y508D01*
X23830Y18588D02*
X41910Y508D01*
X23830Y18588D02*
Y28722D01*
X-508Y40132D02*
X8026D01*
X-3048Y42672D02*
X-508Y40132D01*
X-3048Y42672D02*
Y50292D01*
X-156464Y241046D02*
X-143510Y254000D01*
Y271333D02*
X-80833Y334010D01*
X-143510Y254000D02*
Y271333D01*
X-136069Y235444D02*
X-132319Y231694D01*
Y225821D02*
Y231694D01*
X-133950Y224191D02*
X-132319Y225821D01*
X-196071Y21248D02*
Y36846D01*
X-194564Y38354D01*
Y54356D01*
X-190881Y58039D01*
X-178689D01*
X-171958Y64770D01*
Y116967D01*
X-174041Y119050D02*
X-171958Y116967D01*
X-183566Y119050D02*
X-174041D01*
X-189027Y124511D02*
X-183566Y119050D01*
X-189027Y124511D02*
Y138633D01*
X-192786Y142392D02*
X-189027Y138633D01*
X-192786Y142392D02*
Y215862D01*
X-173921Y234727D01*
X-169387D01*
X-163068Y241046D01*
X-156464D01*
X-80833Y334010D02*
X26416D01*
X41758Y349352D01*
X69240D01*
X70536Y348056D01*
X91262D01*
X99695Y356489D01*
X121691D01*
X130810Y347370D01*
Y345440D02*
Y347370D01*
Y345440D02*
X138430Y337820D01*
X161290D01*
X-148184Y150622D02*
X-140678Y143116D01*
X-148184Y163327D02*
X-143572Y167938D01*
X-148184Y150622D02*
Y163327D01*
X-113477Y152743D02*
X-104244Y143510D01*
X-113477Y152743D02*
Y175956D01*
X-94844Y130658D02*
Y134109D01*
X-104244Y143510D02*
X-94844Y134109D01*
Y130658D02*
X-85090Y120904D01*
X-98298Y66548D02*
Y72390D01*
X-95250Y75438D01*
X-99009Y120142D02*
X-94912D01*
X-91186Y105270D02*
Y116416D01*
X-95250Y75438D02*
Y101206D01*
X-91186Y105270D01*
X-108321Y56525D02*
X-98298Y66548D01*
X-101699Y122832D02*
X-99009Y120142D01*
X-94912D02*
X-91186Y116416D01*
X-107472Y119634D02*
X-101346Y113507D01*
X-118872Y119634D02*
X-107472D01*
X-129515Y130277D02*
X-118872Y119634D01*
X-108991Y137185D02*
Y143510D01*
Y137185D02*
X-99822Y128016D01*
X-117319Y151837D02*
X-108991Y143510D01*
X-203962Y-61722D02*
Y-57912D01*
Y-31496D01*
Y-17145D01*
X-208788Y-66548D02*
X-203962Y-61722D01*
Y-17145D02*
X-197370Y-10553D01*
X-241300Y-74930D02*
X-237307Y-70937D01*
X-228676Y-62306D01*
X-221996Y-55626D01*
X-221742Y-55372D01*
Y-32766D01*
Y-18847D01*
X-191211Y11684D01*
X-242570Y-81280D02*
X-232227Y-70937D01*
X-228676Y-67386D01*
X-227838Y-66548D01*
X-223775D01*
X-208788D01*
X-288290Y-92710D02*
X-278892Y-83312D01*
X-264922D02*
X-256540Y-74930D01*
X-278892Y-83312D02*
X-264922D01*
X-256540Y-74930D02*
X-241300D01*
X-87653Y145161D02*
X-84287D01*
X-73716Y134590D01*
X-94996Y152504D02*
X-87653Y145161D01*
X-94996Y152504D02*
Y166700D01*
X-20320Y213360D02*
X-4978D01*
X46330Y264668D01*
X59944D01*
X69596Y274320D01*
Y277876D01*
X90678Y298958D01*
X108758D01*
X129586Y278130D01*
X-7620Y199390D02*
X45593Y252603D01*
X60251D01*
X101018Y293370D01*
X-20320Y224790D02*
X-2286D01*
X76581Y303657D01*
X123952D01*
X139609Y288000D01*
X147028D01*
X158168Y276860D01*
X156256Y303530D02*
X181656Y278130D01*
X139065Y303530D02*
X156256D01*
X126365Y316230D02*
X139065Y303530D01*
X77216Y316230D02*
X126365D01*
X-1227Y237787D02*
X77216Y316230D01*
X-14638Y237787D02*
X-1227D01*
X-25654Y226771D02*
X-14638Y237787D01*
X-25654Y204724D02*
Y226771D01*
Y204724D02*
X-20320Y199390D01*
X2286Y50267D02*
X23830Y28722D01*
X2286Y50267D02*
Y71707D01*
X13073Y82494D01*
Y88537D01*
X24130Y99593D01*
Y133858D01*
X10361Y147627D02*
X24130Y133858D01*
X-66898Y147627D02*
X10361D01*
X-71981Y142545D02*
X-66898Y147627D01*
X45974Y-26924D02*
X49530Y-30480D01*
X39624Y-26924D02*
X45974D01*
X35560Y-22860D02*
X39624Y-26924D01*
X-3048Y50292D02*
X-2032Y51308D01*
Y72644D01*
X1016Y75692D01*
Y84658D01*
X12217Y95860D01*
Y103657D01*
X16104Y107544D01*
Y120752D01*
X12116Y124739D02*
X16104Y120752D01*
X12116Y124739D02*
Y132664D01*
X2286Y142494D02*
X12116Y132664D01*
X-66294Y142494D02*
X2286D01*
X-228900Y-81280D02*
X-223566Y-75946D01*
X-210312D01*
X-193802Y-59436D01*
Y-20828D01*
X-190754Y-17780D01*
X-100838Y-29972D02*
X-14732D01*
X-107442Y-36576D02*
X-100838Y-29972D01*
X-135890Y-36576D02*
X-107442D01*
X-160782Y-11684D02*
X-135890Y-36576D01*
X-160782Y-11684D02*
Y-2095D01*
X-172687Y9809D02*
X-160782Y-2095D01*
X-172687Y9809D02*
Y18631D01*
X-170070Y21248D01*
X-303530Y186182D02*
X-300482Y189230D01*
X-303530Y119253D02*
Y186182D01*
Y119253D02*
X-282169Y97892D01*
Y68809D02*
Y97892D01*
Y68809D02*
X-264160Y50800D01*
X-300482Y189230D02*
Y199644D01*
X-290957Y209169D01*
Y217297D01*
X-286004Y222250D01*
X-258097D01*
X-231394Y248953D01*
Y261620D01*
X-215138Y277876D01*
Y287020D01*
X-206248Y295910D01*
X-191516D01*
X-173990Y313436D01*
X-125222D01*
X-89408Y349250D01*
X-17653D01*
X-264160Y71120D02*
Y90653D01*
X-298155Y124648D02*
X-264160Y90653D01*
X-298155Y124648D02*
Y151425D01*
X-292099Y157481D01*
Y188659D01*
X-294132Y190692D02*
X-292099Y188659D01*
X-294132Y190692D02*
Y199644D01*
X-171450Y133350D02*
X-165544Y127444D01*
Y124904D02*
Y127444D01*
Y124904D02*
X-156464Y115824D01*
Y111760D02*
Y115824D01*
X-160320Y107904D02*
X-156464Y111760D01*
X-177546Y201463D02*
X-166069Y212940D01*
X-177546Y169474D02*
Y201463D01*
Y169474D02*
X-174905Y166833D01*
Y150775D02*
Y166833D01*
Y150775D02*
X-159309Y135179D01*
Y123749D02*
Y135179D01*
Y123749D02*
X-149607Y114047D01*
Y110744D02*
Y114047D01*
Y110744D02*
X-146743Y107881D01*
Y101923D02*
Y107881D01*
Y101923D02*
X-137570Y92749D01*
X-101346Y78435D02*
Y113507D01*
X-129515Y130277D02*
Y140358D01*
X-138176Y149019D02*
X-129515Y140358D01*
X-138176Y149019D02*
Y158331D01*
X-136069Y160438D01*
X-98571Y21248D02*
X-86614Y33205D01*
Y41339D01*
X-83858Y44094D01*
X-81864D01*
X-79350Y46609D01*
Y48603D01*
X-73660Y54292D01*
Y66802D01*
X-69037Y71425D01*
Y79350D01*
X-70942Y81255D02*
X-69037Y79350D01*
X-72517Y81255D02*
X-70942D01*
X-74130Y82867D02*
X-72517Y81255D01*
X-74130Y82867D02*
Y88938D01*
X-67709Y95359D01*
Y118509D01*
X-77183Y127983D02*
X-67709Y118509D01*
X-77183Y127983D02*
Y133591D01*
X-85578Y141986D02*
X-77183Y133591D01*
X-88900Y141986D02*
X-85578D01*
X-98420Y151506D02*
X-88900Y141986D01*
X-98420Y151506D02*
Y169250D01*
X-92106Y175565D01*
Y191478D01*
X-121068Y220440D02*
X-92106Y191478D01*
X-128568Y227941D02*
X-116867D01*
X-114224Y225298D01*
X-99753D01*
X-68397Y193942D01*
Y151615D02*
Y193942D01*
X-75692Y144320D02*
X-68397Y151615D01*
X-75692Y140932D02*
Y144320D01*
Y140932D02*
X-70061Y135301D01*
Y130259D02*
Y135301D01*
Y130259D02*
X-56896Y117094D01*
Y83744D02*
Y117094D01*
X-59487Y81153D02*
X-56896Y83744D01*
X-60274Y81153D02*
X-59487D01*
X-62230Y79197D02*
X-60274Y81153D01*
X-62230Y74930D02*
Y79197D01*
Y74930D02*
X-58420Y71120D01*
Y56401D02*
Y71120D01*
X-68835Y45986D02*
X-58420Y56401D01*
X-68835Y29603D02*
Y45986D01*
X-100216Y-1778D02*
X-68835Y29603D01*
X-113792Y-1778D02*
X-100216D01*
X-126139Y10569D02*
X-113792Y-1778D01*
X-152888Y10569D02*
X-126139D01*
X-155019Y12700D02*
X-152888Y10569D01*
X-166820Y12700D02*
X-155019D01*
X-121068Y197941D02*
X-109982Y186855D01*
Y179451D02*
Y186855D01*
X-113477Y175956D02*
X-109982Y179451D01*
X-85090Y105146D02*
Y120904D01*
Y105146D02*
X-83820Y103876D01*
Y84836D02*
Y103876D01*
X-89154Y79502D02*
X-83820Y84836D01*
X-89154Y72593D02*
Y79502D01*
X-92100Y69647D02*
X-89154Y72593D01*
X-92100Y61189D02*
Y69647D01*
X-97058Y56231D02*
X-92100Y61189D01*
X-97058Y50648D02*
Y56231D01*
X-100330Y47376D02*
X-97058Y50648D01*
X-100330Y38100D02*
Y47376D01*
X-107429Y31001D02*
X-100330Y38100D01*
X-121068Y212940D02*
X-103650Y195522D01*
X-101890D01*
X-97140Y190772D01*
Y177081D02*
Y190772D01*
X-102116Y172105D02*
X-97140Y177081D01*
X-102116Y150112D02*
Y172105D01*
Y150112D02*
X-90256Y138252D01*
X-86594D01*
X-80841Y132499D01*
Y126815D02*
Y132499D01*
Y126815D02*
X-72362Y118336D01*
Y99850D02*
Y118336D01*
X-77597Y94615D02*
X-72362Y99850D01*
X-77597Y58547D02*
Y94615D01*
X-82804Y53340D02*
X-77597Y58547D01*
X-87031Y53340D02*
X-82804D01*
X-89436Y50935D02*
X-87031Y53340D01*
X-89436Y45641D02*
Y50935D01*
X-136069Y220440D02*
X-133674D01*
X-129946Y216713D01*
X-126949D01*
X-124841Y218821D01*
Y222174D01*
X-122733Y224282D01*
X-119685D01*
X-113505Y218102D01*
X-104742D01*
X-99705Y213065D01*
Y208285D02*
Y213065D01*
Y208285D02*
X-88011Y196591D01*
Y173685D02*
Y196591D01*
X-94996Y166700D02*
X-88011Y173685D01*
X-73716Y129220D02*
Y134590D01*
Y129220D02*
X-62959Y118463D01*
Y93505D02*
Y118463D01*
X-65786Y90678D02*
X-62959Y93505D01*
X-65786Y72136D02*
Y90678D01*
Y72136D02*
X-63363Y69713D01*
Y57917D02*
Y69713D01*
X-72159Y49121D02*
X-63363Y57917D01*
X-72159Y47399D02*
Y49121D01*
X-77724Y41834D02*
X-72159Y47399D01*
X-77724Y37338D02*
Y41834D01*
X-81219Y33843D02*
X-77724Y37338D01*
X-81219Y25550D02*
Y33843D01*
X-98133Y8636D02*
X-81219Y25550D01*
X-119532Y8636D02*
X-98133D01*
X-127069Y16172D02*
X-119532Y8636D01*
X-131666Y16172D02*
X-127069D01*
X-134976Y19482D02*
X-131666Y16172D01*
X-134976Y19482D02*
Y23846D01*
X-124571Y34251D01*
X-138786Y230657D02*
X-136069Y227941D01*
X-162027Y230657D02*
X-138786D01*
X-168402Y224282D02*
X-162027Y230657D01*
X-177622Y224282D02*
X-168402D01*
X-184912Y216992D02*
X-177622Y224282D01*
X-184912Y141275D02*
Y216992D01*
Y141275D02*
X-180340Y136703D01*
Y125476D02*
Y136703D01*
Y125476D02*
X-177114Y122250D01*
X-171018D01*
X-164338Y115570D01*
Y111252D02*
Y115570D01*
X-167894Y107696D02*
X-164338Y111252D01*
X-167894Y62426D02*
Y107696D01*
X-176569Y53750D02*
X-167894Y62426D01*
X-118071Y27748D02*
X-115722Y25400D01*
X-108458D01*
X-96520Y37338D01*
Y45204D01*
X-93188Y48537D01*
Y54638D01*
X-89028Y58797D01*
Y68045D01*
X-85928Y71145D01*
Y78410D01*
X-80772Y83566D01*
Y100297D01*
X-76850Y104219D01*
Y118506D01*
X-81788Y123444D02*
X-76850Y118506D01*
X-83058Y123444D02*
X-81788D01*
X-91770Y132156D02*
X-83058Y123444D01*
X-91770Y132156D02*
Y135456D01*
X-109677Y153363D02*
X-91770Y135456D01*
X-109677Y153363D02*
Y170589D01*
X-102108Y178158D01*
Y184048D01*
X-105410Y187350D02*
X-102108Y184048D01*
X-105410Y187350D02*
Y189781D01*
X-121068Y205439D02*
X-105410Y189781D01*
X-136072Y212940D02*
X-136069D01*
X-139819Y209192D02*
X-136072Y212940D01*
X-139819Y193937D02*
Y209192D01*
X-155400Y178356D02*
X-139819Y193937D01*
X-155400Y166482D02*
Y178356D01*
Y166482D02*
X-153071Y164153D01*
Y148067D02*
Y164153D01*
Y148067D02*
X-146049Y141046D01*
Y135890D02*
Y141046D01*
Y135890D02*
X-131826Y121666D01*
Y113285D02*
Y121666D01*
Y113285D02*
X-127541Y108999D01*
X-130974Y212940D02*
X-128568D01*
X-134772Y216738D02*
X-130974Y212940D01*
X-145720Y216738D02*
X-134772D01*
X-150139Y212319D02*
X-145720Y216738D01*
X-150139Y191237D02*
Y212319D01*
X-160528Y180848D02*
X-150139Y191237D01*
X-160528Y167132D02*
Y180848D01*
X-162814Y164846D02*
X-160528Y167132D01*
X-162814Y156249D02*
Y164846D01*
Y156249D02*
X-158570Y152005D01*
Y146683D02*
Y152005D01*
Y146683D02*
X-151180Y139293D01*
Y126288D02*
Y139293D01*
Y126288D02*
X-137570Y112678D01*
Y105749D02*
Y112678D01*
X-132842Y99822D02*
X-127820Y94800D01*
X-137668Y99822D02*
X-132842D01*
X-142114Y104268D02*
X-137668Y99822D01*
X-142114Y104268D02*
Y108078D01*
X-144526Y110490D02*
X-142114Y108078D01*
X-144526Y110490D02*
Y114554D01*
X-155245Y125273D02*
X-144526Y114554D01*
X-155245Y125273D02*
Y136703D01*
X-169672Y151130D02*
X-155245Y136703D01*
X-169672Y151130D02*
Y199390D01*
X-162433Y206629D01*
Y215773D01*
X-154015Y224191D01*
X-133950D01*
X-151068Y175439D02*
X-147320Y171691D01*
X-140272D01*
X-132319Y163739D01*
Y151115D02*
Y163739D01*
Y151115D02*
X-124333Y143129D01*
Y133477D02*
Y143129D01*
Y133477D02*
X-118008Y127152D01*
X-107848D01*
X-105664Y124968D01*
Y122164D02*
Y124968D01*
Y122164D02*
X-99578Y116078D01*
X-96266D01*
X-94234Y114046D01*
Y108123D02*
Y114046D01*
X-98298Y104059D02*
X-94234Y108123D01*
X-98298Y76810D02*
Y104059D01*
X-101276Y73831D02*
X-98298Y76810D01*
X-101276Y70545D02*
Y73831D01*
X-105071Y66750D02*
X-101276Y70545D01*
X-143572Y167938D02*
X-143570D01*
X-140678Y135598D02*
Y143116D01*
Y135598D02*
X-120940Y115860D01*
X-110376D01*
X-105071Y40750D02*
Y47860D01*
X-100856Y52075D01*
Y57988D01*
X-95148Y63696D01*
Y71171D01*
X-92202Y74117D01*
Y80772D01*
X-86868Y86106D01*
Y98552D01*
X-88138Y99822D02*
X-86868Y98552D01*
X-88138Y99822D02*
Y119634D01*
X-96520Y128016D02*
X-88138Y119634D01*
X-99822Y128016D02*
X-96520D01*
X-117319Y151837D02*
Y186691D01*
X-128568Y197941D02*
X-117319Y186691D01*
X-128568Y174314D02*
Y182940D01*
Y174314D02*
X-124714Y170459D01*
Y151323D02*
Y170459D01*
Y151323D02*
X-122608Y149217D01*
X-119568D01*
X-117170Y146820D01*
Y132893D02*
Y146820D01*
Y132893D02*
X-114706Y130429D01*
X-106553D01*
X-101699Y125575D01*
Y122832D02*
Y125575D01*
X-197370Y-10553D02*
Y-3875D01*
X-183069Y10425D01*
Y21248D01*
X-273050Y-110490D02*
X-248920Y-86360D01*
X-214630D01*
X-184653Y-56383D01*
Y-2134D01*
X-177165Y5354D01*
Y22479D01*
X-171896Y27748D01*
X-157070D01*
X20828Y55372D02*
X33274Y42926D01*
X20828Y55372D02*
Y64008D01*
X16662Y68174D02*
X20828Y64008D01*
X10439Y68174D02*
X16662D01*
X33513Y77470D02*
X34834Y76149D01*
X17358Y77470D02*
X33513D01*
X13040Y73152D02*
X17358Y77470D01*
X8890Y73152D02*
X13040D01*
X5900Y70162D02*
X8890Y73152D01*
X5900Y57361D02*
Y70162D01*
Y57361D02*
X9144Y49530D01*
X-204851Y124657D02*
X-194402Y114208D01*
X-204851Y124657D02*
Y184531D01*
X-207686Y187366D02*
X-204851Y184531D01*
X-207686Y187366D02*
Y212359D01*
X-189972Y230073D01*
Y250897D01*
X-182372Y258496D01*
X-189230Y111910D02*
X-183069Y105749D01*
X-189230Y111910D02*
Y116078D01*
X-198653Y125501D02*
X-189230Y116078D01*
X-198653Y125501D02*
Y158191D01*
X-200838Y160376D02*
X-198653Y158191D01*
X-200838Y160376D02*
Y168123D01*
X-197866Y171094D01*
Y216306D01*
X-183562Y230610D01*
Y247467D01*
X-172532Y258496D01*
X-335280Y-125570D02*
Y-104140D01*
X-323850Y-92710D01*
X-288290D01*
X-191211Y11684D02*
Y26109D01*
X-189572Y27748D01*
X-163957Y263017D02*
X-160020Y259080D01*
X-166751Y263017D02*
X-163957D01*
X-173050Y269316D02*
X-166751Y263017D01*
X-173050Y269316D02*
Y279730D01*
X-184404Y291084D02*
X-173050Y279730D01*
X-204470Y291084D02*
X-184404D01*
X-209804Y285750D02*
X-204470Y291084D01*
X-209804Y275590D02*
Y285750D01*
X-223520Y261874D02*
X-209804Y275590D01*
X-223520Y248920D02*
Y261874D01*
X-256080Y216360D02*
X-223520Y248920D01*
X-285242Y216360D02*
X-256080D01*
X-264160Y63500D02*
X-252222Y75438D01*
Y159512D01*
X-258318Y165608D02*
X-252222Y159512D01*
X-268986Y165608D02*
X-258318D01*
X-281432Y178054D02*
X-268986Y165608D01*
X-281432Y178054D02*
Y184404D01*
X-277876Y187960D01*
Y203071D01*
X-285242Y210436D02*
X-277876Y203071D01*
X-285242Y210436D02*
Y216360D01*
X-292100Y133351D02*
X-264160Y105411D01*
Y100330D02*
Y105411D01*
X-329390Y52070D02*
X-326390Y55070D01*
Y99060D01*
X-311658Y113792D01*
Y172720D01*
X-307848Y176530D01*
Y191458D01*
X-304851Y194455D01*
Y201625D01*
X-296926Y209550D01*
Y219202D01*
X-287274Y228854D01*
X-262636D01*
X-245110Y246380D01*
Y255270D01*
X-219456Y280924D01*
Y288036D01*
X-210312Y297180D01*
Y308864D01*
X-206121Y313055D01*
X-188849D01*
X-182372Y319532D01*
X-128777D01*
X-118109Y330200D01*
X-229870Y-17780D02*
X-225247Y-13157D01*
Y-2083D01*
X-234950Y7620D02*
X-225247Y-2083D01*
X-238760Y7620D02*
X-234950D01*
X-241300Y10160D02*
X-238760Y7620D01*
X-241300Y10160D02*
Y24130D01*
X-228600Y36830D01*
X-224790D01*
X-216814Y44806D01*
Y79604D01*
X-201434Y94984D01*
X-187335D01*
X-183069Y99249D01*
X-250190Y-11430D02*
X-235760D01*
X-257810Y-3810D02*
X-250190Y-11430D01*
X-257810Y-3810D02*
Y24130D01*
X-246380Y35560D01*
X-240030D01*
X-235585Y40005D01*
Y45085D01*
X-225552Y55118D01*
Y100330D01*
X-215392Y110490D01*
X-194312D01*
X-189572Y105749D01*
X-202232Y105410D02*
X-196071Y99249D01*
X-213868Y105410D02*
X-202232D01*
X-220980Y98298D02*
X-213868Y105410D01*
X-220980Y49530D02*
Y98298D01*
X-241300Y29210D02*
X-220980Y49530D01*
X-245618Y29210D02*
X-241300D01*
X-251460Y23368D02*
X-245618Y29210D01*
X-251460Y6350D02*
Y23368D01*
Y6350D02*
X-246380Y1270D01*
X-235760D01*
Y13970D02*
Y24590D01*
X-229870Y30480D01*
X-224790D01*
X-211836Y43434D01*
Y67087D01*
X-201676Y77246D01*
Y86614D01*
X-197637Y90653D01*
X-185166D01*
X-183069Y92749D01*
Y73471D02*
Y86250D01*
X-194666Y61874D02*
X-183069Y73471D01*
X-201094Y61874D02*
X-194666D01*
X-207035Y55933D02*
X-201094Y61874D01*
X-207035Y40615D02*
Y55933D01*
X-223520Y24130D02*
X-207035Y40615D01*
X-229870Y24130D02*
X-223520D01*
D15*
X35110Y-43999D02*
X36830Y-45720D01*
X-2868Y-43999D02*
X35110D01*
X-9783Y-37084D02*
X-2868Y-43999D01*
X112801Y-329971D02*
X119380Y-336550D01*
X101270Y-329971D02*
X112801D01*
X-11430Y-153415D02*
X-11430Y-147320D01*
X-11430Y-153416D02*
Y-153415D01*
X-96774Y-37084D02*
X-87376D01*
X-9783D01*
X-105410Y-45720D02*
X-96774Y-37084D01*
X-140462Y-45720D02*
X-105410D01*
X-171399Y-150093D02*
X-33100Y-288391D01*
X-176479Y-152197D02*
X-35205Y-293472D01*
X-33100Y-288391D02*
X68601D01*
X-171399Y-150093D02*
Y-123190D01*
X-35205Y-293472D02*
X66497D01*
X-176479Y-152197D02*
Y-121086D01*
X-238709Y-122356D02*
X-231923Y-115570D01*
X-221003Y-223526D02*
X-207804Y-233200D01*
X-225725Y-225989D02*
X-210578Y-237649D01*
X-233629Y-124460D02*
X-229819Y-120650D01*
X-233629Y-210900D02*
X-221003Y-223526D01*
X-233629Y-210900D02*
Y-124460D01*
X-247650Y-209550D02*
Y-199415D01*
X-238709Y-213004D02*
Y-122356D01*
Y-213004D02*
X-225725Y-225989D01*
X-250215Y-196850D02*
X-247650Y-199415D01*
X-257302Y-198933D02*
X-255219Y-196850D01*
X-257302Y-231648D02*
Y-198933D01*
X-255219Y-196850D02*
X-250215D01*
X201549Y75819D02*
X227330Y101600D01*
X201549Y71755D02*
Y75819D01*
X157480Y27686D02*
X201549Y71755D01*
X146022Y27686D02*
X157480D01*
X91389Y-26947D02*
X146022Y27686D01*
X91389Y-31445D02*
Y-26947D01*
X80849Y-41985D02*
X91389Y-31445D01*
X48426Y-41985D02*
X80849D01*
X44692Y-45720D02*
X48426Y-41985D01*
X36830Y-45720D02*
X44692D01*
X-173482Y-78740D02*
X-140462Y-45720D01*
X-180340Y-78740D02*
X-173482D01*
X-11430Y-153415D02*
X29464Y-194310D01*
X-11430Y-147320D02*
X-11430Y-143256D01*
X-4572Y-136398D01*
X72289Y-335280D02*
X87046D01*
X93066Y-329260D01*
Y-320040D01*
X66497Y-293472D02*
X93066Y-320040D01*
X-176479Y-121086D02*
X-170963Y-115570D01*
X-163728D01*
X-161290Y-113132D01*
Y-102870D01*
X98146Y-326847D02*
X101270Y-329971D01*
X98146Y-326847D02*
Y-317936D01*
X68601Y-288391D02*
X98146Y-317936D01*
X-171399Y-123190D02*
X-168859Y-120650D01*
X-163855D01*
X-161290Y-123215D01*
Y-133350D02*
Y-123215D01*
X-27174Y-345075D02*
X-23729Y-341630D01*
X-11430D01*
X-7030Y-337230D01*
Y-327814D01*
X-16125Y-318719D02*
X-7030Y-327814D01*
X-61845Y-318719D02*
X-16125D01*
X-95348Y-285217D02*
X-61845Y-318719D01*
X-120421Y-285217D02*
X-95348D01*
X-134366Y-271272D02*
X-120421Y-285217D01*
X-163474Y-271272D02*
X-134366D01*
X-190836Y-243911D02*
X-163474Y-271272D01*
X-210578Y-237649D02*
X-190836Y-243911D01*
X-231923Y-115570D02*
X-224688D01*
X-222250Y-113132D01*
Y-102870D01*
X18907Y-341630D02*
X22717Y-345440D01*
X2876Y-341630D02*
X18907D01*
X-1950Y-336804D02*
X2876Y-341630D01*
X-1950Y-336804D02*
Y-325710D01*
X-14021Y-313639D02*
X-1950Y-325710D01*
X-59741Y-313639D02*
X-14021D01*
X-93243Y-280137D02*
X-59741Y-313639D01*
X-118317Y-280137D02*
X-93243D01*
X-132262Y-266192D02*
X-118317Y-280137D01*
X-161370Y-266192D02*
X-132262D01*
X-188120Y-239443D02*
X-161370Y-266192D01*
X-207804Y-233200D02*
X-188120Y-239443D01*
X-229819Y-120650D02*
X-224815D01*
X-222250Y-123215D01*
Y-133350D02*
Y-123215D01*
X-247650Y-189331D02*
Y-179070D01*
X-250088Y-191770D02*
X-247650Y-189331D01*
X-257323Y-191770D02*
X-250088D01*
X-262382Y-196828D02*
X-257323Y-191770D01*
X-262382Y-233752D02*
Y-196828D01*
Y-233752D02*
X-243078Y-253056D01*
Y-271706D02*
Y-253056D01*
Y-271706D02*
X-227376Y-287409D01*
X-202951D01*
X-195161Y-295199D01*
X-153365D01*
X-140005Y-308559D01*
X-111811D01*
X-101346Y-319024D01*
Y-325882D02*
Y-319024D01*
X-104648Y-329184D02*
X-101346Y-325882D01*
X-119046Y-329184D02*
X-104648D01*
X-125059Y-335197D02*
X-119046Y-329184D01*
X-257302Y-231648D02*
X-237998Y-250952D01*
Y-269602D02*
Y-250952D01*
Y-269602D02*
X-225271Y-282329D01*
X-200847D01*
X-193057Y-290119D01*
X-151261D01*
X-137900Y-303479D01*
X-109706D01*
X-96266Y-316920D01*
Y-329184D02*
Y-316920D01*
Y-329184D02*
X-90170Y-335280D01*
X-75168D01*
X29464Y-194310D02*
X85598D01*
X97028Y-205740D01*
X134620D01*
X33476Y-131520D02*
X40386Y-138430D01*
X30529Y-131520D02*
X33476D01*
X23546Y-124536D02*
X30529Y-131520D01*
X-18085Y-124536D02*
X23546D01*
X-27483Y-133934D02*
X-18085Y-124536D01*
X-27483Y-177241D02*
Y-133934D01*
Y-177241D02*
X18288Y-223012D01*
D18*
X-160320Y102499D02*
Y107904D01*
X-163570Y99249D02*
X-160320Y102499D01*
X-114821Y44000D02*
X-111571Y40750D01*
X-114821Y44000D02*
Y57203D01*
X-108321Y63703D01*
Y74686D01*
X-106507Y76500D01*
X-103281D01*
X-101346Y78435D01*
X-109144Y29286D02*
X-107429Y31001D01*
X-113182Y29286D02*
X-109144D01*
X-114897Y31001D02*
X-113182Y29286D01*
X-119875Y31001D02*
X-114897D01*
X-121321Y29555D02*
X-119875Y31001D01*
X-121321Y26116D02*
Y29555D01*
X-122938Y24498D02*
X-121321Y26116D01*
X-127820Y24498D02*
X-122938D01*
X-131070Y21248D02*
X-127820Y24498D01*
X-127541Y108999D02*
X-121321D01*
X-111571Y99249D01*
X-114821Y89499D02*
X-111571Y86250D01*
X-126329Y89499D02*
X-114821D01*
X-127820Y90990D02*
X-126329Y89499D01*
X-127820Y90990D02*
Y94800D01*
X-110376Y115860D02*
X-108321Y113805D01*
Y78369D02*
Y113805D01*
X-114300Y72390D02*
X-108321Y78369D01*
X-118364Y72390D02*
X-114300D01*
X-121666Y69088D02*
X-118364Y72390D01*
X-121666Y64770D02*
Y69088D01*
Y64770D02*
X-118071Y61175D01*
Y53750D02*
Y61175D01*
X-108321Y50500D02*
Y56525D01*
X-111571Y47250D02*
X-108321Y50500D01*
D20*
X834179Y-6353D02*
X840830D01*
X837202Y-11190D01*
X839016D01*
X840226Y-11794D01*
X840830Y-12399D01*
X841435Y-14213D01*
Y-15422D01*
X840830Y-17236D01*
X839621Y-18445D01*
X837807Y-19050D01*
X835993D01*
X834179Y-18445D01*
X833575Y-17841D01*
X832970Y-16631D01*
X844277Y-23282D02*
X853951D01*
X864048Y-8167D02*
X862839Y-6957D01*
X861025Y-6353D01*
X858606D01*
X856793Y-6957D01*
X855583Y-8167D01*
Y-9376D01*
X856188Y-10585D01*
X856793Y-11190D01*
X858002Y-11794D01*
X861630Y-13004D01*
X862839Y-13608D01*
X863444Y-14213D01*
X864048Y-15422D01*
Y-17236D01*
X862839Y-18445D01*
X861025Y-19050D01*
X858606D01*
X856793Y-18445D01*
X855583Y-17236D01*
X866890Y-6353D02*
Y-19050D01*
X874146D01*
X875536Y-8771D02*
X876745Y-8167D01*
X878559Y-6353D01*
Y-19050D01*
D147*
X-304800Y-208280D02*
D03*
X-82550Y157480D02*
D03*
D154*
X-306033Y94002D02*
D03*
Y-64498D02*
D03*
D165*
X-52502Y54178D02*
Y84970D01*
X-36100Y101372D01*
X-12593Y-44704D02*
X-7857Y-49440D01*
X30547D02*
X37324Y-56217D01*
X-7857Y-49440D02*
X30547D01*
X250444Y146558D02*
X255869Y151983D01*
X250444Y104902D02*
Y146558D01*
X255869Y151983D02*
Y262037D01*
X180061Y6096D02*
X256032Y82067D01*
Y99314D01*
X250444Y104902D02*
X256032Y99314D01*
X-82296Y-74930D02*
X-82247Y-74881D01*
Y-70563D01*
X-64516Y-52832D01*
X-23622D02*
X-18796Y-57658D01*
X-64516Y-52832D02*
X-23622D01*
X-18796Y-57658D02*
X30552D01*
X-80264Y-53086D02*
X-71882Y-44704D01*
X-25654D01*
X-12593D01*
X-133858Y-53086D02*
X-87376D01*
X-80264D01*
X-165862Y-85090D02*
X-158242Y-77470D01*
X-133858Y-53086D01*
X-184150Y-85090D02*
X-165862D01*
X98044Y13943D02*
Y109473D01*
X79896Y-4205D02*
X98044Y13943D01*
X79896Y127621D02*
X98044Y109473D01*
X67415Y-51285D02*
X70740Y-54610D01*
X49299Y-51285D02*
X67415D01*
X44367Y-56217D02*
X49299Y-51285D01*
X37324Y-56217D02*
X44367D01*
X-190500Y-78740D02*
X-184150Y-85090D01*
X121919Y250190D02*
X132079Y260350D01*
X209798D01*
X237738Y232410D01*
X40513Y167007D02*
X54898Y152622D01*
X40513Y167007D02*
Y208153D01*
X54737Y222377D01*
X176403D01*
X184150Y214630D01*
X219958D01*
X237738Y232410D01*
X45466Y118190D02*
X54898Y127621D01*
X45466Y90170D02*
Y118190D01*
X40261Y84965D02*
X45466Y90170D01*
X40261Y74043D02*
Y84965D01*
X30734Y64516D02*
X40261Y74043D01*
X30734Y54813D02*
Y64516D01*
Y54813D02*
X38811Y46736D01*
Y28499D02*
Y46736D01*
Y28499D02*
X41910Y25400D01*
Y8783D02*
Y25400D01*
Y8783D02*
X54898Y-4205D01*
X31623Y150896D02*
X54898Y127621D01*
X31623Y150896D02*
Y210693D01*
X50038Y229108D01*
X188722D01*
X193040Y224790D01*
X217418D01*
X225038Y232410D01*
X173989Y250190D02*
X207258D01*
X225038Y232410D01*
X30552Y-57658D02*
X34894Y-62000D01*
X47665D01*
X52065Y-57600D01*
X65848D01*
X68721Y-60474D01*
X80233D01*
X88900Y-51808D01*
Y-45916D01*
X99263Y-35552D01*
Y-29708D01*
X141671Y12700D01*
X160274D01*
X166878Y6096D01*
X180061D01*
X237236Y280670D02*
X255869Y262037D01*
X225298Y280670D02*
X237236D01*
X179908Y326060D02*
X225298Y280670D01*
X139014Y326060D02*
X179908D01*
X119380Y345694D02*
X139014Y326060D01*
X119380Y345694D02*
Y351790D01*
X-87630Y-8890D02*
Y-4572D01*
X-64567Y18491D01*
Y42113D01*
X-52502Y54178D01*
X-87630Y-16510D02*
Y-8890D01*
D166*
X-29608Y100007D02*
Y112666D01*
X-37846Y120904D02*
X-29608Y112666D01*
X-41784Y87830D02*
X-29608Y100007D01*
X-24483Y99977D02*
Y114145D01*
X-34798Y124460D02*
X-24483Y114145D01*
X-35911Y88549D02*
X-24483Y99977D01*
X-47371Y69723D02*
X-41784Y75310D01*
X-47371Y51689D02*
Y69723D01*
X-41784Y75310D02*
Y87830D01*
X-35911Y48163D02*
Y88549D01*
X-40640Y43434D02*
X-35911Y48163D01*
X5743Y27852D02*
Y35581D01*
X6350Y20066D02*
Y27245D01*
X5743Y27852D02*
X6350Y27245D01*
X4572Y18288D02*
X6350Y20066D01*
Y11176D02*
X11176Y6350D01*
Y-1016D02*
X29210Y-19050D01*
X11176Y-1016D02*
Y6350D01*
X-7074Y18288D02*
X4572D01*
X-22860Y2502D02*
X-7074Y18288D01*
X260350Y-213360D02*
Y-190500D01*
X256540Y-186690D02*
X260350Y-190500D01*
X-91048Y-132958D02*
X-87046Y-128956D01*
X-91048Y-139700D02*
Y-132958D01*
X-142240Y-80010D02*
X-106680D01*
X-106426D01*
X-98806Y-87630D02*
X-44831D01*
X-106426Y-80010D02*
X-102362Y-84074D01*
X-98806Y-87630D01*
X-87046Y-128956D02*
X-82997D01*
X-61458Y-107417D01*
X-314960Y-100330D02*
X-304759Y-110531D01*
X-290652D01*
X-283568Y-117615D01*
X-269761D01*
X-246126Y-93980D01*
X-162560D01*
X-156210Y-87630D01*
X-149860D01*
X-142240Y-80010D01*
X-44831Y-87630D02*
X-39370Y-82169D01*
X-14360D01*
X-4343Y-92186D01*
X63738D01*
X73614Y-102062D01*
Y-116840D02*
Y-102062D01*
X-40640Y-96520D02*
Y-91440D01*
X-51587Y-107417D02*
X-41935Y-97765D01*
X-37617Y-88417D02*
X-20218D01*
X-41910Y-97790D02*
X-40640Y-96520D01*
Y-91440D02*
X-37617Y-88417D01*
X256540Y-186690D02*
Y-138415D01*
X200675Y-82550D02*
X256540Y-138415D01*
X180340Y-82550D02*
X200675D01*
X123444Y-25654D02*
X180340Y-82550D01*
X112522Y-25654D02*
X123444D01*
X106426Y-31750D02*
X112522Y-25654D01*
X106426Y-37338D02*
Y-31750D01*
X101854Y-41910D02*
X106426Y-37338D01*
X10160Y-147320D02*
X29210Y-166370D01*
X48768D01*
X53921Y-171523D01*
X97031D01*
X105791Y-162763D01*
X124257D01*
X134837Y-152183D01*
Y-146050D01*
X-61458Y-107417D02*
X-51587D01*
X-20218Y-88417D02*
X-10719Y-97917D01*
X56007D01*
X68580Y-110490D01*
X-144399Y-18415D02*
X-136652Y-10668D01*
X-107442D01*
X-102870Y-15240D01*
Y-22098D02*
Y-15240D01*
Y-22098D02*
X-99314Y-25654D01*
X-16510D01*
X-6096Y-15240D01*
X12954D01*
X23368Y-25654D01*
Y-32766D02*
Y-25654D01*
Y-32766D02*
X26162Y-35560D01*
X59944D01*
X64262Y-31242D01*
Y-24130D01*
X69597Y-18795D01*
X90171D01*
X215646Y106680D01*
X237490D01*
X242570Y101600D01*
X31750Y-25400D02*
X36830Y-30480D01*
X28702Y-25400D02*
X31750D01*
X13970Y-10668D02*
X28702Y-25400D01*
X-6858Y-10668D02*
X13970D01*
X-10414Y-7112D02*
X-6858Y-10668D01*
X-14732Y-7112D02*
X-10414D01*
X-24384Y-16764D02*
X-14732Y-7112D01*
X-41661Y-16764D02*
X-24384D01*
X-48006Y-10419D02*
X-41661Y-16764D01*
X-48006Y-10419D02*
Y1524D01*
X-57404Y10922D02*
X-48006Y1524D01*
X-57404Y10922D02*
Y33782D01*
X-54864Y36322D01*
Y44196D01*
X-47371Y51689D01*
X-48643Y120904D02*
X-37846D01*
X-59515Y131775D02*
X-48643Y120904D01*
X-66192Y131775D02*
X-59515D01*
X-7366Y11176D02*
X6350D01*
X-15240Y3302D02*
X-7366Y11176D01*
X-15240Y1524D02*
Y3302D01*
X-20574Y-3810D02*
X-15240Y1524D01*
X-29395Y-3810D02*
X-20574D01*
X-34729Y1524D02*
X-29395Y-3810D01*
X-40894Y1524D02*
X-34729D01*
X-51054Y11684D02*
X-40894Y1524D01*
X-51054Y11684D02*
Y42255D01*
X-48859Y44450D01*
X-44958D01*
X-43942Y43434D01*
X-40640D01*
X-44277Y124460D02*
X-34798D01*
X-56977Y137160D02*
X-44277Y124460D01*
X-66294Y137160D02*
X-56977D01*
D168*
X-355600Y111760D02*
X-344830D01*
X-321462Y135128D01*
Y188456D01*
X-315147Y203703D01*
X-302066Y223280D01*
X-289380Y235966D01*
X-265430D01*
X-256032Y245364D01*
Y262890D01*
X-228442Y290480D01*
X-225322D01*
X-221452Y294349D01*
D169*
X187960Y-326390D02*
Y-317500D01*
X207010Y-298450D01*
X215900D01*
X256540Y-257810D01*
X274320D01*
X159679Y-332034D02*
X187960Y-326390D01*
X130401Y-345635D02*
X159679Y-332034D01*
X94811Y-356794D02*
X130401Y-345635D01*
X59164Y-361950D02*
X94811Y-356794D01*
X-56144Y-361950D02*
X59164D01*
X-105625Y-356520D02*
X-56144Y-361950D01*
X-142423Y-345263D02*
X-105625Y-356520D01*
X-194849Y-316796D02*
X-142423Y-345263D01*
X-232867Y-294912D02*
X-194849Y-316796D01*
X-253966Y-273813D02*
X-232867Y-294912D01*
X-281614Y-234753D02*
X-253966Y-273813D01*
X-290551Y-214109D02*
X-281614Y-234753D01*
X-290551Y-214109D02*
Y-194589D01*
X-295910Y-189230D02*
X-290551Y-194589D01*
X-306070Y-189230D02*
X-295910D01*
X-35278Y-236220D02*
Y-235670D01*
X-51816Y-208280D02*
Y-175006D01*
X-31377Y-231769D02*
Y-229497D01*
X-30988Y-229108D01*
X-51816Y-208280D02*
X-30988Y-229108D01*
X-35278Y-235670D02*
X-31377Y-231769D01*
X-36424Y-159614D02*
Y-129997D01*
X-51816Y-175006D02*
X-36424Y-159614D01*
X-55880Y-78740D02*
X-48260D01*
X-36830Y-67310D02*
X-20320D01*
X-48260Y-78740D02*
X-36830Y-67310D01*
X-13970D02*
X26652D01*
X31021Y-71679D01*
X53490D01*
X56570Y-68598D01*
X62282D01*
X65165Y-71481D01*
X82744D01*
X87676Y-66548D01*
X92202D01*
X115570Y-43180D01*
Y-35560D01*
X-20320Y-67310D02*
X-13970D01*
X-185420Y275844D02*
Y284480D01*
X-199110Y262154D02*
X-185420Y275844D01*
X-199110Y246660D02*
Y262154D01*
X-224028Y221742D02*
X-199110Y246660D01*
X-224028Y205232D02*
Y221742D01*
Y205232D02*
X-219072Y200277D01*
Y169548D02*
Y200277D01*
X-229236Y159384D02*
X-219072Y169548D01*
X-229236Y111124D02*
Y159384D01*
X-233680Y106680D02*
X-229236Y111124D01*
X-233680Y57150D02*
Y106680D01*
X-241300Y49530D02*
X-233680Y57150D01*
X-18542Y-140970D02*
X-14732Y-137160D01*
X-18542Y-164592D02*
Y-140970D01*
Y-164592D02*
X23114Y-206248D01*
X74168D01*
X77470Y-209550D01*
X-14605Y-135001D02*
X-10414Y-130810D01*
X-14605Y-137033D02*
Y-135001D01*
X-14732Y-137160D02*
X-14605Y-137033D01*
X77470Y-219710D02*
Y-209550D01*
X29198Y-115240D02*
X45866Y-131908D01*
X-21666Y-115240D02*
X29198D01*
X-36424Y-129997D02*
X-21666Y-115240D01*
X45866Y-131908D02*
X50705Y-136747D01*
X52830Y-126468D02*
X58050Y-131688D01*
X182609Y-154940D02*
Y-148844D01*
X174488Y-163062D02*
X182609Y-154940D01*
X154559Y-163062D02*
X174488D01*
X147641Y-169979D02*
X154559Y-163062D01*
X129487Y-169979D02*
X147641D01*
X117856Y-181610D02*
X129487Y-169979D01*
X33782Y-181610D02*
X117856D01*
X-1700Y-146128D02*
X33782Y-181610D01*
X182609Y-148844D02*
Y-141986D01*
X-1700Y-146128D02*
X3329Y-141099D01*
X74013Y-165235D02*
X74015Y-165237D01*
X74013Y-165235D02*
X74015Y-164473D01*
Y-158708D01*
X27265Y-144613D02*
X32193Y-139686D01*
X27265Y-152487D02*
Y-144613D01*
Y-152487D02*
X33486Y-158708D01*
X74015D01*
X-47232Y-141669D02*
Y-125617D01*
X-26492Y-104877D01*
X50251D01*
X61536Y-116162D01*
X66540Y-121166D01*
X101854Y-100076D02*
Y-86868D01*
X83820Y-118110D02*
X101854Y-100076D01*
X-255270Y38100D02*
X-248920Y44450D01*
Y68504D01*
X-243078Y74346D01*
Y162052D01*
X-227330Y177800D01*
Y193040D01*
X-233426Y199136D02*
X-227330Y193040D01*
X-233426Y199136D02*
Y226568D01*
X-210820Y249174D01*
Y261112D01*
X-194310Y277622D01*
Y284480D01*
X209090Y124460D02*
X222090D01*
X-32766Y175006D02*
X-24130Y166370D01*
X-32766Y175006D02*
Y241808D01*
X-17527Y257048D01*
Y270002D01*
X55072Y342600D01*
X64216D01*
X100030D02*
X108829Y351399D01*
X64216Y342600D02*
X100030D01*
D174*
X-47232Y-150053D02*
Y-141669D01*
D177*
X151697Y127622D02*
D03*
Y-4204D02*
D03*
D178*
Y202622D02*
D03*
Y70796D02*
D03*
D179*
X54897Y152622D02*
D03*
Y177622D02*
D03*
Y202622D02*
D03*
X79897D02*
D03*
Y177622D02*
D03*
Y152622D02*
D03*
X54897Y127622D02*
D03*
X79897D02*
D03*
X-201829Y-266261D02*
D03*
X-220980Y-250191D02*
D03*
X54897Y20796D02*
D03*
Y45796D02*
D03*
Y70796D02*
D03*
X79897D02*
D03*
Y45796D02*
D03*
Y20796D02*
D03*
X54897Y-4204D02*
D03*
X79897D02*
D03*
D181*
X-220018Y-268491D02*
D03*
D183*
X265630Y-71175D02*
D03*
X-194454Y-194454D02*
D03*
X-71175Y265630D02*
D03*
D184*
X342900Y-71175D02*
D03*
X312420Y-165100D02*
D03*
D185*
X29401Y-2491D02*
D03*
X-42563Y103600D02*
D03*
X-52806Y92785D02*
D03*
X-42386Y54336D02*
D03*
X3458Y-32235D02*
D03*
X9575Y-32056D02*
D03*
X4024Y-39216D02*
D03*
X-1815Y-36054D02*
D03*
X5743Y35581D02*
D03*
X-106454Y3180D02*
D03*
X-12700Y98806D02*
D03*
X2540Y-22860D02*
D03*
X-23876Y35052D02*
D03*
X25923Y2540D02*
D03*
X1702Y44704D02*
D03*
X17780Y373634D02*
D03*
X-146050Y297180D02*
D03*
X-137160Y266700D02*
D03*
X-129540D02*
D03*
X-110490Y-361950D02*
D03*
X-82296Y-74930D02*
D03*
X3302Y-237236D02*
D03*
X-8890Y-232410D02*
D03*
X108637Y-238206D02*
D03*
X110490Y-245110D02*
D03*
X-152400Y238760D02*
D03*
X-247650Y-209550D02*
D03*
X-340868Y-109220D02*
D03*
Y-115570D02*
D03*
Y-121920D02*
D03*
X-190500Y-78740D02*
D03*
X-180340D02*
D03*
X-13970Y90170D02*
D03*
X-297180Y-50800D02*
D03*
X-190093Y-279578D02*
D03*
X349250Y-146050D02*
D03*
X354330Y-133350D02*
D03*
X-22860Y2502D02*
D03*
X30480Y35560D02*
D03*
X30681Y22860D02*
D03*
X-210820Y182880D02*
D03*
X-221452Y294349D02*
D03*
X-302260Y210312D02*
D03*
X40640Y62230D02*
D03*
X29169Y72314D02*
D03*
X-204632Y308009D02*
D03*
X-182101Y269223D02*
D03*
X-287020Y204470D02*
D03*
X-203200Y284524D02*
D03*
X7112Y83820D02*
D03*
X-4702Y78680D02*
D03*
X-30975Y71641D02*
D03*
X-2540Y25400D02*
D03*
X12700Y55372D02*
D03*
X14478Y44958D02*
D03*
X-346710Y20320D02*
D03*
Y33020D02*
D03*
X-7620Y-31750D02*
D03*
X12700Y-21590D02*
D03*
X-346710Y-5080D02*
D03*
X361950Y-40640D02*
D03*
X344170D02*
D03*
X325120D02*
D03*
X308610D02*
D03*
X292100D02*
D03*
X156210Y38100D02*
D03*
X-35560Y289560D02*
D03*
X-41910Y299720D02*
D03*
X176530Y212090D02*
D03*
X158750Y166370D02*
D03*
X139700Y146050D02*
D03*
X85090Y-30480D02*
D03*
X-153670Y299720D02*
D03*
X-135890D02*
D03*
X16510Y134620D02*
D03*
X17780Y199390D02*
D03*
Y154940D02*
D03*
X52070Y330200D02*
D03*
X54610Y300990D02*
D03*
X58420Y279400D02*
D03*
Y236220D02*
D03*
X-163830Y-322580D02*
D03*
X35560Y332740D02*
D03*
X45720Y344170D02*
D03*
X69850Y-25400D02*
D03*
X133350Y-19050D02*
D03*
X228600Y-31750D02*
D03*
X247650D02*
D03*
X264160D02*
D03*
X33020Y90170D02*
D03*
X91440Y96520D02*
D03*
X80010Y107950D02*
D03*
X77470Y91440D02*
D03*
X67310Y101600D02*
D03*
X50800D02*
D03*
X-64770Y224790D02*
D03*
X-83820D02*
D03*
X-73660Y217170D02*
D03*
X179070Y189230D02*
D03*
X203200D02*
D03*
Y204470D02*
D03*
X228600Y209550D02*
D03*
X247650Y222250D02*
D03*
Y209550D02*
D03*
X203200Y171450D02*
D03*
Y152400D02*
D03*
X222250D02*
D03*
Y171450D02*
D03*
X247650Y152400D02*
D03*
Y171450D02*
D03*
X189230Y176530D02*
D03*
X127000Y133350D02*
D03*
X143510Y104140D02*
D03*
X171450Y158750D02*
D03*
Y139700D02*
D03*
X189230Y158750D02*
D03*
Y139700D02*
D03*
Y118110D02*
D03*
X209550Y-19050D02*
D03*
Y-38100D02*
D03*
X172720Y12700D02*
D03*
Y31750D02*
D03*
X171450Y53340D02*
D03*
Y88900D02*
D03*
X190500Y31750D02*
D03*
Y50800D02*
D03*
Y73660D02*
D03*
X189230Y101600D02*
D03*
X248920Y82550D02*
D03*
Y57150D02*
D03*
Y31750D02*
D03*
X133350Y38100D02*
D03*
Y57150D02*
D03*
X127000Y76200D02*
D03*
Y95250D02*
D03*
Y114300D02*
D03*
X107950Y133350D02*
D03*
Y152400D02*
D03*
Y171450D02*
D03*
X127000Y190500D02*
D03*
Y209550D02*
D03*
X107950Y190500D02*
D03*
Y209550D02*
D03*
Y19050D02*
D03*
Y38100D02*
D03*
Y57150D02*
D03*
Y76200D02*
D03*
Y95250D02*
D03*
Y114300D02*
D03*
X370840Y-46990D02*
D03*
X373380Y-63500D02*
D03*
X368300Y-90170D02*
D03*
X364490Y-104140D02*
D03*
X360680Y-116840D02*
D03*
X-214630Y-312420D02*
D03*
X-200660Y-321310D02*
D03*
X-186690Y-328930D02*
D03*
X-170180Y-337820D02*
D03*
X264160Y-19050D02*
D03*
Y-6350D02*
D03*
Y6350D02*
D03*
Y19050D02*
D03*
Y31750D02*
D03*
Y44450D02*
D03*
Y57150D02*
D03*
Y69850D02*
D03*
X257810Y108204D02*
D03*
Y120904D02*
D03*
Y133604D02*
D03*
Y146304D02*
D03*
X264160Y158750D02*
D03*
Y171450D02*
D03*
Y184150D02*
D03*
Y196850D02*
D03*
Y209550D02*
D03*
Y222250D02*
D03*
Y237490D02*
D03*
X190500Y327660D02*
D03*
X-364490Y104140D02*
D03*
X-181610Y332740D02*
D03*
X-355600Y130810D02*
D03*
X-346710Y151130D02*
D03*
X-341630Y163830D02*
D03*
X-335280Y176530D02*
D03*
X-328930Y187960D02*
D03*
X-323850Y196850D02*
D03*
X-293370Y240030D02*
D03*
X-207010Y317500D02*
D03*
X-194310Y325120D02*
D03*
X-168910Y339090D02*
D03*
X259080Y276860D02*
D03*
X247650Y287020D02*
D03*
X224790Y304800D02*
D03*
X147320Y349250D02*
D03*
X128524Y356616D02*
D03*
X111760Y361950D02*
D03*
X39370Y377190D02*
D03*
X-2286Y373634D02*
D03*
X-21590Y378460D02*
D03*
X-46990Y375920D02*
D03*
X-64770Y373380D02*
D03*
X-83820Y369570D02*
D03*
X-104140Y364490D02*
D03*
X-124460Y358140D02*
D03*
X-140970Y351790D02*
D03*
X-156210Y345440D02*
D03*
X33020Y363268D02*
D03*
X49530D02*
D03*
X17699D02*
D03*
X1270D02*
D03*
X-6190Y349250D02*
D03*
X-199809Y303187D02*
D03*
X-111920Y237490D02*
D03*
X-112563Y229443D02*
D03*
X-135308Y137186D02*
D03*
X-163830Y133350D02*
D03*
X-193294Y136652D02*
D03*
X-176021Y128015D02*
D03*
X-184657Y128016D02*
D03*
X40640Y55372D02*
D03*
X19629Y87884D02*
D03*
X22276Y72542D02*
D03*
X-13462Y78232D02*
D03*
X12700Y62230D02*
D03*
X-29972Y87122D02*
D03*
X-199390Y56459D02*
D03*
X-255270Y63500D02*
D03*
Y50800D02*
D03*
X-331470Y63500D02*
D03*
X-316000D02*
D03*
X26924Y43078D02*
D03*
X-2540Y31910D02*
D03*
X14224Y29210D02*
D03*
X-137570Y47250D02*
D03*
X-150570Y73250D02*
D03*
X-144070D02*
D03*
X-137570D02*
D03*
X-150570Y79750D02*
D03*
X-144070D02*
D03*
X-137570Y79750D02*
D03*
X-150570Y66750D02*
D03*
X-144070D02*
D03*
X-150570Y60250D02*
D03*
X-137570Y60250D02*
D03*
X-144070Y60250D02*
D03*
X-137570Y66750D02*
D03*
X-150570Y47250D02*
D03*
Y53750D02*
D03*
X-144070D02*
D03*
Y47250D02*
D03*
X-137570Y53750D02*
D03*
X-157070Y73250D02*
D03*
Y60250D02*
D03*
Y66750D02*
D03*
Y53750D02*
D03*
X-157070Y47250D02*
D03*
X-246380Y8890D02*
D03*
Y21590D02*
D03*
X-317500Y7620D02*
D03*
Y20320D02*
D03*
Y33020D02*
D03*
Y45720D02*
D03*
X-354490Y12700D02*
D03*
X-5080Y5080D02*
D03*
X5080D02*
D03*
Y-5080D02*
D03*
X-5080D02*
D03*
X-246380Y-20320D02*
D03*
Y-3810D02*
D03*
X-317500Y-29210D02*
D03*
Y-17780D02*
D03*
Y-5080D02*
D03*
X-271640Y-58026D02*
D03*
X-277990D02*
D03*
X-292862Y-76708D02*
D03*
X-279400D02*
D03*
X-185420Y284480D02*
D03*
X234950Y95250D02*
D03*
X-311150Y-118110D02*
D03*
X-304800D02*
D03*
X-357886Y-111252D02*
D03*
X-359080Y-105943D02*
D03*
X-357378Y-116586D02*
D03*
X-307340Y-135890D02*
D03*
X203200Y113030D02*
D03*
X227490Y114300D02*
D03*
X64216Y369570D02*
D03*
X41910Y-21590D02*
D03*
Y-40640D02*
D03*
X53988Y-21590D02*
D03*
X49530Y-30480D02*
D03*
X101854Y-41910D02*
D03*
X198120Y-222250D02*
D03*
X215900Y-204470D02*
D03*
X207010Y-213360D02*
D03*
X-6799Y-79243D02*
D03*
X-155194Y5105D02*
D03*
X-207010Y5080D02*
D03*
X-228900Y-81280D02*
D03*
X-190754Y-17780D02*
D03*
X58420Y-30480D02*
D03*
X-161290Y-102870D02*
D03*
Y-133350D02*
D03*
X-222250Y-102870D02*
D03*
X-297180Y-36068D02*
D03*
X-222250Y-133350D02*
D03*
X-247650Y-179070D02*
D03*
X77592Y-54616D02*
D03*
X90678Y-73152D02*
D03*
X-147320Y5080D02*
D03*
X101346Y-79248D02*
D03*
X16510Y15240D02*
D03*
X240190Y124300D02*
D03*
X222090Y124460D02*
D03*
X209090D02*
D03*
X-194310Y284480D02*
D03*
X-210820Y-124460D02*
D03*
X-179451Y-236677D02*
D03*
X-232410Y-228600D02*
D03*
X-259080Y-276860D02*
D03*
X-269240Y-266700D02*
D03*
X-295910Y-236220D02*
D03*
X-304800Y-224790D02*
D03*
X-321310Y-199390D02*
D03*
X-331470Y-182880D02*
D03*
X-336550Y-173990D02*
D03*
X-346710Y-151130D02*
D03*
X-353060Y-137160D02*
D03*
X-157480Y-119380D02*
D03*
X-170434Y-103378D02*
D03*
X-224790Y-160020D02*
D03*
X-255270Y38100D02*
D03*
X-200660Y45720D02*
D03*
X-172212Y-2540D02*
D03*
X-253733Y-82817D02*
D03*
X-207010Y-98369D02*
D03*
X-186690Y-110490D02*
D03*
X-207772Y13391D02*
D03*
X-200660Y29050D02*
D03*
X-199390Y-35560D02*
D03*
Y-44450D02*
D03*
Y-53340D02*
D03*
X-198120Y-78740D02*
D03*
X-212090Y-44450D02*
D03*
X-295910Y-118110D02*
D03*
X-275590Y-87630D02*
D03*
X-280670Y-92710D02*
D03*
Y-100330D02*
D03*
X-267970Y-98369D02*
D03*
X-320040Y-118110D02*
D03*
X-307340Y-100330D02*
D03*
X-275590Y-176530D02*
D03*
X-280670Y-135890D02*
D03*
X-335280D02*
D03*
X250190Y95250D02*
D03*
X70739Y-54610D02*
D03*
X-176530Y-44450D02*
D03*
X-199390Y66040D02*
D03*
X-20320Y27940D02*
D03*
X-42418Y48006D02*
D03*
X-46228Y77216D02*
D03*
X-69952Y85344D02*
D03*
X-73363Y76962D02*
D03*
X-68580Y62484D02*
D03*
X-42672Y68072D02*
D03*
X-7620Y38100D02*
D03*
X-300482Y189230D02*
D03*
X-264160Y50800D02*
D03*
X-17653Y349250D02*
D03*
X-294132Y199644D02*
D03*
X-264160Y71120D02*
D03*
X-297180Y67310D02*
D03*
X-202332Y198888D02*
D03*
X-171450Y133350D02*
D03*
X-150548Y-81356D02*
D03*
X-297180Y46502D02*
D03*
X-327660Y-118110D02*
D03*
X-314960Y-100330D02*
D03*
X-161290Y287020D02*
D03*
Y295910D02*
D03*
X7120Y344170D02*
D03*
X23548Y353822D02*
D03*
X56406D02*
D03*
X39977D02*
D03*
X-331470Y73660D02*
D03*
X242570Y101600D02*
D03*
X-144399Y-18415D02*
D03*
X39370Y-50800D02*
D03*
X36830Y-30480D02*
D03*
X29210Y-19050D02*
D03*
X27940Y-30480D02*
D03*
X18494Y-31750D02*
D03*
X-207010Y-107368D02*
D03*
X-229870Y-6350D02*
D03*
X-242570Y-81280D02*
D03*
X-273050Y-110490D02*
D03*
X-275590Y-183568D02*
D03*
X-317500Y73660D02*
D03*
X33274Y42926D02*
D03*
X10439Y68174D02*
D03*
X34834Y76149D02*
D03*
X9144Y49530D02*
D03*
X-182372Y258496D02*
D03*
X-172532Y258496D02*
D03*
X-335280Y-125570D02*
D03*
X-314960Y-135890D02*
D03*
X-280830Y-125570D02*
D03*
X-177330Y-279400D02*
D03*
X-299720Y-135890D02*
D03*
X-280670Y-110650D02*
D03*
X-299720Y-100330D02*
D03*
X-177800Y-271780D02*
D03*
X-160020Y259080D02*
D03*
X-285242Y216360D02*
D03*
X-264160Y63500D02*
D03*
X-161290Y278171D02*
D03*
X227330Y101600D02*
D03*
X80010Y358140D02*
D03*
X74465Y369570D02*
D03*
X-297180Y-24130D02*
D03*
Y-15240D02*
D03*
Y-4298D02*
D03*
Y8402D02*
D03*
Y21102D02*
D03*
Y33802D02*
D03*
Y59202D02*
D03*
X-161290Y-303530D02*
D03*
X-163030Y-279400D02*
D03*
X-314960Y189230D02*
D03*
X-310364Y199366D02*
D03*
X12954Y369268D02*
D03*
X33020Y370840D02*
D03*
X49530D02*
D03*
X-234168Y293350D02*
D03*
X-225387Y300063D02*
D03*
X-217170Y307010D02*
D03*
X-260350Y-133350D02*
D03*
X-199390D02*
D03*
X-283210Y-209550D02*
D03*
X-176530Y-17780D02*
D03*
Y-26670D02*
D03*
Y-35560D02*
D03*
Y-72390D02*
D03*
Y-62230D02*
D03*
X-322580Y-135890D02*
D03*
X-212090Y-17780D02*
D03*
Y-26670D02*
D03*
X-176530Y-53340D02*
D03*
X-290830Y-135890D02*
D03*
Y-100330D02*
D03*
X-323850D02*
D03*
X-212090Y-35560D02*
D03*
Y-71120D02*
D03*
Y-62230D02*
D03*
Y-53340D02*
D03*
X-264160Y100330D02*
D03*
X-329390Y52070D02*
D03*
X-336090Y12700D02*
D03*
Y38100D02*
D03*
Y25400D02*
D03*
Y0D02*
D03*
X-229870Y-17780D02*
D03*
X-235760Y-11430D02*
D03*
Y1270D02*
D03*
Y13970D02*
D03*
X-229870Y24130D02*
D03*
X-334010Y-29210D02*
D03*
Y-17780D02*
D03*
X-183580Y113267D02*
D03*
X-176823D02*
D03*
D186*
X-36100Y101372D02*
D03*
X260350Y-213360D02*
D03*
X-91048Y-139700D02*
D03*
X119380Y-336550D02*
D03*
X-111760Y-74930D02*
D03*
X196850Y-320040D02*
D03*
X267624Y-265776D02*
D03*
X283210Y-246380D02*
D03*
X274320Y-257810D02*
D03*
X187960Y-326390D02*
D03*
X-133350Y-228600D02*
D03*
X-92710Y-127000D02*
D03*
X12192Y-231394D02*
D03*
X-91440Y-75184D02*
D03*
X-32512Y-93472D02*
D03*
X-55118Y-95758D02*
D03*
X-53340Y-60960D02*
D03*
X-55880Y-78740D02*
D03*
X-54864Y-69850D02*
D03*
X22860Y-81280D02*
D03*
X13970D02*
D03*
X-211709Y-298196D02*
D03*
X18796Y-145542D02*
D03*
X-355600Y111760D02*
D03*
X-257810Y83058D02*
D03*
Y92710D02*
D03*
X-179070Y295910D02*
D03*
X-161290Y267970D02*
D03*
X-234950Y187960D02*
D03*
X-262890Y190500D02*
D03*
X-273050D02*
D03*
X-283210D02*
D03*
X-243840Y187960D02*
D03*
X-254000D02*
D03*
X-241300Y60960D02*
D03*
X-305308Y-43668D02*
D03*
X-312440D02*
D03*
X-349250Y-71120D02*
D03*
Y-62230D02*
D03*
X-342900Y-77470D02*
D03*
X-162560Y-229870D02*
D03*
X137160Y347980D02*
D03*
X83820Y335280D02*
D03*
X-58421Y342900D02*
D03*
X-71119Y342899D02*
D03*
X-73647Y356758D02*
D03*
X-124460Y341790D02*
D03*
X-156210Y328930D02*
D03*
X-181610Y325120D02*
D03*
X166370Y311150D02*
D03*
X171404Y278130D02*
D03*
X180340Y296611D02*
D03*
X119334Y278130D02*
D03*
X121920Y296611D02*
D03*
X142240Y294640D02*
D03*
X149169Y276860D02*
D03*
X91393Y308610D02*
D03*
X92019Y293370D02*
D03*
X15931Y314269D02*
D03*
X-115570Y285750D02*
D03*
X-132080Y292100D02*
D03*
X-178562Y278130D02*
D03*
X226060Y294640D02*
D03*
X236220D02*
D03*
X15931Y264739D02*
D03*
X4053Y307340D02*
D03*
Y271780D02*
D03*
X-116841Y266699D02*
D03*
X-115570Y275750D02*
D03*
X-151130Y267970D02*
D03*
X-160020Y246730D02*
D03*
X-168147Y272287D02*
D03*
X-24709Y185420D02*
D03*
X-226060Y283972D02*
D03*
X-203708Y223266D02*
D03*
X-212598D02*
D03*
X-240030Y250190D02*
D03*
X-261620D02*
D03*
X-266700Y242824D02*
D03*
X-285242D02*
D03*
X-276352D02*
D03*
X-274320Y251460D02*
D03*
X-250190Y250190D02*
D03*
X-267970Y257810D02*
D03*
X129451Y157480D02*
D03*
X-17780Y114299D02*
D03*
X-37857Y130810D02*
D03*
Y166127D02*
D03*
X-265176Y181356D02*
D03*
X-276606D02*
D03*
X-286766D02*
D03*
X-328930Y171450D02*
D03*
X-210820Y152400D02*
D03*
X-287020Y86360D02*
D03*
X-275590D02*
D03*
X-341630Y85090D02*
D03*
X-321310D02*
D03*
X-331470D02*
D03*
X-312674Y181356D02*
D03*
X-296926D02*
D03*
X-281940Y157480D02*
D03*
Y148590D02*
D03*
Y139700D02*
D03*
X-273050Y157480D02*
D03*
X-264160D02*
D03*
X-273050Y148590D02*
D03*
X-264160D02*
D03*
X-219710Y147320D02*
D03*
Y157480D02*
D03*
X-273050Y139700D02*
D03*
X-264160D02*
D03*
Y26670D02*
D03*
Y33802D02*
D03*
X-347980Y45720D02*
D03*
X0Y0D02*
D03*
X-36830Y-3810D02*
D03*
Y-11430D02*
D03*
X-63500Y1270D02*
D03*
X-57150D02*
D03*
X-59690Y-17780D02*
D03*
X-66040D02*
D03*
X-57150Y-11430D02*
D03*
X-63500D02*
D03*
X-57150Y-5080D02*
D03*
X-63500D02*
D03*
X-109982Y-17780D02*
D03*
X-265430Y2540D02*
D03*
X-321310Y-57150D02*
D03*
X-330200D02*
D03*
X-340360D02*
D03*
X29451Y-79486D02*
D03*
X26911Y-87106D02*
D03*
X242D02*
D03*
X18022Y-74660D02*
D03*
Y-87106D02*
D03*
X6592Y-79486D02*
D03*
X9132Y-87106D02*
D03*
X-159977Y-259080D02*
D03*
X-160599Y-246380D02*
D03*
X115570Y-43180D02*
D03*
Y-35560D02*
D03*
X-20320Y-67310D02*
D03*
X-13970D02*
D03*
X129586Y278130D02*
D03*
X-20320Y213360D02*
D03*
X101018Y293370D02*
D03*
X-7620Y199390D02*
D03*
X158168Y276860D02*
D03*
X-20320Y224790D02*
D03*
Y199390D02*
D03*
X181656Y278130D02*
D03*
X199638Y232410D02*
D03*
X212338D02*
D03*
X237738D02*
D03*
X121919Y250190D02*
D03*
X225038Y232410D02*
D03*
X173989Y250190D02*
D03*
X-241300Y49530D02*
D03*
X-330200Y-156210D02*
D03*
X-328930Y-163830D02*
D03*
X-336550Y-152400D02*
D03*
Y-160020D02*
D03*
X-241300Y41910D02*
D03*
X-151130Y-106934D02*
D03*
Y-115062D02*
D03*
X161290Y337820D02*
D03*
X119380Y351790D02*
D03*
X-40640Y21590D02*
D03*
X-40462Y14326D02*
D03*
X-32715Y14021D02*
D03*
X-252222Y276352D02*
D03*
X-258572Y273050D02*
D03*
X-262382Y266954D02*
D03*
X-328930Y135890D02*
D03*
X-337820D02*
D03*
X-346710D02*
D03*
X4369Y131445D02*
D03*
X3810Y122784D02*
D03*
X-1626Y126695D02*
D03*
X-14732Y-137160D02*
D03*
X-10414Y-130810D02*
D03*
X45866Y-131908D02*
D03*
X50705Y-136747D02*
D03*
X52830Y-126468D02*
D03*
X58050Y-131688D02*
D03*
X182609Y-148844D02*
D03*
Y-141986D02*
D03*
X3329Y-141099D02*
D03*
X-1700Y-146128D02*
D03*
X74015Y-158708D02*
D03*
Y-165237D02*
D03*
X27265Y-144613D02*
D03*
X32193Y-139686D02*
D03*
X61536Y-116162D02*
D03*
X66540Y-121166D02*
D03*
X72289Y-335280D02*
D03*
X189230Y-195580D02*
D03*
X134620Y-205740D02*
D03*
X104902Y-228854D02*
D03*
X-4572Y-136398D02*
D03*
X-27174Y-345075D02*
D03*
X40386Y-138430D02*
D03*
X22717Y-345440D02*
D03*
X50799Y-228346D02*
D03*
X18288Y-223012D02*
D03*
X-125059Y-335197D02*
D03*
X66802Y-130302D02*
D03*
X-75168Y-335280D02*
D03*
X-57151Y-228600D02*
D03*
X-94742Y-206502D02*
D03*
X10160Y-147320D02*
D03*
X134837Y-146050D02*
D03*
X68580Y-110490D02*
D03*
X-41910Y177576D02*
D03*
X83820Y-118110D02*
D03*
X101854Y-86868D02*
D03*
X59289Y-76053D02*
D03*
X-180340Y-102870D02*
D03*
X-247650Y-110490D02*
D03*
X-234950Y-102870D02*
D03*
X-247650D02*
D03*
X-297180Y-156972D02*
D03*
X-306070D02*
D03*
X-264160Y-187960D02*
D03*
Y-157480D02*
D03*
X-241300Y-237490D02*
D03*
X228600Y182880D02*
D03*
X-186690Y-133350D02*
D03*
X-247650D02*
D03*
X-270510Y-209550D02*
D03*
X-295910Y-189230D02*
D03*
Y-180340D02*
D03*
X-306070D02*
D03*
Y-189230D02*
D03*
X-93980Y-16510D02*
D03*
X-24130Y166370D02*
D03*
X64216Y342600D02*
D03*
X108829Y351399D02*
D03*
X-87630Y-8890D02*
D03*
Y-16510D02*
D03*
X73614Y-116840D02*
D03*
X-85587Y319711D02*
D03*
X-127000Y302514D02*
D03*
X17780Y101376D02*
D03*
Y126776D02*
D03*
Y164876D02*
D03*
Y190276D02*
D03*
X58420Y245212D02*
D03*
Y270613D02*
D03*
Y308713D02*
D03*
Y334113D02*
D03*
X-41910Y114076D02*
D03*
X-1270Y257913D02*
D03*
Y321413D02*
D03*
X121919Y311150D02*
D03*
X175260D02*
D03*
X96519Y250190D02*
D03*
X148589Y250191D02*
D03*
X139700Y311107D02*
D03*
X83820Y325971D02*
D03*
X10160Y177576D02*
D03*
Y114076D02*
D03*
X52070Y321413D02*
D03*
Y257913D02*
D03*
X-292100Y133351D02*
D03*
X-110692Y347331D02*
D03*
X-26670Y361950D02*
D03*
X-167640Y244399D02*
D03*
X-118109Y330200D02*
D03*
X-146050Y128270D02*
D03*
X-212090Y92710D02*
D03*
Y99822D02*
D03*
D187*
X-91415Y38904D02*
D03*
X-128569Y235441D02*
D03*
X-142240Y238760D02*
D03*
X-136069Y235444D02*
D03*
X-144704Y153396D02*
D03*
X-143570Y160438D02*
D03*
X-196071Y14749D02*
D03*
X-98420Y132657D02*
D03*
X-97536Y123850D02*
D03*
X-116492Y123190D02*
D03*
X-112522Y136144D02*
D03*
X-102616D02*
D03*
X-101566Y188595D02*
D03*
X-143570Y205439D02*
D03*
X-181070Y197941D02*
D03*
X-173570Y190440D02*
D03*
X-181070D02*
D03*
X-188568D02*
D03*
Y175439D02*
D03*
X-181070D02*
D03*
X-188568Y152940D02*
D03*
X-81255Y117831D02*
D03*
X-88138Y134620D02*
D03*
X-111571Y79750D02*
D03*
X-118071Y86250D02*
D03*
X-124571Y60250D02*
D03*
Y92749D02*
D03*
X-189572Y86250D02*
D03*
X-170070Y53750D02*
D03*
X-176569Y73250D02*
D03*
Y86250D02*
D03*
X-163570D02*
D03*
X-137570Y34251D02*
D03*
X-163570Y40750D02*
D03*
X-124571D02*
D03*
X-106069Y212940D02*
D03*
X-143570D02*
D03*
X-166069Y220440D02*
D03*
X-158568Y212940D02*
D03*
X-166069Y190440D02*
D03*
Y197941D02*
D03*
X-136069D02*
D03*
X-173570Y220440D02*
D03*
Y227941D02*
D03*
X-202825Y190440D02*
D03*
X-106069Y167938D02*
D03*
Y182940D02*
D03*
X-121068Y145439D02*
D03*
X-136069Y175439D02*
D03*
X-166069D02*
D03*
Y152940D02*
D03*
X-128568D02*
D03*
X-136069Y182940D02*
D03*
X-173570Y175439D02*
D03*
X-181070Y152940D02*
D03*
X-196657Y162753D02*
D03*
X-97809Y112249D02*
D03*
X-109314Y123444D02*
D03*
X-189572Y99249D02*
D03*
X-196071Y105749D02*
D03*
X-118071Y79750D02*
D03*
X-105071Y53750D02*
D03*
X-157070Y92749D02*
D03*
X-131070D02*
D03*
X-196071Y86250D02*
D03*
X-189572Y79750D02*
D03*
Y53750D02*
D03*
X-98571Y14749D02*
D03*
X-131070Y34251D02*
D03*
X-124571Y47250D02*
D03*
X-131070Y73250D02*
D03*
X-131070Y60250D02*
D03*
Y53750D02*
D03*
Y47250D02*
D03*
X-163570Y34251D02*
D03*
X-90678Y87884D02*
D03*
X-105071Y73250D02*
D03*
X-90678Y94234D02*
D03*
X-196071Y21248D02*
D03*
X-71981Y142545D02*
D03*
X-150570Y105749D02*
D03*
X-124571Y73250D02*
D03*
X-84836Y130302D02*
D03*
X-144070Y92749D02*
D03*
X-66294Y142494D02*
D03*
X-150570Y99249D02*
D03*
X-124571Y27748D02*
D03*
X-144070Y34251D02*
D03*
X-81280Y112395D02*
D03*
X-105071Y79750D02*
D03*
X-189572Y34251D02*
D03*
X-124571Y21248D02*
D03*
X-118071Y99249D02*
D03*
X-170070Y21248D02*
D03*
X-124571Y99249D02*
D03*
Y105749D02*
D03*
X-183069Y27748D02*
D03*
X-176569Y47250D02*
D03*
X-158568Y197941D02*
D03*
Y190440D02*
D03*
X-188568Y197941D02*
D03*
X-143570Y182940D02*
D03*
Y197941D02*
D03*
X-176569Y40750D02*
D03*
X-183069Y34251D02*
D03*
X-118071Y21248D02*
D03*
Y14749D02*
D03*
X-176569Y105749D02*
D03*
Y99249D02*
D03*
X-144070Y27748D02*
D03*
X-111571Y21248D02*
D03*
X-118071Y34251D02*
D03*
X-111571Y53750D02*
D03*
Y34251D02*
D03*
X-163570Y99249D02*
D03*
X-183069Y47250D02*
D03*
X-113570Y182940D02*
D03*
X-121068D02*
D03*
X-143570Y175439D02*
D03*
X-128568Y205439D02*
D03*
X-136069D02*
D03*
X-158568Y160438D02*
D03*
X-163570Y105749D02*
D03*
X-121068Y167938D02*
D03*
Y175439D02*
D03*
Y160438D02*
D03*
Y152940D02*
D03*
X-128568Y167938D02*
D03*
X-131070Y105749D02*
D03*
X-166069Y212940D02*
D03*
X-137570Y92749D02*
D03*
X-136069Y160438D02*
D03*
X-111571Y40750D02*
D03*
X-98571Y21248D02*
D03*
X-121068Y220440D02*
D03*
X-166820Y12700D02*
D03*
X-128568Y227941D02*
D03*
X-131070Y21248D02*
D03*
X-121068Y197941D02*
D03*
Y212940D02*
D03*
X-136069Y220440D02*
D03*
X-124571Y34251D02*
D03*
X-136069Y227941D02*
D03*
X-176569Y53750D02*
D03*
X-118071Y27748D02*
D03*
X-121068Y205439D02*
D03*
X-143570Y220440D02*
D03*
X-136069Y212940D02*
D03*
X-111571Y99249D02*
D03*
X-128568Y212940D02*
D03*
X-137570Y105749D02*
D03*
X-111571Y86250D02*
D03*
X-128568Y220440D02*
D03*
X-151068Y175439D02*
D03*
X-105071Y66750D02*
D03*
X-143570Y167938D02*
D03*
X-118071Y53750D02*
D03*
X-105071Y40750D02*
D03*
X-128568Y197941D02*
D03*
X-111571Y47250D02*
D03*
X-128568Y182940D02*
D03*
X-176569Y66750D02*
D03*
X-111571D02*
D03*
X-118071D02*
D03*
X-66192Y131775D02*
D03*
X-105071Y86250D02*
D03*
X-66294Y137160D02*
D03*
X-105071Y92749D02*
D03*
X-111571D02*
D03*
X-105071Y105749D02*
D03*
Y99249D02*
D03*
X-183069Y21248D02*
D03*
X-157070Y27748D02*
D03*
Y105749D02*
D03*
X-188568Y212940D02*
D03*
X-194402Y114208D02*
D03*
X-183069Y105749D02*
D03*
X-189572Y27748D02*
D03*
X-183069Y53750D02*
D03*
Y66750D02*
D03*
X-173570Y212940D02*
D03*
X-181070D02*
D03*
X-176569Y92749D02*
D03*
X-118071Y112249D02*
D03*
X-124571D02*
D03*
X-160320Y113538D02*
D03*
X-111571Y105749D02*
D03*
X-183069Y99249D02*
D03*
X-189572Y105749D02*
D03*
X-196071Y99249D02*
D03*
X-183069Y92749D02*
D03*
Y86250D02*
D03*
X-157070Y99249D02*
D03*
X-168402Y113792D02*
D03*
X-111571Y14749D02*
D03*
X-105071D02*
D03*
X-189572Y73250D02*
D03*
X-105071Y112249D02*
D03*
X-111571D02*
D03*
D188*
X-113030Y-88900D02*
D03*
X213360Y-289560D02*
D03*
X-100330Y-336550D02*
D03*
X-64770Y-341630D02*
D03*
X-28702Y-370586D02*
D03*
X-42164Y-371094D02*
D03*
X68580Y-369570D02*
D03*
X200660Y-119380D02*
D03*
X-139700Y-87630D02*
D03*
X-127000Y-88900D02*
D03*
X242570Y-287020D02*
D03*
X90170Y-365760D02*
D03*
X165354Y-316992D02*
D03*
X233680Y-241300D02*
D03*
Y-255270D02*
D03*
X283210Y-228600D02*
D03*
X271780Y-217170D02*
D03*
X210820Y-311150D02*
D03*
X-14732Y-370586D02*
D03*
X290830Y-237490D02*
D03*
X120650Y-356870D02*
D03*
X107950Y-339090D02*
D03*
X84353Y-344780D02*
D03*
X97790Y-341630D02*
D03*
X-38100Y-353060D02*
D03*
X-15240Y-352552D02*
D03*
X-2540D02*
D03*
X-1016Y-370586D02*
D03*
X45720Y-347980D02*
D03*
X58420Y-342900D02*
D03*
X-50800Y-344170D02*
D03*
X-113030D02*
D03*
X72390Y-346710D02*
D03*
X220980Y-281940D02*
D03*
X231140Y-297180D02*
D03*
X279400Y-160020D02*
D03*
X284480Y-189230D02*
D03*
X311150Y-200660D02*
D03*
X279400Y-175260D02*
D03*
X297180Y-198120D02*
D03*
X-138296Y-134268D02*
D03*
X-106865Y-142350D02*
D03*
X-111355Y-134268D02*
D03*
X-115845Y-142350D02*
D03*
X-120335Y-134268D02*
D03*
X-124826Y-142350D02*
D03*
X-129316Y-134268D02*
D03*
X-142786Y-142350D02*
D03*
X-133806D02*
D03*
X-30988Y-229108D02*
D03*
X-35278Y-236220D02*
D03*
X-152766Y-223870D02*
D03*
Y-214630D02*
D03*
X197358Y-127000D02*
D03*
X191516Y-120142D02*
D03*
X205740Y-127000D02*
D03*
X214630D02*
D03*
Y-135890D02*
D03*
X205740D02*
D03*
X223520Y-139700D02*
D03*
X196850Y-135890D02*
D03*
X187960Y-128270D02*
D03*
X321310Y-125730D02*
D03*
X340360Y-127000D02*
D03*
X219710Y-85090D02*
D03*
X210820Y-76200D02*
D03*
X193040Y-63500D02*
D03*
Y-50800D02*
D03*
X299720Y-109220D02*
D03*
X298450Y-96520D02*
D03*
X289560Y-114300D02*
D03*
X279400Y-111252D02*
D03*
X289560Y-104140D02*
D03*
X265430Y-111252D02*
D03*
X228600Y-95250D02*
D03*
X289560Y-125730D02*
D03*
X346710Y-104140D02*
D03*
X328930Y-101600D02*
D03*
X308610Y-115570D02*
D03*
X316230Y-109220D02*
D03*
X299720Y-121920D02*
D03*
X309880Y-101600D02*
D03*
X316230Y-91440D02*
D03*
X311150Y-63500D02*
D03*
X309880Y-77470D02*
D03*
X317500Y-50800D02*
D03*
X193040Y-36830D02*
D03*
X172720Y-173482D02*
D03*
X172303Y-135602D02*
D03*
Y-149970D02*
D03*
X150750Y-135602D02*
D03*
X157935D02*
D03*
X165119D02*
D03*
X143566D02*
D03*
X168711Y-142786D02*
D03*
X163830Y-173482D02*
D03*
X154342Y-142786D02*
D03*
X161527D02*
D03*
X165119Y-149970D02*
D03*
X147158Y-142786D02*
D03*
X143566Y-149970D02*
D03*
X157935D02*
D03*
X150750D02*
D03*
X36819Y-149072D02*
D03*
X51188D02*
D03*
X44003D02*
D03*
X75426Y-134268D02*
D03*
X83000D02*
D03*
X77712Y-141888D02*
D03*
X85286D02*
D03*
X58372Y-149072D02*
D03*
X61964Y-141888D02*
D03*
X70046D02*
D03*
X66454Y-149072D02*
D03*
X75434D02*
D03*
X38354Y-173482D02*
D03*
X-70866D02*
D03*
X-68368Y-142786D02*
D03*
X-64776Y-135602D02*
D03*
X-57592D02*
D03*
X-82736Y-142786D02*
D03*
X-75552D02*
D03*
X-71960Y-149970D02*
D03*
X-61184Y-142786D02*
D03*
X-57646Y-149965D02*
D03*
X-64776Y-149970D02*
D03*
X-86328D02*
D03*
X-79144D02*
D03*
X-147320Y-327660D02*
D03*
X77470Y-209550D02*
D03*
Y-219710D02*
D03*
X-47232Y-150053D02*
D03*
Y-141669D02*
D03*
X132842Y-184150D02*
D03*
Y-193040D02*
D03*
X-37338Y-176530D02*
D03*
Y-185420D02*
D03*
Y-194310D02*
D03*
Y-203200D02*
D03*
X-97282Y-194310D02*
D03*
Y-184150D02*
D03*
X209550Y-207010D02*
D03*
Y-198120D02*
D03*
X218440D02*
D03*
X200660Y-207010D02*
D03*
X201676Y-199390D02*
D03*
X200660Y-215900D02*
D03*
X125730Y-127000D02*
D03*
X123474Y-149816D02*
D03*
X109731Y-141734D02*
D03*
X107037Y-149816D02*
D03*
X117696Y-141734D02*
D03*
X115001Y-149816D02*
D03*
X113541Y-134114D02*
D03*
X105069D02*
D03*
X121505D02*
D03*
X129978D02*
D03*
X101767Y-141734D02*
D03*
X98565Y-149816D02*
D03*
D189*
X226060Y269240D02*
D03*
X236220D02*
D03*
X190500Y275590D02*
D03*
Y285750D02*
D03*
X201930Y269240D02*
D03*
X212090D02*
D03*
D190*
X-107513Y-257211D02*
D03*
X76984D02*
D03*
X-15265Y-267987D02*
D03*
M02*
