M48
;Layer_Color=9474304
;FILE_FORMAT=4:4
METRIC,LZ
;TYPE=PLATED
T01F00S00C0.1524
T02F00S00C0.2032
T03F00S00C0.2540
T04F00S00C0.3048
T05F00S00C0.3810
T06F00S00C1.0160
T07F00S00C1.1938
T08F00S00C1.2192
T09F00S00C1.7000
T10F00S00C3.3000
;TYPE=NON_PLATED
T11F00S00C1.3208
T12F00S00C1.6000
T14F00S00C1.6510
%
T01
X-00196071Y00014749
Y00021248
X-00189572Y00027748
Y00034251
X-00183069
Y00027748
Y00021248
X-0017007
X-0016682Y000127
X-0015707Y00027748
X-0014407
Y00034251
X-0013757
X-0013107
X-00124571
Y0004075
Y0004725
X-0013107Y0004725
Y0005375
Y0006025
X-00124571
Y0007325
X-0013107Y0007325
X-00118071Y0007975
X-00111571
X-00105071
Y0007325
Y0006675
X-00111571
X-00118071
Y0005375
X-00111571
X-00105071
Y0004075
X-00111571
Y00034251
X-00118071
Y00027748
X-00124571
Y00021248
X-00118071
Y00014749
X-00111571
Y00021248
X-00098571
Y00014749
X-00105071
X-0013107Y00021248
X-0016357Y00034251
Y0004075
X-00176569
Y0004725
X-00183069
Y0005375
X-00176569
X-0017007
X-00176569Y0006675
Y0007325
Y0008625
Y00092749
Y00099249
Y00105749
X-00183069
Y00099249
Y00092749
Y0008625
X-00189572
X-00196071
X-00189572Y0007975
Y0007325
X-00183069Y0006675
X-00189572Y0005375
Y00099249
Y00105749
X-00196071
Y00099249
X-00194402Y00114208
X-00168402Y00113792
X-0016032Y00113538
X-0016357Y00105749
Y00099249
X-0015707
Y00092749
X-0016357Y0008625
X-0014407Y00092749
X-0013757
X-0013107
X-00124571
Y00099249
X-00118071
X-00111571
Y00092749
Y0008625
X-00118071
X-00105071
Y00092749
Y00099249
Y00105749
X-00111571
Y00112249
X-00118071
X-00124571
Y00105749
X-0013107
X-0013757
X-0015057
Y00099249
X-0015707Y00105749
X-00166069Y0015294
X-0018107
X-00188568
X-00144704Y00153396
X-00128568Y0015294
X-00121068
Y00145439
X-00112522Y00136144
X-00102616
X-0009842Y00132657
X-00097536Y0012385
X-00097809Y00112249
X-00105071
X-00109314Y00123444
X-00116492Y0012319
X-00084836Y00130302
X-00088138Y0013462
X-00081255Y00117831
X-0008128Y00112395
X-00090678Y00094234
Y00087884
X-00091415Y00038904
X-00111571Y0004725
X-00066192Y00131775
X-00066294Y0013716
Y00142494
X-00071981Y00142545
X-00106069Y00167938
X-00121068
Y00175439
Y0018294
X-0011357
X-00106069
X-00101566Y00188595
X-00106069Y0021294
X-00121068
Y0022044
X-00128568
Y00227941
X-00136069
Y0022044
X-0014357
Y0021294
Y00205439
Y00197941
X-00136069
Y00205439
X-00128568
Y00197941
X-00121068
Y00205439
X-00128568Y0021294
X-00136069
X-00158568
X-00166069
Y0022044
X-0017357
Y00227941
Y0021294
X-0018107
X-00188568
Y00197941
X-0018107
Y0019044
X-00188568
X-00202825
X-0017357
X-00166069
Y00197941
X-00158568
Y0019044
X-0014357Y0018294
X-00136069
Y00175439
X-0014357
X-00151068
X-0014357Y00167938
Y00160438
X-00136069
X-00121068
X-00128568Y00167938
Y0018294
X-00166069Y00175439
X-0017357
X-0018107
X-00188568
X-00196657Y00162753
X-00158568Y00160438
X-0014224Y0023876
X-00136069Y00235444
X-00128569Y00235441
T02
X-0025908Y-0027686
X-0026924Y-002667
X-0021463Y-0031242
X-0020066Y-0032131
X-0018669Y-0032893
X-0017018Y-0033782
X-0016383Y-0032258
X-0016129Y-0030353
X-0016303Y-002794
X-0017733
X-001778Y-0027178
X-00190093Y-00279578
X-0011049Y-0036195
X0011049Y-0024511
X0019812Y-0022225
X0020701Y-0021336
X002159Y-0020447
X0020955Y-000381
Y-0001905
X002286Y-0003175
X0024765
X0026416
Y-0001905
Y-0000635
Y0000635
Y0001905
Y0003175
Y0004445
Y0005715
Y0006985
X0024892Y0008255
X0025019Y0009525
X0024257Y001016
X0023495Y0009525
X0022733Y001016
X0022749Y001143
X0022209Y0012446
X0020909
X002032Y0011303
X0018923Y0011811
Y001016
X001905Y0007366
Y000508
Y0003175
X0024892
Y0005715
X0025781Y00108204
Y00120904
Y00133604
Y00146304
X0024765Y001524
X0022225
X002032
X0018923Y001397
X0024019Y001243
X002921Y-0004064
X0030861
X0032512
X0034417
X0036195
X0037084Y-0004699
X0037338Y-000635
X003683Y-0009017
X0036449Y-0010414
X0036068Y-0011684
X0035433Y-0013335
X0034925Y-0014605
X00101346Y-00079248
X00090678Y-00073152
X00077592Y-00054616
X00070739Y-0005461
X0006985Y-000254
X0005842Y-0003048
X0004953
X0003683
X0002794
X00018494Y-0003175
X00009575Y-00032056
X00003458Y-00032235
X00004024Y-00039216
X-00001815Y-00036054
X-0000762Y-0003175
X0000254Y-0002286
X000127Y-0002159
X0002921Y-0001905
X0004191Y-0002159
X00053988
X0004191Y-0004064
X0003937Y-000508
X00029401Y-00002491
X00025923Y0000254
X0001651Y0001524
X00014224Y0002921
X00005743Y00035581
X-0000254Y0003191
Y000254
X-0000762Y000381
X00001702Y00044704
X00009144Y0004953
X000127Y00055372
Y0006223
X00010439Y00068174
X00022276Y00072542
X00029169Y00072314
X00034834Y00076149
X0003302Y0009017
X00019629Y00087884
X00007112Y0008382
X-00004702Y0007868
X-00013462Y00078232
X-0001397Y0009017
X-000127Y00098806
X-00029972Y00087122
X-00030975Y00071641
X-00042672Y00068072
X-00046228Y00077216
X-00052806Y00092785
X-00042563Y001036
X-00069952Y00085344
X-00073363Y00076962
X-0006858Y00062484
X-00042386Y00054336
X-00042418Y00048006
X-00023876Y00035052
X-0002032Y0002794
X-0002286Y00002502
X-0000508Y0000508
X0000508
Y-0000508
X-0000508
X00030681Y0002286
X0003048Y0003556
X00033274Y00042926
X00026924Y00043078
X00014478Y00044958
X0004064Y00055372
Y0006223
X000508Y001016
X0006731
X0008001Y0010795
X0007747Y0009144
X0009144Y0009652
X0010795Y0009525
X00127
Y000762
X0010795
Y0005715
Y000381
Y0001905
X0013335Y000381
Y0005715
X0015621Y000381
X0017272Y0003175
Y000127
X0017145Y0005334
Y000889
X0014351Y0010414
X00127Y001143
Y0013335
X0010795
Y001524
X001397Y0014605
X0017145Y001397
X0010795Y001143
X0001651Y0013462
X0001778Y0015494
X-00135308Y00137186
X-0016383Y0013335
X-0017145
X-00176021Y00128015
X-00184657Y00128016
X-0018358Y00113267
X-00176823
X-00193294Y00136652
X-0019939Y0006604
Y00056459
X-0020066Y0004572
Y0002905
X-00207772Y00013391
X-0020701Y0000508
X-0021209Y-0001778
Y-0002667
Y-0003556
Y-0004445
Y-0005334
Y-0006223
Y-0007112
X-0019812Y-0007874
X-001905Y-0007874
X-0018034
X-0017653Y-0007239
Y-0006223
Y-0005334
Y-0004445
Y-0003556
Y-0002667
Y-0001778
X-00190754
X-0019939Y-0003556
Y-0004445
Y-0005334
X-0020701Y-00098369
Y-00107368
X-0021082Y-0012446
X-0019939Y-0013335
X-0018669Y-0011049
X-00170434Y-00103378
X-0016129Y-0010287
X-0015748Y-0011938
X-0016129Y-0013335
X-00150548Y-00081356
X-00144399Y-00018415
X-0014732Y0000508
X-00155194Y00005105
X-00172212Y-0000254
X-0015707Y0004725
X-0015057
Y0005375
Y0006025
X-0014407
Y0005375
Y0004725
X-0013757
Y0005375
Y0006025
Y0006675
Y0007325
X-0014407
Y0007975
X-0015057
Y0007325
Y0006675
X-0014407
X-0015707Y0006675
Y0006025
Y0005375
Y0007325
X-0013757Y0007975
X-00106454Y0000318
X-00082296Y-0007493
X-00006799Y-00079243
X0008509Y-0003048
X00101854Y-0004191
X0013335Y-0001905
X00108637Y-00238206
X00003302Y-00237236
X-0000889Y-0023241
X-00179451Y-00236677
X-0023241Y-002286
X-0024765Y-0020955
Y-0017907
X-0027559Y-0017653
Y-00183568
X-0028321Y-0020955
X-003048Y-0022479
X-0029591Y-0023622
X-0032131Y-0019939
X-0033147Y-0018288
X-0033655Y-0017399
X-0034671Y-0015113
X-0035306Y-0013716
X-0033528Y-0013589
Y-0012557
X-00340868Y-0012192
Y-0011557
Y-0010922
X-00357886Y-00111252
X-00357378Y-00116586
X-0035908Y-00105943
X-0032385Y-0010033
X-0031496
X-0030734
X-0029972
X-0029083
X-0028067
Y-0009271
X-0027559Y-0008763
X-002794Y-00076708
X-00292862
X-0029718Y-000508
Y-00036068
Y-0002413
Y-0001524
Y-00004298
Y00008402
Y00021102
Y00033802
Y00046502
Y00059202
Y0006731
X-00316Y000635
X-003175Y0007366
X-0033147
Y000635
X-0032939Y0005207
X-003175Y0004572
Y0003302
Y0002032
Y0000762
Y-0000508
Y-0001778
Y-0002921
X-0033401
Y-0001778
X-0033609Y0
Y000127
Y000254
Y000381
X-0034671Y0003302
Y0002032
X-0035449Y000127
X-0034671Y-0000508
X-0024638Y-0000381
Y0000889
Y0002159
X-0023576Y0001397
Y0000127
Y-0001143
X-0022987Y-0000635
Y-0001778
X-0024638Y-0002032
X-0022987Y0002413
X-0025527Y000381
Y000508
X-0026416
Y000635
Y0007112
X-0025527Y000635
X-0026416Y0010033
X-0036449Y0010414
X-003556Y0013081
X-0034671Y0015113
X-0027799Y-00058026
X-0027164
X-00253733Y-00082817
X-0024257Y-0008128
X-002289
X-0022225Y-0010287
Y-0013335
X-0022479Y-0016002
X-0026035Y-0013335
X-0028067Y-0013589
X-0029083
X-0029972
X-0030734
X-0031496
X-0032258
X-0032004Y-0011811
X-0032766
X-0031115
X-003048
X-0029591
X-0028083Y-0012557
X-0028067Y-0011065
X-0027305Y-0011049
X-0026797Y-00098369
X-00300482Y0018923
X-0031496
X-00310364Y00199366
X-0032385Y0019685
X-0032893Y0018796
X-0033528Y0017653
X-0034163Y0016383
X-00294132Y00199644
X-0028702Y0020447
X-00285242Y0021636
X-0030226Y00210312
X-0029337Y0024003
X-00234168Y0029335
X-00221452Y00294349
X-00225387Y00300063
X-0021717Y0030701
X-00204632Y00308009
X-00199809Y00303187
X-0020701Y003175
X-0019431Y0032512
X-0018161Y0033274
X-0016891Y0033909
X-0015621Y0034544
X-0014097Y0035179
X-0012446Y0035814
X-0010414Y0036449
X-0008382Y0036957
X-0006477Y0037338
X-0004699Y0037592
X-0002159Y0037846
X-00002286Y00373634
X0000127Y00363268
X00017699
X0001778Y00373634
X00012954Y00369268
X0003302Y0037084
Y00363268
X00039977Y00353822
X0004572Y0034417
X0005207Y003302
X0003556Y0033274
X00023548Y00353822
X0000712Y0034417
X-0000619Y0034925
X-00017653
X-0004191Y0029972
X-0003556Y0028956
X-0006477Y0022479
X-0007366Y0021717
X-0008382Y0022479
X-00112563Y00229443
X-0011192Y0023749
X-001524Y0023876
X-0016002Y0025908
X-00172532Y00258496
X-00182372Y00258496
X-00182101Y00269223
X-0018542Y0028448
X-0019431
X-002032Y00284524
X-0016129Y0028702
Y00278171
Y0029591
X-0015367Y0029972
X-0014605Y0029718
X-0013589Y0029972
X-0013716Y002667
X-0012954
X-00202332Y00198888
X-0021082Y0018288
X0001778Y0019939
X0005842Y0023622
Y002794
X0005461Y0030099
X00056406Y00353822
X0004953Y00363268
Y0037084
X00064216Y0036957
X00074465
X0008001Y0035814
X0011176Y0036195
X00128524Y00356616
X0014732Y0034925
X0003937Y0037719
X0010795Y0020955
X00127
Y001905
X0010795
Y0017145
X0015875Y0016637
X0017145Y0015875
X0017907Y0018923
X0017653Y0021209
X002032Y0020447
Y0018923
Y0017145
X0022225
X0024765
X0026416
Y0015875
Y0018415
Y0019685
Y0020955
Y0022225
Y0023749
X0024765Y0022225
Y0020955
X002286
X0018923Y0017653
Y0015875
X001905Y0032766
X0022479Y003048
X0024765Y0028702
X0025908Y0027686
T03
X-00211709Y-00298196
X-00159977Y-0025908
X-00160599Y-0024638
X-00125059Y-00335197
X-00075168Y-0033528
X-00027174Y-00345075
X00022717Y-0034544
X00072289Y-0033528
X0011938Y-0033655
X0018796Y-0032639
X0019685Y-0032004
X00267624Y-00265776
X0027432Y-0025781
X0028321Y-0024638
X0026035Y-0021336
X0018923Y-0019558
X00182609Y-00148844
Y-00141986
X00134837Y-0014605
X0013462Y-0020574
X00104902Y-00228854
X00050799Y-00228346
X00018288Y-00223012
X00012192Y-00231394
X-00057151Y-002286
X-00094742Y-00206502
X-0013335Y-002286
X-0016256Y-0022987
X-0018669Y-0013335
X-0018034Y-0010287
X-0015113Y-00106934
Y-00115062
X-0009271Y-00127
X-00091048Y-001397
X-0009144Y-00075184
X-0011176Y-0007493
X-00109982Y-0001778
X-0009398Y-0001651
X-0008763
Y-0000889
X-000635Y-0001143
X-0005715
Y-0000508
Y0000127
X-000635
Y-0000508
X-0006604Y-0001778
X-0005969
X-0003683Y-0001143
Y-0000381
X-00040462Y00014326
X-0004064Y0002159
X-00032715Y00014021
X0Y0
X-0001397Y-0006731
X-0002032
X-00054864Y-0006985
X-0005588Y-0007874
X-00055118Y-00095758
X-00032512Y-00093472
X00000242Y-00087106
X00009132
X00018022
X00026911
X0002286Y-0008128
X00029451Y-00079486
X00018022Y-0007466
X0001397Y-0008128
X00006592Y-00079486
X00059289Y-00076053
X00061536Y-00116162
X0006654Y-00121166
X00066802Y-00130302
X0005805Y-00131688
X0005283Y-00126468
X00045866Y-00131908
X00050705Y-00136747
X00040386Y-0013843
X00032193Y-00139686
X00027265Y-00144613
X00018796Y-00145542
X0001016Y-0014732
X00003329Y-00141099
X-000017Y-00146128
X-00004572Y-00136398
X-00014732Y-0013716
X-00010414Y-0013081
X00073614Y-0011684
X0006858Y-0011049
X0008382Y-0011811
X00101854Y-00086868
X0011557Y-0004318
Y-0003556
X00074015Y-00158708
Y-00165237
X-0005334Y-0006096
X-000361Y00101372
X-0004191Y00114076
X-00037857Y0013081
X-0001778Y00114299
X0001016Y00114076
X0000381Y00122784
X00004369Y00131445
X-00001626Y00126695
X0001778Y00126776
Y00101376
X00129451Y0015748
X-0014605Y0012827
X-0021082Y001524
X-0021209Y00099822
Y0009271
X-0025781
Y00083058
X-0027559Y0008636
X-0028702
X-0032131Y0008509
X-0033147
X-0034163
X-003556Y0011176
X-0034671Y0013589
X-0033782
X-0032893
X-002921Y00133351
X-0028194Y001397
Y0014859
Y0015748
X-0027305
X-0026416
Y0014859
X-0027305
Y001397
X-0026416
X-0021971Y0014732
Y0015748
X-002413Y0006096
Y0004953
Y0004191
X-0026416Y00033802
Y0002667
X-0026543Y0000254
X-00305308Y-00043668
X-0031244
X-0032131Y-0005715
X-003302
X-0034036
X-0034925Y-0006223
Y-0007112
X-003429Y-0007747
X-0033655Y-001524
Y-0016002
X-003302Y-0015621
X-0032893Y-0016383
X-0030607Y-00156972
X-0029718
X-0029591Y-0018034
Y-0018923
X-0030607
Y-0018034
X-0026416Y-0018796
X-0027051Y-0020955
X-002413Y-0023749
X-0026416Y-0015748
X-0024765Y-0013335
Y-0011049
Y-0010287
X-0023495
X-0034798Y0004572
X-0032893Y0017145
X-00312674Y00181356
X-00296926
X-00286766
X-00276606
X-00265176
X-0026289Y001905
X-0027305
X-0028321
X-00254Y0018796
X-0024384
X-0023495
X-0024003Y0025019
X-0025019
X-0026162
X-002667Y00242824
X-00276352
X-00285242
X-0027432Y0025146
X-0026797Y0025781
X-00262382Y00266954
X-00258572Y0027305
X-00252222Y00276352
X-0022606Y00283972
X-00178562Y0027813
X-00168147Y00272287
X-0016129Y0026797
X-0015113
X-0016002Y0024673
X-0016764Y00244399
X-00203708Y00223266
X-00212598
X-0017907Y0029591
X-0018161Y0032512
X-0015621Y0032893
X-00118109Y003302
X-0012446Y0034179
X-00110692Y00347331
X-00071119Y00342899
X-00058421Y003429
X-00073647Y00356758
X-00085587Y00319711
X-00127Y00302514
X-0013208Y002921
X-0011557Y0028575
Y0027575
X-00116841Y00266699
X-0000127Y00257913
X00004053Y0027178
X00015931Y00264739
X0005207Y00257913
X0005842Y00245212
Y00270613
Y00308713
X0005207Y00321413
X0005842Y00334113
X00064216Y003426
X0008382Y0033528
Y00325971
X00091393Y0030861
X00092019Y0029337
X00101018
X0012192Y00296611
X00121919Y0031115
X001397Y00311107
X0014224Y0029464
X00149169Y0027686
X00158168
X00171404Y0027813
X00181656
X0018034Y00296611
X0017526Y0031115
X0016637
X0016129Y0033782
X0013716Y0034798
X0011938Y0035179
X00108829Y00351399
X00119334Y0027813
X00129586
X00121919Y0025019
X00096519
X00148589Y00250191
X00173989Y0025019
X0001778Y00190276
X0001016Y00177576
X0001778Y00164876
X-0002413Y0016637
X-00037857Y00166127
X-0004191Y00177576
X-00024709Y0018542
X-0002032Y0019939
X-0000762
X-0002032Y0021336
Y0022479
X00004053Y0030734
X00015931Y00314269
X-0000127Y00321413
X-0002667Y0036195
X0022606Y0029464
X0023622
X00237738Y0023241
X00225038
X00212338
X00199638
X002286Y0018288
T04
X001905Y0027559
Y0028575
X0020193Y0026924
X0021209
X0022606
X0023622
T05
X-0014732Y-0032766
X-0011303Y-0034417
X-0010033Y-0033655
X-0006477Y-0034163
X-000508Y-0034417
X-000381Y-0035306
X-00042164Y-00371094
X-00028702Y-00370586
X-00014732
X-00001016
X-0000254Y-00352552
X-0001524
X0004572Y-0034798
X0005842Y-003429
X0007239Y-0034671
X00084353Y-0034478
X0009779Y-0034163
X0010795Y-0033909
X0012065Y-0035687
X0009017Y-0036576
X0006858Y-0036957
X00165354Y-00316992
X0021082Y-0031115
X0021336Y-0028956
X0022098Y-0028194
X0023114Y-0029718
X0024257Y-0028702
X0023368Y-0025527
Y-002413
X0020955Y-0020701
Y-0019812
X0021844
X00201676Y-0019939
X0020066Y-0020701
Y-002159
X0027178Y-0021717
X0028321Y-002286
X0029083Y-0023749
X0029718Y-0019812
X0031115Y-0020066
X0028448Y-0018923
X002794Y-0017526
Y-0016002
X0028956Y-0012573
Y-001143
Y-0010414
X0029972Y-0010922
Y-0012192
X0030861Y-0011557
X0031623Y-0010922
X0030988Y-001016
X0029845Y-0009652
X0031623Y-0009144
X0030988Y-0007747
X0031115Y-000635
X003175Y-000508
X0032893Y-001016
X0034671Y-0010414
X0034036Y-00127
X0032131Y-0012573
X002794Y-00111252
X0026543
X002286Y-0009525
X0021971Y-0008509
X0021082Y-000762
X0019304Y-000635
Y-000508
Y-0003683
X00191516Y-00120142
X0020066Y-0011938
X00197358Y-00127
X0020574
X0021463
Y-0013589
X0020574
X0019685
X0018796Y-0012827
X0022352Y-001397
X00172303Y-00135602
X00165119
X00157935
X0015075
X00143566
X00147158Y-00142786
X00154342
X00161527
X00168711
X00172303Y-0014997
X00165119
X00157935
X0015075
X00143566
X00123474Y-00149816
X00115001
X00107037
X00098565
X00101767Y-00141734
X00109731
X00117696
X00121505Y-00134114
X00113541
X00105069
X00083Y-00134268
X00075426
X00077712Y-00141888
X00085286
X00070046
X00061964
X00058372Y-00149072
X00051188
X00044003
X00036819
X00038354Y-00173482
X00066454Y-00149072
X00075434
X0007747Y-0020955
Y-0021971
X00132842Y-0019304
Y-0018415
X0016383Y-00173482
X0017272
X00129978Y-00134114
X0012573Y-00127
X-00047232Y-00141669
Y-00150053
X-00057646Y-00149965
X-00064776Y-0014997
X-0007196
X-00079144
X-00086328
X-00082736Y-00142786
X-00075552
X-00068368
X-00061184
X-00064776Y-00135602
X-00057592
X-00070866Y-00173482
X-00037338Y-0017653
Y-0018542
Y-0019431
Y-002032
X-00030988Y-00229108
X-00035278Y-0023622
X-00097282Y-0019431
Y-0018415
X-00106865Y-0014235
X-00115845
X-00124826
X-00133806
X-00142786
X-00138296Y-00134268
X-00129316
X-00120335
X-00111355
X-0011303Y-000889
X-00127
X-001397Y-0008763
X-00152766Y-0021463
Y-0022387
T06
X-0008255Y0015748
X-003048Y-0020828
T07
X-00107513Y-00257211
X-00015265Y-00267987
X00076984Y-00257211
T08
X-0022098Y-00250191
X-00201829Y-00266261
X00054897Y-00004204
X00079897
X00079897Y00020796
Y00045796
Y00070796
X00054897
Y00045796
Y00020796
Y00127622
X00079897
X00079897Y00152622
X00054897
Y00177622
Y00202622
X00079897
Y00177622
T09
X0031242Y-001651
X003429Y-00071175
T10
X0026563Y-00071175
X-00194454Y-00194454
X-00071175Y0026563
T11
X-00220018Y-00268491
T12
X00151697Y-00004204
Y00127622
T14
X-00306033Y-00064498
Y00094002
M30
