G04*
G04 #@! TF.GenerationSoftware,Altium Limited,Altium Designer,24.1.2 (44)*
G04*
G04 Layer_Physical_Order=2*
G04 Layer_Color=16711680*
%FSLAX44Y44*%
%MOMM*%
G71*
G04*
G04 #@! TF.SameCoordinates,F43E2160-E374-468F-ACC1-47B17D48A15B*
G04*
G04*
G04 #@! TF.FilePolarity,Positive*
G04*
G01*
G75*
%ADD31C,1.5000*%
%ADD32C,4.0000*%
%ADD33R,4.0000X4.0000*%
%ADD34R,2.7000X1.6000*%
%ADD35C,2.0000*%
%ADD36R,6.0000X6.0000*%
%ADD37C,6.0000*%
%ADD38R,4.0000X4.0000*%
%ADD39C,3.7000*%
%ADD40C,1.2700*%
G36*
X420000Y420000D02*
X456500D01*
Y399500D01*
X497281D01*
Y300500D01*
X456500D01*
Y264500D01*
X497281D01*
Y235500D01*
X456500D01*
Y199500D01*
X497281D01*
Y100500D01*
X456500D01*
Y80000D01*
X420000D01*
Y2719D01*
X80000D01*
Y80000D01*
X43500D01*
Y100500D01*
X2719D01*
Y199500D01*
X43500D01*
Y235500D01*
X2719D01*
Y264500D01*
X43500D01*
Y300500D01*
X2719D01*
Y399500D01*
X43500D01*
Y420000D01*
X80000D01*
Y497281D01*
X420000D01*
Y420000D01*
D02*
G37*
%LPC*%
G36*
X250000Y476126D02*
X244903Y475624D01*
X240002Y474137D01*
X235485Y471723D01*
X231526Y468474D01*
X228277Y464515D01*
X225863Y459998D01*
X224376Y455097D01*
X223874Y450000D01*
X224376Y444903D01*
X225863Y440002D01*
X228277Y435485D01*
X231526Y431526D01*
X235485Y428277D01*
X240002Y425863D01*
X244903Y424376D01*
X250000Y423874D01*
X255097Y424376D01*
X259998Y425863D01*
X264515Y428277D01*
X268474Y431526D01*
X271723Y435485D01*
X274137Y440002D01*
X275624Y444903D01*
X276126Y450000D01*
X275624Y455097D01*
X274137Y459998D01*
X271723Y464515D01*
X268474Y468474D01*
X264515Y471723D01*
X259998Y474137D01*
X255097Y475624D01*
X250000Y476126D01*
D02*
G37*
G36*
X442540Y408540D02*
X426000D01*
Y392000D01*
X442540D01*
Y408540D01*
D02*
G37*
G36*
X414000D02*
X397460D01*
Y392000D01*
X414000D01*
Y408540D01*
D02*
G37*
G36*
X297540Y382540D02*
X281000D01*
Y366000D01*
X297540D01*
Y382540D01*
D02*
G37*
G36*
X442540Y380000D02*
X426000D01*
Y363460D01*
X442540D01*
Y380000D01*
D02*
G37*
G36*
X414000D02*
X397460D01*
Y363460D01*
X414000D01*
Y380000D01*
D02*
G37*
G36*
X80000Y416093D02*
X75293Y415722D01*
X70701Y414620D01*
X66338Y412813D01*
X62312Y410346D01*
X58721Y407279D01*
X55654Y403688D01*
X53187Y399662D01*
X51380Y395299D01*
X50278Y390708D01*
X49907Y386000D01*
X50278Y381292D01*
X51380Y376701D01*
X53187Y372338D01*
X55654Y368312D01*
X58721Y364721D01*
X62312Y361655D01*
X66338Y359187D01*
X70701Y357380D01*
X75293Y356278D01*
X80000Y355907D01*
X84707Y356278D01*
X89299Y357380D01*
X93662Y359187D01*
X97688Y361655D01*
X101279Y364721D01*
X104346Y368312D01*
X106813Y372338D01*
X108620Y376701D01*
X109722Y381292D01*
X110093Y386000D01*
X109722Y390708D01*
X108620Y395299D01*
X106813Y399662D01*
X104346Y403688D01*
X101279Y407279D01*
X97688Y410346D01*
X93662Y412813D01*
X89299Y414620D01*
X84707Y415722D01*
X80000Y416093D01*
D02*
G37*
G36*
X297540Y354000D02*
X281000D01*
Y337460D01*
X297540D01*
Y354000D01*
D02*
G37*
G36*
X225000Y388588D02*
X220528Y388236D01*
X216166Y387189D01*
X212021Y385472D01*
X208196Y383128D01*
X204785Y380215D01*
X201872Y376804D01*
X199528Y372979D01*
X197811Y368834D01*
X196764Y364472D01*
X196412Y360000D01*
X196764Y355528D01*
X197811Y351166D01*
X199528Y347021D01*
X201872Y343196D01*
X204785Y339785D01*
X208196Y336872D01*
X212021Y334528D01*
X216166Y332811D01*
X220528Y331764D01*
X225000Y331412D01*
X229472Y331764D01*
X233834Y332811D01*
X237979Y334528D01*
X241804Y336872D01*
X245215Y339785D01*
X248128Y343196D01*
X249920Y346120D01*
X252460Y345404D01*
Y337460D01*
X269000D01*
Y360000D01*
Y382540D01*
X252460D01*
Y374596D01*
X249920Y373880D01*
X248128Y376804D01*
X245215Y380215D01*
X241804Y383128D01*
X237979Y385472D01*
X233834Y387189D01*
X229472Y388236D01*
X225000Y388588D01*
D02*
G37*
G36*
X102540Y336540D02*
X86000D01*
Y320000D01*
X102540D01*
Y336540D01*
D02*
G37*
G36*
X74000D02*
X57460D01*
Y320000D01*
X74000D01*
Y336540D01*
D02*
G37*
G36*
X102540Y308000D02*
X86000D01*
Y291460D01*
X102540D01*
Y308000D01*
D02*
G37*
G36*
X74000D02*
X57460D01*
Y291460D01*
X74000D01*
Y308000D01*
D02*
G37*
G36*
X420000Y344093D02*
X415293Y343722D01*
X410701Y342620D01*
X406338Y340813D01*
X402312Y338346D01*
X398721Y335279D01*
X395654Y331688D01*
X393187Y327662D01*
X391380Y323299D01*
X390278Y318708D01*
X389907Y314000D01*
X390278Y309293D01*
X391380Y304701D01*
X393187Y300338D01*
X395654Y296312D01*
X398721Y292721D01*
X402312Y289655D01*
X406338Y287187D01*
X410701Y285380D01*
X415293Y284278D01*
X420000Y283907D01*
X424707Y284278D01*
X429299Y285380D01*
X433662Y287187D01*
X437688Y289655D01*
X441279Y292721D01*
X444346Y296312D01*
X446813Y300338D01*
X448620Y304701D01*
X449722Y309293D01*
X450093Y314000D01*
X449722Y318708D01*
X448620Y323299D01*
X446813Y327662D01*
X444346Y331688D01*
X441279Y335279D01*
X437688Y338346D01*
X433662Y340813D01*
X429299Y342620D01*
X424707Y343722D01*
X420000Y344093D01*
D02*
G37*
G36*
X250000Y333626D02*
X244903Y333124D01*
X240002Y331637D01*
X235485Y329223D01*
X231526Y325974D01*
X228277Y322015D01*
X225863Y317498D01*
X224376Y312597D01*
X223874Y307500D01*
X224376Y302403D01*
X225863Y297502D01*
X228277Y292985D01*
X231526Y289026D01*
X235485Y285777D01*
X240002Y283363D01*
X244903Y281876D01*
X250000Y281374D01*
X255097Y281876D01*
X259998Y283363D01*
X264515Y285777D01*
X268474Y289026D01*
X271723Y292985D01*
X274137Y297502D01*
X275624Y302403D01*
X276126Y307500D01*
X275624Y312597D01*
X274137Y317498D01*
X271723Y322015D01*
X268474Y325974D01*
X264515Y329223D01*
X259998Y331637D01*
X255097Y333124D01*
X250000Y333626D01*
D02*
G37*
G36*
X297540Y277540D02*
X281000D01*
Y261000D01*
X297540D01*
Y277540D01*
D02*
G37*
G36*
Y249000D02*
X281000D01*
Y232460D01*
X297540D01*
Y249000D01*
D02*
G37*
G36*
X225000Y283588D02*
X220528Y283236D01*
X216166Y282189D01*
X212021Y280472D01*
X208196Y278128D01*
X204785Y275215D01*
X201872Y271804D01*
X199528Y267979D01*
X197811Y263834D01*
X196764Y259472D01*
X196412Y255000D01*
X196764Y250528D01*
X197811Y246166D01*
X199528Y242021D01*
X201872Y238196D01*
X204785Y234785D01*
X208196Y231872D01*
X212021Y229528D01*
X216166Y227811D01*
X220528Y226764D01*
X225000Y226412D01*
X229472Y226764D01*
X233834Y227811D01*
X237979Y229528D01*
X241804Y231872D01*
X245215Y234785D01*
X248128Y238196D01*
X249920Y241120D01*
X252460Y240404D01*
Y232460D01*
X269000D01*
Y255000D01*
Y277540D01*
X252460D01*
Y269596D01*
X249920Y268880D01*
X248128Y271804D01*
X245215Y275215D01*
X241804Y278128D01*
X237979Y280472D01*
X233834Y282189D01*
X229472Y283236D01*
X225000Y283588D01*
D02*
G37*
G36*
X442540Y208540D02*
X426000D01*
Y192000D01*
X442540D01*
Y208540D01*
D02*
G37*
G36*
X414000D02*
X397460D01*
Y192000D01*
X414000D01*
Y208540D01*
D02*
G37*
G36*
X250000Y216126D02*
X244903Y215624D01*
X240002Y214137D01*
X235485Y211723D01*
X231526Y208474D01*
X228277Y204515D01*
X225863Y199998D01*
X224376Y195097D01*
X223874Y190000D01*
X224376Y184903D01*
X225863Y180002D01*
X228277Y175485D01*
X231526Y171526D01*
X235485Y168277D01*
X240002Y165863D01*
X244903Y164376D01*
X250000Y163874D01*
X255097Y164376D01*
X259998Y165863D01*
X264515Y168277D01*
X268474Y171526D01*
X271723Y175485D01*
X274137Y180002D01*
X275624Y184903D01*
X276126Y190000D01*
X275624Y195097D01*
X274137Y199998D01*
X271723Y204515D01*
X268474Y208474D01*
X264515Y211723D01*
X259998Y214137D01*
X255097Y215624D01*
X250000Y216126D01*
D02*
G37*
G36*
X442540Y180000D02*
X426000D01*
Y163460D01*
X442540D01*
Y180000D01*
D02*
G37*
G36*
X414000D02*
X397460D01*
Y163460D01*
X414000D01*
Y180000D01*
D02*
G37*
G36*
X80000Y216093D02*
X75293Y215722D01*
X70701Y214620D01*
X66338Y212813D01*
X62312Y210346D01*
X58721Y207279D01*
X55654Y203688D01*
X53187Y199662D01*
X51380Y195299D01*
X50278Y190707D01*
X49907Y186000D01*
X50278Y181292D01*
X51380Y176701D01*
X53187Y172338D01*
X55654Y168312D01*
X58721Y164721D01*
X62312Y161654D01*
X66338Y159187D01*
X70701Y157380D01*
X75293Y156278D01*
X80000Y155907D01*
X84707Y156278D01*
X89299Y157380D01*
X93662Y159187D01*
X97688Y161654D01*
X101279Y164721D01*
X104346Y168312D01*
X106813Y172338D01*
X108620Y176701D01*
X109722Y181292D01*
X110093Y186000D01*
X109722Y190707D01*
X108620Y195299D01*
X106813Y199662D01*
X104346Y203688D01*
X101279Y207279D01*
X97688Y210346D01*
X93662Y212813D01*
X89299Y214620D01*
X84707Y215722D01*
X80000Y216093D01*
D02*
G37*
G36*
X102540Y136540D02*
X86000D01*
Y120000D01*
X102540D01*
Y136540D01*
D02*
G37*
G36*
X74000D02*
X57460D01*
Y120000D01*
X74000D01*
Y136540D01*
D02*
G37*
G36*
X102540Y108000D02*
X86000D01*
Y91460D01*
X102540D01*
Y108000D01*
D02*
G37*
G36*
X74000D02*
X57460D01*
Y91460D01*
X74000D01*
Y108000D01*
D02*
G37*
G36*
X420000Y144093D02*
X415293Y143722D01*
X410701Y142620D01*
X406338Y140813D01*
X402312Y138345D01*
X398721Y135279D01*
X395654Y131688D01*
X393187Y127662D01*
X391380Y123299D01*
X390278Y118708D01*
X389907Y114000D01*
X390278Y109292D01*
X391380Y104701D01*
X393187Y100338D01*
X395654Y96312D01*
X398721Y92721D01*
X402312Y89655D01*
X406338Y87187D01*
X410701Y85380D01*
X415293Y84278D01*
X420000Y83907D01*
X424707Y84278D01*
X429299Y85380D01*
X433662Y87187D01*
X437688Y89655D01*
X441279Y92721D01*
X444346Y96312D01*
X446813Y100338D01*
X448620Y104701D01*
X449722Y109292D01*
X450093Y114000D01*
X449722Y118708D01*
X448620Y123299D01*
X446813Y127662D01*
X444346Y131688D01*
X441279Y135279D01*
X437688Y138345D01*
X433662Y140813D01*
X429299Y142620D01*
X424707Y143722D01*
X420000Y144093D01*
D02*
G37*
G36*
X214000Y90124D02*
X207723Y89630D01*
X201601Y88160D01*
X195784Y85751D01*
X190416Y82461D01*
X185628Y78372D01*
X181539Y73584D01*
X178249Y68216D01*
X175840Y62399D01*
X174613Y57289D01*
X171982Y57211D01*
X171137Y59998D01*
X168723Y64515D01*
X165474Y68474D01*
X161515Y71723D01*
X156998Y74137D01*
X152097Y75624D01*
X147000Y76126D01*
X141903Y75624D01*
X137002Y74137D01*
X132485Y71723D01*
X128526Y68474D01*
X125277Y64515D01*
X122863Y59998D01*
X121376Y55097D01*
X120874Y50000D01*
X121376Y44903D01*
X122863Y40002D01*
X125277Y35485D01*
X128526Y31526D01*
X132485Y28277D01*
X137002Y25863D01*
X141903Y24376D01*
X147000Y23874D01*
X152097Y24376D01*
X156998Y25863D01*
X161515Y28277D01*
X165474Y31526D01*
X168723Y35485D01*
X171137Y40002D01*
X171982Y42789D01*
X174613Y42711D01*
X175840Y37601D01*
X178249Y31784D01*
X181539Y26416D01*
X185628Y21628D01*
X190416Y17539D01*
X195784Y14250D01*
X201601Y11840D01*
X207723Y10370D01*
X214000Y9876D01*
X220277Y10370D01*
X226399Y11840D01*
X232216Y14250D01*
X237584Y17539D01*
X242372Y21628D01*
X246461Y26416D01*
X249750Y31784D01*
X250920Y34608D01*
X253460Y34102D01*
Y17460D01*
X280000D01*
Y50000D01*
Y82540D01*
X253460D01*
Y65897D01*
X250920Y65392D01*
X249750Y68216D01*
X246461Y73584D01*
X242372Y78372D01*
X237584Y82461D01*
X232216Y85751D01*
X226399Y88160D01*
X220277Y89630D01*
X214000Y90124D01*
D02*
G37*
G36*
X318540Y82540D02*
X292000D01*
Y56000D01*
X318540D01*
Y82540D01*
D02*
G37*
G36*
X353000Y76126D02*
X347903Y75624D01*
X343002Y74137D01*
X338485Y71723D01*
X334526Y68474D01*
X331277Y64515D01*
X328863Y59998D01*
X327376Y55097D01*
X326874Y50000D01*
X327376Y44903D01*
X328863Y40002D01*
X331277Y35485D01*
X334526Y31526D01*
X338485Y28277D01*
X343002Y25863D01*
X347903Y24376D01*
X353000Y23874D01*
X358097Y24376D01*
X362998Y25863D01*
X367515Y28277D01*
X371474Y31526D01*
X374723Y35485D01*
X377137Y40002D01*
X378624Y44903D01*
X379126Y50000D01*
X378624Y55097D01*
X377137Y59998D01*
X374723Y64515D01*
X371474Y68474D01*
X367515Y71723D01*
X362998Y74137D01*
X358097Y75624D01*
X353000Y76126D01*
D02*
G37*
G36*
X318540Y44000D02*
X292000D01*
Y17460D01*
X318540D01*
Y44000D01*
D02*
G37*
%LPD*%
D31*
X250000Y450000D02*
D03*
Y190000D02*
D03*
Y307500D02*
D03*
X470000Y30000D02*
D03*
Y470000D02*
D03*
X30000Y30000D02*
D03*
Y470000D02*
D03*
D32*
X80000Y386000D02*
D03*
X420000Y114000D02*
D03*
Y314000D02*
D03*
X80000Y186000D02*
D03*
D33*
Y314000D02*
D03*
X420000Y186000D02*
D03*
Y386000D02*
D03*
X80000Y114000D02*
D03*
D34*
X20000Y417500D02*
D03*
Y282500D02*
D03*
X480000Y82500D02*
D03*
Y217500D02*
D03*
Y282500D02*
D03*
Y417500D02*
D03*
X20000Y217500D02*
D03*
Y82500D02*
D03*
D35*
X353000Y50000D02*
D03*
X147000D02*
D03*
D36*
X286000D02*
D03*
D37*
X214000D02*
D03*
D38*
X275000Y255000D02*
D03*
Y360000D02*
D03*
D39*
X225000Y255000D02*
D03*
Y360000D02*
D03*
D40*
X278892Y163068D02*
D03*
M02*
