G04*
G04 #@! TF.GenerationSoftware,Altium Limited,Altium Designer,24.1.2 (44)*
G04*
G04 Layer_Physical_Order=1*
G04 Layer_Color=255*
%FSLAX44Y44*%
%MOMM*%
G71*
G04*
G04 #@! TF.SameCoordinates,F43E2160-E374-468F-ACC1-47B17D48A15B*
G04*
G04*
G04 #@! TF.FilePolarity,Positive*
G04*
G01*
G75*
%ADD13R,3.8100X4.2418*%
%ADD14R,2.2098X2.3622*%
%ADD26C,4.0000*%
%ADD27C,0.1520*%
%ADD28C,2.0000*%
%ADD29C,0.3810*%
%ADD30C,0.5080*%
%ADD31C,1.5000*%
%ADD32C,4.0000*%
%ADD33R,4.0000X4.0000*%
%ADD34R,2.7000X1.6000*%
%ADD35C,2.0000*%
%ADD36R,6.0000X6.0000*%
%ADD37C,6.0000*%
%ADD38R,4.0000X4.0000*%
%ADD39C,3.7000*%
%ADD40C,1.2700*%
G36*
X420000Y420000D02*
X456500D01*
Y399500D01*
X497281D01*
Y300500D01*
X456500D01*
Y264500D01*
X497281D01*
Y235500D01*
X456500D01*
Y199500D01*
X497281D01*
Y100500D01*
X456500D01*
Y80000D01*
X420000D01*
Y2719D01*
X80000D01*
Y80000D01*
X43500D01*
Y100500D01*
X2719D01*
Y199500D01*
X43500D01*
Y235500D01*
X2719D01*
Y264500D01*
X43500D01*
Y300500D01*
X2719D01*
Y399500D01*
X43500D01*
Y420000D01*
X80000D01*
Y497281D01*
X420000D01*
Y420000D01*
D02*
G37*
%LPC*%
G36*
X252561Y476000D02*
X247439D01*
X242416Y475001D01*
X237684Y473041D01*
X233426Y470196D01*
X229804Y466574D01*
X226959Y462316D01*
X224999Y457584D01*
X224000Y452561D01*
Y447439D01*
X224999Y442416D01*
X226959Y437684D01*
X229804Y433426D01*
X233426Y429804D01*
X237684Y426959D01*
X242416Y424999D01*
X247439Y424000D01*
X252561D01*
X257584Y424999D01*
X262316Y426959D01*
X266574Y429804D01*
X270196Y433426D01*
X273041Y437684D01*
X275001Y442416D01*
X276000Y447439D01*
Y452561D01*
X275001Y457584D01*
X273041Y462316D01*
X270196Y466574D01*
X266574Y470196D01*
X262316Y473041D01*
X257584Y475001D01*
X252561Y476000D01*
D02*
G37*
G36*
X305000Y390000D02*
X245000D01*
Y369951D01*
X243754Y369703D01*
X243645Y369966D01*
X241343Y373412D01*
X238412Y376343D01*
X234966Y378645D01*
X231137Y380231D01*
X231000Y380259D01*
Y360000D01*
Y339741D01*
X231137Y339769D01*
X234966Y341355D01*
X238412Y343657D01*
X241343Y346588D01*
X243645Y350034D01*
X243754Y350297D01*
X245000Y350049D01*
Y333015D01*
X242416Y332501D01*
X237684Y330541D01*
X233426Y327696D01*
X229804Y324074D01*
X226959Y319816D01*
X224999Y315084D01*
X224000Y310061D01*
Y304939D01*
X224999Y299916D01*
X226959Y295184D01*
X229804Y290926D01*
X233426Y287304D01*
X237684Y284459D01*
X242416Y282499D01*
X245000Y281985D01*
Y264951D01*
X243754Y264703D01*
X243645Y264966D01*
X241343Y268412D01*
X238412Y271343D01*
X234966Y273645D01*
X231137Y275231D01*
X231000Y275259D01*
Y255000D01*
Y234741D01*
X231137Y234769D01*
X234966Y236355D01*
X238412Y238657D01*
X241343Y241588D01*
X243645Y245034D01*
X243754Y245297D01*
X245000Y245049D01*
Y225000D01*
X305000D01*
Y285000D01*
X265313D01*
X264944Y286215D01*
X266574Y287304D01*
X270196Y290926D01*
X273041Y295184D01*
X275001Y299916D01*
X276000Y304939D01*
Y310061D01*
X275001Y315084D01*
X273041Y319816D01*
X270196Y324074D01*
X266574Y327696D01*
X264944Y328785D01*
X265313Y330000D01*
X305000D01*
Y390000D01*
D02*
G37*
G36*
X219000Y380259D02*
X218863Y380231D01*
X215034Y378645D01*
X211588Y376343D01*
X208657Y373412D01*
X206355Y369966D01*
X204769Y366137D01*
X204741Y366000D01*
X219000D01*
Y380259D01*
D02*
G37*
G36*
X450000Y416000D02*
X390000D01*
Y356000D01*
X450000D01*
Y416000D01*
D02*
G37*
G36*
X166464Y416908D02*
X108364D01*
Y416093D01*
X80000D01*
X78821Y416000D01*
X77639D01*
X76471Y415815D01*
X75293Y415722D01*
X74143Y415446D01*
X72975Y415261D01*
X71851Y414896D01*
X70701Y414620D01*
X69608Y414167D01*
X68484Y413802D01*
X67431Y413265D01*
X66338Y412813D01*
X65330Y412195D01*
X64277Y411658D01*
X63320Y410963D01*
X62312Y410346D01*
X61413Y409578D01*
X60456Y408883D01*
X59620Y408047D01*
X58721Y407279D01*
X57953Y406380D01*
X57117Y405544D01*
X56422Y404587D01*
X55654Y403688D01*
X55037Y402680D01*
X54342Y401723D01*
X53805Y400670D01*
X53187Y399662D01*
X52735Y398569D01*
X52198Y397516D01*
X51833Y396391D01*
X51380Y395299D01*
X51104Y394150D01*
X50739Y393025D01*
X50554Y391857D01*
X50278Y390708D01*
X50185Y389529D01*
X50000Y388361D01*
Y387179D01*
X49907Y386000D01*
X50000Y384821D01*
Y383639D01*
X50185Y382471D01*
X50278Y381292D01*
X50554Y380143D01*
X50739Y378975D01*
X51104Y377851D01*
X51380Y376701D01*
X51833Y375608D01*
X52198Y374484D01*
X52735Y373431D01*
X53187Y372338D01*
X53805Y371330D01*
X54342Y370277D01*
X55037Y369320D01*
X55654Y368312D01*
X56422Y367413D01*
X57117Y366456D01*
X57953Y365620D01*
X58721Y364721D01*
X59620Y363953D01*
X60456Y363117D01*
X61413Y362422D01*
X62312Y361655D01*
X63320Y361037D01*
X64277Y360342D01*
X65330Y359805D01*
X66338Y359187D01*
X67431Y358735D01*
X68484Y358198D01*
X69608Y357833D01*
X70701Y357380D01*
X71851Y357104D01*
X72975Y356739D01*
X74143Y356554D01*
X75293Y356278D01*
X76471Y356185D01*
X77639Y356000D01*
X78821D01*
X80000Y355907D01*
X108364D01*
Y354490D01*
X166464D01*
Y378191D01*
X167136Y380992D01*
X167507Y385699D01*
X167136Y390406D01*
X166464Y393207D01*
Y416908D01*
D02*
G37*
G36*
X219000Y354000D02*
X204741D01*
X204769Y353863D01*
X206355Y350034D01*
X208657Y346588D01*
X211588Y343657D01*
X215034Y341355D01*
X218863Y339769D01*
X219000Y339741D01*
Y354000D01*
D02*
G37*
G36*
X110000Y344000D02*
X50000D01*
Y284000D01*
X110000D01*
Y344000D01*
D02*
G37*
G36*
X391762Y344772D02*
X333662D01*
Y321508D01*
X332990Y318708D01*
X332619Y314000D01*
Y313563D01*
X332990Y308855D01*
X333662Y306055D01*
Y282354D01*
X391762D01*
Y283907D01*
X420000D01*
X421179Y284000D01*
X422361D01*
X423529Y284185D01*
X424707Y284278D01*
X425857Y284554D01*
X427025Y284739D01*
X428149Y285104D01*
X429299Y285380D01*
X430392Y285833D01*
X431516Y286198D01*
X432569Y286735D01*
X433662Y287187D01*
X434670Y287805D01*
X435723Y288342D01*
X436680Y289037D01*
X437688Y289655D01*
X438587Y290422D01*
X439544Y291117D01*
X440380Y291953D01*
X441279Y292721D01*
X442047Y293620D01*
X442883Y294456D01*
X443578Y295413D01*
X444346Y296312D01*
X444963Y297320D01*
X445658Y298277D01*
X446195Y299330D01*
X446813Y300338D01*
X447265Y301431D01*
X447802Y302484D01*
X448167Y303608D01*
X448620Y304701D01*
X448896Y305851D01*
X449261Y306975D01*
X449446Y308143D01*
X449722Y309293D01*
X449815Y310471D01*
X450000Y311639D01*
Y312821D01*
X450093Y314000D01*
X450000Y315179D01*
Y316361D01*
X449815Y317529D01*
X449722Y318708D01*
X449446Y319857D01*
X449261Y321025D01*
X448896Y322149D01*
X448620Y323299D01*
X448167Y324392D01*
X447802Y325516D01*
X447265Y326569D01*
X446813Y327662D01*
X446195Y328670D01*
X445658Y329723D01*
X444963Y330680D01*
X444346Y331688D01*
X443578Y332587D01*
X442883Y333544D01*
X442047Y334380D01*
X441279Y335279D01*
X440380Y336047D01*
X439544Y336883D01*
X438587Y337578D01*
X437688Y338346D01*
X436680Y338963D01*
X435723Y339658D01*
X434670Y340195D01*
X433662Y340813D01*
X432569Y341265D01*
X431516Y341802D01*
X430392Y342167D01*
X429299Y342620D01*
X428149Y342896D01*
X427025Y343261D01*
X425857Y343446D01*
X424707Y343722D01*
X423529Y343815D01*
X422361Y344000D01*
X421179D01*
X420000Y344093D01*
X391762D01*
Y344772D01*
D02*
G37*
G36*
X219000Y275259D02*
X218863Y275231D01*
X215034Y273645D01*
X211588Y271343D01*
X208657Y268412D01*
X206355Y264966D01*
X204769Y261137D01*
X204741Y261000D01*
X219000D01*
Y275259D01*
D02*
G37*
G36*
Y249000D02*
X204741D01*
X204769Y248863D01*
X206355Y245034D01*
X208657Y241588D01*
X211588Y238657D01*
X215034Y236355D01*
X218863Y234769D01*
X219000Y234741D01*
Y249000D01*
D02*
G37*
G36*
X450000Y216000D02*
X390000D01*
Y156000D01*
X450000D01*
Y216000D01*
D02*
G37*
G36*
X166464Y217518D02*
X108364D01*
Y216093D01*
X80000D01*
X78821Y216000D01*
X77639D01*
X76471Y215815D01*
X75293Y215722D01*
X74143Y215446D01*
X72975Y215261D01*
X71851Y214896D01*
X70701Y214620D01*
X69608Y214167D01*
X68484Y213802D01*
X67431Y213265D01*
X66338Y212813D01*
X65330Y212195D01*
X64277Y211658D01*
X63320Y210963D01*
X62312Y210346D01*
X61413Y209578D01*
X60456Y208883D01*
X59620Y208047D01*
X58721Y207279D01*
X57953Y206380D01*
X57117Y205544D01*
X56422Y204587D01*
X55654Y203688D01*
X55037Y202680D01*
X54342Y201723D01*
X53805Y200670D01*
X53187Y199662D01*
X52735Y198569D01*
X52198Y197516D01*
X51833Y196392D01*
X51380Y195299D01*
X51104Y194149D01*
X50739Y193025D01*
X50554Y191857D01*
X50278Y190707D01*
X50185Y189529D01*
X50000Y188361D01*
Y187179D01*
X49907Y186000D01*
X50000Y184821D01*
Y183639D01*
X50185Y182471D01*
X50278Y181292D01*
X50554Y180143D01*
X50739Y178975D01*
X51104Y177851D01*
X51380Y176701D01*
X51833Y175609D01*
X52198Y174484D01*
X52735Y173431D01*
X53187Y172338D01*
X53805Y171330D01*
X54342Y170277D01*
X55037Y169320D01*
X55654Y168312D01*
X56422Y167413D01*
X57117Y166456D01*
X57953Y165620D01*
X58721Y164721D01*
X59620Y163953D01*
X60456Y163117D01*
X61413Y162422D01*
X62312Y161654D01*
X63320Y161037D01*
X64277Y160342D01*
X65330Y159805D01*
X66338Y159187D01*
X67431Y158735D01*
X68484Y158198D01*
X69608Y157833D01*
X70701Y157380D01*
X71851Y157104D01*
X72975Y156739D01*
X74143Y156554D01*
X75293Y156278D01*
X76471Y156185D01*
X77639Y156000D01*
X78821D01*
X80000Y155907D01*
X108364D01*
Y155100D01*
X166464D01*
Y178801D01*
X167136Y181602D01*
X167507Y186309D01*
X167136Y191017D01*
X166464Y193817D01*
Y217518D01*
D02*
G37*
G36*
X252561Y216000D02*
X247439D01*
X242416Y215001D01*
X237684Y213041D01*
X233426Y210196D01*
X229804Y206574D01*
X226959Y202316D01*
X224999Y197584D01*
X224000Y192561D01*
Y187439D01*
X224999Y182416D01*
X226959Y177684D01*
X229804Y173426D01*
X233426Y169804D01*
X237684Y166959D01*
X242416Y164999D01*
X247439Y164000D01*
X252561D01*
X255034Y164492D01*
X256016Y163686D01*
Y157784D01*
X244348D01*
X243357Y157587D01*
X242517Y157025D01*
X241955Y156185D01*
X241758Y155194D01*
Y154006D01*
X240619Y153445D01*
X239291Y154464D01*
X236241Y155727D01*
X232967Y156158D01*
X229693Y155727D01*
X226643Y154464D01*
X224023Y152454D01*
X222013Y149834D01*
X220750Y146784D01*
X220319Y143510D01*
X220750Y140236D01*
X222013Y137186D01*
X224023Y134566D01*
X231594Y126995D01*
X234214Y124985D01*
X237264Y123722D01*
X240538Y123291D01*
X243812Y123722D01*
X246862Y124985D01*
X249482Y126995D01*
X251201Y129236D01*
X256016D01*
Y121699D01*
X298114D01*
Y137884D01*
X298603Y139495D01*
X298989Y143416D01*
Y163068D01*
X298603Y166989D01*
X297459Y170759D01*
X295602Y174233D01*
X293103Y177279D01*
X290057Y179778D01*
X286583Y181635D01*
X282813Y182779D01*
X278892Y183165D01*
X276136Y182893D01*
X275283Y183834D01*
X276000Y187439D01*
Y192561D01*
X275001Y197584D01*
X273041Y202316D01*
X270196Y206574D01*
X266574Y210196D01*
X262316Y213041D01*
X257584Y215001D01*
X252561Y216000D01*
D02*
G37*
G36*
X110000Y144000D02*
X50000D01*
Y84000D01*
X110000D01*
Y144000D01*
D02*
G37*
G36*
X391762Y145128D02*
X333662D01*
Y114259D01*
X333635Y113919D01*
X333662Y113579D01*
Y82710D01*
X391762D01*
Y83907D01*
X420000D01*
X421179Y84000D01*
X422361D01*
X423529Y84185D01*
X424707Y84278D01*
X425857Y84554D01*
X427025Y84739D01*
X428149Y85104D01*
X429299Y85380D01*
X430392Y85833D01*
X431516Y86198D01*
X432569Y86735D01*
X433662Y87187D01*
X434670Y87805D01*
X435723Y88342D01*
X436680Y89037D01*
X437688Y89655D01*
X438587Y90422D01*
X439544Y91117D01*
X440380Y91953D01*
X441279Y92721D01*
X442047Y93620D01*
X442883Y94456D01*
X443578Y95413D01*
X444346Y96312D01*
X444963Y97320D01*
X445658Y98277D01*
X446195Y99330D01*
X446813Y100338D01*
X447265Y101431D01*
X447802Y102484D01*
X448167Y103609D01*
X448620Y104701D01*
X448896Y105851D01*
X449261Y106975D01*
X449446Y108143D01*
X449722Y109292D01*
X449815Y110471D01*
X450000Y111639D01*
Y112821D01*
X450093Y114000D01*
X450000Y115179D01*
Y116361D01*
X449815Y117529D01*
X449722Y118708D01*
X449446Y119857D01*
X449261Y121025D01*
X448896Y122149D01*
X448620Y123299D01*
X448167Y124391D01*
X447802Y125516D01*
X447265Y126569D01*
X446813Y127662D01*
X446195Y128670D01*
X445658Y129723D01*
X444963Y130680D01*
X444346Y131688D01*
X443578Y132587D01*
X442883Y133544D01*
X442047Y134380D01*
X441279Y135279D01*
X440380Y136047D01*
X439544Y136883D01*
X438587Y137578D01*
X437688Y138345D01*
X436680Y138963D01*
X435723Y139658D01*
X434670Y140195D01*
X433662Y140813D01*
X432569Y141265D01*
X431516Y141802D01*
X430392Y142167D01*
X429299Y142620D01*
X428149Y142896D01*
X427025Y143261D01*
X425857Y143446D01*
X424707Y143722D01*
X423529Y143815D01*
X422361Y144000D01*
X421179D01*
X420000Y144093D01*
X391762D01*
Y145128D01*
D02*
G37*
G36*
X326000Y90000D02*
X246000D01*
Y60925D01*
X244730Y60724D01*
X244156Y62491D01*
X241831Y67055D01*
X238820Y71198D01*
X235198Y74820D01*
X231055Y77831D01*
X226491Y80156D01*
X221620Y81739D01*
X220000Y81995D01*
Y50000D01*
Y18005D01*
X221620Y18261D01*
X226491Y19844D01*
X231055Y22169D01*
X235198Y25180D01*
X238820Y28802D01*
X241831Y32945D01*
X244156Y37509D01*
X244730Y39276D01*
X246000Y39074D01*
Y10000D01*
X326000D01*
Y45957D01*
X327270Y46082D01*
X327999Y42416D01*
X329959Y37684D01*
X332804Y33426D01*
X336426Y29804D01*
X340684Y26959D01*
X345416Y24999D01*
X350439Y24000D01*
X355561D01*
X360584Y24999D01*
X365316Y26959D01*
X369574Y29804D01*
X373195Y33426D01*
X376041Y37684D01*
X378001Y42416D01*
X379000Y47439D01*
Y52561D01*
X378001Y57584D01*
X376041Y62316D01*
X373195Y66574D01*
X369574Y70195D01*
X365316Y73041D01*
X360584Y75001D01*
X355561Y76000D01*
X350439D01*
X345416Y75001D01*
X340684Y73041D01*
X336426Y70195D01*
X332804Y66574D01*
X329959Y62316D01*
X327999Y57584D01*
X327270Y53918D01*
X326000Y54043D01*
Y90000D01*
D02*
G37*
G36*
X208000Y81995D02*
X206380Y81739D01*
X201509Y80156D01*
X196945Y77831D01*
X192802Y74820D01*
X189180Y71198D01*
X186169Y67055D01*
X183844Y62491D01*
X182261Y57620D01*
X182005Y56000D01*
X208000D01*
Y81995D01*
D02*
G37*
G36*
X149561Y76000D02*
X144439D01*
X139416Y75001D01*
X134684Y73041D01*
X130426Y70195D01*
X126805Y66574D01*
X123959Y62316D01*
X121999Y57584D01*
X121000Y52561D01*
Y47439D01*
X121999Y42416D01*
X123959Y37684D01*
X126805Y33426D01*
X130426Y29804D01*
X134684Y26959D01*
X139416Y24999D01*
X144439Y24000D01*
X149561D01*
X154584Y24999D01*
X159316Y26959D01*
X163574Y29804D01*
X167195Y33426D01*
X170041Y37684D01*
X172001Y42416D01*
X173000Y47439D01*
Y52561D01*
X172001Y57584D01*
X170041Y62316D01*
X167195Y66574D01*
X163574Y70195D01*
X159316Y73041D01*
X154584Y75001D01*
X149561Y76000D01*
D02*
G37*
G36*
X208000Y44000D02*
X182005D01*
X182261Y42380D01*
X183844Y37509D01*
X186169Y32945D01*
X189180Y28802D01*
X192802Y25180D01*
X196945Y22169D01*
X201509Y19844D01*
X206380Y18261D01*
X208000Y18005D01*
Y44000D01*
D02*
G37*
%LPD*%
D13*
X137414Y122555D02*
D03*
Y186309D02*
D03*
Y321945D02*
D03*
Y385699D02*
D03*
X362712Y177673D02*
D03*
Y113919D02*
D03*
Y377317D02*
D03*
Y313563D02*
D03*
D14*
X232967Y143510D02*
D03*
X277065D02*
D03*
D26*
X137105Y186000D02*
X137414Y186309D01*
X80000Y186000D02*
X137105D01*
X137113Y386000D02*
X137414Y385699D01*
X80000Y386000D02*
X137113D01*
X363728Y113919D02*
X363809Y114000D01*
X420000D01*
X362712Y313563D02*
Y314000D01*
X420000D01*
D27*
X363728Y113919D02*
X372410Y105237D01*
D28*
X277827Y142748D02*
X278224D01*
X278892Y143416D01*
Y163068D01*
D29*
X277065Y143510D02*
X277827Y142748D01*
D30*
X232967Y143510D02*
X240538Y135939D01*
D31*
X250000Y450000D02*
D03*
Y190000D02*
D03*
Y307500D02*
D03*
X470000Y30000D02*
D03*
Y470000D02*
D03*
X30000Y30000D02*
D03*
Y470000D02*
D03*
D32*
X80000Y386000D02*
D03*
X420000Y114000D02*
D03*
Y314000D02*
D03*
X80000Y186000D02*
D03*
D33*
Y314000D02*
D03*
X420000Y186000D02*
D03*
Y386000D02*
D03*
X80000Y114000D02*
D03*
D34*
X20000Y417500D02*
D03*
Y282500D02*
D03*
X480000Y82500D02*
D03*
Y217500D02*
D03*
Y282500D02*
D03*
Y417500D02*
D03*
X20000Y217500D02*
D03*
Y82500D02*
D03*
D35*
X353000Y50000D02*
D03*
X147000D02*
D03*
D36*
X286000D02*
D03*
D37*
X214000D02*
D03*
D38*
X275000Y255000D02*
D03*
Y360000D02*
D03*
D39*
X225000Y255000D02*
D03*
Y360000D02*
D03*
D40*
X278892Y163068D02*
D03*
M02*
