G04*
G04 #@! TF.GenerationSoftware,Altium Limited,Altium Designer,24.1.2 (44)*
G04*
G04 Layer_Color=8388736*
%FSLAX44Y44*%
%MOMM*%
G71*
G04*
G04 #@! TF.SameCoordinates,F43E2160-E374-468F-ACC1-47B17D48A15B*
G04*
G04*
G04 #@! TF.FilePolarity,Negative*
G04*
G01*
G75*
%ADD13R,3.8100X4.2418*%
%ADD15R,2.3368X2.4892*%
%ADD16C,1.7032*%
%ADD17C,4.1270*%
%ADD18R,4.1270X4.1270*%
%ADD19R,2.8270X1.7270*%
%ADD20C,2.2032*%
%ADD21R,6.1270X6.1270*%
%ADD22C,6.1270*%
%ADD23R,4.1270X4.1270*%
%ADD24C,3.8270*%
%ADD25C,1.4732*%
D13*
X137414Y122555D02*
D03*
Y186309D02*
D03*
Y321945D02*
D03*
Y385699D02*
D03*
X362712Y177673D02*
D03*
Y113919D02*
D03*
Y377317D02*
D03*
Y313563D02*
D03*
D15*
X232967Y143510D02*
D03*
X277065D02*
D03*
D16*
X250000Y450000D02*
D03*
Y190000D02*
D03*
Y307500D02*
D03*
X470000Y30000D02*
D03*
Y470000D02*
D03*
X30000Y30000D02*
D03*
Y470000D02*
D03*
D17*
X80000Y386000D02*
D03*
X420000Y114000D02*
D03*
Y314000D02*
D03*
X80000Y186000D02*
D03*
D18*
Y314000D02*
D03*
X420000Y186000D02*
D03*
Y386000D02*
D03*
X80000Y114000D02*
D03*
D19*
X20000Y417500D02*
D03*
Y282500D02*
D03*
X480000Y82500D02*
D03*
Y217500D02*
D03*
Y282500D02*
D03*
Y417500D02*
D03*
X20000Y217500D02*
D03*
Y82500D02*
D03*
D20*
X353000Y50000D02*
D03*
X147000D02*
D03*
D21*
X286000D02*
D03*
D22*
X214000D02*
D03*
D23*
X275000Y255000D02*
D03*
Y360000D02*
D03*
D24*
X225000Y255000D02*
D03*
Y360000D02*
D03*
D25*
X278892Y163068D02*
D03*
M02*
